<?xml version="1.0" encoding="utf-8" standalone="no"?>
<!DOCTYPE svg PUBLIC "-//W3C//DTD SVG 1.1//EN"
  "http://www.w3.org/Graphics/SVG/1.1/DTD/svg11.dtd">
<svg xmlns:xlink="http://www.w3.org/1999/xlink" width="731.430031pt" height="215.397188pt" viewBox="0 0 731.430031 215.397188" xmlns="http://www.w3.org/2000/svg" version="1.1">
 <metadata>
  <rdf:RDF xmlns:dc="http://purl.org/dc/elements/1.1/" xmlns:cc="http://creativecommons.org/ns#" xmlns:rdf="http://www.w3.org/1999/02/22-rdf-syntax-ns#">
   <cc:Work>
    <dc:type rdf:resource="http://purl.org/dc/dcmitype/StillImage"/>
    <dc:date>2026-06-26T22:26:27.343423</dc:date>
    <dc:format>image/svg+xml</dc:format>
    <dc:creator>
     <cc:Agent>
      <dc:title>Matplotlib v3.10.9, https://matplotlib.org/</dc:title>
     </cc:Agent>
    </dc:creator>
   </cc:Work>
  </rdf:RDF>
 </metadata>
 <defs>
  <style type="text/css">*{stroke-linejoin: round; stroke-linecap: butt}</style>
 </defs>
 <g id="figure_1">
  <g id="patch_1">
   <path d="M 0 215.397188 
L 731.430031 215.397188 
L 731.430031 0 
L 0 0 
L 0 215.397188 
z
" style="fill: none"/>
  </g>
  <g id="axes_1">
   <g id="patch_2">
    <path d="M 36.262031 182.68 
L 247.375365 182.68 
L 247.375365 59.28 
L 36.262031 59.28 
L 36.262031 182.68 
z
" style="fill: none"/>
   </g>
   <g id="patch_3">
    <path d="M 76.391012 182.68 
L 98.200241 182.68 
L 98.200241 59.28 
L 76.391012 59.28 
z
" clip-path="url(#peb0b258c17)" style="fill: #d9d9d9; stroke: #d9d9d9; stroke-linejoin: miter"/>
   </g>
   <g id="patch_4">
    <path d="M 98.200241 182.68 
L 172.351618 182.68 
L 172.351618 59.28 
L 98.200241 59.28 
z
" clip-path="url(#peb0b258c17)" style="fill: #ebebeb; stroke: #ebebeb; stroke-linejoin: miter"/>
   </g>
   <g id="FillBetweenPolyCollection_1">
    <defs>
     <path id="m59dc010301" d="M 45.858092 -77.901825 
L 45.858092 -61.14745 
L 48.039015 -60.575228 
L 50.219938 -59.143551 
L 52.40086 -54.535092 
L 54.581783 -49.70008 
L 56.762706 -53.334505 
L 58.943629 -60.387184 
L 61.124552 -62.893832 
L 63.305475 -64.927565 
L 65.486398 -67.200447 
L 67.667321 -68.650852 
L 69.848243 -68.033634 
L 72.029166 -67.588011 
L 74.210089 -65.672122 
L 76.391012 -63.772586 
L 78.571935 -63.076457 
L 80.752858 -63.342135 
L 82.933781 -63.775599 
L 85.114703 -62.639265 
L 87.295626 -63.291247 
L 89.476549 -65.949732 
L 91.657472 -69.459541 
L 93.838395 -72.793817 
L 96.019318 -71.484363 
L 98.200241 -68.488782 
L 100.381163 -68.668036 
L 102.562086 -68.716589 
L 104.743009 -65.915289 
L 106.923932 -62.055084 
L 109.104855 -60.382244 
L 111.285778 -63.597497 
L 113.466701 -68.151799 
L 115.647624 -71.065448 
L 117.828546 -73.444143 
L 120.009469 -76.136543 
L 122.190392 -77.160682 
L 124.371315 -75.398073 
L 126.552238 -74.923831 
L 128.733161 -75.193313 
L 130.914084 -76.602992 
L 133.095006 -76.987404 
L 135.275929 -77.745161 
L 137.456852 -81.589644 
L 139.637775 -83.713872 
L 141.818698 -81.329974 
L 143.999621 -77.782863 
L 146.180544 -76.225787 
L 148.361467 -78.126059 
L 150.542389 -79.332866 
L 152.723312 -78.652663 
L 154.904235 -77.402134 
L 157.085158 -76.951934 
L 159.266081 -75.59962 
L 161.447004 -73.986143 
L 163.627927 -74.917491 
L 165.808849 -74.538931 
L 167.989772 -73.70256 
L 170.170695 -75.638886 
L 172.351618 -75.838676 
L 174.532541 -74.46152 
L 176.713464 -73.295052 
L 178.894387 -70.067297 
L 181.075309 -63.313164 
L 183.256232 -59.757356 
L 185.437155 -60.983219 
L 187.618078 -63.696669 
L 189.799001 -60.937527 
L 191.979924 -58.2399 
L 194.160847 -57.038701 
L 196.34177 -55.866643 
L 198.522692 -54.479704 
L 200.703615 -55.498755 
L 202.884538 -59.181722 
L 205.065461 -61.203915 
L 207.246384 -61.141301 
L 209.427307 -63.509878 
L 211.60823 -65.234991 
L 213.789152 -64.929811 
L 215.970075 -62.464658 
L 218.150998 -59.059967 
L 220.331921 -59.267218 
L 222.512844 -61.888233 
L 224.693767 -64.12423 
L 226.87469 -63.757453 
L 229.055613 -62.142804 
L 231.236535 -60.296058 
L 233.417458 -62.625068 
L 235.598381 -66.096681 
L 237.779304 -67.090964 
L 237.779304 -85.8278 
L 237.779304 -85.8278 
L 235.598381 -84.928681 
L 233.417458 -82.358619 
L 231.236535 -80.122228 
L 229.055613 -80.639401 
L 226.87469 -81.853856 
L 224.693767 -83.173147 
L 222.512844 -81.756295 
L 220.331921 -80.074715 
L 218.150998 -79.261181 
L 215.970075 -81.942653 
L 213.789152 -83.812748 
L 211.60823 -84.686896 
L 209.427307 -83.551751 
L 207.246384 -81.495875 
L 205.065461 -82.279863 
L 202.884538 -79.236563 
L 200.703615 -75.198028 
L 198.522692 -74.266476 
L 196.34177 -74.583062 
L 194.160847 -74.326823 
L 191.979924 -75.40763 
L 189.799001 -78.494597 
L 187.618078 -81.463815 
L 185.437155 -78.509857 
L 183.256232 -77.39016 
L 181.075309 -80.100514 
L 178.894387 -86.29199 
L 176.713464 -89.572563 
L 174.532541 -91.322108 
L 172.351618 -93.86126 
L 170.170695 -94.657858 
L 167.989772 -92.055334 
L 165.808849 -91.649642 
L 163.627927 -92.836214 
L 161.447004 -91.51505 
L 159.266081 -91.67612 
L 157.085158 -92.665577 
L 154.904235 -93.58161 
L 152.723312 -95.181851 
L 150.542389 -96.213333 
L 148.361467 -93.92603 
L 146.180544 -90.396928 
L 143.999621 -92.466007 
L 141.818698 -96.836894 
L 139.637775 -99.907843 
L 137.456852 -97.967668 
L 135.275929 -94.56042 
L 133.095006 -93.990633 
L 130.914084 -92.788799 
L 128.733161 -90.497887 
L 126.552238 -90.098445 
L 124.371315 -90.902922 
L 122.190392 -93.300647 
L 120.009469 -92.534502 
L 117.828546 -90.46742 
L 115.647624 -88.365456 
L 113.466701 -85.574514 
L 111.285778 -80.230495 
L 109.104855 -76.102628 
L 106.923932 -77.629904 
L 104.743009 -80.87956 
L 102.562086 -83.355469 
L 100.381163 -83.107038 
L 98.200241 -83.316546 
L 96.019318 -88.271066 
L 93.838395 -91.174832 
L 91.657472 -88.138074 
L 89.476549 -84.644203 
L 87.295626 -82.615446 
L 85.114703 -82.960648 
L 82.933781 -84.927216 
L 80.752858 -83.994382 
L 78.571935 -83.003636 
L 76.391012 -83.138922 
L 74.210089 -83.018041 
L 72.029166 -84.09782 
L 69.848243 -83.882514 
L 67.667321 -83.411246 
L 65.486398 -81.751188 
L 63.305475 -79.72138 
L 61.124552 -77.346128 
L 58.943629 -75.266432 
L 56.762706 -68.132059 
L 54.581783 -64.481228 
L 52.40086 -69.982178 
L 50.219938 -73.787398 
L 48.039015 -75.726729 
L 45.858092 -77.901825 
z
" style="stroke: #1f77b4; stroke-opacity: 0.15"/>
    </defs>
    <g clip-path="url(#peb0b258c17)">
     <use xlink:href="#m59dc010301" x="0" y="215.397188" style="fill: #1f77b4; fill-opacity: 0.15; stroke: #1f77b4; stroke-opacity: 0.15"/>
    </g>
   </g>
   <g id="FillBetweenPolyCollection_2">
    <defs>
     <path id="m63d4ad95a7" d="M 45.858092 -89.455747 
L 45.858092 -60.489994 
L 48.039015 -61.281453 
L 50.219938 -55.890555 
L 52.40086 -47.781256 
L 54.581783 -49.671827 
L 56.762706 -52.244236 
L 58.943629 -49.183778 
L 61.124552 -52.861074 
L 63.305475 -61.395296 
L 65.486398 -73.836879 
L 67.667321 -83.510045 
L 69.848243 -81.81495 
L 72.029166 -81.919888 
L 74.210089 -88.440369 
L 76.391012 -97.192005 
L 78.571935 -106.67943 
L 80.752858 -104.443428 
L 82.933781 -91.610621 
L 85.114703 -72.692646 
L 87.295626 -59.203003 
L 89.476549 -52.146371 
L 91.657472 -52.186311 
L 93.838395 -59.804282 
L 96.019318 -69.933612 
L 98.200241 -72.71401 
L 100.381163 -70.236673 
L 102.562086 -67.285224 
L 104.743009 -65.098396 
L 106.923932 -67.934078 
L 109.104855 -71.168484 
L 111.285778 -73.173441 
L 113.466701 -72.740109 
L 115.647624 -68.207432 
L 117.828546 -68.120763 
L 120.009469 -72.612557 
L 122.190392 -75.703372 
L 124.371315 -77.742352 
L 126.552238 -78.894502 
L 128.733161 -80.199624 
L 130.914084 -80.870863 
L 133.095006 -82.728257 
L 135.275929 -81.893362 
L 137.456852 -77.874835 
L 139.637775 -75.575259 
L 141.818698 -73.261301 
L 143.999621 -73.334664 
L 146.180544 -83.109619 
L 148.361467 -89.402201 
L 150.542389 -94.835667 
L 152.723312 -92.081729 
L 154.904235 -83.585397 
L 157.085158 -83.681117 
L 159.266081 -87.711445 
L 161.447004 -82.585437 
L 163.627927 -70.14288 
L 165.808849 -60.279568 
L 167.989772 -63.748122 
L 170.170695 -66.885642 
L 172.351618 -64.590051 
L 174.532541 -62.230492 
L 176.713464 -63.410053 
L 178.894387 -65.70545 
L 181.075309 -63.166627 
L 183.256232 -59.10427 
L 185.437155 -55.766327 
L 187.618078 -51.066909 
L 189.799001 -46.292119 
L 191.979924 -46.09367 
L 194.160847 -51.950028 
L 196.34177 -56.33912 
L 198.522692 -55.473509 
L 200.703615 -56.185145 
L 202.884538 -57.549782 
L 205.065461 -59.714611 
L 207.246384 -57.76826 
L 209.427307 -57.596856 
L 211.60823 -64.107337 
L 213.789152 -64.668926 
L 215.970075 -62.903601 
L 218.150998 -62.538152 
L 220.331921 -59.151586 
L 222.512844 -50.083347 
L 224.693767 -44.570637 
L 226.87469 -45.168533 
L 229.055613 -47.941902 
L 231.236535 -55.45827 
L 233.417458 -65.979815 
L 235.598381 -71.974144 
L 237.779304 -73.342369 
L 237.779304 -109.566999 
L 237.779304 -109.566999 
L 235.598381 -109.695356 
L 233.417458 -103.239621 
L 231.236535 -90.130183 
L 229.055613 -79.730493 
L 226.87469 -76.575835 
L 224.693767 -77.977143 
L 222.512844 -85.487886 
L 220.331921 -97.242224 
L 218.150998 -99.831482 
L 215.970075 -100.323779 
L 213.789152 -103.490459 
L 211.60823 -101.102246 
L 209.427307 -93.280945 
L 207.246384 -90.433626 
L 205.065461 -86.103799 
L 202.884538 -87.901707 
L 200.703615 -85.123757 
L 198.522692 -83.81691 
L 196.34177 -84.963115 
L 194.160847 -84.3006 
L 191.979924 -79.149241 
L 189.799001 -77.59348 
L 187.618078 -81.075747 
L 185.437155 -84.798532 
L 183.256232 -90.290485 
L 181.075309 -97.758005 
L 178.894387 -105.721168 
L 176.713464 -101.842784 
L 174.532541 -97.872409 
L 172.351618 -100.910614 
L 170.170695 -103.003609 
L 167.989772 -100.528415 
L 165.808849 -98.034158 
L 163.627927 -104.423494 
L 161.447004 -114.724608 
L 159.266081 -120.495054 
L 157.085158 -117.010611 
L 154.904235 -117.390862 
L 152.723312 -123.000989 
L 150.542389 -126.956381 
L 148.361467 -121.065502 
L 146.180544 -112.315945 
L 143.999621 -106.179447 
L 141.818698 -104.706499 
L 139.637775 -105.446393 
L 137.456852 -108.548697 
L 135.275929 -110.598115 
L 133.095006 -109.67874 
L 130.914084 -109.234273 
L 128.733161 -112.487442 
L 126.552238 -112.967444 
L 124.371315 -111.429989 
L 122.190392 -108.224839 
L 120.009469 -104.808299 
L 117.828546 -103.499182 
L 115.647624 -105.527726 
L 113.466701 -108.807234 
L 111.285778 -105.351914 
L 109.104855 -99.31151 
L 106.923932 -94.102145 
L 104.743009 -92.586937 
L 102.562086 -98.497419 
L 100.381163 -101.87299 
L 98.200241 -105.327809 
L 96.019318 -100.09791 
L 93.838395 -94.762799 
L 91.657472 -89.383384 
L 89.476549 -91.029305 
L 87.295626 -99.431497 
L 85.114703 -112.833641 
L 82.933781 -132.638854 
L 80.752858 -148.726677 
L 78.571935 -150.508097 
L 76.391012 -141.001438 
L 74.210089 -127.01129 
L 72.029166 -114.184049 
L 69.848243 -110.071145 
L 67.667321 -112.206324 
L 65.486398 -100.707664 
L 63.305475 -88.980939 
L 61.124552 -83.35465 
L 58.943629 -81.656798 
L 56.762706 -84.754381 
L 54.581783 -80.545222 
L 52.40086 -78.070461 
L 50.219938 -84.315689 
L 48.039015 -89.393522 
L 45.858092 -89.455747 
z
" style="stroke: #ff7f0e; stroke-opacity: 0.15"/>
    </defs>
    <g clip-path="url(#peb0b258c17)">
     <use xlink:href="#m63d4ad95a7" x="0" y="215.397188" style="fill: #ff7f0e; fill-opacity: 0.15; stroke: #ff7f0e; stroke-opacity: 0.15"/>
    </g>
   </g>
   <g id="line2d_1">
    <path d="M 36.262031 132.774924 
L 247.375365 132.774924 
" clip-path="url(#peb0b258c17)" style="fill: none; stroke-dasharray: 2.96,1.28; stroke-dashoffset: 0; stroke: #000000; stroke-width: 0.8"/>
   </g>
   <g id="matplotlib.axis_1">
    <g id="xtick_1">
     <g id="line2d_2">
      <defs>
       <path id="mde4d8c1793" d="M 0 0 
L 0 3.5 
" style="stroke: #000000; stroke-width: 0.8"/>
      </defs>
      <g>
       <use xlink:href="#mde4d8c1793" x="41.496246" y="182.68" style="stroke: #000000; stroke-width: 0.8"/>
      </g>
     </g>
     <g id="text_1">
      <!-- 0 -->
      <g transform="translate(39.269371 194.998906) scale(0.07 -0.07)">
       <defs>
        <path id="DejaVuSans-30" d="M 2034 4250 
Q 1547 4250 1301 3770 
Q 1056 3291 1056 2328 
Q 1056 1369 1301 889 
Q 1547 409 2034 409 
Q 2525 409 2770 889 
Q 3016 1369 3016 2328 
Q 3016 3291 2770 3770 
Q 2525 4250 2034 4250 
z
M 2034 4750 
Q 2819 4750 3233 4129 
Q 3647 3509 3647 2328 
Q 3647 1150 3233 529 
Q 2819 -91 2034 -91 
Q 1250 -91 836 529 
Q 422 1150 422 2328 
Q 422 3509 836 4129 
Q 1250 4750 2034 4750 
z
" transform="scale(0.015625)"/>
       </defs>
       <use xlink:href="#DejaVuSans-30"/>
      </g>
     </g>
    </g>
    <g id="xtick_2">
     <g id="line2d_3">
      <g>
       <use xlink:href="#mde4d8c1793" x="85.114703" y="182.68" style="stroke: #000000; stroke-width: 0.8"/>
      </g>
     </g>
     <g id="text_2">
      <!-- 10 -->
      <g transform="translate(80.660953 194.998906) scale(0.07 -0.07)">
       <defs>
        <path id="DejaVuSans-31" d="M 794 531 
L 1825 531 
L 1825 4091 
L 703 3866 
L 703 4441 
L 1819 4666 
L 2450 4666 
L 2450 531 
L 3481 531 
L 3481 0 
L 794 0 
L 794 531 
z
" transform="scale(0.015625)"/>
       </defs>
       <use xlink:href="#DejaVuSans-31"/>
       <use xlink:href="#DejaVuSans-30" transform="translate(63.623047 0)"/>
      </g>
     </g>
    </g>
    <g id="xtick_3">
     <g id="line2d_4">
      <g>
       <use xlink:href="#mde4d8c1793" x="128.733161" y="182.68" style="stroke: #000000; stroke-width: 0.8"/>
      </g>
     </g>
     <g id="text_3">
      <!-- 20 -->
      <g transform="translate(124.279411 194.998906) scale(0.07 -0.07)">
       <defs>
        <path id="DejaVuSans-32" d="M 1228 531 
L 3431 531 
L 3431 0 
L 469 0 
L 469 531 
Q 828 903 1448 1529 
Q 2069 2156 2228 2338 
Q 2531 2678 2651 2914 
Q 2772 3150 2772 3378 
Q 2772 3750 2511 3984 
Q 2250 4219 1831 4219 
Q 1534 4219 1204 4116 
Q 875 4013 500 3803 
L 500 4441 
Q 881 4594 1212 4672 
Q 1544 4750 1819 4750 
Q 2544 4750 2975 4387 
Q 3406 4025 3406 3419 
Q 3406 3131 3298 2873 
Q 3191 2616 2906 2266 
Q 2828 2175 2409 1742 
Q 1991 1309 1228 531 
z
" transform="scale(0.015625)"/>
       </defs>
       <use xlink:href="#DejaVuSans-32"/>
       <use xlink:href="#DejaVuSans-30" transform="translate(63.623047 0)"/>
      </g>
     </g>
    </g>
    <g id="xtick_4">
     <g id="line2d_5">
      <g>
       <use xlink:href="#mde4d8c1793" x="172.351618" y="182.68" style="stroke: #000000; stroke-width: 0.8"/>
      </g>
     </g>
     <g id="text_4">
      <!-- 30 -->
      <g transform="translate(167.897868 194.998906) scale(0.07 -0.07)">
       <defs>
        <path id="DejaVuSans-33" d="M 2597 2516 
Q 3050 2419 3304 2112 
Q 3559 1806 3559 1356 
Q 3559 666 3084 287 
Q 2609 -91 1734 -91 
Q 1441 -91 1130 -33 
Q 819 25 488 141 
L 488 750 
Q 750 597 1062 519 
Q 1375 441 1716 441 
Q 2309 441 2620 675 
Q 2931 909 2931 1356 
Q 2931 1769 2642 2001 
Q 2353 2234 1838 2234 
L 1294 2234 
L 1294 2753 
L 1863 2753 
Q 2328 2753 2575 2939 
Q 2822 3125 2822 3475 
Q 2822 3834 2567 4026 
Q 2313 4219 1838 4219 
Q 1578 4219 1281 4162 
Q 984 4106 628 3988 
L 628 4550 
Q 988 4650 1302 4700 
Q 1616 4750 1894 4750 
Q 2613 4750 3031 4423 
Q 3450 4097 3450 3541 
Q 3450 3153 3228 2886 
Q 3006 2619 2597 2516 
z
" transform="scale(0.015625)"/>
       </defs>
       <use xlink:href="#DejaVuSans-33"/>
       <use xlink:href="#DejaVuSans-30" transform="translate(63.623047 0)"/>
      </g>
     </g>
    </g>
    <g id="xtick_5">
     <g id="line2d_6">
      <g>
       <use xlink:href="#mde4d8c1793" x="215.970075" y="182.68" style="stroke: #000000; stroke-width: 0.8"/>
      </g>
     </g>
     <g id="text_5">
      <!-- 40 -->
      <g transform="translate(211.516325 194.998906) scale(0.07 -0.07)">
       <defs>
        <path id="DejaVuSans-34" d="M 2419 4116 
L 825 1625 
L 2419 1625 
L 2419 4116 
z
M 2253 4666 
L 3047 4666 
L 3047 1625 
L 3713 1625 
L 3713 1100 
L 3047 1100 
L 3047 0 
L 2419 0 
L 2419 1100 
L 313 1100 
L 313 1709 
L 2253 4666 
z
" transform="scale(0.015625)"/>
       </defs>
       <use xlink:href="#DejaVuSans-34"/>
       <use xlink:href="#DejaVuSans-30" transform="translate(63.623047 0)"/>
      </g>
     </g>
    </g>
    <g id="text_6">
     <!-- Frequency (Hz) -->
     <g transform="translate(111.654948 206.533437) scale(0.08 -0.08)">
      <defs>
       <path id="DejaVuSans-46" d="M 628 4666 
L 3309 4666 
L 3309 4134 
L 1259 4134 
L 1259 2759 
L 3109 2759 
L 3109 2228 
L 1259 2228 
L 1259 0 
L 628 0 
L 628 4666 
z
" transform="scale(0.015625)"/>
       <path id="DejaVuSans-72" d="M 2631 2963 
Q 2534 3019 2420 3045 
Q 2306 3072 2169 3072 
Q 1681 3072 1420 2755 
Q 1159 2438 1159 1844 
L 1159 0 
L 581 0 
L 581 3500 
L 1159 3500 
L 1159 2956 
Q 1341 3275 1631 3429 
Q 1922 3584 2338 3584 
Q 2397 3584 2469 3576 
Q 2541 3569 2628 3553 
L 2631 2963 
z
" transform="scale(0.015625)"/>
       <path id="DejaVuSans-65" d="M 3597 1894 
L 3597 1613 
L 953 1613 
Q 991 1019 1311 708 
Q 1631 397 2203 397 
Q 2534 397 2845 478 
Q 3156 559 3463 722 
L 3463 178 
Q 3153 47 2828 -22 
Q 2503 -91 2169 -91 
Q 1331 -91 842 396 
Q 353 884 353 1716 
Q 353 2575 817 3079 
Q 1281 3584 2069 3584 
Q 2775 3584 3186 3129 
Q 3597 2675 3597 1894 
z
M 3022 2063 
Q 3016 2534 2758 2815 
Q 2500 3097 2075 3097 
Q 1594 3097 1305 2825 
Q 1016 2553 972 2059 
L 3022 2063 
z
" transform="scale(0.015625)"/>
       <path id="DejaVuSans-71" d="M 947 1747 
Q 947 1113 1208 752 
Q 1469 391 1925 391 
Q 2381 391 2643 752 
Q 2906 1113 2906 1747 
Q 2906 2381 2643 2742 
Q 2381 3103 1925 3103 
Q 1469 3103 1208 2742 
Q 947 2381 947 1747 
z
M 2906 525 
Q 2725 213 2448 61 
Q 2172 -91 1784 -91 
Q 1150 -91 751 415 
Q 353 922 353 1747 
Q 353 2572 751 3078 
Q 1150 3584 1784 3584 
Q 2172 3584 2448 3432 
Q 2725 3281 2906 2969 
L 2906 3500 
L 3481 3500 
L 3481 -1331 
L 2906 -1331 
L 2906 525 
z
" transform="scale(0.015625)"/>
       <path id="DejaVuSans-75" d="M 544 1381 
L 544 3500 
L 1119 3500 
L 1119 1403 
Q 1119 906 1312 657 
Q 1506 409 1894 409 
Q 2359 409 2629 706 
Q 2900 1003 2900 1516 
L 2900 3500 
L 3475 3500 
L 3475 0 
L 2900 0 
L 2900 538 
Q 2691 219 2414 64 
Q 2138 -91 1772 -91 
Q 1169 -91 856 284 
Q 544 659 544 1381 
z
M 1991 3584 
L 1991 3584 
z
" transform="scale(0.015625)"/>
       <path id="DejaVuSans-6e" d="M 3513 2113 
L 3513 0 
L 2938 0 
L 2938 2094 
Q 2938 2591 2744 2837 
Q 2550 3084 2163 3084 
Q 1697 3084 1428 2787 
Q 1159 2491 1159 1978 
L 1159 0 
L 581 0 
L 581 3500 
L 1159 3500 
L 1159 2956 
Q 1366 3272 1645 3428 
Q 1925 3584 2291 3584 
Q 2894 3584 3203 3211 
Q 3513 2838 3513 2113 
z
" transform="scale(0.015625)"/>
       <path id="DejaVuSans-63" d="M 3122 3366 
L 3122 2828 
Q 2878 2963 2633 3030 
Q 2388 3097 2138 3097 
Q 1578 3097 1268 2742 
Q 959 2388 959 1747 
Q 959 1106 1268 751 
Q 1578 397 2138 397 
Q 2388 397 2633 464 
Q 2878 531 3122 666 
L 3122 134 
Q 2881 22 2623 -34 
Q 2366 -91 2075 -91 
Q 1284 -91 818 406 
Q 353 903 353 1747 
Q 353 2603 823 3093 
Q 1294 3584 2113 3584 
Q 2378 3584 2631 3529 
Q 2884 3475 3122 3366 
z
" transform="scale(0.015625)"/>
       <path id="DejaVuSans-79" d="M 2059 -325 
Q 1816 -950 1584 -1140 
Q 1353 -1331 966 -1331 
L 506 -1331 
L 506 -850 
L 844 -850 
Q 1081 -850 1212 -737 
Q 1344 -625 1503 -206 
L 1606 56 
L 191 3500 
L 800 3500 
L 1894 763 
L 2988 3500 
L 3597 3500 
L 2059 -325 
z
" transform="scale(0.015625)"/>
       <path id="DejaVuSans-20" transform="scale(0.015625)"/>
       <path id="DejaVuSans-28" d="M 1984 4856 
Q 1566 4138 1362 3434 
Q 1159 2731 1159 2009 
Q 1159 1288 1364 580 
Q 1569 -128 1984 -844 
L 1484 -844 
Q 1016 -109 783 600 
Q 550 1309 550 2009 
Q 550 2706 781 3412 
Q 1013 4119 1484 4856 
L 1984 4856 
z
" transform="scale(0.015625)"/>
       <path id="DejaVuSans-48" d="M 628 4666 
L 1259 4666 
L 1259 2753 
L 3553 2753 
L 3553 4666 
L 4184 4666 
L 4184 0 
L 3553 0 
L 3553 2222 
L 1259 2222 
L 1259 0 
L 628 0 
L 628 4666 
z
" transform="scale(0.015625)"/>
       <path id="DejaVuSans-7a" d="M 353 3500 
L 3084 3500 
L 3084 2975 
L 922 459 
L 3084 459 
L 3084 0 
L 275 0 
L 275 525 
L 2438 3041 
L 353 3041 
L 353 3500 
z
" transform="scale(0.015625)"/>
       <path id="DejaVuSans-29" d="M 513 4856 
L 1013 4856 
Q 1481 4119 1714 3412 
Q 1947 2706 1947 2009 
Q 1947 1309 1714 600 
Q 1481 -109 1013 -844 
L 513 -844 
Q 928 -128 1133 580 
Q 1338 1288 1338 2009 
Q 1338 2731 1133 3434 
Q 928 4138 513 4856 
z
" transform="scale(0.015625)"/>
      </defs>
      <use xlink:href="#DejaVuSans-46"/>
      <use xlink:href="#DejaVuSans-72" transform="translate(50.269531 0)"/>
      <use xlink:href="#DejaVuSans-65" transform="translate(89.132812 0)"/>
      <use xlink:href="#DejaVuSans-71" transform="translate(150.65625 0)"/>
      <use xlink:href="#DejaVuSans-75" transform="translate(214.132812 0)"/>
      <use xlink:href="#DejaVuSans-65" transform="translate(277.511719 0)"/>
      <use xlink:href="#DejaVuSans-6e" transform="translate(339.035156 0)"/>
      <use xlink:href="#DejaVuSans-63" transform="translate(402.414062 0)"/>
      <use xlink:href="#DejaVuSans-79" transform="translate(457.394531 0)"/>
      <use xlink:href="#DejaVuSans-20" transform="translate(516.574219 0)"/>
      <use xlink:href="#DejaVuSans-28" transform="translate(548.361328 0)"/>
      <use xlink:href="#DejaVuSans-48" transform="translate(587.375 0)"/>
      <use xlink:href="#DejaVuSans-7a" transform="translate(662.570312 0)"/>
      <use xlink:href="#DejaVuSans-29" transform="translate(715.060547 0)"/>
     </g>
    </g>
   </g>
   <g id="matplotlib.axis_2">
    <g id="ytick_1">
     <g id="line2d_7">
      <defs>
       <path id="m3a66e9fb70" d="M 0 0 
L -3.5 0 
" style="stroke: #000000; stroke-width: 0.8"/>
      </defs>
      <g>
       <use xlink:href="#m3a66e9fb70" x="36.262031" y="163.525519" style="stroke: #000000; stroke-width: 0.8"/>
      </g>
     </g>
     <g id="text_7">
      <!-- −2 -->
      <g transform="translate(18.9425 166.184972) scale(0.07 -0.07)">
       <defs>
        <path id="DejaVuSans-2212" d="M 678 2272 
L 4684 2272 
L 4684 1741 
L 678 1741 
L 678 2272 
z
" transform="scale(0.015625)"/>
       </defs>
       <use xlink:href="#DejaVuSans-2212"/>
       <use xlink:href="#DejaVuSans-32" transform="translate(83.789062 0)"/>
      </g>
     </g>
    </g>
    <g id="ytick_2">
     <g id="line2d_8">
      <g>
       <use xlink:href="#m3a66e9fb70" x="36.262031" y="132.774924" style="stroke: #000000; stroke-width: 0.8"/>
      </g>
     </g>
     <g id="text_8">
      <!-- 0 -->
      <g transform="translate(24.808281 135.434377) scale(0.07 -0.07)">
       <use xlink:href="#DejaVuSans-30"/>
      </g>
     </g>
    </g>
    <g id="ytick_3">
     <g id="line2d_9">
      <g>
       <use xlink:href="#m3a66e9fb70" x="36.262031" y="102.024328" style="stroke: #000000; stroke-width: 0.8"/>
      </g>
     </g>
     <g id="text_9">
      <!-- 2 -->
      <g transform="translate(24.808281 104.683781) scale(0.07 -0.07)">
       <use xlink:href="#DejaVuSans-32"/>
      </g>
     </g>
    </g>
    <g id="ytick_4">
     <g id="line2d_10">
      <g>
       <use xlink:href="#m3a66e9fb70" x="36.262031" y="71.273733" style="stroke: #000000; stroke-width: 0.8"/>
      </g>
     </g>
     <g id="text_10">
      <!-- 4 -->
      <g transform="translate(24.808281 73.933186) scale(0.07 -0.07)">
       <use xlink:href="#DejaVuSans-34"/>
      </g>
     </g>
    </g>
    <g id="text_11">
     <!-- ERD/ERS (dB) -->
     <g transform="translate(13.27875 148.236875) rotate(-90) scale(0.08 -0.08)">
      <defs>
       <path id="DejaVuSans-45" d="M 628 4666 
L 3578 4666 
L 3578 4134 
L 1259 4134 
L 1259 2753 
L 3481 2753 
L 3481 2222 
L 1259 2222 
L 1259 531 
L 3634 531 
L 3634 0 
L 628 0 
L 628 4666 
z
" transform="scale(0.015625)"/>
       <path id="DejaVuSans-52" d="M 2841 2188 
Q 3044 2119 3236 1894 
Q 3428 1669 3622 1275 
L 4263 0 
L 3584 0 
L 2988 1197 
Q 2756 1666 2539 1819 
Q 2322 1972 1947 1972 
L 1259 1972 
L 1259 0 
L 628 0 
L 628 4666 
L 2053 4666 
Q 2853 4666 3247 4331 
Q 3641 3997 3641 3322 
Q 3641 2881 3436 2590 
Q 3231 2300 2841 2188 
z
M 1259 4147 
L 1259 2491 
L 2053 2491 
Q 2509 2491 2742 2702 
Q 2975 2913 2975 3322 
Q 2975 3731 2742 3939 
Q 2509 4147 2053 4147 
L 1259 4147 
z
" transform="scale(0.015625)"/>
       <path id="DejaVuSans-44" d="M 1259 4147 
L 1259 519 
L 2022 519 
Q 2988 519 3436 956 
Q 3884 1394 3884 2338 
Q 3884 3275 3436 3711 
Q 2988 4147 2022 4147 
L 1259 4147 
z
M 628 4666 
L 1925 4666 
Q 3281 4666 3915 4102 
Q 4550 3538 4550 2338 
Q 4550 1131 3912 565 
Q 3275 0 1925 0 
L 628 0 
L 628 4666 
z
" transform="scale(0.015625)"/>
       <path id="DejaVuSans-2f" d="M 1625 4666 
L 2156 4666 
L 531 -594 
L 0 -594 
L 1625 4666 
z
" transform="scale(0.015625)"/>
       <path id="DejaVuSans-53" d="M 3425 4513 
L 3425 3897 
Q 3066 4069 2747 4153 
Q 2428 4238 2131 4238 
Q 1616 4238 1336 4038 
Q 1056 3838 1056 3469 
Q 1056 3159 1242 3001 
Q 1428 2844 1947 2747 
L 2328 2669 
Q 3034 2534 3370 2195 
Q 3706 1856 3706 1288 
Q 3706 609 3251 259 
Q 2797 -91 1919 -91 
Q 1588 -91 1214 -16 
Q 841 59 441 206 
L 441 856 
Q 825 641 1194 531 
Q 1563 422 1919 422 
Q 2459 422 2753 634 
Q 3047 847 3047 1241 
Q 3047 1584 2836 1778 
Q 2625 1972 2144 2069 
L 1759 2144 
Q 1053 2284 737 2584 
Q 422 2884 422 3419 
Q 422 4038 858 4394 
Q 1294 4750 2059 4750 
Q 2388 4750 2728 4690 
Q 3069 4631 3425 4513 
z
" transform="scale(0.015625)"/>
       <path id="DejaVuSans-64" d="M 2906 2969 
L 2906 4863 
L 3481 4863 
L 3481 0 
L 2906 0 
L 2906 525 
Q 2725 213 2448 61 
Q 2172 -91 1784 -91 
Q 1150 -91 751 415 
Q 353 922 353 1747 
Q 353 2572 751 3078 
Q 1150 3584 1784 3584 
Q 2172 3584 2448 3432 
Q 2725 3281 2906 2969 
z
M 947 1747 
Q 947 1113 1208 752 
Q 1469 391 1925 391 
Q 2381 391 2643 752 
Q 2906 1113 2906 1747 
Q 2906 2381 2643 2742 
Q 2381 3103 1925 3103 
Q 1469 3103 1208 2742 
Q 947 2381 947 1747 
z
" transform="scale(0.015625)"/>
       <path id="DejaVuSans-42" d="M 1259 2228 
L 1259 519 
L 2272 519 
Q 2781 519 3026 730 
Q 3272 941 3272 1375 
Q 3272 1813 3026 2020 
Q 2781 2228 2272 2228 
L 1259 2228 
z
M 1259 4147 
L 1259 2741 
L 2194 2741 
Q 2656 2741 2882 2914 
Q 3109 3088 3109 3444 
Q 3109 3797 2882 3972 
Q 2656 4147 2194 4147 
L 1259 4147 
z
M 628 4666 
L 2241 4666 
Q 2963 4666 3353 4366 
Q 3744 4066 3744 3513 
Q 3744 3084 3544 2831 
Q 3344 2578 2956 2516 
Q 3422 2416 3680 2098 
Q 3938 1781 3938 1306 
Q 3938 681 3513 340 
Q 3088 0 2303 0 
L 628 0 
L 628 4666 
z
" transform="scale(0.015625)"/>
      </defs>
      <use xlink:href="#DejaVuSans-45"/>
      <use xlink:href="#DejaVuSans-52" transform="translate(63.183594 0)"/>
      <use xlink:href="#DejaVuSans-44" transform="translate(132.666016 0)"/>
      <use xlink:href="#DejaVuSans-2f" transform="translate(209.667969 0)"/>
      <use xlink:href="#DejaVuSans-45" transform="translate(243.359375 0)"/>
      <use xlink:href="#DejaVuSans-52" transform="translate(306.542969 0)"/>
      <use xlink:href="#DejaVuSans-53" transform="translate(376.025391 0)"/>
      <use xlink:href="#DejaVuSans-20" transform="translate(439.501953 0)"/>
      <use xlink:href="#DejaVuSans-28" transform="translate(471.289062 0)"/>
      <use xlink:href="#DejaVuSans-64" transform="translate(510.302734 0)"/>
      <use xlink:href="#DejaVuSans-42" transform="translate(573.779297 0)"/>
      <use xlink:href="#DejaVuSans-29" transform="translate(642.382812 0)"/>
     </g>
    </g>
   </g>
   <g id="line2d_11">
    <path d="M 45.858092 145.87255 
L 48.039015 147.246209 
L 50.219938 148.931713 
L 52.40086 153.138553 
L 54.581783 158.306533 
L 56.762706 154.663905 
L 58.943629 147.57038 
L 61.124552 145.277207 
L 63.305475 143.072715 
L 65.486398 140.92137 
L 67.667321 139.366138 
L 69.848243 139.439113 
L 72.029166 139.554272 
L 74.210089 141.052106 
L 76.391012 141.941433 
L 78.571935 142.357141 
L 80.752858 141.728929 
L 82.933781 141.04578 
L 85.114703 142.597231 
L 87.295626 142.443841 
L 89.476549 140.10022 
L 91.657472 136.59838 
L 93.838395 133.412863 
L 96.019318 135.519473 
L 98.200241 139.494524 
L 100.381163 139.509651 
L 102.562086 139.361159 
L 104.743009 141.999763 
L 106.923932 145.554693 
L 109.104855 147.154752 
L 111.285778 143.483191 
L 113.466701 138.534031 
L 115.647624 135.681736 
L 117.828546 133.441406 
L 120.009469 131.061665 
L 122.190392 130.166523 
L 124.371315 132.24669 
L 126.552238 132.88605 
L 128.733161 132.551587 
L 130.914084 130.701292 
L 133.095006 129.908169 
L 135.275929 129.244397 
L 137.456852 125.618531 
L 139.637775 123.58633 
L 141.818698 126.313754 
L 143.999621 130.272753 
L 146.180544 132.08583 
L 148.361467 129.371143 
L 150.542389 127.624088 
L 152.723312 128.47993 
L 154.904235 129.905315 
L 157.085158 130.588432 
L 159.266081 131.759317 
L 161.447004 132.646591 
L 163.627927 131.520335 
L 165.808849 132.302901 
L 167.989772 132.51824 
L 170.170695 130.248815 
L 172.351618 130.54722 
L 174.532541 132.505373 
L 176.713464 133.96338 
L 178.894387 137.217544 
L 181.075309 143.690349 
L 183.256232 146.82343 
L 185.437155 145.65065 
L 187.618078 142.816946 
L 189.799001 145.681125 
L 191.979924 148.573422 
L 194.160847 149.714426 
L 196.34177 150.172335 
L 198.522692 151.024098 
L 200.703615 150.048796 
L 202.884538 146.188045 
L 205.065461 143.655298 
L 207.246384 144.0786 
L 209.427307 141.866373 
L 211.60823 140.436244 
L 213.789152 141.025908 
L 215.970075 143.193532 
L 218.150998 146.236614 
L 220.331921 145.726221 
L 222.512844 143.574923 
L 224.693767 141.748499 
L 226.87469 142.591533 
L 229.055613 144.006085 
L 231.236535 145.188044 
L 233.417458 142.905344 
L 235.598381 139.884506 
L 237.779304 138.937806 
" clip-path="url(#peb0b258c17)" style="fill: none; stroke: #1f77b4; stroke-width: 1.3; stroke-linecap: square"/>
   </g>
   <g id="line2d_12">
    <path d="M 45.858092 140.424317 
L 48.039015 140.0597 
L 50.219938 145.294066 
L 52.40086 152.471329 
L 54.581783 150.288663 
L 56.762706 146.897879 
L 58.943629 149.976899 
L 61.124552 147.289326 
L 63.305475 140.20907 
L 65.486398 128.124916 
L 67.667321 117.539003 
L 69.848243 119.45414 
L 72.029166 117.345219 
L 74.210089 107.671358 
L 76.391012 96.300466 
L 78.571935 86.803424 
L 80.752858 88.812135 
L 82.933781 103.27245 
L 85.114703 122.634044 
L 87.295626 136.079937 
L 89.476549 143.809349 
L 91.657472 144.61234 
L 93.838395 138.113647 
L 96.019318 130.381427 
L 98.200241 126.376278 
L 100.381163 129.342356 
L 102.562086 132.505866 
L 104.743009 136.554521 
L 106.923932 134.379076 
L 109.104855 130.157191 
L 111.285778 126.13451 
L 113.466701 124.623516 
L 115.647624 128.529609 
L 117.828546 129.587215 
L 120.009469 126.68676 
L 122.190392 123.433082 
L 124.371315 120.811017 
L 126.552238 119.466215 
L 128.733161 119.053654 
L 130.914084 120.34462 
L 133.095006 119.193689 
L 135.275929 119.151449 
L 137.456852 122.185422 
L 139.637775 124.886362 
L 141.818698 126.413287 
L 143.999621 125.640132 
L 146.180544 117.684406 
L 148.361467 110.163336 
L 150.542389 104.501163 
L 152.723312 107.855829 
L 154.904235 114.909058 
L 157.085158 115.051323 
L 159.266081 111.293938 
L 161.447004 116.742165 
L 163.627927 128.114001 
L 165.808849 136.240324 
L 167.989772 133.258919 
L 170.170695 130.452562 
L 172.351618 132.646855 
L 174.532541 135.345737 
L 176.713464 132.770769 
L 178.894387 129.683879 
L 181.075309 134.934871 
L 183.256232 140.69981 
L 185.437155 145.114758 
L 187.618078 149.32586 
L 189.799001 153.454388 
L 191.979924 152.775732 
L 194.160847 147.271874 
L 196.34177 144.74607 
L 198.522692 145.751978 
L 200.703615 144.742737 
L 202.884538 142.671443 
L 205.065461 142.487982 
L 207.246384 141.296244 
L 209.427307 139.958287 
L 211.60823 132.792396 
L 213.789152 131.317495 
L 215.970075 133.783497 
L 218.150998 134.21237 
L 220.331921 137.200283 
L 222.512844 147.611571 
L 224.693767 154.123297 
L 226.87469 154.525003 
L 229.055613 151.56099 
L 231.236535 142.602961 
L 233.417458 130.78747 
L 235.598381 124.562437 
L 237.779304 123.942503 
" clip-path="url(#peb0b258c17)" style="fill: none; stroke: #ff7f0e; stroke-width: 1.3; stroke-linecap: square"/>
   </g>
   <g id="patch_5">
    <path d="M 36.262031 182.68 
L 36.262031 59.28 
" style="fill: none; stroke: #000000; stroke-width: 0.8; stroke-linejoin: miter; stroke-linecap: square"/>
   </g>
   <g id="patch_6">
    <path d="M 247.375365 182.68 
L 247.375365 59.28 
" style="fill: none; stroke: #000000; stroke-width: 0.8; stroke-linejoin: miter; stroke-linecap: square"/>
   </g>
   <g id="patch_7">
    <path d="M 36.262031 182.68 
L 247.375365 182.68 
" style="fill: none; stroke: #000000; stroke-width: 0.8; stroke-linejoin: miter; stroke-linecap: square"/>
   </g>
   <g id="patch_8">
    <path d="M 36.262031 59.28 
L 247.375365 59.28 
" style="fill: none; stroke: #000000; stroke-width: 0.8; stroke-linejoin: miter; stroke-linecap: square"/>
   </g>
   <g id="text_12">
    <!-- C3 -->
    <g transform="translate(135.813307 53.28) scale(0.09 -0.09)">
     <defs>
      <path id="DejaVuSans-43" d="M 4122 4306 
L 4122 3641 
Q 3803 3938 3442 4084 
Q 3081 4231 2675 4231 
Q 1875 4231 1450 3742 
Q 1025 3253 1025 2328 
Q 1025 1406 1450 917 
Q 1875 428 2675 428 
Q 3081 428 3442 575 
Q 3803 722 4122 1019 
L 4122 359 
Q 3791 134 3420 21 
Q 3050 -91 2638 -91 
Q 1578 -91 968 557 
Q 359 1206 359 2328 
Q 359 3453 968 4101 
Q 1578 4750 2638 4750 
Q 3056 4750 3426 4639 
Q 3797 4528 4122 4306 
z
" transform="scale(0.015625)"/>
     </defs>
     <use xlink:href="#DejaVuSans-43"/>
     <use xlink:href="#DejaVuSans-33" transform="translate(69.824219 0)"/>
    </g>
   </g>
  </g>
  <g id="axes_2">
   <g id="patch_9">
    <path d="M 272.875365 182.68 
L 483.988698 182.68 
L 483.988698 59.28 
L 272.875365 59.28 
L 272.875365 182.68 
z
" style="fill: none"/>
   </g>
   <g id="patch_10">
    <path d="M 313.004345 182.68 
L 334.813574 182.68 
L 334.813574 59.28 
L 313.004345 59.28 
z
" clip-path="url(#p04e3cbf4e6)" style="fill: #d9d9d9; stroke: #d9d9d9; stroke-linejoin: miter"/>
   </g>
   <g id="patch_11">
    <path d="M 334.813574 182.68 
L 408.964951 182.68 
L 408.964951 59.28 
L 334.813574 59.28 
z
" clip-path="url(#p04e3cbf4e6)" style="fill: #ebebeb; stroke: #ebebeb; stroke-linejoin: miter"/>
   </g>
   <g id="FillBetweenPolyCollection_3">
    <defs>
     <path id="m785fd26c28" d="M 282.471425 -92.762093 
L 282.471425 -76.984344 
L 284.652348 -72.870664 
L 286.833271 -68.135599 
L 289.014194 -60.719464 
L 291.195117 -54.749492 
L 293.37604 -53.014512 
L 295.556962 -56.618771 
L 297.737885 -59.408241 
L 299.918808 -58.284142 
L 302.099731 -59.722461 
L 304.280654 -63.04749 
L 306.461577 -66.616204 
L 308.6425 -69.88612 
L 310.823422 -71.294911 
L 313.004345 -72.615595 
L 315.185268 -73.010627 
L 317.366191 -72.509884 
L 319.547114 -70.733053 
L 321.728037 -68.9389 
L 323.90896 -66.206235 
L 326.089882 -65.231475 
L 328.270805 -66.389678 
L 330.451728 -72.713913 
L 332.632651 -77.445813 
L 334.813574 -78.593736 
L 336.994497 -77.830858 
L 339.17542 -74.851671 
L 341.356343 -72.735605 
L 343.537265 -75.438395 
L 345.718188 -80.411902 
L 347.899111 -81.922186 
L 350.080034 -82.384776 
L 352.260957 -81.75602 
L 354.44188 -82.629194 
L 356.622803 -82.116497 
L 358.803725 -83.060761 
L 360.984648 -86.09593 
L 363.165571 -89.322966 
L 365.346494 -89.343949 
L 367.527417 -84.331834 
L 369.70834 -79.96387 
L 371.889263 -79.901216 
L 374.070186 -82.737593 
L 376.251108 -84.809005 
L 378.432031 -86.191676 
L 380.612954 -86.946169 
L 382.793877 -86.909376 
L 384.9748 -88.075917 
L 387.155723 -90.371321 
L 389.336646 -95.258521 
L 391.517568 -97.319708 
L 393.698491 -93.368634 
L 395.879414 -88.455415 
L 398.060337 -86.122922 
L 400.24126 -83.849893 
L 402.422183 -83.004069 
L 404.603106 -83.156887 
L 406.784028 -81.561226 
L 408.964951 -78.141531 
L 411.145874 -73.431001 
L 413.326797 -68.503064 
L 415.50772 -65.713658 
L 417.688643 -63.752888 
L 419.869566 -64.217884 
L 422.050489 -64.348197 
L 424.231411 -66.272603 
L 426.412334 -70.419078 
L 428.593257 -70.536005 
L 430.77418 -66.370432 
L 432.955103 -64.405523 
L 435.136026 -65.055567 
L 437.316949 -64.980731 
L 439.497871 -66.284822 
L 441.678794 -66.317083 
L 443.859717 -62.769343 
L 446.04064 -59.275379 
L 448.221563 -57.36885 
L 450.402486 -54.684989 
L 452.583409 -53.139417 
L 454.764332 -53.929182 
L 456.945254 -55.651587 
L 459.126177 -57.083319 
L 461.3071 -57.185822 
L 463.488023 -55.758597 
L 465.668946 -53.762284 
L 467.849869 -49.446365 
L 470.030792 -49.229237 
L 472.211714 -52.666147 
L 474.392637 -56.275708 
L 474.392637 -72.96519 
L 474.392637 -72.96519 
L 472.211714 -69.618048 
L 470.030792 -66.163755 
L 467.849869 -65.98599 
L 465.668946 -70.068312 
L 463.488023 -71.945342 
L 461.3071 -73.454285 
L 459.126177 -73.750328 
L 456.945254 -72.03487 
L 454.764332 -69.701218 
L 452.583409 -68.221617 
L 450.402486 -68.965241 
L 448.221563 -72.077897 
L 446.04064 -73.838815 
L 443.859717 -77.398164 
L 441.678794 -80.932907 
L 439.497871 -80.301334 
L 437.316949 -78.951151 
L 435.136026 -79.795244 
L 432.955103 -78.818797 
L 430.77418 -80.818668 
L 428.593257 -85.350225 
L 426.412334 -85.924107 
L 424.231411 -81.494794 
L 422.050489 -78.678903 
L 419.869566 -78.976949 
L 417.688643 -78.227209 
L 415.50772 -79.393592 
L 413.326797 -82.14373 
L 411.145874 -88.032051 
L 408.964951 -91.952248 
L 406.784028 -94.5309 
L 404.603106 -97.102434 
L 402.422183 -99.04727 
L 400.24126 -99.70065 
L 398.060337 -100.956544 
L 395.879414 -104.111892 
L 393.698491 -108.970245 
L 391.517568 -112.128308 
L 389.336646 -109.66503 
L 387.155723 -104.94575 
L 384.9748 -104.352691 
L 382.793877 -102.476978 
L 380.612954 -102.013888 
L 378.432031 -101.151541 
L 376.251108 -99.44352 
L 374.070186 -97.836847 
L 371.889263 -96.19793 
L 369.70834 -96.249969 
L 367.527417 -99.609219 
L 365.346494 -104.182091 
L 363.165571 -103.891868 
L 360.984648 -101.303187 
L 358.803725 -99.810461 
L 356.622803 -99.495788 
L 354.44188 -99.82731 
L 352.260957 -97.90638 
L 350.080034 -98.620971 
L 347.899111 -97.642336 
L 345.718188 -96.030522 
L 343.537265 -90.825041 
L 341.356343 -87.137649 
L 339.17542 -89.329955 
L 336.994497 -92.728004 
L 334.813574 -93.828572 
L 332.632651 -93.505572 
L 330.451728 -88.955704 
L 328.270805 -83.102003 
L 326.089882 -82.947513 
L 323.90896 -83.967552 
L 321.728037 -86.518217 
L 319.547114 -87.527847 
L 317.366191 -89.748695 
L 315.185268 -91.023198 
L 313.004345 -91.654541 
L 310.823422 -90.879346 
L 308.6425 -88.801261 
L 306.461577 -84.449036 
L 304.280654 -79.848314 
L 302.099731 -76.508979 
L 299.918808 -74.259558 
L 297.737885 -75.101294 
L 295.556962 -72.224515 
L 293.37604 -69.127965 
L 291.195117 -70.192315 
L 289.014194 -75.37521 
L 286.833271 -83.255826 
L 284.652348 -87.74198 
L 282.471425 -92.762093 
z
" style="stroke: #1f77b4; stroke-opacity: 0.15"/>
    </defs>
    <g clip-path="url(#p04e3cbf4e6)">
     <use xlink:href="#m785fd26c28" x="0" y="215.397188" style="fill: #1f77b4; fill-opacity: 0.15; stroke: #1f77b4; stroke-opacity: 0.15"/>
    </g>
   </g>
   <g id="FillBetweenPolyCollection_4">
    <defs>
     <path id="mb3dd56cda1" d="M 282.471425 -79.794214 
L 282.471425 -41.245466 
L 284.652348 -44.868275 
L 286.833271 -48.541314 
L 289.014194 -53.706676 
L 291.195117 -58.249293 
L 293.37604 -58.72738 
L 295.556962 -58.845956 
L 297.737885 -60.968872 
L 299.918808 -61.898816 
L 302.099731 -59.460735 
L 304.280654 -58.540405 
L 306.461577 -61.347651 
L 308.6425 -63.032218 
L 310.823422 -58.834969 
L 313.004345 -59.73697 
L 315.185268 -67.648713 
L 317.366191 -70.27587 
L 319.547114 -67.454207 
L 321.728037 -63.440112 
L 323.90896 -55.228469 
L 326.089882 -43.521513 
L 328.270805 -38.326278 
L 330.451728 -46.645776 
L 332.632651 -63.298633 
L 334.813574 -75.435911 
L 336.994497 -74.914988 
L 339.17542 -72.088677 
L 341.356343 -73.07123 
L 343.537265 -79.524897 
L 345.718188 -80.918501 
L 347.899111 -74.375252 
L 350.080034 -76.558378 
L 352.260957 -83.445771 
L 354.44188 -87.057831 
L 356.622803 -89.278 
L 358.803725 -93.189822 
L 360.984648 -98.463511 
L 363.165571 -99.460815 
L 365.346494 -96.559933 
L 367.527417 -94.428695 
L 369.70834 -93.800695 
L 371.889263 -94.475871 
L 374.070186 -91.499034 
L 376.251108 -85.082554 
L 378.432031 -84.822182 
L 380.612954 -89.270769 
L 382.793877 -96.923725 
L 384.9748 -103.41217 
L 387.155723 -101.317365 
L 389.336646 -89.678177 
L 391.517568 -80.371045 
L 393.698491 -83.688295 
L 395.879414 -89.502049 
L 398.060337 -88.128636 
L 400.24126 -85.787244 
L 402.422183 -84.451295 
L 404.603106 -78.446363 
L 406.784028 -73.356071 
L 408.964951 -71.634735 
L 411.145874 -71.006383 
L 413.326797 -69.804078 
L 415.50772 -70.818815 
L 417.688643 -73.700134 
L 419.869566 -73.100569 
L 422.050489 -71.200935 
L 424.231411 -71.541105 
L 426.412334 -69.368041 
L 428.593257 -65.592106 
L 430.77418 -66.639017 
L 432.955103 -68.478553 
L 435.136026 -66.351343 
L 437.316949 -65.741382 
L 439.497871 -67.570596 
L 441.678794 -62.814776 
L 443.859717 -57.315096 
L 446.04064 -57.284862 
L 448.221563 -59.603638 
L 450.402486 -57.801211 
L 452.583409 -55.403834 
L 454.764332 -53.037175 
L 456.945254 -52.820621 
L 459.126177 -53.541111 
L 461.3071 -57.704359 
L 463.488023 -66.613447 
L 465.668946 -72.402074 
L 467.849869 -72.031722 
L 470.030792 -71.915989 
L 472.211714 -71.235243 
L 474.392637 -64.385686 
L 474.392637 -91.484802 
L 474.392637 -91.484802 
L 472.211714 -100.075277 
L 470.030792 -101.385511 
L 467.849869 -103.740409 
L 465.668946 -107.862434 
L 463.488023 -100.867021 
L 461.3071 -84.657857 
L 459.126177 -78.150444 
L 456.945254 -79.565654 
L 454.764332 -79.977501 
L 452.583409 -84.018451 
L 450.402486 -83.542152 
L 448.221563 -85.261043 
L 446.04064 -88.083225 
L 443.859717 -87.615646 
L 441.678794 -90.186554 
L 439.497871 -93.68552 
L 437.316949 -94.661855 
L 435.136026 -95.403318 
L 432.955103 -96.706538 
L 430.77418 -92.32654 
L 428.593257 -92.855081 
L 426.412334 -98.185344 
L 424.231411 -100.966572 
L 422.050489 -97.466123 
L 419.869566 -98.328459 
L 417.688643 -100.389431 
L 415.50772 -100.599401 
L 413.326797 -99.686435 
L 411.145874 -98.742922 
L 408.964951 -103.855492 
L 406.784028 -106.199146 
L 404.603106 -108.337541 
L 402.422183 -114.330148 
L 400.24126 -117.389874 
L 398.060337 -122.623401 
L 395.879414 -126.131009 
L 393.698491 -121.251707 
L 391.517568 -116.316156 
L 389.336646 -120.81217 
L 387.155723 -131.585108 
L 384.9748 -132.360933 
L 382.793877 -125.309758 
L 380.612954 -118.197037 
L 378.432031 -111.366405 
L 376.251108 -109.934062 
L 374.070186 -116.269076 
L 371.889263 -120.820734 
L 369.70834 -124.350078 
L 367.527417 -129.299586 
L 365.346494 -133.059696 
L 363.165571 -137.886418 
L 360.984648 -134.89815 
L 358.803725 -129.545709 
L 356.622803 -124.550864 
L 354.44188 -119.018435 
L 352.260957 -114.232853 
L 350.080034 -109.465897 
L 347.899111 -107.485848 
L 345.718188 -113.397933 
L 343.537265 -111.200773 
L 341.356343 -103.46425 
L 339.17542 -103.202023 
L 336.994497 -108.673592 
L 334.813574 -112.743681 
L 332.632651 -102.079839 
L 330.451728 -86.855955 
L 328.270805 -76.057789 
L 326.089882 -80.97757 
L 323.90896 -93.747237 
L 321.728037 -99.387528 
L 319.547114 -101.658072 
L 317.366191 -103.988218 
L 315.185268 -102.628715 
L 313.004345 -96.775998 
L 310.823422 -93.248509 
L 308.6425 -98.832089 
L 306.461577 -97.15891 
L 304.280654 -94.867152 
L 302.099731 -90.762147 
L 299.918808 -93.678532 
L 297.737885 -89.928891 
L 295.556962 -90.085893 
L 293.37604 -91.605643 
L 291.195117 -89.676242 
L 289.014194 -83.2118 
L 286.833271 -79.41478 
L 284.652348 -79.182296 
L 282.471425 -79.794214 
z
" style="stroke: #ff7f0e; stroke-opacity: 0.15"/>
    </defs>
    <g clip-path="url(#p04e3cbf4e6)">
     <use xlink:href="#mb3dd56cda1" x="0" y="215.397188" style="fill: #ff7f0e; fill-opacity: 0.15; stroke: #ff7f0e; stroke-opacity: 0.15"/>
    </g>
   </g>
   <g id="line2d_13">
    <path d="M 272.875365 132.774924 
L 483.988698 132.774924 
" clip-path="url(#p04e3cbf4e6)" style="fill: none; stroke-dasharray: 2.96,1.28; stroke-dashoffset: 0; stroke: #000000; stroke-width: 0.8"/>
   </g>
   <g id="matplotlib.axis_3">
    <g id="xtick_6">
     <g id="line2d_14">
      <g>
       <use xlink:href="#mde4d8c1793" x="278.109579" y="182.68" style="stroke: #000000; stroke-width: 0.8"/>
      </g>
     </g>
     <g id="text_13">
      <!-- 0 -->
      <g transform="translate(275.882704 194.998906) scale(0.07 -0.07)">
       <use xlink:href="#DejaVuSans-30"/>
      </g>
     </g>
    </g>
    <g id="xtick_7">
     <g id="line2d_15">
      <g>
       <use xlink:href="#mde4d8c1793" x="321.728037" y="182.68" style="stroke: #000000; stroke-width: 0.8"/>
      </g>
     </g>
     <g id="text_14">
      <!-- 10 -->
      <g transform="translate(317.274287 194.998906) scale(0.07 -0.07)">
       <use xlink:href="#DejaVuSans-31"/>
       <use xlink:href="#DejaVuSans-30" transform="translate(63.623047 0)"/>
      </g>
     </g>
    </g>
    <g id="xtick_8">
     <g id="line2d_16">
      <g>
       <use xlink:href="#mde4d8c1793" x="365.346494" y="182.68" style="stroke: #000000; stroke-width: 0.8"/>
      </g>
     </g>
     <g id="text_15">
      <!-- 20 -->
      <g transform="translate(360.892744 194.998906) scale(0.07 -0.07)">
       <use xlink:href="#DejaVuSans-32"/>
       <use xlink:href="#DejaVuSans-30" transform="translate(63.623047 0)"/>
      </g>
     </g>
    </g>
    <g id="xtick_9">
     <g id="line2d_17">
      <g>
       <use xlink:href="#mde4d8c1793" x="408.964951" y="182.68" style="stroke: #000000; stroke-width: 0.8"/>
      </g>
     </g>
     <g id="text_16">
      <!-- 30 -->
      <g transform="translate(404.511201 194.998906) scale(0.07 -0.07)">
       <use xlink:href="#DejaVuSans-33"/>
       <use xlink:href="#DejaVuSans-30" transform="translate(63.623047 0)"/>
      </g>
     </g>
    </g>
    <g id="xtick_10">
     <g id="line2d_18">
      <g>
       <use xlink:href="#mde4d8c1793" x="452.583409" y="182.68" style="stroke: #000000; stroke-width: 0.8"/>
      </g>
     </g>
     <g id="text_17">
      <!-- 40 -->
      <g transform="translate(448.129659 194.998906) scale(0.07 -0.07)">
       <use xlink:href="#DejaVuSans-34"/>
       <use xlink:href="#DejaVuSans-30" transform="translate(63.623047 0)"/>
      </g>
     </g>
    </g>
    <g id="text_18">
     <!-- Frequency (Hz) -->
     <g transform="translate(348.268281 206.533437) scale(0.08 -0.08)">
      <use xlink:href="#DejaVuSans-46"/>
      <use xlink:href="#DejaVuSans-72" transform="translate(50.269531 0)"/>
      <use xlink:href="#DejaVuSans-65" transform="translate(89.132812 0)"/>
      <use xlink:href="#DejaVuSans-71" transform="translate(150.65625 0)"/>
      <use xlink:href="#DejaVuSans-75" transform="translate(214.132812 0)"/>
      <use xlink:href="#DejaVuSans-65" transform="translate(277.511719 0)"/>
      <use xlink:href="#DejaVuSans-6e" transform="translate(339.035156 0)"/>
      <use xlink:href="#DejaVuSans-63" transform="translate(402.414062 0)"/>
      <use xlink:href="#DejaVuSans-79" transform="translate(457.394531 0)"/>
      <use xlink:href="#DejaVuSans-20" transform="translate(516.574219 0)"/>
      <use xlink:href="#DejaVuSans-28" transform="translate(548.361328 0)"/>
      <use xlink:href="#DejaVuSans-48" transform="translate(587.375 0)"/>
      <use xlink:href="#DejaVuSans-7a" transform="translate(662.570312 0)"/>
      <use xlink:href="#DejaVuSans-29" transform="translate(715.060547 0)"/>
     </g>
    </g>
   </g>
   <g id="matplotlib.axis_4">
    <g id="ytick_5">
     <g id="line2d_19">
      <g>
       <use xlink:href="#m3a66e9fb70" x="272.875365" y="163.525519" style="stroke: #000000; stroke-width: 0.8"/>
      </g>
     </g>
    </g>
    <g id="ytick_6">
     <g id="line2d_20">
      <g>
       <use xlink:href="#m3a66e9fb70" x="272.875365" y="132.774924" style="stroke: #000000; stroke-width: 0.8"/>
      </g>
     </g>
    </g>
    <g id="ytick_7">
     <g id="line2d_21">
      <g>
       <use xlink:href="#m3a66e9fb70" x="272.875365" y="102.024328" style="stroke: #000000; stroke-width: 0.8"/>
      </g>
     </g>
    </g>
    <g id="ytick_8">
     <g id="line2d_22">
      <g>
       <use xlink:href="#m3a66e9fb70" x="272.875365" y="71.273733" style="stroke: #000000; stroke-width: 0.8"/>
      </g>
     </g>
    </g>
    <g id="text_19">
     <!-- ERD/ERS (dB) -->
     <g transform="translate(263.711615 148.236875) rotate(-90) scale(0.08 -0.08)">
      <use xlink:href="#DejaVuSans-45"/>
      <use xlink:href="#DejaVuSans-52" transform="translate(63.183594 0)"/>
      <use xlink:href="#DejaVuSans-44" transform="translate(132.666016 0)"/>
      <use xlink:href="#DejaVuSans-2f" transform="translate(209.667969 0)"/>
      <use xlink:href="#DejaVuSans-45" transform="translate(243.359375 0)"/>
      <use xlink:href="#DejaVuSans-52" transform="translate(306.542969 0)"/>
      <use xlink:href="#DejaVuSans-53" transform="translate(376.025391 0)"/>
      <use xlink:href="#DejaVuSans-20" transform="translate(439.501953 0)"/>
      <use xlink:href="#DejaVuSans-28" transform="translate(471.289062 0)"/>
      <use xlink:href="#DejaVuSans-64" transform="translate(510.302734 0)"/>
      <use xlink:href="#DejaVuSans-42" transform="translate(573.779297 0)"/>
      <use xlink:href="#DejaVuSans-29" transform="translate(642.382812 0)"/>
     </g>
    </g>
   </g>
   <g id="line2d_23">
    <path d="M 282.471425 130.523969 
L 284.652348 135.090865 
L 286.833271 139.701475 
L 289.014194 147.34985 
L 291.195117 152.926284 
L 293.37604 154.325949 
L 295.556962 150.975545 
L 297.737885 148.14242 
L 299.918808 149.125337 
L 302.099731 147.281467 
L 304.280654 143.949286 
L 306.461577 139.864568 
L 308.6425 136.053497 
L 310.823422 134.310059 
L 313.004345 133.262119 
L 315.185268 133.380275 
L 317.366191 134.267898 
L 319.547114 136.266738 
L 321.728037 137.668629 
L 323.90896 140.310294 
L 326.089882 141.307694 
L 328.270805 140.651347 
L 330.451728 134.562379 
L 332.632651 129.921495 
L 334.813574 129.186033 
L 336.994497 130.117757 
L 339.17542 133.306374 
L 341.356343 135.460561 
L 343.537265 132.265469 
L 345.718188 127.175976 
L 347.899111 125.614927 
L 350.080034 124.894314 
L 352.260957 125.565987 
L 354.44188 124.168935 
L 356.622803 124.591045 
L 358.803725 123.961577 
L 360.984648 121.697629 
L 363.165571 118.78977 
L 365.346494 118.634168 
L 367.527417 123.426661 
L 369.70834 127.290268 
L 371.889263 127.347615 
L 374.070186 125.109968 
L 376.251108 123.270925 
L 378.432031 121.725579 
L 380.612954 120.917159 
L 382.793877 120.704011 
L 384.9748 119.182883 
L 387.155723 117.738652 
L 389.336646 112.935412 
L 391.517568 110.67318 
L 393.698491 114.227748 
L 395.879414 119.113534 
L 398.060337 121.857454 
L 400.24126 123.621916 
L 402.422183 124.371518 
L 404.603106 125.267527 
L 406.784028 127.351125 
L 408.964951 130.350298 
L 411.145874 134.665661 
L 413.326797 140.073791 
L 415.50772 142.843563 
L 417.688643 144.407139 
L 419.869566 143.799771 
L 422.050489 143.883638 
L 424.231411 141.513489 
L 426.412334 137.225595 
L 428.593257 137.454072 
L 430.77418 141.802637 
L 432.955103 143.785027 
L 435.136026 142.971782 
L 437.316949 143.431247 
L 439.497871 142.104109 
L 441.678794 141.772192 
L 443.859717 145.313434 
L 446.04064 148.840091 
L 448.221563 150.673814 
L 450.402486 153.572073 
L 452.583409 154.71667 
L 454.764332 153.581987 
L 456.945254 151.553959 
L 459.126177 149.980364 
L 461.3071 150.077134 
L 463.488023 151.545218 
L 465.668946 153.48189 
L 467.849869 157.68101 
L 470.030792 157.700692 
L 472.211714 154.25509 
L 474.392637 150.776738 
" clip-path="url(#p04e3cbf4e6)" style="fill: none; stroke: #1f77b4; stroke-width: 1.3; stroke-linecap: square"/>
   </g>
   <g id="line2d_24">
    <path d="M 282.471425 154.877347 
L 284.652348 153.371902 
L 286.833271 151.41914 
L 289.014194 146.937949 
L 291.195117 141.43442 
L 293.37604 140.230676 
L 295.556962 140.931263 
L 297.737885 139.948306 
L 299.918808 137.608514 
L 302.099731 140.285746 
L 304.280654 138.693409 
L 306.461577 136.143907 
L 308.6425 134.465034 
L 310.823422 139.355448 
L 313.004345 137.140704 
L 315.185268 130.258474 
L 317.366191 128.265143 
L 319.547114 130.841048 
L 321.728037 133.983367 
L 323.90896 140.909334 
L 326.089882 153.147646 
L 328.270805 158.205154 
L 330.451728 148.646322 
L 332.632651 132.707952 
L 334.813574 121.307391 
L 336.994497 123.602897 
L 339.17542 127.751837 
L 341.356343 127.129447 
L 343.537265 120.034353 
L 345.718188 118.238971 
L 347.899111 124.466637 
L 350.080034 122.38505 
L 352.260957 116.557876 
L 354.44188 112.359055 
L 356.622803 108.482756 
L 358.803725 104.029422 
L 360.984648 98.716357 
L 363.165571 96.723571 
L 365.346494 100.587373 
L 367.527417 103.533047 
L 369.70834 106.321801 
L 371.889263 107.748885 
L 374.070186 111.513133 
L 376.251108 117.88888 
L 378.432031 117.302894 
L 380.612954 111.663284 
L 382.793877 104.280446 
L 384.9748 97.510636 
L 387.155723 98.945951 
L 389.336646 110.152014 
L 391.517568 117.053587 
L 393.698491 112.927187 
L 395.879414 107.580659 
L 398.060337 110.021169 
L 400.24126 113.808629 
L 402.422183 116.006466 
L 404.603106 122.005235 
L 406.784028 125.619579 
L 408.964951 127.652074 
L 411.145874 130.522535 
L 413.326797 130.651931 
L 415.50772 129.68808 
L 417.688643 128.352405 
L 419.869566 129.682674 
L 422.050489 131.063659 
L 424.231411 129.143349 
L 426.412334 131.620495 
L 428.593257 136.173594 
L 430.77418 135.914409 
L 432.955103 132.804642 
L 435.136026 134.519857 
L 437.316949 135.195569 
L 439.497871 134.769129 
L 441.678794 138.896522 
L 443.859717 142.931816 
L 446.04064 142.713144 
L 448.221563 142.964847 
L 450.402486 144.725506 
L 452.583409 145.686045 
L 454.764332 148.889849 
L 456.945254 149.20405 
L 459.126177 149.55141 
L 461.3071 144.21608 
L 463.488023 131.656954 
L 465.668946 125.264934 
L 467.849869 127.511122 
L 470.030792 128.746437 
L 472.211714 129.741927 
L 474.392637 137.461943 
" clip-path="url(#p04e3cbf4e6)" style="fill: none; stroke: #ff7f0e; stroke-width: 1.3; stroke-linecap: square"/>
   </g>
   <g id="patch_12">
    <path d="M 272.875365 182.68 
L 272.875365 59.28 
" style="fill: none; stroke: #000000; stroke-width: 0.8; stroke-linejoin: miter; stroke-linecap: square"/>
   </g>
   <g id="patch_13">
    <path d="M 483.988698 182.68 
L 483.988698 59.28 
" style="fill: none; stroke: #000000; stroke-width: 0.8; stroke-linejoin: miter; stroke-linecap: square"/>
   </g>
   <g id="patch_14">
    <path d="M 272.875365 182.68 
L 483.988698 182.68 
" style="fill: none; stroke: #000000; stroke-width: 0.8; stroke-linejoin: miter; stroke-linecap: square"/>
   </g>
   <g id="patch_15">
    <path d="M 272.875365 59.28 
L 483.988698 59.28 
" style="fill: none; stroke: #000000; stroke-width: 0.8; stroke-linejoin: miter; stroke-linecap: square"/>
   </g>
   <g id="text_20">
    <!-- Cz -->
    <g transform="translate(372.927969 53.28) scale(0.09 -0.09)">
     <use xlink:href="#DejaVuSans-43"/>
     <use xlink:href="#DejaVuSans-7a" transform="translate(69.824219 0)"/>
    </g>
   </g>
  </g>
  <g id="axes_3">
   <g id="patch_16">
    <path d="M 509.488698 182.68 
L 720.602031 182.68 
L 720.602031 59.28 
L 509.488698 59.28 
L 509.488698 182.68 
z
" style="fill: none"/>
   </g>
   <g id="patch_17">
    <path d="M 549.617679 182.68 
L 571.426907 182.68 
L 571.426907 59.28 
L 549.617679 59.28 
z
" clip-path="url(#p6fb0d88fdc)" style="fill: #d9d9d9; stroke: #d9d9d9; stroke-linejoin: miter"/>
   </g>
   <g id="patch_18">
    <path d="M 571.426907 182.68 
L 645.578285 182.68 
L 645.578285 59.28 
L 571.426907 59.28 
z
" clip-path="url(#p6fb0d88fdc)" style="fill: #ebebeb; stroke: #ebebeb; stroke-linejoin: miter"/>
   </g>
   <g id="FillBetweenPolyCollection_5">
    <defs>
     <path id="m4839af47e8" d="M 519.084759 -85.402904 
L 519.084759 -68.365311 
L 521.265681 -67.961007 
L 523.446604 -64.266946 
L 525.627527 -58.696663 
L 527.80845 -57.573583 
L 529.989373 -61.436087 
L 532.170296 -65.319788 
L 534.351219 -66.839844 
L 536.532141 -69.374141 
L 538.713064 -73.593755 
L 540.893987 -76.400364 
L 543.07491 -73.730554 
L 545.255833 -67.271638 
L 547.436756 -61.228453 
L 549.617679 -57.289945 
L 551.798601 -56.263555 
L 553.979524 -58.317198 
L 556.160447 -60.774561 
L 558.34137 -65.235323 
L 560.522293 -66.93845 
L 562.703216 -67.905542 
L 564.884139 -69.016436 
L 567.065062 -69.320993 
L 569.245984 -69.435679 
L 571.426907 -70.650809 
L 573.60783 -71.817261 
L 575.788753 -72.049275 
L 577.969676 -71.89132 
L 580.150599 -70.671691 
L 582.331522 -70.821373 
L 584.512444 -73.849902 
L 586.693367 -77.247746 
L 588.87429 -79.855613 
L 591.055213 -80.195459 
L 593.236136 -79.890051 
L 595.417059 -78.94722 
L 597.597982 -77.370818 
L 599.778905 -78.96963 
L 601.959827 -84.031793 
L 604.14075 -88.661374 
L 606.321673 -90.792854 
L 608.502596 -91.799321 
L 610.683519 -91.42043 
L 612.864442 -92.789352 
L 615.045365 -92.351405 
L 617.226287 -88.549831 
L 619.40721 -85.014141 
L 621.588133 -82.741833 
L 623.769056 -82.306279 
L 625.949979 -80.567854 
L 628.130902 -78.163827 
L 630.311825 -77.002939 
L 632.492748 -74.812974 
L 634.67367 -71.41002 
L 636.854593 -68.054427 
L 639.035516 -63.967266 
L 641.216439 -62.475538 
L 643.397362 -64.00781 
L 645.578285 -62.104317 
L 647.759208 -59.103092 
L 649.94013 -58.181262 
L 652.121053 -57.657682 
L 654.301976 -61.700153 
L 656.482899 -66.560036 
L 658.663822 -66.104739 
L 660.844745 -63.928106 
L 663.025668 -59.248165 
L 665.20659 -61.525951 
L 667.387513 -65.424715 
L 669.568436 -63.042165 
L 671.749359 -58.032662 
L 673.930282 -56.728109 
L 676.111205 -57.344935 
L 678.292128 -56.719392 
L 680.473051 -56.11482 
L 682.653973 -54.540857 
L 684.834896 -53.282922 
L 687.015819 -53.181456 
L 689.196742 -54.386065 
L 691.377665 -55.20944 
L 693.558588 -56.869454 
L 695.739511 -60.948302 
L 697.920433 -65.552083 
L 700.101356 -65.789345 
L 702.282279 -63.129027 
L 704.463202 -62.37997 
L 706.644125 -62.201403 
L 708.825048 -64.11596 
L 711.005971 -66.976817 
L 711.005971 -85.029655 
L 711.005971 -85.029655 
L 708.825048 -82.879926 
L 706.644125 -81.619688 
L 704.463202 -81.67784 
L 702.282279 -81.773776 
L 700.101356 -84.074506 
L 697.920433 -84.092993 
L 695.739511 -79.115332 
L 693.558588 -74.670757 
L 691.377665 -73.629306 
L 689.196742 -72.260637 
L 687.015819 -71.162775 
L 684.834896 -70.919199 
L 682.653973 -72.413904 
L 680.473051 -74.303446 
L 678.292128 -74.406901 
L 676.111205 -74.61935 
L 673.930282 -73.687833 
L 671.749359 -75.258781 
L 669.568436 -80.480012 
L 667.387513 -83.248903 
L 665.20659 -79.160279 
L 663.025668 -76.103294 
L 660.844745 -80.150291 
L 658.663822 -82.585439 
L 656.482899 -83.692663 
L 654.301976 -79.224311 
L 652.121053 -75.06842 
L 649.94013 -76.19171 
L 647.759208 -76.89987 
L 645.578285 -79.087889 
L 643.397362 -79.658072 
L 641.216439 -77.871879 
L 639.035516 -79.608151 
L 636.854593 -83.421111 
L 634.67367 -87.259628 
L 632.492748 -90.095896 
L 630.311825 -92.21017 
L 628.130902 -93.212526 
L 625.949979 -95.225575 
L 623.769056 -97.53076 
L 621.588133 -98.277514 
L 619.40721 -101.344393 
L 617.226287 -105.104465 
L 615.045365 -108.29259 
L 612.864442 -108.164646 
L 610.683519 -108.03765 
L 608.502596 -109.722877 
L 606.321673 -107.665939 
L 604.14075 -105.32416 
L 601.959827 -101.017316 
L 599.778905 -96.172683 
L 597.597982 -94.825861 
L 595.417059 -96.772938 
L 593.236136 -98.613198 
L 591.055213 -99.154203 
L 588.87429 -97.753488 
L 586.693367 -94.693814 
L 584.512444 -90.805134 
L 582.331522 -87.535129 
L 580.150599 -87.991083 
L 577.969676 -89.662458 
L 575.788753 -89.769841 
L 573.60783 -87.421842 
L 571.426907 -85.630329 
L 569.245984 -84.988939 
L 567.065062 -85.604671 
L 564.884139 -86.235703 
L 562.703216 -85.3359 
L 560.522293 -84.370627 
L 558.34137 -84.132859 
L 556.160447 -81.038755 
L 553.979524 -79.856303 
L 551.798601 -78.294177 
L 549.617679 -78.407306 
L 547.436756 -80.5721 
L 545.255833 -85.605919 
L 543.07491 -90.463363 
L 540.893987 -92.009118 
L 538.713064 -88.803142 
L 536.532141 -84.476816 
L 534.351219 -82.74253 
L 532.170296 -81.140065 
L 529.989373 -75.735472 
L 527.80845 -71.945074 
L 525.627527 -73.426817 
L 523.446604 -79.38002 
L 521.265681 -83.66699 
L 519.084759 -85.402904 
z
" style="stroke: #1f77b4; stroke-opacity: 0.15"/>
    </defs>
    <g clip-path="url(#p6fb0d88fdc)">
     <use xlink:href="#m4839af47e8" x="0" y="215.397188" style="fill: #1f77b4; fill-opacity: 0.15; stroke: #1f77b4; stroke-opacity: 0.15"/>
    </g>
   </g>
   <g id="FillBetweenPolyCollection_6">
    <defs>
     <path id="maa06172363" d="M 519.084759 -98.423013 
L 519.084759 -64.033383 
L 521.265681 -59.086722 
L 523.446604 -50.318379 
L 525.627527 -47.32646 
L 527.80845 -54.104121 
L 529.989373 -57.17117 
L 532.170296 -57.295657 
L 534.351219 -59.369066 
L 536.532141 -59.468499 
L 538.713064 -63.118745 
L 540.893987 -67.116114 
L 543.07491 -70.132761 
L 545.255833 -73.318506 
L 547.436756 -74.369846 
L 549.617679 -77.227279 
L 551.798601 -80.428433 
L 553.979524 -82.135609 
L 556.160447 -81.177825 
L 558.34137 -75.922091 
L 560.522293 -70.285633 
L 562.703216 -64.054717 
L 564.884139 -62.939453 
L 567.065062 -69.915104 
L 569.245984 -73.164615 
L 571.426907 -72.429573 
L 573.60783 -73.119477 
L 575.788753 -70.667299 
L 577.969676 -70.31575 
L 580.150599 -75.298305 
L 582.331522 -82.23117 
L 584.512444 -84.692249 
L 586.693367 -84.697468 
L 588.87429 -80.379791 
L 591.055213 -70.774413 
L 593.236136 -61.213244 
L 595.417059 -66.095161 
L 597.597982 -76.202964 
L 599.778905 -82.961975 
L 601.959827 -89.790714 
L 604.14075 -93.470777 
L 606.321673 -93.948398 
L 608.502596 -92.708836 
L 610.683519 -94.494076 
L 612.864442 -97.827324 
L 615.045365 -95.797751 
L 617.226287 -91.126679 
L 619.40721 -87.474961 
L 621.588133 -87.189987 
L 623.769056 -85.876824 
L 625.949979 -80.194597 
L 628.130902 -73.337321 
L 630.311825 -68.821734 
L 632.492748 -63.767704 
L 634.67367 -67.525583 
L 636.854593 -73.412907 
L 639.035516 -76.810141 
L 641.216439 -78.295467 
L 643.397362 -82.647461 
L 645.578285 -81.492233 
L 647.759208 -73.082402 
L 649.94013 -66.471503 
L 652.121053 -66.51865 
L 654.301976 -65.693862 
L 656.482899 -61.587387 
L 658.663822 -58.820492 
L 660.844745 -59.243111 
L 663.025668 -58.73341 
L 665.20659 -54.144147 
L 667.387513 -52.733503 
L 669.568436 -52.236168 
L 671.749359 -57.817922 
L 673.930282 -65.311311 
L 676.111205 -69.241445 
L 678.292128 -70.383957 
L 680.473051 -67.12651 
L 682.653973 -61.532797 
L 684.834896 -58.00704 
L 687.015819 -56.222882 
L 689.196742 -52.891866 
L 691.377665 -46.637392 
L 693.558588 -46.720931 
L 695.739511 -50.825313 
L 697.920433 -58.757244 
L 700.101356 -66.373186 
L 702.282279 -63.967653 
L 704.463202 -63.064299 
L 706.644125 -70.404917 
L 708.825048 -78.632351 
L 711.005971 -85.779266 
L 711.005971 -122.569223 
L 711.005971 -122.569223 
L 708.825048 -112.154044 
L 706.644125 -103.751049 
L 704.463202 -96.202781 
L 702.282279 -96.586902 
L 700.101356 -97.716384 
L 697.920433 -92.63517 
L 695.739511 -79.431679 
L 693.558588 -75.342385 
L 691.377665 -76.77137 
L 689.196742 -83.709734 
L 687.015819 -84.025409 
L 684.834896 -84.512815 
L 682.653973 -88.40064 
L 680.473051 -95.979008 
L 678.292128 -97.966827 
L 676.111205 -94.991919 
L 673.930282 -94.22888 
L 671.749359 -90.919923 
L 669.568436 -87.017328 
L 667.387513 -88.318145 
L 665.20659 -87.881735 
L 663.025668 -91.085225 
L 660.844745 -90.706783 
L 658.663822 -92.381303 
L 656.482899 -94.552525 
L 654.301976 -95.60161 
L 652.121053 -94.623815 
L 649.94013 -93.959614 
L 647.759208 -100.955391 
L 645.578285 -110.433539 
L 643.397362 -114.811931 
L 641.216439 -111.849607 
L 639.035516 -109.821207 
L 636.854593 -105.045262 
L 634.67367 -99.75085 
L 632.492748 -96.505781 
L 630.311825 -102.338484 
L 628.130902 -107.536714 
L 625.949979 -111.411978 
L 623.769056 -114.197975 
L 621.588133 -118.987615 
L 619.40721 -120.984708 
L 617.226287 -122.443356 
L 615.045365 -125.588862 
L 612.864442 -127.291045 
L 610.683519 -121.518582 
L 608.502596 -121.883806 
L 606.321673 -127.233195 
L 604.14075 -127.406617 
L 601.959827 -122.449783 
L 599.778905 -117.537639 
L 597.597982 -111.914461 
L 595.417059 -101.241131 
L 593.236136 -98.374832 
L 591.055213 -107.677812 
L 588.87429 -115.708066 
L 586.693367 -117.224295 
L 584.512444 -119.165005 
L 582.331522 -118.720672 
L 580.150599 -108.045689 
L 577.969676 -101.521496 
L 575.788753 -99.010402 
L 573.60783 -101.219798 
L 571.426907 -101.45633 
L 569.245984 -103.108471 
L 567.065062 -98.549555 
L 564.884139 -91.967203 
L 562.703216 -95.443049 
L 560.522293 -104.534907 
L 558.34137 -113.988491 
L 556.160447 -120.523187 
L 553.979524 -124.408616 
L 551.798601 -123.826376 
L 549.617679 -120.042167 
L 547.436756 -110.683752 
L 545.255833 -106.406989 
L 543.07491 -106.357928 
L 540.893987 -99.078412 
L 538.713064 -91.095205 
L 536.532141 -87.096891 
L 534.351219 -87.727982 
L 532.170296 -87.245521 
L 529.989373 -85.171796 
L 527.80845 -79.875296 
L 525.627527 -75.480229 
L 523.446604 -79.533987 
L 521.265681 -91.928449 
L 519.084759 -98.423013 
z
" style="stroke: #ff7f0e; stroke-opacity: 0.15"/>
    </defs>
    <g clip-path="url(#p6fb0d88fdc)">
     <use xlink:href="#maa06172363" x="0" y="215.397188" style="fill: #ff7f0e; fill-opacity: 0.15; stroke: #ff7f0e; stroke-opacity: 0.15"/>
    </g>
   </g>
   <g id="line2d_25">
    <path d="M 509.488698 132.774924 
L 720.602031 132.774924 
" clip-path="url(#p6fb0d88fdc)" style="fill: none; stroke-dasharray: 2.96,1.28; stroke-dashoffset: 0; stroke: #000000; stroke-width: 0.8"/>
   </g>
   <g id="matplotlib.axis_5">
    <g id="xtick_11">
     <g id="line2d_26">
      <g>
       <use xlink:href="#mde4d8c1793" x="514.722913" y="182.68" style="stroke: #000000; stroke-width: 0.8"/>
      </g>
     </g>
     <g id="text_21">
      <!-- 0 -->
      <g transform="translate(512.496038 194.998906) scale(0.07 -0.07)">
       <use xlink:href="#DejaVuSans-30"/>
      </g>
     </g>
    </g>
    <g id="xtick_12">
     <g id="line2d_27">
      <g>
       <use xlink:href="#mde4d8c1793" x="558.34137" y="182.68" style="stroke: #000000; stroke-width: 0.8"/>
      </g>
     </g>
     <g id="text_22">
      <!-- 10 -->
      <g transform="translate(553.88762 194.998906) scale(0.07 -0.07)">
       <use xlink:href="#DejaVuSans-31"/>
       <use xlink:href="#DejaVuSans-30" transform="translate(63.623047 0)"/>
      </g>
     </g>
    </g>
    <g id="xtick_13">
     <g id="line2d_28">
      <g>
       <use xlink:href="#mde4d8c1793" x="601.959827" y="182.68" style="stroke: #000000; stroke-width: 0.8"/>
      </g>
     </g>
     <g id="text_23">
      <!-- 20 -->
      <g transform="translate(597.506077 194.998906) scale(0.07 -0.07)">
       <use xlink:href="#DejaVuSans-32"/>
       <use xlink:href="#DejaVuSans-30" transform="translate(63.623047 0)"/>
      </g>
     </g>
    </g>
    <g id="xtick_14">
     <g id="line2d_29">
      <g>
       <use xlink:href="#mde4d8c1793" x="645.578285" y="182.68" style="stroke: #000000; stroke-width: 0.8"/>
      </g>
     </g>
     <g id="text_24">
      <!-- 30 -->
      <g transform="translate(641.124535 194.998906) scale(0.07 -0.07)">
       <use xlink:href="#DejaVuSans-33"/>
       <use xlink:href="#DejaVuSans-30" transform="translate(63.623047 0)"/>
      </g>
     </g>
    </g>
    <g id="xtick_15">
     <g id="line2d_30">
      <g>
       <use xlink:href="#mde4d8c1793" x="689.196742" y="182.68" style="stroke: #000000; stroke-width: 0.8"/>
      </g>
     </g>
     <g id="text_25">
      <!-- 40 -->
      <g transform="translate(684.742992 194.998906) scale(0.07 -0.07)">
       <use xlink:href="#DejaVuSans-34"/>
       <use xlink:href="#DejaVuSans-30" transform="translate(63.623047 0)"/>
      </g>
     </g>
    </g>
    <g id="text_26">
     <!-- Frequency (Hz) -->
     <g transform="translate(584.881615 206.533437) scale(0.08 -0.08)">
      <use xlink:href="#DejaVuSans-46"/>
      <use xlink:href="#DejaVuSans-72" transform="translate(50.269531 0)"/>
      <use xlink:href="#DejaVuSans-65" transform="translate(89.132812 0)"/>
      <use xlink:href="#DejaVuSans-71" transform="translate(150.65625 0)"/>
      <use xlink:href="#DejaVuSans-75" transform="translate(214.132812 0)"/>
      <use xlink:href="#DejaVuSans-65" transform="translate(277.511719 0)"/>
      <use xlink:href="#DejaVuSans-6e" transform="translate(339.035156 0)"/>
      <use xlink:href="#DejaVuSans-63" transform="translate(402.414062 0)"/>
      <use xlink:href="#DejaVuSans-79" transform="translate(457.394531 0)"/>
      <use xlink:href="#DejaVuSans-20" transform="translate(516.574219 0)"/>
      <use xlink:href="#DejaVuSans-28" transform="translate(548.361328 0)"/>
      <use xlink:href="#DejaVuSans-48" transform="translate(587.375 0)"/>
      <use xlink:href="#DejaVuSans-7a" transform="translate(662.570312 0)"/>
      <use xlink:href="#DejaVuSans-29" transform="translate(715.060547 0)"/>
     </g>
    </g>
   </g>
   <g id="matplotlib.axis_6">
    <g id="ytick_9">
     <g id="line2d_31">
      <g>
       <use xlink:href="#m3a66e9fb70" x="509.488698" y="163.525519" style="stroke: #000000; stroke-width: 0.8"/>
      </g>
     </g>
    </g>
    <g id="ytick_10">
     <g id="line2d_32">
      <g>
       <use xlink:href="#m3a66e9fb70" x="509.488698" y="132.774924" style="stroke: #000000; stroke-width: 0.8"/>
      </g>
     </g>
    </g>
    <g id="ytick_11">
     <g id="line2d_33">
      <g>
       <use xlink:href="#m3a66e9fb70" x="509.488698" y="102.024328" style="stroke: #000000; stroke-width: 0.8"/>
      </g>
     </g>
    </g>
    <g id="ytick_12">
     <g id="line2d_34">
      <g>
       <use xlink:href="#m3a66e9fb70" x="509.488698" y="71.273733" style="stroke: #000000; stroke-width: 0.8"/>
      </g>
     </g>
    </g>
    <g id="text_27">
     <!-- ERD/ERS (dB) -->
     <g transform="translate(500.324948 148.236875) rotate(-90) scale(0.08 -0.08)">
      <use xlink:href="#DejaVuSans-45"/>
      <use xlink:href="#DejaVuSans-52" transform="translate(63.183594 0)"/>
      <use xlink:href="#DejaVuSans-44" transform="translate(132.666016 0)"/>
      <use xlink:href="#DejaVuSans-2f" transform="translate(209.667969 0)"/>
      <use xlink:href="#DejaVuSans-45" transform="translate(243.359375 0)"/>
      <use xlink:href="#DejaVuSans-52" transform="translate(306.542969 0)"/>
      <use xlink:href="#DejaVuSans-53" transform="translate(376.025391 0)"/>
      <use xlink:href="#DejaVuSans-20" transform="translate(439.501953 0)"/>
      <use xlink:href="#DejaVuSans-28" transform="translate(471.289062 0)"/>
      <use xlink:href="#DejaVuSans-64" transform="translate(510.302734 0)"/>
      <use xlink:href="#DejaVuSans-42" transform="translate(573.779297 0)"/>
      <use xlink:href="#DejaVuSans-29" transform="translate(642.382812 0)"/>
     </g>
    </g>
   </g>
   <g id="line2d_35">
    <path d="M 519.084759 138.51308 
L 521.265681 139.583189 
L 523.446604 143.573705 
L 525.627527 149.335447 
L 527.80845 150.637859 
L 529.989373 146.811408 
L 532.170296 142.167261 
L 534.351219 140.606 
L 536.532141 138.471709 
L 538.713064 134.198739 
L 540.893987 131.192446 
L 543.07491 133.300229 
L 545.255833 138.958409 
L 547.436756 144.496911 
L 549.617679 147.548562 
L 551.798601 148.118321 
L 553.979524 146.310437 
L 556.160447 144.49053 
L 558.34137 140.713097 
L 560.522293 139.742649 
L 562.703216 138.776466 
L 564.884139 137.771118 
L 567.065062 137.934355 
L 569.245984 138.184878 
L 571.426907 137.256619 
L 573.60783 135.777636 
L 575.788753 134.48763 
L 577.969676 134.620299 
L 580.150599 136.0658 
L 582.331522 136.218936 
L 584.512444 133.06967 
L 586.693367 129.426408 
L 588.87429 126.592637 
L 591.055213 125.722357 
L 593.236136 126.145563 
L 595.417059 127.537108 
L 597.597982 129.298848 
L 599.778905 127.826031 
L 601.959827 122.872633 
L 604.14075 118.404421 
L 606.321673 116.167791 
L 608.502596 114.636089 
L 610.683519 115.668147 
L 612.864442 114.920188 
L 615.045365 115.07519 
L 617.226287 118.570039 
L 619.40721 122.217921 
L 621.588133 124.887514 
L 623.769056 125.478668 
L 625.949979 127.500473 
L 628.130902 129.709011 
L 630.311825 130.790633 
L 632.492748 132.942753 
L 634.67367 136.062363 
L 636.854593 139.659418 
L 639.035516 143.609479 
L 641.216439 145.223479 
L 643.397362 143.564246 
L 645.578285 144.801084 
L 647.759208 147.395707 
L 649.94013 148.210701 
L 652.121053 149.034137 
L 654.301976 144.934955 
L 656.482899 140.270838 
L 658.663822 141.052098 
L 660.844745 143.357989 
L 663.025668 147.721458 
L 665.20659 145.054072 
L 667.387513 141.060379 
L 669.568436 143.636099 
L 671.749359 148.751466 
L 673.930282 150.189216 
L 676.111205 149.415045 
L 678.292128 149.834041 
L 680.473051 150.188054 
L 682.653973 151.919807 
L 684.834896 153.296127 
L 687.015819 153.225072 
L 689.196742 152.073836 
L 691.377665 150.977815 
L 693.558588 149.627082 
L 695.739511 145.365371 
L 697.920433 140.574649 
L 700.101356 140.465262 
L 702.282279 142.945786 
L 704.463202 143.368283 
L 706.644125 143.486642 
L 708.825048 141.899244 
L 711.005971 139.393951 
" clip-path="url(#p6fb0d88fdc)" style="fill: none; stroke: #1f77b4; stroke-width: 1.3; stroke-linecap: square"/>
   </g>
   <g id="line2d_36">
    <path d="M 519.084759 134.16899 
L 521.265681 139.889602 
L 523.446604 150.471005 
L 525.627527 153.993843 
L 527.80845 148.407479 
L 529.989373 144.225704 
L 532.170296 143.126599 
L 534.351219 141.848663 
L 536.532141 142.114493 
L 538.713064 138.290213 
L 540.893987 132.299924 
L 543.07491 127.151843 
L 545.255833 125.53444 
L 547.436756 122.870389 
L 549.617679 116.762465 
L 551.798601 113.269783 
L 553.979524 112.125075 
L 556.160447 114.546682 
L 558.34137 120.441897 
L 560.522293 127.986918 
L 562.703216 135.648305 
L 564.884139 137.94386 
L 567.065062 131.164858 
L 569.245984 127.260645 
L 571.426907 128.454236 
L 573.60783 128.22755 
L 575.788753 130.558337 
L 577.969676 129.478565 
L 580.150599 123.725191 
L 582.331522 114.921267 
L 584.512444 113.46856 
L 586.693367 114.436306 
L 588.87429 117.353259 
L 591.055213 126.171075 
L 593.236136 135.603149 
L 595.417059 131.729041 
L 597.597982 121.338475 
L 599.778905 115.14738 
L 601.959827 109.276939 
L 604.14075 104.95849 
L 606.321673 104.806391 
L 608.502596 108.100866 
L 610.683519 107.390858 
L 612.864442 102.838003 
L 615.045365 104.703881 
L 617.226287 108.61217 
L 619.40721 111.167353 
L 621.588133 112.308386 
L 623.769056 115.359788 
L 625.949979 119.5939 
L 628.130902 124.96017 
L 630.311825 129.817079 
L 632.492748 135.260445 
L 634.67367 131.758971 
L 636.854593 126.168103 
L 639.035516 122.081514 
L 641.216439 120.32465 
L 643.397362 116.667491 
L 645.578285 119.434302 
L 647.759208 128.378291 
L 649.94013 135.181629 
L 652.121053 134.825955 
L 654.301976 134.749452 
L 656.482899 137.327232 
L 658.663822 139.79629 
L 660.844745 140.42224 
L 663.025668 140.48787 
L 665.20659 144.384246 
L 667.387513 144.871364 
L 669.568436 145.77044 
L 671.749359 141.028265 
L 673.930282 135.627092 
L 676.111205 133.280505 
L 678.292128 131.221796 
L 680.473051 133.844428 
L 682.653973 140.430469 
L 684.834896 144.13726 
L 687.015819 145.273042 
L 689.196742 147.096387 
L 691.377665 153.692806 
L 693.558588 154.36553 
L 695.739511 150.268691 
L 697.920433 139.700981 
L 700.101356 133.352402 
L 702.282279 135.11991 
L 704.463202 135.763648 
L 706.644125 128.319204 
L 708.825048 120.00399 
L 711.005971 111.222943 
" clip-path="url(#p6fb0d88fdc)" style="fill: none; stroke: #ff7f0e; stroke-width: 1.3; stroke-linecap: square"/>
   </g>
   <g id="patch_19">
    <path d="M 509.488698 182.68 
L 509.488698 59.28 
" style="fill: none; stroke: #000000; stroke-width: 0.8; stroke-linejoin: miter; stroke-linecap: square"/>
   </g>
   <g id="patch_20">
    <path d="M 720.602031 182.68 
L 720.602031 59.28 
" style="fill: none; stroke: #000000; stroke-width: 0.8; stroke-linejoin: miter; stroke-linecap: square"/>
   </g>
   <g id="patch_21">
    <path d="M 509.488698 182.68 
L 720.602031 182.68 
" style="fill: none; stroke: #000000; stroke-width: 0.8; stroke-linejoin: miter; stroke-linecap: square"/>
   </g>
   <g id="patch_22">
    <path d="M 509.488698 59.28 
L 720.602031 59.28 
" style="fill: none; stroke: #000000; stroke-width: 0.8; stroke-linejoin: miter; stroke-linecap: square"/>
   </g>
   <g id="text_28">
    <!-- C4 -->
    <g transform="translate(609.039974 53.28) scale(0.09 -0.09)">
     <use xlink:href="#DejaVuSans-43"/>
     <use xlink:href="#DejaVuSans-34" transform="translate(69.824219 0)"/>
    </g>
   </g>
  </g>
  <g id="text_29">
   <!-- ERD/ERS — MI — S02 (Movement vs Rest) -->
   <g transform="translate(248.408984 15.558281) scale(0.11 -0.11)">
    <defs>
     <path id="DejaVuSans-2014" d="M 313 1978 
L 6088 1978 
L 6088 1528 
L 313 1528 
L 313 1978 
z
" transform="scale(0.015625)"/>
     <path id="DejaVuSans-4d" d="M 628 4666 
L 1569 4666 
L 2759 1491 
L 3956 4666 
L 4897 4666 
L 4897 0 
L 4281 0 
L 4281 4097 
L 3078 897 
L 2444 897 
L 1241 4097 
L 1241 0 
L 628 0 
L 628 4666 
z
" transform="scale(0.015625)"/>
     <path id="DejaVuSans-49" d="M 628 4666 
L 1259 4666 
L 1259 0 
L 628 0 
L 628 4666 
z
" transform="scale(0.015625)"/>
     <path id="DejaVuSans-6f" d="M 1959 3097 
Q 1497 3097 1228 2736 
Q 959 2375 959 1747 
Q 959 1119 1226 758 
Q 1494 397 1959 397 
Q 2419 397 2687 759 
Q 2956 1122 2956 1747 
Q 2956 2369 2687 2733 
Q 2419 3097 1959 3097 
z
M 1959 3584 
Q 2709 3584 3137 3096 
Q 3566 2609 3566 1747 
Q 3566 888 3137 398 
Q 2709 -91 1959 -91 
Q 1206 -91 779 398 
Q 353 888 353 1747 
Q 353 2609 779 3096 
Q 1206 3584 1959 3584 
z
" transform="scale(0.015625)"/>
     <path id="DejaVuSans-76" d="M 191 3500 
L 800 3500 
L 1894 563 
L 2988 3500 
L 3597 3500 
L 2284 0 
L 1503 0 
L 191 3500 
z
" transform="scale(0.015625)"/>
     <path id="DejaVuSans-6d" d="M 3328 2828 
Q 3544 3216 3844 3400 
Q 4144 3584 4550 3584 
Q 5097 3584 5394 3201 
Q 5691 2819 5691 2113 
L 5691 0 
L 5113 0 
L 5113 2094 
Q 5113 2597 4934 2840 
Q 4756 3084 4391 3084 
Q 3944 3084 3684 2787 
Q 3425 2491 3425 1978 
L 3425 0 
L 2847 0 
L 2847 2094 
Q 2847 2600 2669 2842 
Q 2491 3084 2119 3084 
Q 1678 3084 1418 2786 
Q 1159 2488 1159 1978 
L 1159 0 
L 581 0 
L 581 3500 
L 1159 3500 
L 1159 2956 
Q 1356 3278 1631 3431 
Q 1906 3584 2284 3584 
Q 2666 3584 2933 3390 
Q 3200 3197 3328 2828 
z
" transform="scale(0.015625)"/>
     <path id="DejaVuSans-74" d="M 1172 4494 
L 1172 3500 
L 2356 3500 
L 2356 3053 
L 1172 3053 
L 1172 1153 
Q 1172 725 1289 603 
Q 1406 481 1766 481 
L 2356 481 
L 2356 0 
L 1766 0 
Q 1100 0 847 248 
Q 594 497 594 1153 
L 594 3053 
L 172 3053 
L 172 3500 
L 594 3500 
L 594 4494 
L 1172 4494 
z
" transform="scale(0.015625)"/>
     <path id="DejaVuSans-73" d="M 2834 3397 
L 2834 2853 
Q 2591 2978 2328 3040 
Q 2066 3103 1784 3103 
Q 1356 3103 1142 2972 
Q 928 2841 928 2578 
Q 928 2378 1081 2264 
Q 1234 2150 1697 2047 
L 1894 2003 
Q 2506 1872 2764 1633 
Q 3022 1394 3022 966 
Q 3022 478 2636 193 
Q 2250 -91 1575 -91 
Q 1294 -91 989 -36 
Q 684 19 347 128 
L 347 722 
Q 666 556 975 473 
Q 1284 391 1588 391 
Q 1994 391 2212 530 
Q 2431 669 2431 922 
Q 2431 1156 2273 1281 
Q 2116 1406 1581 1522 
L 1381 1569 
Q 847 1681 609 1914 
Q 372 2147 372 2553 
Q 372 3047 722 3315 
Q 1072 3584 1716 3584 
Q 2034 3584 2315 3537 
Q 2597 3491 2834 3397 
z
" transform="scale(0.015625)"/>
    </defs>
    <use xlink:href="#DejaVuSans-45"/>
    <use xlink:href="#DejaVuSans-52" transform="translate(63.183594 0)"/>
    <use xlink:href="#DejaVuSans-44" transform="translate(132.666016 0)"/>
    <use xlink:href="#DejaVuSans-2f" transform="translate(209.667969 0)"/>
    <use xlink:href="#DejaVuSans-45" transform="translate(243.359375 0)"/>
    <use xlink:href="#DejaVuSans-52" transform="translate(306.542969 0)"/>
    <use xlink:href="#DejaVuSans-53" transform="translate(376.025391 0)"/>
    <use xlink:href="#DejaVuSans-20" transform="translate(439.501953 0)"/>
    <use xlink:href="#DejaVuSans-2014" transform="translate(471.289062 0)"/>
    <use xlink:href="#DejaVuSans-20" transform="translate(571.289062 0)"/>
    <use xlink:href="#DejaVuSans-4d" transform="translate(603.076172 0)"/>
    <use xlink:href="#DejaVuSans-49" transform="translate(689.355469 0)"/>
    <use xlink:href="#DejaVuSans-20" transform="translate(718.847656 0)"/>
    <use xlink:href="#DejaVuSans-2014" transform="translate(750.634766 0)"/>
    <use xlink:href="#DejaVuSans-20" transform="translate(850.634766 0)"/>
    <use xlink:href="#DejaVuSans-53" transform="translate(882.421875 0)"/>
    <use xlink:href="#DejaVuSans-30" transform="translate(945.898438 0)"/>
    <use xlink:href="#DejaVuSans-32" transform="translate(1009.521484 0)"/>
    <use xlink:href="#DejaVuSans-20" transform="translate(1073.144531 0)"/>
    <use xlink:href="#DejaVuSans-28" transform="translate(1104.931641 0)"/>
    <use xlink:href="#DejaVuSans-4d" transform="translate(1143.945312 0)"/>
    <use xlink:href="#DejaVuSans-6f" transform="translate(1230.224609 0)"/>
    <use xlink:href="#DejaVuSans-76" transform="translate(1291.40625 0)"/>
    <use xlink:href="#DejaVuSans-65" transform="translate(1350.585938 0)"/>
    <use xlink:href="#DejaVuSans-6d" transform="translate(1412.109375 0)"/>
    <use xlink:href="#DejaVuSans-65" transform="translate(1509.521484 0)"/>
    <use xlink:href="#DejaVuSans-6e" transform="translate(1571.044922 0)"/>
    <use xlink:href="#DejaVuSans-74" transform="translate(1634.423828 0)"/>
    <use xlink:href="#DejaVuSans-20" transform="translate(1673.632812 0)"/>
    <use xlink:href="#DejaVuSans-76" transform="translate(1705.419922 0)"/>
    <use xlink:href="#DejaVuSans-73" transform="translate(1764.599609 0)"/>
    <use xlink:href="#DejaVuSans-20" transform="translate(1816.699219 0)"/>
    <use xlink:href="#DejaVuSans-52" transform="translate(1848.486328 0)"/>
    <use xlink:href="#DejaVuSans-65" transform="translate(1913.46875 0)"/>
    <use xlink:href="#DejaVuSans-73" transform="translate(1974.992188 0)"/>
    <use xlink:href="#DejaVuSans-74" transform="translate(2027.091797 0)"/>
    <use xlink:href="#DejaVuSans-29" transform="translate(2066.300781 0)"/>
   </g>
  </g>
  <g id="legend_1">
   <g id="patch_23">
    <path d="M 663.350812 30.109375 
L 722.830031 30.109375 
Q 724.230031 30.109375 724.230031 28.709375 
L 724.230031 8.86 
Q 724.230031 7.46 722.830031 7.46 
L 663.350812 7.46 
Q 661.950812 7.46 661.950812 8.86 
L 661.950812 28.709375 
Q 661.950812 30.109375 663.350812 30.109375 
z
" style="fill: #ffffff; opacity: 0.8; stroke: #cccccc; stroke-linejoin: miter"/>
   </g>
   <g id="line2d_37">
    <path d="M 664.750812 13.128906 
L 671.750812 13.128906 
L 678.750812 13.128906 
" style="fill: none; stroke: #1f77b4; stroke-width: 1.3; stroke-linecap: square"/>
   </g>
   <g id="text_30">
    <!-- Movement -->
    <g transform="translate(684.350812 15.578906) scale(0.07 -0.07)">
     <use xlink:href="#DejaVuSans-4d"/>
     <use xlink:href="#DejaVuSans-6f" transform="translate(86.279297 0)"/>
     <use xlink:href="#DejaVuSans-76" transform="translate(147.460938 0)"/>
     <use xlink:href="#DejaVuSans-65" transform="translate(206.640625 0)"/>
     <use xlink:href="#DejaVuSans-6d" transform="translate(268.164062 0)"/>
     <use xlink:href="#DejaVuSans-65" transform="translate(365.576172 0)"/>
     <use xlink:href="#DejaVuSans-6e" transform="translate(427.099609 0)"/>
     <use xlink:href="#DejaVuSans-74" transform="translate(490.478516 0)"/>
    </g>
   </g>
   <g id="line2d_38">
    <path d="M 664.750812 23.403594 
L 671.750812 23.403594 
L 678.750812 23.403594 
" style="fill: none; stroke: #ff7f0e; stroke-width: 1.3; stroke-linecap: square"/>
   </g>
   <g id="text_31">
    <!-- rest -->
    <g transform="translate(684.350812 25.853594) scale(0.07 -0.07)">
     <use xlink:href="#DejaVuSans-72"/>
     <use xlink:href="#DejaVuSans-65" transform="translate(38.863281 0)"/>
     <use xlink:href="#DejaVuSans-73" transform="translate(100.386719 0)"/>
     <use xlink:href="#DejaVuSans-74" transform="translate(152.486328 0)"/>
    </g>
   </g>
  </g>
 </g>
 <defs>
  <clipPath id="peb0b258c17">
   <rect x="36.262031" y="59.28" width="211.113333" height="123.4"/>
  </clipPath>
  <clipPath id="p04e3cbf4e6">
   <rect x="272.875365" y="59.28" width="211.113333" height="123.4"/>
  </clipPath>
  <clipPath id="p6fb0d88fdc">
   <rect x="509.488698" y="59.28" width="211.113333" height="123.4"/>
  </clipPath>
 </defs>
</svg>
