<?xml version="1.0" encoding="utf-8" standalone="no"?>
<!DOCTYPE svg PUBLIC "-//W3C//DTD SVG 1.1//EN"
  "http://www.w3.org/Graphics/SVG/1.1/DTD/svg11.dtd">
<svg xmlns:xlink="http://www.w3.org/1999/xlink" width="731.430031pt" height="215.397188pt" viewBox="0 0 731.430031 215.397188" xmlns="http://www.w3.org/2000/svg" version="1.1">
 <metadata>
  <rdf:RDF xmlns:dc="http://purl.org/dc/elements/1.1/" xmlns:cc="http://creativecommons.org/ns#" xmlns:rdf="http://www.w3.org/1999/02/22-rdf-syntax-ns#">
   <cc:Work>
    <dc:type rdf:resource="http://purl.org/dc/dcmitype/StillImage"/>
    <dc:date>2026-06-26T22:25:40.121651</dc:date>
    <dc:format>image/svg+xml</dc:format>
    <dc:creator>
     <cc:Agent>
      <dc:title>Matplotlib v3.10.9, https://matplotlib.org/</dc:title>
     </cc:Agent>
    </dc:creator>
   </cc:Work>
  </rdf:RDF>
 </metadata>
 <defs>
  <style type="text/css">*{stroke-linejoin: round; stroke-linecap: butt}</style>
 </defs>
 <g id="figure_1">
  <g id="patch_1">
   <path d="M 0 215.397188 
L 731.430031 215.397188 
L 731.430031 0 
L 0 0 
L 0 215.397188 
z
" style="fill: none"/>
  </g>
  <g id="axes_1">
   <g id="patch_2">
    <path d="M 36.262031 182.68 
L 247.375365 182.68 
L 247.375365 59.28 
L 36.262031 59.28 
L 36.262031 182.68 
z
" style="fill: none"/>
   </g>
   <g id="patch_3">
    <path d="M 76.391012 182.68 
L 98.200241 182.68 
L 98.200241 59.28 
L 76.391012 59.28 
z
" clip-path="url(#p741f680699)" style="fill: #d9d9d9; stroke: #d9d9d9; stroke-linejoin: miter"/>
   </g>
   <g id="patch_4">
    <path d="M 98.200241 182.68 
L 172.351618 182.68 
L 172.351618 59.28 
L 98.200241 59.28 
z
" clip-path="url(#p741f680699)" style="fill: #ebebeb; stroke: #ebebeb; stroke-linejoin: miter"/>
   </g>
   <g id="FillBetweenPolyCollection_1">
    <defs>
     <path id="me1a5d4d8d4" d="M 45.858092 -83.514929 
L 45.858092 -69.629684 
L 48.039015 -71.127837 
L 50.219938 -68.669267 
L 52.40086 -65.405667 
L 54.581783 -67.594061 
L 56.762706 -71.706007 
L 58.943629 -73.515885 
L 61.124552 -72.898498 
L 63.305475 -71.726525 
L 65.486398 -72.968849 
L 67.667321 -71.909819 
L 69.848243 -71.031169 
L 72.029166 -71.678707 
L 74.210089 -71.823969 
L 76.391012 -70.604582 
L 78.571935 -67.718029 
L 80.752858 -63.372667 
L 82.933781 -61.076297 
L 85.114703 -62.670599 
L 87.295626 -62.864374 
L 89.476549 -60.376593 
L 91.657472 -60.391993 
L 93.838395 -62.339745 
L 96.019318 -65.644776 
L 98.200241 -69.355952 
L 100.381163 -71.128291 
L 102.562086 -67.835228 
L 104.743009 -64.087296 
L 106.923932 -62.924442 
L 109.104855 -61.830497 
L 111.285778 -59.06398 
L 113.466701 -55.926208 
L 115.647624 -55.992751 
L 117.828546 -56.388072 
L 120.009469 -57.662488 
L 122.190392 -60.431664 
L 124.371315 -62.395307 
L 126.552238 -63.568307 
L 128.733161 -63.437211 
L 130.914084 -63.977854 
L 133.095006 -63.912978 
L 135.275929 -61.059952 
L 137.456852 -61.226145 
L 139.637775 -62.695869 
L 141.818698 -64.528495 
L 143.999621 -66.025219 
L 146.180544 -66.772596 
L 148.361467 -66.104378 
L 150.542389 -65.939998 
L 152.723312 -67.837086 
L 154.904235 -71.772715 
L 157.085158 -74.589663 
L 159.266081 -76.866539 
L 161.447004 -74.097683 
L 163.627927 -70.366913 
L 165.808849 -69.673175 
L 167.989772 -68.495597 
L 170.170695 -67.534133 
L 172.351618 -69.259805 
L 174.532541 -70.55844 
L 176.713464 -72.7351 
L 178.894387 -75.04915 
L 181.075309 -74.896386 
L 183.256232 -74.595702 
L 185.437155 -75.069825 
L 187.618078 -75.634554 
L 189.799001 -74.985871 
L 191.979924 -72.212882 
L 194.160847 -67.140584 
L 196.34177 -64.066309 
L 198.522692 -66.708347 
L 200.703615 -69.206328 
L 202.884538 -68.506314 
L 205.065461 -68.095019 
L 207.246384 -66.828055 
L 209.427307 -64.635405 
L 211.60823 -64.090223 
L 213.789152 -65.328498 
L 215.970075 -67.689597 
L 218.150998 -68.110452 
L 220.331921 -67.207068 
L 222.512844 -68.637447 
L 224.693767 -71.50472 
L 226.87469 -73.087624 
L 229.055613 -72.718532 
L 231.236535 -71.182595 
L 233.417458 -70.524267 
L 235.598381 -70.62884 
L 237.779304 -70.491737 
L 237.779304 -84.962165 
L 237.779304 -84.962165 
L 235.598381 -85.806703 
L 233.417458 -85.166348 
L 231.236535 -85.430928 
L 229.055613 -87.506162 
L 226.87469 -87.411453 
L 224.693767 -85.941804 
L 222.512844 -82.777774 
L 220.331921 -81.909297 
L 218.150998 -83.472431 
L 215.970075 -82.24125 
L 213.789152 -79.302115 
L 211.60823 -77.790248 
L 209.427307 -78.445592 
L 207.246384 -81.000484 
L 205.065461 -82.730283 
L 202.884538 -83.697988 
L 200.703615 -84.562208 
L 198.522692 -81.121786 
L 196.34177 -77.996374 
L 194.160847 -80.8536 
L 191.979924 -85.701376 
L 189.799001 -88.078585 
L 187.618078 -88.836886 
L 185.437155 -88.713711 
L 183.256232 -88.735609 
L 181.075309 -88.460052 
L 178.894387 -88.569922 
L 176.713464 -86.26992 
L 174.532541 -84.20382 
L 172.351618 -82.609632 
L 170.170695 -80.648362 
L 167.989772 -82.057167 
L 165.808849 -83.329886 
L 163.627927 -84.001093 
L 161.447004 -88.881396 
L 159.266081 -92.061196 
L 157.085158 -89.519987 
L 154.904235 -86.786918 
L 152.723312 -83.076964 
L 150.542389 -80.761494 
L 148.361467 -79.916829 
L 146.180544 -80.431132 
L 143.999621 -79.788761 
L 141.818698 -78.254343 
L 139.637775 -76.594442 
L 137.456852 -75.70252 
L 135.275929 -74.908819 
L 133.095006 -77.807954 
L 130.914084 -77.951526 
L 128.733161 -77.04067 
L 126.552238 -77.42788 
L 124.371315 -77.290593 
L 122.190392 -76.199355 
L 120.009469 -73.721797 
L 117.828546 -71.326363 
L 115.647624 -69.813536 
L 113.466701 -70.355042 
L 111.285778 -73.23432 
L 109.104855 -75.068013 
L 106.923932 -75.616517 
L 104.743009 -76.354903 
L 102.562086 -80.36609 
L 100.381163 -84.078579 
L 98.200241 -83.573606 
L 96.019318 -80.179509 
L 93.838395 -76.63575 
L 91.657472 -74.970665 
L 89.476549 -76.245954 
L 87.295626 -79.262485 
L 85.114703 -78.726278 
L 82.933781 -77.062219 
L 80.752858 -78.891615 
L 78.571935 -82.413475 
L 76.391012 -84.814325 
L 74.210089 -85.931581 
L 72.029166 -84.839819 
L 69.848243 -83.482114 
L 67.667321 -84.782929 
L 65.486398 -85.265699 
L 63.305475 -83.092283 
L 61.124552 -85.270645 
L 58.943629 -86.252165 
L 56.762706 -84.309519 
L 54.581783 -80.747523 
L 52.40086 -79.226709 
L 50.219938 -81.945147 
L 48.039015 -83.963783 
L 45.858092 -83.514929 
z
" style="stroke: #1f77b4; stroke-opacity: 0.15"/>
    </defs>
    <g clip-path="url(#p741f680699)">
     <use xlink:href="#me1a5d4d8d4" x="0" y="215.397188" style="fill: #1f77b4; fill-opacity: 0.15; stroke: #1f77b4; stroke-opacity: 0.15"/>
    </g>
   </g>
   <g id="FillBetweenPolyCollection_2">
    <defs>
     <path id="md16b923393" d="M 45.858092 -72.967272 
L 45.858092 -38.326278 
L 48.039015 -42.043611 
L 50.219938 -47.023491 
L 52.40086 -49.670788 
L 54.581783 -53.191012 
L 56.762706 -61.967409 
L 58.943629 -66.67431 
L 61.124552 -67.020611 
L 63.305475 -64.933524 
L 65.486398 -67.371446 
L 67.667321 -73.026577 
L 69.848243 -82.081133 
L 72.029166 -91.351962 
L 74.210089 -101.282763 
L 76.391012 -109.355026 
L 78.571935 -111.76727 
L 80.752858 -109.553002 
L 82.933781 -103.302116 
L 85.114703 -94.174411 
L 87.295626 -84.177868 
L 89.476549 -76.318165 
L 91.657472 -74.20242 
L 93.838395 -74.842863 
L 96.019318 -73.276305 
L 98.200241 -69.723552 
L 100.381163 -72.749771 
L 102.562086 -77.382708 
L 104.743009 -75.696567 
L 106.923932 -70.035559 
L 109.104855 -70.164326 
L 111.285778 -78.125398 
L 113.466701 -84.599803 
L 115.647624 -84.556246 
L 117.828546 -84.239448 
L 120.009469 -84.519478 
L 122.190392 -87.683466 
L 124.371315 -91.015738 
L 126.552238 -88.543467 
L 128.733161 -83.942863 
L 130.914084 -82.314773 
L 133.095006 -87.648653 
L 135.275929 -91.264709 
L 137.456852 -89.276557 
L 139.637775 -84.744897 
L 141.818698 -80.331283 
L 143.999621 -80.421615 
L 146.180544 -83.544764 
L 148.361467 -84.544638 
L 150.542389 -80.620224 
L 152.723312 -76.203035 
L 154.904235 -72.254522 
L 157.085158 -68.196281 
L 159.266081 -65.633975 
L 161.447004 -66.542283 
L 163.627927 -67.541635 
L 165.808849 -63.671035 
L 167.989772 -55.668667 
L 170.170695 -54.838898 
L 172.351618 -57.565722 
L 174.532541 -58.525399 
L 176.713464 -59.626761 
L 178.894387 -62.137882 
L 181.075309 -63.566306 
L 183.256232 -63.822698 
L 185.437155 -62.559488 
L 187.618078 -58.660988 
L 189.799001 -56.992392 
L 191.979924 -56.598116 
L 194.160847 -53.130706 
L 196.34177 -49.274965 
L 198.522692 -51.062003 
L 200.703615 -58.380031 
L 202.884538 -56.547878 
L 205.065461 -53.100478 
L 207.246384 -52.381138 
L 209.427307 -52.133312 
L 211.60823 -52.326146 
L 213.789152 -55.197866 
L 215.970075 -58.220755 
L 218.150998 -56.258916 
L 220.331921 -56.652917 
L 222.512844 -57.550494 
L 224.693767 -56.367237 
L 226.87469 -60.382535 
L 229.055613 -68.677774 
L 231.236535 -72.898269 
L 233.417458 -74.994959 
L 235.598381 -75.269001 
L 237.779304 -72.644873 
L 237.779304 -100.112632 
L 237.779304 -100.112632 
L 235.598381 -100.470041 
L 233.417458 -103.872552 
L 231.236535 -105.464712 
L 229.055613 -101.012847 
L 226.87469 -90.646361 
L 224.693767 -85.24786 
L 222.512844 -86.832442 
L 220.331921 -83.603991 
L 218.150998 -82.385275 
L 215.970075 -86.701547 
L 213.789152 -84.473315 
L 211.60823 -78.958806 
L 209.427307 -78.131714 
L 207.246384 -77.563454 
L 205.065461 -77.316361 
L 202.884538 -82.643199 
L 200.703615 -87.782843 
L 198.522692 -77.978821 
L 196.34177 -78.276649 
L 194.160847 -84.438207 
L 191.979924 -87.258991 
L 189.799001 -85.370168 
L 187.618078 -86.939106 
L 185.437155 -92.695463 
L 183.256232 -95.194985 
L 181.075309 -93.958409 
L 178.894387 -90.098735 
L 176.713464 -85.820503 
L 174.532541 -87.095734 
L 172.351618 -83.862837 
L 170.170695 -81.190924 
L 167.989772 -83.452582 
L 165.808849 -89.212522 
L 163.627927 -90.953739 
L 161.447004 -88.63075 
L 159.266081 -88.41942 
L 157.085158 -90.73542 
L 154.904235 -95.481106 
L 152.723312 -101.233608 
L 150.542389 -105.051902 
L 148.361467 -106.83523 
L 146.180544 -107.328591 
L 143.999621 -107.970482 
L 141.818698 -109.02695 
L 139.637775 -109.454747 
L 137.456852 -114.771094 
L 135.275929 -116.332691 
L 133.095006 -114.355888 
L 130.914084 -112.503299 
L 128.733161 -117.220885 
L 126.552238 -119.622705 
L 124.371315 -122.23405 
L 122.190392 -118.480585 
L 120.009469 -114.315356 
L 117.828546 -112.606262 
L 115.647624 -110.567042 
L 113.466701 -109.698073 
L 111.285778 -103.387035 
L 109.104855 -96.922293 
L 106.923932 -100.850003 
L 104.743009 -103.80917 
L 102.562086 -104.235684 
L 100.381163 -101.228314 
L 98.200241 -97.634856 
L 96.019318 -99.468208 
L 93.838395 -98.025218 
L 91.657472 -99.280998 
L 89.476549 -103.245488 
L 87.295626 -116.301841 
L 85.114703 -129.583991 
L 82.933781 -139.127472 
L 80.752858 -146.672545 
L 78.571935 -150.508097 
L 76.391012 -145.725913 
L 74.210089 -134.450972 
L 72.029166 -123.43971 
L 69.848243 -112.659666 
L 67.667321 -104.440759 
L 65.486398 -96.931574 
L 63.305475 -90.198908 
L 61.124552 -89.161639 
L 58.943629 -89.667128 
L 56.762706 -86.423142 
L 54.581783 -78.63637 
L 52.40086 -76.077746 
L 50.219938 -74.556167 
L 48.039015 -73.182939 
L 45.858092 -72.967272 
z
" style="stroke: #ff7f0e; stroke-opacity: 0.15"/>
    </defs>
    <g clip-path="url(#p741f680699)">
     <use xlink:href="#md16b923393" x="0" y="215.397188" style="fill: #ff7f0e; fill-opacity: 0.15; stroke: #ff7f0e; stroke-opacity: 0.15"/>
    </g>
   </g>
   <g id="line2d_1">
    <path d="M 36.262031 132.564818 
L 247.375365 132.564818 
" clip-path="url(#p741f680699)" style="fill: none; stroke-dasharray: 2.96,1.28; stroke-dashoffset: 0; stroke: #000000; stroke-width: 0.8"/>
   </g>
   <g id="matplotlib.axis_1">
    <g id="xtick_1">
     <g id="line2d_2">
      <defs>
       <path id="m391bbde4be" d="M 0 0 
L 0 3.5 
" style="stroke: #000000; stroke-width: 0.8"/>
      </defs>
      <g>
       <use xlink:href="#m391bbde4be" x="41.496246" y="182.68" style="stroke: #000000; stroke-width: 0.8"/>
      </g>
     </g>
     <g id="text_1">
      <!-- 0 -->
      <g transform="translate(39.269371 194.998906) scale(0.07 -0.07)">
       <defs>
        <path id="DejaVuSans-30" d="M 2034 4250 
Q 1547 4250 1301 3770 
Q 1056 3291 1056 2328 
Q 1056 1369 1301 889 
Q 1547 409 2034 409 
Q 2525 409 2770 889 
Q 3016 1369 3016 2328 
Q 3016 3291 2770 3770 
Q 2525 4250 2034 4250 
z
M 2034 4750 
Q 2819 4750 3233 4129 
Q 3647 3509 3647 2328 
Q 3647 1150 3233 529 
Q 2819 -91 2034 -91 
Q 1250 -91 836 529 
Q 422 1150 422 2328 
Q 422 3509 836 4129 
Q 1250 4750 2034 4750 
z
" transform="scale(0.015625)"/>
       </defs>
       <use xlink:href="#DejaVuSans-30"/>
      </g>
     </g>
    </g>
    <g id="xtick_2">
     <g id="line2d_3">
      <g>
       <use xlink:href="#m391bbde4be" x="85.114703" y="182.68" style="stroke: #000000; stroke-width: 0.8"/>
      </g>
     </g>
     <g id="text_2">
      <!-- 10 -->
      <g transform="translate(80.660953 194.998906) scale(0.07 -0.07)">
       <defs>
        <path id="DejaVuSans-31" d="M 794 531 
L 1825 531 
L 1825 4091 
L 703 3866 
L 703 4441 
L 1819 4666 
L 2450 4666 
L 2450 531 
L 3481 531 
L 3481 0 
L 794 0 
L 794 531 
z
" transform="scale(0.015625)"/>
       </defs>
       <use xlink:href="#DejaVuSans-31"/>
       <use xlink:href="#DejaVuSans-30" transform="translate(63.623047 0)"/>
      </g>
     </g>
    </g>
    <g id="xtick_3">
     <g id="line2d_4">
      <g>
       <use xlink:href="#m391bbde4be" x="128.733161" y="182.68" style="stroke: #000000; stroke-width: 0.8"/>
      </g>
     </g>
     <g id="text_3">
      <!-- 20 -->
      <g transform="translate(124.279411 194.998906) scale(0.07 -0.07)">
       <defs>
        <path id="DejaVuSans-32" d="M 1228 531 
L 3431 531 
L 3431 0 
L 469 0 
L 469 531 
Q 828 903 1448 1529 
Q 2069 2156 2228 2338 
Q 2531 2678 2651 2914 
Q 2772 3150 2772 3378 
Q 2772 3750 2511 3984 
Q 2250 4219 1831 4219 
Q 1534 4219 1204 4116 
Q 875 4013 500 3803 
L 500 4441 
Q 881 4594 1212 4672 
Q 1544 4750 1819 4750 
Q 2544 4750 2975 4387 
Q 3406 4025 3406 3419 
Q 3406 3131 3298 2873 
Q 3191 2616 2906 2266 
Q 2828 2175 2409 1742 
Q 1991 1309 1228 531 
z
" transform="scale(0.015625)"/>
       </defs>
       <use xlink:href="#DejaVuSans-32"/>
       <use xlink:href="#DejaVuSans-30" transform="translate(63.623047 0)"/>
      </g>
     </g>
    </g>
    <g id="xtick_4">
     <g id="line2d_5">
      <g>
       <use xlink:href="#m391bbde4be" x="172.351618" y="182.68" style="stroke: #000000; stroke-width: 0.8"/>
      </g>
     </g>
     <g id="text_4">
      <!-- 30 -->
      <g transform="translate(167.897868 194.998906) scale(0.07 -0.07)">
       <defs>
        <path id="DejaVuSans-33" d="M 2597 2516 
Q 3050 2419 3304 2112 
Q 3559 1806 3559 1356 
Q 3559 666 3084 287 
Q 2609 -91 1734 -91 
Q 1441 -91 1130 -33 
Q 819 25 488 141 
L 488 750 
Q 750 597 1062 519 
Q 1375 441 1716 441 
Q 2309 441 2620 675 
Q 2931 909 2931 1356 
Q 2931 1769 2642 2001 
Q 2353 2234 1838 2234 
L 1294 2234 
L 1294 2753 
L 1863 2753 
Q 2328 2753 2575 2939 
Q 2822 3125 2822 3475 
Q 2822 3834 2567 4026 
Q 2313 4219 1838 4219 
Q 1578 4219 1281 4162 
Q 984 4106 628 3988 
L 628 4550 
Q 988 4650 1302 4700 
Q 1616 4750 1894 4750 
Q 2613 4750 3031 4423 
Q 3450 4097 3450 3541 
Q 3450 3153 3228 2886 
Q 3006 2619 2597 2516 
z
" transform="scale(0.015625)"/>
       </defs>
       <use xlink:href="#DejaVuSans-33"/>
       <use xlink:href="#DejaVuSans-30" transform="translate(63.623047 0)"/>
      </g>
     </g>
    </g>
    <g id="xtick_5">
     <g id="line2d_6">
      <g>
       <use xlink:href="#m391bbde4be" x="215.970075" y="182.68" style="stroke: #000000; stroke-width: 0.8"/>
      </g>
     </g>
     <g id="text_5">
      <!-- 40 -->
      <g transform="translate(211.516325 194.998906) scale(0.07 -0.07)">
       <defs>
        <path id="DejaVuSans-34" d="M 2419 4116 
L 825 1625 
L 2419 1625 
L 2419 4116 
z
M 2253 4666 
L 3047 4666 
L 3047 1625 
L 3713 1625 
L 3713 1100 
L 3047 1100 
L 3047 0 
L 2419 0 
L 2419 1100 
L 313 1100 
L 313 1709 
L 2253 4666 
z
" transform="scale(0.015625)"/>
       </defs>
       <use xlink:href="#DejaVuSans-34"/>
       <use xlink:href="#DejaVuSans-30" transform="translate(63.623047 0)"/>
      </g>
     </g>
    </g>
    <g id="text_6">
     <!-- Frequency (Hz) -->
     <g transform="translate(111.654948 206.533437) scale(0.08 -0.08)">
      <defs>
       <path id="DejaVuSans-46" d="M 628 4666 
L 3309 4666 
L 3309 4134 
L 1259 4134 
L 1259 2759 
L 3109 2759 
L 3109 2228 
L 1259 2228 
L 1259 0 
L 628 0 
L 628 4666 
z
" transform="scale(0.015625)"/>
       <path id="DejaVuSans-72" d="M 2631 2963 
Q 2534 3019 2420 3045 
Q 2306 3072 2169 3072 
Q 1681 3072 1420 2755 
Q 1159 2438 1159 1844 
L 1159 0 
L 581 0 
L 581 3500 
L 1159 3500 
L 1159 2956 
Q 1341 3275 1631 3429 
Q 1922 3584 2338 3584 
Q 2397 3584 2469 3576 
Q 2541 3569 2628 3553 
L 2631 2963 
z
" transform="scale(0.015625)"/>
       <path id="DejaVuSans-65" d="M 3597 1894 
L 3597 1613 
L 953 1613 
Q 991 1019 1311 708 
Q 1631 397 2203 397 
Q 2534 397 2845 478 
Q 3156 559 3463 722 
L 3463 178 
Q 3153 47 2828 -22 
Q 2503 -91 2169 -91 
Q 1331 -91 842 396 
Q 353 884 353 1716 
Q 353 2575 817 3079 
Q 1281 3584 2069 3584 
Q 2775 3584 3186 3129 
Q 3597 2675 3597 1894 
z
M 3022 2063 
Q 3016 2534 2758 2815 
Q 2500 3097 2075 3097 
Q 1594 3097 1305 2825 
Q 1016 2553 972 2059 
L 3022 2063 
z
" transform="scale(0.015625)"/>
       <path id="DejaVuSans-71" d="M 947 1747 
Q 947 1113 1208 752 
Q 1469 391 1925 391 
Q 2381 391 2643 752 
Q 2906 1113 2906 1747 
Q 2906 2381 2643 2742 
Q 2381 3103 1925 3103 
Q 1469 3103 1208 2742 
Q 947 2381 947 1747 
z
M 2906 525 
Q 2725 213 2448 61 
Q 2172 -91 1784 -91 
Q 1150 -91 751 415 
Q 353 922 353 1747 
Q 353 2572 751 3078 
Q 1150 3584 1784 3584 
Q 2172 3584 2448 3432 
Q 2725 3281 2906 2969 
L 2906 3500 
L 3481 3500 
L 3481 -1331 
L 2906 -1331 
L 2906 525 
z
" transform="scale(0.015625)"/>
       <path id="DejaVuSans-75" d="M 544 1381 
L 544 3500 
L 1119 3500 
L 1119 1403 
Q 1119 906 1312 657 
Q 1506 409 1894 409 
Q 2359 409 2629 706 
Q 2900 1003 2900 1516 
L 2900 3500 
L 3475 3500 
L 3475 0 
L 2900 0 
L 2900 538 
Q 2691 219 2414 64 
Q 2138 -91 1772 -91 
Q 1169 -91 856 284 
Q 544 659 544 1381 
z
M 1991 3584 
L 1991 3584 
z
" transform="scale(0.015625)"/>
       <path id="DejaVuSans-6e" d="M 3513 2113 
L 3513 0 
L 2938 0 
L 2938 2094 
Q 2938 2591 2744 2837 
Q 2550 3084 2163 3084 
Q 1697 3084 1428 2787 
Q 1159 2491 1159 1978 
L 1159 0 
L 581 0 
L 581 3500 
L 1159 3500 
L 1159 2956 
Q 1366 3272 1645 3428 
Q 1925 3584 2291 3584 
Q 2894 3584 3203 3211 
Q 3513 2838 3513 2113 
z
" transform="scale(0.015625)"/>
       <path id="DejaVuSans-63" d="M 3122 3366 
L 3122 2828 
Q 2878 2963 2633 3030 
Q 2388 3097 2138 3097 
Q 1578 3097 1268 2742 
Q 959 2388 959 1747 
Q 959 1106 1268 751 
Q 1578 397 2138 397 
Q 2388 397 2633 464 
Q 2878 531 3122 666 
L 3122 134 
Q 2881 22 2623 -34 
Q 2366 -91 2075 -91 
Q 1284 -91 818 406 
Q 353 903 353 1747 
Q 353 2603 823 3093 
Q 1294 3584 2113 3584 
Q 2378 3584 2631 3529 
Q 2884 3475 3122 3366 
z
" transform="scale(0.015625)"/>
       <path id="DejaVuSans-79" d="M 2059 -325 
Q 1816 -950 1584 -1140 
Q 1353 -1331 966 -1331 
L 506 -1331 
L 506 -850 
L 844 -850 
Q 1081 -850 1212 -737 
Q 1344 -625 1503 -206 
L 1606 56 
L 191 3500 
L 800 3500 
L 1894 763 
L 2988 3500 
L 3597 3500 
L 2059 -325 
z
" transform="scale(0.015625)"/>
       <path id="DejaVuSans-20" transform="scale(0.015625)"/>
       <path id="DejaVuSans-28" d="M 1984 4856 
Q 1566 4138 1362 3434 
Q 1159 2731 1159 2009 
Q 1159 1288 1364 580 
Q 1569 -128 1984 -844 
L 1484 -844 
Q 1016 -109 783 600 
Q 550 1309 550 2009 
Q 550 2706 781 3412 
Q 1013 4119 1484 4856 
L 1984 4856 
z
" transform="scale(0.015625)"/>
       <path id="DejaVuSans-48" d="M 628 4666 
L 1259 4666 
L 1259 2753 
L 3553 2753 
L 3553 4666 
L 4184 4666 
L 4184 0 
L 3553 0 
L 3553 2222 
L 1259 2222 
L 1259 0 
L 628 0 
L 628 4666 
z
" transform="scale(0.015625)"/>
       <path id="DejaVuSans-7a" d="M 353 3500 
L 3084 3500 
L 3084 2975 
L 922 459 
L 3084 459 
L 3084 0 
L 275 0 
L 275 525 
L 2438 3041 
L 353 3041 
L 353 3500 
z
" transform="scale(0.015625)"/>
       <path id="DejaVuSans-29" d="M 513 4856 
L 1013 4856 
Q 1481 4119 1714 3412 
Q 1947 2706 1947 2009 
Q 1947 1309 1714 600 
Q 1481 -109 1013 -844 
L 513 -844 
Q 928 -128 1133 580 
Q 1338 1288 1338 2009 
Q 1338 2731 1133 3434 
Q 928 4138 513 4856 
z
" transform="scale(0.015625)"/>
      </defs>
      <use xlink:href="#DejaVuSans-46"/>
      <use xlink:href="#DejaVuSans-72" transform="translate(50.269531 0)"/>
      <use xlink:href="#DejaVuSans-65" transform="translate(89.132812 0)"/>
      <use xlink:href="#DejaVuSans-71" transform="translate(150.65625 0)"/>
      <use xlink:href="#DejaVuSans-75" transform="translate(214.132812 0)"/>
      <use xlink:href="#DejaVuSans-65" transform="translate(277.511719 0)"/>
      <use xlink:href="#DejaVuSans-6e" transform="translate(339.035156 0)"/>
      <use xlink:href="#DejaVuSans-63" transform="translate(402.414062 0)"/>
      <use xlink:href="#DejaVuSans-79" transform="translate(457.394531 0)"/>
      <use xlink:href="#DejaVuSans-20" transform="translate(516.574219 0)"/>
      <use xlink:href="#DejaVuSans-28" transform="translate(548.361328 0)"/>
      <use xlink:href="#DejaVuSans-48" transform="translate(587.375 0)"/>
      <use xlink:href="#DejaVuSans-7a" transform="translate(662.570312 0)"/>
      <use xlink:href="#DejaVuSans-29" transform="translate(715.060547 0)"/>
     </g>
    </g>
   </g>
   <g id="matplotlib.axis_2">
    <g id="ytick_1">
     <g id="line2d_7">
      <defs>
       <path id="mc5fe1782b8" d="M 0 0 
L -3.5 0 
" style="stroke: #000000; stroke-width: 0.8"/>
      </defs>
      <g>
       <use xlink:href="#mc5fe1782b8" x="36.262031" y="158.190714" style="stroke: #000000; stroke-width: 0.8"/>
      </g>
     </g>
     <g id="text_7">
      <!-- −2 -->
      <g transform="translate(18.9425 160.850167) scale(0.07 -0.07)">
       <defs>
        <path id="DejaVuSans-2212" d="M 678 2272 
L 4684 2272 
L 4684 1741 
L 678 1741 
L 678 2272 
z
" transform="scale(0.015625)"/>
       </defs>
       <use xlink:href="#DejaVuSans-2212"/>
       <use xlink:href="#DejaVuSans-32" transform="translate(83.789062 0)"/>
      </g>
     </g>
    </g>
    <g id="ytick_2">
     <g id="line2d_8">
      <g>
       <use xlink:href="#mc5fe1782b8" x="36.262031" y="132.564818" style="stroke: #000000; stroke-width: 0.8"/>
      </g>
     </g>
     <g id="text_8">
      <!-- 0 -->
      <g transform="translate(24.808281 135.224271) scale(0.07 -0.07)">
       <use xlink:href="#DejaVuSans-30"/>
      </g>
     </g>
    </g>
    <g id="ytick_3">
     <g id="line2d_9">
      <g>
       <use xlink:href="#mc5fe1782b8" x="36.262031" y="106.938923" style="stroke: #000000; stroke-width: 0.8"/>
      </g>
     </g>
     <g id="text_9">
      <!-- 2 -->
      <g transform="translate(24.808281 109.598376) scale(0.07 -0.07)">
       <use xlink:href="#DejaVuSans-32"/>
      </g>
     </g>
    </g>
    <g id="ytick_4">
     <g id="line2d_10">
      <g>
       <use xlink:href="#mc5fe1782b8" x="36.262031" y="81.313027" style="stroke: #000000; stroke-width: 0.8"/>
      </g>
     </g>
     <g id="text_10">
      <!-- 4 -->
      <g transform="translate(24.808281 83.97248) scale(0.07 -0.07)">
       <use xlink:href="#DejaVuSans-34"/>
      </g>
     </g>
    </g>
    <g id="text_11">
     <!-- ERD/ERS (dB) -->
     <g transform="translate(13.27875 148.236875) rotate(-90) scale(0.08 -0.08)">
      <defs>
       <path id="DejaVuSans-45" d="M 628 4666 
L 3578 4666 
L 3578 4134 
L 1259 4134 
L 1259 2753 
L 3481 2753 
L 3481 2222 
L 1259 2222 
L 1259 531 
L 3634 531 
L 3634 0 
L 628 0 
L 628 4666 
z
" transform="scale(0.015625)"/>
       <path id="DejaVuSans-52" d="M 2841 2188 
Q 3044 2119 3236 1894 
Q 3428 1669 3622 1275 
L 4263 0 
L 3584 0 
L 2988 1197 
Q 2756 1666 2539 1819 
Q 2322 1972 1947 1972 
L 1259 1972 
L 1259 0 
L 628 0 
L 628 4666 
L 2053 4666 
Q 2853 4666 3247 4331 
Q 3641 3997 3641 3322 
Q 3641 2881 3436 2590 
Q 3231 2300 2841 2188 
z
M 1259 4147 
L 1259 2491 
L 2053 2491 
Q 2509 2491 2742 2702 
Q 2975 2913 2975 3322 
Q 2975 3731 2742 3939 
Q 2509 4147 2053 4147 
L 1259 4147 
z
" transform="scale(0.015625)"/>
       <path id="DejaVuSans-44" d="M 1259 4147 
L 1259 519 
L 2022 519 
Q 2988 519 3436 956 
Q 3884 1394 3884 2338 
Q 3884 3275 3436 3711 
Q 2988 4147 2022 4147 
L 1259 4147 
z
M 628 4666 
L 1925 4666 
Q 3281 4666 3915 4102 
Q 4550 3538 4550 2338 
Q 4550 1131 3912 565 
Q 3275 0 1925 0 
L 628 0 
L 628 4666 
z
" transform="scale(0.015625)"/>
       <path id="DejaVuSans-2f" d="M 1625 4666 
L 2156 4666 
L 531 -594 
L 0 -594 
L 1625 4666 
z
" transform="scale(0.015625)"/>
       <path id="DejaVuSans-53" d="M 3425 4513 
L 3425 3897 
Q 3066 4069 2747 4153 
Q 2428 4238 2131 4238 
Q 1616 4238 1336 4038 
Q 1056 3838 1056 3469 
Q 1056 3159 1242 3001 
Q 1428 2844 1947 2747 
L 2328 2669 
Q 3034 2534 3370 2195 
Q 3706 1856 3706 1288 
Q 3706 609 3251 259 
Q 2797 -91 1919 -91 
Q 1588 -91 1214 -16 
Q 841 59 441 206 
L 441 856 
Q 825 641 1194 531 
Q 1563 422 1919 422 
Q 2459 422 2753 634 
Q 3047 847 3047 1241 
Q 3047 1584 2836 1778 
Q 2625 1972 2144 2069 
L 1759 2144 
Q 1053 2284 737 2584 
Q 422 2884 422 3419 
Q 422 4038 858 4394 
Q 1294 4750 2059 4750 
Q 2388 4750 2728 4690 
Q 3069 4631 3425 4513 
z
" transform="scale(0.015625)"/>
       <path id="DejaVuSans-64" d="M 2906 2969 
L 2906 4863 
L 3481 4863 
L 3481 0 
L 2906 0 
L 2906 525 
Q 2725 213 2448 61 
Q 2172 -91 1784 -91 
Q 1150 -91 751 415 
Q 353 922 353 1747 
Q 353 2572 751 3078 
Q 1150 3584 1784 3584 
Q 2172 3584 2448 3432 
Q 2725 3281 2906 2969 
z
M 947 1747 
Q 947 1113 1208 752 
Q 1469 391 1925 391 
Q 2381 391 2643 752 
Q 2906 1113 2906 1747 
Q 2906 2381 2643 2742 
Q 2381 3103 1925 3103 
Q 1469 3103 1208 2742 
Q 947 2381 947 1747 
z
" transform="scale(0.015625)"/>
       <path id="DejaVuSans-42" d="M 1259 2228 
L 1259 519 
L 2272 519 
Q 2781 519 3026 730 
Q 3272 941 3272 1375 
Q 3272 1813 3026 2020 
Q 2781 2228 2272 2228 
L 1259 2228 
z
M 1259 4147 
L 1259 2741 
L 2194 2741 
Q 2656 2741 2882 2914 
Q 3109 3088 3109 3444 
Q 3109 3797 2882 3972 
Q 2656 4147 2194 4147 
L 1259 4147 
z
M 628 4666 
L 2241 4666 
Q 2963 4666 3353 4366 
Q 3744 4066 3744 3513 
Q 3744 3084 3544 2831 
Q 3344 2578 2956 2516 
Q 3422 2416 3680 2098 
Q 3938 1781 3938 1306 
Q 3938 681 3513 340 
Q 3088 0 2303 0 
L 628 0 
L 628 4666 
z
" transform="scale(0.015625)"/>
      </defs>
      <use xlink:href="#DejaVuSans-45"/>
      <use xlink:href="#DejaVuSans-52" transform="translate(63.183594 0)"/>
      <use xlink:href="#DejaVuSans-44" transform="translate(132.666016 0)"/>
      <use xlink:href="#DejaVuSans-2f" transform="translate(209.667969 0)"/>
      <use xlink:href="#DejaVuSans-45" transform="translate(243.359375 0)"/>
      <use xlink:href="#DejaVuSans-52" transform="translate(306.542969 0)"/>
      <use xlink:href="#DejaVuSans-53" transform="translate(376.025391 0)"/>
      <use xlink:href="#DejaVuSans-20" transform="translate(439.501953 0)"/>
      <use xlink:href="#DejaVuSans-28" transform="translate(471.289062 0)"/>
      <use xlink:href="#DejaVuSans-64" transform="translate(510.302734 0)"/>
      <use xlink:href="#DejaVuSans-42" transform="translate(573.779297 0)"/>
      <use xlink:href="#DejaVuSans-29" transform="translate(642.382812 0)"/>
     </g>
    </g>
   </g>
   <g id="line2d_11">
    <path d="M 45.858092 138.824881 
L 48.039015 137.851378 
L 50.219938 140.089981 
L 52.40086 143.081 
L 54.581783 141.226396 
L 56.762706 137.389424 
L 58.943629 135.513163 
L 61.124552 136.312616 
L 63.305475 137.987783 
L 65.486398 136.279914 
L 67.667321 137.050814 
L 69.848243 138.140546 
L 72.029166 137.137924 
L 74.210089 136.519413 
L 76.391012 137.687734 
L 78.571935 140.331435 
L 80.752858 144.265047 
L 82.933781 146.327929 
L 85.114703 144.698749 
L 87.295626 144.333758 
L 89.476549 147.085914 
L 91.657472 147.715859 
L 93.838395 145.90944 
L 96.019318 142.485045 
L 98.200241 138.932408 
L 100.381163 137.793753 
L 102.562086 141.296528 
L 104.743009 145.176088 
L 106.923932 146.126708 
L 109.104855 146.947932 
L 111.285778 149.248037 
L 113.466701 152.256563 
L 115.647624 152.494044 
L 117.828546 151.53997 
L 120.009469 149.705045 
L 122.190392 147.081678 
L 124.371315 145.554237 
L 126.552238 144.899094 
L 128.733161 145.158247 
L 130.914084 144.432497 
L 133.095006 144.536722 
L 135.275929 147.412802 
L 137.456852 146.932855 
L 139.637775 145.752032 
L 141.818698 144.005768 
L 143.999621 142.490198 
L 146.180544 141.795323 
L 148.361467 142.386584 
L 150.542389 142.046442 
L 152.723312 139.940163 
L 154.904235 136.117371 
L 157.085158 133.342363 
L 159.266081 130.93332 
L 161.447004 133.907648 
L 163.627927 138.213184 
L 165.808849 138.895657 
L 167.989772 140.120806 
L 170.170695 141.30594 
L 172.351618 139.462469 
L 174.532541 138.016058 
L 176.713464 135.894678 
L 178.894387 133.587651 
L 181.075309 133.718968 
L 183.256232 133.731532 
L 185.437155 133.50542 
L 187.618078 133.161468 
L 189.799001 133.864959 
L 191.979924 136.440058 
L 194.160847 141.400095 
L 196.34177 144.365846 
L 198.522692 141.482121 
L 200.703615 138.512919 
L 202.884538 139.295037 
L 205.065461 139.984537 
L 207.246384 141.482918 
L 209.427307 143.856689 
L 211.60823 144.456952 
L 213.789152 143.081881 
L 215.970075 140.431764 
L 218.150998 139.605746 
L 220.331921 140.839005 
L 222.512844 139.689577 
L 224.693767 136.673926 
L 226.87469 135.147649 
L 229.055613 135.284841 
L 231.236535 137.090426 
L 233.417458 137.55188 
L 235.598381 137.179416 
L 237.779304 137.670236 
" clip-path="url(#p741f680699)" style="fill: none; stroke: #1f77b4; stroke-width: 1.3; stroke-linecap: square"/>
   </g>
   <g id="line2d_12">
    <path d="M 45.858092 159.750412 
L 48.039015 157.783912 
L 50.219938 154.607359 
L 52.40086 152.522921 
L 54.581783 149.483496 
L 56.762706 141.201912 
L 58.943629 137.226469 
L 61.124552 137.306063 
L 63.305475 137.830972 
L 65.486398 133.245678 
L 67.667321 126.663519 
L 69.848243 118.026788 
L 72.029166 108.001352 
L 74.210089 97.53032 
L 76.391012 87.856718 
L 78.571935 84.259504 
L 80.752858 87.284414 
L 82.933781 94.182394 
L 85.114703 103.517986 
L 87.295626 115.157333 
L 89.476549 125.615361 
L 91.657472 128.655478 
L 93.838395 128.963147 
L 96.019318 129.024931 
L 98.200241 131.717984 
L 100.381163 128.408145 
L 102.562086 124.587991 
L 104.743009 125.644319 
L 106.923932 129.954406 
L 109.104855 131.853878 
L 111.285778 124.640971 
L 113.466701 118.248249 
L 115.647624 117.835544 
L 117.828546 116.974333 
L 120.009469 115.979771 
L 122.190392 112.315162 
L 124.371315 108.772293 
L 126.552238 111.314102 
L 128.733161 114.815313 
L 130.914084 117.988152 
L 133.095006 114.394917 
L 135.275929 111.598487 
L 137.456852 113.373362 
L 139.637775 118.297365 
L 141.818698 120.718071 
L 143.999621 121.201139 
L 146.180544 119.96051 
L 148.361467 119.707254 
L 150.542389 122.561124 
L 152.723312 126.678866 
L 154.904235 131.529374 
L 157.085158 135.931337 
L 159.266081 138.37049 
L 161.447004 137.810671 
L 163.627927 136.149501 
L 165.808849 138.955409 
L 167.989772 145.836563 
L 170.170695 147.382276 
L 172.351618 144.682908 
L 174.532541 142.586621 
L 176.713464 142.673556 
L 178.894387 139.278879 
L 181.075309 136.63483 
L 183.256232 135.888346 
L 185.437155 137.769712 
L 187.618078 142.597141 
L 189.799001 144.215907 
L 191.979924 143.468634 
L 194.160847 146.612731 
L 196.34177 151.621381 
L 198.522692 150.876776 
L 200.703615 142.31575 
L 202.884538 145.801649 
L 205.065461 150.188768 
L 207.246384 150.424891 
L 209.427307 150.264675 
L 211.60823 149.754712 
L 213.789152 145.561597 
L 215.970075 142.936037 
L 218.150998 146.075092 
L 220.331921 145.268733 
L 222.512844 143.205719 
L 224.693767 144.589639 
L 226.87469 139.88274 
L 229.055613 130.551877 
L 231.236535 126.215697 
L 233.417458 125.963432 
L 235.598381 127.527667 
L 237.779304 129.018435 
" clip-path="url(#p741f680699)" style="fill: none; stroke: #ff7f0e; stroke-width: 1.3; stroke-linecap: square"/>
   </g>
   <g id="patch_5">
    <path d="M 36.262031 182.68 
L 36.262031 59.28 
" style="fill: none; stroke: #000000; stroke-width: 0.8; stroke-linejoin: miter; stroke-linecap: square"/>
   </g>
   <g id="patch_6">
    <path d="M 247.375365 182.68 
L 247.375365 59.28 
" style="fill: none; stroke: #000000; stroke-width: 0.8; stroke-linejoin: miter; stroke-linecap: square"/>
   </g>
   <g id="patch_7">
    <path d="M 36.262031 182.68 
L 247.375365 182.68 
" style="fill: none; stroke: #000000; stroke-width: 0.8; stroke-linejoin: miter; stroke-linecap: square"/>
   </g>
   <g id="patch_8">
    <path d="M 36.262031 59.28 
L 247.375365 59.28 
" style="fill: none; stroke: #000000; stroke-width: 0.8; stroke-linejoin: miter; stroke-linecap: square"/>
   </g>
   <g id="text_12">
    <!-- C3 -->
    <g transform="translate(135.813307 53.28) scale(0.09 -0.09)">
     <defs>
      <path id="DejaVuSans-43" d="M 4122 4306 
L 4122 3641 
Q 3803 3938 3442 4084 
Q 3081 4231 2675 4231 
Q 1875 4231 1450 3742 
Q 1025 3253 1025 2328 
Q 1025 1406 1450 917 
Q 1875 428 2675 428 
Q 3081 428 3442 575 
Q 3803 722 4122 1019 
L 4122 359 
Q 3791 134 3420 21 
Q 3050 -91 2638 -91 
Q 1578 -91 968 557 
Q 359 1206 359 2328 
Q 359 3453 968 4101 
Q 1578 4750 2638 4750 
Q 3056 4750 3426 4639 
Q 3797 4528 4122 4306 
z
" transform="scale(0.015625)"/>
     </defs>
     <use xlink:href="#DejaVuSans-43"/>
     <use xlink:href="#DejaVuSans-33" transform="translate(69.824219 0)"/>
    </g>
   </g>
  </g>
  <g id="axes_2">
   <g id="patch_9">
    <path d="M 272.875365 182.68 
L 483.988698 182.68 
L 483.988698 59.28 
L 272.875365 59.28 
L 272.875365 182.68 
z
" style="fill: none"/>
   </g>
   <g id="patch_10">
    <path d="M 313.004345 182.68 
L 334.813574 182.68 
L 334.813574 59.28 
L 313.004345 59.28 
z
" clip-path="url(#p76512c6b0f)" style="fill: #d9d9d9; stroke: #d9d9d9; stroke-linejoin: miter"/>
   </g>
   <g id="patch_11">
    <path d="M 334.813574 182.68 
L 408.964951 182.68 
L 408.964951 59.28 
L 334.813574 59.28 
z
" clip-path="url(#p76512c6b0f)" style="fill: #ebebeb; stroke: #ebebeb; stroke-linejoin: miter"/>
   </g>
   <g id="FillBetweenPolyCollection_3">
    <defs>
     <path id="m592ba491d0" d="M 282.471425 -87.523111 
L 282.471425 -73.714555 
L 284.652348 -76.369758 
L 286.833271 -77.610929 
L 289.014194 -73.208144 
L 291.195117 -66.689371 
L 293.37604 -63.963069 
L 295.556962 -63.564134 
L 297.737885 -63.591117 
L 299.918808 -63.794974 
L 302.099731 -65.350541 
L 304.280654 -66.751495 
L 306.461577 -68.28476 
L 308.6425 -71.31352 
L 310.823422 -75.906496 
L 313.004345 -79.61174 
L 315.185268 -80.803758 
L 317.366191 -77.566986 
L 319.547114 -73.691252 
L 321.728037 -72.299984 
L 323.90896 -71.000695 
L 326.089882 -68.791867 
L 328.270805 -67.896547 
L 330.451728 -69.785402 
L 332.632651 -72.93016 
L 334.813574 -73.631398 
L 336.994497 -72.940684 
L 339.17542 -74.193009 
L 341.356343 -76.854161 
L 343.537265 -75.280068 
L 345.718188 -73.69846 
L 347.899111 -72.343263 
L 350.080034 -71.859812 
L 352.260957 -74.020682 
L 354.44188 -77.73369 
L 356.622803 -77.813496 
L 358.803725 -75.308533 
L 360.984648 -74.053339 
L 363.165571 -73.16641 
L 365.346494 -71.922622 
L 367.527417 -71.922894 
L 369.70834 -73.169576 
L 371.889263 -73.411083 
L 374.070186 -73.241652 
L 376.251108 -73.304243 
L 378.432031 -75.498715 
L 380.612954 -78.458508 
L 382.793877 -79.568738 
L 384.9748 -79.560942 
L 387.155723 -79.230818 
L 389.336646 -79.156399 
L 391.517568 -78.849064 
L 393.698491 -81.857548 
L 395.879414 -84.312036 
L 398.060337 -85.036174 
L 400.24126 -82.504185 
L 402.422183 -76.580193 
L 404.603106 -72.604694 
L 406.784028 -70.242006 
L 408.964951 -69.714747 
L 411.145874 -71.021047 
L 413.326797 -73.670804 
L 415.50772 -74.76463 
L 417.688643 -72.851082 
L 419.869566 -69.370402 
L 422.050489 -67.437598 
L 424.231411 -70.102435 
L 426.412334 -72.527187 
L 428.593257 -71.042681 
L 430.77418 -68.657344 
L 432.955103 -69.258683 
L 435.136026 -69.834311 
L 437.316949 -69.57271 
L 439.497871 -69.301313 
L 441.678794 -70.259287 
L 443.859717 -68.939909 
L 446.04064 -67.835596 
L 448.221563 -67.810739 
L 450.402486 -66.936542 
L 452.583409 -65.168101 
L 454.764332 -65.757972 
L 456.945254 -65.8982 
L 459.126177 -63.678129 
L 461.3071 -61.205217 
L 463.488023 -62.253375 
L 465.668946 -63.372464 
L 467.849869 -63.439746 
L 470.030792 -62.68326 
L 472.211714 -62.045793 
L 474.392637 -60.909487 
L 474.392637 -73.470274 
L 474.392637 -73.470274 
L 472.211714 -74.340675 
L 470.030792 -75.554717 
L 467.849869 -76.673431 
L 465.668946 -75.390474 
L 463.488023 -74.462656 
L 461.3071 -72.926928 
L 459.126177 -75.644612 
L 456.945254 -77.980035 
L 454.764332 -78.493557 
L 452.583409 -78.722546 
L 450.402486 -80.351702 
L 448.221563 -80.729173 
L 446.04064 -79.776236 
L 443.859717 -80.3035 
L 441.678794 -81.864327 
L 439.497871 -80.792621 
L 437.316949 -81.349098 
L 435.136026 -82.056114 
L 432.955103 -81.21429 
L 430.77418 -79.858967 
L 428.593257 -81.686938 
L 426.412334 -84.455167 
L 424.231411 -81.576355 
L 422.050489 -77.985148 
L 419.869566 -79.706767 
L 417.688643 -84.052249 
L 415.50772 -86.18983 
L 413.326797 -84.381139 
L 411.145874 -81.986364 
L 408.964951 -80.410915 
L 406.784028 -80.909368 
L 404.603106 -83.953499 
L 402.422183 -88.574869 
L 400.24126 -94.71037 
L 398.060337 -97.48678 
L 395.879414 -97.085765 
L 393.698491 -94.829942 
L 391.517568 -91.986414 
L 389.336646 -92.432888 
L 387.155723 -92.457915 
L 384.9748 -93.28867 
L 382.793877 -93.206425 
L 380.612954 -92.418659 
L 378.432031 -89.452673 
L 376.251108 -87.045509 
L 374.070186 -86.619423 
L 371.889263 -86.556191 
L 369.70834 -86.495071 
L 367.527417 -84.596492 
L 365.346494 -84.072159 
L 363.165571 -85.544126 
L 360.984648 -86.460003 
L 358.803725 -87.529729 
L 356.622803 -90.239017 
L 354.44188 -90.014109 
L 352.260957 -86.314719 
L 350.080034 -84.492802 
L 347.899111 -85.23914 
L 345.718188 -86.940507 
L 343.537265 -89.10301 
L 341.356343 -91.05 
L 339.17542 -87.405343 
L 336.994497 -85.657543 
L 334.813574 -86.476465 
L 332.632651 -86.57941 
L 330.451728 -83.401099 
L 328.270805 -81.850612 
L 326.089882 -82.686733 
L 323.90896 -84.397163 
L 321.728037 -85.556173 
L 319.547114 -86.728964 
L 317.366191 -91.222168 
L 315.185268 -94.775946 
L 313.004345 -93.433266 
L 310.823422 -89.822149 
L 308.6425 -84.541377 
L 306.461577 -80.806542 
L 304.280654 -79.236278 
L 302.099731 -77.95769 
L 299.918808 -76.365199 
L 297.737885 -75.477198 
L 295.556962 -75.227644 
L 293.37604 -76.472949 
L 291.195117 -79.61583 
L 289.014194 -86.295097 
L 286.833271 -90.543313 
L 284.652348 -89.33069 
L 282.471425 -87.523111 
z
" style="stroke: #1f77b4; stroke-opacity: 0.15"/>
    </defs>
    <g clip-path="url(#p76512c6b0f)">
     <use xlink:href="#m592ba491d0" x="0" y="215.397188" style="fill: #1f77b4; fill-opacity: 0.15; stroke: #1f77b4; stroke-opacity: 0.15"/>
    </g>
   </g>
   <g id="FillBetweenPolyCollection_4">
    <defs>
     <path id="m9fc5abbc31" d="M 282.471425 -93.45153 
L 282.471425 -66.547305 
L 284.652348 -68.368252 
L 286.833271 -70.012135 
L 289.014194 -71.652648 
L 291.195117 -67.091686 
L 293.37604 -62.007797 
L 295.556962 -59.928853 
L 297.737885 -59.656703 
L 299.918808 -61.152025 
L 302.099731 -66.821245 
L 304.280654 -74.875904 
L 306.461577 -81.662198 
L 308.6425 -89.114151 
L 310.823422 -97.817606 
L 313.004345 -107.193845 
L 315.185268 -106.395874 
L 317.366191 -98.28593 
L 319.547114 -88.710734 
L 321.728037 -78.651543 
L 323.90896 -75.350697 
L 326.089882 -72.864391 
L 328.270805 -68.834301 
L 330.451728 -67.558428 
L 332.632651 -70.855693 
L 334.813574 -73.81649 
L 336.994497 -76.781337 
L 339.17542 -77.965118 
L 341.356343 -76.150387 
L 343.537265 -76.982253 
L 345.718188 -76.418581 
L 347.899111 -74.590117 
L 350.080034 -79.379171 
L 352.260957 -83.338673 
L 354.44188 -84.38436 
L 356.622803 -85.838858 
L 358.803725 -89.353557 
L 360.984648 -87.980077 
L 363.165571 -83.81843 
L 365.346494 -82.356626 
L 367.527417 -84.656092 
L 369.70834 -91.634087 
L 371.889263 -92.933314 
L 374.070186 -89.370649 
L 376.251108 -87.250038 
L 378.432031 -92.896588 
L 380.612954 -99.212307 
L 382.793877 -98.664004 
L 384.9748 -93.31198 
L 387.155723 -86.305849 
L 389.336646 -79.549387 
L 391.517568 -79.000495 
L 393.698491 -83.396801 
L 395.879414 -88.347287 
L 398.060337 -91.045193 
L 400.24126 -91.047904 
L 402.422183 -83.572193 
L 404.603106 -70.552221 
L 406.784028 -61.281784 
L 408.964951 -57.896091 
L 411.145874 -62.62226 
L 413.326797 -68.035561 
L 415.50772 -66.159289 
L 417.688643 -65.652172 
L 419.869566 -69.898225 
L 422.050489 -71.969921 
L 424.231411 -67.155758 
L 426.412334 -60.997831 
L 428.593257 -55.938158 
L 430.77418 -52.848139 
L 432.955103 -57.115121 
L 435.136026 -63.61986 
L 437.316949 -68.531597 
L 439.497871 -65.86733 
L 441.678794 -59.406765 
L 443.859717 -56.147424 
L 446.04064 -56.081049 
L 448.221563 -55.861363 
L 450.402486 -55.748779 
L 452.583409 -53.718407 
L 454.764332 -51.659621 
L 456.945254 -52.252198 
L 459.126177 -51.452618 
L 461.3071 -50.887738 
L 463.488023 -51.421595 
L 465.668946 -53.590141 
L 467.849869 -60.795796 
L 470.030792 -63.47319 
L 472.211714 -58.431013 
L 474.392637 -54.762966 
L 474.392637 -79.604136 
L 474.392637 -79.604136 
L 472.211714 -82.303431 
L 470.030792 -86.30783 
L 467.849869 -84.510829 
L 465.668946 -81.449792 
L 463.488023 -80.205791 
L 461.3071 -78.107218 
L 459.126177 -76.914685 
L 456.945254 -81.041378 
L 454.764332 -80.703977 
L 452.583409 -80.703563 
L 450.402486 -80.623771 
L 448.221563 -79.451154 
L 446.04064 -78.160847 
L 443.859717 -76.707663 
L 441.678794 -79.279756 
L 439.497871 -88.741544 
L 437.316949 -89.243457 
L 435.136026 -86.275639 
L 432.955103 -79.267544 
L 430.77418 -76.864667 
L 428.593257 -82.044715 
L 426.412334 -87.305672 
L 424.231411 -89.450752 
L 422.050489 -91.985874 
L 419.869566 -89.735932 
L 417.688643 -86.923494 
L 415.50772 -88.643006 
L 413.326797 -88.746341 
L 411.145874 -84.245018 
L 408.964951 -82.59924 
L 406.784028 -87.102795 
L 404.603106 -94.538259 
L 402.422183 -106.553728 
L 400.24126 -114.248895 
L 398.060337 -116.945267 
L 395.879414 -113.215866 
L 393.698491 -106.078903 
L 391.517568 -104.733265 
L 389.336646 -107.206679 
L 387.155723 -113.305287 
L 384.9748 -119.155357 
L 382.793877 -122.406078 
L 380.612954 -124.199281 
L 378.432031 -119.059037 
L 376.251108 -114.443292 
L 374.070186 -119.235016 
L 371.889263 -122.613346 
L 369.70834 -120.562121 
L 367.527417 -115.38444 
L 365.346494 -110.131069 
L 363.165571 -109.121879 
L 360.984648 -112.2316 
L 358.803725 -114.594053 
L 356.622803 -114.524764 
L 354.44188 -112.968712 
L 352.260957 -107.091953 
L 350.080034 -104.126048 
L 347.899111 -102.154462 
L 345.718188 -103.54769 
L 343.537265 -103.308106 
L 341.356343 -102.255155 
L 339.17542 -103.686196 
L 336.994497 -102.798275 
L 334.813574 -99.885534 
L 332.632651 -98.288719 
L 330.451728 -96.856488 
L 328.270805 -98.799796 
L 326.089882 -103.014985 
L 323.90896 -104.468899 
L 321.728037 -107.115421 
L 319.547114 -115.257241 
L 317.366191 -120.938303 
L 315.185268 -126.29079 
L 313.004345 -130.705582 
L 310.823422 -123.442767 
L 308.6425 -113.396427 
L 306.461577 -105.349258 
L 304.280654 -97.312137 
L 302.099731 -90.884298 
L 299.918808 -85.592092 
L 297.737885 -83.625994 
L 295.556962 -85.873371 
L 293.37604 -89.826222 
L 291.195117 -96.802622 
L 289.014194 -104.375267 
L 286.833271 -98.945601 
L 284.652348 -94.224775 
L 282.471425 -93.45153 
z
" style="stroke: #ff7f0e; stroke-opacity: 0.15"/>
    </defs>
    <g clip-path="url(#p76512c6b0f)">
     <use xlink:href="#m9fc5abbc31" x="0" y="215.397188" style="fill: #ff7f0e; fill-opacity: 0.15; stroke: #ff7f0e; stroke-opacity: 0.15"/>
    </g>
   </g>
   <g id="line2d_13">
    <path d="M 272.875365 132.564818 
L 483.988698 132.564818 
" clip-path="url(#p76512c6b0f)" style="fill: none; stroke-dasharray: 2.96,1.28; stroke-dashoffset: 0; stroke: #000000; stroke-width: 0.8"/>
   </g>
   <g id="matplotlib.axis_3">
    <g id="xtick_6">
     <g id="line2d_14">
      <g>
       <use xlink:href="#m391bbde4be" x="278.109579" y="182.68" style="stroke: #000000; stroke-width: 0.8"/>
      </g>
     </g>
     <g id="text_13">
      <!-- 0 -->
      <g transform="translate(275.882704 194.998906) scale(0.07 -0.07)">
       <use xlink:href="#DejaVuSans-30"/>
      </g>
     </g>
    </g>
    <g id="xtick_7">
     <g id="line2d_15">
      <g>
       <use xlink:href="#m391bbde4be" x="321.728037" y="182.68" style="stroke: #000000; stroke-width: 0.8"/>
      </g>
     </g>
     <g id="text_14">
      <!-- 10 -->
      <g transform="translate(317.274287 194.998906) scale(0.07 -0.07)">
       <use xlink:href="#DejaVuSans-31"/>
       <use xlink:href="#DejaVuSans-30" transform="translate(63.623047 0)"/>
      </g>
     </g>
    </g>
    <g id="xtick_8">
     <g id="line2d_16">
      <g>
       <use xlink:href="#m391bbde4be" x="365.346494" y="182.68" style="stroke: #000000; stroke-width: 0.8"/>
      </g>
     </g>
     <g id="text_15">
      <!-- 20 -->
      <g transform="translate(360.892744 194.998906) scale(0.07 -0.07)">
       <use xlink:href="#DejaVuSans-32"/>
       <use xlink:href="#DejaVuSans-30" transform="translate(63.623047 0)"/>
      </g>
     </g>
    </g>
    <g id="xtick_9">
     <g id="line2d_17">
      <g>
       <use xlink:href="#m391bbde4be" x="408.964951" y="182.68" style="stroke: #000000; stroke-width: 0.8"/>
      </g>
     </g>
     <g id="text_16">
      <!-- 30 -->
      <g transform="translate(404.511201 194.998906) scale(0.07 -0.07)">
       <use xlink:href="#DejaVuSans-33"/>
       <use xlink:href="#DejaVuSans-30" transform="translate(63.623047 0)"/>
      </g>
     </g>
    </g>
    <g id="xtick_10">
     <g id="line2d_18">
      <g>
       <use xlink:href="#m391bbde4be" x="452.583409" y="182.68" style="stroke: #000000; stroke-width: 0.8"/>
      </g>
     </g>
     <g id="text_17">
      <!-- 40 -->
      <g transform="translate(448.129659 194.998906) scale(0.07 -0.07)">
       <use xlink:href="#DejaVuSans-34"/>
       <use xlink:href="#DejaVuSans-30" transform="translate(63.623047 0)"/>
      </g>
     </g>
    </g>
    <g id="text_18">
     <!-- Frequency (Hz) -->
     <g transform="translate(348.268281 206.533437) scale(0.08 -0.08)">
      <use xlink:href="#DejaVuSans-46"/>
      <use xlink:href="#DejaVuSans-72" transform="translate(50.269531 0)"/>
      <use xlink:href="#DejaVuSans-65" transform="translate(89.132812 0)"/>
      <use xlink:href="#DejaVuSans-71" transform="translate(150.65625 0)"/>
      <use xlink:href="#DejaVuSans-75" transform="translate(214.132812 0)"/>
      <use xlink:href="#DejaVuSans-65" transform="translate(277.511719 0)"/>
      <use xlink:href="#DejaVuSans-6e" transform="translate(339.035156 0)"/>
      <use xlink:href="#DejaVuSans-63" transform="translate(402.414062 0)"/>
      <use xlink:href="#DejaVuSans-79" transform="translate(457.394531 0)"/>
      <use xlink:href="#DejaVuSans-20" transform="translate(516.574219 0)"/>
      <use xlink:href="#DejaVuSans-28" transform="translate(548.361328 0)"/>
      <use xlink:href="#DejaVuSans-48" transform="translate(587.375 0)"/>
      <use xlink:href="#DejaVuSans-7a" transform="translate(662.570312 0)"/>
      <use xlink:href="#DejaVuSans-29" transform="translate(715.060547 0)"/>
     </g>
    </g>
   </g>
   <g id="matplotlib.axis_4">
    <g id="ytick_5">
     <g id="line2d_19">
      <g>
       <use xlink:href="#mc5fe1782b8" x="272.875365" y="158.190714" style="stroke: #000000; stroke-width: 0.8"/>
      </g>
     </g>
    </g>
    <g id="ytick_6">
     <g id="line2d_20">
      <g>
       <use xlink:href="#mc5fe1782b8" x="272.875365" y="132.564818" style="stroke: #000000; stroke-width: 0.8"/>
      </g>
     </g>
    </g>
    <g id="ytick_7">
     <g id="line2d_21">
      <g>
       <use xlink:href="#mc5fe1782b8" x="272.875365" y="106.938923" style="stroke: #000000; stroke-width: 0.8"/>
      </g>
     </g>
    </g>
    <g id="ytick_8">
     <g id="line2d_22">
      <g>
       <use xlink:href="#mc5fe1782b8" x="272.875365" y="81.313027" style="stroke: #000000; stroke-width: 0.8"/>
      </g>
     </g>
    </g>
    <g id="text_19">
     <!-- ERD/ERS (dB) -->
     <g transform="translate(263.711615 148.236875) rotate(-90) scale(0.08 -0.08)">
      <use xlink:href="#DejaVuSans-45"/>
      <use xlink:href="#DejaVuSans-52" transform="translate(63.183594 0)"/>
      <use xlink:href="#DejaVuSans-44" transform="translate(132.666016 0)"/>
      <use xlink:href="#DejaVuSans-2f" transform="translate(209.667969 0)"/>
      <use xlink:href="#DejaVuSans-45" transform="translate(243.359375 0)"/>
      <use xlink:href="#DejaVuSans-52" transform="translate(306.542969 0)"/>
      <use xlink:href="#DejaVuSans-53" transform="translate(376.025391 0)"/>
      <use xlink:href="#DejaVuSans-20" transform="translate(439.501953 0)"/>
      <use xlink:href="#DejaVuSans-28" transform="translate(471.289062 0)"/>
      <use xlink:href="#DejaVuSans-64" transform="translate(510.302734 0)"/>
      <use xlink:href="#DejaVuSans-42" transform="translate(573.779297 0)"/>
      <use xlink:href="#DejaVuSans-29" transform="translate(642.382812 0)"/>
     </g>
    </g>
   </g>
   <g id="line2d_23">
    <path d="M 282.471425 134.778355 
L 284.652348 132.546963 
L 286.833271 131.320066 
L 289.014194 135.645567 
L 291.195117 142.244587 
L 293.37604 145.179179 
L 295.556962 146.001299 
L 297.737885 145.86303 
L 299.918808 145.317101 
L 302.099731 143.743072 
L 304.280654 142.403301 
L 306.461577 140.851536 
L 308.6425 137.469739 
L 310.823422 132.532865 
L 313.004345 128.874684 
L 315.185268 127.607336 
L 317.366191 131.00261 
L 319.547114 135.187079 
L 321.728037 136.469109 
L 323.90896 137.698258 
L 326.089882 139.657888 
L 328.270805 140.523608 
L 330.451728 138.803937 
L 332.632651 135.642403 
L 334.813574 135.343256 
L 336.994497 136.098074 
L 339.17542 134.598011 
L 341.356343 131.445107 
L 343.537265 133.205649 
L 345.718188 135.077704 
L 347.899111 136.605986 
L 350.080034 137.220881 
L 352.260957 135.229487 
L 354.44188 131.523288 
L 356.622803 131.370931 
L 358.803725 133.978056 
L 360.984648 135.140516 
L 363.165571 136.041919 
L 365.346494 137.399797 
L 367.527417 137.137494 
L 369.70834 135.564864 
L 371.889263 135.413551 
L 374.070186 135.46665 
L 376.251108 135.222312 
L 378.432031 132.921493 
L 380.612954 129.958604 
L 382.793877 129.009606 
L 384.9748 128.972382 
L 387.155723 129.552821 
L 389.336646 129.602544 
L 391.517568 129.979449 
L 393.698491 127.053442 
L 395.879414 124.698287 
L 398.060337 124.135711 
L 400.24126 126.78991 
L 402.422183 132.819657 
L 404.603106 137.118091 
L 406.784028 139.821501 
L 408.964951 140.334356 
L 411.145874 138.893482 
L 413.326797 136.371216 
L 415.50772 134.919958 
L 417.688643 136.945522 
L 419.869566 140.858603 
L 422.050489 142.685814 
L 424.231411 139.557793 
L 426.412334 136.906011 
L 428.593257 139.032378 
L 430.77418 141.139032 
L 432.955103 140.160701 
L 435.136026 139.451975 
L 437.316949 139.936284 
L 439.497871 140.350221 
L 441.678794 139.335381 
L 443.859717 140.775483 
L 446.04064 141.591271 
L 448.221563 141.127232 
L 450.402486 141.753066 
L 452.583409 143.451864 
L 454.764332 143.271423 
L 456.945254 143.45807 
L 459.126177 145.735817 
L 461.3071 148.331115 
L 463.488023 147.039172 
L 465.668946 146.015718 
L 467.849869 145.340599 
L 470.030792 146.278199 
L 472.211714 147.203953 
L 474.392637 148.207307 
" clip-path="url(#p76512c6b0f)" style="fill: none; stroke: #1f77b4; stroke-width: 1.3; stroke-linecap: square"/>
   </g>
   <g id="line2d_24">
    <path d="M 282.471425 135.39777 
L 284.652348 134.100674 
L 286.833271 130.918319 
L 289.014194 127.38323 
L 291.195117 133.450033 
L 293.37604 139.480178 
L 295.556962 142.496076 
L 297.737885 143.755839 
L 299.918808 142.025129 
L 302.099731 136.544416 
L 304.280654 129.303167 
L 306.461577 121.89146 
L 308.6425 114.141899 
L 310.823422 104.767001 
L 313.004345 96.447474 
L 315.185268 99.053856 
L 317.366191 105.785071 
L 319.547114 113.4132 
L 321.728037 122.513705 
L 323.90896 125.487389 
L 326.089882 127.457499 
L 328.270805 131.580139 
L 330.451728 133.18973 
L 332.632651 130.824981 
L 334.813574 128.546175 
L 336.994497 125.607381 
L 339.17542 124.571531 
L 341.356343 126.194417 
L 343.537265 125.252008 
L 345.718188 125.414052 
L 347.899111 127.024898 
L 350.080034 123.644578 
L 352.260957 120.181875 
L 354.44188 116.720651 
L 356.622803 115.215376 
L 358.803725 113.423382 
L 360.984648 115.291349 
L 363.165571 118.927033 
L 365.346494 119.15334 
L 367.527417 115.376922 
L 369.70834 109.299083 
L 371.889263 107.623858 
L 374.070186 111.094355 
L 376.251108 114.550522 
L 378.432031 109.419375 
L 380.612954 103.691393 
L 382.793877 104.862146 
L 384.9748 109.163519 
L 387.155723 115.591619 
L 389.336646 122.019154 
L 391.517568 123.530308 
L 393.698491 120.659335 
L 395.879414 114.615611 
L 398.060337 111.401957 
L 400.24126 112.748788 
L 402.422183 120.334227 
L 404.603106 132.851948 
L 406.784028 141.204898 
L 408.964951 145.149522 
L 411.145874 141.963548 
L 413.326797 137.006236 
L 415.50772 137.99604 
L 417.688643 139.109355 
L 419.869566 135.580109 
L 422.050489 133.41929 
L 424.231411 137.093932 
L 426.412334 141.245436 
L 428.593257 146.405751 
L 430.77418 150.540785 
L 432.955103 147.205855 
L 435.136026 140.449438 
L 437.316949 136.509661 
L 439.497871 138.092751 
L 441.678794 146.053927 
L 443.859717 148.969644 
L 446.04064 148.27624 
L 448.221563 147.740929 
L 450.402486 147.210913 
L 452.583409 148.186203 
L 454.764332 149.215389 
L 456.945254 148.7504 
L 459.126177 151.213536 
L 461.3071 150.89971 
L 463.488023 149.583495 
L 465.668946 147.877221 
L 467.849869 142.743875 
L 470.030792 140.506678 
L 472.211714 145.029966 
L 474.392637 148.213637 
" clip-path="url(#p76512c6b0f)" style="fill: none; stroke: #ff7f0e; stroke-width: 1.3; stroke-linecap: square"/>
   </g>
   <g id="patch_12">
    <path d="M 272.875365 182.68 
L 272.875365 59.28 
" style="fill: none; stroke: #000000; stroke-width: 0.8; stroke-linejoin: miter; stroke-linecap: square"/>
   </g>
   <g id="patch_13">
    <path d="M 483.988698 182.68 
L 483.988698 59.28 
" style="fill: none; stroke: #000000; stroke-width: 0.8; stroke-linejoin: miter; stroke-linecap: square"/>
   </g>
   <g id="patch_14">
    <path d="M 272.875365 182.68 
L 483.988698 182.68 
" style="fill: none; stroke: #000000; stroke-width: 0.8; stroke-linejoin: miter; stroke-linecap: square"/>
   </g>
   <g id="patch_15">
    <path d="M 272.875365 59.28 
L 483.988698 59.28 
" style="fill: none; stroke: #000000; stroke-width: 0.8; stroke-linejoin: miter; stroke-linecap: square"/>
   </g>
   <g id="text_20">
    <!-- Cz -->
    <g transform="translate(372.927969 53.28) scale(0.09 -0.09)">
     <use xlink:href="#DejaVuSans-43"/>
     <use xlink:href="#DejaVuSans-7a" transform="translate(69.824219 0)"/>
    </g>
   </g>
  </g>
  <g id="axes_3">
   <g id="patch_16">
    <path d="M 509.488698 182.68 
L 720.602031 182.68 
L 720.602031 59.28 
L 509.488698 59.28 
L 509.488698 182.68 
z
" style="fill: none"/>
   </g>
   <g id="patch_17">
    <path d="M 549.617679 182.68 
L 571.426907 182.68 
L 571.426907 59.28 
L 549.617679 59.28 
z
" clip-path="url(#pfc1219ed32)" style="fill: #d9d9d9; stroke: #d9d9d9; stroke-linejoin: miter"/>
   </g>
   <g id="patch_18">
    <path d="M 571.426907 182.68 
L 645.578285 182.68 
L 645.578285 59.28 
L 571.426907 59.28 
z
" clip-path="url(#pfc1219ed32)" style="fill: #ebebeb; stroke: #ebebeb; stroke-linejoin: miter"/>
   </g>
   <g id="FillBetweenPolyCollection_5">
    <defs>
     <path id="m77018828f7" d="M 519.084759 -91.76218 
L 519.084759 -78.782963 
L 521.265681 -76.254749 
L 523.446604 -71.457156 
L 525.627527 -70.123575 
L 527.80845 -73.367235 
L 529.989373 -75.642234 
L 532.170296 -74.096625 
L 534.351219 -75.406275 
L 536.532141 -77.264917 
L 538.713064 -76.634112 
L 540.893987 -73.69766 
L 543.07491 -71.257497 
L 545.255833 -70.436453 
L 547.436756 -66.88884 
L 549.617679 -64.941198 
L 551.798601 -64.548937 
L 553.979524 -63.76482 
L 556.160447 -65.320697 
L 558.34137 -68.26781 
L 560.522293 -70.509914 
L 562.703216 -69.791172 
L 564.884139 -71.811412 
L 567.065062 -73.77569 
L 569.245984 -73.299747 
L 571.426907 -73.780795 
L 573.60783 -74.951019 
L 575.788753 -74.674901 
L 577.969676 -75.104143 
L 580.150599 -75.029813 
L 582.331522 -73.185456 
L 584.512444 -72.229556 
L 586.693367 -71.465846 
L 588.87429 -70.46336 
L 591.055213 -69.985487 
L 593.236136 -72.032432 
L 595.417059 -77.269315 
L 597.597982 -79.838776 
L 599.778905 -80.210055 
L 601.959827 -80.728893 
L 604.14075 -79.602957 
L 606.321673 -78.111095 
L 608.502596 -76.524682 
L 610.683519 -77.209019 
L 612.864442 -76.508268 
L 615.045365 -71.839137 
L 617.226287 -68.809513 
L 619.40721 -69.211311 
L 621.588133 -71.467842 
L 623.769056 -70.587143 
L 625.949979 -68.456131 
L 628.130902 -68.775486 
L 630.311825 -73.337811 
L 632.492748 -74.915733 
L 634.67367 -73.029719 
L 636.854593 -73.47222 
L 639.035516 -74.176725 
L 641.216439 -74.174262 
L 643.397362 -74.438533 
L 645.578285 -74.657679 
L 647.759208 -73.921469 
L 649.94013 -72.341366 
L 652.121053 -73.318618 
L 654.301976 -75.713284 
L 656.482899 -76.274996 
L 658.663822 -75.406806 
L 660.844745 -76.581428 
L 663.025668 -78.457369 
L 665.20659 -78.600279 
L 667.387513 -76.361375 
L 669.568436 -75.875561 
L 671.749359 -77.423694 
L 673.930282 -76.020818 
L 676.111205 -75.540082 
L 678.292128 -75.725407 
L 680.473051 -76.793846 
L 682.653973 -76.208381 
L 684.834896 -74.524042 
L 687.015819 -74.894537 
L 689.196742 -74.157677 
L 691.377665 -73.10936 
L 693.558588 -72.866206 
L 695.739511 -70.548824 
L 697.920433 -69.660475 
L 700.101356 -70.978069 
L 702.282279 -72.565487 
L 704.463202 -73.461716 
L 706.644125 -73.564597 
L 708.825048 -72.655317 
L 711.005971 -71.111676 
L 711.005971 -84.122753 
L 711.005971 -84.122753 
L 708.825048 -85.856791 
L 706.644125 -87.477954 
L 704.463202 -87.819888 
L 702.282279 -86.307418 
L 700.101356 -84.169211 
L 697.920433 -83.029861 
L 695.739511 -84.330871 
L 693.558588 -86.997603 
L 691.377665 -87.605199 
L 689.196742 -89.153816 
L 687.015819 -90.325062 
L 684.834896 -89.762897 
L 682.653973 -91.261988 
L 680.473051 -91.4778 
L 678.292128 -90.250078 
L 676.111205 -90.401937 
L 673.930282 -91.629574 
L 671.749359 -93.442575 
L 669.568436 -91.941888 
L 667.387513 -91.360527 
L 665.20659 -92.630941 
L 663.025668 -92.032279 
L 660.844745 -89.924106 
L 658.663822 -88.499542 
L 656.482899 -89.170503 
L 654.301976 -89.191204 
L 652.121053 -86.787924 
L 649.94013 -85.80079 
L 647.759208 -87.775841 
L 645.578285 -87.719853 
L 643.397362 -87.869873 
L 641.216439 -88.142274 
L 639.035516 -87.93806 
L 636.854593 -86.226884 
L 634.67367 -84.854326 
L 632.492748 -87.929176 
L 630.311825 -86.422971 
L 628.130902 -81.899817 
L 625.949979 -82.076344 
L 623.769056 -83.89277 
L 621.588133 -84.880945 
L 619.40721 -82.34843 
L 617.226287 -82.320793 
L 615.045365 -85.680029 
L 612.864442 -90.089037 
L 610.683519 -90.607186 
L 608.502596 -89.618179 
L 606.321673 -91.822762 
L 604.14075 -94.126007 
L 601.959827 -95.523541 
L 599.778905 -95.139976 
L 597.597982 -95.096194 
L 595.417059 -92.297045 
L 593.236136 -86.516382 
L 591.055213 -84.48534 
L 588.87429 -84.642066 
L 586.693367 -85.447367 
L 584.512444 -85.559459 
L 582.331522 -86.113658 
L 580.150599 -88.378122 
L 577.969676 -87.361041 
L 575.788753 -86.930427 
L 573.60783 -87.926801 
L 571.426907 -86.868509 
L 569.245984 -86.574989 
L 567.065062 -87.983709 
L 564.884139 -87.216788 
L 562.703216 -84.835228 
L 560.522293 -85.574905 
L 558.34137 -83.382037 
L 556.160447 -81.288527 
L 553.979524 -80.510662 
L 551.798601 -81.662278 
L 549.617679 -81.102039 
L 547.436756 -81.451675 
L 545.255833 -83.678502 
L 543.07491 -84.389509 
L 540.893987 -87.369208 
L 538.713064 -90.02934 
L 536.532141 -89.465852 
L 534.351219 -87.561118 
L 532.170296 -86.837837 
L 529.989373 -88.621961 
L 527.80845 -86.178441 
L 525.627527 -82.814348 
L 523.446604 -83.56214 
L 521.265681 -88.155492 
L 519.084759 -91.76218 
z
" style="stroke: #1f77b4; stroke-opacity: 0.15"/>
    </defs>
    <g clip-path="url(#pfc1219ed32)">
     <use xlink:href="#m77018828f7" x="0" y="215.397188" style="fill: #1f77b4; fill-opacity: 0.15; stroke: #1f77b4; stroke-opacity: 0.15"/>
    </g>
   </g>
   <g id="FillBetweenPolyCollection_6">
    <defs>
     <path id="m47758b6f83" d="M 519.084759 -90.887332 
L 519.084759 -62.315824 
L 521.265681 -60.753716 
L 523.446604 -58.052339 
L 525.627527 -56.710251 
L 527.80845 -57.336379 
L 529.989373 -56.675916 
L 532.170296 -58.252667 
L 534.351219 -62.687949 
L 536.532141 -63.813878 
L 538.713064 -63.780293 
L 540.893987 -65.74897 
L 543.07491 -71.979295 
L 545.255833 -77.438117 
L 547.436756 -80.550462 
L 549.617679 -87.479061 
L 551.798601 -93.449559 
L 553.979524 -97.277856 
L 556.160447 -97.624371 
L 558.34137 -89.860621 
L 560.522293 -82.300031 
L 562.703216 -75.898053 
L 564.884139 -71.335844 
L 567.065062 -70.00372 
L 569.245984 -66.073513 
L 571.426907 -63.9335 
L 573.60783 -64.977312 
L 575.788753 -65.294737 
L 577.969676 -64.363682 
L 580.150599 -59.272848 
L 582.331522 -62.108681 
L 584.512444 -72.95017 
L 586.693367 -83.671893 
L 588.87429 -89.045265 
L 591.055213 -91.236836 
L 593.236136 -87.57179 
L 595.417059 -81.443561 
L 597.597982 -83.227698 
L 599.778905 -89.007328 
L 601.959827 -93.389016 
L 604.14075 -92.081095 
L 606.321673 -87.348702 
L 608.502596 -86.279464 
L 610.683519 -86.126056 
L 612.864442 -85.471239 
L 615.045365 -83.472831 
L 617.226287 -81.603828 
L 619.40721 -82.766776 
L 621.588133 -84.296864 
L 623.769056 -80.737745 
L 625.949979 -77.773389 
L 628.130902 -78.019357 
L 630.311825 -70.627769 
L 632.492748 -60.579432 
L 634.67367 -56.713521 
L 636.854593 -64.178912 
L 639.035516 -72.595778 
L 641.216439 -71.250067 
L 643.397362 -70.446366 
L 645.578285 -69.65296 
L 647.759208 -68.919052 
L 649.94013 -63.218215 
L 652.121053 -57.881834 
L 654.301976 -57.188672 
L 656.482899 -57.106482 
L 658.663822 -56.202803 
L 660.844745 -57.832375 
L 663.025668 -60.506845 
L 665.20659 -63.380724 
L 667.387513 -63.504957 
L 669.568436 -60.978433 
L 671.749359 -56.836821 
L 673.930282 -54.877054 
L 676.111205 -55.975583 
L 678.292128 -60.453661 
L 680.473051 -64.818569 
L 682.653973 -64.400811 
L 684.834896 -62.1406 
L 687.015819 -62.704445 
L 689.196742 -65.204845 
L 691.377665 -65.135617 
L 693.558588 -65.236449 
L 695.739511 -65.565402 
L 697.920433 -70.112196 
L 700.101356 -71.620614 
L 702.282279 -67.36337 
L 704.463202 -66.008533 
L 706.644125 -63.937189 
L 708.825048 -59.733735 
L 711.005971 -52.84944 
L 711.005971 -82.293408 
L 711.005971 -82.293408 
L 708.825048 -86.427676 
L 706.644125 -93.151401 
L 704.463202 -97.132835 
L 702.282279 -96.821913 
L 700.101356 -102.950521 
L 697.920433 -104.052937 
L 695.739511 -97.119408 
L 693.558588 -91.75217 
L 691.377665 -91.774 
L 689.196742 -94.422105 
L 687.015819 -92.94968 
L 684.834896 -95.187558 
L 682.653973 -97.938016 
L 680.473051 -98.534561 
L 678.292128 -95.150395 
L 676.111205 -88.514026 
L 673.930282 -83.267935 
L 671.749359 -85.394592 
L 669.568436 -93.380665 
L 667.387513 -94.499771 
L 665.20659 -93.537727 
L 663.025668 -87.019526 
L 660.844745 -82.539397 
L 658.663822 -84.450907 
L 656.482899 -89.978911 
L 654.301976 -86.424483 
L 652.121053 -85.361408 
L 649.94013 -89.904925 
L 647.759208 -93.902326 
L 645.578285 -93.724494 
L 643.397362 -97.360495 
L 641.216439 -100.47719 
L 639.035516 -102.100355 
L 636.854593 -92.735636 
L 634.67367 -81.354588 
L 632.492748 -85.417054 
L 630.311825 -99.671506 
L 628.130902 -104.135154 
L 625.949979 -102.567817 
L 623.769056 -108.250922 
L 621.588133 -112.011495 
L 619.40721 -109.29639 
L 617.226287 -106.358946 
L 615.045365 -108.659079 
L 612.864442 -114.410025 
L 610.683519 -115.690108 
L 608.502596 -115.884192 
L 606.321673 -119.178162 
L 604.14075 -122.01013 
L 601.959827 -119.645602 
L 599.778905 -115.869224 
L 597.597982 -110.069439 
L 595.417059 -108.717234 
L 593.236136 -114.119923 
L 591.055213 -117.923399 
L 588.87429 -114.280879 
L 586.693367 -109.042909 
L 584.512444 -98.077953 
L 582.331522 -88.012149 
L 580.150599 -87.701022 
L 577.969676 -90.895184 
L 575.788753 -89.244282 
L 573.60783 -88.185942 
L 571.426907 -87.982793 
L 569.245984 -92.064549 
L 567.065062 -96.447993 
L 564.884139 -99.585931 
L 562.703216 -106.098807 
L 560.522293 -114.258676 
L 558.34137 -125.262799 
L 556.160447 -137.324734 
L 553.979524 -134.548509 
L 551.798601 -125.469675 
L 549.617679 -114.249286 
L 547.436756 -107.332225 
L 545.255833 -103.093287 
L 543.07491 -98.471739 
L 540.893987 -96.48928 
L 538.713064 -93.214654 
L 536.532141 -88.6065 
L 534.351219 -87.58862 
L 532.170296 -84.706422 
L 529.989373 -84.521857 
L 527.80845 -85.506862 
L 525.627527 -83.5036 
L 523.446604 -87.413269 
L 521.265681 -87.397893 
L 519.084759 -90.887332 
z
" style="stroke: #ff7f0e; stroke-opacity: 0.15"/>
    </defs>
    <g clip-path="url(#pfc1219ed32)">
     <use xlink:href="#m47758b6f83" x="0" y="215.397188" style="fill: #ff7f0e; fill-opacity: 0.15; stroke: #ff7f0e; stroke-opacity: 0.15"/>
    </g>
   </g>
   <g id="line2d_25">
    <path d="M 509.488698 132.564818 
L 720.602031 132.564818 
" clip-path="url(#pfc1219ed32)" style="fill: none; stroke-dasharray: 2.96,1.28; stroke-dashoffset: 0; stroke: #000000; stroke-width: 0.8"/>
   </g>
   <g id="matplotlib.axis_5">
    <g id="xtick_11">
     <g id="line2d_26">
      <g>
       <use xlink:href="#m391bbde4be" x="514.722913" y="182.68" style="stroke: #000000; stroke-width: 0.8"/>
      </g>
     </g>
     <g id="text_21">
      <!-- 0 -->
      <g transform="translate(512.496038 194.998906) scale(0.07 -0.07)">
       <use xlink:href="#DejaVuSans-30"/>
      </g>
     </g>
    </g>
    <g id="xtick_12">
     <g id="line2d_27">
      <g>
       <use xlink:href="#m391bbde4be" x="558.34137" y="182.68" style="stroke: #000000; stroke-width: 0.8"/>
      </g>
     </g>
     <g id="text_22">
      <!-- 10 -->
      <g transform="translate(553.88762 194.998906) scale(0.07 -0.07)">
       <use xlink:href="#DejaVuSans-31"/>
       <use xlink:href="#DejaVuSans-30" transform="translate(63.623047 0)"/>
      </g>
     </g>
    </g>
    <g id="xtick_13">
     <g id="line2d_28">
      <g>
       <use xlink:href="#m391bbde4be" x="601.959827" y="182.68" style="stroke: #000000; stroke-width: 0.8"/>
      </g>
     </g>
     <g id="text_23">
      <!-- 20 -->
      <g transform="translate(597.506077 194.998906) scale(0.07 -0.07)">
       <use xlink:href="#DejaVuSans-32"/>
       <use xlink:href="#DejaVuSans-30" transform="translate(63.623047 0)"/>
      </g>
     </g>
    </g>
    <g id="xtick_14">
     <g id="line2d_29">
      <g>
       <use xlink:href="#m391bbde4be" x="645.578285" y="182.68" style="stroke: #000000; stroke-width: 0.8"/>
      </g>
     </g>
     <g id="text_24">
      <!-- 30 -->
      <g transform="translate(641.124535 194.998906) scale(0.07 -0.07)">
       <use xlink:href="#DejaVuSans-33"/>
       <use xlink:href="#DejaVuSans-30" transform="translate(63.623047 0)"/>
      </g>
     </g>
    </g>
    <g id="xtick_15">
     <g id="line2d_30">
      <g>
       <use xlink:href="#m391bbde4be" x="689.196742" y="182.68" style="stroke: #000000; stroke-width: 0.8"/>
      </g>
     </g>
     <g id="text_25">
      <!-- 40 -->
      <g transform="translate(684.742992 194.998906) scale(0.07 -0.07)">
       <use xlink:href="#DejaVuSans-34"/>
       <use xlink:href="#DejaVuSans-30" transform="translate(63.623047 0)"/>
      </g>
     </g>
    </g>
    <g id="text_26">
     <!-- Frequency (Hz) -->
     <g transform="translate(584.881615 206.533437) scale(0.08 -0.08)">
      <use xlink:href="#DejaVuSans-46"/>
      <use xlink:href="#DejaVuSans-72" transform="translate(50.269531 0)"/>
      <use xlink:href="#DejaVuSans-65" transform="translate(89.132812 0)"/>
      <use xlink:href="#DejaVuSans-71" transform="translate(150.65625 0)"/>
      <use xlink:href="#DejaVuSans-75" transform="translate(214.132812 0)"/>
      <use xlink:href="#DejaVuSans-65" transform="translate(277.511719 0)"/>
      <use xlink:href="#DejaVuSans-6e" transform="translate(339.035156 0)"/>
      <use xlink:href="#DejaVuSans-63" transform="translate(402.414062 0)"/>
      <use xlink:href="#DejaVuSans-79" transform="translate(457.394531 0)"/>
      <use xlink:href="#DejaVuSans-20" transform="translate(516.574219 0)"/>
      <use xlink:href="#DejaVuSans-28" transform="translate(548.361328 0)"/>
      <use xlink:href="#DejaVuSans-48" transform="translate(587.375 0)"/>
      <use xlink:href="#DejaVuSans-7a" transform="translate(662.570312 0)"/>
      <use xlink:href="#DejaVuSans-29" transform="translate(715.060547 0)"/>
     </g>
    </g>
   </g>
   <g id="matplotlib.axis_6">
    <g id="ytick_9">
     <g id="line2d_31">
      <g>
       <use xlink:href="#mc5fe1782b8" x="509.488698" y="158.190714" style="stroke: #000000; stroke-width: 0.8"/>
      </g>
     </g>
    </g>
    <g id="ytick_10">
     <g id="line2d_32">
      <g>
       <use xlink:href="#mc5fe1782b8" x="509.488698" y="132.564818" style="stroke: #000000; stroke-width: 0.8"/>
      </g>
     </g>
    </g>
    <g id="ytick_11">
     <g id="line2d_33">
      <g>
       <use xlink:href="#mc5fe1782b8" x="509.488698" y="106.938923" style="stroke: #000000; stroke-width: 0.8"/>
      </g>
     </g>
    </g>
    <g id="ytick_12">
     <g id="line2d_34">
      <g>
       <use xlink:href="#mc5fe1782b8" x="509.488698" y="81.313027" style="stroke: #000000; stroke-width: 0.8"/>
      </g>
     </g>
    </g>
    <g id="text_27">
     <!-- ERD/ERS (dB) -->
     <g transform="translate(500.324948 148.236875) rotate(-90) scale(0.08 -0.08)">
      <use xlink:href="#DejaVuSans-45"/>
      <use xlink:href="#DejaVuSans-52" transform="translate(63.183594 0)"/>
      <use xlink:href="#DejaVuSans-44" transform="translate(132.666016 0)"/>
      <use xlink:href="#DejaVuSans-2f" transform="translate(209.667969 0)"/>
      <use xlink:href="#DejaVuSans-45" transform="translate(243.359375 0)"/>
      <use xlink:href="#DejaVuSans-52" transform="translate(306.542969 0)"/>
      <use xlink:href="#DejaVuSans-53" transform="translate(376.025391 0)"/>
      <use xlink:href="#DejaVuSans-20" transform="translate(439.501953 0)"/>
      <use xlink:href="#DejaVuSans-28" transform="translate(471.289062 0)"/>
      <use xlink:href="#DejaVuSans-64" transform="translate(510.302734 0)"/>
      <use xlink:href="#DejaVuSans-42" transform="translate(573.779297 0)"/>
      <use xlink:href="#DejaVuSans-29" transform="translate(642.382812 0)"/>
     </g>
    </g>
   </g>
   <g id="line2d_35">
    <path d="M 519.084759 130.124616 
L 521.265681 133.192067 
L 523.446604 137.88754 
L 525.627527 138.928226 
L 527.80845 135.62435 
L 529.989373 133.26509 
L 532.170296 134.929957 
L 534.351219 133.913491 
L 536.532141 132.031803 
L 538.713064 132.065462 
L 540.893987 134.863754 
L 543.07491 137.573685 
L 545.255833 138.33971 
L 547.436756 141.22693 
L 549.617679 142.375569 
L 551.798601 142.29158 
L 553.979524 143.259446 
L 556.160447 142.092576 
L 558.34137 139.572264 
L 560.522293 137.354778 
L 562.703216 138.083988 
L 564.884139 135.883088 
L 567.065062 134.517488 
L 569.245984 135.45982 
L 571.426907 135.072535 
L 573.60783 133.958277 
L 575.788753 134.594524 
L 577.969676 134.164595 
L 580.150599 133.69322 
L 582.331522 135.747631 
L 584.512444 136.50268 
L 586.693367 136.940581 
L 588.87429 137.844475 
L 591.055213 138.161774 
L 593.236136 136.122781 
L 595.417059 130.614008 
L 597.597982 127.929702 
L 599.778905 127.722172 
L 601.959827 127.27097 
L 604.14075 128.532706 
L 606.321673 130.430259 
L 608.502596 132.325757 
L 610.683519 131.489085 
L 612.864442 132.098535 
L 615.045365 136.637604 
L 617.226287 139.832035 
L 619.40721 139.617317 
L 621.588133 137.222794 
L 623.769056 138.157231 
L 625.949979 140.13095 
L 628.130902 140.059536 
L 630.311825 135.516797 
L 632.492748 133.974733 
L 634.67367 136.455165 
L 636.854593 135.547635 
L 639.035516 134.339795 
L 641.216439 134.238919 
L 643.397362 134.242984 
L 645.578285 134.208421 
L 647.759208 134.548532 
L 649.94013 136.32611 
L 652.121053 135.343916 
L 654.301976 132.944943 
L 656.482899 132.674438 
L 658.663822 133.444013 
L 660.844745 132.14442 
L 663.025668 130.152363 
L 665.20659 129.781577 
L 667.387513 131.536236 
L 669.568436 131.488463 
L 671.749359 129.964053 
L 673.930282 131.571991 
L 676.111205 132.426178 
L 678.292128 132.409445 
L 680.473051 131.261364 
L 682.653973 131.662003 
L 684.834896 133.253718 
L 687.015819 132.787388 
L 689.196742 133.741441 
L 691.377665 135.039908 
L 693.558588 135.465283 
L 695.739511 137.95734 
L 697.920433 139.052019 
L 700.101356 137.823547 
L 702.282279 135.960735 
L 704.463202 134.756385 
L 706.644125 134.875912 
L 708.825048 136.141133 
L 711.005971 137.779973 
" clip-path="url(#pfc1219ed32)" style="fill: none; stroke: #1f77b4; stroke-width: 1.3; stroke-linecap: square"/>
   </g>
   <g id="line2d_36">
    <path d="M 519.084759 138.79561 
L 521.265681 141.321383 
L 523.446604 142.664384 
L 525.627527 145.290262 
L 527.80845 143.975567 
L 529.989373 144.798301 
L 532.170296 143.917643 
L 534.351219 140.258903 
L 536.532141 139.186998 
L 538.713064 136.899714 
L 540.893987 134.278063 
L 543.07491 130.171671 
L 545.255833 125.131486 
L 547.436756 121.455844 
L 549.617679 114.533014 
L 551.798601 105.93757 
L 553.979524 99.484005 
L 556.160447 97.922635 
L 558.34137 107.835477 
L 560.522293 117.117834 
L 562.703216 124.398757 
L 564.884139 129.9363 
L 567.065062 132.171331 
L 569.245984 136.328157 
L 571.426907 139.439041 
L 573.60783 138.81556 
L 575.788753 138.127678 
L 577.969676 137.767754 
L 580.150599 141.910253 
L 582.331522 140.336772 
L 584.512444 129.883126 
L 586.693367 119.039787 
L 588.87429 113.734115 
L 591.055213 110.81707 
L 593.236136 114.551331 
L 595.417059 120.31679 
L 597.597982 118.748619 
L 599.778905 112.958912 
L 601.959827 108.879878 
L 604.14075 108.351575 
L 606.321673 112.133755 
L 608.502596 114.31536 
L 610.683519 114.489105 
L 612.864442 115.456555 
L 615.045365 119.331232 
L 617.226287 121.415801 
L 619.40721 119.365604 
L 621.588133 117.243008 
L 623.769056 120.902854 
L 625.949979 125.226584 
L 628.130902 124.319932 
L 630.311825 130.24755 
L 632.492748 142.398945 
L 634.67367 146.363133 
L 636.854593 136.939914 
L 639.035516 128.049121 
L 641.216439 129.533559 
L 643.397362 131.493757 
L 645.578285 133.70846 
L 647.759208 133.986499 
L 649.94013 138.835617 
L 652.121053 143.775566 
L 654.301976 143.59061 
L 656.482899 141.854491 
L 658.663822 145.070333 
L 660.844745 145.211301 
L 663.025668 141.634002 
L 665.20659 136.937962 
L 667.387513 136.394824 
L 669.568436 138.217638 
L 671.749359 144.281481 
L 673.930282 146.324693 
L 676.111205 143.152383 
L 678.292128 137.59516 
L 680.473051 133.720622 
L 682.653973 134.227774 
L 684.834896 136.733108 
L 687.015819 137.570125 
L 689.196742 135.583713 
L 691.377665 136.942379 
L 693.558588 136.902878 
L 695.739511 134.054783 
L 697.920433 128.314621 
L 700.101356 128.11162 
L 702.282279 133.304546 
L 704.463202 133.826503 
L 706.644125 136.852893 
L 708.825048 142.316482 
L 711.005971 147.825763 
" clip-path="url(#pfc1219ed32)" style="fill: none; stroke: #ff7f0e; stroke-width: 1.3; stroke-linecap: square"/>
   </g>
   <g id="patch_19">
    <path d="M 509.488698 182.68 
L 509.488698 59.28 
" style="fill: none; stroke: #000000; stroke-width: 0.8; stroke-linejoin: miter; stroke-linecap: square"/>
   </g>
   <g id="patch_20">
    <path d="M 720.602031 182.68 
L 720.602031 59.28 
" style="fill: none; stroke: #000000; stroke-width: 0.8; stroke-linejoin: miter; stroke-linecap: square"/>
   </g>
   <g id="patch_21">
    <path d="M 509.488698 182.68 
L 720.602031 182.68 
" style="fill: none; stroke: #000000; stroke-width: 0.8; stroke-linejoin: miter; stroke-linecap: square"/>
   </g>
   <g id="patch_22">
    <path d="M 509.488698 59.28 
L 720.602031 59.28 
" style="fill: none; stroke: #000000; stroke-width: 0.8; stroke-linejoin: miter; stroke-linecap: square"/>
   </g>
   <g id="text_28">
    <!-- C4 -->
    <g transform="translate(609.039974 53.28) scale(0.09 -0.09)">
     <use xlink:href="#DejaVuSans-43"/>
     <use xlink:href="#DejaVuSans-34" transform="translate(69.824219 0)"/>
    </g>
   </g>
  </g>
  <g id="text_29">
   <!-- ERD/ERS — ME — S02 (Movement vs Rest) -->
   <g transform="translate(246.556172 15.558281) scale(0.11 -0.11)">
    <defs>
     <path id="DejaVuSans-2014" d="M 313 1978 
L 6088 1978 
L 6088 1528 
L 313 1528 
L 313 1978 
z
" transform="scale(0.015625)"/>
     <path id="DejaVuSans-4d" d="M 628 4666 
L 1569 4666 
L 2759 1491 
L 3956 4666 
L 4897 4666 
L 4897 0 
L 4281 0 
L 4281 4097 
L 3078 897 
L 2444 897 
L 1241 4097 
L 1241 0 
L 628 0 
L 628 4666 
z
" transform="scale(0.015625)"/>
     <path id="DejaVuSans-6f" d="M 1959 3097 
Q 1497 3097 1228 2736 
Q 959 2375 959 1747 
Q 959 1119 1226 758 
Q 1494 397 1959 397 
Q 2419 397 2687 759 
Q 2956 1122 2956 1747 
Q 2956 2369 2687 2733 
Q 2419 3097 1959 3097 
z
M 1959 3584 
Q 2709 3584 3137 3096 
Q 3566 2609 3566 1747 
Q 3566 888 3137 398 
Q 2709 -91 1959 -91 
Q 1206 -91 779 398 
Q 353 888 353 1747 
Q 353 2609 779 3096 
Q 1206 3584 1959 3584 
z
" transform="scale(0.015625)"/>
     <path id="DejaVuSans-76" d="M 191 3500 
L 800 3500 
L 1894 563 
L 2988 3500 
L 3597 3500 
L 2284 0 
L 1503 0 
L 191 3500 
z
" transform="scale(0.015625)"/>
     <path id="DejaVuSans-6d" d="M 3328 2828 
Q 3544 3216 3844 3400 
Q 4144 3584 4550 3584 
Q 5097 3584 5394 3201 
Q 5691 2819 5691 2113 
L 5691 0 
L 5113 0 
L 5113 2094 
Q 5113 2597 4934 2840 
Q 4756 3084 4391 3084 
Q 3944 3084 3684 2787 
Q 3425 2491 3425 1978 
L 3425 0 
L 2847 0 
L 2847 2094 
Q 2847 2600 2669 2842 
Q 2491 3084 2119 3084 
Q 1678 3084 1418 2786 
Q 1159 2488 1159 1978 
L 1159 0 
L 581 0 
L 581 3500 
L 1159 3500 
L 1159 2956 
Q 1356 3278 1631 3431 
Q 1906 3584 2284 3584 
Q 2666 3584 2933 3390 
Q 3200 3197 3328 2828 
z
" transform="scale(0.015625)"/>
     <path id="DejaVuSans-74" d="M 1172 4494 
L 1172 3500 
L 2356 3500 
L 2356 3053 
L 1172 3053 
L 1172 1153 
Q 1172 725 1289 603 
Q 1406 481 1766 481 
L 2356 481 
L 2356 0 
L 1766 0 
Q 1100 0 847 248 
Q 594 497 594 1153 
L 594 3053 
L 172 3053 
L 172 3500 
L 594 3500 
L 594 4494 
L 1172 4494 
z
" transform="scale(0.015625)"/>
     <path id="DejaVuSans-73" d="M 2834 3397 
L 2834 2853 
Q 2591 2978 2328 3040 
Q 2066 3103 1784 3103 
Q 1356 3103 1142 2972 
Q 928 2841 928 2578 
Q 928 2378 1081 2264 
Q 1234 2150 1697 2047 
L 1894 2003 
Q 2506 1872 2764 1633 
Q 3022 1394 3022 966 
Q 3022 478 2636 193 
Q 2250 -91 1575 -91 
Q 1294 -91 989 -36 
Q 684 19 347 128 
L 347 722 
Q 666 556 975 473 
Q 1284 391 1588 391 
Q 1994 391 2212 530 
Q 2431 669 2431 922 
Q 2431 1156 2273 1281 
Q 2116 1406 1581 1522 
L 1381 1569 
Q 847 1681 609 1914 
Q 372 2147 372 2553 
Q 372 3047 722 3315 
Q 1072 3584 1716 3584 
Q 2034 3584 2315 3537 
Q 2597 3491 2834 3397 
z
" transform="scale(0.015625)"/>
    </defs>
    <use xlink:href="#DejaVuSans-45"/>
    <use xlink:href="#DejaVuSans-52" transform="translate(63.183594 0)"/>
    <use xlink:href="#DejaVuSans-44" transform="translate(132.666016 0)"/>
    <use xlink:href="#DejaVuSans-2f" transform="translate(209.667969 0)"/>
    <use xlink:href="#DejaVuSans-45" transform="translate(243.359375 0)"/>
    <use xlink:href="#DejaVuSans-52" transform="translate(306.542969 0)"/>
    <use xlink:href="#DejaVuSans-53" transform="translate(376.025391 0)"/>
    <use xlink:href="#DejaVuSans-20" transform="translate(439.501953 0)"/>
    <use xlink:href="#DejaVuSans-2014" transform="translate(471.289062 0)"/>
    <use xlink:href="#DejaVuSans-20" transform="translate(571.289062 0)"/>
    <use xlink:href="#DejaVuSans-4d" transform="translate(603.076172 0)"/>
    <use xlink:href="#DejaVuSans-45" transform="translate(689.355469 0)"/>
    <use xlink:href="#DejaVuSans-20" transform="translate(752.539062 0)"/>
    <use xlink:href="#DejaVuSans-2014" transform="translate(784.326172 0)"/>
    <use xlink:href="#DejaVuSans-20" transform="translate(884.326172 0)"/>
    <use xlink:href="#DejaVuSans-53" transform="translate(916.113281 0)"/>
    <use xlink:href="#DejaVuSans-30" transform="translate(979.589844 0)"/>
    <use xlink:href="#DejaVuSans-32" transform="translate(1043.212891 0)"/>
    <use xlink:href="#DejaVuSans-20" transform="translate(1106.835938 0)"/>
    <use xlink:href="#DejaVuSans-28" transform="translate(1138.623047 0)"/>
    <use xlink:href="#DejaVuSans-4d" transform="translate(1177.636719 0)"/>
    <use xlink:href="#DejaVuSans-6f" transform="translate(1263.916016 0)"/>
    <use xlink:href="#DejaVuSans-76" transform="translate(1325.097656 0)"/>
    <use xlink:href="#DejaVuSans-65" transform="translate(1384.277344 0)"/>
    <use xlink:href="#DejaVuSans-6d" transform="translate(1445.800781 0)"/>
    <use xlink:href="#DejaVuSans-65" transform="translate(1543.212891 0)"/>
    <use xlink:href="#DejaVuSans-6e" transform="translate(1604.736328 0)"/>
    <use xlink:href="#DejaVuSans-74" transform="translate(1668.115234 0)"/>
    <use xlink:href="#DejaVuSans-20" transform="translate(1707.324219 0)"/>
    <use xlink:href="#DejaVuSans-76" transform="translate(1739.111328 0)"/>
    <use xlink:href="#DejaVuSans-73" transform="translate(1798.291016 0)"/>
    <use xlink:href="#DejaVuSans-20" transform="translate(1850.390625 0)"/>
    <use xlink:href="#DejaVuSans-52" transform="translate(1882.177734 0)"/>
    <use xlink:href="#DejaVuSans-65" transform="translate(1947.160156 0)"/>
    <use xlink:href="#DejaVuSans-73" transform="translate(2008.683594 0)"/>
    <use xlink:href="#DejaVuSans-74" transform="translate(2060.783203 0)"/>
    <use xlink:href="#DejaVuSans-29" transform="translate(2099.992188 0)"/>
   </g>
  </g>
  <g id="legend_1">
   <g id="patch_23">
    <path d="M 663.350812 30.109375 
L 722.830031 30.109375 
Q 724.230031 30.109375 724.230031 28.709375 
L 724.230031 8.86 
Q 724.230031 7.46 722.830031 7.46 
L 663.350812 7.46 
Q 661.950812 7.46 661.950812 8.86 
L 661.950812 28.709375 
Q 661.950812 30.109375 663.350812 30.109375 
z
" style="fill: #ffffff; opacity: 0.8; stroke: #cccccc; stroke-linejoin: miter"/>
   </g>
   <g id="line2d_37">
    <path d="M 664.750812 13.128906 
L 671.750812 13.128906 
L 678.750812 13.128906 
" style="fill: none; stroke: #1f77b4; stroke-width: 1.3; stroke-linecap: square"/>
   </g>
   <g id="text_30">
    <!-- Movement -->
    <g transform="translate(684.350812 15.578906) scale(0.07 -0.07)">
     <use xlink:href="#DejaVuSans-4d"/>
     <use xlink:href="#DejaVuSans-6f" transform="translate(86.279297 0)"/>
     <use xlink:href="#DejaVuSans-76" transform="translate(147.460938 0)"/>
     <use xlink:href="#DejaVuSans-65" transform="translate(206.640625 0)"/>
     <use xlink:href="#DejaVuSans-6d" transform="translate(268.164062 0)"/>
     <use xlink:href="#DejaVuSans-65" transform="translate(365.576172 0)"/>
     <use xlink:href="#DejaVuSans-6e" transform="translate(427.099609 0)"/>
     <use xlink:href="#DejaVuSans-74" transform="translate(490.478516 0)"/>
    </g>
   </g>
   <g id="line2d_38">
    <path d="M 664.750812 23.403594 
L 671.750812 23.403594 
L 678.750812 23.403594 
" style="fill: none; stroke: #ff7f0e; stroke-width: 1.3; stroke-linecap: square"/>
   </g>
   <g id="text_31">
    <!-- rest -->
    <g transform="translate(684.350812 25.853594) scale(0.07 -0.07)">
     <use xlink:href="#DejaVuSans-72"/>
     <use xlink:href="#DejaVuSans-65" transform="translate(38.863281 0)"/>
     <use xlink:href="#DejaVuSans-73" transform="translate(100.386719 0)"/>
     <use xlink:href="#DejaVuSans-74" transform="translate(152.486328 0)"/>
    </g>
   </g>
  </g>
 </g>
 <defs>
  <clipPath id="p741f680699">
   <rect x="36.262031" y="59.28" width="211.113333" height="123.4"/>
  </clipPath>
  <clipPath id="p76512c6b0f">
   <rect x="272.875365" y="59.28" width="211.113333" height="123.4"/>
  </clipPath>
  <clipPath id="pfc1219ed32">
   <rect x="509.488698" y="59.28" width="211.113333" height="123.4"/>
  </clipPath>
 </defs>
</svg>
