<?xml version="1.0" encoding="utf-8" standalone="no"?>
<!DOCTYPE svg PUBLIC "-//W3C//DTD SVG 1.1//EN"
  "http://www.w3.org/Graphics/SVG/1.1/DTD/svg11.dtd">
<svg xmlns:xlink="http://www.w3.org/1999/xlink" width="731.430031pt" height="215.397188pt" viewBox="0 0 731.430031 215.397188" xmlns="http://www.w3.org/2000/svg" version="1.1">
 <metadata>
  <rdf:RDF xmlns:dc="http://purl.org/dc/elements/1.1/" xmlns:cc="http://creativecommons.org/ns#" xmlns:rdf="http://www.w3.org/1999/02/22-rdf-syntax-ns#">
   <cc:Work>
    <dc:type rdf:resource="http://purl.org/dc/dcmitype/StillImage"/>
    <dc:date>2026-06-26T22:25:40.574403</dc:date>
    <dc:format>image/svg+xml</dc:format>
    <dc:creator>
     <cc:Agent>
      <dc:title>Matplotlib v3.10.9, https://matplotlib.org/</dc:title>
     </cc:Agent>
    </dc:creator>
   </cc:Work>
  </rdf:RDF>
 </metadata>
 <defs>
  <style type="text/css">*{stroke-linejoin: round; stroke-linecap: butt}</style>
 </defs>
 <g id="figure_1">
  <g id="patch_1">
   <path d="M 0 215.397188 
L 731.430031 215.397188 
L 731.430031 0 
L 0 0 
L 0 215.397188 
z
" style="fill: none"/>
  </g>
  <g id="axes_1">
   <g id="patch_2">
    <path d="M 36.262031 182.68 
L 247.375365 182.68 
L 247.375365 59.28 
L 36.262031 59.28 
L 36.262031 182.68 
z
" style="fill: none"/>
   </g>
   <g id="patch_3">
    <path d="M 76.391012 182.68 
L 98.200241 182.68 
L 98.200241 59.28 
L 76.391012 59.28 
z
" clip-path="url(#p56070693b0)" style="fill: #d9d9d9; stroke: #d9d9d9; stroke-linejoin: miter"/>
   </g>
   <g id="patch_4">
    <path d="M 98.200241 182.68 
L 172.351618 182.68 
L 172.351618 59.28 
L 98.200241 59.28 
z
" clip-path="url(#p56070693b0)" style="fill: #ebebeb; stroke: #ebebeb; stroke-linejoin: miter"/>
   </g>
   <g id="FillBetweenPolyCollection_1">
    <defs>
     <path id="mfd1121b5e5" d="M 45.858092 -104.434558 
L 45.858092 -88.362662 
L 48.039015 -90.231648 
L 50.219938 -90.046715 
L 52.40086 -88.376286 
L 54.581783 -86.510936 
L 56.762706 -83.044056 
L 58.943629 -77.409706 
L 61.124552 -71.822158 
L 63.305475 -66.76548 
L 65.486398 -63.114777 
L 67.667321 -60.628821 
L 69.848243 -58.987336 
L 72.029166 -54.823772 
L 74.210089 -51.636757 
L 76.391012 -46.411444 
L 78.571935 -42.31953 
L 80.752858 -41.040468 
L 82.933781 -44.018327 
L 85.114703 -46.574099 
L 87.295626 -48.349407 
L 89.476549 -51.487796 
L 91.657472 -57.676288 
L 93.838395 -66.817876 
L 96.019318 -75.495101 
L 98.200241 -77.277242 
L 100.381163 -68.047461 
L 102.562086 -59.188687 
L 104.743009 -55.751221 
L 106.923932 -52.299718 
L 109.104855 -49.996763 
L 111.285778 -46.45423 
L 113.466701 -43.542977 
L 115.647624 -42.262834 
L 117.828546 -40.559456 
L 120.009469 -39.089155 
L 122.190392 -38.326278 
L 124.371315 -41.869997 
L 126.552238 -45.513846 
L 128.733161 -48.172545 
L 130.914084 -46.487499 
L 133.095006 -43.188525 
L 135.275929 -41.770978 
L 137.456852 -42.618894 
L 139.637775 -45.494952 
L 141.818698 -51.639593 
L 143.999621 -61.948296 
L 146.180544 -70.098871 
L 148.361467 -73.328937 
L 150.542389 -76.622267 
L 152.723312 -81.280572 
L 154.904235 -82.71162 
L 157.085158 -83.444932 
L 159.266081 -87.128589 
L 161.447004 -90.258567 
L 163.627927 -88.317487 
L 165.808849 -81.172666 
L 167.989772 -75.839022 
L 170.170695 -73.544654 
L 172.351618 -71.393925 
L 174.532541 -68.332882 
L 176.713464 -66.710509 
L 178.894387 -64.376188 
L 181.075309 -63.146046 
L 183.256232 -61.900727 
L 185.437155 -61.232102 
L 187.618078 -62.189698 
L 189.799001 -62.500575 
L 191.979924 -64.825131 
L 194.160847 -68.599158 
L 196.34177 -71.557402 
L 198.522692 -74.382836 
L 200.703615 -77.933317 
L 202.884538 -80.578859 
L 205.065461 -80.099853 
L 207.246384 -78.04559 
L 209.427307 -76.479615 
L 211.60823 -76.438794 
L 213.789152 -78.191784 
L 215.970075 -81.961435 
L 218.150998 -87.140842 
L 220.331921 -88.493402 
L 222.512844 -87.578199 
L 224.693767 -84.700956 
L 226.87469 -80.496066 
L 229.055613 -78.060384 
L 231.236535 -78.456812 
L 233.417458 -80.632627 
L 235.598381 -85.52601 
L 237.779304 -89.646577 
L 237.779304 -105.165274 
L 237.779304 -105.165274 
L 235.598381 -101.817927 
L 233.417458 -97.221243 
L 231.236535 -95.474839 
L 229.055613 -93.77747 
L 226.87469 -94.366891 
L 224.693767 -98.924896 
L 222.512844 -102.800879 
L 220.331921 -103.717326 
L 218.150998 -101.698808 
L 215.970075 -96.594611 
L 213.789152 -93.549191 
L 211.60823 -92.071696 
L 209.427307 -92.236704 
L 207.246384 -92.824019 
L 205.065461 -95.088369 
L 202.884538 -96.036483 
L 200.703615 -92.934776 
L 198.522692 -88.971318 
L 196.34177 -86.669617 
L 194.160847 -85.16312 
L 191.979924 -80.939916 
L 189.799001 -79.203843 
L 187.618078 -80.788775 
L 185.437155 -79.757651 
L 183.256232 -79.465479 
L 181.075309 -80.442407 
L 178.894387 -81.654461 
L 176.713464 -82.868516 
L 174.532541 -83.487301 
L 172.351618 -86.487407 
L 170.170695 -89.419871 
L 167.989772 -92.258242 
L 165.808849 -97.371793 
L 163.627927 -104.486592 
L 161.447004 -106.627691 
L 159.266081 -103.541558 
L 157.085158 -99.716412 
L 154.904235 -99.316812 
L 152.723312 -98.54842 
L 150.542389 -93.665525 
L 148.361467 -89.491796 
L 146.180544 -87.002418 
L 143.999621 -78.470357 
L 141.818698 -67.650291 
L 139.637775 -61.628853 
L 137.456852 -58.284152 
L 135.275929 -57.124435 
L 133.095006 -59.062193 
L 130.914084 -62.627677 
L 128.733161 -63.617393 
L 126.552238 -62.49573 
L 124.371315 -59.941625 
L 122.190392 -56.420785 
L 120.009469 -57.081935 
L 117.828546 -58.466625 
L 115.647624 -60.492637 
L 113.466701 -62.30928 
L 111.285778 -64.39931 
L 109.104855 -66.864544 
L 106.923932 -70.188462 
L 104.743009 -73.025661 
L 102.562086 -75.447584 
L 100.381163 -84.453773 
L 98.200241 -93.86662 
L 96.019318 -91.39053 
L 93.838395 -83.848144 
L 91.657472 -76.270671 
L 89.476549 -70.798612 
L 87.295626 -67.823875 
L 85.114703 -65.210367 
L 82.933781 -61.349222 
L 80.752858 -57.977648 
L 78.571935 -60.349739 
L 76.391012 -65.513107 
L 74.210089 -69.990346 
L 72.029166 -73.120174 
L 69.848243 -78.025983 
L 67.667321 -79.907535 
L 65.486398 -81.849498 
L 63.305475 -84.231303 
L 61.124552 -89.432349 
L 58.943629 -94.959688 
L 56.762706 -100.904409 
L 54.581783 -104.256029 
L 52.40086 -104.170321 
L 50.219938 -104.972942 
L 48.039015 -105.334964 
L 45.858092 -104.434558 
z
" style="stroke: #1f77b4; stroke-opacity: 0.15"/>
    </defs>
    <g clip-path="url(#p56070693b0)">
     <use xlink:href="#mfd1121b5e5" x="0" y="215.397188" style="fill: #1f77b4; fill-opacity: 0.15; stroke: #1f77b4; stroke-opacity: 0.15"/>
    </g>
   </g>
   <g id="FillBetweenPolyCollection_2">
    <defs>
     <path id="m8aeda20192" d="M 45.858092 -109.5721 
L 45.858092 -72.534781 
L 48.039015 -74.306678 
L 50.219938 -78.830012 
L 52.40086 -82.638888 
L 54.581783 -76.676308 
L 56.762706 -72.166978 
L 58.943629 -69.772443 
L 61.124552 -71.19385 
L 63.305475 -72.190535 
L 65.486398 -70.803665 
L 67.667321 -68.978186 
L 69.848243 -72.736584 
L 72.029166 -76.081678 
L 74.210089 -68.093717 
L 76.391012 -58.792581 
L 78.571935 -57.429145 
L 80.752858 -69.106789 
L 82.933781 -77.78968 
L 85.114703 -84.91589 
L 87.295626 -87.705498 
L 89.476549 -88.028165 
L 91.657472 -88.587171 
L 93.838395 -87.738752 
L 96.019318 -88.00812 
L 98.200241 -79.680419 
L 100.381163 -73.037079 
L 102.562086 -77.131499 
L 104.743009 -80.261692 
L 106.923932 -81.621427 
L 109.104855 -77.925022 
L 111.285778 -77.158578 
L 113.466701 -78.432053 
L 115.647624 -79.734571 
L 117.828546 -74.316543 
L 120.009469 -65.149761 
L 122.190392 -60.82414 
L 124.371315 -64.181417 
L 126.552238 -74.443898 
L 128.733161 -80.06368 
L 130.914084 -78.663959 
L 133.095006 -83.166191 
L 135.275929 -89.397414 
L 137.456852 -94.455762 
L 139.637775 -92.805694 
L 141.818698 -82.570041 
L 143.999621 -77.328798 
L 146.180544 -78.13366 
L 148.361467 -79.886579 
L 150.542389 -80.442061 
L 152.723312 -80.794078 
L 154.904235 -79.334612 
L 157.085158 -76.368993 
L 159.266081 -80.142303 
L 161.447004 -86.802949 
L 163.627927 -95.276958 
L 165.808849 -91.543156 
L 167.989772 -83.300647 
L 170.170695 -78.315859 
L 172.351618 -75.478945 
L 174.532541 -78.401832 
L 176.713464 -81.675662 
L 178.894387 -87.714672 
L 181.075309 -90.785154 
L 183.256232 -91.01941 
L 185.437155 -95.083261 
L 187.618078 -96.50551 
L 189.799001 -95.483251 
L 191.979924 -91.616125 
L 194.160847 -88.661089 
L 196.34177 -88.904573 
L 198.522692 -88.511011 
L 200.703615 -85.072862 
L 202.884538 -82.973576 
L 205.065461 -84.823878 
L 207.246384 -88.334699 
L 209.427307 -92.300463 
L 211.60823 -97.217149 
L 213.789152 -93.971414 
L 215.970075 -87.428691 
L 218.150998 -83.874116 
L 220.331921 -85.001775 
L 222.512844 -81.038621 
L 224.693767 -80.83246 
L 226.87469 -84.491474 
L 229.055613 -84.963304 
L 231.236535 -85.114028 
L 233.417458 -88.893739 
L 235.598381 -90.081597 
L 237.779304 -95.506051 
L 237.779304 -130.381212 
L 237.779304 -130.381212 
L 235.598381 -120.923596 
L 233.417458 -117.663765 
L 231.236535 -119.626164 
L 229.055613 -115.486442 
L 226.87469 -111.678817 
L 224.693767 -107.983857 
L 222.512844 -110.989694 
L 220.331921 -119.873149 
L 218.150998 -117.581146 
L 215.970075 -118.863311 
L 213.789152 -124.858492 
L 211.60823 -128.782528 
L 209.427307 -122.816019 
L 207.246384 -117.330283 
L 205.065461 -114.070092 
L 202.884538 -114.789374 
L 200.703615 -116.107743 
L 198.522692 -119.546237 
L 196.34177 -121.867744 
L 194.160847 -120.525171 
L 191.979924 -125.649969 
L 189.799001 -128.411599 
L 187.618078 -129.260069 
L 185.437155 -131.082057 
L 183.256232 -123.352139 
L 181.075309 -123.981483 
L 178.894387 -122.953933 
L 176.713464 -117.028766 
L 174.532541 -114.067006 
L 172.351618 -111.978419 
L 170.170695 -108.164486 
L 167.989772 -112.494149 
L 165.808849 -119.840068 
L 163.627927 -118.655821 
L 161.447004 -114.765189 
L 159.266081 -109.321791 
L 157.085158 -102.952981 
L 154.904235 -107.022486 
L 152.723312 -112.834325 
L 150.542389 -111.371171 
L 148.361467 -108.593954 
L 146.180544 -109.582655 
L 143.999621 -108.244333 
L 141.818698 -114.230869 
L 139.637775 -126.144855 
L 137.456852 -131.240678 
L 135.275929 -126.087365 
L 133.095006 -117.636582 
L 130.914084 -114.086286 
L 128.733161 -110.986551 
L 126.552238 -103.528006 
L 124.371315 -96.881246 
L 122.190392 -98.057902 
L 120.009469 -105.414858 
L 117.828546 -110.799861 
L 115.647624 -111.865852 
L 113.466701 -110.442921 
L 111.285778 -111.835141 
L 109.104855 -114.734554 
L 106.923932 -119.235446 
L 104.743009 -118.277273 
L 102.562086 -113.85354 
L 100.381163 -109.077991 
L 98.200241 -114.059144 
L 96.019318 -117.479272 
L 93.838395 -119.664701 
L 91.657472 -122.726167 
L 89.476549 -125.724957 
L 87.295626 -127.045779 
L 85.114703 -125.576047 
L 82.933781 -117.641718 
L 80.752858 -107.711336 
L 78.571935 -101.014461 
L 76.391012 -105.65612 
L 74.210089 -110.841953 
L 72.029166 -110.800698 
L 69.848243 -107.932587 
L 67.667321 -108.969963 
L 65.486398 -115.49345 
L 63.305475 -116.394558 
L 61.124552 -115.604851 
L 58.943629 -116.506649 
L 56.762706 -115.760668 
L 54.581783 -118.125572 
L 52.40086 -123.782235 
L 50.219938 -110.606174 
L 48.039015 -107.393972 
L 45.858092 -109.5721 
z
" style="stroke: #ff7f0e; stroke-opacity: 0.15"/>
    </defs>
    <g clip-path="url(#p56070693b0)">
     <use xlink:href="#m8aeda20192" x="0" y="215.397188" style="fill: #ff7f0e; fill-opacity: 0.15; stroke: #ff7f0e; stroke-opacity: 0.15"/>
    </g>
   </g>
   <g id="line2d_1">
    <path d="M 36.262031 105.790171 
L 247.375365 105.790171 
" clip-path="url(#p56070693b0)" style="fill: none; stroke-dasharray: 2.96,1.28; stroke-dashoffset: 0; stroke: #000000; stroke-width: 0.8"/>
   </g>
   <g id="matplotlib.axis_1">
    <g id="xtick_1">
     <g id="line2d_2">
      <defs>
       <path id="me1e0930a97" d="M 0 0 
L 0 3.5 
" style="stroke: #000000; stroke-width: 0.8"/>
      </defs>
      <g>
       <use xlink:href="#me1e0930a97" x="41.496246" y="182.68" style="stroke: #000000; stroke-width: 0.8"/>
      </g>
     </g>
     <g id="text_1">
      <!-- 0 -->
      <g transform="translate(39.269371 194.998906) scale(0.07 -0.07)">
       <defs>
        <path id="DejaVuSans-30" d="M 2034 4250 
Q 1547 4250 1301 3770 
Q 1056 3291 1056 2328 
Q 1056 1369 1301 889 
Q 1547 409 2034 409 
Q 2525 409 2770 889 
Q 3016 1369 3016 2328 
Q 3016 3291 2770 3770 
Q 2525 4250 2034 4250 
z
M 2034 4750 
Q 2819 4750 3233 4129 
Q 3647 3509 3647 2328 
Q 3647 1150 3233 529 
Q 2819 -91 2034 -91 
Q 1250 -91 836 529 
Q 422 1150 422 2328 
Q 422 3509 836 4129 
Q 1250 4750 2034 4750 
z
" transform="scale(0.015625)"/>
       </defs>
       <use xlink:href="#DejaVuSans-30"/>
      </g>
     </g>
    </g>
    <g id="xtick_2">
     <g id="line2d_3">
      <g>
       <use xlink:href="#me1e0930a97" x="85.114703" y="182.68" style="stroke: #000000; stroke-width: 0.8"/>
      </g>
     </g>
     <g id="text_2">
      <!-- 10 -->
      <g transform="translate(80.660953 194.998906) scale(0.07 -0.07)">
       <defs>
        <path id="DejaVuSans-31" d="M 794 531 
L 1825 531 
L 1825 4091 
L 703 3866 
L 703 4441 
L 1819 4666 
L 2450 4666 
L 2450 531 
L 3481 531 
L 3481 0 
L 794 0 
L 794 531 
z
" transform="scale(0.015625)"/>
       </defs>
       <use xlink:href="#DejaVuSans-31"/>
       <use xlink:href="#DejaVuSans-30" transform="translate(63.623047 0)"/>
      </g>
     </g>
    </g>
    <g id="xtick_3">
     <g id="line2d_4">
      <g>
       <use xlink:href="#me1e0930a97" x="128.733161" y="182.68" style="stroke: #000000; stroke-width: 0.8"/>
      </g>
     </g>
     <g id="text_3">
      <!-- 20 -->
      <g transform="translate(124.279411 194.998906) scale(0.07 -0.07)">
       <defs>
        <path id="DejaVuSans-32" d="M 1228 531 
L 3431 531 
L 3431 0 
L 469 0 
L 469 531 
Q 828 903 1448 1529 
Q 2069 2156 2228 2338 
Q 2531 2678 2651 2914 
Q 2772 3150 2772 3378 
Q 2772 3750 2511 3984 
Q 2250 4219 1831 4219 
Q 1534 4219 1204 4116 
Q 875 4013 500 3803 
L 500 4441 
Q 881 4594 1212 4672 
Q 1544 4750 1819 4750 
Q 2544 4750 2975 4387 
Q 3406 4025 3406 3419 
Q 3406 3131 3298 2873 
Q 3191 2616 2906 2266 
Q 2828 2175 2409 1742 
Q 1991 1309 1228 531 
z
" transform="scale(0.015625)"/>
       </defs>
       <use xlink:href="#DejaVuSans-32"/>
       <use xlink:href="#DejaVuSans-30" transform="translate(63.623047 0)"/>
      </g>
     </g>
    </g>
    <g id="xtick_4">
     <g id="line2d_5">
      <g>
       <use xlink:href="#me1e0930a97" x="172.351618" y="182.68" style="stroke: #000000; stroke-width: 0.8"/>
      </g>
     </g>
     <g id="text_4">
      <!-- 30 -->
      <g transform="translate(167.897868 194.998906) scale(0.07 -0.07)">
       <defs>
        <path id="DejaVuSans-33" d="M 2597 2516 
Q 3050 2419 3304 2112 
Q 3559 1806 3559 1356 
Q 3559 666 3084 287 
Q 2609 -91 1734 -91 
Q 1441 -91 1130 -33 
Q 819 25 488 141 
L 488 750 
Q 750 597 1062 519 
Q 1375 441 1716 441 
Q 2309 441 2620 675 
Q 2931 909 2931 1356 
Q 2931 1769 2642 2001 
Q 2353 2234 1838 2234 
L 1294 2234 
L 1294 2753 
L 1863 2753 
Q 2328 2753 2575 2939 
Q 2822 3125 2822 3475 
Q 2822 3834 2567 4026 
Q 2313 4219 1838 4219 
Q 1578 4219 1281 4162 
Q 984 4106 628 3988 
L 628 4550 
Q 988 4650 1302 4700 
Q 1616 4750 1894 4750 
Q 2613 4750 3031 4423 
Q 3450 4097 3450 3541 
Q 3450 3153 3228 2886 
Q 3006 2619 2597 2516 
z
" transform="scale(0.015625)"/>
       </defs>
       <use xlink:href="#DejaVuSans-33"/>
       <use xlink:href="#DejaVuSans-30" transform="translate(63.623047 0)"/>
      </g>
     </g>
    </g>
    <g id="xtick_5">
     <g id="line2d_6">
      <g>
       <use xlink:href="#me1e0930a97" x="215.970075" y="182.68" style="stroke: #000000; stroke-width: 0.8"/>
      </g>
     </g>
     <g id="text_5">
      <!-- 40 -->
      <g transform="translate(211.516325 194.998906) scale(0.07 -0.07)">
       <defs>
        <path id="DejaVuSans-34" d="M 2419 4116 
L 825 1625 
L 2419 1625 
L 2419 4116 
z
M 2253 4666 
L 3047 4666 
L 3047 1625 
L 3713 1625 
L 3713 1100 
L 3047 1100 
L 3047 0 
L 2419 0 
L 2419 1100 
L 313 1100 
L 313 1709 
L 2253 4666 
z
" transform="scale(0.015625)"/>
       </defs>
       <use xlink:href="#DejaVuSans-34"/>
       <use xlink:href="#DejaVuSans-30" transform="translate(63.623047 0)"/>
      </g>
     </g>
    </g>
    <g id="text_6">
     <!-- Frequency (Hz) -->
     <g transform="translate(111.654948 206.533437) scale(0.08 -0.08)">
      <defs>
       <path id="DejaVuSans-46" d="M 628 4666 
L 3309 4666 
L 3309 4134 
L 1259 4134 
L 1259 2759 
L 3109 2759 
L 3109 2228 
L 1259 2228 
L 1259 0 
L 628 0 
L 628 4666 
z
" transform="scale(0.015625)"/>
       <path id="DejaVuSans-72" d="M 2631 2963 
Q 2534 3019 2420 3045 
Q 2306 3072 2169 3072 
Q 1681 3072 1420 2755 
Q 1159 2438 1159 1844 
L 1159 0 
L 581 0 
L 581 3500 
L 1159 3500 
L 1159 2956 
Q 1341 3275 1631 3429 
Q 1922 3584 2338 3584 
Q 2397 3584 2469 3576 
Q 2541 3569 2628 3553 
L 2631 2963 
z
" transform="scale(0.015625)"/>
       <path id="DejaVuSans-65" d="M 3597 1894 
L 3597 1613 
L 953 1613 
Q 991 1019 1311 708 
Q 1631 397 2203 397 
Q 2534 397 2845 478 
Q 3156 559 3463 722 
L 3463 178 
Q 3153 47 2828 -22 
Q 2503 -91 2169 -91 
Q 1331 -91 842 396 
Q 353 884 353 1716 
Q 353 2575 817 3079 
Q 1281 3584 2069 3584 
Q 2775 3584 3186 3129 
Q 3597 2675 3597 1894 
z
M 3022 2063 
Q 3016 2534 2758 2815 
Q 2500 3097 2075 3097 
Q 1594 3097 1305 2825 
Q 1016 2553 972 2059 
L 3022 2063 
z
" transform="scale(0.015625)"/>
       <path id="DejaVuSans-71" d="M 947 1747 
Q 947 1113 1208 752 
Q 1469 391 1925 391 
Q 2381 391 2643 752 
Q 2906 1113 2906 1747 
Q 2906 2381 2643 2742 
Q 2381 3103 1925 3103 
Q 1469 3103 1208 2742 
Q 947 2381 947 1747 
z
M 2906 525 
Q 2725 213 2448 61 
Q 2172 -91 1784 -91 
Q 1150 -91 751 415 
Q 353 922 353 1747 
Q 353 2572 751 3078 
Q 1150 3584 1784 3584 
Q 2172 3584 2448 3432 
Q 2725 3281 2906 2969 
L 2906 3500 
L 3481 3500 
L 3481 -1331 
L 2906 -1331 
L 2906 525 
z
" transform="scale(0.015625)"/>
       <path id="DejaVuSans-75" d="M 544 1381 
L 544 3500 
L 1119 3500 
L 1119 1403 
Q 1119 906 1312 657 
Q 1506 409 1894 409 
Q 2359 409 2629 706 
Q 2900 1003 2900 1516 
L 2900 3500 
L 3475 3500 
L 3475 0 
L 2900 0 
L 2900 538 
Q 2691 219 2414 64 
Q 2138 -91 1772 -91 
Q 1169 -91 856 284 
Q 544 659 544 1381 
z
M 1991 3584 
L 1991 3584 
z
" transform="scale(0.015625)"/>
       <path id="DejaVuSans-6e" d="M 3513 2113 
L 3513 0 
L 2938 0 
L 2938 2094 
Q 2938 2591 2744 2837 
Q 2550 3084 2163 3084 
Q 1697 3084 1428 2787 
Q 1159 2491 1159 1978 
L 1159 0 
L 581 0 
L 581 3500 
L 1159 3500 
L 1159 2956 
Q 1366 3272 1645 3428 
Q 1925 3584 2291 3584 
Q 2894 3584 3203 3211 
Q 3513 2838 3513 2113 
z
" transform="scale(0.015625)"/>
       <path id="DejaVuSans-63" d="M 3122 3366 
L 3122 2828 
Q 2878 2963 2633 3030 
Q 2388 3097 2138 3097 
Q 1578 3097 1268 2742 
Q 959 2388 959 1747 
Q 959 1106 1268 751 
Q 1578 397 2138 397 
Q 2388 397 2633 464 
Q 2878 531 3122 666 
L 3122 134 
Q 2881 22 2623 -34 
Q 2366 -91 2075 -91 
Q 1284 -91 818 406 
Q 353 903 353 1747 
Q 353 2603 823 3093 
Q 1294 3584 2113 3584 
Q 2378 3584 2631 3529 
Q 2884 3475 3122 3366 
z
" transform="scale(0.015625)"/>
       <path id="DejaVuSans-79" d="M 2059 -325 
Q 1816 -950 1584 -1140 
Q 1353 -1331 966 -1331 
L 506 -1331 
L 506 -850 
L 844 -850 
Q 1081 -850 1212 -737 
Q 1344 -625 1503 -206 
L 1606 56 
L 191 3500 
L 800 3500 
L 1894 763 
L 2988 3500 
L 3597 3500 
L 2059 -325 
z
" transform="scale(0.015625)"/>
       <path id="DejaVuSans-20" transform="scale(0.015625)"/>
       <path id="DejaVuSans-28" d="M 1984 4856 
Q 1566 4138 1362 3434 
Q 1159 2731 1159 2009 
Q 1159 1288 1364 580 
Q 1569 -128 1984 -844 
L 1484 -844 
Q 1016 -109 783 600 
Q 550 1309 550 2009 
Q 550 2706 781 3412 
Q 1013 4119 1484 4856 
L 1984 4856 
z
" transform="scale(0.015625)"/>
       <path id="DejaVuSans-48" d="M 628 4666 
L 1259 4666 
L 1259 2753 
L 3553 2753 
L 3553 4666 
L 4184 4666 
L 4184 0 
L 3553 0 
L 3553 2222 
L 1259 2222 
L 1259 0 
L 628 0 
L 628 4666 
z
" transform="scale(0.015625)"/>
       <path id="DejaVuSans-7a" d="M 353 3500 
L 3084 3500 
L 3084 2975 
L 922 459 
L 3084 459 
L 3084 0 
L 275 0 
L 275 525 
L 2438 3041 
L 353 3041 
L 353 3500 
z
" transform="scale(0.015625)"/>
       <path id="DejaVuSans-29" d="M 513 4856 
L 1013 4856 
Q 1481 4119 1714 3412 
Q 1947 2706 1947 2009 
Q 1947 1309 1714 600 
Q 1481 -109 1013 -844 
L 513 -844 
Q 928 -128 1133 580 
Q 1338 1288 1338 2009 
Q 1338 2731 1133 3434 
Q 928 4138 513 4856 
z
" transform="scale(0.015625)"/>
      </defs>
      <use xlink:href="#DejaVuSans-46"/>
      <use xlink:href="#DejaVuSans-72" transform="translate(50.269531 0)"/>
      <use xlink:href="#DejaVuSans-65" transform="translate(89.132812 0)"/>
      <use xlink:href="#DejaVuSans-71" transform="translate(150.65625 0)"/>
      <use xlink:href="#DejaVuSans-75" transform="translate(214.132812 0)"/>
      <use xlink:href="#DejaVuSans-65" transform="translate(277.511719 0)"/>
      <use xlink:href="#DejaVuSans-6e" transform="translate(339.035156 0)"/>
      <use xlink:href="#DejaVuSans-63" transform="translate(402.414062 0)"/>
      <use xlink:href="#DejaVuSans-79" transform="translate(457.394531 0)"/>
      <use xlink:href="#DejaVuSans-20" transform="translate(516.574219 0)"/>
      <use xlink:href="#DejaVuSans-28" transform="translate(548.361328 0)"/>
      <use xlink:href="#DejaVuSans-48" transform="translate(587.375 0)"/>
      <use xlink:href="#DejaVuSans-7a" transform="translate(662.570312 0)"/>
      <use xlink:href="#DejaVuSans-29" transform="translate(715.060547 0)"/>
     </g>
    </g>
   </g>
   <g id="matplotlib.axis_2">
    <g id="ytick_1">
     <g id="line2d_7">
      <defs>
       <path id="m69483ac420" d="M 0 0 
L -3.5 0 
" style="stroke: #000000; stroke-width: 0.8"/>
      </defs>
      <g>
       <use xlink:href="#m69483ac420" x="36.262031" y="174.741203" style="stroke: #000000; stroke-width: 0.8"/>
      </g>
     </g>
     <g id="text_7">
      <!-- −4 -->
      <g transform="translate(18.9425 177.400656) scale(0.07 -0.07)">
       <defs>
        <path id="DejaVuSans-2212" d="M 678 2272 
L 4684 2272 
L 4684 1741 
L 678 1741 
L 678 2272 
z
" transform="scale(0.015625)"/>
       </defs>
       <use xlink:href="#DejaVuSans-2212"/>
       <use xlink:href="#DejaVuSans-34" transform="translate(83.789062 0)"/>
      </g>
     </g>
    </g>
    <g id="ytick_2">
     <g id="line2d_8">
      <g>
       <use xlink:href="#m69483ac420" x="36.262031" y="157.503445" style="stroke: #000000; stroke-width: 0.8"/>
      </g>
     </g>
     <g id="text_8">
      <!-- −3 -->
      <g transform="translate(18.9425 160.162898) scale(0.07 -0.07)">
       <use xlink:href="#DejaVuSans-2212"/>
       <use xlink:href="#DejaVuSans-33" transform="translate(83.789062 0)"/>
      </g>
     </g>
    </g>
    <g id="ytick_3">
     <g id="line2d_9">
      <g>
       <use xlink:href="#m69483ac420" x="36.262031" y="140.265687" style="stroke: #000000; stroke-width: 0.8"/>
      </g>
     </g>
     <g id="text_9">
      <!-- −2 -->
      <g transform="translate(18.9425 142.92514) scale(0.07 -0.07)">
       <use xlink:href="#DejaVuSans-2212"/>
       <use xlink:href="#DejaVuSans-32" transform="translate(83.789062 0)"/>
      </g>
     </g>
    </g>
    <g id="ytick_4">
     <g id="line2d_10">
      <g>
       <use xlink:href="#m69483ac420" x="36.262031" y="123.027929" style="stroke: #000000; stroke-width: 0.8"/>
      </g>
     </g>
     <g id="text_10">
      <!-- −1 -->
      <g transform="translate(18.9425 125.687382) scale(0.07 -0.07)">
       <use xlink:href="#DejaVuSans-2212"/>
       <use xlink:href="#DejaVuSans-31" transform="translate(83.789062 0)"/>
      </g>
     </g>
    </g>
    <g id="ytick_5">
     <g id="line2d_11">
      <g>
       <use xlink:href="#m69483ac420" x="36.262031" y="105.790171" style="stroke: #000000; stroke-width: 0.8"/>
      </g>
     </g>
     <g id="text_11">
      <!-- 0 -->
      <g transform="translate(24.808281 108.449624) scale(0.07 -0.07)">
       <use xlink:href="#DejaVuSans-30"/>
      </g>
     </g>
    </g>
    <g id="ytick_6">
     <g id="line2d_12">
      <g>
       <use xlink:href="#m69483ac420" x="36.262031" y="88.552413" style="stroke: #000000; stroke-width: 0.8"/>
      </g>
     </g>
     <g id="text_12">
      <!-- 1 -->
      <g transform="translate(24.808281 91.211866) scale(0.07 -0.07)">
       <use xlink:href="#DejaVuSans-31"/>
      </g>
     </g>
    </g>
    <g id="ytick_7">
     <g id="line2d_13">
      <g>
       <use xlink:href="#m69483ac420" x="36.262031" y="71.314655" style="stroke: #000000; stroke-width: 0.8"/>
      </g>
     </g>
     <g id="text_13">
      <!-- 2 -->
      <g transform="translate(24.808281 73.974108) scale(0.07 -0.07)">
       <use xlink:href="#DejaVuSans-32"/>
      </g>
     </g>
    </g>
    <g id="text_14">
     <!-- ERD/ERS (dB) -->
     <g transform="translate(13.27875 148.236875) rotate(-90) scale(0.08 -0.08)">
      <defs>
       <path id="DejaVuSans-45" d="M 628 4666 
L 3578 4666 
L 3578 4134 
L 1259 4134 
L 1259 2753 
L 3481 2753 
L 3481 2222 
L 1259 2222 
L 1259 531 
L 3634 531 
L 3634 0 
L 628 0 
L 628 4666 
z
" transform="scale(0.015625)"/>
       <path id="DejaVuSans-52" d="M 2841 2188 
Q 3044 2119 3236 1894 
Q 3428 1669 3622 1275 
L 4263 0 
L 3584 0 
L 2988 1197 
Q 2756 1666 2539 1819 
Q 2322 1972 1947 1972 
L 1259 1972 
L 1259 0 
L 628 0 
L 628 4666 
L 2053 4666 
Q 2853 4666 3247 4331 
Q 3641 3997 3641 3322 
Q 3641 2881 3436 2590 
Q 3231 2300 2841 2188 
z
M 1259 4147 
L 1259 2491 
L 2053 2491 
Q 2509 2491 2742 2702 
Q 2975 2913 2975 3322 
Q 2975 3731 2742 3939 
Q 2509 4147 2053 4147 
L 1259 4147 
z
" transform="scale(0.015625)"/>
       <path id="DejaVuSans-44" d="M 1259 4147 
L 1259 519 
L 2022 519 
Q 2988 519 3436 956 
Q 3884 1394 3884 2338 
Q 3884 3275 3436 3711 
Q 2988 4147 2022 4147 
L 1259 4147 
z
M 628 4666 
L 1925 4666 
Q 3281 4666 3915 4102 
Q 4550 3538 4550 2338 
Q 4550 1131 3912 565 
Q 3275 0 1925 0 
L 628 0 
L 628 4666 
z
" transform="scale(0.015625)"/>
       <path id="DejaVuSans-2f" d="M 1625 4666 
L 2156 4666 
L 531 -594 
L 0 -594 
L 1625 4666 
z
" transform="scale(0.015625)"/>
       <path id="DejaVuSans-53" d="M 3425 4513 
L 3425 3897 
Q 3066 4069 2747 4153 
Q 2428 4238 2131 4238 
Q 1616 4238 1336 4038 
Q 1056 3838 1056 3469 
Q 1056 3159 1242 3001 
Q 1428 2844 1947 2747 
L 2328 2669 
Q 3034 2534 3370 2195 
Q 3706 1856 3706 1288 
Q 3706 609 3251 259 
Q 2797 -91 1919 -91 
Q 1588 -91 1214 -16 
Q 841 59 441 206 
L 441 856 
Q 825 641 1194 531 
Q 1563 422 1919 422 
Q 2459 422 2753 634 
Q 3047 847 3047 1241 
Q 3047 1584 2836 1778 
Q 2625 1972 2144 2069 
L 1759 2144 
Q 1053 2284 737 2584 
Q 422 2884 422 3419 
Q 422 4038 858 4394 
Q 1294 4750 2059 4750 
Q 2388 4750 2728 4690 
Q 3069 4631 3425 4513 
z
" transform="scale(0.015625)"/>
       <path id="DejaVuSans-64" d="M 2906 2969 
L 2906 4863 
L 3481 4863 
L 3481 0 
L 2906 0 
L 2906 525 
Q 2725 213 2448 61 
Q 2172 -91 1784 -91 
Q 1150 -91 751 415 
Q 353 922 353 1747 
Q 353 2572 751 3078 
Q 1150 3584 1784 3584 
Q 2172 3584 2448 3432 
Q 2725 3281 2906 2969 
z
M 947 1747 
Q 947 1113 1208 752 
Q 1469 391 1925 391 
Q 2381 391 2643 752 
Q 2906 1113 2906 1747 
Q 2906 2381 2643 2742 
Q 2381 3103 1925 3103 
Q 1469 3103 1208 2742 
Q 947 2381 947 1747 
z
" transform="scale(0.015625)"/>
       <path id="DejaVuSans-42" d="M 1259 2228 
L 1259 519 
L 2272 519 
Q 2781 519 3026 730 
Q 3272 941 3272 1375 
Q 3272 1813 3026 2020 
Q 2781 2228 2272 2228 
L 1259 2228 
z
M 1259 4147 
L 1259 2741 
L 2194 2741 
Q 2656 2741 2882 2914 
Q 3109 3088 3109 3444 
Q 3109 3797 2882 3972 
Q 2656 4147 2194 4147 
L 1259 4147 
z
M 628 4666 
L 2241 4666 
Q 2963 4666 3353 4366 
Q 3744 4066 3744 3513 
Q 3744 3084 3544 2831 
Q 3344 2578 2956 2516 
Q 3422 2416 3680 2098 
Q 3938 1781 3938 1306 
Q 3938 681 3513 340 
Q 3088 0 2303 0 
L 628 0 
L 628 4666 
z
" transform="scale(0.015625)"/>
      </defs>
      <use xlink:href="#DejaVuSans-45"/>
      <use xlink:href="#DejaVuSans-52" transform="translate(63.183594 0)"/>
      <use xlink:href="#DejaVuSans-44" transform="translate(132.666016 0)"/>
      <use xlink:href="#DejaVuSans-2f" transform="translate(209.667969 0)"/>
      <use xlink:href="#DejaVuSans-45" transform="translate(243.359375 0)"/>
      <use xlink:href="#DejaVuSans-52" transform="translate(306.542969 0)"/>
      <use xlink:href="#DejaVuSans-53" transform="translate(376.025391 0)"/>
      <use xlink:href="#DejaVuSans-20" transform="translate(439.501953 0)"/>
      <use xlink:href="#DejaVuSans-28" transform="translate(471.289062 0)"/>
      <use xlink:href="#DejaVuSans-64" transform="translate(510.302734 0)"/>
      <use xlink:href="#DejaVuSans-42" transform="translate(573.779297 0)"/>
      <use xlink:href="#DejaVuSans-29" transform="translate(642.382812 0)"/>
     </g>
    </g>
   </g>
   <g id="line2d_14">
    <path d="M 45.858092 118.998577 
L 48.039015 117.613882 
L 50.219938 117.887359 
L 52.40086 119.123884 
L 54.581783 120.013705 
L 56.762706 123.422955 
L 58.943629 129.212491 
L 61.124552 134.769934 
L 63.305475 139.898796 
L 65.486398 142.91505 
L 67.667321 145.12901 
L 69.848243 146.890528 
L 72.029166 151.425214 
L 74.210089 154.583636 
L 76.391012 159.434912 
L 78.571935 164.062553 
L 80.752858 165.888129 
L 82.933781 162.713413 
L 85.114703 159.504954 
L 87.295626 157.310546 
L 89.476549 154.253983 
L 91.657472 148.423708 
L 93.838395 140.064178 
L 96.019318 131.954372 
L 98.200241 129.825257 
L 100.381163 139.146571 
L 102.562086 148.079052 
L 104.743009 151.008747 
L 106.923932 154.153098 
L 109.104855 156.966534 
L 111.285778 159.970417 
L 113.466701 162.471059 
L 115.647624 164.019452 
L 117.828546 165.884147 
L 120.009469 167.311642 
L 122.190392 168.023656 
L 124.371315 164.491376 
L 126.552238 161.3924 
L 128.733161 159.502219 
L 130.914084 160.8396 
L 133.095006 164.271829 
L 135.275929 165.949481 
L 137.456852 164.945664 
L 139.637775 161.835285 
L 141.818698 155.752246 
L 143.999621 145.187861 
L 146.180544 136.846543 
L 148.361467 133.986821 
L 150.542389 130.253292 
L 152.723312 125.482692 
L 154.904235 124.382972 
L 157.085158 123.816516 
L 159.266081 120.062114 
L 161.447004 116.954058 
L 163.627927 118.995148 
L 165.808849 126.124958 
L 167.989772 131.348555 
L 170.170695 133.914925 
L 172.351618 136.456522 
L 174.532541 139.487096 
L 176.713464 140.607675 
L 178.894387 142.381863 
L 181.075309 143.602961 
L 183.256232 144.714085 
L 185.437155 144.902311 
L 187.618078 143.907951 
L 189.799001 144.544978 
L 191.979924 142.514664 
L 194.160847 138.516048 
L 196.34177 136.283678 
L 198.522692 133.72011 
L 200.703615 129.963141 
L 202.884538 127.089516 
L 205.065461 127.803077 
L 207.246384 129.962383 
L 209.427307 131.039028 
L 211.60823 131.141943 
L 213.789152 129.5267 
L 215.970075 126.119165 
L 218.150998 120.977363 
L 220.331921 119.291823 
L 222.512844 120.207648 
L 224.693767 123.584262 
L 226.87469 127.965709 
L 229.055613 129.478261 
L 231.236535 128.431362 
L 233.417458 126.470252 
L 235.598381 121.725219 
L 237.779304 117.991262 
" clip-path="url(#p56070693b0)" style="fill: none; stroke: #1f77b4; stroke-width: 1.3; stroke-linecap: square"/>
   </g>
   <g id="line2d_15">
    <path d="M 45.858092 124.343747 
L 48.039015 124.546863 
L 50.219938 120.679095 
L 52.40086 112.186626 
L 54.581783 117.996247 
L 56.762706 121.433365 
L 58.943629 122.257641 
L 61.124552 121.997837 
L 63.305475 121.104641 
L 65.486398 122.24863 
L 67.667321 126.423113 
L 69.848243 125.062602 
L 72.029166 121.956 
L 74.210089 125.929352 
L 76.391012 133.172837 
L 78.571935 136.175384 
L 80.752858 126.988125 
L 82.933781 117.681488 
L 85.114703 110.151219 
L 87.295626 108.021549 
L 89.476549 108.520627 
L 91.657472 109.740518 
L 93.838395 111.695461 
L 96.019318 112.653492 
L 98.200241 118.527406 
L 100.381163 124.339653 
L 102.562086 119.904668 
L 104.743009 116.127705 
L 106.923932 114.968751 
L 109.104855 119.067399 
L 111.285778 120.900328 
L 113.466701 120.9597 
L 115.647624 119.596976 
L 117.828546 122.838986 
L 120.009469 130.114878 
L 122.190392 135.956167 
L 124.371315 134.865856 
L 126.552238 126.411236 
L 128.733161 119.872072 
L 130.914084 119.022065 
L 133.095006 114.995801 
L 135.275929 107.654798 
L 137.456852 102.548968 
L 139.637775 105.921913 
L 141.818698 116.996733 
L 143.999621 122.610622 
L 146.180544 121.53903 
L 148.361467 121.156921 
L 150.542389 119.490572 
L 152.723312 118.582986 
L 154.904235 122.218638 
L 157.085158 125.7362 
L 159.266081 120.66514 
L 161.447004 114.613118 
L 163.627927 108.430798 
L 165.808849 109.705575 
L 167.989772 117.499789 
L 170.170695 122.157015 
L 172.351618 121.668506 
L 174.532541 119.162769 
L 176.713464 116.044974 
L 178.894387 110.062885 
L 181.075309 108.013869 
L 183.256232 108.211413 
L 185.437155 102.314528 
L 187.618078 102.514398 
L 189.799001 103.449763 
L 191.979924 106.76414 
L 194.160847 110.804058 
L 196.34177 110.011029 
L 198.522692 111.368563 
L 200.703615 114.806885 
L 202.884538 116.515712 
L 205.065461 115.950203 
L 207.246384 112.564696 
L 209.427307 107.838947 
L 211.60823 102.397349 
L 213.789152 105.982235 
L 215.970075 112.251186 
L 218.150998 114.669556 
L 220.331921 112.959726 
L 222.512844 119.38303 
L 224.693767 120.989029 
L 226.87469 117.312042 
L 229.055613 115.172314 
L 231.236535 113.027092 
L 233.417458 112.118436 
L 235.598381 109.894591 
L 237.779304 102.453556 
" clip-path="url(#p56070693b0)" style="fill: none; stroke: #ff7f0e; stroke-width: 1.3; stroke-linecap: square"/>
   </g>
   <g id="patch_5">
    <path d="M 36.262031 182.68 
L 36.262031 59.28 
" style="fill: none; stroke: #000000; stroke-width: 0.8; stroke-linejoin: miter; stroke-linecap: square"/>
   </g>
   <g id="patch_6">
    <path d="M 247.375365 182.68 
L 247.375365 59.28 
" style="fill: none; stroke: #000000; stroke-width: 0.8; stroke-linejoin: miter; stroke-linecap: square"/>
   </g>
   <g id="patch_7">
    <path d="M 36.262031 182.68 
L 247.375365 182.68 
" style="fill: none; stroke: #000000; stroke-width: 0.8; stroke-linejoin: miter; stroke-linecap: square"/>
   </g>
   <g id="patch_8">
    <path d="M 36.262031 59.28 
L 247.375365 59.28 
" style="fill: none; stroke: #000000; stroke-width: 0.8; stroke-linejoin: miter; stroke-linecap: square"/>
   </g>
   <g id="text_15">
    <!-- C3 -->
    <g transform="translate(135.813307 53.28) scale(0.09 -0.09)">
     <defs>
      <path id="DejaVuSans-43" d="M 4122 4306 
L 4122 3641 
Q 3803 3938 3442 4084 
Q 3081 4231 2675 4231 
Q 1875 4231 1450 3742 
Q 1025 3253 1025 2328 
Q 1025 1406 1450 917 
Q 1875 428 2675 428 
Q 3081 428 3442 575 
Q 3803 722 4122 1019 
L 4122 359 
Q 3791 134 3420 21 
Q 3050 -91 2638 -91 
Q 1578 -91 968 557 
Q 359 1206 359 2328 
Q 359 3453 968 4101 
Q 1578 4750 2638 4750 
Q 3056 4750 3426 4639 
Q 3797 4528 4122 4306 
z
" transform="scale(0.015625)"/>
     </defs>
     <use xlink:href="#DejaVuSans-43"/>
     <use xlink:href="#DejaVuSans-33" transform="translate(69.824219 0)"/>
    </g>
   </g>
  </g>
  <g id="axes_2">
   <g id="patch_9">
    <path d="M 272.875365 182.68 
L 483.988698 182.68 
L 483.988698 59.28 
L 272.875365 59.28 
L 272.875365 182.68 
z
" style="fill: none"/>
   </g>
   <g id="patch_10">
    <path d="M 313.004345 182.68 
L 334.813574 182.68 
L 334.813574 59.28 
L 313.004345 59.28 
z
" clip-path="url(#p5bf0f7708d)" style="fill: #d9d9d9; stroke: #d9d9d9; stroke-linejoin: miter"/>
   </g>
   <g id="patch_11">
    <path d="M 334.813574 182.68 
L 408.964951 182.68 
L 408.964951 59.28 
L 334.813574 59.28 
z
" clip-path="url(#p5bf0f7708d)" style="fill: #ebebeb; stroke: #ebebeb; stroke-linejoin: miter"/>
   </g>
   <g id="FillBetweenPolyCollection_3">
    <defs>
     <path id="m1a2a9e1854" d="M 282.471425 -150.508097 
L 282.471425 -131.805296 
L 284.652348 -122.587932 
L 286.833271 -109.085185 
L 289.014194 -100.913633 
L 291.195117 -96.604383 
L 293.37604 -89.759429 
L 295.556962 -84.576906 
L 297.737885 -82.138581 
L 299.918808 -78.497801 
L 302.099731 -75.094285 
L 304.280654 -72.380535 
L 306.461577 -70.315951 
L 308.6425 -67.855513 
L 310.823422 -65.654884 
L 313.004345 -62.375096 
L 315.185268 -53.765398 
L 317.366191 -45.534259 
L 319.547114 -44.032051 
L 321.728037 -46.174068 
L 323.90896 -49.797923 
L 326.089882 -55.450281 
L 328.270805 -64.110901 
L 330.451728 -77.713834 
L 332.632651 -88.929759 
L 334.813574 -89.763758 
L 336.994497 -82.484406 
L 339.17542 -73.128327 
L 341.356343 -67.843028 
L 343.537265 -65.785734 
L 345.718188 -65.365617 
L 347.899111 -66.801684 
L 350.080034 -66.236539 
L 352.260957 -63.525153 
L 354.44188 -60.552424 
L 356.622803 -56.122573 
L 358.803725 -52.200897 
L 360.984648 -48.732944 
L 363.165571 -47.443406 
L 365.346494 -48.615004 
L 367.527417 -50.599448 
L 369.70834 -56.792217 
L 371.889263 -64.926493 
L 374.070186 -72.68286 
L 376.251108 -77.626353 
L 378.432031 -80.49299 
L 380.612954 -83.096143 
L 382.793877 -89.071525 
L 384.9748 -94.549488 
L 387.155723 -97.183906 
L 389.336646 -98.782072 
L 391.517568 -100.531767 
L 393.698491 -99.906947 
L 395.879414 -95.571839 
L 398.060337 -93.991756 
L 400.24126 -94.636391 
L 402.422183 -92.83523 
L 404.603106 -87.182675 
L 406.784028 -79.680054 
L 408.964951 -76.285597 
L 411.145874 -73.158043 
L 413.326797 -68.624761 
L 415.50772 -65.868434 
L 417.688643 -61.338141 
L 419.869566 -60.462773 
L 422.050489 -63.211774 
L 424.231411 -63.559284 
L 426.412334 -63.092839 
L 428.593257 -65.043473 
L 430.77418 -69.823307 
L 432.955103 -74.332342 
L 435.136026 -80.811348 
L 437.316949 -87.988967 
L 439.497871 -91.899036 
L 441.678794 -90.888315 
L 443.859717 -85.962833 
L 446.04064 -81.703653 
L 448.221563 -80.434397 
L 450.402486 -79.32871 
L 452.583409 -79.123719 
L 454.764332 -79.792385 
L 456.945254 -80.141133 
L 459.126177 -79.691713 
L 461.3071 -81.62725 
L 463.488023 -84.999237 
L 465.668946 -86.945804 
L 467.849869 -87.271047 
L 470.030792 -87.245071 
L 472.211714 -88.428205 
L 474.392637 -88.74225 
L 474.392637 -106.247617 
L 474.392637 -106.247617 
L 472.211714 -106.602882 
L 470.030792 -105.921462 
L 467.849869 -106.188505 
L 465.668946 -105.918848 
L 463.488023 -103.923314 
L 461.3071 -99.436182 
L 459.126177 -96.980347 
L 456.945254 -97.916912 
L 454.764332 -97.935786 
L 452.583409 -96.69537 
L 450.402486 -95.246043 
L 448.221563 -96.560842 
L 446.04064 -98.098646 
L 443.859717 -102.745506 
L 441.678794 -108.022438 
L 439.497871 -107.155999 
L 437.316949 -103.711516 
L 435.136026 -97.709355 
L 432.955103 -90.804515 
L 430.77418 -87.522122 
L 428.593257 -84.061007 
L 426.412334 -82.503556 
L 424.231411 -83.004493 
L 422.050489 -83.421019 
L 419.869566 -79.866523 
L 417.688643 -80.087292 
L 415.50772 -84.124789 
L 413.326797 -85.410053 
L 411.145874 -89.354192 
L 408.964951 -92.65495 
L 406.784028 -95.929372 
L 404.603106 -104.946714 
L 402.422183 -110.999379 
L 400.24126 -112.180711 
L 398.060337 -111.41558 
L 395.879414 -113.27343 
L 393.698491 -117.147965 
L 391.517568 -117.849267 
L 389.336646 -117.073609 
L 387.155723 -115.47577 
L 384.9748 -113.463515 
L 382.793877 -108.763162 
L 380.612954 -102.78458 
L 378.432031 -100.505936 
L 376.251108 -97.633013 
L 374.070186 -92.726342 
L 371.889263 -84.838373 
L 369.70834 -77.787716 
L 367.527417 -72.093525 
L 365.346494 -69.878776 
L 363.165571 -66.070195 
L 360.984648 -66.005192 
L 358.803725 -70.131772 
L 356.622803 -74.225421 
L 354.44188 -77.816793 
L 352.260957 -80.851567 
L 350.080034 -84.025055 
L 347.899111 -84.261412 
L 345.718188 -82.806178 
L 343.537265 -83.108599 
L 341.356343 -85.532475 
L 339.17542 -90.625853 
L 336.994497 -99.560067 
L 334.813574 -107.780961 
L 332.632651 -106.559918 
L 330.451728 -94.081669 
L 328.270805 -81.42932 
L 326.089882 -73.890816 
L 323.90896 -68.168583 
L 321.728037 -64.906026 
L 319.547114 -62.935364 
L 317.366191 -65.043094 
L 315.185268 -73.213981 
L 313.004345 -81.975057 
L 310.823422 -84.61505 
L 308.6425 -86.653287 
L 306.461577 -89.061804 
L 304.280654 -90.027904 
L 302.099731 -92.714756 
L 299.918808 -96.458032 
L 297.737885 -100.267721 
L 295.556962 -102.041052 
L 293.37604 -106.181476 
L 291.195117 -112.35509 
L 289.014194 -116.518714 
L 286.833271 -125.417821 
L 284.652348 -140.266918 
L 282.471425 -150.508097 
z
" style="stroke: #1f77b4; stroke-opacity: 0.15"/>
    </defs>
    <g clip-path="url(#p5bf0f7708d)">
     <use xlink:href="#m1a2a9e1854" x="0" y="215.397188" style="fill: #1f77b4; fill-opacity: 0.15; stroke: #1f77b4; stroke-opacity: 0.15"/>
    </g>
   </g>
   <g id="FillBetweenPolyCollection_4">
    <defs>
     <path id="me0841f5daa" d="M 282.471425 -128.526117 
L 282.471425 -93.016458 
L 284.652348 -88.193668 
L 286.833271 -78.837615 
L 289.014194 -73.071951 
L 291.195117 -74.833264 
L 293.37604 -78.984054 
L 295.556962 -84.415768 
L 297.737885 -88.740379 
L 299.918808 -84.374194 
L 302.099731 -75.486986 
L 304.280654 -74.721026 
L 306.461577 -79.480406 
L 308.6425 -82.595942 
L 310.823422 -87.00375 
L 313.004345 -86.610461 
L 315.185268 -74.89728 
L 317.366191 -60.494653 
L 319.547114 -51.394003 
L 321.728037 -50.752308 
L 323.90896 -54.85142 
L 326.089882 -60.437193 
L 328.270805 -69.100761 
L 330.451728 -75.799539 
L 332.632651 -73.65792 
L 334.813574 -76.028674 
L 336.994497 -82.221571 
L 339.17542 -86.520711 
L 341.356343 -89.591227 
L 343.537265 -92.080896 
L 345.718188 -93.836077 
L 347.899111 -88.087403 
L 350.080034 -83.801291 
L 352.260957 -79.268991 
L 354.44188 -75.246455 
L 356.622803 -77.473394 
L 358.803725 -81.746625 
L 360.984648 -75.971071 
L 363.165571 -63.705869 
L 365.346494 -56.703729 
L 367.527417 -63.850073 
L 369.70834 -67.874892 
L 371.889263 -65.827217 
L 374.070186 -65.857279 
L 376.251108 -66.042005 
L 378.432031 -67.978529 
L 380.612954 -73.570161 
L 382.793877 -80.44216 
L 384.9748 -91.13266 
L 387.155723 -97.900697 
L 389.336646 -94.80838 
L 391.517568 -87.880357 
L 393.698491 -84.998121 
L 395.879414 -84.93917 
L 398.060337 -81.554431 
L 400.24126 -82.438692 
L 402.422183 -86.644625 
L 404.603106 -83.777888 
L 406.784028 -77.83792 
L 408.964951 -73.312543 
L 411.145874 -68.344503 
L 413.326797 -63.846149 
L 415.50772 -66.474444 
L 417.688643 -71.267167 
L 419.869566 -75.528478 
L 422.050489 -74.22636 
L 424.231411 -75.938135 
L 426.412334 -77.647118 
L 428.593257 -81.965796 
L 430.77418 -86.835999 
L 432.955103 -86.599348 
L 435.136026 -83.622779 
L 437.316949 -79.291352 
L 439.497871 -77.574208 
L 441.678794 -79.894672 
L 443.859717 -81.46381 
L 446.04064 -83.327402 
L 448.221563 -87.118431 
L 450.402486 -84.047515 
L 452.583409 -82.185054 
L 454.764332 -81.594828 
L 456.945254 -82.45978 
L 459.126177 -89.05245 
L 461.3071 -90.55857 
L 463.488023 -80.486854 
L 465.668946 -71.107249 
L 467.849869 -68.002439 
L 470.030792 -70.644016 
L 472.211714 -76.945283 
L 474.392637 -83.089401 
L 474.392637 -115.817296 
L 474.392637 -115.817296 
L 472.211714 -114.708029 
L 470.030792 -109.640483 
L 467.849869 -105.313102 
L 465.668946 -108.020141 
L 463.488023 -118.660291 
L 461.3071 -129.806779 
L 459.126177 -127.797082 
L 456.945254 -120.468965 
L 454.764332 -116.505892 
L 452.583409 -112.6716 
L 450.402486 -112.266982 
L 448.221563 -116.972438 
L 446.04064 -115.850734 
L 443.859717 -116.067908 
L 441.678794 -112.764872 
L 439.497871 -114.036656 
L 437.316949 -118.254387 
L 435.136026 -121.128301 
L 432.955103 -123.074173 
L 430.77418 -126.068353 
L 428.593257 -124.861124 
L 426.412334 -120.305349 
L 424.231411 -117.150646 
L 422.050489 -113.9093 
L 419.869566 -112.802836 
L 417.688643 -108.895041 
L 415.50772 -106.486018 
L 413.326797 -102.71237 
L 411.145874 -103.367599 
L 408.964951 -106.790749 
L 406.784028 -112.700631 
L 404.603106 -115.41563 
L 402.422183 -116.572518 
L 400.24126 -112.796864 
L 398.060337 -115.945536 
L 395.879414 -121.643078 
L 393.698491 -123.42964 
L 391.517568 -125.82352 
L 389.336646 -132.721752 
L 387.155723 -130.249975 
L 384.9748 -130.768244 
L 382.793877 -119.779367 
L 380.612954 -112.882534 
L 378.432031 -111.403343 
L 376.251108 -110.796604 
L 374.070186 -112.448139 
L 371.889263 -114.296003 
L 369.70834 -115.20478 
L 367.527417 -108.953079 
L 365.346494 -98.451069 
L 363.165571 -103.903289 
L 360.984648 -112.354421 
L 358.803725 -116.886176 
L 356.622803 -114.889899 
L 354.44188 -112.810333 
L 352.260957 -119.123405 
L 350.080034 -125.584127 
L 347.899111 -129.00584 
L 345.718188 -131.929352 
L 343.537265 -128.07457 
L 341.356343 -128.366635 
L 339.17542 -126.473799 
L 336.994497 -121.071264 
L 334.813574 -108.868734 
L 332.632651 -102.584609 
L 330.451728 -105.041408 
L 328.270805 -101.936889 
L 326.089882 -98.803077 
L 323.90896 -96.250419 
L 321.728037 -91.694953 
L 319.547114 -92.409058 
L 317.366191 -101.456067 
L 315.185268 -111.302839 
L 313.004345 -121.187166 
L 310.823422 -120.337992 
L 308.6425 -114.798121 
L 306.461577 -112.535993 
L 304.280654 -106.398754 
L 302.099731 -108.075826 
L 299.918808 -117.266755 
L 297.737885 -123.801312 
L 295.556962 -121.287791 
L 293.37604 -116.265294 
L 291.195117 -111.603106 
L 289.014194 -109.108321 
L 286.833271 -113.527615 
L 284.652348 -122.629098 
L 282.471425 -128.526117 
z
" style="stroke: #ff7f0e; stroke-opacity: 0.15"/>
    </defs>
    <g clip-path="url(#p5bf0f7708d)">
     <use xlink:href="#me0841f5daa" x="0" y="215.397188" style="fill: #ff7f0e; fill-opacity: 0.15; stroke: #ff7f0e; stroke-opacity: 0.15"/>
    </g>
   </g>
   <g id="line2d_16">
    <path d="M 272.875365 105.790171 
L 483.988698 105.790171 
" clip-path="url(#p5bf0f7708d)" style="fill: none; stroke-dasharray: 2.96,1.28; stroke-dashoffset: 0; stroke: #000000; stroke-width: 0.8"/>
   </g>
   <g id="matplotlib.axis_3">
    <g id="xtick_6">
     <g id="line2d_17">
      <g>
       <use xlink:href="#me1e0930a97" x="278.109579" y="182.68" style="stroke: #000000; stroke-width: 0.8"/>
      </g>
     </g>
     <g id="text_16">
      <!-- 0 -->
      <g transform="translate(275.882704 194.998906) scale(0.07 -0.07)">
       <use xlink:href="#DejaVuSans-30"/>
      </g>
     </g>
    </g>
    <g id="xtick_7">
     <g id="line2d_18">
      <g>
       <use xlink:href="#me1e0930a97" x="321.728037" y="182.68" style="stroke: #000000; stroke-width: 0.8"/>
      </g>
     </g>
     <g id="text_17">
      <!-- 10 -->
      <g transform="translate(317.274287 194.998906) scale(0.07 -0.07)">
       <use xlink:href="#DejaVuSans-31"/>
       <use xlink:href="#DejaVuSans-30" transform="translate(63.623047 0)"/>
      </g>
     </g>
    </g>
    <g id="xtick_8">
     <g id="line2d_19">
      <g>
       <use xlink:href="#me1e0930a97" x="365.346494" y="182.68" style="stroke: #000000; stroke-width: 0.8"/>
      </g>
     </g>
     <g id="text_18">
      <!-- 20 -->
      <g transform="translate(360.892744 194.998906) scale(0.07 -0.07)">
       <use xlink:href="#DejaVuSans-32"/>
       <use xlink:href="#DejaVuSans-30" transform="translate(63.623047 0)"/>
      </g>
     </g>
    </g>
    <g id="xtick_9">
     <g id="line2d_20">
      <g>
       <use xlink:href="#me1e0930a97" x="408.964951" y="182.68" style="stroke: #000000; stroke-width: 0.8"/>
      </g>
     </g>
     <g id="text_19">
      <!-- 30 -->
      <g transform="translate(404.511201 194.998906) scale(0.07 -0.07)">
       <use xlink:href="#DejaVuSans-33"/>
       <use xlink:href="#DejaVuSans-30" transform="translate(63.623047 0)"/>
      </g>
     </g>
    </g>
    <g id="xtick_10">
     <g id="line2d_21">
      <g>
       <use xlink:href="#me1e0930a97" x="452.583409" y="182.68" style="stroke: #000000; stroke-width: 0.8"/>
      </g>
     </g>
     <g id="text_20">
      <!-- 40 -->
      <g transform="translate(448.129659 194.998906) scale(0.07 -0.07)">
       <use xlink:href="#DejaVuSans-34"/>
       <use xlink:href="#DejaVuSans-30" transform="translate(63.623047 0)"/>
      </g>
     </g>
    </g>
    <g id="text_21">
     <!-- Frequency (Hz) -->
     <g transform="translate(348.268281 206.533437) scale(0.08 -0.08)">
      <use xlink:href="#DejaVuSans-46"/>
      <use xlink:href="#DejaVuSans-72" transform="translate(50.269531 0)"/>
      <use xlink:href="#DejaVuSans-65" transform="translate(89.132812 0)"/>
      <use xlink:href="#DejaVuSans-71" transform="translate(150.65625 0)"/>
      <use xlink:href="#DejaVuSans-75" transform="translate(214.132812 0)"/>
      <use xlink:href="#DejaVuSans-65" transform="translate(277.511719 0)"/>
      <use xlink:href="#DejaVuSans-6e" transform="translate(339.035156 0)"/>
      <use xlink:href="#DejaVuSans-63" transform="translate(402.414062 0)"/>
      <use xlink:href="#DejaVuSans-79" transform="translate(457.394531 0)"/>
      <use xlink:href="#DejaVuSans-20" transform="translate(516.574219 0)"/>
      <use xlink:href="#DejaVuSans-28" transform="translate(548.361328 0)"/>
      <use xlink:href="#DejaVuSans-48" transform="translate(587.375 0)"/>
      <use xlink:href="#DejaVuSans-7a" transform="translate(662.570312 0)"/>
      <use xlink:href="#DejaVuSans-29" transform="translate(715.060547 0)"/>
     </g>
    </g>
   </g>
   <g id="matplotlib.axis_4">
    <g id="ytick_8">
     <g id="line2d_22">
      <g>
       <use xlink:href="#m69483ac420" x="272.875365" y="174.741203" style="stroke: #000000; stroke-width: 0.8"/>
      </g>
     </g>
    </g>
    <g id="ytick_9">
     <g id="line2d_23">
      <g>
       <use xlink:href="#m69483ac420" x="272.875365" y="157.503445" style="stroke: #000000; stroke-width: 0.8"/>
      </g>
     </g>
    </g>
    <g id="ytick_10">
     <g id="line2d_24">
      <g>
       <use xlink:href="#m69483ac420" x="272.875365" y="140.265687" style="stroke: #000000; stroke-width: 0.8"/>
      </g>
     </g>
    </g>
    <g id="ytick_11">
     <g id="line2d_25">
      <g>
       <use xlink:href="#m69483ac420" x="272.875365" y="123.027929" style="stroke: #000000; stroke-width: 0.8"/>
      </g>
     </g>
    </g>
    <g id="ytick_12">
     <g id="line2d_26">
      <g>
       <use xlink:href="#m69483ac420" x="272.875365" y="105.790171" style="stroke: #000000; stroke-width: 0.8"/>
      </g>
     </g>
    </g>
    <g id="ytick_13">
     <g id="line2d_27">
      <g>
       <use xlink:href="#m69483ac420" x="272.875365" y="88.552413" style="stroke: #000000; stroke-width: 0.8"/>
      </g>
     </g>
    </g>
    <g id="ytick_14">
     <g id="line2d_28">
      <g>
       <use xlink:href="#m69483ac420" x="272.875365" y="71.314655" style="stroke: #000000; stroke-width: 0.8"/>
      </g>
     </g>
    </g>
    <g id="text_22">
     <!-- ERD/ERS (dB) -->
     <g transform="translate(263.711615 148.236875) rotate(-90) scale(0.08 -0.08)">
      <use xlink:href="#DejaVuSans-45"/>
      <use xlink:href="#DejaVuSans-52" transform="translate(63.183594 0)"/>
      <use xlink:href="#DejaVuSans-44" transform="translate(132.666016 0)"/>
      <use xlink:href="#DejaVuSans-2f" transform="translate(209.667969 0)"/>
      <use xlink:href="#DejaVuSans-45" transform="translate(243.359375 0)"/>
      <use xlink:href="#DejaVuSans-52" transform="translate(306.542969 0)"/>
      <use xlink:href="#DejaVuSans-53" transform="translate(376.025391 0)"/>
      <use xlink:href="#DejaVuSans-20" transform="translate(439.501953 0)"/>
      <use xlink:href="#DejaVuSans-28" transform="translate(471.289062 0)"/>
      <use xlink:href="#DejaVuSans-64" transform="translate(510.302734 0)"/>
      <use xlink:href="#DejaVuSans-42" transform="translate(573.779297 0)"/>
      <use xlink:href="#DejaVuSans-29" transform="translate(642.382812 0)"/>
     </g>
    </g>
   </g>
   <g id="line2d_29">
    <path d="M 282.471425 74.240491 
L 284.652348 83.969762 
L 286.833271 98.145685 
L 289.014194 106.681014 
L 291.195117 110.917451 
L 293.37604 117.426735 
L 295.556962 122.088209 
L 297.737885 124.194036 
L 299.918808 127.919271 
L 302.099731 131.492667 
L 304.280654 134.192968 
L 306.461577 135.70831 
L 308.6425 138.142787 
L 310.823422 140.26222 
L 313.004345 143.222111 
L 315.185268 151.907498 
L 317.366191 160.108511 
L 319.547114 161.91348 
L 321.728037 159.85714 
L 323.90896 156.413934 
L 326.089882 150.726639 
L 328.270805 142.627077 
L 330.451728 129.499436 
L 332.632651 117.652349 
L 334.813574 116.624828 
L 336.994497 124.374951 
L 339.17542 133.520098 
L 341.356343 138.709436 
L 343.537265 140.950021 
L 345.718188 141.31129 
L 347.899111 139.865639 
L 350.080034 140.26639 
L 352.260957 143.208828 
L 354.44188 146.212579 
L 356.622803 150.22319 
L 358.803725 154.230853 
L 360.984648 158.02812 
L 363.165571 158.640387 
L 365.346494 156.150298 
L 367.527417 154.050701 
L 369.70834 148.107221 
L 371.889263 140.514755 
L 374.070186 132.692587 
L 376.251108 127.767505 
L 378.432031 124.897724 
L 380.612954 122.456826 
L 382.793877 116.479844 
L 384.9748 111.390686 
L 387.155723 109.06735 
L 389.336646 107.469347 
L 391.517568 106.206671 
L 393.698491 106.869731 
L 395.879414 110.974553 
L 398.060337 112.693519 
L 400.24126 111.988637 
L 402.422183 113.479883 
L 404.603106 119.332493 
L 406.784028 127.592475 
L 408.964951 130.926914 
L 411.145874 134.14107 
L 413.326797 138.37978 
L 415.50772 140.400576 
L 417.688643 144.684471 
L 419.869566 145.23254 
L 422.050489 142.080791 
L 424.231411 142.115299 
L 426.412334 142.59899 
L 428.593257 140.844948 
L 430.77418 136.724473 
L 432.955103 132.828759 
L 435.136026 126.136836 
L 437.316949 119.546946 
L 439.497871 115.86967 
L 441.678794 115.941811 
L 443.859717 121.043018 
L 446.04064 125.496038 
L 448.221563 126.899568 
L 450.402486 128.109811 
L 452.583409 127.487643 
L 454.764332 126.533102 
L 456.945254 126.368165 
L 459.126177 127.061158 
L 461.3071 124.865472 
L 463.488023 120.935912 
L 465.668946 118.964861 
L 467.849869 118.667411 
L 470.030792 118.813921 
L 472.211714 117.881644 
L 474.392637 117.902254 
" clip-path="url(#p5bf0f7708d)" style="fill: none; stroke: #1f77b4; stroke-width: 1.3; stroke-linecap: square"/>
   </g>
   <g id="line2d_30">
    <path d="M 282.471425 104.6259 
L 284.652348 109.985805 
L 286.833271 119.214572 
L 289.014194 124.307051 
L 291.195117 122.179003 
L 293.37604 117.772513 
L 295.556962 112.545408 
L 297.737885 109.126342 
L 299.918808 114.576713 
L 302.099731 123.615782 
L 304.280654 124.837297 
L 306.461577 119.388988 
L 308.6425 116.700156 
L 310.823422 111.726317 
L 313.004345 111.498374 
L 315.185268 122.297128 
L 317.366191 134.421827 
L 319.547114 143.495657 
L 321.728037 144.173557 
L 323.90896 139.846268 
L 326.089882 135.777052 
L 328.270805 129.878362 
L 330.451728 124.976714 
L 332.632651 127.275923 
L 334.813574 122.948483 
L 336.994497 113.75077 
L 339.17542 108.899932 
L 341.356343 106.418257 
L 343.537265 105.319455 
L 345.718188 102.514473 
L 347.899111 106.850566 
L 350.080034 110.704478 
L 352.260957 116.20099 
L 354.44188 121.368794 
L 356.622803 119.215541 
L 358.803725 116.080787 
L 360.984648 121.234442 
L 363.165571 131.592608 
L 365.346494 137.819789 
L 367.527417 128.995611 
L 369.70834 123.857352 
L 371.889263 125.335577 
L 374.070186 126.244478 
L 376.251108 126.977883 
L 378.432031 125.706252 
L 380.612954 122.17084 
L 382.793877 115.286424 
L 384.9748 104.446736 
L 387.155723 101.321851 
L 389.336646 101.632121 
L 391.517568 108.545249 
L 393.698491 111.183307 
L 395.879414 112.106064 
L 398.060337 116.647204 
L 400.24126 117.779409 
L 402.422183 113.788616 
L 404.603106 115.800429 
L 406.784028 120.127912 
L 408.964951 125.345542 
L 411.145874 129.541136 
L 413.326797 132.117928 
L 415.50772 128.916956 
L 417.688643 125.316083 
L 419.869566 121.23153 
L 422.050489 121.329358 
L 424.231411 118.852797 
L 426.412334 116.420954 
L 428.593257 111.983727 
L 430.77418 108.945012 
L 432.955103 110.560427 
L 435.136026 113.021648 
L 437.316949 116.624318 
L 439.497871 119.591755 
L 441.678794 119.067416 
L 443.859717 116.631329 
L 446.04064 115.80812 
L 448.221563 113.351753 
L 450.402486 117.239939 
L 452.583409 117.968861 
L 454.764332 116.346827 
L 456.945254 113.932815 
L 459.126177 106.972421 
L 461.3071 105.214513 
L 463.488023 115.823615 
L 465.668946 125.833493 
L 467.849869 128.739417 
L 470.030792 125.254938 
L 472.211714 119.570532 
L 474.392637 115.943839 
" clip-path="url(#p5bf0f7708d)" style="fill: none; stroke: #ff7f0e; stroke-width: 1.3; stroke-linecap: square"/>
   </g>
   <g id="patch_12">
    <path d="M 272.875365 182.68 
L 272.875365 59.28 
" style="fill: none; stroke: #000000; stroke-width: 0.8; stroke-linejoin: miter; stroke-linecap: square"/>
   </g>
   <g id="patch_13">
    <path d="M 483.988698 182.68 
L 483.988698 59.28 
" style="fill: none; stroke: #000000; stroke-width: 0.8; stroke-linejoin: miter; stroke-linecap: square"/>
   </g>
   <g id="patch_14">
    <path d="M 272.875365 182.68 
L 483.988698 182.68 
" style="fill: none; stroke: #000000; stroke-width: 0.8; stroke-linejoin: miter; stroke-linecap: square"/>
   </g>
   <g id="patch_15">
    <path d="M 272.875365 59.28 
L 483.988698 59.28 
" style="fill: none; stroke: #000000; stroke-width: 0.8; stroke-linejoin: miter; stroke-linecap: square"/>
   </g>
   <g id="text_23">
    <!-- Cz -->
    <g transform="translate(372.927969 53.28) scale(0.09 -0.09)">
     <use xlink:href="#DejaVuSans-43"/>
     <use xlink:href="#DejaVuSans-7a" transform="translate(69.824219 0)"/>
    </g>
   </g>
  </g>
  <g id="axes_3">
   <g id="patch_16">
    <path d="M 509.488698 182.68 
L 720.602031 182.68 
L 720.602031 59.28 
L 509.488698 59.28 
L 509.488698 182.68 
z
" style="fill: none"/>
   </g>
   <g id="patch_17">
    <path d="M 549.617679 182.68 
L 571.426907 182.68 
L 571.426907 59.28 
L 549.617679 59.28 
z
" clip-path="url(#p78597598cc)" style="fill: #d9d9d9; stroke: #d9d9d9; stroke-linejoin: miter"/>
   </g>
   <g id="patch_18">
    <path d="M 571.426907 182.68 
L 645.578285 182.68 
L 645.578285 59.28 
L 571.426907 59.28 
z
" clip-path="url(#p78597598cc)" style="fill: #ebebeb; stroke: #ebebeb; stroke-linejoin: miter"/>
   </g>
   <g id="FillBetweenPolyCollection_5">
    <defs>
     <path id="m4c0930acb5" d="M 519.084759 -113.891066 
L 519.084759 -95.920181 
L 521.265681 -95.520387 
L 523.446604 -94.513765 
L 525.627527 -93.200897 
L 527.80845 -88.480032 
L 529.989373 -81.025005 
L 532.170296 -70.85226 
L 534.351219 -67.558407 
L 536.532141 -67.358909 
L 538.713064 -67.531473 
L 540.893987 -68.122417 
L 543.07491 -69.023506 
L 545.255833 -69.652533 
L 547.436756 -69.627294 
L 549.617679 -68.511978 
L 551.798601 -62.262579 
L 553.979524 -51.953938 
L 556.160447 -46.945253 
L 558.34137 -41.515114 
L 560.522293 -42.603023 
L 562.703216 -50.584142 
L 564.884139 -65.001721 
L 567.065062 -84.959817 
L 569.245984 -104.862459 
L 571.426907 -110.244011 
L 573.60783 -102.121883 
L 575.788753 -89.19415 
L 577.969676 -78.693835 
L 580.150599 -72.83555 
L 582.331522 -70.599715 
L 584.512444 -68.385031 
L 586.693367 -65.252828 
L 588.87429 -63.635574 
L 591.055213 -64.389328 
L 593.236136 -62.47811 
L 595.417059 -59.698383 
L 597.597982 -57.367805 
L 599.778905 -55.318604 
L 601.959827 -54.406739 
L 604.14075 -56.061092 
L 606.321673 -57.599908 
L 608.502596 -58.748333 
L 610.683519 -62.735988 
L 612.864442 -69.584789 
L 615.045365 -76.860842 
L 617.226287 -81.299926 
L 619.40721 -82.761991 
L 621.588133 -82.972271 
L 623.769056 -84.718584 
L 625.949979 -85.657727 
L 628.130902 -85.534225 
L 630.311825 -86.360554 
L 632.492748 -89.68035 
L 634.67367 -91.065903 
L 636.854593 -85.896273 
L 639.035516 -79.119889 
L 641.216439 -76.467077 
L 643.397362 -74.203302 
L 645.578285 -71.369939 
L 647.759208 -66.822972 
L 649.94013 -63.021293 
L 652.121053 -61.381101 
L 654.301976 -63.017875 
L 656.482899 -63.466952 
L 658.663822 -65.100553 
L 660.844745 -66.470563 
L 663.025668 -69.370195 
L 665.20659 -73.824498 
L 667.387513 -76.142713 
L 669.568436 -77.682645 
L 671.749359 -80.498884 
L 673.930282 -81.670302 
L 676.111205 -81.460511 
L 678.292128 -83.809258 
L 680.473051 -87.043987 
L 682.653973 -88.513785 
L 684.834896 -85.455896 
L 687.015819 -83.147672 
L 689.196742 -84.843858 
L 691.377665 -89.80467 
L 693.558588 -91.93926 
L 695.739511 -88.836655 
L 697.920433 -84.319789 
L 700.101356 -81.09728 
L 702.282279 -79.582761 
L 704.463202 -82.232211 
L 706.644125 -86.874941 
L 708.825048 -90.759967 
L 711.005971 -94.76994 
L 711.005971 -112.018332 
L 711.005971 -112.018332 
L 708.825048 -106.405063 
L 706.644125 -101.657404 
L 704.463202 -96.913717 
L 702.282279 -95.235158 
L 700.101356 -98.211381 
L 697.920433 -101.464678 
L 695.739511 -105.768911 
L 693.558588 -109.176618 
L 691.377665 -106.517852 
L 689.196742 -100.740591 
L 687.015819 -98.530645 
L 684.834896 -100.418713 
L 682.653973 -104.404891 
L 680.473051 -103.189084 
L 678.292128 -99.25965 
L 676.111205 -97.110293 
L 673.930282 -97.915412 
L 671.749359 -96.458007 
L 669.568436 -93.691207 
L 667.387513 -92.404575 
L 665.20659 -91.064348 
L 663.025668 -85.846622 
L 660.844745 -83.096025 
L 658.663822 -81.64633 
L 656.482899 -79.362029 
L 654.301976 -79.53593 
L 652.121053 -78.767976 
L 649.94013 -80.238661 
L 647.759208 -82.565615 
L 645.578285 -87.526519 
L 643.397362 -91.513763 
L 641.216439 -93.466186 
L 639.035516 -95.627385 
L 636.854593 -101.99047 
L 634.67367 -108.692394 
L 632.492748 -108.484353 
L 630.311825 -104.571744 
L 628.130902 -103.820325 
L 625.949979 -102.51646 
L 623.769056 -100.813156 
L 621.588133 -100.175018 
L 619.40721 -100.566004 
L 617.226287 -98.250118 
L 615.045365 -93.860835 
L 612.864442 -87.791107 
L 610.683519 -81.361807 
L 608.502596 -77.232962 
L 606.321673 -75.805971 
L 604.14075 -72.655283 
L 601.959827 -70.969761 
L 599.778905 -71.912866 
L 597.597982 -73.805458 
L 595.417059 -76.778776 
L 593.236136 -80.086986 
L 591.055213 -81.096287 
L 588.87429 -81.128558 
L 586.693367 -83.884607 
L 584.512444 -86.451724 
L 582.331522 -87.195504 
L 580.150599 -89.176846 
L 577.969676 -95.850667 
L 575.788753 -105.418524 
L 573.60783 -118.045806 
L 571.426907 -126.03188 
L 569.245984 -119.65571 
L 567.065062 -100.272846 
L 564.884139 -80.884927 
L 562.703216 -67.376095 
L 560.522293 -60.742738 
L 558.34137 -60.589922 
L 556.160447 -66.499211 
L 553.979524 -70.925056 
L 551.798601 -81.671978 
L 549.617679 -88.979268 
L 547.436756 -89.13958 
L 545.255833 -88.555477 
L 543.07491 -87.484923 
L 540.893987 -86.624269 
L 538.713064 -85.867014 
L 536.532141 -85.831694 
L 534.351219 -85.719206 
L 532.170296 -89.04792 
L 529.989373 -99.404403 
L 527.80845 -105.678602 
L 525.627527 -108.841958 
L 523.446604 -109.693228 
L 521.265681 -111.915285 
L 519.084759 -113.891066 
z
" style="stroke: #1f77b4; stroke-opacity: 0.15"/>
    </defs>
    <g clip-path="url(#p78597598cc)">
     <use xlink:href="#m4c0930acb5" x="0" y="215.397188" style="fill: #1f77b4; fill-opacity: 0.15; stroke: #1f77b4; stroke-opacity: 0.15"/>
    </g>
   </g>
   <g id="FillBetweenPolyCollection_6">
    <defs>
     <path id="m3c3ce890e3" d="M 519.084759 -121.574498 
L 519.084759 -85.995037 
L 521.265681 -89.277375 
L 523.446604 -87.597737 
L 525.627527 -87.052096 
L 527.80845 -88.593872 
L 529.989373 -92.666964 
L 532.170296 -91.471632 
L 534.351219 -84.989696 
L 536.532141 -79.095604 
L 538.713064 -80.801401 
L 540.893987 -84.903101 
L 543.07491 -87.946486 
L 545.255833 -88.663655 
L 547.436756 -83.174237 
L 549.617679 -79.721085 
L 551.798601 -75.30904 
L 553.979524 -65.468729 
L 556.160447 -68.900452 
L 558.34137 -79.537343 
L 560.522293 -84.176156 
L 562.703216 -86.163383 
L 564.884139 -90.089236 
L 567.065062 -98.534738 
L 569.245984 -109.041389 
L 571.426907 -110.804101 
L 573.60783 -97.776513 
L 575.788753 -93.398161 
L 577.969676 -94.04019 
L 580.150599 -88.554461 
L 582.331522 -85.800339 
L 584.512444 -88.223756 
L 586.693367 -88.700825 
L 588.87429 -83.763677 
L 591.055213 -72.826967 
L 593.236136 -63.552906 
L 595.417059 -61.48936 
L 597.597982 -68.064711 
L 599.778905 -79.414378 
L 601.959827 -84.686394 
L 604.14075 -77.617338 
L 606.321673 -67.910767 
L 608.502596 -67.222264 
L 610.683519 -74.403658 
L 612.864442 -81.222506 
L 615.045365 -84.801004 
L 617.226287 -87.829717 
L 619.40721 -85.09621 
L 621.588133 -86.382322 
L 623.769056 -93.825474 
L 625.949979 -95.497013 
L 628.130902 -94.145651 
L 630.311825 -95.431883 
L 632.492748 -95.652563 
L 634.67367 -101.466423 
L 636.854593 -104.416936 
L 639.035516 -100.471588 
L 641.216439 -95.254194 
L 643.397362 -90.765216 
L 645.578285 -84.533805 
L 647.759208 -82.025434 
L 649.94013 -86.807644 
L 652.121053 -86.74849 
L 654.301976 -81.279135 
L 656.482899 -78.301167 
L 658.663822 -77.39295 
L 660.844745 -77.742851 
L 663.025668 -82.156558 
L 665.20659 -89.72777 
L 667.387513 -95.688539 
L 669.568436 -97.336562 
L 671.749359 -97.206537 
L 673.930282 -97.053279 
L 676.111205 -96.970817 
L 678.292128 -93.929962 
L 680.473051 -93.635828 
L 682.653973 -92.286027 
L 684.834896 -92.782496 
L 687.015819 -99.304862 
L 689.196742 -105.723813 
L 691.377665 -108.690813 
L 693.558588 -110.172359 
L 695.739511 -109.125903 
L 697.920433 -102.409909 
L 700.101356 -92.224751 
L 702.282279 -89.061396 
L 704.463202 -94.611323 
L 706.644125 -96.404709 
L 708.825048 -91.639782 
L 711.005971 -85.507786 
L 711.005971 -119.090555 
L 711.005971 -119.090555 
L 708.825048 -126.575439 
L 706.644125 -127.676543 
L 704.463202 -125.679996 
L 702.282279 -122.039235 
L 700.101356 -125.226016 
L 697.920433 -130.380841 
L 695.739511 -139.502148 
L 693.558588 -141.726522 
L 691.377665 -141.063827 
L 689.196742 -139.40251 
L 687.015819 -130.09676 
L 684.834896 -124.525152 
L 682.653973 -118.153524 
L 680.473051 -120.080542 
L 678.292128 -122.86803 
L 676.111205 -127.164004 
L 673.930282 -129.136601 
L 671.749359 -130.360343 
L 669.568436 -130.982892 
L 667.387513 -129.829052 
L 665.20659 -125.042946 
L 663.025668 -119.766503 
L 660.844745 -116.701628 
L 658.663822 -110.601958 
L 656.482899 -107.364883 
L 654.301976 -112.089895 
L 652.121053 -121.970521 
L 649.94013 -126.775163 
L 647.759208 -118.124025 
L 645.578285 -116.646104 
L 643.397362 -126.143737 
L 641.216439 -134.198957 
L 639.035516 -132.439122 
L 636.854593 -134.796941 
L 634.67367 -133.488544 
L 632.492748 -128.787899 
L 630.311825 -124.872111 
L 628.130902 -119.720156 
L 625.949979 -122.675434 
L 623.769056 -121.960193 
L 621.588133 -117.540652 
L 619.40721 -122.736868 
L 617.226287 -123.303192 
L 615.045365 -118.009901 
L 612.864442 -116.388038 
L 610.683519 -111.411491 
L 608.502596 -105.070535 
L 606.321673 -104.489832 
L 604.14075 -113.55657 
L 601.959827 -119.491115 
L 599.778905 -111.658933 
L 597.597982 -99.88867 
L 595.417059 -99.897094 
L 593.236136 -106.702507 
L 591.055213 -115.962018 
L 588.87429 -120.78762 
L 586.693367 -123.999158 
L 584.512444 -126.081274 
L 582.331522 -122.801365 
L 580.150599 -127.822229 
L 577.969676 -131.126249 
L 575.788753 -130.133666 
L 573.60783 -134.592621 
L 571.426907 -146.096234 
L 569.245984 -141.898913 
L 567.065062 -132.362341 
L 564.884139 -124.892376 
L 562.703216 -120.545407 
L 560.522293 -119.962162 
L 558.34137 -115.708847 
L 556.160447 -105.730124 
L 553.979524 -106.983747 
L 551.798601 -119.063795 
L 549.617679 -120.095699 
L 547.436756 -124.794239 
L 545.255833 -127.497946 
L 543.07491 -124.994129 
L 540.893987 -127.504943 
L 538.713064 -123.871421 
L 536.532141 -122.906112 
L 534.351219 -128.884724 
L 532.170296 -135.522714 
L 529.989373 -134.231727 
L 527.80845 -123.951979 
L 525.627527 -120.821628 
L 523.446604 -120.775974 
L 521.265681 -122.753272 
L 519.084759 -121.574498 
z
" style="stroke: #ff7f0e; stroke-opacity: 0.15"/>
    </defs>
    <g clip-path="url(#p78597598cc)">
     <use xlink:href="#m3c3ce890e3" x="0" y="215.397188" style="fill: #ff7f0e; fill-opacity: 0.15; stroke: #ff7f0e; stroke-opacity: 0.15"/>
    </g>
   </g>
   <g id="line2d_31">
    <path d="M 509.488698 105.790171 
L 720.602031 105.790171 
" clip-path="url(#p78597598cc)" style="fill: none; stroke-dasharray: 2.96,1.28; stroke-dashoffset: 0; stroke: #000000; stroke-width: 0.8"/>
   </g>
   <g id="matplotlib.axis_5">
    <g id="xtick_11">
     <g id="line2d_32">
      <g>
       <use xlink:href="#me1e0930a97" x="514.722913" y="182.68" style="stroke: #000000; stroke-width: 0.8"/>
      </g>
     </g>
     <g id="text_24">
      <!-- 0 -->
      <g transform="translate(512.496038 194.998906) scale(0.07 -0.07)">
       <use xlink:href="#DejaVuSans-30"/>
      </g>
     </g>
    </g>
    <g id="xtick_12">
     <g id="line2d_33">
      <g>
       <use xlink:href="#me1e0930a97" x="558.34137" y="182.68" style="stroke: #000000; stroke-width: 0.8"/>
      </g>
     </g>
     <g id="text_25">
      <!-- 10 -->
      <g transform="translate(553.88762 194.998906) scale(0.07 -0.07)">
       <use xlink:href="#DejaVuSans-31"/>
       <use xlink:href="#DejaVuSans-30" transform="translate(63.623047 0)"/>
      </g>
     </g>
    </g>
    <g id="xtick_13">
     <g id="line2d_34">
      <g>
       <use xlink:href="#me1e0930a97" x="601.959827" y="182.68" style="stroke: #000000; stroke-width: 0.8"/>
      </g>
     </g>
     <g id="text_26">
      <!-- 20 -->
      <g transform="translate(597.506077 194.998906) scale(0.07 -0.07)">
       <use xlink:href="#DejaVuSans-32"/>
       <use xlink:href="#DejaVuSans-30" transform="translate(63.623047 0)"/>
      </g>
     </g>
    </g>
    <g id="xtick_14">
     <g id="line2d_35">
      <g>
       <use xlink:href="#me1e0930a97" x="645.578285" y="182.68" style="stroke: #000000; stroke-width: 0.8"/>
      </g>
     </g>
     <g id="text_27">
      <!-- 30 -->
      <g transform="translate(641.124535 194.998906) scale(0.07 -0.07)">
       <use xlink:href="#DejaVuSans-33"/>
       <use xlink:href="#DejaVuSans-30" transform="translate(63.623047 0)"/>
      </g>
     </g>
    </g>
    <g id="xtick_15">
     <g id="line2d_36">
      <g>
       <use xlink:href="#me1e0930a97" x="689.196742" y="182.68" style="stroke: #000000; stroke-width: 0.8"/>
      </g>
     </g>
     <g id="text_28">
      <!-- 40 -->
      <g transform="translate(684.742992 194.998906) scale(0.07 -0.07)">
       <use xlink:href="#DejaVuSans-34"/>
       <use xlink:href="#DejaVuSans-30" transform="translate(63.623047 0)"/>
      </g>
     </g>
    </g>
    <g id="text_29">
     <!-- Frequency (Hz) -->
     <g transform="translate(584.881615 206.533437) scale(0.08 -0.08)">
      <use xlink:href="#DejaVuSans-46"/>
      <use xlink:href="#DejaVuSans-72" transform="translate(50.269531 0)"/>
      <use xlink:href="#DejaVuSans-65" transform="translate(89.132812 0)"/>
      <use xlink:href="#DejaVuSans-71" transform="translate(150.65625 0)"/>
      <use xlink:href="#DejaVuSans-75" transform="translate(214.132812 0)"/>
      <use xlink:href="#DejaVuSans-65" transform="translate(277.511719 0)"/>
      <use xlink:href="#DejaVuSans-6e" transform="translate(339.035156 0)"/>
      <use xlink:href="#DejaVuSans-63" transform="translate(402.414062 0)"/>
      <use xlink:href="#DejaVuSans-79" transform="translate(457.394531 0)"/>
      <use xlink:href="#DejaVuSans-20" transform="translate(516.574219 0)"/>
      <use xlink:href="#DejaVuSans-28" transform="translate(548.361328 0)"/>
      <use xlink:href="#DejaVuSans-48" transform="translate(587.375 0)"/>
      <use xlink:href="#DejaVuSans-7a" transform="translate(662.570312 0)"/>
      <use xlink:href="#DejaVuSans-29" transform="translate(715.060547 0)"/>
     </g>
    </g>
   </g>
   <g id="matplotlib.axis_6">
    <g id="ytick_15">
     <g id="line2d_37">
      <g>
       <use xlink:href="#m69483ac420" x="509.488698" y="174.741203" style="stroke: #000000; stroke-width: 0.8"/>
      </g>
     </g>
    </g>
    <g id="ytick_16">
     <g id="line2d_38">
      <g>
       <use xlink:href="#m69483ac420" x="509.488698" y="157.503445" style="stroke: #000000; stroke-width: 0.8"/>
      </g>
     </g>
    </g>
    <g id="ytick_17">
     <g id="line2d_39">
      <g>
       <use xlink:href="#m69483ac420" x="509.488698" y="140.265687" style="stroke: #000000; stroke-width: 0.8"/>
      </g>
     </g>
    </g>
    <g id="ytick_18">
     <g id="line2d_40">
      <g>
       <use xlink:href="#m69483ac420" x="509.488698" y="123.027929" style="stroke: #000000; stroke-width: 0.8"/>
      </g>
     </g>
    </g>
    <g id="ytick_19">
     <g id="line2d_41">
      <g>
       <use xlink:href="#m69483ac420" x="509.488698" y="105.790171" style="stroke: #000000; stroke-width: 0.8"/>
      </g>
     </g>
    </g>
    <g id="ytick_20">
     <g id="line2d_42">
      <g>
       <use xlink:href="#m69483ac420" x="509.488698" y="88.552413" style="stroke: #000000; stroke-width: 0.8"/>
      </g>
     </g>
    </g>
    <g id="ytick_21">
     <g id="line2d_43">
      <g>
       <use xlink:href="#m69483ac420" x="509.488698" y="71.314655" style="stroke: #000000; stroke-width: 0.8"/>
      </g>
     </g>
    </g>
    <g id="text_30">
     <!-- ERD/ERS (dB) -->
     <g transform="translate(500.324948 148.236875) rotate(-90) scale(0.08 -0.08)">
      <use xlink:href="#DejaVuSans-45"/>
      <use xlink:href="#DejaVuSans-52" transform="translate(63.183594 0)"/>
      <use xlink:href="#DejaVuSans-44" transform="translate(132.666016 0)"/>
      <use xlink:href="#DejaVuSans-2f" transform="translate(209.667969 0)"/>
      <use xlink:href="#DejaVuSans-45" transform="translate(243.359375 0)"/>
      <use xlink:href="#DejaVuSans-52" transform="translate(306.542969 0)"/>
      <use xlink:href="#DejaVuSans-53" transform="translate(376.025391 0)"/>
      <use xlink:href="#DejaVuSans-20" transform="translate(439.501953 0)"/>
      <use xlink:href="#DejaVuSans-28" transform="translate(471.289062 0)"/>
      <use xlink:href="#DejaVuSans-64" transform="translate(510.302734 0)"/>
      <use xlink:href="#DejaVuSans-42" transform="translate(573.779297 0)"/>
      <use xlink:href="#DejaVuSans-29" transform="translate(642.382812 0)"/>
     </g>
    </g>
   </g>
   <g id="line2d_44">
    <path d="M 519.084759 110.491564 
L 521.265681 111.679351 
L 523.446604 113.293691 
L 525.627527 114.37576 
L 527.80845 118.31787 
L 529.989373 125.182484 
L 532.170296 135.447098 
L 534.351219 138.758381 
L 536.532141 138.801886 
L 538.713064 138.697944 
L 540.893987 138.023844 
L 543.07491 137.142973 
L 545.255833 136.293183 
L 547.436756 136.013751 
L 549.617679 136.651564 
L 551.798601 143.429909 
L 553.979524 153.957691 
L 556.160447 158.674956 
L 558.34137 164.34467 
L 560.522293 163.724307 
L 562.703216 156.417069 
L 564.884139 142.453863 
L 567.065062 122.780856 
L 569.245984 103.138103 
L 571.426907 97.259242 
L 573.60783 105.313343 
L 575.788753 118.09085 
L 577.969676 128.124937 
L 580.150599 134.390989 
L 582.331522 136.499578 
L 584.512444 137.97881 
L 586.693367 140.82847 
L 588.87429 143.015122 
L 591.055213 142.65438 
L 593.236136 144.114639 
L 595.417059 147.158608 
L 597.597982 149.810556 
L 599.778905 151.781453 
L 601.959827 152.708938 
L 604.14075 151.039 
L 606.321673 148.694248 
L 608.502596 147.40654 
L 610.683519 143.34829 
L 612.864442 136.709239 
L 615.045365 130.036349 
L 617.226287 125.622165 
L 619.40721 123.73319 
L 621.588133 123.823543 
L 623.769056 122.631317 
L 625.949979 121.310094 
L 628.130902 120.719912 
L 630.311825 119.931039 
L 632.492748 116.314836 
L 634.67367 115.518039 
L 636.854593 121.453816 
L 639.035516 128.023551 
L 641.216439 130.430556 
L 643.397362 132.538655 
L 645.578285 135.948959 
L 647.759208 140.702894 
L 649.94013 143.767211 
L 652.121053 145.322649 
L 654.301976 144.120285 
L 656.482899 143.982697 
L 658.663822 142.023746 
L 660.844745 140.613893 
L 663.025668 137.788779 
L 665.20659 132.952764 
L 667.387513 131.123543 
L 669.568436 129.710262 
L 671.749359 126.918742 
L 673.930282 125.60433 
L 676.111205 126.111785 
L 678.292128 123.862734 
L 680.473051 120.280652 
L 682.653973 118.93785 
L 684.834896 122.459883 
L 687.015819 124.558029 
L 689.196742 122.604963 
L 691.377665 117.235927 
L 693.558588 114.839249 
L 695.739511 118.094405 
L 697.920433 122.504954 
L 700.101356 125.742857 
L 702.282279 127.988228 
L 704.463202 125.824224 
L 706.644125 121.131015 
L 708.825048 116.814672 
L 711.005971 112.003051 
" clip-path="url(#p78597598cc)" style="fill: none; stroke: #1f77b4; stroke-width: 1.3; stroke-linecap: square"/>
   </g>
   <g id="line2d_45">
    <path d="M 519.084759 111.61242 
L 521.265681 109.381864 
L 523.446604 111.210332 
L 525.627527 111.460325 
L 527.80845 109.124262 
L 529.989373 101.947842 
L 532.170296 101.900014 
L 534.351219 108.459978 
L 536.532141 114.39633 
L 538.713064 113.060777 
L 540.893987 109.193165 
L 543.07491 108.92688 
L 545.255833 107.316387 
L 547.436756 111.41295 
L 549.617679 115.488795 
L 551.798601 118.21077 
L 553.979524 129.17095 
L 556.160447 128.081899 
L 558.34137 117.774093 
L 560.522293 113.328029 
L 562.703216 112.042792 
L 564.884139 107.906382 
L 567.065062 99.948648 
L 569.245984 89.927037 
L 571.426907 86.94702 
L 573.60783 99.212621 
L 575.788753 103.631274 
L 577.969676 102.813968 
L 580.150599 107.208843 
L 582.331522 111.096335 
L 584.512444 108.244673 
L 586.693367 109.047196 
L 588.87429 113.121539 
L 591.055213 121.002695 
L 593.236136 130.269481 
L 595.417059 134.70396 
L 597.597982 131.420497 
L 599.778905 119.860532 
L 601.959827 113.308433 
L 604.14075 119.810234 
L 606.321673 129.196888 
L 608.502596 129.250788 
L 610.683519 122.489613 
L 612.864442 116.591916 
L 615.045365 113.991735 
L 617.226287 109.830733 
L 619.40721 111.480649 
L 621.588133 113.435701 
L 623.769056 107.504354 
L 625.949979 106.310964 
L 628.130902 108.464284 
L 630.311825 105.24519 
L 632.492748 103.176957 
L 634.67367 97.919704 
L 636.854593 95.790249 
L 639.035516 98.941832 
L 641.216439 100.670612 
L 643.397362 106.942711 
L 645.578285 114.807233 
L 647.759208 115.322458 
L 649.94013 108.605784 
L 652.121053 111.037682 
L 654.301976 118.712673 
L 656.482899 122.564163 
L 658.663822 121.399733 
L 660.844745 118.174948 
L 663.025668 114.435657 
L 665.20659 108.011829 
L 667.387513 102.638392 
L 669.568436 101.237461 
L 671.749359 101.613747 
L 673.930282 102.302247 
L 676.111205 103.329777 
L 678.292128 106.998191 
L 680.473051 108.539003 
L 682.653973 110.177412 
L 684.834896 106.743363 
L 687.015819 100.696376 
L 689.196742 92.834026 
L 691.377665 90.519867 
L 693.558588 89.447747 
L 695.739511 91.083162 
L 697.920433 99.001813 
L 700.101356 106.671804 
L 702.282279 109.846872 
L 704.463202 105.251528 
L 706.644125 103.356562 
L 708.825048 106.289577 
L 711.005971 113.098017 
" clip-path="url(#p78597598cc)" style="fill: none; stroke: #ff7f0e; stroke-width: 1.3; stroke-linecap: square"/>
   </g>
   <g id="patch_19">
    <path d="M 509.488698 182.68 
L 509.488698 59.28 
" style="fill: none; stroke: #000000; stroke-width: 0.8; stroke-linejoin: miter; stroke-linecap: square"/>
   </g>
   <g id="patch_20">
    <path d="M 720.602031 182.68 
L 720.602031 59.28 
" style="fill: none; stroke: #000000; stroke-width: 0.8; stroke-linejoin: miter; stroke-linecap: square"/>
   </g>
   <g id="patch_21">
    <path d="M 509.488698 182.68 
L 720.602031 182.68 
" style="fill: none; stroke: #000000; stroke-width: 0.8; stroke-linejoin: miter; stroke-linecap: square"/>
   </g>
   <g id="patch_22">
    <path d="M 509.488698 59.28 
L 720.602031 59.28 
" style="fill: none; stroke: #000000; stroke-width: 0.8; stroke-linejoin: miter; stroke-linecap: square"/>
   </g>
   <g id="text_31">
    <!-- C4 -->
    <g transform="translate(609.039974 53.28) scale(0.09 -0.09)">
     <use xlink:href="#DejaVuSans-43"/>
     <use xlink:href="#DejaVuSans-34" transform="translate(69.824219 0)"/>
    </g>
   </g>
  </g>
  <g id="text_32">
   <!-- ERD/ERS — ME — S03 (Movement vs Rest) -->
   <g transform="translate(246.556172 15.558281) scale(0.11 -0.11)">
    <defs>
     <path id="DejaVuSans-2014" d="M 313 1978 
L 6088 1978 
L 6088 1528 
L 313 1528 
L 313 1978 
z
" transform="scale(0.015625)"/>
     <path id="DejaVuSans-4d" d="M 628 4666 
L 1569 4666 
L 2759 1491 
L 3956 4666 
L 4897 4666 
L 4897 0 
L 4281 0 
L 4281 4097 
L 3078 897 
L 2444 897 
L 1241 4097 
L 1241 0 
L 628 0 
L 628 4666 
z
" transform="scale(0.015625)"/>
     <path id="DejaVuSans-6f" d="M 1959 3097 
Q 1497 3097 1228 2736 
Q 959 2375 959 1747 
Q 959 1119 1226 758 
Q 1494 397 1959 397 
Q 2419 397 2687 759 
Q 2956 1122 2956 1747 
Q 2956 2369 2687 2733 
Q 2419 3097 1959 3097 
z
M 1959 3584 
Q 2709 3584 3137 3096 
Q 3566 2609 3566 1747 
Q 3566 888 3137 398 
Q 2709 -91 1959 -91 
Q 1206 -91 779 398 
Q 353 888 353 1747 
Q 353 2609 779 3096 
Q 1206 3584 1959 3584 
z
" transform="scale(0.015625)"/>
     <path id="DejaVuSans-76" d="M 191 3500 
L 800 3500 
L 1894 563 
L 2988 3500 
L 3597 3500 
L 2284 0 
L 1503 0 
L 191 3500 
z
" transform="scale(0.015625)"/>
     <path id="DejaVuSans-6d" d="M 3328 2828 
Q 3544 3216 3844 3400 
Q 4144 3584 4550 3584 
Q 5097 3584 5394 3201 
Q 5691 2819 5691 2113 
L 5691 0 
L 5113 0 
L 5113 2094 
Q 5113 2597 4934 2840 
Q 4756 3084 4391 3084 
Q 3944 3084 3684 2787 
Q 3425 2491 3425 1978 
L 3425 0 
L 2847 0 
L 2847 2094 
Q 2847 2600 2669 2842 
Q 2491 3084 2119 3084 
Q 1678 3084 1418 2786 
Q 1159 2488 1159 1978 
L 1159 0 
L 581 0 
L 581 3500 
L 1159 3500 
L 1159 2956 
Q 1356 3278 1631 3431 
Q 1906 3584 2284 3584 
Q 2666 3584 2933 3390 
Q 3200 3197 3328 2828 
z
" transform="scale(0.015625)"/>
     <path id="DejaVuSans-74" d="M 1172 4494 
L 1172 3500 
L 2356 3500 
L 2356 3053 
L 1172 3053 
L 1172 1153 
Q 1172 725 1289 603 
Q 1406 481 1766 481 
L 2356 481 
L 2356 0 
L 1766 0 
Q 1100 0 847 248 
Q 594 497 594 1153 
L 594 3053 
L 172 3053 
L 172 3500 
L 594 3500 
L 594 4494 
L 1172 4494 
z
" transform="scale(0.015625)"/>
     <path id="DejaVuSans-73" d="M 2834 3397 
L 2834 2853 
Q 2591 2978 2328 3040 
Q 2066 3103 1784 3103 
Q 1356 3103 1142 2972 
Q 928 2841 928 2578 
Q 928 2378 1081 2264 
Q 1234 2150 1697 2047 
L 1894 2003 
Q 2506 1872 2764 1633 
Q 3022 1394 3022 966 
Q 3022 478 2636 193 
Q 2250 -91 1575 -91 
Q 1294 -91 989 -36 
Q 684 19 347 128 
L 347 722 
Q 666 556 975 473 
Q 1284 391 1588 391 
Q 1994 391 2212 530 
Q 2431 669 2431 922 
Q 2431 1156 2273 1281 
Q 2116 1406 1581 1522 
L 1381 1569 
Q 847 1681 609 1914 
Q 372 2147 372 2553 
Q 372 3047 722 3315 
Q 1072 3584 1716 3584 
Q 2034 3584 2315 3537 
Q 2597 3491 2834 3397 
z
" transform="scale(0.015625)"/>
    </defs>
    <use xlink:href="#DejaVuSans-45"/>
    <use xlink:href="#DejaVuSans-52" transform="translate(63.183594 0)"/>
    <use xlink:href="#DejaVuSans-44" transform="translate(132.666016 0)"/>
    <use xlink:href="#DejaVuSans-2f" transform="translate(209.667969 0)"/>
    <use xlink:href="#DejaVuSans-45" transform="translate(243.359375 0)"/>
    <use xlink:href="#DejaVuSans-52" transform="translate(306.542969 0)"/>
    <use xlink:href="#DejaVuSans-53" transform="translate(376.025391 0)"/>
    <use xlink:href="#DejaVuSans-20" transform="translate(439.501953 0)"/>
    <use xlink:href="#DejaVuSans-2014" transform="translate(471.289062 0)"/>
    <use xlink:href="#DejaVuSans-20" transform="translate(571.289062 0)"/>
    <use xlink:href="#DejaVuSans-4d" transform="translate(603.076172 0)"/>
    <use xlink:href="#DejaVuSans-45" transform="translate(689.355469 0)"/>
    <use xlink:href="#DejaVuSans-20" transform="translate(752.539062 0)"/>
    <use xlink:href="#DejaVuSans-2014" transform="translate(784.326172 0)"/>
    <use xlink:href="#DejaVuSans-20" transform="translate(884.326172 0)"/>
    <use xlink:href="#DejaVuSans-53" transform="translate(916.113281 0)"/>
    <use xlink:href="#DejaVuSans-30" transform="translate(979.589844 0)"/>
    <use xlink:href="#DejaVuSans-33" transform="translate(1043.212891 0)"/>
    <use xlink:href="#DejaVuSans-20" transform="translate(1106.835938 0)"/>
    <use xlink:href="#DejaVuSans-28" transform="translate(1138.623047 0)"/>
    <use xlink:href="#DejaVuSans-4d" transform="translate(1177.636719 0)"/>
    <use xlink:href="#DejaVuSans-6f" transform="translate(1263.916016 0)"/>
    <use xlink:href="#DejaVuSans-76" transform="translate(1325.097656 0)"/>
    <use xlink:href="#DejaVuSans-65" transform="translate(1384.277344 0)"/>
    <use xlink:href="#DejaVuSans-6d" transform="translate(1445.800781 0)"/>
    <use xlink:href="#DejaVuSans-65" transform="translate(1543.212891 0)"/>
    <use xlink:href="#DejaVuSans-6e" transform="translate(1604.736328 0)"/>
    <use xlink:href="#DejaVuSans-74" transform="translate(1668.115234 0)"/>
    <use xlink:href="#DejaVuSans-20" transform="translate(1707.324219 0)"/>
    <use xlink:href="#DejaVuSans-76" transform="translate(1739.111328 0)"/>
    <use xlink:href="#DejaVuSans-73" transform="translate(1798.291016 0)"/>
    <use xlink:href="#DejaVuSans-20" transform="translate(1850.390625 0)"/>
    <use xlink:href="#DejaVuSans-52" transform="translate(1882.177734 0)"/>
    <use xlink:href="#DejaVuSans-65" transform="translate(1947.160156 0)"/>
    <use xlink:href="#DejaVuSans-73" transform="translate(2008.683594 0)"/>
    <use xlink:href="#DejaVuSans-74" transform="translate(2060.783203 0)"/>
    <use xlink:href="#DejaVuSans-29" transform="translate(2099.992188 0)"/>
   </g>
  </g>
  <g id="legend_1">
   <g id="patch_23">
    <path d="M 663.350812 30.109375 
L 722.830031 30.109375 
Q 724.230031 30.109375 724.230031 28.709375 
L 724.230031 8.86 
Q 724.230031 7.46 722.830031 7.46 
L 663.350812 7.46 
Q 661.950812 7.46 661.950812 8.86 
L 661.950812 28.709375 
Q 661.950812 30.109375 663.350812 30.109375 
z
" style="fill: #ffffff; opacity: 0.8; stroke: #cccccc; stroke-linejoin: miter"/>
   </g>
   <g id="line2d_46">
    <path d="M 664.750812 13.128906 
L 671.750812 13.128906 
L 678.750812 13.128906 
" style="fill: none; stroke: #1f77b4; stroke-width: 1.3; stroke-linecap: square"/>
   </g>
   <g id="text_33">
    <!-- Movement -->
    <g transform="translate(684.350812 15.578906) scale(0.07 -0.07)">
     <use xlink:href="#DejaVuSans-4d"/>
     <use xlink:href="#DejaVuSans-6f" transform="translate(86.279297 0)"/>
     <use xlink:href="#DejaVuSans-76" transform="translate(147.460938 0)"/>
     <use xlink:href="#DejaVuSans-65" transform="translate(206.640625 0)"/>
     <use xlink:href="#DejaVuSans-6d" transform="translate(268.164062 0)"/>
     <use xlink:href="#DejaVuSans-65" transform="translate(365.576172 0)"/>
     <use xlink:href="#DejaVuSans-6e" transform="translate(427.099609 0)"/>
     <use xlink:href="#DejaVuSans-74" transform="translate(490.478516 0)"/>
    </g>
   </g>
   <g id="line2d_47">
    <path d="M 664.750812 23.403594 
L 671.750812 23.403594 
L 678.750812 23.403594 
" style="fill: none; stroke: #ff7f0e; stroke-width: 1.3; stroke-linecap: square"/>
   </g>
   <g id="text_34">
    <!-- rest -->
    <g transform="translate(684.350812 25.853594) scale(0.07 -0.07)">
     <use xlink:href="#DejaVuSans-72"/>
     <use xlink:href="#DejaVuSans-65" transform="translate(38.863281 0)"/>
     <use xlink:href="#DejaVuSans-73" transform="translate(100.386719 0)"/>
     <use xlink:href="#DejaVuSans-74" transform="translate(152.486328 0)"/>
    </g>
   </g>
  </g>
 </g>
 <defs>
  <clipPath id="p56070693b0">
   <rect x="36.262031" y="59.28" width="211.113333" height="123.4"/>
  </clipPath>
  <clipPath id="p5bf0f7708d">
   <rect x="272.875365" y="59.28" width="211.113333" height="123.4"/>
  </clipPath>
  <clipPath id="p78597598cc">
   <rect x="509.488698" y="59.28" width="211.113333" height="123.4"/>
  </clipPath>
 </defs>
</svg>
