<?xml version="1.0" encoding="utf-8" standalone="no"?>
<!DOCTYPE svg PUBLIC "-//W3C//DTD SVG 1.1//EN"
  "http://www.w3.org/Graphics/SVG/1.1/DTD/svg11.dtd">
<svg xmlns:xlink="http://www.w3.org/1999/xlink" width="731.430031pt" height="215.397188pt" viewBox="0 0 731.430031 215.397188" xmlns="http://www.w3.org/2000/svg" version="1.1">
 <metadata>
  <rdf:RDF xmlns:dc="http://purl.org/dc/elements/1.1/" xmlns:cc="http://creativecommons.org/ns#" xmlns:rdf="http://www.w3.org/1999/02/22-rdf-syntax-ns#">
   <cc:Work>
    <dc:type rdf:resource="http://purl.org/dc/dcmitype/StillImage"/>
    <dc:date>2026-06-26T22:26:27.827460</dc:date>
    <dc:format>image/svg+xml</dc:format>
    <dc:creator>
     <cc:Agent>
      <dc:title>Matplotlib v3.10.9, https://matplotlib.org/</dc:title>
     </cc:Agent>
    </dc:creator>
   </cc:Work>
  </rdf:RDF>
 </metadata>
 <defs>
  <style type="text/css">*{stroke-linejoin: round; stroke-linecap: butt}</style>
 </defs>
 <g id="figure_1">
  <g id="patch_1">
   <path d="M 0 215.397188 
L 731.430031 215.397188 
L 731.430031 0 
L 0 0 
L 0 215.397188 
z
" style="fill: none"/>
  </g>
  <g id="axes_1">
   <g id="patch_2">
    <path d="M 36.262031 182.68 
L 247.375365 182.68 
L 247.375365 59.28 
L 36.262031 59.28 
L 36.262031 182.68 
z
" style="fill: none"/>
   </g>
   <g id="patch_3">
    <path d="M 76.391012 182.68 
L 98.200241 182.68 
L 98.200241 59.28 
L 76.391012 59.28 
z
" clip-path="url(#p8afb85001c)" style="fill: #d9d9d9; stroke: #d9d9d9; stroke-linejoin: miter"/>
   </g>
   <g id="patch_4">
    <path d="M 98.200241 182.68 
L 172.351618 182.68 
L 172.351618 59.28 
L 98.200241 59.28 
z
" clip-path="url(#p8afb85001c)" style="fill: #ebebeb; stroke: #ebebeb; stroke-linejoin: miter"/>
   </g>
   <g id="FillBetweenPolyCollection_1">
    <defs>
     <path id="m52e980019a" d="M 45.858092 -118.816455 
L 45.858092 -95.775129 
L 48.039015 -96.554581 
L 50.219938 -95.764403 
L 52.40086 -94.689909 
L 54.581783 -93.218552 
L 56.762706 -90.403066 
L 58.943629 -90.913905 
L 61.124552 -92.414087 
L 63.305475 -87.601363 
L 65.486398 -79.684408 
L 67.667321 -76.726456 
L 69.848243 -76.283959 
L 72.029166 -81.115876 
L 74.210089 -85.172668 
L 76.391012 -84.203438 
L 78.571935 -89.86444 
L 80.752858 -104.675769 
L 82.933781 -110.678865 
L 85.114703 -103.821184 
L 87.295626 -90.017466 
L 89.476549 -75.177869 
L 91.657472 -64.56969 
L 93.838395 -63.060357 
L 96.019318 -74.775303 
L 98.200241 -90.342523 
L 100.381163 -94.254057 
L 102.562086 -94.262685 
L 104.743009 -91.450834 
L 106.923932 -88.869348 
L 109.104855 -90.085875 
L 111.285778 -91.870104 
L 113.466701 -94.264865 
L 115.647624 -93.192709 
L 117.828546 -86.913791 
L 120.009469 -83.115186 
L 122.190392 -81.633493 
L 124.371315 -83.601107 
L 126.552238 -86.00798 
L 128.733161 -86.95838 
L 130.914084 -87.231945 
L 133.095006 -81.420864 
L 135.275929 -72.729241 
L 137.456852 -66.357331 
L 139.637775 -66.08743 
L 141.818698 -73.260218 
L 143.999621 -82.295101 
L 146.180544 -89.919406 
L 148.361467 -92.885215 
L 150.542389 -92.203273 
L 152.723312 -88.187009 
L 154.904235 -83.889029 
L 157.085158 -82.256072 
L 159.266081 -81.816359 
L 161.447004 -83.83071 
L 163.627927 -87.893111 
L 165.808849 -93.769128 
L 167.989772 -91.969203 
L 170.170695 -89.071726 
L 172.351618 -88.608977 
L 174.532541 -88.812888 
L 176.713464 -91.472212 
L 178.894387 -87.600725 
L 181.075309 -79.386305 
L 183.256232 -76.157875 
L 185.437155 -76.897044 
L 187.618078 -79.599735 
L 189.799001 -80.631737 
L 191.979924 -81.173051 
L 194.160847 -83.517059 
L 196.34177 -84.53743 
L 198.522692 -84.646219 
L 200.703615 -84.129763 
L 202.884538 -80.304716 
L 205.065461 -80.981119 
L 207.246384 -87.202399 
L 209.427307 -92.738449 
L 211.60823 -89.958041 
L 213.789152 -86.988218 
L 215.970075 -89.300252 
L 218.150998 -92.479495 
L 220.331921 -93.358221 
L 222.512844 -93.951783 
L 224.693767 -94.895805 
L 226.87469 -93.968505 
L 229.055613 -95.871502 
L 231.236535 -101.83313 
L 233.417458 -101.769734 
L 235.598381 -92.337742 
L 237.779304 -84.692009 
L 237.779304 -104.036196 
L 237.779304 -104.036196 
L 235.598381 -112.127211 
L 233.417458 -121.79583 
L 231.236535 -122.540243 
L 229.055613 -116.604563 
L 226.87469 -114.561722 
L 224.693767 -114.993912 
L 222.512844 -113.717907 
L 220.331921 -113.925964 
L 218.150998 -113.47946 
L 215.970075 -109.382491 
L 213.789152 -106.843619 
L 211.60823 -111.402788 
L 209.427307 -115.98607 
L 207.246384 -108.318653 
L 205.065461 -101.610953 
L 202.884538 -100.948679 
L 200.703615 -105.042416 
L 198.522692 -105.959086 
L 196.34177 -105.674126 
L 194.160847 -103.572329 
L 191.979924 -100.666971 
L 189.799001 -101.25944 
L 187.618078 -101.080627 
L 185.437155 -97.938869 
L 183.256232 -97.797435 
L 181.075309 -101.122795 
L 178.894387 -110.216096 
L 176.713464 -113.327586 
L 174.532541 -110.400141 
L 172.351618 -110.937277 
L 170.170695 -110.679185 
L 167.989772 -113.630736 
L 165.808849 -115.823164 
L 163.627927 -110.254115 
L 161.447004 -105.997349 
L 159.266081 -103.310887 
L 157.085158 -103.554071 
L 154.904235 -105.154863 
L 152.723312 -110.174356 
L 150.542389 -112.701965 
L 148.361467 -111.247251 
L 146.180544 -109.813475 
L 143.999621 -103.146563 
L 141.818698 -95.502702 
L 139.637775 -89.106821 
L 137.456852 -91.387006 
L 135.275929 -98.948577 
L 133.095006 -105.805161 
L 130.914084 -110.821613 
L 128.733161 -109.707027 
L 126.552238 -108.07965 
L 124.371315 -106.514497 
L 122.190392 -103.752743 
L 120.009469 -105.967895 
L 117.828546 -109.854028 
L 115.647624 -115.73005 
L 113.466701 -116.314335 
L 111.285778 -113.214487 
L 109.104855 -113.269757 
L 106.923932 -112.979093 
L 104.743009 -115.208967 
L 102.562086 -115.819033 
L 100.381163 -114.74858 
L 98.200241 -113.170437 
L 96.019318 -96.59154 
L 93.838395 -84.075835 
L 91.657472 -85.853373 
L 89.476549 -98.67772 
L 87.295626 -114.864075 
L 85.114703 -128.512695 
L 82.933781 -134.419466 
L 80.752858 -129.171771 
L 78.571935 -114.386438 
L 76.391012 -110.078556 
L 74.210089 -111.112346 
L 72.029166 -105.729597 
L 69.848243 -100.677512 
L 67.667321 -101.801793 
L 65.486398 -105.075019 
L 63.305475 -112.537064 
L 61.124552 -116.083827 
L 58.943629 -112.572451 
L 56.762706 -111.903562 
L 54.581783 -113.954092 
L 52.40086 -113.655472 
L 50.219938 -115.745191 
L 48.039015 -118.183917 
L 45.858092 -118.816455 
z
" style="stroke: #1f77b4; stroke-opacity: 0.15"/>
    </defs>
    <g clip-path="url(#p8afb85001c)">
     <use xlink:href="#m52e980019a" x="0" y="215.397188" style="fill: #1f77b4; fill-opacity: 0.15; stroke: #1f77b4; stroke-opacity: 0.15"/>
    </g>
   </g>
   <g id="FillBetweenPolyCollection_2">
    <defs>
     <path id="mbfff626907" d="M 45.858092 -140.933971 
L 45.858092 -94.184097 
L 48.039015 -97.621003 
L 50.219938 -99.913705 
L 52.40086 -95.763938 
L 54.581783 -90.655956 
L 56.762706 -87.940891 
L 58.943629 -79.151914 
L 61.124552 -72.76983 
L 63.305475 -73.081517 
L 65.486398 -76.952988 
L 67.667321 -80.067329 
L 69.848243 -70.639095 
L 72.029166 -61.35562 
L 74.210089 -66.73385 
L 76.391012 -76.302955 
L 78.571935 -77.699886 
L 80.752858 -75.013099 
L 82.933781 -74.367859 
L 85.114703 -78.161202 
L 87.295626 -82.053403 
L 89.476549 -83.003321 
L 91.657472 -79.683643 
L 93.838395 -76.663817 
L 96.019318 -72.524723 
L 98.200241 -67.639459 
L 100.381163 -71.959698 
L 102.562086 -72.177222 
L 104.743009 -63.002793 
L 106.923932 -57.042838 
L 109.104855 -63.161685 
L 111.285778 -77.293741 
L 113.466701 -81.093538 
L 115.647624 -69.309573 
L 117.828546 -59.761671 
L 120.009469 -57.038664 
L 122.190392 -56.965522 
L 124.371315 -63.274484 
L 126.552238 -72.947612 
L 128.733161 -75.836168 
L 130.914084 -75.450443 
L 133.095006 -71.852456 
L 135.275929 -61.710921 
L 137.456852 -55.851173 
L 139.637775 -59.144919 
L 141.818698 -68.181916 
L 143.999621 -71.314903 
L 146.180544 -67.785031 
L 148.361467 -68.955839 
L 150.542389 -65.518567 
L 152.723312 -58.486139 
L 154.904235 -61.9597 
L 157.085158 -72.101379 
L 159.266081 -79.012154 
L 161.447004 -84.874427 
L 163.627927 -86.41605 
L 165.808849 -78.460797 
L 167.989772 -76.665822 
L 170.170695 -84.281301 
L 172.351618 -92.376521 
L 174.532541 -93.319772 
L 176.713464 -82.224049 
L 178.894387 -69.886203 
L 181.075309 -70.257744 
L 183.256232 -77.149863 
L 185.437155 -76.986145 
L 187.618078 -70.100464 
L 189.799001 -69.092958 
L 191.979924 -75.233574 
L 194.160847 -82.550706 
L 196.34177 -78.792239 
L 198.522692 -75.393821 
L 200.703615 -77.42467 
L 202.884538 -80.014372 
L 205.065461 -74.522189 
L 207.246384 -72.692284 
L 209.427307 -72.973558 
L 211.60823 -71.014017 
L 213.789152 -73.377898 
L 215.970075 -77.542115 
L 218.150998 -75.797382 
L 220.331921 -69.798285 
L 222.512844 -70.277881 
L 224.693767 -67.010413 
L 226.87469 -58.630823 
L 229.055613 -59.414476 
L 231.236535 -71.560335 
L 233.417458 -89.97865 
L 235.598381 -102.127963 
L 237.779304 -100.234741 
L 237.779304 -136.012703 
L 237.779304 -136.012703 
L 235.598381 -141.044641 
L 233.417458 -126.952936 
L 231.236535 -110.129764 
L 229.055613 -96.901821 
L 226.87469 -93.791524 
L 224.693767 -107.22146 
L 222.512844 -114.093146 
L 220.331921 -114.735466 
L 218.150998 -120.245248 
L 215.970075 -122.339153 
L 213.789152 -115.183518 
L 211.60823 -114.940671 
L 209.427307 -112.343109 
L 207.246384 -110.708358 
L 205.065461 -117.729884 
L 202.884538 -128.016914 
L 200.703615 -119.952053 
L 198.522692 -114.811841 
L 196.34177 -120.746279 
L 194.160847 -124.617172 
L 191.979924 -114.103454 
L 189.799001 -115.391142 
L 187.618078 -122.209592 
L 185.437155 -122.644311 
L 183.256232 -124.649855 
L 181.075309 -115.76547 
L 178.894387 -112.584836 
L 176.713464 -123.949998 
L 174.532541 -139.476993 
L 172.351618 -136.627198 
L 170.170695 -126.043787 
L 167.989772 -117.334925 
L 165.808849 -114.58032 
L 163.627927 -122.286437 
L 161.447004 -121.80856 
L 159.266081 -121.957271 
L 157.085158 -117.621681 
L 154.904235 -110.174512 
L 152.723312 -109.350791 
L 150.542389 -114.279807 
L 148.361467 -115.14724 
L 146.180544 -113.930389 
L 143.999621 -116.92028 
L 141.818698 -115.957244 
L 139.637775 -102.18733 
L 137.456852 -103.582199 
L 135.275929 -113.4031 
L 133.095006 -130.712504 
L 130.914084 -128.256621 
L 128.733161 -118.972766 
L 126.552238 -114.397972 
L 124.371315 -102.79269 
L 122.190392 -99.954684 
L 120.009469 -104.450909 
L 117.828546 -108.232773 
L 115.647624 -114.922073 
L 113.466701 -122.952474 
L 111.285778 -118.277391 
L 109.104855 -103.728457 
L 106.923932 -99.187053 
L 104.743009 -104.849151 
L 102.562086 -115.581398 
L 100.381163 -111.305719 
L 98.200241 -112.34531 
L 96.019318 -119.020315 
L 93.838395 -125.953442 
L 91.657472 -131.030737 
L 89.476549 -137.233815 
L 87.295626 -135.896241 
L 85.114703 -128.911282 
L 82.933781 -122.689468 
L 80.752858 -127.135623 
L 78.571935 -130.595011 
L 76.391012 -129.958929 
L 74.210089 -119.210024 
L 72.029166 -106.415121 
L 69.848243 -112.050486 
L 67.667321 -119.965321 
L 65.486398 -115.712893 
L 63.305475 -119.110851 
L 61.124552 -125.609404 
L 58.943629 -125.527737 
L 56.762706 -133.147966 
L 54.581783 -141.017615 
L 52.40086 -141.491956 
L 50.219938 -143.390687 
L 48.039015 -143.558903 
L 45.858092 -140.933971 
z
" style="stroke: #ff7f0e; stroke-opacity: 0.15"/>
    </defs>
    <g clip-path="url(#p8afb85001c)">
     <use xlink:href="#mbfff626907" x="0" y="215.397188" style="fill: #ff7f0e; fill-opacity: 0.15; stroke: #ff7f0e; stroke-opacity: 0.15"/>
    </g>
   </g>
   <g id="line2d_1">
    <path d="M 36.262031 108.035252 
L 247.375365 108.035252 
" clip-path="url(#p8afb85001c)" style="fill: none; stroke-dasharray: 2.96,1.28; stroke-dashoffset: 0; stroke: #000000; stroke-width: 0.8"/>
   </g>
   <g id="matplotlib.axis_1">
    <g id="xtick_1">
     <g id="line2d_2">
      <defs>
       <path id="md78c71d275" d="M 0 0 
L 0 3.5 
" style="stroke: #000000; stroke-width: 0.8"/>
      </defs>
      <g>
       <use xlink:href="#md78c71d275" x="41.496246" y="182.68" style="stroke: #000000; stroke-width: 0.8"/>
      </g>
     </g>
     <g id="text_1">
      <!-- 0 -->
      <g transform="translate(39.269371 194.998906) scale(0.07 -0.07)">
       <defs>
        <path id="DejaVuSans-30" d="M 2034 4250 
Q 1547 4250 1301 3770 
Q 1056 3291 1056 2328 
Q 1056 1369 1301 889 
Q 1547 409 2034 409 
Q 2525 409 2770 889 
Q 3016 1369 3016 2328 
Q 3016 3291 2770 3770 
Q 2525 4250 2034 4250 
z
M 2034 4750 
Q 2819 4750 3233 4129 
Q 3647 3509 3647 2328 
Q 3647 1150 3233 529 
Q 2819 -91 2034 -91 
Q 1250 -91 836 529 
Q 422 1150 422 2328 
Q 422 3509 836 4129 
Q 1250 4750 2034 4750 
z
" transform="scale(0.015625)"/>
       </defs>
       <use xlink:href="#DejaVuSans-30"/>
      </g>
     </g>
    </g>
    <g id="xtick_2">
     <g id="line2d_3">
      <g>
       <use xlink:href="#md78c71d275" x="85.114703" y="182.68" style="stroke: #000000; stroke-width: 0.8"/>
      </g>
     </g>
     <g id="text_2">
      <!-- 10 -->
      <g transform="translate(80.660953 194.998906) scale(0.07 -0.07)">
       <defs>
        <path id="DejaVuSans-31" d="M 794 531 
L 1825 531 
L 1825 4091 
L 703 3866 
L 703 4441 
L 1819 4666 
L 2450 4666 
L 2450 531 
L 3481 531 
L 3481 0 
L 794 0 
L 794 531 
z
" transform="scale(0.015625)"/>
       </defs>
       <use xlink:href="#DejaVuSans-31"/>
       <use xlink:href="#DejaVuSans-30" transform="translate(63.623047 0)"/>
      </g>
     </g>
    </g>
    <g id="xtick_3">
     <g id="line2d_4">
      <g>
       <use xlink:href="#md78c71d275" x="128.733161" y="182.68" style="stroke: #000000; stroke-width: 0.8"/>
      </g>
     </g>
     <g id="text_3">
      <!-- 20 -->
      <g transform="translate(124.279411 194.998906) scale(0.07 -0.07)">
       <defs>
        <path id="DejaVuSans-32" d="M 1228 531 
L 3431 531 
L 3431 0 
L 469 0 
L 469 531 
Q 828 903 1448 1529 
Q 2069 2156 2228 2338 
Q 2531 2678 2651 2914 
Q 2772 3150 2772 3378 
Q 2772 3750 2511 3984 
Q 2250 4219 1831 4219 
Q 1534 4219 1204 4116 
Q 875 4013 500 3803 
L 500 4441 
Q 881 4594 1212 4672 
Q 1544 4750 1819 4750 
Q 2544 4750 2975 4387 
Q 3406 4025 3406 3419 
Q 3406 3131 3298 2873 
Q 3191 2616 2906 2266 
Q 2828 2175 2409 1742 
Q 1991 1309 1228 531 
z
" transform="scale(0.015625)"/>
       </defs>
       <use xlink:href="#DejaVuSans-32"/>
       <use xlink:href="#DejaVuSans-30" transform="translate(63.623047 0)"/>
      </g>
     </g>
    </g>
    <g id="xtick_4">
     <g id="line2d_5">
      <g>
       <use xlink:href="#md78c71d275" x="172.351618" y="182.68" style="stroke: #000000; stroke-width: 0.8"/>
      </g>
     </g>
     <g id="text_4">
      <!-- 30 -->
      <g transform="translate(167.897868 194.998906) scale(0.07 -0.07)">
       <defs>
        <path id="DejaVuSans-33" d="M 2597 2516 
Q 3050 2419 3304 2112 
Q 3559 1806 3559 1356 
Q 3559 666 3084 287 
Q 2609 -91 1734 -91 
Q 1441 -91 1130 -33 
Q 819 25 488 141 
L 488 750 
Q 750 597 1062 519 
Q 1375 441 1716 441 
Q 2309 441 2620 675 
Q 2931 909 2931 1356 
Q 2931 1769 2642 2001 
Q 2353 2234 1838 2234 
L 1294 2234 
L 1294 2753 
L 1863 2753 
Q 2328 2753 2575 2939 
Q 2822 3125 2822 3475 
Q 2822 3834 2567 4026 
Q 2313 4219 1838 4219 
Q 1578 4219 1281 4162 
Q 984 4106 628 3988 
L 628 4550 
Q 988 4650 1302 4700 
Q 1616 4750 1894 4750 
Q 2613 4750 3031 4423 
Q 3450 4097 3450 3541 
Q 3450 3153 3228 2886 
Q 3006 2619 2597 2516 
z
" transform="scale(0.015625)"/>
       </defs>
       <use xlink:href="#DejaVuSans-33"/>
       <use xlink:href="#DejaVuSans-30" transform="translate(63.623047 0)"/>
      </g>
     </g>
    </g>
    <g id="xtick_5">
     <g id="line2d_6">
      <g>
       <use xlink:href="#md78c71d275" x="215.970075" y="182.68" style="stroke: #000000; stroke-width: 0.8"/>
      </g>
     </g>
     <g id="text_5">
      <!-- 40 -->
      <g transform="translate(211.516325 194.998906) scale(0.07 -0.07)">
       <defs>
        <path id="DejaVuSans-34" d="M 2419 4116 
L 825 1625 
L 2419 1625 
L 2419 4116 
z
M 2253 4666 
L 3047 4666 
L 3047 1625 
L 3713 1625 
L 3713 1100 
L 3047 1100 
L 3047 0 
L 2419 0 
L 2419 1100 
L 313 1100 
L 313 1709 
L 2253 4666 
z
" transform="scale(0.015625)"/>
       </defs>
       <use xlink:href="#DejaVuSans-34"/>
       <use xlink:href="#DejaVuSans-30" transform="translate(63.623047 0)"/>
      </g>
     </g>
    </g>
    <g id="text_6">
     <!-- Frequency (Hz) -->
     <g transform="translate(111.654948 206.533437) scale(0.08 -0.08)">
      <defs>
       <path id="DejaVuSans-46" d="M 628 4666 
L 3309 4666 
L 3309 4134 
L 1259 4134 
L 1259 2759 
L 3109 2759 
L 3109 2228 
L 1259 2228 
L 1259 0 
L 628 0 
L 628 4666 
z
" transform="scale(0.015625)"/>
       <path id="DejaVuSans-72" d="M 2631 2963 
Q 2534 3019 2420 3045 
Q 2306 3072 2169 3072 
Q 1681 3072 1420 2755 
Q 1159 2438 1159 1844 
L 1159 0 
L 581 0 
L 581 3500 
L 1159 3500 
L 1159 2956 
Q 1341 3275 1631 3429 
Q 1922 3584 2338 3584 
Q 2397 3584 2469 3576 
Q 2541 3569 2628 3553 
L 2631 2963 
z
" transform="scale(0.015625)"/>
       <path id="DejaVuSans-65" d="M 3597 1894 
L 3597 1613 
L 953 1613 
Q 991 1019 1311 708 
Q 1631 397 2203 397 
Q 2534 397 2845 478 
Q 3156 559 3463 722 
L 3463 178 
Q 3153 47 2828 -22 
Q 2503 -91 2169 -91 
Q 1331 -91 842 396 
Q 353 884 353 1716 
Q 353 2575 817 3079 
Q 1281 3584 2069 3584 
Q 2775 3584 3186 3129 
Q 3597 2675 3597 1894 
z
M 3022 2063 
Q 3016 2534 2758 2815 
Q 2500 3097 2075 3097 
Q 1594 3097 1305 2825 
Q 1016 2553 972 2059 
L 3022 2063 
z
" transform="scale(0.015625)"/>
       <path id="DejaVuSans-71" d="M 947 1747 
Q 947 1113 1208 752 
Q 1469 391 1925 391 
Q 2381 391 2643 752 
Q 2906 1113 2906 1747 
Q 2906 2381 2643 2742 
Q 2381 3103 1925 3103 
Q 1469 3103 1208 2742 
Q 947 2381 947 1747 
z
M 2906 525 
Q 2725 213 2448 61 
Q 2172 -91 1784 -91 
Q 1150 -91 751 415 
Q 353 922 353 1747 
Q 353 2572 751 3078 
Q 1150 3584 1784 3584 
Q 2172 3584 2448 3432 
Q 2725 3281 2906 2969 
L 2906 3500 
L 3481 3500 
L 3481 -1331 
L 2906 -1331 
L 2906 525 
z
" transform="scale(0.015625)"/>
       <path id="DejaVuSans-75" d="M 544 1381 
L 544 3500 
L 1119 3500 
L 1119 1403 
Q 1119 906 1312 657 
Q 1506 409 1894 409 
Q 2359 409 2629 706 
Q 2900 1003 2900 1516 
L 2900 3500 
L 3475 3500 
L 3475 0 
L 2900 0 
L 2900 538 
Q 2691 219 2414 64 
Q 2138 -91 1772 -91 
Q 1169 -91 856 284 
Q 544 659 544 1381 
z
M 1991 3584 
L 1991 3584 
z
" transform="scale(0.015625)"/>
       <path id="DejaVuSans-6e" d="M 3513 2113 
L 3513 0 
L 2938 0 
L 2938 2094 
Q 2938 2591 2744 2837 
Q 2550 3084 2163 3084 
Q 1697 3084 1428 2787 
Q 1159 2491 1159 1978 
L 1159 0 
L 581 0 
L 581 3500 
L 1159 3500 
L 1159 2956 
Q 1366 3272 1645 3428 
Q 1925 3584 2291 3584 
Q 2894 3584 3203 3211 
Q 3513 2838 3513 2113 
z
" transform="scale(0.015625)"/>
       <path id="DejaVuSans-63" d="M 3122 3366 
L 3122 2828 
Q 2878 2963 2633 3030 
Q 2388 3097 2138 3097 
Q 1578 3097 1268 2742 
Q 959 2388 959 1747 
Q 959 1106 1268 751 
Q 1578 397 2138 397 
Q 2388 397 2633 464 
Q 2878 531 3122 666 
L 3122 134 
Q 2881 22 2623 -34 
Q 2366 -91 2075 -91 
Q 1284 -91 818 406 
Q 353 903 353 1747 
Q 353 2603 823 3093 
Q 1294 3584 2113 3584 
Q 2378 3584 2631 3529 
Q 2884 3475 3122 3366 
z
" transform="scale(0.015625)"/>
       <path id="DejaVuSans-79" d="M 2059 -325 
Q 1816 -950 1584 -1140 
Q 1353 -1331 966 -1331 
L 506 -1331 
L 506 -850 
L 844 -850 
Q 1081 -850 1212 -737 
Q 1344 -625 1503 -206 
L 1606 56 
L 191 3500 
L 800 3500 
L 1894 763 
L 2988 3500 
L 3597 3500 
L 2059 -325 
z
" transform="scale(0.015625)"/>
       <path id="DejaVuSans-20" transform="scale(0.015625)"/>
       <path id="DejaVuSans-28" d="M 1984 4856 
Q 1566 4138 1362 3434 
Q 1159 2731 1159 2009 
Q 1159 1288 1364 580 
Q 1569 -128 1984 -844 
L 1484 -844 
Q 1016 -109 783 600 
Q 550 1309 550 2009 
Q 550 2706 781 3412 
Q 1013 4119 1484 4856 
L 1984 4856 
z
" transform="scale(0.015625)"/>
       <path id="DejaVuSans-48" d="M 628 4666 
L 1259 4666 
L 1259 2753 
L 3553 2753 
L 3553 4666 
L 4184 4666 
L 4184 0 
L 3553 0 
L 3553 2222 
L 1259 2222 
L 1259 0 
L 628 0 
L 628 4666 
z
" transform="scale(0.015625)"/>
       <path id="DejaVuSans-7a" d="M 353 3500 
L 3084 3500 
L 3084 2975 
L 922 459 
L 3084 459 
L 3084 0 
L 275 0 
L 275 525 
L 2438 3041 
L 353 3041 
L 353 3500 
z
" transform="scale(0.015625)"/>
       <path id="DejaVuSans-29" d="M 513 4856 
L 1013 4856 
Q 1481 4119 1714 3412 
Q 1947 2706 1947 2009 
Q 1947 1309 1714 600 
Q 1481 -109 1013 -844 
L 513 -844 
Q 928 -128 1133 580 
Q 1338 1288 1338 2009 
Q 1338 2731 1133 3434 
Q 928 4138 513 4856 
z
" transform="scale(0.015625)"/>
      </defs>
      <use xlink:href="#DejaVuSans-46"/>
      <use xlink:href="#DejaVuSans-72" transform="translate(50.269531 0)"/>
      <use xlink:href="#DejaVuSans-65" transform="translate(89.132812 0)"/>
      <use xlink:href="#DejaVuSans-71" transform="translate(150.65625 0)"/>
      <use xlink:href="#DejaVuSans-75" transform="translate(214.132812 0)"/>
      <use xlink:href="#DejaVuSans-65" transform="translate(277.511719 0)"/>
      <use xlink:href="#DejaVuSans-6e" transform="translate(339.035156 0)"/>
      <use xlink:href="#DejaVuSans-63" transform="translate(402.414062 0)"/>
      <use xlink:href="#DejaVuSans-79" transform="translate(457.394531 0)"/>
      <use xlink:href="#DejaVuSans-20" transform="translate(516.574219 0)"/>
      <use xlink:href="#DejaVuSans-28" transform="translate(548.361328 0)"/>
      <use xlink:href="#DejaVuSans-48" transform="translate(587.375 0)"/>
      <use xlink:href="#DejaVuSans-7a" transform="translate(662.570312 0)"/>
      <use xlink:href="#DejaVuSans-29" transform="translate(715.060547 0)"/>
     </g>
    </g>
   </g>
   <g id="matplotlib.axis_2">
    <g id="ytick_1">
     <g id="line2d_7">
      <defs>
       <path id="m196793a2e2" d="M 0 0 
L -3.5 0 
" style="stroke: #000000; stroke-width: 0.8"/>
      </defs>
      <g>
       <use xlink:href="#m196793a2e2" x="36.262031" y="176.779058" style="stroke: #000000; stroke-width: 0.8"/>
      </g>
     </g>
     <g id="text_7">
      <!-- −3 -->
      <g transform="translate(18.9425 179.438511) scale(0.07 -0.07)">
       <defs>
        <path id="DejaVuSans-2212" d="M 678 2272 
L 4684 2272 
L 4684 1741 
L 678 1741 
L 678 2272 
z
" transform="scale(0.015625)"/>
       </defs>
       <use xlink:href="#DejaVuSans-2212"/>
       <use xlink:href="#DejaVuSans-33" transform="translate(83.789062 0)"/>
      </g>
     </g>
    </g>
    <g id="ytick_2">
     <g id="line2d_8">
      <g>
       <use xlink:href="#m196793a2e2" x="36.262031" y="153.864456" style="stroke: #000000; stroke-width: 0.8"/>
      </g>
     </g>
     <g id="text_8">
      <!-- −2 -->
      <g transform="translate(18.9425 156.523909) scale(0.07 -0.07)">
       <use xlink:href="#DejaVuSans-2212"/>
       <use xlink:href="#DejaVuSans-32" transform="translate(83.789062 0)"/>
      </g>
     </g>
    </g>
    <g id="ytick_3">
     <g id="line2d_9">
      <g>
       <use xlink:href="#m196793a2e2" x="36.262031" y="130.949854" style="stroke: #000000; stroke-width: 0.8"/>
      </g>
     </g>
     <g id="text_9">
      <!-- −1 -->
      <g transform="translate(18.9425 133.609307) scale(0.07 -0.07)">
       <use xlink:href="#DejaVuSans-2212"/>
       <use xlink:href="#DejaVuSans-31" transform="translate(83.789062 0)"/>
      </g>
     </g>
    </g>
    <g id="ytick_4">
     <g id="line2d_10">
      <g>
       <use xlink:href="#m196793a2e2" x="36.262031" y="108.035252" style="stroke: #000000; stroke-width: 0.8"/>
      </g>
     </g>
     <g id="text_10">
      <!-- 0 -->
      <g transform="translate(24.808281 110.694705) scale(0.07 -0.07)">
       <use xlink:href="#DejaVuSans-30"/>
      </g>
     </g>
    </g>
    <g id="ytick_5">
     <g id="line2d_11">
      <g>
       <use xlink:href="#m196793a2e2" x="36.262031" y="85.12065" style="stroke: #000000; stroke-width: 0.8"/>
      </g>
     </g>
     <g id="text_11">
      <!-- 1 -->
      <g transform="translate(24.808281 87.780103) scale(0.07 -0.07)">
       <use xlink:href="#DejaVuSans-31"/>
      </g>
     </g>
    </g>
    <g id="ytick_6">
     <g id="line2d_12">
      <g>
       <use xlink:href="#m196793a2e2" x="36.262031" y="62.206047" style="stroke: #000000; stroke-width: 0.8"/>
      </g>
     </g>
     <g id="text_12">
      <!-- 2 -->
      <g transform="translate(24.808281 64.8655) scale(0.07 -0.07)">
       <use xlink:href="#DejaVuSans-32"/>
      </g>
     </g>
    </g>
    <g id="text_13">
     <!-- ERD/ERS (dB) -->
     <g transform="translate(13.27875 148.236875) rotate(-90) scale(0.08 -0.08)">
      <defs>
       <path id="DejaVuSans-45" d="M 628 4666 
L 3578 4666 
L 3578 4134 
L 1259 4134 
L 1259 2753 
L 3481 2753 
L 3481 2222 
L 1259 2222 
L 1259 531 
L 3634 531 
L 3634 0 
L 628 0 
L 628 4666 
z
" transform="scale(0.015625)"/>
       <path id="DejaVuSans-52" d="M 2841 2188 
Q 3044 2119 3236 1894 
Q 3428 1669 3622 1275 
L 4263 0 
L 3584 0 
L 2988 1197 
Q 2756 1666 2539 1819 
Q 2322 1972 1947 1972 
L 1259 1972 
L 1259 0 
L 628 0 
L 628 4666 
L 2053 4666 
Q 2853 4666 3247 4331 
Q 3641 3997 3641 3322 
Q 3641 2881 3436 2590 
Q 3231 2300 2841 2188 
z
M 1259 4147 
L 1259 2491 
L 2053 2491 
Q 2509 2491 2742 2702 
Q 2975 2913 2975 3322 
Q 2975 3731 2742 3939 
Q 2509 4147 2053 4147 
L 1259 4147 
z
" transform="scale(0.015625)"/>
       <path id="DejaVuSans-44" d="M 1259 4147 
L 1259 519 
L 2022 519 
Q 2988 519 3436 956 
Q 3884 1394 3884 2338 
Q 3884 3275 3436 3711 
Q 2988 4147 2022 4147 
L 1259 4147 
z
M 628 4666 
L 1925 4666 
Q 3281 4666 3915 4102 
Q 4550 3538 4550 2338 
Q 4550 1131 3912 565 
Q 3275 0 1925 0 
L 628 0 
L 628 4666 
z
" transform="scale(0.015625)"/>
       <path id="DejaVuSans-2f" d="M 1625 4666 
L 2156 4666 
L 531 -594 
L 0 -594 
L 1625 4666 
z
" transform="scale(0.015625)"/>
       <path id="DejaVuSans-53" d="M 3425 4513 
L 3425 3897 
Q 3066 4069 2747 4153 
Q 2428 4238 2131 4238 
Q 1616 4238 1336 4038 
Q 1056 3838 1056 3469 
Q 1056 3159 1242 3001 
Q 1428 2844 1947 2747 
L 2328 2669 
Q 3034 2534 3370 2195 
Q 3706 1856 3706 1288 
Q 3706 609 3251 259 
Q 2797 -91 1919 -91 
Q 1588 -91 1214 -16 
Q 841 59 441 206 
L 441 856 
Q 825 641 1194 531 
Q 1563 422 1919 422 
Q 2459 422 2753 634 
Q 3047 847 3047 1241 
Q 3047 1584 2836 1778 
Q 2625 1972 2144 2069 
L 1759 2144 
Q 1053 2284 737 2584 
Q 422 2884 422 3419 
Q 422 4038 858 4394 
Q 1294 4750 2059 4750 
Q 2388 4750 2728 4690 
Q 3069 4631 3425 4513 
z
" transform="scale(0.015625)"/>
       <path id="DejaVuSans-64" d="M 2906 2969 
L 2906 4863 
L 3481 4863 
L 3481 0 
L 2906 0 
L 2906 525 
Q 2725 213 2448 61 
Q 2172 -91 1784 -91 
Q 1150 -91 751 415 
Q 353 922 353 1747 
Q 353 2572 751 3078 
Q 1150 3584 1784 3584 
Q 2172 3584 2448 3432 
Q 2725 3281 2906 2969 
z
M 947 1747 
Q 947 1113 1208 752 
Q 1469 391 1925 391 
Q 2381 391 2643 752 
Q 2906 1113 2906 1747 
Q 2906 2381 2643 2742 
Q 2381 3103 1925 3103 
Q 1469 3103 1208 2742 
Q 947 2381 947 1747 
z
" transform="scale(0.015625)"/>
       <path id="DejaVuSans-42" d="M 1259 2228 
L 1259 519 
L 2272 519 
Q 2781 519 3026 730 
Q 3272 941 3272 1375 
Q 3272 1813 3026 2020 
Q 2781 2228 2272 2228 
L 1259 2228 
z
M 1259 4147 
L 1259 2741 
L 2194 2741 
Q 2656 2741 2882 2914 
Q 3109 3088 3109 3444 
Q 3109 3797 2882 3972 
Q 2656 4147 2194 4147 
L 1259 4147 
z
M 628 4666 
L 2241 4666 
Q 2963 4666 3353 4366 
Q 3744 4066 3744 3513 
Q 3744 3084 3544 2831 
Q 3344 2578 2956 2516 
Q 3422 2416 3680 2098 
Q 3938 1781 3938 1306 
Q 3938 681 3513 340 
Q 3088 0 2303 0 
L 628 0 
L 628 4666 
z
" transform="scale(0.015625)"/>
      </defs>
      <use xlink:href="#DejaVuSans-45"/>
      <use xlink:href="#DejaVuSans-52" transform="translate(63.183594 0)"/>
      <use xlink:href="#DejaVuSans-44" transform="translate(132.666016 0)"/>
      <use xlink:href="#DejaVuSans-2f" transform="translate(209.667969 0)"/>
      <use xlink:href="#DejaVuSans-45" transform="translate(243.359375 0)"/>
      <use xlink:href="#DejaVuSans-52" transform="translate(306.542969 0)"/>
      <use xlink:href="#DejaVuSans-53" transform="translate(376.025391 0)"/>
      <use xlink:href="#DejaVuSans-20" transform="translate(439.501953 0)"/>
      <use xlink:href="#DejaVuSans-28" transform="translate(471.289062 0)"/>
      <use xlink:href="#DejaVuSans-64" transform="translate(510.302734 0)"/>
      <use xlink:href="#DejaVuSans-42" transform="translate(573.779297 0)"/>
      <use xlink:href="#DejaVuSans-29" transform="translate(642.382812 0)"/>
     </g>
    </g>
   </g>
   <g id="line2d_13">
    <path d="M 45.858092 108.101395 
L 48.039015 108.027939 
L 50.219938 109.64239 
L 52.40086 111.224497 
L 54.581783 111.810865 
L 56.762706 114.243874 
L 58.943629 113.654009 
L 61.124552 111.148231 
L 63.305475 115.327974 
L 65.486398 123.017474 
L 67.667321 126.133063 
L 69.848243 126.916452 
L 72.029166 121.974451 
L 74.210089 117.25468 
L 76.391012 118.256191 
L 78.571935 113.271749 
L 80.752858 98.473418 
L 82.933781 92.848022 
L 85.114703 99.230248 
L 87.295626 112.956417 
L 89.476549 128.469393 
L 91.657472 140.185656 
L 93.838395 141.829092 
L 96.019318 129.713766 
L 98.200241 113.640707 
L 100.381163 110.895869 
L 102.562086 110.356329 
L 104.743009 112.067287 
L 106.923932 114.472967 
L 109.104855 113.719372 
L 111.285778 112.854892 
L 113.466701 110.107587 
L 115.647624 110.935808 
L 117.828546 117.013278 
L 120.009469 120.855647 
L 122.190392 122.704069 
L 124.371315 120.339386 
L 126.552238 118.353372 
L 128.733161 117.064484 
L 130.914084 116.370408 
L 133.095006 121.784175 
L 135.275929 129.558278 
L 137.456852 136.525019 
L 139.637775 137.800062 
L 141.818698 131.015728 
L 143.999621 122.676355 
L 146.180544 115.530747 
L 148.361467 113.330955 
L 150.542389 112.944569 
L 152.723312 116.216505 
L 154.904235 120.875241 
L 157.085158 122.492116 
L 159.266081 122.833564 
L 161.447004 120.483158 
L 163.627927 116.323574 
L 165.808849 110.601041 
L 167.989772 112.597218 
L 170.170695 115.521732 
L 172.351618 115.624061 
L 174.532541 115.790673 
L 176.713464 112.997288 
L 178.894387 116.488777 
L 181.075309 125.142637 
L 183.256232 128.419532 
L 185.437155 127.979231 
L 187.618078 125.057006 
L 189.799001 124.451599 
L 191.979924 124.477177 
L 194.160847 121.852493 
L 196.34177 120.291409 
L 198.522692 120.094535 
L 200.703615 120.811098 
L 202.884538 124.77049 
L 205.065461 124.101151 
L 207.246384 117.636661 
L 209.427307 111.034928 
L 211.60823 114.716773 
L 213.789152 118.481269 
L 215.970075 116.055816 
L 218.150998 112.41771 
L 220.331921 111.755095 
L 222.512844 111.562342 
L 224.693767 110.452329 
L 226.87469 111.132074 
L 229.055613 109.159155 
L 231.236535 103.210501 
L 233.417458 103.614405 
L 235.598381 113.164711 
L 237.779304 121.033085 
" clip-path="url(#p8afb85001c)" style="fill: none; stroke: #1f77b4; stroke-width: 1.3; stroke-linecap: square"/>
   </g>
   <g id="line2d_14">
    <path d="M 45.858092 97.838153 
L 48.039015 94.807235 
L 50.219938 93.744991 
L 52.40086 96.769241 
L 54.581783 99.560402 
L 56.762706 104.852759 
L 58.943629 113.057362 
L 61.124552 116.207571 
L 63.305475 119.301003 
L 65.486398 119.064247 
L 67.667321 115.380862 
L 69.848243 124.052397 
L 72.029166 131.511817 
L 74.210089 122.425251 
L 76.391012 112.266245 
L 78.571935 111.249739 
L 80.752858 114.322827 
L 82.933781 116.868524 
L 85.114703 111.860946 
L 87.295626 106.422366 
L 89.476549 105.278619 
L 91.657472 110.039998 
L 93.838395 114.088558 
L 96.019318 119.624669 
L 98.200241 125.404803 
L 100.381163 123.764479 
L 102.562086 121.517878 
L 104.743009 131.471215 
L 106.923932 137.282242 
L 109.104855 131.952116 
L 111.285778 117.611621 
L 113.466701 113.374182 
L 115.647624 123.281365 
L 117.828546 131.399966 
L 120.009469 134.652401 
L 122.190392 136.937084 
L 124.371315 132.3636 
L 126.552238 121.724395 
L 128.733161 117.992721 
L 130.914084 113.543655 
L 133.095006 114.114708 
L 135.275929 127.840177 
L 137.456852 135.680502 
L 139.637775 134.731063 
L 141.818698 123.327608 
L 143.999621 121.279596 
L 146.180544 124.539478 
L 148.361467 123.345648 
L 150.542389 125.498001 
L 152.723312 131.478722 
L 154.904235 129.330082 
L 157.085158 120.535658 
L 159.266081 114.912475 
L 161.447004 112.055694 
L 163.627927 111.045944 
L 165.808849 118.876629 
L 167.989772 118.396814 
L 170.170695 110.234643 
L 172.351618 100.895328 
L 174.532541 98.998805 
L 176.713464 112.310164 
L 178.894387 124.161668 
L 181.075309 122.385581 
L 183.256232 114.497329 
L 185.437155 115.581959 
L 187.618078 119.242159 
L 189.799001 123.155138 
L 191.979924 120.728674 
L 194.160847 111.813248 
L 196.34177 115.627929 
L 198.522692 120.294356 
L 200.703615 116.708826 
L 202.884538 111.381545 
L 205.065461 119.271151 
L 207.246384 123.696867 
L 209.427307 122.738854 
L 211.60823 122.419844 
L 213.789152 121.116479 
L 215.970075 115.456554 
L 218.150998 117.375873 
L 220.331921 123.130312 
L 222.512844 123.211674 
L 224.693767 128.281251 
L 226.87469 139.186014 
L 229.055613 137.239039 
L 231.236535 124.552138 
L 233.417458 106.931395 
L 235.598381 93.810886 
L 237.779304 97.273465 
" clip-path="url(#p8afb85001c)" style="fill: none; stroke: #ff7f0e; stroke-width: 1.3; stroke-linecap: square"/>
   </g>
   <g id="patch_5">
    <path d="M 36.262031 182.68 
L 36.262031 59.28 
" style="fill: none; stroke: #000000; stroke-width: 0.8; stroke-linejoin: miter; stroke-linecap: square"/>
   </g>
   <g id="patch_6">
    <path d="M 247.375365 182.68 
L 247.375365 59.28 
" style="fill: none; stroke: #000000; stroke-width: 0.8; stroke-linejoin: miter; stroke-linecap: square"/>
   </g>
   <g id="patch_7">
    <path d="M 36.262031 182.68 
L 247.375365 182.68 
" style="fill: none; stroke: #000000; stroke-width: 0.8; stroke-linejoin: miter; stroke-linecap: square"/>
   </g>
   <g id="patch_8">
    <path d="M 36.262031 59.28 
L 247.375365 59.28 
" style="fill: none; stroke: #000000; stroke-width: 0.8; stroke-linejoin: miter; stroke-linecap: square"/>
   </g>
   <g id="text_14">
    <!-- C3 -->
    <g transform="translate(135.813307 53.28) scale(0.09 -0.09)">
     <defs>
      <path id="DejaVuSans-43" d="M 4122 4306 
L 4122 3641 
Q 3803 3938 3442 4084 
Q 3081 4231 2675 4231 
Q 1875 4231 1450 3742 
Q 1025 3253 1025 2328 
Q 1025 1406 1450 917 
Q 1875 428 2675 428 
Q 3081 428 3442 575 
Q 3803 722 4122 1019 
L 4122 359 
Q 3791 134 3420 21 
Q 3050 -91 2638 -91 
Q 1578 -91 968 557 
Q 359 1206 359 2328 
Q 359 3453 968 4101 
Q 1578 4750 2638 4750 
Q 3056 4750 3426 4639 
Q 3797 4528 4122 4306 
z
" transform="scale(0.015625)"/>
     </defs>
     <use xlink:href="#DejaVuSans-43"/>
     <use xlink:href="#DejaVuSans-33" transform="translate(69.824219 0)"/>
    </g>
   </g>
  </g>
  <g id="axes_2">
   <g id="patch_9">
    <path d="M 272.875365 182.68 
L 483.988698 182.68 
L 483.988698 59.28 
L 272.875365 59.28 
L 272.875365 182.68 
z
" style="fill: none"/>
   </g>
   <g id="patch_10">
    <path d="M 313.004345 182.68 
L 334.813574 182.68 
L 334.813574 59.28 
L 313.004345 59.28 
z
" clip-path="url(#pfb273df2d3)" style="fill: #d9d9d9; stroke: #d9d9d9; stroke-linejoin: miter"/>
   </g>
   <g id="patch_11">
    <path d="M 334.813574 182.68 
L 408.964951 182.68 
L 408.964951 59.28 
L 334.813574 59.28 
z
" clip-path="url(#pfb273df2d3)" style="fill: #ebebeb; stroke: #ebebeb; stroke-linejoin: miter"/>
   </g>
   <g id="FillBetweenPolyCollection_3">
    <defs>
     <path id="mb90b32ea3a" d="M 282.471425 -119.971862 
L 282.471425 -94.755102 
L 284.652348 -93.987318 
L 286.833271 -92.083087 
L 289.014194 -88.769715 
L 291.195117 -82.610321 
L 293.37604 -78.245102 
L 295.556962 -72.074744 
L 297.737885 -63.104127 
L 299.918808 -55.991283 
L 302.099731 -55.612352 
L 304.280654 -61.353535 
L 306.461577 -72.459612 
L 308.6425 -85.568562 
L 310.823422 -93.510392 
L 313.004345 -93.749258 
L 315.185268 -93.20034 
L 317.366191 -94.090927 
L 319.547114 -94.097496 
L 321.728037 -91.993652 
L 323.90896 -86.059373 
L 326.089882 -79.64736 
L 328.270805 -76.325548 
L 330.451728 -78.452421 
L 332.632651 -89.3431 
L 334.813574 -92.119234 
L 336.994497 -88.507235 
L 339.17542 -89.996908 
L 341.356343 -94.914693 
L 343.537265 -97.794483 
L 345.718188 -100.815169 
L 347.899111 -98.675331 
L 350.080034 -99.552054 
L 352.260957 -103.021446 
L 354.44188 -103.546338 
L 356.622803 -105.066707 
L 358.803725 -104.537899 
L 360.984648 -103.806949 
L 363.165571 -105.210801 
L 365.346494 -110.436818 
L 367.527417 -110.459659 
L 369.70834 -106.355726 
L 371.889263 -98.824557 
L 374.070186 -93.34065 
L 376.251108 -94.671739 
L 378.432031 -97.736814 
L 380.612954 -94.581952 
L 382.793877 -88.63502 
L 384.9748 -87.898253 
L 387.155723 -91.435169 
L 389.336646 -93.713256 
L 391.517568 -93.862099 
L 393.698491 -94.773715 
L 395.879414 -96.197658 
L 398.060337 -95.490962 
L 400.24126 -93.698569 
L 402.422183 -92.170465 
L 404.603106 -95.328783 
L 406.784028 -98.634776 
L 408.964951 -96.389001 
L 411.145874 -94.603053 
L 413.326797 -95.321042 
L 415.50772 -94.687054 
L 417.688643 -89.438896 
L 419.869566 -87.315822 
L 422.050489 -88.643581 
L 424.231411 -93.668629 
L 426.412334 -97.763533 
L 428.593257 -95.525405 
L 430.77418 -92.22941 
L 432.955103 -95.328084 
L 435.136026 -99.424077 
L 437.316949 -96.231618 
L 439.497871 -91.285047 
L 441.678794 -90.531118 
L 443.859717 -89.403113 
L 446.04064 -91.240092 
L 448.221563 -94.304417 
L 450.402486 -97.856503 
L 452.583409 -98.950253 
L 454.764332 -96.585457 
L 456.945254 -97.880236 
L 459.126177 -100.820198 
L 461.3071 -102.706283 
L 463.488023 -101.635665 
L 465.668946 -99.293708 
L 467.849869 -100.017279 
L 470.030792 -100.903365 
L 472.211714 -96.386245 
L 474.392637 -92.20008 
L 474.392637 -113.617199 
L 474.392637 -113.617199 
L 472.211714 -116.903939 
L 470.030792 -122.368677 
L 467.849869 -122.05143 
L 465.668946 -120.522951 
L 463.488023 -123.317496 
L 461.3071 -123.951976 
L 459.126177 -122.443951 
L 456.945254 -118.689125 
L 454.764332 -117.770891 
L 452.583409 -120.50167 
L 450.402486 -118.437462 
L 448.221563 -114.418761 
L 446.04064 -110.171993 
L 443.859717 -108.506217 
L 441.678794 -109.599992 
L 439.497871 -111.107864 
L 437.316949 -116.97017 
L 435.136026 -120.271421 
L 432.955103 -116.211492 
L 430.77418 -112.008201 
L 428.593257 -114.618373 
L 426.412334 -118.152702 
L 424.231411 -114.531275 
L 422.050489 -111.537319 
L 419.869566 -111.719414 
L 417.688643 -114.399659 
L 415.50772 -119.168856 
L 413.326797 -118.421714 
L 411.145874 -117.15094 
L 408.964951 -118.845214 
L 406.784028 -121.793472 
L 404.603106 -117.048786 
L 402.422183 -111.688744 
L 400.24126 -113.146342 
L 398.060337 -116.252325 
L 395.879414 -118.354724 
L 393.698491 -116.743591 
L 391.517568 -114.987835 
L 389.336646 -116.212618 
L 387.155723 -114.669834 
L 384.9748 -111.208871 
L 382.793877 -113.068532 
L 380.612954 -119.214342 
L 378.432031 -120.374442 
L 376.251108 -116.496419 
L 374.070186 -115.391067 
L 371.889263 -123.382992 
L 369.70834 -132.844564 
L 367.527417 -135.448895 
L 365.346494 -134.600813 
L 363.165571 -128.900872 
L 360.984648 -128.635546 
L 358.803725 -128.763977 
L 356.622803 -127.550278 
L 354.44188 -125.177188 
L 352.260957 -125.094619 
L 350.080034 -121.308509 
L 347.899111 -120.278491 
L 345.718188 -123.712255 
L 343.537265 -121.007968 
L 341.356343 -117.339211 
L 339.17542 -109.730734 
L 336.994497 -107.516297 
L 334.813574 -112.078028 
L 332.632651 -111.230284 
L 330.451728 -100.249658 
L 328.270805 -99.437094 
L 326.089882 -102.814735 
L 323.90896 -110.776994 
L 321.728037 -117.827672 
L 319.547114 -119.517245 
L 317.366191 -121.299923 
L 315.185268 -121.259571 
L 313.004345 -120.67839 
L 310.823422 -118.94069 
L 308.6425 -109.031566 
L 306.461577 -95.263023 
L 304.280654 -84.01156 
L 302.099731 -77.958483 
L 299.918808 -77.798347 
L 297.737885 -85.387248 
L 295.556962 -94.361495 
L 293.37604 -101.972274 
L 291.195117 -105.392087 
L 289.014194 -110.365227 
L 286.833271 -114.879552 
L 284.652348 -118.232033 
L 282.471425 -119.971862 
z
" style="stroke: #1f77b4; stroke-opacity: 0.15"/>
    </defs>
    <g clip-path="url(#pfb273df2d3)">
     <use xlink:href="#mb90b32ea3a" x="0" y="215.397188" style="fill: #1f77b4; fill-opacity: 0.15; stroke: #1f77b4; stroke-opacity: 0.15"/>
    </g>
   </g>
   <g id="FillBetweenPolyCollection_4">
    <defs>
     <path id="m6c50199c7c" d="M 282.471425 -111.802765 
L 282.471425 -64.457911 
L 284.652348 -68.763781 
L 286.833271 -71.840899 
L 289.014194 -76.779776 
L 291.195117 -77.201802 
L 293.37604 -71.185145 
L 295.556962 -55.974164 
L 297.737885 -41.211934 
L 299.918808 -38.326278 
L 302.099731 -52.27703 
L 304.280654 -65.70055 
L 306.461577 -71.265183 
L 308.6425 -76.873565 
L 310.823422 -74.846036 
L 313.004345 -76.97028 
L 315.185268 -82.806107 
L 317.366191 -77.401244 
L 319.547114 -70.80187 
L 321.728037 -66.593812 
L 323.90896 -65.65584 
L 326.089882 -65.831943 
L 328.270805 -65.168115 
L 330.451728 -62.250542 
L 332.632651 -55.002377 
L 334.813574 -49.808715 
L 336.994497 -54.847482 
L 339.17542 -65.519802 
L 341.356343 -72.1164 
L 343.537265 -75.69933 
L 345.718188 -83.422635 
L 347.899111 -86.597563 
L 350.080034 -83.91977 
L 352.260957 -76.630794 
L 354.44188 -76.138819 
L 356.622803 -77.292346 
L 358.803725 -75.934792 
L 360.984648 -77.841145 
L 363.165571 -79.110219 
L 365.346494 -75.826656 
L 367.527417 -73.604748 
L 369.70834 -67.638707 
L 371.889263 -52.251807 
L 374.070186 -44.271497 
L 376.251108 -52.233306 
L 378.432031 -64.224965 
L 380.612954 -73.772703 
L 382.793877 -74.924612 
L 384.9748 -66.286226 
L 387.155723 -62.454386 
L 389.336646 -73.657319 
L 391.517568 -84.331599 
L 393.698491 -93.775045 
L 395.879414 -98.511912 
L 398.060337 -101.137655 
L 400.24126 -96.033695 
L 402.422183 -81.348668 
L 404.603106 -76.892834 
L 406.784028 -81.031451 
L 408.964951 -79.216712 
L 411.145874 -79.74108 
L 413.326797 -81.221743 
L 415.50772 -80.101112 
L 417.688643 -71.215646 
L 419.869566 -71.399503 
L 422.050489 -74.968131 
L 424.231411 -75.701109 
L 426.412334 -68.40652 
L 428.593257 -67.190059 
L 430.77418 -74.183551 
L 432.955103 -80.21665 
L 435.136026 -81.002336 
L 437.316949 -79.542344 
L 439.497871 -77.830379 
L 441.678794 -77.737456 
L 443.859717 -79.30645 
L 446.04064 -80.384225 
L 448.221563 -77.691904 
L 450.402486 -75.561456 
L 452.583409 -77.705539 
L 454.764332 -78.007001 
L 456.945254 -74.594372 
L 459.126177 -70.646983 
L 461.3071 -68.602002 
L 463.488023 -63.710913 
L 465.668946 -58.403313 
L 467.849869 -58.978543 
L 470.030792 -67.867619 
L 472.211714 -75.155745 
L 474.392637 -75.829393 
L 474.392637 -118.557653 
L 474.392637 -118.557653 
L 472.211714 -121.438062 
L 470.030792 -109.803078 
L 467.849869 -100.33827 
L 465.668946 -101.680069 
L 463.488023 -108.994867 
L 461.3071 -114.742588 
L 459.126177 -118.875375 
L 456.945254 -122.50254 
L 454.764332 -121.934181 
L 452.583409 -118.318558 
L 450.402486 -122.342357 
L 448.221563 -129.972961 
L 446.04064 -121.154672 
L 443.859717 -120.548965 
L 441.678794 -121.54473 
L 439.497871 -118.773576 
L 437.316949 -114.293678 
L 435.136026 -116.438234 
L 432.955103 -122.745535 
L 430.77418 -115.735162 
L 428.593257 -111.962948 
L 426.412334 -114.2506 
L 424.231411 -124.55717 
L 422.050489 -121.524808 
L 419.869566 -113.396265 
L 417.688643 -108.622715 
L 415.50772 -115.11263 
L 413.326797 -122.144633 
L 411.145874 -125.660121 
L 408.964951 -126.953992 
L 406.784028 -124.086646 
L 404.603106 -113.311181 
L 402.422183 -115.380863 
L 400.24126 -137.042704 
L 398.060337 -142.655845 
L 395.879414 -142.989057 
L 393.698491 -141.781982 
L 391.517568 -133.058233 
L 389.336646 -118.68155 
L 387.155723 -105.346169 
L 384.9748 -110.585595 
L 382.793877 -106.744885 
L 380.612954 -103.620335 
L 378.432031 -100.980009 
L 376.251108 -92.474172 
L 374.070186 -91.955054 
L 371.889263 -105.136406 
L 369.70834 -118.733637 
L 367.527417 -124.773375 
L 365.346494 -126.617637 
L 363.165571 -128.753875 
L 360.984648 -130.311418 
L 358.803725 -127.614378 
L 356.622803 -122.503728 
L 354.44188 -116.82386 
L 352.260957 -111.129696 
L 350.080034 -119.275684 
L 347.899111 -128.900677 
L 345.718188 -126.295576 
L 343.537265 -116.158957 
L 341.356343 -114.992412 
L 339.17542 -106.96165 
L 336.994497 -97.817439 
L 334.813574 -94.042509 
L 332.632651 -104.152167 
L 330.451728 -116.246419 
L 328.270805 -112.823234 
L 326.089882 -108.654987 
L 323.90896 -111.090865 
L 321.728037 -116.552282 
L 319.547114 -121.677459 
L 317.366191 -133.055097 
L 315.185268 -142.450507 
L 313.004345 -132.617787 
L 310.823422 -121.329481 
L 308.6425 -117.521437 
L 306.461577 -116.318172 
L 304.280654 -110.353849 
L 302.099731 -90.945423 
L 299.918808 -77.067548 
L 297.737885 -82.161807 
L 295.556962 -99.113726 
L 293.37604 -118.352244 
L 291.195117 -121.547486 
L 289.014194 -117.00657 
L 286.833271 -116.386926 
L 284.652348 -115.314897 
L 282.471425 -111.802765 
z
" style="stroke: #ff7f0e; stroke-opacity: 0.15"/>
    </defs>
    <g clip-path="url(#pfb273df2d3)">
     <use xlink:href="#m6c50199c7c" x="0" y="215.397188" style="fill: #ff7f0e; fill-opacity: 0.15; stroke: #ff7f0e; stroke-opacity: 0.15"/>
    </g>
   </g>
   <g id="line2d_15">
    <path d="M 272.875365 108.035252 
L 483.988698 108.035252 
" clip-path="url(#pfb273df2d3)" style="fill: none; stroke-dasharray: 2.96,1.28; stroke-dashoffset: 0; stroke: #000000; stroke-width: 0.8"/>
   </g>
   <g id="matplotlib.axis_3">
    <g id="xtick_6">
     <g id="line2d_16">
      <g>
       <use xlink:href="#md78c71d275" x="278.109579" y="182.68" style="stroke: #000000; stroke-width: 0.8"/>
      </g>
     </g>
     <g id="text_15">
      <!-- 0 -->
      <g transform="translate(275.882704 194.998906) scale(0.07 -0.07)">
       <use xlink:href="#DejaVuSans-30"/>
      </g>
     </g>
    </g>
    <g id="xtick_7">
     <g id="line2d_17">
      <g>
       <use xlink:href="#md78c71d275" x="321.728037" y="182.68" style="stroke: #000000; stroke-width: 0.8"/>
      </g>
     </g>
     <g id="text_16">
      <!-- 10 -->
      <g transform="translate(317.274287 194.998906) scale(0.07 -0.07)">
       <use xlink:href="#DejaVuSans-31"/>
       <use xlink:href="#DejaVuSans-30" transform="translate(63.623047 0)"/>
      </g>
     </g>
    </g>
    <g id="xtick_8">
     <g id="line2d_18">
      <g>
       <use xlink:href="#md78c71d275" x="365.346494" y="182.68" style="stroke: #000000; stroke-width: 0.8"/>
      </g>
     </g>
     <g id="text_17">
      <!-- 20 -->
      <g transform="translate(360.892744 194.998906) scale(0.07 -0.07)">
       <use xlink:href="#DejaVuSans-32"/>
       <use xlink:href="#DejaVuSans-30" transform="translate(63.623047 0)"/>
      </g>
     </g>
    </g>
    <g id="xtick_9">
     <g id="line2d_19">
      <g>
       <use xlink:href="#md78c71d275" x="408.964951" y="182.68" style="stroke: #000000; stroke-width: 0.8"/>
      </g>
     </g>
     <g id="text_18">
      <!-- 30 -->
      <g transform="translate(404.511201 194.998906) scale(0.07 -0.07)">
       <use xlink:href="#DejaVuSans-33"/>
       <use xlink:href="#DejaVuSans-30" transform="translate(63.623047 0)"/>
      </g>
     </g>
    </g>
    <g id="xtick_10">
     <g id="line2d_20">
      <g>
       <use xlink:href="#md78c71d275" x="452.583409" y="182.68" style="stroke: #000000; stroke-width: 0.8"/>
      </g>
     </g>
     <g id="text_19">
      <!-- 40 -->
      <g transform="translate(448.129659 194.998906) scale(0.07 -0.07)">
       <use xlink:href="#DejaVuSans-34"/>
       <use xlink:href="#DejaVuSans-30" transform="translate(63.623047 0)"/>
      </g>
     </g>
    </g>
    <g id="text_20">
     <!-- Frequency (Hz) -->
     <g transform="translate(348.268281 206.533437) scale(0.08 -0.08)">
      <use xlink:href="#DejaVuSans-46"/>
      <use xlink:href="#DejaVuSans-72" transform="translate(50.269531 0)"/>
      <use xlink:href="#DejaVuSans-65" transform="translate(89.132812 0)"/>
      <use xlink:href="#DejaVuSans-71" transform="translate(150.65625 0)"/>
      <use xlink:href="#DejaVuSans-75" transform="translate(214.132812 0)"/>
      <use xlink:href="#DejaVuSans-65" transform="translate(277.511719 0)"/>
      <use xlink:href="#DejaVuSans-6e" transform="translate(339.035156 0)"/>
      <use xlink:href="#DejaVuSans-63" transform="translate(402.414062 0)"/>
      <use xlink:href="#DejaVuSans-79" transform="translate(457.394531 0)"/>
      <use xlink:href="#DejaVuSans-20" transform="translate(516.574219 0)"/>
      <use xlink:href="#DejaVuSans-28" transform="translate(548.361328 0)"/>
      <use xlink:href="#DejaVuSans-48" transform="translate(587.375 0)"/>
      <use xlink:href="#DejaVuSans-7a" transform="translate(662.570312 0)"/>
      <use xlink:href="#DejaVuSans-29" transform="translate(715.060547 0)"/>
     </g>
    </g>
   </g>
   <g id="matplotlib.axis_4">
    <g id="ytick_7">
     <g id="line2d_21">
      <g>
       <use xlink:href="#m196793a2e2" x="272.875365" y="176.779058" style="stroke: #000000; stroke-width: 0.8"/>
      </g>
     </g>
    </g>
    <g id="ytick_8">
     <g id="line2d_22">
      <g>
       <use xlink:href="#m196793a2e2" x="272.875365" y="153.864456" style="stroke: #000000; stroke-width: 0.8"/>
      </g>
     </g>
    </g>
    <g id="ytick_9">
     <g id="line2d_23">
      <g>
       <use xlink:href="#m196793a2e2" x="272.875365" y="130.949854" style="stroke: #000000; stroke-width: 0.8"/>
      </g>
     </g>
    </g>
    <g id="ytick_10">
     <g id="line2d_24">
      <g>
       <use xlink:href="#m196793a2e2" x="272.875365" y="108.035252" style="stroke: #000000; stroke-width: 0.8"/>
      </g>
     </g>
    </g>
    <g id="ytick_11">
     <g id="line2d_25">
      <g>
       <use xlink:href="#m196793a2e2" x="272.875365" y="85.12065" style="stroke: #000000; stroke-width: 0.8"/>
      </g>
     </g>
    </g>
    <g id="ytick_12">
     <g id="line2d_26">
      <g>
       <use xlink:href="#m196793a2e2" x="272.875365" y="62.206047" style="stroke: #000000; stroke-width: 0.8"/>
      </g>
     </g>
    </g>
    <g id="text_21">
     <!-- ERD/ERS (dB) -->
     <g transform="translate(263.711615 148.236875) rotate(-90) scale(0.08 -0.08)">
      <use xlink:href="#DejaVuSans-45"/>
      <use xlink:href="#DejaVuSans-52" transform="translate(63.183594 0)"/>
      <use xlink:href="#DejaVuSans-44" transform="translate(132.666016 0)"/>
      <use xlink:href="#DejaVuSans-2f" transform="translate(209.667969 0)"/>
      <use xlink:href="#DejaVuSans-45" transform="translate(243.359375 0)"/>
      <use xlink:href="#DejaVuSans-52" transform="translate(306.542969 0)"/>
      <use xlink:href="#DejaVuSans-53" transform="translate(376.025391 0)"/>
      <use xlink:href="#DejaVuSans-20" transform="translate(439.501953 0)"/>
      <use xlink:href="#DejaVuSans-28" transform="translate(471.289062 0)"/>
      <use xlink:href="#DejaVuSans-64" transform="translate(510.302734 0)"/>
      <use xlink:href="#DejaVuSans-42" transform="translate(573.779297 0)"/>
      <use xlink:href="#DejaVuSans-29" transform="translate(642.382812 0)"/>
     </g>
    </g>
   </g>
   <g id="line2d_27">
    <path d="M 282.471425 108.033706 
L 284.652348 109.287512 
L 286.833271 111.915868 
L 289.014194 115.829717 
L 291.195117 121.395983 
L 293.37604 125.2885 
L 295.556962 132.179068 
L 297.737885 141.1515 
L 299.918808 148.502373 
L 302.099731 148.61177 
L 304.280654 142.71464 
L 306.461577 131.53587 
L 308.6425 118.097123 
L 310.823422 109.171646 
L 313.004345 108.183364 
L 315.185268 108.167232 
L 317.366191 107.701763 
L 319.547114 108.589817 
L 321.728037 110.486525 
L 323.90896 116.979004 
L 326.089882 124.16614 
L 328.270805 127.515866 
L 330.451728 126.046148 
L 332.632651 115.110495 
L 334.813574 113.298557 
L 336.994497 117.385422 
L 339.17542 115.533366 
L 341.356343 109.270236 
L 343.537265 105.995962 
L 345.718188 103.133475 
L 347.899111 105.920277 
L 350.080034 104.966906 
L 352.260957 101.339155 
L 354.44188 101.035425 
L 356.622803 99.088695 
L 358.803725 98.74625 
L 360.984648 99.17594 
L 363.165571 98.341351 
L 365.346494 92.878372 
L 367.527417 92.44291 
L 369.70834 95.797043 
L 371.889263 104.293413 
L 374.070186 111.031329 
L 376.251108 109.813109 
L 378.432031 106.34156 
L 380.612954 108.499041 
L 382.793877 114.545411 
L 384.9748 115.843626 
L 387.155723 112.344686 
L 389.336646 110.434251 
L 391.517568 110.972221 
L 393.698491 109.638535 
L 395.879414 108.120997 
L 398.060337 109.525544 
L 400.24126 111.974732 
L 402.422183 113.467583 
L 404.603106 109.208403 
L 406.784028 105.183064 
L 408.964951 107.78008 
L 411.145874 109.520191 
L 413.326797 108.52581 
L 415.50772 108.469233 
L 417.688643 113.47791 
L 419.869566 115.879569 
L 422.050489 115.306738 
L 424.231411 111.297235 
L 426.412334 107.43907 
L 428.593257 110.325299 
L 430.77418 113.278382 
L 432.955103 109.6274 
L 435.136026 105.549438 
L 437.316949 108.796293 
L 439.497871 114.200732 
L 441.678794 115.331633 
L 443.859717 116.442523 
L 446.04064 114.691145 
L 448.221563 111.035599 
L 450.402486 107.250205 
L 452.583409 105.671226 
L 454.764332 108.219014 
L 456.945254 107.112507 
L 459.126177 103.765113 
L 461.3071 102.068058 
L 463.488023 102.920607 
L 465.668946 105.488858 
L 467.849869 104.362833 
L 470.030792 103.761166 
L 472.211714 108.752095 
L 474.392637 112.488548 
" clip-path="url(#pfb273df2d3)" style="fill: none; stroke: #1f77b4; stroke-width: 1.3; stroke-linecap: square"/>
   </g>
   <g id="line2d_28">
    <path d="M 282.471425 127.266849 
L 284.652348 123.357849 
L 286.833271 121.283275 
L 289.014194 118.504015 
L 291.195117 116.022543 
L 293.37604 120.628493 
L 295.556962 137.853242 
L 297.737885 153.710317 
L 299.918808 157.700274 
L 302.099731 143.785961 
L 304.280654 127.369988 
L 306.461577 121.60551 
L 308.6425 118.199686 
L 310.823422 117.309429 
L 313.004345 110.603154 
L 315.185268 102.76888 
L 317.366191 110.169017 
L 319.547114 119.157523 
L 321.728037 123.824141 
L 323.90896 127.023835 
L 326.089882 128.153722 
L 328.270805 126.401513 
L 330.451728 126.148707 
L 332.632651 135.819916 
L 334.813574 143.471576 
L 336.994497 139.064727 
L 339.17542 129.156461 
L 341.356343 121.842782 
L 343.537265 119.468044 
L 345.718188 110.538082 
L 347.899111 107.648068 
L 350.080034 113.79946 
L 352.260957 121.516943 
L 354.44188 118.915848 
L 356.622803 115.499151 
L 358.803725 113.622602 
L 360.984648 111.320906 
L 363.165571 111.46514 
L 365.346494 114.175041 
L 367.527417 116.208126 
L 369.70834 122.211015 
L 371.889263 136.703081 
L 374.070186 147.283912 
L 376.251108 143.043449 
L 378.432031 132.794701 
L 380.612954 126.700668 
L 382.793877 124.562439 
L 384.9748 126.961277 
L 387.155723 131.49691 
L 389.336646 119.227753 
L 391.517568 106.702272 
L 393.698491 97.618674 
L 395.879414 94.646703 
L 398.060337 93.500438 
L 400.24126 98.858988 
L 402.422183 117.032422 
L 404.603106 120.29518 
L 406.784028 112.838139 
L 408.964951 112.311835 
L 411.145874 112.696587 
L 413.326797 113.713999 
L 415.50772 117.790317 
L 417.688643 125.478007 
L 419.869566 122.999303 
L 422.050489 117.150718 
L 424.231411 115.268048 
L 426.412334 124.068627 
L 428.593257 125.820684 
L 430.77418 120.437831 
L 432.955103 113.916095 
L 435.136026 116.676902 
L 437.316949 118.479177 
L 439.497871 117.09521 
L 441.678794 115.756095 
L 443.859717 115.46948 
L 446.04064 114.627739 
L 448.221563 111.564755 
L 450.402486 116.445281 
L 452.583409 117.385139 
L 454.764332 115.426596 
L 456.945254 116.848732 
L 459.126177 120.636008 
L 461.3071 123.724892 
L 463.488023 129.044297 
L 465.668946 135.355496 
L 467.849869 135.738781 
L 470.030792 126.561839 
L 472.211714 117.100284 
L 474.392637 118.203665 
" clip-path="url(#pfb273df2d3)" style="fill: none; stroke: #ff7f0e; stroke-width: 1.3; stroke-linecap: square"/>
   </g>
   <g id="patch_12">
    <path d="M 272.875365 182.68 
L 272.875365 59.28 
" style="fill: none; stroke: #000000; stroke-width: 0.8; stroke-linejoin: miter; stroke-linecap: square"/>
   </g>
   <g id="patch_13">
    <path d="M 483.988698 182.68 
L 483.988698 59.28 
" style="fill: none; stroke: #000000; stroke-width: 0.8; stroke-linejoin: miter; stroke-linecap: square"/>
   </g>
   <g id="patch_14">
    <path d="M 272.875365 182.68 
L 483.988698 182.68 
" style="fill: none; stroke: #000000; stroke-width: 0.8; stroke-linejoin: miter; stroke-linecap: square"/>
   </g>
   <g id="patch_15">
    <path d="M 272.875365 59.28 
L 483.988698 59.28 
" style="fill: none; stroke: #000000; stroke-width: 0.8; stroke-linejoin: miter; stroke-linecap: square"/>
   </g>
   <g id="text_22">
    <!-- Cz -->
    <g transform="translate(372.927969 53.28) scale(0.09 -0.09)">
     <use xlink:href="#DejaVuSans-43"/>
     <use xlink:href="#DejaVuSans-7a" transform="translate(69.824219 0)"/>
    </g>
   </g>
  </g>
  <g id="axes_3">
   <g id="patch_16">
    <path d="M 509.488698 182.68 
L 720.602031 182.68 
L 720.602031 59.28 
L 509.488698 59.28 
L 509.488698 182.68 
z
" style="fill: none"/>
   </g>
   <g id="patch_17">
    <path d="M 549.617679 182.68 
L 571.426907 182.68 
L 571.426907 59.28 
L 549.617679 59.28 
z
" clip-path="url(#p1f64b8e888)" style="fill: #d9d9d9; stroke: #d9d9d9; stroke-linejoin: miter"/>
   </g>
   <g id="patch_18">
    <path d="M 571.426907 182.68 
L 645.578285 182.68 
L 645.578285 59.28 
L 571.426907 59.28 
z
" clip-path="url(#p1f64b8e888)" style="fill: #ebebeb; stroke: #ebebeb; stroke-linejoin: miter"/>
   </g>
   <g id="FillBetweenPolyCollection_5">
    <defs>
     <path id="m96e8b7b76e" d="M 519.084759 -132.600038 
L 519.084759 -109.315769 
L 521.265681 -112.920175 
L 523.446604 -117.348664 
L 525.627527 -116.40326 
L 527.80845 -113.700717 
L 529.989373 -108.82275 
L 532.170296 -106.412926 
L 534.351219 -108.024257 
L 536.532141 -108.119186 
L 538.713064 -102.682207 
L 540.893987 -99.779102 
L 543.07491 -100.11965 
L 545.255833 -101.16528 
L 547.436756 -100.963168 
L 549.617679 -100.715909 
L 551.798601 -102.894156 
L 553.979524 -106.715413 
L 556.160447 -110.20161 
L 558.34137 -109.029203 
L 560.522293 -105.529082 
L 562.703216 -100.060485 
L 564.884139 -93.443533 
L 567.065062 -89.172605 
L 569.245984 -88.472434 
L 571.426907 -99.485222 
L 573.60783 -103.620899 
L 575.788753 -106.441283 
L 577.969676 -111.165712 
L 580.150599 -118.119219 
L 582.331522 -118.337576 
L 584.512444 -115.955723 
L 586.693367 -110.69261 
L 588.87429 -102.685609 
L 591.055213 -101.629912 
L 593.236136 -102.510521 
L 595.417059 -103.578789 
L 597.597982 -106.819207 
L 599.778905 -105.930124 
L 601.959827 -104.012634 
L 604.14075 -106.080376 
L 606.321673 -105.905695 
L 608.502596 -100.875725 
L 610.683519 -94.616599 
L 612.864442 -91.047209 
L 615.045365 -91.584644 
L 617.226287 -93.010838 
L 619.40721 -92.616019 
L 621.588133 -95.649405 
L 623.769056 -99.5678 
L 625.949979 -104.82887 
L 628.130902 -111.658958 
L 630.311825 -118.058995 
L 632.492748 -114.436041 
L 634.67367 -111.258429 
L 636.854593 -108.496861 
L 639.035516 -108.214469 
L 641.216439 -109.095005 
L 643.397362 -109.465768 
L 645.578285 -112.753783 
L 647.759208 -112.139824 
L 649.94013 -110.965546 
L 652.121053 -105.417847 
L 654.301976 -97.47325 
L 656.482899 -90.808948 
L 658.663822 -95.059589 
L 660.844745 -100.177542 
L 663.025668 -103.322004 
L 665.20659 -102.492014 
L 667.387513 -98.720564 
L 669.568436 -95.179692 
L 671.749359 -95.662832 
L 673.930282 -100.344799 
L 676.111205 -103.918114 
L 678.292128 -101.68824 
L 680.473051 -97.110404 
L 682.653973 -95.043903 
L 684.834896 -101.039534 
L 687.015819 -108.444246 
L 689.196742 -109.197706 
L 691.377665 -104.948309 
L 693.558588 -99.618022 
L 695.739511 -97.751418 
L 697.920433 -100.817428 
L 700.101356 -101.745951 
L 702.282279 -103.076586 
L 704.463202 -104.016935 
L 706.644125 -100.257355 
L 708.825048 -97.171414 
L 711.005971 -97.238794 
L 711.005971 -120.069717 
L 711.005971 -120.069717 
L 708.825048 -118.19 
L 706.644125 -121.694371 
L 704.463202 -125.00196 
L 702.282279 -123.558504 
L 700.101356 -123.380338 
L 697.920433 -121.37081 
L 695.739511 -117.904736 
L 693.558588 -120.44812 
L 691.377665 -125.549801 
L 689.196742 -129.581537 
L 687.015819 -128.484151 
L 684.834896 -121.201365 
L 682.653973 -115.820573 
L 680.473051 -117.864964 
L 678.292128 -123.331781 
L 676.111205 -125.696882 
L 673.930282 -120.224531 
L 671.749359 -115.378022 
L 669.568436 -116.231108 
L 667.387513 -121.733131 
L 665.20659 -125.828248 
L 663.025668 -125.192544 
L 660.844745 -121.540695 
L 658.663822 -116.73732 
L 656.482899 -112.633866 
L 654.301976 -120.6033 
L 652.121053 -127.303564 
L 649.94013 -131.400193 
L 647.759208 -132.79694 
L 645.578285 -135.809438 
L 643.397362 -132.799387 
L 641.216439 -131.865024 
L 639.035516 -130.008623 
L 636.854593 -130.779517 
L 634.67367 -133.827262 
L 632.492748 -136.0683 
L 630.311825 -138.938908 
L 628.130902 -131.165033 
L 625.949979 -124.030909 
L 623.769056 -119.590606 
L 621.588133 -115.7294 
L 619.40721 -113.120498 
L 617.226287 -113.891418 
L 615.045365 -112.443384 
L 612.864442 -111.278591 
L 610.683519 -115.246593 
L 608.502596 -123.455012 
L 606.321673 -128.833082 
L 604.14075 -128.866956 
L 601.959827 -127.172441 
L 599.778905 -129.579854 
L 597.597982 -130.045492 
L 595.417059 -125.026909 
L 593.236136 -123.856433 
L 591.055213 -124.87659 
L 588.87429 -124.959089 
L 586.693367 -133.163286 
L 584.512444 -139.485846 
L 582.331522 -142.900445 
L 580.150599 -143.556622 
L 577.969676 -135.200016 
L 575.788753 -129.21732 
L 573.60783 -125.521486 
L 571.426907 -122.086019 
L 569.245984 -110.821164 
L 567.065062 -110.0244 
L 564.884139 -112.332311 
L 562.703216 -120.225413 
L 560.522293 -127.916538 
L 558.34137 -132.826444 
L 556.160447 -135.401677 
L 553.979524 -131.548305 
L 551.798601 -127.583687 
L 549.617679 -124.488879 
L 547.436756 -125.917967 
L 545.255833 -126.597227 
L 543.07491 -125.028434 
L 540.893987 -122.60871 
L 538.713064 -126.194698 
L 536.532141 -133.547492 
L 534.351219 -133.937585 
L 532.170296 -130.689595 
L 529.989373 -131.361319 
L 527.80845 -134.81967 
L 525.627527 -136.993683 
L 523.446604 -138.547795 
L 521.265681 -134.702659 
L 519.084759 -132.600038 
z
" style="stroke: #1f77b4; stroke-opacity: 0.15"/>
    </defs>
    <g clip-path="url(#p1f64b8e888)">
     <use xlink:href="#m96e8b7b76e" x="0" y="215.397188" style="fill: #1f77b4; fill-opacity: 0.15; stroke: #1f77b4; stroke-opacity: 0.15"/>
    </g>
   </g>
   <g id="FillBetweenPolyCollection_6">
    <defs>
     <path id="m3b85015aa1" d="M 519.084759 -139.57928 
L 519.084759 -99.589242 
L 521.265681 -102.574646 
L 523.446604 -106.652578 
L 525.627527 -103.159315 
L 527.80845 -96.158778 
L 529.989373 -96.453589 
L 532.170296 -97.859642 
L 534.351219 -91.386634 
L 536.532141 -86.563458 
L 538.713064 -83.659381 
L 540.893987 -76.996175 
L 543.07491 -71.680426 
L 545.255833 -70.714294 
L 547.436756 -79.48917 
L 549.617679 -78.479954 
L 551.798601 -74.275593 
L 553.979524 -64.457401 
L 556.160447 -57.909672 
L 558.34137 -61.051909 
L 560.522293 -64.136008 
L 562.703216 -70.12782 
L 564.884139 -81.292429 
L 567.065062 -94.279187 
L 569.245984 -100.826797 
L 571.426907 -83.453827 
L 573.60783 -69.208444 
L 575.788753 -63.856181 
L 577.969676 -67.603867 
L 580.150599 -69.261568 
L 582.331522 -75.613447 
L 584.512444 -84.40924 
L 586.693367 -81.397274 
L 588.87429 -72.574888 
L 591.055213 -74.842094 
L 593.236136 -81.097679 
L 595.417059 -79.349388 
L 597.597982 -81.478029 
L 599.778905 -81.934105 
L 601.959827 -74.823015 
L 604.14075 -59.678587 
L 606.321673 -55.831967 
L 608.502596 -61.774209 
L 610.683519 -68.635333 
L 612.864442 -76.875518 
L 615.045365 -81.601843 
L 617.226287 -87.071701 
L 619.40721 -92.753792 
L 621.588133 -82.937531 
L 623.769056 -74.818623 
L 625.949979 -77.156469 
L 628.130902 -89.728075 
L 630.311825 -93.675212 
L 632.492748 -83.42636 
L 634.67367 -69.624749 
L 636.854593 -68.130887 
L 639.035516 -76.769816 
L 641.216439 -84.928066 
L 643.397362 -87.578972 
L 645.578285 -83.545961 
L 647.759208 -76.484251 
L 649.94013 -66.995572 
L 652.121053 -58.955374 
L 654.301976 -62.731254 
L 656.482899 -74.910585 
L 658.663822 -77.433059 
L 660.844745 -70.114513 
L 663.025668 -60.965821 
L 665.20659 -56.020045 
L 667.387513 -62.20944 
L 669.568436 -73.10728 
L 671.749359 -85.346657 
L 673.930282 -94.644257 
L 676.111205 -92.732441 
L 678.292128 -90.682432 
L 680.473051 -89.021472 
L 682.653973 -86.38809 
L 684.834896 -85.550948 
L 687.015819 -88.735537 
L 689.196742 -88.041559 
L 691.377665 -84.708424 
L 693.558588 -77.164929 
L 695.739511 -73.319501 
L 697.920433 -69.378152 
L 700.101356 -64.500231 
L 702.282279 -60.537773 
L 704.463202 -55.116799 
L 706.644125 -58.187418 
L 708.825048 -70.164239 
L 711.005971 -81.592954 
L 711.005971 -121.205327 
L 711.005971 -121.205327 
L 708.825048 -114.135362 
L 706.644125 -105.529168 
L 704.463202 -106.287013 
L 702.282279 -110.900976 
L 700.101356 -108.569003 
L 697.920433 -112.249749 
L 695.739511 -120.393532 
L 693.558588 -125.744902 
L 691.377665 -131.329093 
L 689.196742 -134.243684 
L 687.015819 -135.053304 
L 684.834896 -128.300632 
L 682.653973 -133.864161 
L 680.473051 -138.068477 
L 678.292128 -135.457873 
L 676.111205 -137.668558 
L 673.930282 -138.461244 
L 671.749359 -130.541312 
L 669.568436 -119.292587 
L 667.387513 -99.556594 
L 665.20659 -97.203209 
L 663.025668 -107.825358 
L 660.844745 -116.563408 
L 658.663822 -124.812572 
L 656.482899 -123.983486 
L 654.301976 -114.036171 
L 652.121053 -111.697074 
L 649.94013 -119.138265 
L 647.759208 -124.039624 
L 645.578285 -125.658256 
L 643.397362 -124.002503 
L 641.216439 -122.19238 
L 639.035516 -122.919928 
L 636.854593 -110.332694 
L 634.67367 -109.063564 
L 632.492748 -119.171104 
L 630.311825 -133.884691 
L 628.130902 -134.809714 
L 625.949979 -129.825847 
L 623.769056 -125.646831 
L 621.588133 -122.051401 
L 619.40721 -127.28219 
L 617.226287 -127.37173 
L 615.045365 -129.043819 
L 612.864442 -122.838337 
L 610.683519 -114.21329 
L 608.502596 -106.893718 
L 606.321673 -107.417744 
L 604.14075 -113.909537 
L 601.959827 -127.708724 
L 599.778905 -129.848418 
L 597.597982 -121.700098 
L 595.417059 -120.118009 
L 593.236136 -125.415788 
L 591.055213 -118.777253 
L 588.87429 -115.222462 
L 586.693367 -123.579988 
L 584.512444 -128.756859 
L 582.331522 -129.42098 
L 580.150599 -126.305999 
L 577.969676 -129.307061 
L 575.788753 -122.79282 
L 573.60783 -118.894257 
L 571.426907 -124.256674 
L 569.245984 -150.508097 
L 567.065062 -143.421949 
L 564.884139 -119.471298 
L 562.703216 -112.191835 
L 560.522293 -113.909011 
L 558.34137 -114.366147 
L 556.160447 -110.731044 
L 553.979524 -114.926028 
L 551.798601 -120.256028 
L 549.617679 -127.844868 
L 547.436756 -135.036094 
L 545.255833 -121.465575 
L 543.07491 -117.62114 
L 540.893987 -126.306945 
L 538.713064 -132.303597 
L 536.532141 -131.930782 
L 534.351219 -132.407587 
L 532.170296 -135.817221 
L 529.989373 -134.75313 
L 527.80845 -138.158898 
L 525.627527 -141.896098 
L 523.446604 -141.434308 
L 521.265681 -140.20306 
L 519.084759 -139.57928 
z
" style="stroke: #ff7f0e; stroke-opacity: 0.15"/>
    </defs>
    <g clip-path="url(#p1f64b8e888)">
     <use xlink:href="#m3b85015aa1" x="0" y="215.397188" style="fill: #ff7f0e; fill-opacity: 0.15; stroke: #ff7f0e; stroke-opacity: 0.15"/>
    </g>
   </g>
   <g id="line2d_29">
    <path d="M 509.488698 108.035252 
L 720.602031 108.035252 
" clip-path="url(#p1f64b8e888)" style="fill: none; stroke-dasharray: 2.96,1.28; stroke-dashoffset: 0; stroke: #000000; stroke-width: 0.8"/>
   </g>
   <g id="matplotlib.axis_5">
    <g id="xtick_11">
     <g id="line2d_30">
      <g>
       <use xlink:href="#md78c71d275" x="514.722913" y="182.68" style="stroke: #000000; stroke-width: 0.8"/>
      </g>
     </g>
     <g id="text_23">
      <!-- 0 -->
      <g transform="translate(512.496038 194.998906) scale(0.07 -0.07)">
       <use xlink:href="#DejaVuSans-30"/>
      </g>
     </g>
    </g>
    <g id="xtick_12">
     <g id="line2d_31">
      <g>
       <use xlink:href="#md78c71d275" x="558.34137" y="182.68" style="stroke: #000000; stroke-width: 0.8"/>
      </g>
     </g>
     <g id="text_24">
      <!-- 10 -->
      <g transform="translate(553.88762 194.998906) scale(0.07 -0.07)">
       <use xlink:href="#DejaVuSans-31"/>
       <use xlink:href="#DejaVuSans-30" transform="translate(63.623047 0)"/>
      </g>
     </g>
    </g>
    <g id="xtick_13">
     <g id="line2d_32">
      <g>
       <use xlink:href="#md78c71d275" x="601.959827" y="182.68" style="stroke: #000000; stroke-width: 0.8"/>
      </g>
     </g>
     <g id="text_25">
      <!-- 20 -->
      <g transform="translate(597.506077 194.998906) scale(0.07 -0.07)">
       <use xlink:href="#DejaVuSans-32"/>
       <use xlink:href="#DejaVuSans-30" transform="translate(63.623047 0)"/>
      </g>
     </g>
    </g>
    <g id="xtick_14">
     <g id="line2d_33">
      <g>
       <use xlink:href="#md78c71d275" x="645.578285" y="182.68" style="stroke: #000000; stroke-width: 0.8"/>
      </g>
     </g>
     <g id="text_26">
      <!-- 30 -->
      <g transform="translate(641.124535 194.998906) scale(0.07 -0.07)">
       <use xlink:href="#DejaVuSans-33"/>
       <use xlink:href="#DejaVuSans-30" transform="translate(63.623047 0)"/>
      </g>
     </g>
    </g>
    <g id="xtick_15">
     <g id="line2d_34">
      <g>
       <use xlink:href="#md78c71d275" x="689.196742" y="182.68" style="stroke: #000000; stroke-width: 0.8"/>
      </g>
     </g>
     <g id="text_27">
      <!-- 40 -->
      <g transform="translate(684.742992 194.998906) scale(0.07 -0.07)">
       <use xlink:href="#DejaVuSans-34"/>
       <use xlink:href="#DejaVuSans-30" transform="translate(63.623047 0)"/>
      </g>
     </g>
    </g>
    <g id="text_28">
     <!-- Frequency (Hz) -->
     <g transform="translate(584.881615 206.533437) scale(0.08 -0.08)">
      <use xlink:href="#DejaVuSans-46"/>
      <use xlink:href="#DejaVuSans-72" transform="translate(50.269531 0)"/>
      <use xlink:href="#DejaVuSans-65" transform="translate(89.132812 0)"/>
      <use xlink:href="#DejaVuSans-71" transform="translate(150.65625 0)"/>
      <use xlink:href="#DejaVuSans-75" transform="translate(214.132812 0)"/>
      <use xlink:href="#DejaVuSans-65" transform="translate(277.511719 0)"/>
      <use xlink:href="#DejaVuSans-6e" transform="translate(339.035156 0)"/>
      <use xlink:href="#DejaVuSans-63" transform="translate(402.414062 0)"/>
      <use xlink:href="#DejaVuSans-79" transform="translate(457.394531 0)"/>
      <use xlink:href="#DejaVuSans-20" transform="translate(516.574219 0)"/>
      <use xlink:href="#DejaVuSans-28" transform="translate(548.361328 0)"/>
      <use xlink:href="#DejaVuSans-48" transform="translate(587.375 0)"/>
      <use xlink:href="#DejaVuSans-7a" transform="translate(662.570312 0)"/>
      <use xlink:href="#DejaVuSans-29" transform="translate(715.060547 0)"/>
     </g>
    </g>
   </g>
   <g id="matplotlib.axis_6">
    <g id="ytick_13">
     <g id="line2d_35">
      <g>
       <use xlink:href="#m196793a2e2" x="509.488698" y="176.779058" style="stroke: #000000; stroke-width: 0.8"/>
      </g>
     </g>
    </g>
    <g id="ytick_14">
     <g id="line2d_36">
      <g>
       <use xlink:href="#m196793a2e2" x="509.488698" y="153.864456" style="stroke: #000000; stroke-width: 0.8"/>
      </g>
     </g>
    </g>
    <g id="ytick_15">
     <g id="line2d_37">
      <g>
       <use xlink:href="#m196793a2e2" x="509.488698" y="130.949854" style="stroke: #000000; stroke-width: 0.8"/>
      </g>
     </g>
    </g>
    <g id="ytick_16">
     <g id="line2d_38">
      <g>
       <use xlink:href="#m196793a2e2" x="509.488698" y="108.035252" style="stroke: #000000; stroke-width: 0.8"/>
      </g>
     </g>
    </g>
    <g id="ytick_17">
     <g id="line2d_39">
      <g>
       <use xlink:href="#m196793a2e2" x="509.488698" y="85.12065" style="stroke: #000000; stroke-width: 0.8"/>
      </g>
     </g>
    </g>
    <g id="ytick_18">
     <g id="line2d_40">
      <g>
       <use xlink:href="#m196793a2e2" x="509.488698" y="62.206047" style="stroke: #000000; stroke-width: 0.8"/>
      </g>
     </g>
    </g>
    <g id="text_29">
     <!-- ERD/ERS (dB) -->
     <g transform="translate(500.324948 148.236875) rotate(-90) scale(0.08 -0.08)">
      <use xlink:href="#DejaVuSans-45"/>
      <use xlink:href="#DejaVuSans-52" transform="translate(63.183594 0)"/>
      <use xlink:href="#DejaVuSans-44" transform="translate(132.666016 0)"/>
      <use xlink:href="#DejaVuSans-2f" transform="translate(209.667969 0)"/>
      <use xlink:href="#DejaVuSans-45" transform="translate(243.359375 0)"/>
      <use xlink:href="#DejaVuSans-52" transform="translate(306.542969 0)"/>
      <use xlink:href="#DejaVuSans-53" transform="translate(376.025391 0)"/>
      <use xlink:href="#DejaVuSans-20" transform="translate(439.501953 0)"/>
      <use xlink:href="#DejaVuSans-28" transform="translate(471.289062 0)"/>
      <use xlink:href="#DejaVuSans-64" transform="translate(510.302734 0)"/>
      <use xlink:href="#DejaVuSans-42" transform="translate(573.779297 0)"/>
      <use xlink:href="#DejaVuSans-29" transform="translate(642.382812 0)"/>
     </g>
    </g>
   </g>
   <g id="line2d_41">
    <path d="M 519.084759 94.439284 
L 521.265681 91.585771 
L 523.446604 87.448958 
L 525.627527 88.698716 
L 527.80845 91.136994 
L 529.989373 95.305153 
L 532.170296 96.845927 
L 534.351219 94.416267 
L 536.532141 94.563849 
L 538.713064 100.958735 
L 540.893987 104.203282 
L 543.07491 102.823145 
L 545.255833 101.515934 
L 547.436756 101.95662 
L 549.617679 102.794794 
L 551.798601 100.158266 
L 553.979524 96.265329 
L 556.160447 92.595544 
L 558.34137 94.469364 
L 560.522293 98.674377 
L 562.703216 105.254238 
L 564.884139 112.509266 
L 567.065062 115.798685 
L 569.245984 115.750389 
L 571.426907 104.611567 
L 573.60783 100.825995 
L 575.788753 97.567886 
L 577.969676 92.214323 
L 580.150599 84.559267 
L 582.331522 84.778177 
L 584.512444 87.676403 
L 586.693367 93.469239 
L 588.87429 101.574839 
L 591.055213 102.143936 
L 593.236136 102.21371 
L 595.417059 101.094339 
L 597.597982 96.964838 
L 599.778905 97.642198 
L 601.959827 99.80465 
L 604.14075 97.923521 
L 606.321673 98.027799 
L 608.502596 103.231819 
L 610.683519 110.465592 
L 612.864442 114.234288 
L 615.045365 113.383173 
L 617.226287 111.94606 
L 619.40721 112.528929 
L 621.588133 109.707785 
L 623.769056 105.817984 
L 625.949979 100.967298 
L 628.130902 93.985192 
L 630.311825 86.898236 
L 632.492748 90.145017 
L 634.67367 92.854342 
L 636.854593 95.758998 
L 639.035516 96.285641 
L 641.216439 94.917173 
L 643.397362 94.26461 
L 645.578285 91.115577 
L 647.759208 92.928805 
L 649.94013 94.214318 
L 652.121053 99.036482 
L 654.301976 106.358912 
L 656.482899 113.675781 
L 658.663822 109.498733 
L 660.844745 104.538069 
L 663.025668 101.139913 
L 665.20659 101.237057 
L 667.387513 105.17034 
L 669.568436 109.691788 
L 671.749359 109.876761 
L 673.930282 105.112522 
L 676.111205 100.589689 
L 678.292128 102.887177 
L 680.473051 107.909504 
L 682.653973 109.96495 
L 684.834896 104.276738 
L 687.015819 96.932989 
L 689.196742 96.007566 
L 691.377665 100.148132 
L 693.558588 105.364117 
L 695.739511 107.569111 
L 697.920433 104.303068 
L 700.101356 102.834043 
L 702.282279 102.079643 
L 704.463202 100.88774 
L 706.644125 104.421324 
L 708.825048 107.71648 
L 711.005971 106.742932 
" clip-path="url(#p1f64b8e888)" style="fill: none; stroke: #1f77b4; stroke-width: 1.3; stroke-linecap: square"/>
   </g>
   <g id="line2d_42">
    <path d="M 519.084759 95.812926 
L 521.265681 94.008335 
L 523.446604 91.353745 
L 525.627527 92.869481 
L 527.80845 98.23835 
L 529.989373 99.793828 
L 532.170296 98.558756 
L 534.351219 103.500077 
L 536.532141 106.150067 
L 538.713064 107.415699 
L 540.893987 113.745628 
L 543.07491 120.746404 
L 545.255833 119.307253 
L 547.436756 108.134555 
L 549.617679 112.234776 
L 551.798601 118.131377 
L 553.979524 125.705473 
L 556.160447 131.076829 
L 558.34137 127.688159 
L 560.522293 126.374678 
L 562.703216 124.23736 
L 564.884139 115.015324 
L 567.065062 96.54662 
L 569.245984 89.729741 
L 571.426907 111.541937 
L 573.60783 121.345837 
L 575.788753 122.072687 
L 577.969676 116.941724 
L 580.150599 117.613404 
L 582.331522 112.879974 
L 584.512444 108.814138 
L 586.693367 112.908557 
L 588.87429 121.498512 
L 591.055213 118.587514 
L 593.236136 112.140454 
L 595.417059 115.663489 
L 597.597982 113.808124 
L 599.778905 109.505926 
L 601.959827 114.131318 
L 604.14075 128.603125 
L 606.321673 133.772332 
L 608.502596 131.063224 
L 610.683519 123.972876 
L 612.864442 115.54026 
L 615.045365 110.074357 
L 617.226287 108.175472 
L 619.40721 105.379197 
L 621.588133 112.902721 
L 623.769056 115.164461 
L 625.949979 111.90603 
L 628.130902 103.128293 
L 630.311825 101.617236 
L 632.492748 114.098456 
L 634.67367 126.053031 
L 636.854593 126.165397 
L 639.035516 115.552316 
L 641.216439 111.836965 
L 643.397362 109.60645 
L 645.578285 110.795079 
L 647.759208 115.13525 
L 649.94013 122.330269 
L 652.121053 130.070963 
L 654.301976 127.013475 
L 656.482899 115.950152 
L 658.663822 114.274372 
L 660.844745 122.058227 
L 663.025668 131.001598 
L 665.20659 138.78556 
L 667.387513 134.51417 
L 669.568436 119.197254 
L 671.749359 107.453203 
L 673.930282 98.844437 
L 676.111205 100.196688 
L 678.292128 102.327035 
L 680.473051 101.852213 
L 682.653973 105.271062 
L 684.834896 108.471397 
L 687.015819 103.502767 
L 689.196742 104.254566 
L 691.377665 107.378429 
L 693.558588 113.942272 
L 695.739511 118.540671 
L 697.920433 124.583237 
L 700.101356 128.86257 
L 702.282279 129.677813 
L 704.463202 134.695281 
L 706.644125 133.538894 
L 708.825048 123.247387 
L 711.005971 113.998047 
" clip-path="url(#p1f64b8e888)" style="fill: none; stroke: #ff7f0e; stroke-width: 1.3; stroke-linecap: square"/>
   </g>
   <g id="patch_19">
    <path d="M 509.488698 182.68 
L 509.488698 59.28 
" style="fill: none; stroke: #000000; stroke-width: 0.8; stroke-linejoin: miter; stroke-linecap: square"/>
   </g>
   <g id="patch_20">
    <path d="M 720.602031 182.68 
L 720.602031 59.28 
" style="fill: none; stroke: #000000; stroke-width: 0.8; stroke-linejoin: miter; stroke-linecap: square"/>
   </g>
   <g id="patch_21">
    <path d="M 509.488698 182.68 
L 720.602031 182.68 
" style="fill: none; stroke: #000000; stroke-width: 0.8; stroke-linejoin: miter; stroke-linecap: square"/>
   </g>
   <g id="patch_22">
    <path d="M 509.488698 59.28 
L 720.602031 59.28 
" style="fill: none; stroke: #000000; stroke-width: 0.8; stroke-linejoin: miter; stroke-linecap: square"/>
   </g>
   <g id="text_30">
    <!-- C4 -->
    <g transform="translate(609.039974 53.28) scale(0.09 -0.09)">
     <use xlink:href="#DejaVuSans-43"/>
     <use xlink:href="#DejaVuSans-34" transform="translate(69.824219 0)"/>
    </g>
   </g>
  </g>
  <g id="text_31">
   <!-- ERD/ERS — MI — S03 (Movement vs Rest) -->
   <g transform="translate(248.408984 15.558281) scale(0.11 -0.11)">
    <defs>
     <path id="DejaVuSans-2014" d="M 313 1978 
L 6088 1978 
L 6088 1528 
L 313 1528 
L 313 1978 
z
" transform="scale(0.015625)"/>
     <path id="DejaVuSans-4d" d="M 628 4666 
L 1569 4666 
L 2759 1491 
L 3956 4666 
L 4897 4666 
L 4897 0 
L 4281 0 
L 4281 4097 
L 3078 897 
L 2444 897 
L 1241 4097 
L 1241 0 
L 628 0 
L 628 4666 
z
" transform="scale(0.015625)"/>
     <path id="DejaVuSans-49" d="M 628 4666 
L 1259 4666 
L 1259 0 
L 628 0 
L 628 4666 
z
" transform="scale(0.015625)"/>
     <path id="DejaVuSans-6f" d="M 1959 3097 
Q 1497 3097 1228 2736 
Q 959 2375 959 1747 
Q 959 1119 1226 758 
Q 1494 397 1959 397 
Q 2419 397 2687 759 
Q 2956 1122 2956 1747 
Q 2956 2369 2687 2733 
Q 2419 3097 1959 3097 
z
M 1959 3584 
Q 2709 3584 3137 3096 
Q 3566 2609 3566 1747 
Q 3566 888 3137 398 
Q 2709 -91 1959 -91 
Q 1206 -91 779 398 
Q 353 888 353 1747 
Q 353 2609 779 3096 
Q 1206 3584 1959 3584 
z
" transform="scale(0.015625)"/>
     <path id="DejaVuSans-76" d="M 191 3500 
L 800 3500 
L 1894 563 
L 2988 3500 
L 3597 3500 
L 2284 0 
L 1503 0 
L 191 3500 
z
" transform="scale(0.015625)"/>
     <path id="DejaVuSans-6d" d="M 3328 2828 
Q 3544 3216 3844 3400 
Q 4144 3584 4550 3584 
Q 5097 3584 5394 3201 
Q 5691 2819 5691 2113 
L 5691 0 
L 5113 0 
L 5113 2094 
Q 5113 2597 4934 2840 
Q 4756 3084 4391 3084 
Q 3944 3084 3684 2787 
Q 3425 2491 3425 1978 
L 3425 0 
L 2847 0 
L 2847 2094 
Q 2847 2600 2669 2842 
Q 2491 3084 2119 3084 
Q 1678 3084 1418 2786 
Q 1159 2488 1159 1978 
L 1159 0 
L 581 0 
L 581 3500 
L 1159 3500 
L 1159 2956 
Q 1356 3278 1631 3431 
Q 1906 3584 2284 3584 
Q 2666 3584 2933 3390 
Q 3200 3197 3328 2828 
z
" transform="scale(0.015625)"/>
     <path id="DejaVuSans-74" d="M 1172 4494 
L 1172 3500 
L 2356 3500 
L 2356 3053 
L 1172 3053 
L 1172 1153 
Q 1172 725 1289 603 
Q 1406 481 1766 481 
L 2356 481 
L 2356 0 
L 1766 0 
Q 1100 0 847 248 
Q 594 497 594 1153 
L 594 3053 
L 172 3053 
L 172 3500 
L 594 3500 
L 594 4494 
L 1172 4494 
z
" transform="scale(0.015625)"/>
     <path id="DejaVuSans-73" d="M 2834 3397 
L 2834 2853 
Q 2591 2978 2328 3040 
Q 2066 3103 1784 3103 
Q 1356 3103 1142 2972 
Q 928 2841 928 2578 
Q 928 2378 1081 2264 
Q 1234 2150 1697 2047 
L 1894 2003 
Q 2506 1872 2764 1633 
Q 3022 1394 3022 966 
Q 3022 478 2636 193 
Q 2250 -91 1575 -91 
Q 1294 -91 989 -36 
Q 684 19 347 128 
L 347 722 
Q 666 556 975 473 
Q 1284 391 1588 391 
Q 1994 391 2212 530 
Q 2431 669 2431 922 
Q 2431 1156 2273 1281 
Q 2116 1406 1581 1522 
L 1381 1569 
Q 847 1681 609 1914 
Q 372 2147 372 2553 
Q 372 3047 722 3315 
Q 1072 3584 1716 3584 
Q 2034 3584 2315 3537 
Q 2597 3491 2834 3397 
z
" transform="scale(0.015625)"/>
    </defs>
    <use xlink:href="#DejaVuSans-45"/>
    <use xlink:href="#DejaVuSans-52" transform="translate(63.183594 0)"/>
    <use xlink:href="#DejaVuSans-44" transform="translate(132.666016 0)"/>
    <use xlink:href="#DejaVuSans-2f" transform="translate(209.667969 0)"/>
    <use xlink:href="#DejaVuSans-45" transform="translate(243.359375 0)"/>
    <use xlink:href="#DejaVuSans-52" transform="translate(306.542969 0)"/>
    <use xlink:href="#DejaVuSans-53" transform="translate(376.025391 0)"/>
    <use xlink:href="#DejaVuSans-20" transform="translate(439.501953 0)"/>
    <use xlink:href="#DejaVuSans-2014" transform="translate(471.289062 0)"/>
    <use xlink:href="#DejaVuSans-20" transform="translate(571.289062 0)"/>
    <use xlink:href="#DejaVuSans-4d" transform="translate(603.076172 0)"/>
    <use xlink:href="#DejaVuSans-49" transform="translate(689.355469 0)"/>
    <use xlink:href="#DejaVuSans-20" transform="translate(718.847656 0)"/>
    <use xlink:href="#DejaVuSans-2014" transform="translate(750.634766 0)"/>
    <use xlink:href="#DejaVuSans-20" transform="translate(850.634766 0)"/>
    <use xlink:href="#DejaVuSans-53" transform="translate(882.421875 0)"/>
    <use xlink:href="#DejaVuSans-30" transform="translate(945.898438 0)"/>
    <use xlink:href="#DejaVuSans-33" transform="translate(1009.521484 0)"/>
    <use xlink:href="#DejaVuSans-20" transform="translate(1073.144531 0)"/>
    <use xlink:href="#DejaVuSans-28" transform="translate(1104.931641 0)"/>
    <use xlink:href="#DejaVuSans-4d" transform="translate(1143.945312 0)"/>
    <use xlink:href="#DejaVuSans-6f" transform="translate(1230.224609 0)"/>
    <use xlink:href="#DejaVuSans-76" transform="translate(1291.40625 0)"/>
    <use xlink:href="#DejaVuSans-65" transform="translate(1350.585938 0)"/>
    <use xlink:href="#DejaVuSans-6d" transform="translate(1412.109375 0)"/>
    <use xlink:href="#DejaVuSans-65" transform="translate(1509.521484 0)"/>
    <use xlink:href="#DejaVuSans-6e" transform="translate(1571.044922 0)"/>
    <use xlink:href="#DejaVuSans-74" transform="translate(1634.423828 0)"/>
    <use xlink:href="#DejaVuSans-20" transform="translate(1673.632812 0)"/>
    <use xlink:href="#DejaVuSans-76" transform="translate(1705.419922 0)"/>
    <use xlink:href="#DejaVuSans-73" transform="translate(1764.599609 0)"/>
    <use xlink:href="#DejaVuSans-20" transform="translate(1816.699219 0)"/>
    <use xlink:href="#DejaVuSans-52" transform="translate(1848.486328 0)"/>
    <use xlink:href="#DejaVuSans-65" transform="translate(1913.46875 0)"/>
    <use xlink:href="#DejaVuSans-73" transform="translate(1974.992188 0)"/>
    <use xlink:href="#DejaVuSans-74" transform="translate(2027.091797 0)"/>
    <use xlink:href="#DejaVuSans-29" transform="translate(2066.300781 0)"/>
   </g>
  </g>
  <g id="legend_1">
   <g id="patch_23">
    <path d="M 663.350812 30.109375 
L 722.830031 30.109375 
Q 724.230031 30.109375 724.230031 28.709375 
L 724.230031 8.86 
Q 724.230031 7.46 722.830031 7.46 
L 663.350812 7.46 
Q 661.950812 7.46 661.950812 8.86 
L 661.950812 28.709375 
Q 661.950812 30.109375 663.350812 30.109375 
z
" style="fill: #ffffff; opacity: 0.8; stroke: #cccccc; stroke-linejoin: miter"/>
   </g>
   <g id="line2d_43">
    <path d="M 664.750812 13.128906 
L 671.750812 13.128906 
L 678.750812 13.128906 
" style="fill: none; stroke: #1f77b4; stroke-width: 1.3; stroke-linecap: square"/>
   </g>
   <g id="text_32">
    <!-- Movement -->
    <g transform="translate(684.350812 15.578906) scale(0.07 -0.07)">
     <use xlink:href="#DejaVuSans-4d"/>
     <use xlink:href="#DejaVuSans-6f" transform="translate(86.279297 0)"/>
     <use xlink:href="#DejaVuSans-76" transform="translate(147.460938 0)"/>
     <use xlink:href="#DejaVuSans-65" transform="translate(206.640625 0)"/>
     <use xlink:href="#DejaVuSans-6d" transform="translate(268.164062 0)"/>
     <use xlink:href="#DejaVuSans-65" transform="translate(365.576172 0)"/>
     <use xlink:href="#DejaVuSans-6e" transform="translate(427.099609 0)"/>
     <use xlink:href="#DejaVuSans-74" transform="translate(490.478516 0)"/>
    </g>
   </g>
   <g id="line2d_44">
    <path d="M 664.750812 23.403594 
L 671.750812 23.403594 
L 678.750812 23.403594 
" style="fill: none; stroke: #ff7f0e; stroke-width: 1.3; stroke-linecap: square"/>
   </g>
   <g id="text_33">
    <!-- rest -->
    <g transform="translate(684.350812 25.853594) scale(0.07 -0.07)">
     <use xlink:href="#DejaVuSans-72"/>
     <use xlink:href="#DejaVuSans-65" transform="translate(38.863281 0)"/>
     <use xlink:href="#DejaVuSans-73" transform="translate(100.386719 0)"/>
     <use xlink:href="#DejaVuSans-74" transform="translate(152.486328 0)"/>
    </g>
   </g>
  </g>
 </g>
 <defs>
  <clipPath id="p8afb85001c">
   <rect x="36.262031" y="59.28" width="211.113333" height="123.4"/>
  </clipPath>
  <clipPath id="pfb273df2d3">
   <rect x="272.875365" y="59.28" width="211.113333" height="123.4"/>
  </clipPath>
  <clipPath id="p1f64b8e888">
   <rect x="509.488698" y="59.28" width="211.113333" height="123.4"/>
  </clipPath>
 </defs>
</svg>
