<?xml version="1.0" encoding="utf-8" standalone="no"?>
<!DOCTYPE svg PUBLIC "-//W3C//DTD SVG 1.1//EN"
  "http://www.w3.org/Graphics/SVG/1.1/DTD/svg11.dtd">
<svg xmlns:xlink="http://www.w3.org/1999/xlink" width="731.430031pt" height="215.397188pt" viewBox="0 0 731.430031 215.397188" xmlns="http://www.w3.org/2000/svg" version="1.1">
 <metadata>
  <rdf:RDF xmlns:dc="http://purl.org/dc/elements/1.1/" xmlns:cc="http://creativecommons.org/ns#" xmlns:rdf="http://www.w3.org/1999/02/22-rdf-syntax-ns#">
   <cc:Work>
    <dc:type rdf:resource="http://purl.org/dc/dcmitype/StillImage"/>
    <dc:date>2026-06-26T22:26:28.372944</dc:date>
    <dc:format>image/svg+xml</dc:format>
    <dc:creator>
     <cc:Agent>
      <dc:title>Matplotlib v3.10.9, https://matplotlib.org/</dc:title>
     </cc:Agent>
    </dc:creator>
   </cc:Work>
  </rdf:RDF>
 </metadata>
 <defs>
  <style type="text/css">*{stroke-linejoin: round; stroke-linecap: butt}</style>
 </defs>
 <g id="figure_1">
  <g id="patch_1">
   <path d="M 0 215.397188 
L 731.430031 215.397188 
L 731.430031 0 
L 0 0 
L 0 215.397188 
z
" style="fill: none"/>
  </g>
  <g id="axes_1">
   <g id="patch_2">
    <path d="M 36.262031 182.68 
L 247.375365 182.68 
L 247.375365 59.28 
L 36.262031 59.28 
L 36.262031 182.68 
z
" style="fill: none"/>
   </g>
   <g id="patch_3">
    <path d="M 76.391012 182.68 
L 98.200241 182.68 
L 98.200241 59.28 
L 76.391012 59.28 
z
" clip-path="url(#p924624715a)" style="fill: #d9d9d9; stroke: #d9d9d9; stroke-linejoin: miter"/>
   </g>
   <g id="patch_4">
    <path d="M 98.200241 182.68 
L 172.351618 182.68 
L 172.351618 59.28 
L 98.200241 59.28 
z
" clip-path="url(#p924624715a)" style="fill: #ebebeb; stroke: #ebebeb; stroke-linejoin: miter"/>
   </g>
   <g id="FillBetweenPolyCollection_1">
    <defs>
     <path id="mc031c57796" d="M 45.858092 -113.649994 
L 45.858092 -93.51239 
L 48.039015 -98.764113 
L 50.219938 -104.229401 
L 52.40086 -107.560094 
L 54.581783 -108.160421 
L 56.762706 -105.31285 
L 58.943629 -105.664194 
L 61.124552 -107.473361 
L 63.305475 -105.828532 
L 65.486398 -103.672899 
L 67.667321 -102.883081 
L 69.848243 -103.601111 
L 72.029166 -104.249836 
L 74.210089 -105.450397 
L 76.391012 -102.539367 
L 78.571935 -94.97611 
L 80.752858 -87.009095 
L 82.933781 -80.824701 
L 85.114703 -78.104771 
L 87.295626 -78.342847 
L 89.476549 -79.927556 
L 91.657472 -81.494579 
L 93.838395 -83.895455 
L 96.019318 -86.178296 
L 98.200241 -89.041566 
L 100.381163 -88.212985 
L 102.562086 -83.817607 
L 104.743009 -82.836822 
L 106.923932 -86.156671 
L 109.104855 -87.762216 
L 111.285778 -87.155935 
L 113.466701 -85.859716 
L 115.647624 -81.477349 
L 117.828546 -77.876489 
L 120.009469 -77.263677 
L 122.190392 -75.790836 
L 124.371315 -72.083528 
L 126.552238 -69.260431 
L 128.733161 -67.468633 
L 130.914084 -65.513124 
L 133.095006 -65.0102 
L 135.275929 -67.056374 
L 137.456852 -67.883664 
L 139.637775 -64.629289 
L 141.818698 -64.242144 
L 143.999621 -66.446639 
L 146.180544 -68.221396 
L 148.361467 -68.385322 
L 150.542389 -69.991346 
L 152.723312 -71.883247 
L 154.904235 -74.44835 
L 157.085158 -78.165602 
L 159.266081 -83.057781 
L 161.447004 -85.51691 
L 163.627927 -84.769779 
L 165.808849 -82.237193 
L 167.989772 -82.364542 
L 170.170695 -85.213237 
L 172.351618 -82.869994 
L 174.532541 -81.922989 
L 176.713464 -82.65063 
L 178.894387 -81.830229 
L 181.075309 -80.240979 
L 183.256232 -80.108253 
L 185.437155 -82.024218 
L 187.618078 -83.330071 
L 189.799001 -82.091456 
L 191.979924 -83.86577 
L 194.160847 -85.449462 
L 196.34177 -84.874592 
L 198.522692 -85.722617 
L 200.703615 -85.667628 
L 202.884538 -82.898589 
L 205.065461 -80.850128 
L 207.246384 -80.014835 
L 209.427307 -79.437802 
L 211.60823 -79.269489 
L 213.789152 -76.820549 
L 215.970075 -73.792193 
L 218.150998 -73.9651 
L 220.331921 -76.406406 
L 222.512844 -78.468163 
L 224.693767 -77.234009 
L 226.87469 -75.198469 
L 229.055613 -77.913017 
L 231.236535 -79.54943 
L 233.417458 -78.15134 
L 235.598381 -77.707279 
L 237.779304 -76.539544 
L 237.779304 -92.635994 
L 237.779304 -92.635994 
L 235.598381 -94.433787 
L 233.417458 -96.88431 
L 231.236535 -99.116036 
L 229.055613 -97.695291 
L 226.87469 -94.184175 
L 224.693767 -95.259265 
L 222.512844 -96.135449 
L 220.331921 -93.947152 
L 218.150998 -91.986721 
L 215.970075 -91.948959 
L 213.789152 -95.442652 
L 211.60823 -97.14923 
L 209.427307 -96.691227 
L 207.246384 -97.714809 
L 205.065461 -98.213148 
L 202.884538 -99.767108 
L 200.703615 -102.779644 
L 198.522692 -102.91708 
L 196.34177 -101.496107 
L 194.160847 -102.40615 
L 191.979924 -101.138451 
L 189.799001 -99.982831 
L 187.618078 -101.751042 
L 185.437155 -100.01819 
L 183.256232 -97.747551 
L 181.075309 -97.353124 
L 178.894387 -98.654995 
L 176.713464 -100.019743 
L 174.532541 -99.829898 
L 172.351618 -99.908025 
L 170.170695 -102.447826 
L 167.989772 -99.187759 
L 165.808849 -97.380389 
L 163.627927 -99.593595 
L 161.447004 -100.462706 
L 159.266081 -98.409269 
L 157.085158 -94.851356 
L 154.904235 -90.978967 
L 152.723312 -87.252048 
L 150.542389 -85.192924 
L 148.361467 -83.43776 
L 146.180544 -83.7162 
L 143.999621 -82.588301 
L 141.818698 -81.247651 
L 139.637775 -82.099422 
L 137.456852 -85.21405 
L 135.275929 -83.899774 
L 133.095006 -82.054487 
L 130.914084 -83.081531 
L 128.733161 -84.964664 
L 126.552238 -86.681606 
L 124.371315 -89.249494 
L 122.190392 -93.308459 
L 120.009469 -95.427281 
L 117.828546 -96.264984 
L 115.647624 -99.161214 
L 113.466701 -103.217519 
L 111.285778 -103.94727 
L 109.104855 -103.732125 
L 106.923932 -102.066569 
L 104.743009 -99.421203 
L 102.562086 -100.998087 
L 100.381163 -104.351013 
L 98.200241 -105.632901 
L 96.019318 -104.126813 
L 93.838395 -103.962498 
L 91.657472 -103.20977 
L 89.476549 -102.55787 
L 87.295626 -100.896809 
L 85.114703 -98.8245 
L 82.933781 -99.773264 
L 80.752858 -103.007488 
L 78.571935 -109.211639 
L 76.391012 -116.57954 
L 74.210089 -120.488109 
L 72.029166 -119.87508 
L 69.848243 -119.526333 
L 67.667321 -117.557819 
L 65.486398 -117.88839 
L 63.305475 -120.191769 
L 61.124552 -121.422462 
L 58.943629 -119.758301 
L 56.762706 -120.233586 
L 54.581783 -124.274948 
L 52.40086 -124.723828 
L 50.219938 -121.861377 
L 48.039015 -117.471924 
L 45.858092 -113.649994 
z
" style="stroke: #1f77b4; stroke-opacity: 0.15"/>
    </defs>
    <g clip-path="url(#p924624715a)">
     <use xlink:href="#mc031c57796" x="0" y="215.397188" style="fill: #1f77b4; fill-opacity: 0.15; stroke: #1f77b4; stroke-opacity: 0.15"/>
    </g>
   </g>
   <g id="FillBetweenPolyCollection_2">
    <defs>
     <path id="m128affc0ae" d="M 45.858092 -100.71947 
L 45.858092 -61.484976 
L 48.039015 -71.017814 
L 50.219938 -84.624088 
L 52.40086 -92.561706 
L 54.581783 -95.235092 
L 56.762706 -94.082877 
L 58.943629 -95.636939 
L 61.124552 -102.695939 
L 63.305475 -106.496067 
L 65.486398 -104.576293 
L 67.667321 -102.283311 
L 69.848243 -100.90001 
L 72.029166 -101.754351 
L 74.210089 -96.764172 
L 76.391012 -88.404213 
L 78.571935 -85.127624 
L 80.752858 -88.642046 
L 82.933781 -89.96842 
L 85.114703 -86.855691 
L 87.295626 -83.35525 
L 89.476549 -84.317408 
L 91.657472 -90.775602 
L 93.838395 -95.80625 
L 96.019318 -97.146752 
L 98.200241 -95.693967 
L 100.381163 -88.710198 
L 102.562086 -81.811322 
L 104.743009 -83.411961 
L 106.923932 -89.96456 
L 109.104855 -94.90285 
L 111.285778 -96.992464 
L 113.466701 -90.895999 
L 115.647624 -85.3242 
L 117.828546 -83.349979 
L 120.009469 -86.276699 
L 122.190392 -91.583742 
L 124.371315 -93.130789 
L 126.552238 -86.726161 
L 128.733161 -81.392044 
L 130.914084 -81.996397 
L 133.095006 -81.908385 
L 135.275929 -83.111721 
L 137.456852 -83.533665 
L 139.637775 -91.070985 
L 141.818698 -95.54385 
L 143.999621 -95.537803 
L 146.180544 -94.907085 
L 148.361467 -96.359522 
L 150.542389 -94.98872 
L 152.723312 -92.718904 
L 154.904235 -93.369836 
L 157.085158 -95.86996 
L 159.266081 -104.489241 
L 161.447004 -105.950312 
L 163.627927 -99.487525 
L 165.808849 -97.141904 
L 167.989772 -98.333101 
L 170.170695 -100.578183 
L 172.351618 -101.697744 
L 174.532541 -98.035004 
L 176.713464 -88.940283 
L 178.894387 -86.987322 
L 181.075309 -90.358735 
L 183.256232 -94.762082 
L 185.437155 -94.888878 
L 187.618078 -93.091085 
L 189.799001 -92.562316 
L 191.979924 -90.370767 
L 194.160847 -86.727915 
L 196.34177 -82.786459 
L 198.522692 -90.266295 
L 200.703615 -91.339415 
L 202.884538 -88.094812 
L 205.065461 -86.205074 
L 207.246384 -85.248179 
L 209.427307 -79.077757 
L 211.60823 -72.230891 
L 213.789152 -74.732654 
L 215.970075 -82.507034 
L 218.150998 -88.060627 
L 220.331921 -85.298824 
L 222.512844 -70.819459 
L 224.693767 -63.415469 
L 226.87469 -64.991808 
L 229.055613 -70.896214 
L 231.236535 -77.223169 
L 233.417458 -76.415112 
L 235.598381 -72.481464 
L 237.779304 -68.388072 
L 237.779304 -104.882827 
L 237.779304 -104.882827 
L 235.598381 -111.142699 
L 233.417458 -113.396009 
L 231.236535 -112.193613 
L 229.055613 -104.01782 
L 226.87469 -97.407031 
L 224.693767 -95.490969 
L 222.512844 -104.241757 
L 220.331921 -120.601223 
L 218.150998 -122.717375 
L 215.970075 -113.016369 
L 213.789152 -103.922623 
L 211.60823 -104.375293 
L 209.427307 -112.315209 
L 207.246384 -119.264306 
L 205.065461 -121.079106 
L 202.884538 -125.175344 
L 200.703615 -131.585569 
L 198.522692 -124.51275 
L 196.34177 -118.397306 
L 194.160847 -117.025933 
L 191.979924 -120.648014 
L 189.799001 -127.306689 
L 187.618078 -128.989278 
L 185.437155 -131.805679 
L 183.256232 -133.7396 
L 181.075309 -130.082014 
L 178.894387 -118.805808 
L 176.713464 -116.167537 
L 174.532541 -127.231187 
L 172.351618 -133.27737 
L 170.170695 -128.606962 
L 167.989772 -127.634452 
L 165.808849 -127.634135 
L 163.627927 -135.191108 
L 161.447004 -139.477864 
L 159.266081 -136.612582 
L 157.085158 -127.507221 
L 154.904235 -121.35344 
L 152.723312 -121.644201 
L 150.542389 -126.942848 
L 148.361467 -127.371958 
L 146.180544 -129.577348 
L 143.999621 -132.124698 
L 141.818698 -130.263538 
L 139.637775 -125.191266 
L 137.456852 -121.09146 
L 135.275929 -124.624056 
L 133.095006 -119.634227 
L 130.914084 -120.438091 
L 128.733161 -123.021234 
L 126.552238 -124.89325 
L 124.371315 -126.049583 
L 122.190392 -126.387248 
L 120.009469 -125.601591 
L 117.828546 -123.529245 
L 115.647624 -122.663035 
L 113.466701 -127.471833 
L 111.285778 -130.169298 
L 109.104855 -127.507842 
L 106.923932 -124.79358 
L 104.743009 -114.802546 
L 102.562086 -111.04936 
L 100.381163 -117.08174 
L 98.200241 -126.686728 
L 96.019318 -132.791105 
L 93.838395 -137.877232 
L 91.657472 -136.372123 
L 89.476549 -133.783271 
L 87.295626 -132.826496 
L 85.114703 -132.364214 
L 82.933781 -130.285278 
L 80.752858 -122.206361 
L 78.571935 -116.995145 
L 76.391012 -119.526334 
L 74.210089 -125.450127 
L 72.029166 -132.974881 
L 69.848243 -131.741785 
L 67.667321 -131.801394 
L 65.486398 -130.603383 
L 63.305475 -131.537021 
L 61.124552 -130.133988 
L 58.943629 -124.074877 
L 56.762706 -129.156513 
L 54.581783 -134.369576 
L 52.40086 -129.87127 
L 50.219938 -120.353631 
L 48.039015 -108.989292 
L 45.858092 -100.71947 
z
" style="stroke: #ff7f0e; stroke-opacity: 0.15"/>
    </defs>
    <g clip-path="url(#p924624715a)">
     <use xlink:href="#m128affc0ae" x="0" y="215.397188" style="fill: #ff7f0e; fill-opacity: 0.15; stroke: #ff7f0e; stroke-opacity: 0.15"/>
    </g>
   </g>
   <g id="line2d_1">
    <path d="M 36.262031 101.262666 
L 247.375365 101.262666 
" clip-path="url(#p924624715a)" style="fill: none; stroke-dasharray: 2.96,1.28; stroke-dashoffset: 0; stroke: #000000; stroke-width: 0.8"/>
   </g>
   <g id="matplotlib.axis_1">
    <g id="xtick_1">
     <g id="line2d_2">
      <defs>
       <path id="m4cc03d19b9" d="M 0 0 
L 0 3.5 
" style="stroke: #000000; stroke-width: 0.8"/>
      </defs>
      <g>
       <use xlink:href="#m4cc03d19b9" x="41.496246" y="182.68" style="stroke: #000000; stroke-width: 0.8"/>
      </g>
     </g>
     <g id="text_1">
      <!-- 0 -->
      <g transform="translate(39.269371 194.998906) scale(0.07 -0.07)">
       <defs>
        <path id="DejaVuSans-30" d="M 2034 4250 
Q 1547 4250 1301 3770 
Q 1056 3291 1056 2328 
Q 1056 1369 1301 889 
Q 1547 409 2034 409 
Q 2525 409 2770 889 
Q 3016 1369 3016 2328 
Q 3016 3291 2770 3770 
Q 2525 4250 2034 4250 
z
M 2034 4750 
Q 2819 4750 3233 4129 
Q 3647 3509 3647 2328 
Q 3647 1150 3233 529 
Q 2819 -91 2034 -91 
Q 1250 -91 836 529 
Q 422 1150 422 2328 
Q 422 3509 836 4129 
Q 1250 4750 2034 4750 
z
" transform="scale(0.015625)"/>
       </defs>
       <use xlink:href="#DejaVuSans-30"/>
      </g>
     </g>
    </g>
    <g id="xtick_2">
     <g id="line2d_3">
      <g>
       <use xlink:href="#m4cc03d19b9" x="85.114703" y="182.68" style="stroke: #000000; stroke-width: 0.8"/>
      </g>
     </g>
     <g id="text_2">
      <!-- 10 -->
      <g transform="translate(80.660953 194.998906) scale(0.07 -0.07)">
       <defs>
        <path id="DejaVuSans-31" d="M 794 531 
L 1825 531 
L 1825 4091 
L 703 3866 
L 703 4441 
L 1819 4666 
L 2450 4666 
L 2450 531 
L 3481 531 
L 3481 0 
L 794 0 
L 794 531 
z
" transform="scale(0.015625)"/>
       </defs>
       <use xlink:href="#DejaVuSans-31"/>
       <use xlink:href="#DejaVuSans-30" transform="translate(63.623047 0)"/>
      </g>
     </g>
    </g>
    <g id="xtick_3">
     <g id="line2d_4">
      <g>
       <use xlink:href="#m4cc03d19b9" x="128.733161" y="182.68" style="stroke: #000000; stroke-width: 0.8"/>
      </g>
     </g>
     <g id="text_3">
      <!-- 20 -->
      <g transform="translate(124.279411 194.998906) scale(0.07 -0.07)">
       <defs>
        <path id="DejaVuSans-32" d="M 1228 531 
L 3431 531 
L 3431 0 
L 469 0 
L 469 531 
Q 828 903 1448 1529 
Q 2069 2156 2228 2338 
Q 2531 2678 2651 2914 
Q 2772 3150 2772 3378 
Q 2772 3750 2511 3984 
Q 2250 4219 1831 4219 
Q 1534 4219 1204 4116 
Q 875 4013 500 3803 
L 500 4441 
Q 881 4594 1212 4672 
Q 1544 4750 1819 4750 
Q 2544 4750 2975 4387 
Q 3406 4025 3406 3419 
Q 3406 3131 3298 2873 
Q 3191 2616 2906 2266 
Q 2828 2175 2409 1742 
Q 1991 1309 1228 531 
z
" transform="scale(0.015625)"/>
       </defs>
       <use xlink:href="#DejaVuSans-32"/>
       <use xlink:href="#DejaVuSans-30" transform="translate(63.623047 0)"/>
      </g>
     </g>
    </g>
    <g id="xtick_4">
     <g id="line2d_5">
      <g>
       <use xlink:href="#m4cc03d19b9" x="172.351618" y="182.68" style="stroke: #000000; stroke-width: 0.8"/>
      </g>
     </g>
     <g id="text_4">
      <!-- 30 -->
      <g transform="translate(167.897868 194.998906) scale(0.07 -0.07)">
       <defs>
        <path id="DejaVuSans-33" d="M 2597 2516 
Q 3050 2419 3304 2112 
Q 3559 1806 3559 1356 
Q 3559 666 3084 287 
Q 2609 -91 1734 -91 
Q 1441 -91 1130 -33 
Q 819 25 488 141 
L 488 750 
Q 750 597 1062 519 
Q 1375 441 1716 441 
Q 2309 441 2620 675 
Q 2931 909 2931 1356 
Q 2931 1769 2642 2001 
Q 2353 2234 1838 2234 
L 1294 2234 
L 1294 2753 
L 1863 2753 
Q 2328 2753 2575 2939 
Q 2822 3125 2822 3475 
Q 2822 3834 2567 4026 
Q 2313 4219 1838 4219 
Q 1578 4219 1281 4162 
Q 984 4106 628 3988 
L 628 4550 
Q 988 4650 1302 4700 
Q 1616 4750 1894 4750 
Q 2613 4750 3031 4423 
Q 3450 4097 3450 3541 
Q 3450 3153 3228 2886 
Q 3006 2619 2597 2516 
z
" transform="scale(0.015625)"/>
       </defs>
       <use xlink:href="#DejaVuSans-33"/>
       <use xlink:href="#DejaVuSans-30" transform="translate(63.623047 0)"/>
      </g>
     </g>
    </g>
    <g id="xtick_5">
     <g id="line2d_6">
      <g>
       <use xlink:href="#m4cc03d19b9" x="215.970075" y="182.68" style="stroke: #000000; stroke-width: 0.8"/>
      </g>
     </g>
     <g id="text_5">
      <!-- 40 -->
      <g transform="translate(211.516325 194.998906) scale(0.07 -0.07)">
       <defs>
        <path id="DejaVuSans-34" d="M 2419 4116 
L 825 1625 
L 2419 1625 
L 2419 4116 
z
M 2253 4666 
L 3047 4666 
L 3047 1625 
L 3713 1625 
L 3713 1100 
L 3047 1100 
L 3047 0 
L 2419 0 
L 2419 1100 
L 313 1100 
L 313 1709 
L 2253 4666 
z
" transform="scale(0.015625)"/>
       </defs>
       <use xlink:href="#DejaVuSans-34"/>
       <use xlink:href="#DejaVuSans-30" transform="translate(63.623047 0)"/>
      </g>
     </g>
    </g>
    <g id="text_6">
     <!-- Frequency (Hz) -->
     <g transform="translate(111.654948 206.533437) scale(0.08 -0.08)">
      <defs>
       <path id="DejaVuSans-46" d="M 628 4666 
L 3309 4666 
L 3309 4134 
L 1259 4134 
L 1259 2759 
L 3109 2759 
L 3109 2228 
L 1259 2228 
L 1259 0 
L 628 0 
L 628 4666 
z
" transform="scale(0.015625)"/>
       <path id="DejaVuSans-72" d="M 2631 2963 
Q 2534 3019 2420 3045 
Q 2306 3072 2169 3072 
Q 1681 3072 1420 2755 
Q 1159 2438 1159 1844 
L 1159 0 
L 581 0 
L 581 3500 
L 1159 3500 
L 1159 2956 
Q 1341 3275 1631 3429 
Q 1922 3584 2338 3584 
Q 2397 3584 2469 3576 
Q 2541 3569 2628 3553 
L 2631 2963 
z
" transform="scale(0.015625)"/>
       <path id="DejaVuSans-65" d="M 3597 1894 
L 3597 1613 
L 953 1613 
Q 991 1019 1311 708 
Q 1631 397 2203 397 
Q 2534 397 2845 478 
Q 3156 559 3463 722 
L 3463 178 
Q 3153 47 2828 -22 
Q 2503 -91 2169 -91 
Q 1331 -91 842 396 
Q 353 884 353 1716 
Q 353 2575 817 3079 
Q 1281 3584 2069 3584 
Q 2775 3584 3186 3129 
Q 3597 2675 3597 1894 
z
M 3022 2063 
Q 3016 2534 2758 2815 
Q 2500 3097 2075 3097 
Q 1594 3097 1305 2825 
Q 1016 2553 972 2059 
L 3022 2063 
z
" transform="scale(0.015625)"/>
       <path id="DejaVuSans-71" d="M 947 1747 
Q 947 1113 1208 752 
Q 1469 391 1925 391 
Q 2381 391 2643 752 
Q 2906 1113 2906 1747 
Q 2906 2381 2643 2742 
Q 2381 3103 1925 3103 
Q 1469 3103 1208 2742 
Q 947 2381 947 1747 
z
M 2906 525 
Q 2725 213 2448 61 
Q 2172 -91 1784 -91 
Q 1150 -91 751 415 
Q 353 922 353 1747 
Q 353 2572 751 3078 
Q 1150 3584 1784 3584 
Q 2172 3584 2448 3432 
Q 2725 3281 2906 2969 
L 2906 3500 
L 3481 3500 
L 3481 -1331 
L 2906 -1331 
L 2906 525 
z
" transform="scale(0.015625)"/>
       <path id="DejaVuSans-75" d="M 544 1381 
L 544 3500 
L 1119 3500 
L 1119 1403 
Q 1119 906 1312 657 
Q 1506 409 1894 409 
Q 2359 409 2629 706 
Q 2900 1003 2900 1516 
L 2900 3500 
L 3475 3500 
L 3475 0 
L 2900 0 
L 2900 538 
Q 2691 219 2414 64 
Q 2138 -91 1772 -91 
Q 1169 -91 856 284 
Q 544 659 544 1381 
z
M 1991 3584 
L 1991 3584 
z
" transform="scale(0.015625)"/>
       <path id="DejaVuSans-6e" d="M 3513 2113 
L 3513 0 
L 2938 0 
L 2938 2094 
Q 2938 2591 2744 2837 
Q 2550 3084 2163 3084 
Q 1697 3084 1428 2787 
Q 1159 2491 1159 1978 
L 1159 0 
L 581 0 
L 581 3500 
L 1159 3500 
L 1159 2956 
Q 1366 3272 1645 3428 
Q 1925 3584 2291 3584 
Q 2894 3584 3203 3211 
Q 3513 2838 3513 2113 
z
" transform="scale(0.015625)"/>
       <path id="DejaVuSans-63" d="M 3122 3366 
L 3122 2828 
Q 2878 2963 2633 3030 
Q 2388 3097 2138 3097 
Q 1578 3097 1268 2742 
Q 959 2388 959 1747 
Q 959 1106 1268 751 
Q 1578 397 2138 397 
Q 2388 397 2633 464 
Q 2878 531 3122 666 
L 3122 134 
Q 2881 22 2623 -34 
Q 2366 -91 2075 -91 
Q 1284 -91 818 406 
Q 353 903 353 1747 
Q 353 2603 823 3093 
Q 1294 3584 2113 3584 
Q 2378 3584 2631 3529 
Q 2884 3475 3122 3366 
z
" transform="scale(0.015625)"/>
       <path id="DejaVuSans-79" d="M 2059 -325 
Q 1816 -950 1584 -1140 
Q 1353 -1331 966 -1331 
L 506 -1331 
L 506 -850 
L 844 -850 
Q 1081 -850 1212 -737 
Q 1344 -625 1503 -206 
L 1606 56 
L 191 3500 
L 800 3500 
L 1894 763 
L 2988 3500 
L 3597 3500 
L 2059 -325 
z
" transform="scale(0.015625)"/>
       <path id="DejaVuSans-20" transform="scale(0.015625)"/>
       <path id="DejaVuSans-28" d="M 1984 4856 
Q 1566 4138 1362 3434 
Q 1159 2731 1159 2009 
Q 1159 1288 1364 580 
Q 1569 -128 1984 -844 
L 1484 -844 
Q 1016 -109 783 600 
Q 550 1309 550 2009 
Q 550 2706 781 3412 
Q 1013 4119 1484 4856 
L 1984 4856 
z
" transform="scale(0.015625)"/>
       <path id="DejaVuSans-48" d="M 628 4666 
L 1259 4666 
L 1259 2753 
L 3553 2753 
L 3553 4666 
L 4184 4666 
L 4184 0 
L 3553 0 
L 3553 2222 
L 1259 2222 
L 1259 0 
L 628 0 
L 628 4666 
z
" transform="scale(0.015625)"/>
       <path id="DejaVuSans-7a" d="M 353 3500 
L 3084 3500 
L 3084 2975 
L 922 459 
L 3084 459 
L 3084 0 
L 275 0 
L 275 525 
L 2438 3041 
L 353 3041 
L 353 3500 
z
" transform="scale(0.015625)"/>
       <path id="DejaVuSans-29" d="M 513 4856 
L 1013 4856 
Q 1481 4119 1714 3412 
Q 1947 2706 1947 2009 
Q 1947 1309 1714 600 
Q 1481 -109 1013 -844 
L 513 -844 
Q 928 -128 1133 580 
Q 1338 1288 1338 2009 
Q 1338 2731 1133 3434 
Q 928 4138 513 4856 
z
" transform="scale(0.015625)"/>
      </defs>
      <use xlink:href="#DejaVuSans-46"/>
      <use xlink:href="#DejaVuSans-72" transform="translate(50.269531 0)"/>
      <use xlink:href="#DejaVuSans-65" transform="translate(89.132812 0)"/>
      <use xlink:href="#DejaVuSans-71" transform="translate(150.65625 0)"/>
      <use xlink:href="#DejaVuSans-75" transform="translate(214.132812 0)"/>
      <use xlink:href="#DejaVuSans-65" transform="translate(277.511719 0)"/>
      <use xlink:href="#DejaVuSans-6e" transform="translate(339.035156 0)"/>
      <use xlink:href="#DejaVuSans-63" transform="translate(402.414062 0)"/>
      <use xlink:href="#DejaVuSans-79" transform="translate(457.394531 0)"/>
      <use xlink:href="#DejaVuSans-20" transform="translate(516.574219 0)"/>
      <use xlink:href="#DejaVuSans-28" transform="translate(548.361328 0)"/>
      <use xlink:href="#DejaVuSans-48" transform="translate(587.375 0)"/>
      <use xlink:href="#DejaVuSans-7a" transform="translate(662.570312 0)"/>
      <use xlink:href="#DejaVuSans-29" transform="translate(715.060547 0)"/>
     </g>
    </g>
   </g>
   <g id="matplotlib.axis_2">
    <g id="ytick_1">
     <g id="line2d_7">
      <defs>
       <path id="m9a496c6501" d="M 0 0 
L -3.5 0 
" style="stroke: #000000; stroke-width: 0.8"/>
      </defs>
      <g>
       <use xlink:href="#m9a496c6501" x="36.262031" y="179.376805" style="stroke: #000000; stroke-width: 0.8"/>
      </g>
     </g>
     <g id="text_7">
      <!-- −5 -->
      <g transform="translate(18.9425 182.036258) scale(0.07 -0.07)">
       <defs>
        <path id="DejaVuSans-2212" d="M 678 2272 
L 4684 2272 
L 4684 1741 
L 678 1741 
L 678 2272 
z
" transform="scale(0.015625)"/>
        <path id="DejaVuSans-35" d="M 691 4666 
L 3169 4666 
L 3169 4134 
L 1269 4134 
L 1269 2991 
Q 1406 3038 1543 3061 
Q 1681 3084 1819 3084 
Q 2600 3084 3056 2656 
Q 3513 2228 3513 1497 
Q 3513 744 3044 326 
Q 2575 -91 1722 -91 
Q 1428 -91 1123 -41 
Q 819 9 494 109 
L 494 744 
Q 775 591 1075 516 
Q 1375 441 1709 441 
Q 2250 441 2565 725 
Q 2881 1009 2881 1497 
Q 2881 1984 2565 2268 
Q 2250 2553 1709 2553 
Q 1456 2553 1204 2497 
Q 953 2441 691 2322 
L 691 4666 
z
" transform="scale(0.015625)"/>
       </defs>
       <use xlink:href="#DejaVuSans-2212"/>
       <use xlink:href="#DejaVuSans-35" transform="translate(83.789062 0)"/>
      </g>
     </g>
    </g>
    <g id="ytick_2">
     <g id="line2d_8">
      <g>
       <use xlink:href="#m9a496c6501" x="36.262031" y="163.753977" style="stroke: #000000; stroke-width: 0.8"/>
      </g>
     </g>
     <g id="text_8">
      <!-- −4 -->
      <g transform="translate(18.9425 166.413431) scale(0.07 -0.07)">
       <use xlink:href="#DejaVuSans-2212"/>
       <use xlink:href="#DejaVuSans-34" transform="translate(83.789062 0)"/>
      </g>
     </g>
    </g>
    <g id="ytick_3">
     <g id="line2d_9">
      <g>
       <use xlink:href="#m9a496c6501" x="36.262031" y="148.131149" style="stroke: #000000; stroke-width: 0.8"/>
      </g>
     </g>
     <g id="text_9">
      <!-- −3 -->
      <g transform="translate(18.9425 150.790603) scale(0.07 -0.07)">
       <use xlink:href="#DejaVuSans-2212"/>
       <use xlink:href="#DejaVuSans-33" transform="translate(83.789062 0)"/>
      </g>
     </g>
    </g>
    <g id="ytick_4">
     <g id="line2d_10">
      <g>
       <use xlink:href="#m9a496c6501" x="36.262031" y="132.508321" style="stroke: #000000; stroke-width: 0.8"/>
      </g>
     </g>
     <g id="text_10">
      <!-- −2 -->
      <g transform="translate(18.9425 135.167775) scale(0.07 -0.07)">
       <use xlink:href="#DejaVuSans-2212"/>
       <use xlink:href="#DejaVuSans-32" transform="translate(83.789062 0)"/>
      </g>
     </g>
    </g>
    <g id="ytick_5">
     <g id="line2d_11">
      <g>
       <use xlink:href="#m9a496c6501" x="36.262031" y="116.885494" style="stroke: #000000; stroke-width: 0.8"/>
      </g>
     </g>
     <g id="text_11">
      <!-- −1 -->
      <g transform="translate(18.9425 119.544947) scale(0.07 -0.07)">
       <use xlink:href="#DejaVuSans-2212"/>
       <use xlink:href="#DejaVuSans-31" transform="translate(83.789062 0)"/>
      </g>
     </g>
    </g>
    <g id="ytick_6">
     <g id="line2d_12">
      <g>
       <use xlink:href="#m9a496c6501" x="36.262031" y="101.262666" style="stroke: #000000; stroke-width: 0.8"/>
      </g>
     </g>
     <g id="text_12">
      <!-- 0 -->
      <g transform="translate(24.808281 103.922119) scale(0.07 -0.07)">
       <use xlink:href="#DejaVuSans-30"/>
      </g>
     </g>
    </g>
    <g id="ytick_7">
     <g id="line2d_13">
      <g>
       <use xlink:href="#m9a496c6501" x="36.262031" y="85.639838" style="stroke: #000000; stroke-width: 0.8"/>
      </g>
     </g>
     <g id="text_13">
      <!-- 1 -->
      <g transform="translate(24.808281 88.299291) scale(0.07 -0.07)">
       <use xlink:href="#DejaVuSans-31"/>
      </g>
     </g>
    </g>
    <g id="ytick_8">
     <g id="line2d_14">
      <g>
       <use xlink:href="#m9a496c6501" x="36.262031" y="70.01701" style="stroke: #000000; stroke-width: 0.8"/>
      </g>
     </g>
     <g id="text_14">
      <!-- 2 -->
      <g transform="translate(24.808281 72.676463) scale(0.07 -0.07)">
       <use xlink:href="#DejaVuSans-32"/>
      </g>
     </g>
    </g>
    <g id="text_15">
     <!-- ERD/ERS (dB) -->
     <g transform="translate(13.27875 148.236875) rotate(-90) scale(0.08 -0.08)">
      <defs>
       <path id="DejaVuSans-45" d="M 628 4666 
L 3578 4666 
L 3578 4134 
L 1259 4134 
L 1259 2753 
L 3481 2753 
L 3481 2222 
L 1259 2222 
L 1259 531 
L 3634 531 
L 3634 0 
L 628 0 
L 628 4666 
z
" transform="scale(0.015625)"/>
       <path id="DejaVuSans-52" d="M 2841 2188 
Q 3044 2119 3236 1894 
Q 3428 1669 3622 1275 
L 4263 0 
L 3584 0 
L 2988 1197 
Q 2756 1666 2539 1819 
Q 2322 1972 1947 1972 
L 1259 1972 
L 1259 0 
L 628 0 
L 628 4666 
L 2053 4666 
Q 2853 4666 3247 4331 
Q 3641 3997 3641 3322 
Q 3641 2881 3436 2590 
Q 3231 2300 2841 2188 
z
M 1259 4147 
L 1259 2491 
L 2053 2491 
Q 2509 2491 2742 2702 
Q 2975 2913 2975 3322 
Q 2975 3731 2742 3939 
Q 2509 4147 2053 4147 
L 1259 4147 
z
" transform="scale(0.015625)"/>
       <path id="DejaVuSans-44" d="M 1259 4147 
L 1259 519 
L 2022 519 
Q 2988 519 3436 956 
Q 3884 1394 3884 2338 
Q 3884 3275 3436 3711 
Q 2988 4147 2022 4147 
L 1259 4147 
z
M 628 4666 
L 1925 4666 
Q 3281 4666 3915 4102 
Q 4550 3538 4550 2338 
Q 4550 1131 3912 565 
Q 3275 0 1925 0 
L 628 0 
L 628 4666 
z
" transform="scale(0.015625)"/>
       <path id="DejaVuSans-2f" d="M 1625 4666 
L 2156 4666 
L 531 -594 
L 0 -594 
L 1625 4666 
z
" transform="scale(0.015625)"/>
       <path id="DejaVuSans-53" d="M 3425 4513 
L 3425 3897 
Q 3066 4069 2747 4153 
Q 2428 4238 2131 4238 
Q 1616 4238 1336 4038 
Q 1056 3838 1056 3469 
Q 1056 3159 1242 3001 
Q 1428 2844 1947 2747 
L 2328 2669 
Q 3034 2534 3370 2195 
Q 3706 1856 3706 1288 
Q 3706 609 3251 259 
Q 2797 -91 1919 -91 
Q 1588 -91 1214 -16 
Q 841 59 441 206 
L 441 856 
Q 825 641 1194 531 
Q 1563 422 1919 422 
Q 2459 422 2753 634 
Q 3047 847 3047 1241 
Q 3047 1584 2836 1778 
Q 2625 1972 2144 2069 
L 1759 2144 
Q 1053 2284 737 2584 
Q 422 2884 422 3419 
Q 422 4038 858 4394 
Q 1294 4750 2059 4750 
Q 2388 4750 2728 4690 
Q 3069 4631 3425 4513 
z
" transform="scale(0.015625)"/>
       <path id="DejaVuSans-64" d="M 2906 2969 
L 2906 4863 
L 3481 4863 
L 3481 0 
L 2906 0 
L 2906 525 
Q 2725 213 2448 61 
Q 2172 -91 1784 -91 
Q 1150 -91 751 415 
Q 353 922 353 1747 
Q 353 2572 751 3078 
Q 1150 3584 1784 3584 
Q 2172 3584 2448 3432 
Q 2725 3281 2906 2969 
z
M 947 1747 
Q 947 1113 1208 752 
Q 1469 391 1925 391 
Q 2381 391 2643 752 
Q 2906 1113 2906 1747 
Q 2906 2381 2643 2742 
Q 2381 3103 1925 3103 
Q 1469 3103 1208 2742 
Q 947 2381 947 1747 
z
" transform="scale(0.015625)"/>
       <path id="DejaVuSans-42" d="M 1259 2228 
L 1259 519 
L 2272 519 
Q 2781 519 3026 730 
Q 3272 941 3272 1375 
Q 3272 1813 3026 2020 
Q 2781 2228 2272 2228 
L 1259 2228 
z
M 1259 4147 
L 1259 2741 
L 2194 2741 
Q 2656 2741 2882 2914 
Q 3109 3088 3109 3444 
Q 3109 3797 2882 3972 
Q 2656 4147 2194 4147 
L 1259 4147 
z
M 628 4666 
L 2241 4666 
Q 2963 4666 3353 4366 
Q 3744 4066 3744 3513 
Q 3744 3084 3544 2831 
Q 3344 2578 2956 2516 
Q 3422 2416 3680 2098 
Q 3938 1781 3938 1306 
Q 3938 681 3513 340 
Q 3088 0 2303 0 
L 628 0 
L 628 4666 
z
" transform="scale(0.015625)"/>
      </defs>
      <use xlink:href="#DejaVuSans-45"/>
      <use xlink:href="#DejaVuSans-52" transform="translate(63.183594 0)"/>
      <use xlink:href="#DejaVuSans-44" transform="translate(132.666016 0)"/>
      <use xlink:href="#DejaVuSans-2f" transform="translate(209.667969 0)"/>
      <use xlink:href="#DejaVuSans-45" transform="translate(243.359375 0)"/>
      <use xlink:href="#DejaVuSans-52" transform="translate(306.542969 0)"/>
      <use xlink:href="#DejaVuSans-53" transform="translate(376.025391 0)"/>
      <use xlink:href="#DejaVuSans-20" transform="translate(439.501953 0)"/>
      <use xlink:href="#DejaVuSans-28" transform="translate(471.289062 0)"/>
      <use xlink:href="#DejaVuSans-64" transform="translate(510.302734 0)"/>
      <use xlink:href="#DejaVuSans-42" transform="translate(573.779297 0)"/>
      <use xlink:href="#DejaVuSans-29" transform="translate(642.382812 0)"/>
     </g>
    </g>
   </g>
   <g id="line2d_15">
    <path d="M 45.858092 111.815996 
L 48.039015 107.279169 
L 50.219938 102.351799 
L 52.40086 99.255227 
L 54.581783 99.179503 
L 56.762706 102.62397 
L 58.943629 102.68594 
L 61.124552 100.949276 
L 63.305475 102.387037 
L 65.486398 104.616543 
L 67.667321 105.176737 
L 69.848243 103.833465 
L 72.029166 103.334729 
L 74.210089 102.427935 
L 76.391012 105.837734 
L 78.571935 113.303313 
L 80.752858 120.388896 
L 82.933781 125.098205 
L 85.114703 126.932552 
L 87.295626 125.77736 
L 89.476549 124.154475 
L 91.657472 123.045013 
L 93.838395 121.468211 
L 96.019318 120.244633 
L 98.200241 118.059954 
L 100.381163 119.115189 
L 102.562086 122.98934 
L 104.743009 124.268175 
L 106.923932 121.285568 
L 109.104855 119.650017 
L 111.285778 119.845585 
L 113.466701 120.85857 
L 115.647624 125.077906 
L 117.828546 128.326451 
L 120.009469 129.051709 
L 122.190392 130.84754 
L 124.371315 134.730677 
L 126.552238 137.426169 
L 128.733161 139.180539 
L 130.914084 141.09986 
L 133.095006 141.864844 
L 135.275929 139.919113 
L 137.456852 138.848331 
L 139.637775 142.032832 
L 141.818698 142.65229 
L 143.999621 140.879718 
L 146.180544 139.42839 
L 148.361467 139.485646 
L 150.542389 137.805052 
L 152.723312 135.82954 
L 154.904235 132.683529 
L 157.085158 128.888708 
L 159.266081 124.663662 
L 161.447004 122.40738 
L 163.627927 123.215501 
L 165.808849 125.588396 
L 167.989772 124.621037 
L 170.170695 121.566656 
L 172.351618 124.008178 
L 174.532541 124.520744 
L 176.713464 124.062001 
L 178.894387 125.154576 
L 181.075309 126.600136 
L 183.256232 126.469286 
L 185.437155 124.375983 
L 187.618078 122.856631 
L 189.799001 124.360044 
L 191.979924 122.895077 
L 194.160847 121.469382 
L 196.34177 122.211838 
L 198.522692 121.077339 
L 200.703615 121.173551 
L 202.884538 124.064339 
L 205.065461 125.865549 
L 207.246384 126.532366 
L 209.427307 127.332673 
L 211.60823 127.187828 
L 213.789152 129.265587 
L 215.970075 132.526612 
L 218.150998 132.421277 
L 220.331921 130.220408 
L 222.512844 128.095381 
L 224.693767 129.15055 
L 226.87469 130.705866 
L 229.055613 127.593033 
L 231.236535 126.064455 
L 233.417458 127.879363 
L 235.598381 129.326655 
L 237.779304 130.809418 
" clip-path="url(#p924624715a)" style="fill: none; stroke: #1f77b4; stroke-width: 1.3; stroke-linecap: square"/>
   </g>
   <g id="line2d_16">
    <path d="M 45.858092 134.294964 
L 48.039015 125.393635 
L 50.219938 112.908328 
L 52.40086 104.180699 
L 54.581783 100.594853 
L 56.762706 103.777493 
L 58.943629 105.54128 
L 61.124552 98.982224 
L 63.305475 96.380644 
L 65.486398 97.807349 
L 67.667321 98.354835 
L 69.848243 99.07629 
L 72.029166 98.032571 
L 74.210089 104.290038 
L 76.391012 111.431914 
L 78.571935 114.335803 
L 80.752858 109.972984 
L 82.933781 105.270339 
L 85.114703 105.787235 
L 87.295626 107.306315 
L 89.476549 106.346848 
L 91.657472 101.823325 
L 93.838395 98.555446 
L 96.019318 100.428259 
L 98.200241 104.20684 
L 100.381163 112.501218 
L 102.562086 118.966847 
L 104.743009 116.289934 
L 106.923932 108.018118 
L 109.104855 104.191842 
L 111.285778 101.816306 
L 113.466701 106.213271 
L 115.647624 111.40357 
L 117.828546 111.957575 
L 120.009469 109.458042 
L 122.190392 106.411692 
L 124.371315 105.807002 
L 126.552238 109.587482 
L 128.733161 113.190548 
L 130.914084 114.179943 
L 133.095006 114.625882 
L 135.275929 111.529299 
L 137.456852 113.084625 
L 139.637775 107.266062 
L 141.818698 102.493493 
L 143.999621 101.565937 
L 146.180544 103.154971 
L 148.361467 103.531448 
L 150.542389 104.431403 
L 152.723312 108.215635 
L 154.904235 108.035549 
L 157.085158 103.708597 
L 159.266081 94.846276 
L 161.447004 92.683099 
L 163.627927 98.057871 
L 165.808849 103.009168 
L 167.989772 102.413411 
L 170.170695 100.804615 
L 172.351618 97.90963 
L 174.532541 102.764092 
L 176.713464 112.843277 
L 178.894387 112.500623 
L 181.075309 105.176813 
L 183.256232 101.146347 
L 185.437155 102.049909 
L 187.618078 104.357006 
L 189.799001 105.462685 
L 191.979924 109.887797 
L 194.160847 113.520263 
L 196.34177 114.805305 
L 198.522692 108.007665 
L 200.703615 103.934696 
L 202.884538 108.762109 
L 205.065461 111.755097 
L 207.246384 113.140945 
L 209.427307 119.700704 
L 211.60823 127.094096 
L 213.789152 126.069549 
L 215.970075 117.635486 
L 218.150998 110.008187 
L 220.331921 112.447164 
L 222.512844 127.866579 
L 224.693767 135.943968 
L 226.87469 134.197768 
L 229.055613 127.94017 
L 231.236535 120.688797 
L 233.417458 120.491627 
L 235.598381 123.585106 
L 237.779304 128.761738 
" clip-path="url(#p924624715a)" style="fill: none; stroke: #ff7f0e; stroke-width: 1.3; stroke-linecap: square"/>
   </g>
   <g id="patch_5">
    <path d="M 36.262031 182.68 
L 36.262031 59.28 
" style="fill: none; stroke: #000000; stroke-width: 0.8; stroke-linejoin: miter; stroke-linecap: square"/>
   </g>
   <g id="patch_6">
    <path d="M 247.375365 182.68 
L 247.375365 59.28 
" style="fill: none; stroke: #000000; stroke-width: 0.8; stroke-linejoin: miter; stroke-linecap: square"/>
   </g>
   <g id="patch_7">
    <path d="M 36.262031 182.68 
L 247.375365 182.68 
" style="fill: none; stroke: #000000; stroke-width: 0.8; stroke-linejoin: miter; stroke-linecap: square"/>
   </g>
   <g id="patch_8">
    <path d="M 36.262031 59.28 
L 247.375365 59.28 
" style="fill: none; stroke: #000000; stroke-width: 0.8; stroke-linejoin: miter; stroke-linecap: square"/>
   </g>
   <g id="text_16">
    <!-- C3 -->
    <g transform="translate(135.813307 53.28) scale(0.09 -0.09)">
     <defs>
      <path id="DejaVuSans-43" d="M 4122 4306 
L 4122 3641 
Q 3803 3938 3442 4084 
Q 3081 4231 2675 4231 
Q 1875 4231 1450 3742 
Q 1025 3253 1025 2328 
Q 1025 1406 1450 917 
Q 1875 428 2675 428 
Q 3081 428 3442 575 
Q 3803 722 4122 1019 
L 4122 359 
Q 3791 134 3420 21 
Q 3050 -91 2638 -91 
Q 1578 -91 968 557 
Q 359 1206 359 2328 
Q 359 3453 968 4101 
Q 1578 4750 2638 4750 
Q 3056 4750 3426 4639 
Q 3797 4528 4122 4306 
z
" transform="scale(0.015625)"/>
     </defs>
     <use xlink:href="#DejaVuSans-43"/>
     <use xlink:href="#DejaVuSans-33" transform="translate(69.824219 0)"/>
    </g>
   </g>
  </g>
  <g id="axes_2">
   <g id="patch_9">
    <path d="M 272.875365 182.68 
L 483.988698 182.68 
L 483.988698 59.28 
L 272.875365 59.28 
L 272.875365 182.68 
z
" style="fill: none"/>
   </g>
   <g id="patch_10">
    <path d="M 313.004345 182.68 
L 334.813574 182.68 
L 334.813574 59.28 
L 313.004345 59.28 
z
" clip-path="url(#p9d64839c5c)" style="fill: #d9d9d9; stroke: #d9d9d9; stroke-linejoin: miter"/>
   </g>
   <g id="patch_11">
    <path d="M 334.813574 182.68 
L 408.964951 182.68 
L 408.964951 59.28 
L 334.813574 59.28 
z
" clip-path="url(#p9d64839c5c)" style="fill: #ebebeb; stroke: #ebebeb; stroke-linejoin: miter"/>
   </g>
   <g id="FillBetweenPolyCollection_3">
    <defs>
     <path id="md49bd9495c" d="M 282.471425 -116.316419 
L 282.471425 -91.904988 
L 284.652348 -92.480506 
L 286.833271 -91.185176 
L 289.014194 -88.208284 
L 291.195117 -88.576193 
L 293.37604 -92.335877 
L 295.556962 -96.265602 
L 297.737885 -97.005691 
L 299.918808 -93.020509 
L 302.099731 -92.786165 
L 304.280654 -95.990389 
L 306.461577 -97.665265 
L 308.6425 -95.944556 
L 310.823422 -95.485355 
L 313.004345 -94.973549 
L 315.185268 -92.789362 
L 317.366191 -90.465394 
L 319.547114 -86.395282 
L 321.728037 -81.947167 
L 323.90896 -78.88488 
L 326.089882 -79.435034 
L 328.270805 -81.33878 
L 330.451728 -83.475906 
L 332.632651 -84.507557 
L 334.813574 -88.108505 
L 336.994497 -95.08186 
L 339.17542 -99.621025 
L 341.356343 -102.584299 
L 343.537265 -105.218053 
L 345.718188 -106.927587 
L 347.899111 -106.154124 
L 350.080034 -105.274434 
L 352.260957 -104.220136 
L 354.44188 -102.529763 
L 356.622803 -102.402397 
L 358.803725 -102.141101 
L 360.984648 -101.479097 
L 363.165571 -102.770689 
L 365.346494 -103.930093 
L 367.527417 -101.369876 
L 369.70834 -98.719884 
L 371.889263 -94.717146 
L 374.070186 -90.711199 
L 376.251108 -89.340197 
L 378.432031 -90.451674 
L 380.612954 -89.995285 
L 382.793877 -89.860032 
L 384.9748 -92.076246 
L 387.155723 -96.660034 
L 389.336646 -97.357889 
L 391.517568 -96.406519 
L 393.698491 -97.351409 
L 395.879414 -97.074435 
L 398.060337 -97.310632 
L 400.24126 -98.271675 
L 402.422183 -98.428274 
L 404.603106 -99.32819 
L 406.784028 -98.299806 
L 408.964951 -97.08598 
L 411.145874 -95.715894 
L 413.326797 -93.617967 
L 415.50772 -95.561284 
L 417.688643 -99.697189 
L 419.869566 -103.204581 
L 422.050489 -108.047 
L 424.231411 -111.841354 
L 426.412334 -112.843703 
L 428.593257 -116.698141 
L 430.77418 -120.849192 
L 432.955103 -120.212386 
L 435.136026 -112.486408 
L 437.316949 -101.794843 
L 439.497871 -94.191237 
L 441.678794 -89.973006 
L 443.859717 -91.10366 
L 446.04064 -94.657439 
L 448.221563 -96.529636 
L 450.402486 -95.662779 
L 452.583409 -95.341272 
L 454.764332 -94.555586 
L 456.945254 -92.613739 
L 459.126177 -94.242574 
L 461.3071 -98.074504 
L 463.488023 -99.656904 
L 465.668946 -99.089796 
L 467.849869 -97.120021 
L 470.030792 -92.340502 
L 472.211714 -91.391312 
L 474.392637 -94.71644 
L 474.392637 -110.075385 
L 474.392637 -110.075385 
L 472.211714 -107.027401 
L 470.030792 -108.619013 
L 467.849869 -113.905159 
L 465.668946 -115.505827 
L 463.488023 -116.543469 
L 461.3071 -115.006478 
L 459.126177 -110.263038 
L 456.945254 -108.768072 
L 454.764332 -110.435251 
L 452.583409 -111.01523 
L 450.402486 -112.154087 
L 448.221563 -112.797427 
L 446.04064 -110.418364 
L 443.859717 -106.721694 
L 441.678794 -104.819598 
L 439.497871 -108.302867 
L 437.316949 -116.990803 
L 435.136026 -128.487128 
L 432.955103 -135.980153 
L 430.77418 -137.04471 
L 428.593257 -133.237135 
L 426.412334 -128.881421 
L 424.231411 -128.029222 
L 422.050489 -124.329237 
L 419.869566 -119.846735 
L 417.688643 -116.556521 
L 415.50772 -112.319225 
L 413.326797 -109.102229 
L 411.145874 -111.274566 
L 408.964951 -113.520936 
L 406.784028 -114.183207 
L 404.603106 -114.455185 
L 402.422183 -113.366764 
L 400.24126 -112.847956 
L 398.060337 -112.396046 
L 395.879414 -112.914142 
L 393.698491 -113.454995 
L 391.517568 -112.537153 
L 389.336646 -113.144338 
L 387.155723 -112.107584 
L 384.9748 -107.65622 
L 382.793877 -106.752496 
L 380.612954 -107.686398 
L 378.432031 -108.77745 
L 376.251108 -107.384927 
L 374.070186 -107.757194 
L 371.889263 -110.274059 
L 369.70834 -114.688252 
L 367.527417 -117.268169 
L 365.346494 -119.717254 
L 363.165571 -119.420457 
L 360.984648 -118.460686 
L 358.803725 -119.32319 
L 356.622803 -119.036912 
L 354.44188 -118.921825 
L 352.260957 -119.873653 
L 350.080034 -121.077805 
L 347.899111 -122.387353 
L 345.718188 -122.689804 
L 343.537265 -120.576446 
L 341.356343 -117.514258 
L 339.17542 -115.552645 
L 336.994497 -110.896919 
L 334.813574 -104.101042 
L 332.632651 -101.965767 
L 330.451728 -102.894934 
L 328.270805 -101.732834 
L 326.089882 -100.054808 
L 323.90896 -99.051963 
L 321.728037 -101.929416 
L 319.547114 -105.595765 
L 317.366191 -107.928404 
L 315.185268 -109.98336 
L 313.004345 -112.182838 
L 310.823422 -112.366024 
L 308.6425 -112.559264 
L 306.461577 -114.783079 
L 304.280654 -113.005063 
L 302.099731 -110.095157 
L 299.918808 -111.49666 
L 297.737885 -116.947 
L 295.556962 -117.908725 
L 293.37604 -115.44865 
L 291.195117 -111.688916 
L 289.014194 -111.774421 
L 286.833271 -115.047229 
L 284.652348 -116.492119 
L 282.471425 -116.316419 
z
" style="stroke: #1f77b4; stroke-opacity: 0.15"/>
    </defs>
    <g clip-path="url(#p9d64839c5c)">
     <use xlink:href="#md49bd9495c" x="0" y="215.397188" style="fill: #1f77b4; fill-opacity: 0.15; stroke: #1f77b4; stroke-opacity: 0.15"/>
    </g>
   </g>
   <g id="FillBetweenPolyCollection_4">
    <defs>
     <path id="m7eea65d4b6" d="M 282.471425 -93.845313 
L 282.471425 -38.326278 
L 284.652348 -43.980745 
L 286.833271 -52.964444 
L 289.014194 -56.985066 
L 291.195117 -55.245476 
L 293.37604 -54.612077 
L 295.556962 -57.483386 
L 297.737885 -65.413386 
L 299.918808 -73.863143 
L 302.099731 -76.532077 
L 304.280654 -76.56873 
L 306.461577 -74.61971 
L 308.6425 -73.301729 
L 310.823422 -72.000206 
L 313.004345 -70.00091 
L 315.185268 -63.656091 
L 317.366191 -51.83728 
L 319.547114 -46.609809 
L 321.728037 -50.134237 
L 323.90896 -56.842789 
L 326.089882 -61.72048 
L 328.270805 -66.351887 
L 330.451728 -72.192231 
L 332.632651 -78.199656 
L 334.813574 -85.091643 
L 336.994497 -87.957934 
L 339.17542 -84.015025 
L 341.356343 -86.111792 
L 343.537265 -88.661995 
L 345.718188 -91.006168 
L 347.899111 -92.546677 
L 350.080034 -89.450603 
L 352.260957 -84.081815 
L 354.44188 -87.380837 
L 356.622803 -93.435181 
L 358.803725 -94.619345 
L 360.984648 -92.903717 
L 363.165571 -93.401611 
L 365.346494 -100.27702 
L 367.527417 -106.276945 
L 369.70834 -103.946809 
L 371.889263 -94.048911 
L 374.070186 -85.578123 
L 376.251108 -83.035074 
L 378.432031 -82.086835 
L 380.612954 -83.309731 
L 382.793877 -85.83088 
L 384.9748 -88.075131 
L 387.155723 -90.562257 
L 389.336646 -91.885655 
L 391.517568 -90.726225 
L 393.698491 -92.162975 
L 395.879414 -102.687569 
L 398.060337 -111.181775 
L 400.24126 -112.865795 
L 402.422183 -108.734899 
L 404.603106 -104.712419 
L 406.784028 -102.022223 
L 408.964951 -98.767126 
L 411.145874 -96.214938 
L 413.326797 -94.700991 
L 415.50772 -94.02596 
L 417.688643 -95.324734 
L 419.869566 -96.532857 
L 422.050489 -96.546822 
L 424.231411 -94.762831 
L 426.412334 -93.642437 
L 428.593257 -96.315372 
L 430.77418 -99.301222 
L 432.955103 -97.109428 
L 435.136026 -94.597134 
L 437.316949 -96.416829 
L 439.497871 -101.171163 
L 441.678794 -105.923349 
L 443.859717 -106.026884 
L 446.04064 -98.561548 
L 448.221563 -87.17446 
L 450.402486 -80.111403 
L 452.583409 -74.858377 
L 454.764332 -70.624567 
L 456.945254 -71.355433 
L 459.126177 -79.959828 
L 461.3071 -79.311377 
L 463.488023 -74.529899 
L 465.668946 -81.301953 
L 467.849869 -92.857591 
L 470.030792 -95.361285 
L 472.211714 -87.705633 
L 474.392637 -85.553638 
L 474.392637 -121.276184 
L 474.392637 -121.276184 
L 472.211714 -121.743962 
L 470.030792 -126.175899 
L 467.849869 -123.161367 
L 465.668946 -113.580938 
L 463.488023 -108.528298 
L 461.3071 -116.406397 
L 459.126177 -117.321094 
L 456.945254 -105.345193 
L 454.764332 -105.20955 
L 452.583409 -107.471444 
L 450.402486 -111.143364 
L 448.221563 -118.081891 
L 446.04064 -127.952327 
L 443.859717 -133.018385 
L 441.678794 -133.077885 
L 439.497871 -130.182114 
L 437.316949 -128.818807 
L 435.136026 -129.455962 
L 432.955103 -130.731492 
L 430.77418 -129.365641 
L 428.593257 -125.777323 
L 426.412334 -127.048305 
L 424.231411 -131.508853 
L 422.050489 -133.058889 
L 419.869566 -131.385086 
L 417.688643 -128.848862 
L 415.50772 -124.407092 
L 413.326797 -122.631318 
L 411.145874 -123.556134 
L 408.964951 -125.914481 
L 406.784028 -132.004509 
L 404.603106 -131.691085 
L 402.422183 -136.264609 
L 400.24126 -139.068561 
L 398.060337 -137.768615 
L 395.879414 -129.941292 
L 393.698491 -123.287435 
L 391.517568 -124.962503 
L 389.336646 -126.780478 
L 387.155723 -124.576614 
L 384.9748 -120.304898 
L 382.793877 -117.717632 
L 380.612954 -115.13144 
L 378.432031 -116.74955 
L 376.251108 -118.421763 
L 374.070186 -121.369333 
L 371.889263 -127.002993 
L 369.70834 -132.826961 
L 367.527417 -137.367087 
L 365.346494 -133.290273 
L 363.165571 -123.595421 
L 360.984648 -126.185069 
L 358.803725 -125.057159 
L 356.622803 -126.183234 
L 354.44188 -121.30219 
L 352.260957 -116.4833 
L 350.080034 -117.85582 
L 347.899111 -120.993705 
L 345.718188 -123.545909 
L 343.537265 -122.457189 
L 341.356343 -119.972102 
L 339.17542 -114.883445 
L 336.994497 -117.795512 
L 334.813574 -117.658113 
L 332.632651 -113.495142 
L 330.451728 -111.374748 
L 328.270805 -113.039425 
L 326.089882 -111.590432 
L 323.90896 -105.632017 
L 321.728037 -97.063534 
L 319.547114 -94.557613 
L 317.366191 -95.393564 
L 315.185268 -101.310858 
L 313.004345 -106.598181 
L 310.823422 -109.587917 
L 308.6425 -108.800345 
L 306.461577 -109.010365 
L 304.280654 -111.90429 
L 302.099731 -113.775007 
L 299.918808 -114.798965 
L 297.737885 -108.023252 
L 295.556962 -97.916904 
L 293.37604 -94.519802 
L 291.195117 -97.138334 
L 289.014194 -104.039651 
L 286.833271 -104.880191 
L 284.652348 -98.099808 
L 282.471425 -93.845313 
z
" style="stroke: #ff7f0e; stroke-opacity: 0.15"/>
    </defs>
    <g clip-path="url(#p9d64839c5c)">
     <use xlink:href="#m7eea65d4b6" x="0" y="215.397188" style="fill: #ff7f0e; fill-opacity: 0.15; stroke: #ff7f0e; stroke-opacity: 0.15"/>
    </g>
   </g>
   <g id="line2d_17">
    <path d="M 272.875365 101.262666 
L 483.988698 101.262666 
" clip-path="url(#p9d64839c5c)" style="fill: none; stroke-dasharray: 2.96,1.28; stroke-dashoffset: 0; stroke: #000000; stroke-width: 0.8"/>
   </g>
   <g id="matplotlib.axis_3">
    <g id="xtick_6">
     <g id="line2d_18">
      <g>
       <use xlink:href="#m4cc03d19b9" x="278.109579" y="182.68" style="stroke: #000000; stroke-width: 0.8"/>
      </g>
     </g>
     <g id="text_17">
      <!-- 0 -->
      <g transform="translate(275.882704 194.998906) scale(0.07 -0.07)">
       <use xlink:href="#DejaVuSans-30"/>
      </g>
     </g>
    </g>
    <g id="xtick_7">
     <g id="line2d_19">
      <g>
       <use xlink:href="#m4cc03d19b9" x="321.728037" y="182.68" style="stroke: #000000; stroke-width: 0.8"/>
      </g>
     </g>
     <g id="text_18">
      <!-- 10 -->
      <g transform="translate(317.274287 194.998906) scale(0.07 -0.07)">
       <use xlink:href="#DejaVuSans-31"/>
       <use xlink:href="#DejaVuSans-30" transform="translate(63.623047 0)"/>
      </g>
     </g>
    </g>
    <g id="xtick_8">
     <g id="line2d_20">
      <g>
       <use xlink:href="#m4cc03d19b9" x="365.346494" y="182.68" style="stroke: #000000; stroke-width: 0.8"/>
      </g>
     </g>
     <g id="text_19">
      <!-- 20 -->
      <g transform="translate(360.892744 194.998906) scale(0.07 -0.07)">
       <use xlink:href="#DejaVuSans-32"/>
       <use xlink:href="#DejaVuSans-30" transform="translate(63.623047 0)"/>
      </g>
     </g>
    </g>
    <g id="xtick_9">
     <g id="line2d_21">
      <g>
       <use xlink:href="#m4cc03d19b9" x="408.964951" y="182.68" style="stroke: #000000; stroke-width: 0.8"/>
      </g>
     </g>
     <g id="text_20">
      <!-- 30 -->
      <g transform="translate(404.511201 194.998906) scale(0.07 -0.07)">
       <use xlink:href="#DejaVuSans-33"/>
       <use xlink:href="#DejaVuSans-30" transform="translate(63.623047 0)"/>
      </g>
     </g>
    </g>
    <g id="xtick_10">
     <g id="line2d_22">
      <g>
       <use xlink:href="#m4cc03d19b9" x="452.583409" y="182.68" style="stroke: #000000; stroke-width: 0.8"/>
      </g>
     </g>
     <g id="text_21">
      <!-- 40 -->
      <g transform="translate(448.129659 194.998906) scale(0.07 -0.07)">
       <use xlink:href="#DejaVuSans-34"/>
       <use xlink:href="#DejaVuSans-30" transform="translate(63.623047 0)"/>
      </g>
     </g>
    </g>
    <g id="text_22">
     <!-- Frequency (Hz) -->
     <g transform="translate(348.268281 206.533437) scale(0.08 -0.08)">
      <use xlink:href="#DejaVuSans-46"/>
      <use xlink:href="#DejaVuSans-72" transform="translate(50.269531 0)"/>
      <use xlink:href="#DejaVuSans-65" transform="translate(89.132812 0)"/>
      <use xlink:href="#DejaVuSans-71" transform="translate(150.65625 0)"/>
      <use xlink:href="#DejaVuSans-75" transform="translate(214.132812 0)"/>
      <use xlink:href="#DejaVuSans-65" transform="translate(277.511719 0)"/>
      <use xlink:href="#DejaVuSans-6e" transform="translate(339.035156 0)"/>
      <use xlink:href="#DejaVuSans-63" transform="translate(402.414062 0)"/>
      <use xlink:href="#DejaVuSans-79" transform="translate(457.394531 0)"/>
      <use xlink:href="#DejaVuSans-20" transform="translate(516.574219 0)"/>
      <use xlink:href="#DejaVuSans-28" transform="translate(548.361328 0)"/>
      <use xlink:href="#DejaVuSans-48" transform="translate(587.375 0)"/>
      <use xlink:href="#DejaVuSans-7a" transform="translate(662.570312 0)"/>
      <use xlink:href="#DejaVuSans-29" transform="translate(715.060547 0)"/>
     </g>
    </g>
   </g>
   <g id="matplotlib.axis_4">
    <g id="ytick_9">
     <g id="line2d_23">
      <g>
       <use xlink:href="#m9a496c6501" x="272.875365" y="179.376805" style="stroke: #000000; stroke-width: 0.8"/>
      </g>
     </g>
    </g>
    <g id="ytick_10">
     <g id="line2d_24">
      <g>
       <use xlink:href="#m9a496c6501" x="272.875365" y="163.753977" style="stroke: #000000; stroke-width: 0.8"/>
      </g>
     </g>
    </g>
    <g id="ytick_11">
     <g id="line2d_25">
      <g>
       <use xlink:href="#m9a496c6501" x="272.875365" y="148.131149" style="stroke: #000000; stroke-width: 0.8"/>
      </g>
     </g>
    </g>
    <g id="ytick_12">
     <g id="line2d_26">
      <g>
       <use xlink:href="#m9a496c6501" x="272.875365" y="132.508321" style="stroke: #000000; stroke-width: 0.8"/>
      </g>
     </g>
    </g>
    <g id="ytick_13">
     <g id="line2d_27">
      <g>
       <use xlink:href="#m9a496c6501" x="272.875365" y="116.885494" style="stroke: #000000; stroke-width: 0.8"/>
      </g>
     </g>
    </g>
    <g id="ytick_14">
     <g id="line2d_28">
      <g>
       <use xlink:href="#m9a496c6501" x="272.875365" y="101.262666" style="stroke: #000000; stroke-width: 0.8"/>
      </g>
     </g>
    </g>
    <g id="ytick_15">
     <g id="line2d_29">
      <g>
       <use xlink:href="#m9a496c6501" x="272.875365" y="85.639838" style="stroke: #000000; stroke-width: 0.8"/>
      </g>
     </g>
    </g>
    <g id="ytick_16">
     <g id="line2d_30">
      <g>
       <use xlink:href="#m9a496c6501" x="272.875365" y="70.01701" style="stroke: #000000; stroke-width: 0.8"/>
      </g>
     </g>
    </g>
    <g id="text_23">
     <!-- ERD/ERS (dB) -->
     <g transform="translate(263.711615 148.236875) rotate(-90) scale(0.08 -0.08)">
      <use xlink:href="#DejaVuSans-45"/>
      <use xlink:href="#DejaVuSans-52" transform="translate(63.183594 0)"/>
      <use xlink:href="#DejaVuSans-44" transform="translate(132.666016 0)"/>
      <use xlink:href="#DejaVuSans-2f" transform="translate(209.667969 0)"/>
      <use xlink:href="#DejaVuSans-45" transform="translate(243.359375 0)"/>
      <use xlink:href="#DejaVuSans-52" transform="translate(306.542969 0)"/>
      <use xlink:href="#DejaVuSans-53" transform="translate(376.025391 0)"/>
      <use xlink:href="#DejaVuSans-20" transform="translate(439.501953 0)"/>
      <use xlink:href="#DejaVuSans-28" transform="translate(471.289062 0)"/>
      <use xlink:href="#DejaVuSans-64" transform="translate(510.302734 0)"/>
      <use xlink:href="#DejaVuSans-42" transform="translate(573.779297 0)"/>
      <use xlink:href="#DejaVuSans-29" transform="translate(642.382812 0)"/>
     </g>
    </g>
   </g>
   <g id="line2d_31">
    <path d="M 282.471425 111.286484 
L 284.652348 110.910875 
L 286.833271 112.280985 
L 289.014194 115.405835 
L 291.195117 115.264633 
L 293.37604 111.504924 
L 295.556962 108.310024 
L 297.737885 108.420842 
L 299.918808 113.138603 
L 302.099731 113.956526 
L 304.280654 110.899461 
L 306.461577 109.173016 
L 308.6425 111.145278 
L 310.823422 111.471498 
L 313.004345 111.818994 
L 315.185268 114.010826 
L 317.366191 116.200288 
L 319.547114 119.401664 
L 321.728037 123.458896 
L 323.90896 126.428766 
L 326.089882 125.652266 
L 328.270805 123.86138 
L 330.451728 122.211768 
L 332.632651 122.160525 
L 334.813574 119.292414 
L 336.994497 112.407798 
L 339.17542 107.810352 
L 341.356343 105.347909 
L 343.537265 102.499938 
L 345.718188 100.588492 
L 347.899111 101.126449 
L 350.080034 102.221068 
L 352.260957 103.350293 
L 354.44188 104.671394 
L 356.622803 104.677533 
L 358.803725 104.665042 
L 360.984648 105.427296 
L 363.165571 104.301614 
L 365.346494 103.573514 
L 367.527417 106.078165 
L 369.70834 108.69312 
L 371.889263 112.901585 
L 374.070186 116.162991 
L 376.251108 117.034625 
L 378.432031 115.782625 
L 380.612954 116.556346 
L 382.793877 117.090923 
L 384.9748 115.530954 
L 387.155723 111.013378 
L 389.336646 110.146074 
L 391.517568 110.925351 
L 393.698491 109.993985 
L 395.879414 110.402899 
L 398.060337 110.543848 
L 400.24126 109.837372 
L 402.422183 109.499669 
L 404.603106 108.5055 
L 406.784028 109.155681 
L 408.964951 110.093729 
L 411.145874 111.901957 
L 413.326797 114.037089 
L 415.50772 111.456933 
L 417.688643 107.270332 
L 419.869566 103.871529 
L 422.050489 99.209069 
L 424.231411 95.4619 
L 426.412334 94.534626 
L 428.593257 90.429549 
L 430.77418 86.450237 
L 432.955103 87.300918 
L 435.136026 94.91042 
L 437.316949 106.004365 
L 439.497871 114.150135 
L 441.678794 118.000885 
L 443.859717 116.48451 
L 446.04064 112.859286 
L 448.221563 110.733656 
L 450.402486 111.488755 
L 452.583409 112.218936 
L 454.764332 112.901769 
L 456.945254 114.706282 
L 459.126177 113.144382 
L 461.3071 108.856697 
L 463.488023 107.297001 
L 465.668946 108.099376 
L 467.849869 109.884598 
L 470.030792 114.91743 
L 472.211714 116.187831 
L 474.392637 113.001275 
" clip-path="url(#p9d64839c5c)" style="fill: none; stroke: #1f77b4; stroke-width: 1.3; stroke-linecap: square"/>
   </g>
   <g id="line2d_32">
    <path d="M 282.471425 149.311392 
L 284.652348 144.356911 
L 286.833271 136.47487 
L 289.014194 134.884829 
L 291.195117 139.205282 
L 293.37604 140.831248 
L 295.556962 137.697042 
L 297.737885 128.678869 
L 299.918808 121.066134 
L 302.099731 120.243646 
L 304.280654 121.160677 
L 306.461577 123.58215 
L 308.6425 124.346151 
L 310.823422 124.603126 
L 313.004345 127.097642 
L 315.185268 132.913713 
L 317.366191 141.781765 
L 319.547114 144.813476 
L 321.728037 141.798302 
L 323.90896 134.159784 
L 326.089882 128.741732 
L 328.270805 125.701532 
L 330.451728 123.613698 
L 332.632651 119.549789 
L 334.813574 114.02231 
L 336.994497 112.520464 
L 339.17542 115.947953 
L 341.356343 112.35524 
L 343.537265 109.837595 
L 345.718188 108.121149 
L 347.899111 108.626997 
L 350.080034 111.743976 
L 352.260957 115.11463 
L 354.44188 111.055674 
L 356.622803 105.58798 
L 358.803725 105.558935 
L 360.984648 105.852794 
L 363.165571 106.898672 
L 365.346494 98.613541 
L 367.527417 93.575172 
L 369.70834 97.010302 
L 371.889263 104.871235 
L 374.070186 111.923459 
L 376.251108 114.668769 
L 378.432031 115.978995 
L 380.612954 116.176602 
L 382.793877 113.622932 
L 384.9748 111.207173 
L 387.155723 107.827752 
L 389.336646 106.064121 
L 391.517568 107.552823 
L 393.698491 107.671983 
L 395.879414 99.082757 
L 398.060337 90.921992 
L 400.24126 89.430009 
L 402.422183 92.897434 
L 404.603106 97.195435 
L 406.784028 98.383821 
L 408.964951 103.056384 
L 411.145874 105.511651 
L 413.326797 106.731033 
L 415.50772 106.180662 
L 417.688643 103.310389 
L 419.869566 101.438216 
L 422.050489 100.594332 
L 424.231411 102.261345 
L 426.412334 105.051817 
L 428.593257 104.35084 
L 430.77418 101.063756 
L 432.955103 101.476727 
L 435.136026 103.370639 
L 437.316949 102.779369 
L 439.497871 99.720549 
L 441.678794 95.89657 
L 443.859717 95.874553 
L 446.04064 102.14025 
L 448.221563 112.769012 
L 450.402486 119.769804 
L 452.583409 124.232277 
L 454.764332 127.480129 
L 456.945254 127.046875 
L 459.126177 116.756726 
L 461.3071 117.5383 
L 463.488023 123.868089 
L 465.668946 117.955742 
L 467.849869 107.387709 
L 470.030792 104.628596 
L 472.211714 110.67239 
L 474.392637 111.982277 
" clip-path="url(#p9d64839c5c)" style="fill: none; stroke: #ff7f0e; stroke-width: 1.3; stroke-linecap: square"/>
   </g>
   <g id="patch_12">
    <path d="M 272.875365 182.68 
L 272.875365 59.28 
" style="fill: none; stroke: #000000; stroke-width: 0.8; stroke-linejoin: miter; stroke-linecap: square"/>
   </g>
   <g id="patch_13">
    <path d="M 483.988698 182.68 
L 483.988698 59.28 
" style="fill: none; stroke: #000000; stroke-width: 0.8; stroke-linejoin: miter; stroke-linecap: square"/>
   </g>
   <g id="patch_14">
    <path d="M 272.875365 182.68 
L 483.988698 182.68 
" style="fill: none; stroke: #000000; stroke-width: 0.8; stroke-linejoin: miter; stroke-linecap: square"/>
   </g>
   <g id="patch_15">
    <path d="M 272.875365 59.28 
L 483.988698 59.28 
" style="fill: none; stroke: #000000; stroke-width: 0.8; stroke-linejoin: miter; stroke-linecap: square"/>
   </g>
   <g id="text_24">
    <!-- Cz -->
    <g transform="translate(372.927969 53.28) scale(0.09 -0.09)">
     <use xlink:href="#DejaVuSans-43"/>
     <use xlink:href="#DejaVuSans-7a" transform="translate(69.824219 0)"/>
    </g>
   </g>
  </g>
  <g id="axes_3">
   <g id="patch_16">
    <path d="M 509.488698 182.68 
L 720.602031 182.68 
L 720.602031 59.28 
L 509.488698 59.28 
L 509.488698 182.68 
z
" style="fill: none"/>
   </g>
   <g id="patch_17">
    <path d="M 549.617679 182.68 
L 571.426907 182.68 
L 571.426907 59.28 
L 549.617679 59.28 
z
" clip-path="url(#pdaec887cba)" style="fill: #d9d9d9; stroke: #d9d9d9; stroke-linejoin: miter"/>
   </g>
   <g id="patch_18">
    <path d="M 571.426907 182.68 
L 645.578285 182.68 
L 645.578285 59.28 
L 571.426907 59.28 
z
" clip-path="url(#pdaec887cba)" style="fill: #ebebeb; stroke: #ebebeb; stroke-linejoin: miter"/>
   </g>
   <g id="FillBetweenPolyCollection_5">
    <defs>
     <path id="m85498b7160" d="M 519.084759 -103.346819 
L 519.084759 -85.317307 
L 521.265681 -89.072369 
L 523.446604 -95.579039 
L 525.627527 -101.258927 
L 527.80845 -101.838898 
L 529.989373 -102.263124 
L 532.170296 -100.499122 
L 534.351219 -97.002789 
L 536.532141 -97.784805 
L 538.713064 -100.248641 
L 540.893987 -100.914134 
L 543.07491 -98.252667 
L 545.255833 -98.050743 
L 547.436756 -98.674049 
L 549.617679 -96.011029 
L 551.798601 -91.483581 
L 553.979524 -84.920154 
L 556.160447 -79.36777 
L 558.34137 -75.954143 
L 560.522293 -76.63176 
L 562.703216 -75.797057 
L 564.884139 -71.772978 
L 567.065062 -69.531712 
L 569.245984 -70.785283 
L 571.426907 -76.207994 
L 573.60783 -82.000016 
L 575.788753 -84.958084 
L 577.969676 -86.36748 
L 580.150599 -89.359859 
L 582.331522 -92.345735 
L 584.512444 -90.1759 
L 586.693367 -86.922399 
L 588.87429 -85.97227 
L 591.055213 -84.919961 
L 593.236136 -83.131371 
L 595.417059 -82.386291 
L 597.597982 -82.235033 
L 599.778905 -79.945823 
L 601.959827 -79.138837 
L 604.14075 -79.903444 
L 606.321673 -83.777512 
L 608.502596 -85.392221 
L 610.683519 -82.251117 
L 612.864442 -79.498867 
L 615.045365 -80.021199 
L 617.226287 -81.685858 
L 619.40721 -79.926587 
L 621.588133 -79.425411 
L 623.769056 -81.546171 
L 625.949979 -81.922612 
L 628.130902 -79.048052 
L 630.311825 -76.1392 
L 632.492748 -72.817169 
L 634.67367 -71.236868 
L 636.854593 -70.034698 
L 639.035516 -70.936806 
L 641.216439 -72.942344 
L 643.397362 -78.122236 
L 645.578285 -83.85311 
L 647.759208 -86.425374 
L 649.94013 -88.307737 
L 652.121053 -89.002698 
L 654.301976 -88.429076 
L 656.482899 -87.615435 
L 658.663822 -89.501862 
L 660.844745 -91.035208 
L 663.025668 -87.470245 
L 665.20659 -86.643712 
L 667.387513 -85.908263 
L 669.568436 -85.787105 
L 671.749359 -85.681514 
L 673.930282 -83.698925 
L 676.111205 -79.961971 
L 678.292128 -74.535734 
L 680.473051 -71.675649 
L 682.653973 -73.723557 
L 684.834896 -77.053898 
L 687.015819 -82.02394 
L 689.196742 -82.886434 
L 691.377665 -82.590125 
L 693.558588 -80.549414 
L 695.739511 -76.933861 
L 697.920433 -75.105879 
L 700.101356 -71.758709 
L 702.282279 -71.380767 
L 704.463202 -74.212045 
L 706.644125 -77.654202 
L 708.825048 -77.064202 
L 711.005971 -74.030294 
L 711.005971 -94.268702 
L 711.005971 -94.268702 
L 708.825048 -97.996746 
L 706.644125 -98.979649 
L 704.463202 -95.338832 
L 702.282279 -93.111121 
L 700.101356 -94.011689 
L 697.920433 -96.660013 
L 695.739511 -97.099685 
L 693.558588 -100.497837 
L 691.377665 -103.637729 
L 689.196742 -103.828659 
L 687.015819 -102.833076 
L 684.834896 -98.79849 
L 682.653973 -94.4674 
L 680.473051 -91.14303 
L 678.292128 -93.643576 
L 676.111205 -99.133493 
L 673.930282 -102.197802 
L 671.749359 -103.80629 
L 669.568436 -104.537713 
L 667.387513 -105.154083 
L 665.20659 -105.072417 
L 663.025668 -106.407652 
L 660.844745 -109.439093 
L 658.663822 -107.261592 
L 656.482899 -105.556466 
L 654.301976 -106.681519 
L 652.121053 -105.695368 
L 649.94013 -104.713968 
L 647.759208 -103.075665 
L 645.578285 -100.48429 
L 643.397362 -95.203547 
L 641.216439 -90.080852 
L 639.035516 -88.503001 
L 636.854593 -86.71529 
L 634.67367 -87.8967 
L 632.492748 -90.127409 
L 630.311825 -93.508402 
L 628.130902 -94.869434 
L 625.949979 -97.404534 
L 623.769056 -97.687502 
L 621.588133 -95.469292 
L 619.40721 -96.733623 
L 617.226287 -98.314538 
L 615.045365 -96.066983 
L 612.864442 -96.17907 
L 610.683519 -100.135927 
L 608.502596 -103.028327 
L 606.321673 -101.652779 
L 604.14075 -98.055736 
L 601.959827 -96.611487 
L 599.778905 -97.298894 
L 597.597982 -99.809418 
L 595.417059 -100.18863 
L 593.236136 -101.396041 
L 591.055213 -103.733627 
L 588.87429 -104.361497 
L 586.693367 -104.66363 
L 584.512444 -107.30011 
L 582.331522 -108.922436 
L 580.150599 -106.084186 
L 577.969676 -103.62665 
L 575.788753 -101.956631 
L 573.60783 -99.049314 
L 571.426907 -94.452784 
L 569.245984 -91.157777 
L 567.065062 -90.809366 
L 564.884139 -94.350571 
L 562.703216 -99.999052 
L 560.522293 -99.850087 
L 558.34137 -96.892612 
L 556.160447 -97.825471 
L 553.979524 -101.1541 
L 551.798601 -106.184647 
L 549.617679 -110.50578 
L 547.436756 -113.175074 
L 545.255833 -112.755465 
L 543.07491 -112.547152 
L 540.893987 -115.562914 
L 538.713064 -115.018464 
L 536.532141 -112.826297 
L 534.351219 -111.929138 
L 532.170296 -114.943553 
L 529.989373 -116.961596 
L 527.80845 -117.928663 
L 525.627527 -118.050271 
L 523.446604 -111.993865 
L 521.265681 -106.453443 
L 519.084759 -103.346819 
z
" style="stroke: #1f77b4; stroke-opacity: 0.15"/>
    </defs>
    <g clip-path="url(#pdaec887cba)">
     <use xlink:href="#m85498b7160" x="0" y="215.397188" style="fill: #1f77b4; fill-opacity: 0.15; stroke: #1f77b4; stroke-opacity: 0.15"/>
    </g>
   </g>
   <g id="FillBetweenPolyCollection_6">
    <defs>
     <path id="m8076a4e2b2" d="M 519.084759 -106.03262 
L 519.084759 -68.029555 
L 521.265681 -72.856623 
L 523.446604 -77.42959 
L 525.627527 -81.970877 
L 527.80845 -87.166639 
L 529.989373 -85.420051 
L 532.170296 -82.581888 
L 534.351219 -86.628333 
L 536.532141 -93.619291 
L 538.713064 -91.397546 
L 540.893987 -83.52495 
L 543.07491 -87.592117 
L 545.255833 -94.801391 
L 547.436756 -97.548772 
L 549.617679 -94.074912 
L 551.798601 -89.992837 
L 553.979524 -88.487499 
L 556.160447 -79.024248 
L 558.34137 -71.076994 
L 560.522293 -79.860981 
L 562.703216 -95.223981 
L 564.884139 -104.037689 
L 567.065062 -102.204295 
L 569.245984 -95.343222 
L 571.426907 -92.418161 
L 573.60783 -95.808197 
L 575.788753 -93.412293 
L 577.969676 -88.373727 
L 580.150599 -86.852828 
L 582.331522 -83.543513 
L 584.512444 -86.199173 
L 586.693367 -89.939393 
L 588.87429 -90.327248 
L 591.055213 -91.632841 
L 593.236136 -92.703762 
L 595.417059 -90.738544 
L 597.597982 -89.598434 
L 599.778905 -90.478948 
L 601.959827 -90.585314 
L 604.14075 -92.625914 
L 606.321673 -90.201394 
L 608.502596 -86.447868 
L 610.683519 -84.680131 
L 612.864442 -88.034644 
L 615.045365 -92.135106 
L 617.226287 -93.635212 
L 619.40721 -95.264675 
L 621.588133 -99.465729 
L 623.769056 -96.020251 
L 625.949979 -80.892713 
L 628.130902 -68.658514 
L 630.311825 -64.580461 
L 632.492748 -67.901009 
L 634.67367 -76.839874 
L 636.854593 -86.611897 
L 639.035516 -90.856512 
L 641.216439 -92.607748 
L 643.397362 -94.846744 
L 645.578285 -91.444934 
L 647.759208 -86.535031 
L 649.94013 -84.772021 
L 652.121053 -81.835077 
L 654.301976 -79.703997 
L 656.482899 -77.330788 
L 658.663822 -71.606824 
L 660.844745 -68.335581 
L 663.025668 -68.028947 
L 665.20659 -73.65329 
L 667.387513 -83.482522 
L 669.568436 -89.923159 
L 671.749359 -86.450051 
L 673.930282 -83.07585 
L 676.111205 -79.867183 
L 678.292128 -77.447368 
L 680.473051 -73.98397 
L 682.653973 -68.768195 
L 684.834896 -74.57954 
L 687.015819 -77.437998 
L 689.196742 -69.535946 
L 691.377665 -60.419169 
L 693.558588 -60.797756 
L 695.739511 -64.963499 
L 697.920433 -69.146847 
L 700.101356 -74.54848 
L 702.282279 -79.224674 
L 704.463202 -76.307195 
L 706.644125 -68.88164 
L 708.825048 -60.877006 
L 711.005971 -56.010243 
L 711.005971 -95.940851 
L 711.005971 -95.940851 
L 708.825048 -103.059701 
L 706.644125 -111.932469 
L 704.463202 -117.201069 
L 702.282279 -118.027887 
L 700.101356 -113.078417 
L 697.920433 -109.631458 
L 695.739511 -106.398326 
L 693.558588 -101.840854 
L 691.377665 -101.618765 
L 689.196742 -110.276644 
L 687.015819 -118.350352 
L 684.834896 -118.01822 
L 682.653973 -110.668979 
L 680.473051 -111.591593 
L 678.292128 -116.774351 
L 676.111205 -116.185735 
L 673.930282 -120.471059 
L 671.749359 -125.356068 
L 669.568436 -127.995965 
L 667.387513 -120.938519 
L 665.20659 -111.368301 
L 663.025668 -105.565088 
L 660.844745 -106.988464 
L 658.663822 -109.323354 
L 656.482899 -111.237653 
L 654.301976 -111.592288 
L 652.121053 -114.582766 
L 649.94013 -118.307686 
L 647.759208 -117.569732 
L 645.578285 -120.479816 
L 643.397362 -126.814354 
L 641.216439 -133.134967 
L 639.035516 -128.566834 
L 636.854593 -121.582381 
L 634.67367 -108.221907 
L 632.492748 -102.207185 
L 630.311825 -99.157847 
L 628.130902 -99.445184 
L 625.949979 -110.667895 
L 623.769056 -123.186808 
L 621.588133 -125.035464 
L 619.40721 -126.167941 
L 617.226287 -127.431268 
L 615.045365 -127.471628 
L 612.864442 -126.414149 
L 610.683519 -122.5248 
L 608.502596 -122.332897 
L 606.321673 -128.818692 
L 604.14075 -135.116298 
L 601.959827 -134.197245 
L 599.778905 -126.586771 
L 597.597982 -121.406747 
L 595.417059 -123.222271 
L 593.236136 -128.27596 
L 591.055213 -131.136233 
L 588.87429 -129.34785 
L 586.693367 -124.729108 
L 584.512444 -123.290438 
L 582.331522 -123.823799 
L 580.150599 -127.250594 
L 577.969676 -123.269505 
L 575.788753 -124.239672 
L 573.60783 -124.9477 
L 571.426907 -120.57409 
L 569.245984 -124.330433 
L 567.065062 -137.180477 
L 564.884139 -150.508097 
L 562.703216 -147.734936 
L 560.522293 -133.407396 
L 558.34137 -120.724687 
L 556.160447 -120.324342 
L 553.979524 -125.804282 
L 551.798601 -121.393807 
L 549.617679 -121.650842 
L 547.436756 -125.475709 
L 545.255833 -122.204346 
L 543.07491 -118.813228 
L 540.893987 -118.787949 
L 538.713064 -121.794975 
L 536.532141 -127.321765 
L 534.351219 -118.56253 
L 532.170296 -117.032007 
L 529.989373 -120.028724 
L 527.80845 -122.913705 
L 525.627527 -120.267087 
L 523.446604 -115.510588 
L 521.265681 -109.828032 
L 519.084759 -106.03262 
z
" style="stroke: #ff7f0e; stroke-opacity: 0.15"/>
    </defs>
    <g clip-path="url(#pdaec887cba)">
     <use xlink:href="#m8076a4e2b2" x="0" y="215.397188" style="fill: #ff7f0e; fill-opacity: 0.15; stroke: #ff7f0e; stroke-opacity: 0.15"/>
    </g>
   </g>
   <g id="line2d_33">
    <path d="M 509.488698 101.262666 
L 720.602031 101.262666 
" clip-path="url(#pdaec887cba)" style="fill: none; stroke-dasharray: 2.96,1.28; stroke-dashoffset: 0; stroke: #000000; stroke-width: 0.8"/>
   </g>
   <g id="matplotlib.axis_5">
    <g id="xtick_11">
     <g id="line2d_34">
      <g>
       <use xlink:href="#m4cc03d19b9" x="514.722913" y="182.68" style="stroke: #000000; stroke-width: 0.8"/>
      </g>
     </g>
     <g id="text_25">
      <!-- 0 -->
      <g transform="translate(512.496038 194.998906) scale(0.07 -0.07)">
       <use xlink:href="#DejaVuSans-30"/>
      </g>
     </g>
    </g>
    <g id="xtick_12">
     <g id="line2d_35">
      <g>
       <use xlink:href="#m4cc03d19b9" x="558.34137" y="182.68" style="stroke: #000000; stroke-width: 0.8"/>
      </g>
     </g>
     <g id="text_26">
      <!-- 10 -->
      <g transform="translate(553.88762 194.998906) scale(0.07 -0.07)">
       <use xlink:href="#DejaVuSans-31"/>
       <use xlink:href="#DejaVuSans-30" transform="translate(63.623047 0)"/>
      </g>
     </g>
    </g>
    <g id="xtick_13">
     <g id="line2d_36">
      <g>
       <use xlink:href="#m4cc03d19b9" x="601.959827" y="182.68" style="stroke: #000000; stroke-width: 0.8"/>
      </g>
     </g>
     <g id="text_27">
      <!-- 20 -->
      <g transform="translate(597.506077 194.998906) scale(0.07 -0.07)">
       <use xlink:href="#DejaVuSans-32"/>
       <use xlink:href="#DejaVuSans-30" transform="translate(63.623047 0)"/>
      </g>
     </g>
    </g>
    <g id="xtick_14">
     <g id="line2d_37">
      <g>
       <use xlink:href="#m4cc03d19b9" x="645.578285" y="182.68" style="stroke: #000000; stroke-width: 0.8"/>
      </g>
     </g>
     <g id="text_28">
      <!-- 30 -->
      <g transform="translate(641.124535 194.998906) scale(0.07 -0.07)">
       <use xlink:href="#DejaVuSans-33"/>
       <use xlink:href="#DejaVuSans-30" transform="translate(63.623047 0)"/>
      </g>
     </g>
    </g>
    <g id="xtick_15">
     <g id="line2d_38">
      <g>
       <use xlink:href="#m4cc03d19b9" x="689.196742" y="182.68" style="stroke: #000000; stroke-width: 0.8"/>
      </g>
     </g>
     <g id="text_29">
      <!-- 40 -->
      <g transform="translate(684.742992 194.998906) scale(0.07 -0.07)">
       <use xlink:href="#DejaVuSans-34"/>
       <use xlink:href="#DejaVuSans-30" transform="translate(63.623047 0)"/>
      </g>
     </g>
    </g>
    <g id="text_30">
     <!-- Frequency (Hz) -->
     <g transform="translate(584.881615 206.533437) scale(0.08 -0.08)">
      <use xlink:href="#DejaVuSans-46"/>
      <use xlink:href="#DejaVuSans-72" transform="translate(50.269531 0)"/>
      <use xlink:href="#DejaVuSans-65" transform="translate(89.132812 0)"/>
      <use xlink:href="#DejaVuSans-71" transform="translate(150.65625 0)"/>
      <use xlink:href="#DejaVuSans-75" transform="translate(214.132812 0)"/>
      <use xlink:href="#DejaVuSans-65" transform="translate(277.511719 0)"/>
      <use xlink:href="#DejaVuSans-6e" transform="translate(339.035156 0)"/>
      <use xlink:href="#DejaVuSans-63" transform="translate(402.414062 0)"/>
      <use xlink:href="#DejaVuSans-79" transform="translate(457.394531 0)"/>
      <use xlink:href="#DejaVuSans-20" transform="translate(516.574219 0)"/>
      <use xlink:href="#DejaVuSans-28" transform="translate(548.361328 0)"/>
      <use xlink:href="#DejaVuSans-48" transform="translate(587.375 0)"/>
      <use xlink:href="#DejaVuSans-7a" transform="translate(662.570312 0)"/>
      <use xlink:href="#DejaVuSans-29" transform="translate(715.060547 0)"/>
     </g>
    </g>
   </g>
   <g id="matplotlib.axis_6">
    <g id="ytick_17">
     <g id="line2d_39">
      <g>
       <use xlink:href="#m9a496c6501" x="509.488698" y="179.376805" style="stroke: #000000; stroke-width: 0.8"/>
      </g>
     </g>
    </g>
    <g id="ytick_18">
     <g id="line2d_40">
      <g>
       <use xlink:href="#m9a496c6501" x="509.488698" y="163.753977" style="stroke: #000000; stroke-width: 0.8"/>
      </g>
     </g>
    </g>
    <g id="ytick_19">
     <g id="line2d_41">
      <g>
       <use xlink:href="#m9a496c6501" x="509.488698" y="148.131149" style="stroke: #000000; stroke-width: 0.8"/>
      </g>
     </g>
    </g>
    <g id="ytick_20">
     <g id="line2d_42">
      <g>
       <use xlink:href="#m9a496c6501" x="509.488698" y="132.508321" style="stroke: #000000; stroke-width: 0.8"/>
      </g>
     </g>
    </g>
    <g id="ytick_21">
     <g id="line2d_43">
      <g>
       <use xlink:href="#m9a496c6501" x="509.488698" y="116.885494" style="stroke: #000000; stroke-width: 0.8"/>
      </g>
     </g>
    </g>
    <g id="ytick_22">
     <g id="line2d_44">
      <g>
       <use xlink:href="#m9a496c6501" x="509.488698" y="101.262666" style="stroke: #000000; stroke-width: 0.8"/>
      </g>
     </g>
    </g>
    <g id="ytick_23">
     <g id="line2d_45">
      <g>
       <use xlink:href="#m9a496c6501" x="509.488698" y="85.639838" style="stroke: #000000; stroke-width: 0.8"/>
      </g>
     </g>
    </g>
    <g id="ytick_24">
     <g id="line2d_46">
      <g>
       <use xlink:href="#m9a496c6501" x="509.488698" y="70.01701" style="stroke: #000000; stroke-width: 0.8"/>
      </g>
     </g>
    </g>
    <g id="text_31">
     <!-- ERD/ERS (dB) -->
     <g transform="translate(500.324948 148.236875) rotate(-90) scale(0.08 -0.08)">
      <use xlink:href="#DejaVuSans-45"/>
      <use xlink:href="#DejaVuSans-52" transform="translate(63.183594 0)"/>
      <use xlink:href="#DejaVuSans-44" transform="translate(132.666016 0)"/>
      <use xlink:href="#DejaVuSans-2f" transform="translate(209.667969 0)"/>
      <use xlink:href="#DejaVuSans-45" transform="translate(243.359375 0)"/>
      <use xlink:href="#DejaVuSans-52" transform="translate(306.542969 0)"/>
      <use xlink:href="#DejaVuSans-53" transform="translate(376.025391 0)"/>
      <use xlink:href="#DejaVuSans-20" transform="translate(439.501953 0)"/>
      <use xlink:href="#DejaVuSans-28" transform="translate(471.289062 0)"/>
      <use xlink:href="#DejaVuSans-64" transform="translate(510.302734 0)"/>
      <use xlink:href="#DejaVuSans-42" transform="translate(573.779297 0)"/>
      <use xlink:href="#DejaVuSans-29" transform="translate(642.382812 0)"/>
     </g>
    </g>
   </g>
   <g id="line2d_47">
    <path d="M 519.084759 121.065125 
L 521.265681 117.634282 
L 523.446604 111.610735 
L 525.627527 105.742588 
L 527.80845 105.513407 
L 529.989373 105.784827 
L 532.170296 107.67585 
L 534.351219 110.931224 
L 536.532141 110.091637 
L 538.713064 107.763635 
L 540.893987 107.158663 
L 543.07491 109.997278 
L 545.255833 109.994084 
L 547.436756 109.472626 
L 549.617679 112.138783 
L 551.798601 116.563073 
L 553.979524 122.36006 
L 556.160447 126.800567 
L 558.34137 128.97381 
L 560.522293 127.156264 
L 562.703216 127.499133 
L 564.884139 132.335413 
L 567.065062 135.226649 
L 569.245984 134.425658 
L 571.426907 130.066798 
L 573.60783 124.872522 
L 575.788753 121.93983 
L 577.969676 120.400122 
L 580.150599 117.675165 
L 582.331522 114.763102 
L 584.512444 116.659182 
L 586.693367 119.604173 
L 588.87429 120.230304 
L 591.055213 121.070394 
L 593.236136 123.133482 
L 595.417059 124.109727 
L 597.597982 124.374962 
L 599.778905 126.774829 
L 601.959827 127.522026 
L 604.14075 126.417598 
L 606.321673 122.682042 
L 608.502596 121.186914 
L 610.683519 124.203665 
L 612.864442 127.558219 
L 615.045365 127.353096 
L 617.226287 125.39699 
L 619.40721 127.067082 
L 621.588133 127.949836 
L 623.769056 125.780351 
L 625.949979 125.733615 
L 628.130902 128.438444 
L 630.311825 130.573387 
L 632.492748 133.924898 
L 634.67367 135.830404 
L 636.854593 137.022193 
L 639.035516 135.677284 
L 641.216439 133.88559 
L 643.397362 128.734296 
L 645.578285 123.228488 
L 647.759208 120.646668 
L 649.94013 118.886335 
L 652.121053 118.048154 
L 654.301976 117.84189 
L 656.482899 118.811237 
L 658.663822 117.015461 
L 660.844745 115.160037 
L 663.025668 118.458239 
L 665.20659 119.539123 
L 667.387513 119.866014 
L 669.568436 120.234779 
L 671.749359 120.653286 
L 673.930282 122.448824 
L 676.111205 125.849455 
L 678.292128 131.307532 
L 680.473051 133.987848 
L 682.653973 131.301709 
L 684.834896 127.470993 
L 687.015819 122.968679 
L 689.196742 122.039641 
L 691.377665 122.28326 
L 693.558588 124.873562 
L 695.739511 128.380414 
L 697.920433 129.514242 
L 700.101356 132.511988 
L 702.282279 133.151243 
L 704.463202 130.621749 
L 706.644125 127.080262 
L 708.825048 127.866713 
L 711.005971 131.24769 
" clip-path="url(#pdaec887cba)" style="fill: none; stroke: #1f77b4; stroke-width: 1.3; stroke-linecap: square"/>
   </g>
   <g id="line2d_48">
    <path d="M 519.084759 128.3661 
L 521.265681 124.05486 
L 523.446604 118.927099 
L 525.627527 114.278206 
L 527.80845 110.357016 
L 529.989373 112.6728 
L 532.170296 115.59024 
L 534.351219 112.801756 
L 536.532141 104.926659 
L 538.713064 108.800927 
L 540.893987 114.240738 
L 543.07491 112.194515 
L 545.255833 106.894319 
L 547.436756 103.884947 
L 549.617679 107.53431 
L 551.798601 109.703865 
L 553.979524 108.251297 
L 556.160447 115.722892 
L 558.34137 119.496347 
L 560.522293 108.762999 
L 562.703216 93.917729 
L 564.884139 88.124295 
L 567.065062 95.704801 
L 569.245984 105.56036 
L 571.426907 108.901062 
L 573.60783 105.019239 
L 575.788753 106.571205 
L 577.969676 109.575571 
L 580.150599 108.345477 
L 582.331522 111.713531 
L 584.512444 110.652382 
L 586.693367 108.062937 
L 588.87429 105.559639 
L 591.055213 104.012651 
L 593.236136 104.907326 
L 595.417059 108.41678 
L 597.597982 109.894597 
L 599.778905 106.864328 
L 601.959827 103.005908 
L 604.14075 101.526081 
L 606.321673 105.887144 
L 608.502596 111.006805 
L 610.683519 111.794722 
L 612.864442 108.172791 
L 615.045365 105.59382 
L 617.226287 104.863948 
L 619.40721 104.68088 
L 621.588133 103.146591 
L 623.769056 105.793658 
L 625.949979 119.616884 
L 628.130902 131.345339 
L 630.311825 133.528034 
L 632.492748 130.34309 
L 634.67367 122.866297 
L 636.854593 111.300049 
L 639.035516 105.685514 
L 641.216439 102.52583 
L 643.397362 104.566638 
L 645.578285 109.434813 
L 647.759208 113.344806 
L 649.94013 113.857334 
L 652.121053 117.188266 
L 654.301976 119.749045 
L 656.482899 121.112967 
L 658.663822 124.932099 
L 660.844745 127.735165 
L 663.025668 128.60017 
L 665.20659 122.886392 
L 667.387513 113.186667 
L 669.568436 106.437626 
L 671.749359 109.494128 
L 673.930282 113.623733 
L 676.111205 117.370729 
L 678.292128 118.286328 
L 680.473051 122.609406 
L 682.653973 125.678601 
L 684.834896 119.098307 
L 687.015819 117.503012 
L 689.196742 125.490893 
L 691.377665 134.378221 
L 693.558588 134.077883 
L 695.739511 129.716275 
L 697.920433 126.008035 
L 700.101356 121.583739 
L 702.282279 116.770907 
L 704.463202 118.643055 
L 706.644125 124.990133 
L 708.825048 133.428834 
L 711.005971 139.42164 
" clip-path="url(#pdaec887cba)" style="fill: none; stroke: #ff7f0e; stroke-width: 1.3; stroke-linecap: square"/>
   </g>
   <g id="patch_19">
    <path d="M 509.488698 182.68 
L 509.488698 59.28 
" style="fill: none; stroke: #000000; stroke-width: 0.8; stroke-linejoin: miter; stroke-linecap: square"/>
   </g>
   <g id="patch_20">
    <path d="M 720.602031 182.68 
L 720.602031 59.28 
" style="fill: none; stroke: #000000; stroke-width: 0.8; stroke-linejoin: miter; stroke-linecap: square"/>
   </g>
   <g id="patch_21">
    <path d="M 509.488698 182.68 
L 720.602031 182.68 
" style="fill: none; stroke: #000000; stroke-width: 0.8; stroke-linejoin: miter; stroke-linecap: square"/>
   </g>
   <g id="patch_22">
    <path d="M 509.488698 59.28 
L 720.602031 59.28 
" style="fill: none; stroke: #000000; stroke-width: 0.8; stroke-linejoin: miter; stroke-linecap: square"/>
   </g>
   <g id="text_32">
    <!-- C4 -->
    <g transform="translate(609.039974 53.28) scale(0.09 -0.09)">
     <use xlink:href="#DejaVuSans-43"/>
     <use xlink:href="#DejaVuSans-34" transform="translate(69.824219 0)"/>
    </g>
   </g>
  </g>
  <g id="text_33">
   <!-- ERD/ERS — MI — S04 (Movement vs Rest) -->
   <g transform="translate(248.408984 15.558281) scale(0.11 -0.11)">
    <defs>
     <path id="DejaVuSans-2014" d="M 313 1978 
L 6088 1978 
L 6088 1528 
L 313 1528 
L 313 1978 
z
" transform="scale(0.015625)"/>
     <path id="DejaVuSans-4d" d="M 628 4666 
L 1569 4666 
L 2759 1491 
L 3956 4666 
L 4897 4666 
L 4897 0 
L 4281 0 
L 4281 4097 
L 3078 897 
L 2444 897 
L 1241 4097 
L 1241 0 
L 628 0 
L 628 4666 
z
" transform="scale(0.015625)"/>
     <path id="DejaVuSans-49" d="M 628 4666 
L 1259 4666 
L 1259 0 
L 628 0 
L 628 4666 
z
" transform="scale(0.015625)"/>
     <path id="DejaVuSans-6f" d="M 1959 3097 
Q 1497 3097 1228 2736 
Q 959 2375 959 1747 
Q 959 1119 1226 758 
Q 1494 397 1959 397 
Q 2419 397 2687 759 
Q 2956 1122 2956 1747 
Q 2956 2369 2687 2733 
Q 2419 3097 1959 3097 
z
M 1959 3584 
Q 2709 3584 3137 3096 
Q 3566 2609 3566 1747 
Q 3566 888 3137 398 
Q 2709 -91 1959 -91 
Q 1206 -91 779 398 
Q 353 888 353 1747 
Q 353 2609 779 3096 
Q 1206 3584 1959 3584 
z
" transform="scale(0.015625)"/>
     <path id="DejaVuSans-76" d="M 191 3500 
L 800 3500 
L 1894 563 
L 2988 3500 
L 3597 3500 
L 2284 0 
L 1503 0 
L 191 3500 
z
" transform="scale(0.015625)"/>
     <path id="DejaVuSans-6d" d="M 3328 2828 
Q 3544 3216 3844 3400 
Q 4144 3584 4550 3584 
Q 5097 3584 5394 3201 
Q 5691 2819 5691 2113 
L 5691 0 
L 5113 0 
L 5113 2094 
Q 5113 2597 4934 2840 
Q 4756 3084 4391 3084 
Q 3944 3084 3684 2787 
Q 3425 2491 3425 1978 
L 3425 0 
L 2847 0 
L 2847 2094 
Q 2847 2600 2669 2842 
Q 2491 3084 2119 3084 
Q 1678 3084 1418 2786 
Q 1159 2488 1159 1978 
L 1159 0 
L 581 0 
L 581 3500 
L 1159 3500 
L 1159 2956 
Q 1356 3278 1631 3431 
Q 1906 3584 2284 3584 
Q 2666 3584 2933 3390 
Q 3200 3197 3328 2828 
z
" transform="scale(0.015625)"/>
     <path id="DejaVuSans-74" d="M 1172 4494 
L 1172 3500 
L 2356 3500 
L 2356 3053 
L 1172 3053 
L 1172 1153 
Q 1172 725 1289 603 
Q 1406 481 1766 481 
L 2356 481 
L 2356 0 
L 1766 0 
Q 1100 0 847 248 
Q 594 497 594 1153 
L 594 3053 
L 172 3053 
L 172 3500 
L 594 3500 
L 594 4494 
L 1172 4494 
z
" transform="scale(0.015625)"/>
     <path id="DejaVuSans-73" d="M 2834 3397 
L 2834 2853 
Q 2591 2978 2328 3040 
Q 2066 3103 1784 3103 
Q 1356 3103 1142 2972 
Q 928 2841 928 2578 
Q 928 2378 1081 2264 
Q 1234 2150 1697 2047 
L 1894 2003 
Q 2506 1872 2764 1633 
Q 3022 1394 3022 966 
Q 3022 478 2636 193 
Q 2250 -91 1575 -91 
Q 1294 -91 989 -36 
Q 684 19 347 128 
L 347 722 
Q 666 556 975 473 
Q 1284 391 1588 391 
Q 1994 391 2212 530 
Q 2431 669 2431 922 
Q 2431 1156 2273 1281 
Q 2116 1406 1581 1522 
L 1381 1569 
Q 847 1681 609 1914 
Q 372 2147 372 2553 
Q 372 3047 722 3315 
Q 1072 3584 1716 3584 
Q 2034 3584 2315 3537 
Q 2597 3491 2834 3397 
z
" transform="scale(0.015625)"/>
    </defs>
    <use xlink:href="#DejaVuSans-45"/>
    <use xlink:href="#DejaVuSans-52" transform="translate(63.183594 0)"/>
    <use xlink:href="#DejaVuSans-44" transform="translate(132.666016 0)"/>
    <use xlink:href="#DejaVuSans-2f" transform="translate(209.667969 0)"/>
    <use xlink:href="#DejaVuSans-45" transform="translate(243.359375 0)"/>
    <use xlink:href="#DejaVuSans-52" transform="translate(306.542969 0)"/>
    <use xlink:href="#DejaVuSans-53" transform="translate(376.025391 0)"/>
    <use xlink:href="#DejaVuSans-20" transform="translate(439.501953 0)"/>
    <use xlink:href="#DejaVuSans-2014" transform="translate(471.289062 0)"/>
    <use xlink:href="#DejaVuSans-20" transform="translate(571.289062 0)"/>
    <use xlink:href="#DejaVuSans-4d" transform="translate(603.076172 0)"/>
    <use xlink:href="#DejaVuSans-49" transform="translate(689.355469 0)"/>
    <use xlink:href="#DejaVuSans-20" transform="translate(718.847656 0)"/>
    <use xlink:href="#DejaVuSans-2014" transform="translate(750.634766 0)"/>
    <use xlink:href="#DejaVuSans-20" transform="translate(850.634766 0)"/>
    <use xlink:href="#DejaVuSans-53" transform="translate(882.421875 0)"/>
    <use xlink:href="#DejaVuSans-30" transform="translate(945.898438 0)"/>
    <use xlink:href="#DejaVuSans-34" transform="translate(1009.521484 0)"/>
    <use xlink:href="#DejaVuSans-20" transform="translate(1073.144531 0)"/>
    <use xlink:href="#DejaVuSans-28" transform="translate(1104.931641 0)"/>
    <use xlink:href="#DejaVuSans-4d" transform="translate(1143.945312 0)"/>
    <use xlink:href="#DejaVuSans-6f" transform="translate(1230.224609 0)"/>
    <use xlink:href="#DejaVuSans-76" transform="translate(1291.40625 0)"/>
    <use xlink:href="#DejaVuSans-65" transform="translate(1350.585938 0)"/>
    <use xlink:href="#DejaVuSans-6d" transform="translate(1412.109375 0)"/>
    <use xlink:href="#DejaVuSans-65" transform="translate(1509.521484 0)"/>
    <use xlink:href="#DejaVuSans-6e" transform="translate(1571.044922 0)"/>
    <use xlink:href="#DejaVuSans-74" transform="translate(1634.423828 0)"/>
    <use xlink:href="#DejaVuSans-20" transform="translate(1673.632812 0)"/>
    <use xlink:href="#DejaVuSans-76" transform="translate(1705.419922 0)"/>
    <use xlink:href="#DejaVuSans-73" transform="translate(1764.599609 0)"/>
    <use xlink:href="#DejaVuSans-20" transform="translate(1816.699219 0)"/>
    <use xlink:href="#DejaVuSans-52" transform="translate(1848.486328 0)"/>
    <use xlink:href="#DejaVuSans-65" transform="translate(1913.46875 0)"/>
    <use xlink:href="#DejaVuSans-73" transform="translate(1974.992188 0)"/>
    <use xlink:href="#DejaVuSans-74" transform="translate(2027.091797 0)"/>
    <use xlink:href="#DejaVuSans-29" transform="translate(2066.300781 0)"/>
   </g>
  </g>
  <g id="legend_1">
   <g id="patch_23">
    <path d="M 663.350812 30.109375 
L 722.830031 30.109375 
Q 724.230031 30.109375 724.230031 28.709375 
L 724.230031 8.86 
Q 724.230031 7.46 722.830031 7.46 
L 663.350812 7.46 
Q 661.950812 7.46 661.950812 8.86 
L 661.950812 28.709375 
Q 661.950812 30.109375 663.350812 30.109375 
z
" style="fill: #ffffff; opacity: 0.8; stroke: #cccccc; stroke-linejoin: miter"/>
   </g>
   <g id="line2d_49">
    <path d="M 664.750812 13.128906 
L 671.750812 13.128906 
L 678.750812 13.128906 
" style="fill: none; stroke: #1f77b4; stroke-width: 1.3; stroke-linecap: square"/>
   </g>
   <g id="text_34">
    <!-- Movement -->
    <g transform="translate(684.350812 15.578906) scale(0.07 -0.07)">
     <use xlink:href="#DejaVuSans-4d"/>
     <use xlink:href="#DejaVuSans-6f" transform="translate(86.279297 0)"/>
     <use xlink:href="#DejaVuSans-76" transform="translate(147.460938 0)"/>
     <use xlink:href="#DejaVuSans-65" transform="translate(206.640625 0)"/>
     <use xlink:href="#DejaVuSans-6d" transform="translate(268.164062 0)"/>
     <use xlink:href="#DejaVuSans-65" transform="translate(365.576172 0)"/>
     <use xlink:href="#DejaVuSans-6e" transform="translate(427.099609 0)"/>
     <use xlink:href="#DejaVuSans-74" transform="translate(490.478516 0)"/>
    </g>
   </g>
   <g id="line2d_50">
    <path d="M 664.750812 23.403594 
L 671.750812 23.403594 
L 678.750812 23.403594 
" style="fill: none; stroke: #ff7f0e; stroke-width: 1.3; stroke-linecap: square"/>
   </g>
   <g id="text_35">
    <!-- rest -->
    <g transform="translate(684.350812 25.853594) scale(0.07 -0.07)">
     <use xlink:href="#DejaVuSans-72"/>
     <use xlink:href="#DejaVuSans-65" transform="translate(38.863281 0)"/>
     <use xlink:href="#DejaVuSans-73" transform="translate(100.386719 0)"/>
     <use xlink:href="#DejaVuSans-74" transform="translate(152.486328 0)"/>
    </g>
   </g>
  </g>
 </g>
 <defs>
  <clipPath id="p924624715a">
   <rect x="36.262031" y="59.28" width="211.113333" height="123.4"/>
  </clipPath>
  <clipPath id="p9d64839c5c">
   <rect x="272.875365" y="59.28" width="211.113333" height="123.4"/>
  </clipPath>
  <clipPath id="pdaec887cba">
   <rect x="509.488698" y="59.28" width="211.113333" height="123.4"/>
  </clipPath>
 </defs>
</svg>
