<?xml version="1.0" encoding="utf-8" standalone="no"?>
<!DOCTYPE svg PUBLIC "-//W3C//DTD SVG 1.1//EN"
  "http://www.w3.org/Graphics/SVG/1.1/DTD/svg11.dtd">
<svg xmlns:xlink="http://www.w3.org/1999/xlink" width="731.430031pt" height="215.397188pt" viewBox="0 0 731.430031 215.397188" xmlns="http://www.w3.org/2000/svg" version="1.1">
 <metadata>
  <rdf:RDF xmlns:dc="http://purl.org/dc/elements/1.1/" xmlns:cc="http://creativecommons.org/ns#" xmlns:rdf="http://www.w3.org/1999/02/22-rdf-syntax-ns#">
   <cc:Work>
    <dc:type rdf:resource="http://purl.org/dc/dcmitype/StillImage"/>
    <dc:date>2026-06-26T22:25:41.095267</dc:date>
    <dc:format>image/svg+xml</dc:format>
    <dc:creator>
     <cc:Agent>
      <dc:title>Matplotlib v3.10.9, https://matplotlib.org/</dc:title>
     </cc:Agent>
    </dc:creator>
   </cc:Work>
  </rdf:RDF>
 </metadata>
 <defs>
  <style type="text/css">*{stroke-linejoin: round; stroke-linecap: butt}</style>
 </defs>
 <g id="figure_1">
  <g id="patch_1">
   <path d="M 0 215.397188 
L 731.430031 215.397188 
L 731.430031 0 
L 0 0 
L 0 215.397188 
z
" style="fill: none"/>
  </g>
  <g id="axes_1">
   <g id="patch_2">
    <path d="M 36.262031 182.68 
L 247.375365 182.68 
L 247.375365 59.28 
L 36.262031 59.28 
L 36.262031 182.68 
z
" style="fill: none"/>
   </g>
   <g id="patch_3">
    <path d="M 76.391012 182.68 
L 98.200241 182.68 
L 98.200241 59.28 
L 76.391012 59.28 
z
" clip-path="url(#pb0b9fac208)" style="fill: #d9d9d9; stroke: #d9d9d9; stroke-linejoin: miter"/>
   </g>
   <g id="patch_4">
    <path d="M 98.200241 182.68 
L 172.351618 182.68 
L 172.351618 59.28 
L 98.200241 59.28 
z
" clip-path="url(#pb0b9fac208)" style="fill: #ebebeb; stroke: #ebebeb; stroke-linejoin: miter"/>
   </g>
   <g id="FillBetweenPolyCollection_1">
    <defs>
     <path id="m1e9f225370" d="M 45.858092 -98.097746 
L 45.858092 -82.487096 
L 48.039015 -82.83294 
L 50.219938 -86.813749 
L 52.40086 -90.027931 
L 54.581783 -90.783387 
L 56.762706 -89.503103 
L 58.943629 -88.863016 
L 61.124552 -92.302616 
L 63.305475 -96.211578 
L 65.486398 -98.120777 
L 67.667321 -96.477151 
L 69.848243 -92.490268 
L 72.029166 -90.066437 
L 74.210089 -88.554961 
L 76.391012 -86.074804 
L 78.571935 -81.73983 
L 80.752858 -75.476742 
L 82.933781 -66.849635 
L 85.114703 -56.894436 
L 87.295626 -48.188391 
L 89.476549 -44.758042 
L 91.657472 -46.736978 
L 93.838395 -52.75105 
L 96.019318 -58.344534 
L 98.200241 -61.178634 
L 100.381163 -59.834746 
L 102.562086 -58.989811 
L 104.743009 -60.394032 
L 106.923932 -59.829439 
L 109.104855 -60.822735 
L 111.285778 -61.914665 
L 113.466701 -62.582555 
L 115.647624 -61.958245 
L 117.828546 -60.297341 
L 120.009469 -56.476205 
L 122.190392 -52.167766 
L 124.371315 -49.057538 
L 126.552238 -46.351321 
L 128.733161 -43.63907 
L 130.914084 -44.517294 
L 133.095006 -47.947948 
L 135.275929 -48.670323 
L 137.456852 -46.741007 
L 139.637775 -47.131499 
L 141.818698 -49.793152 
L 143.999621 -53.998782 
L 146.180544 -59.660278 
L 148.361467 -64.592466 
L 150.542389 -68.917106 
L 152.723312 -74.930622 
L 154.904235 -79.829502 
L 157.085158 -81.71455 
L 159.266081 -83.929674 
L 161.447004 -85.325036 
L 163.627927 -82.865191 
L 165.808849 -80.912017 
L 167.989772 -81.684134 
L 170.170695 -82.292241 
L 172.351618 -84.111909 
L 174.532541 -89.463527 
L 176.713464 -92.628792 
L 178.894387 -94.194341 
L 181.075309 -96.752546 
L 183.256232 -101.123515 
L 185.437155 -103.240478 
L 187.618078 -100.860057 
L 189.799001 -98.170785 
L 191.979924 -95.993465 
L 194.160847 -94.252487 
L 196.34177 -92.694156 
L 198.522692 -90.123279 
L 200.703615 -87.028726 
L 202.884538 -85.677417 
L 205.065461 -84.549063 
L 207.246384 -83.262902 
L 209.427307 -82.143027 
L 211.60823 -78.754048 
L 213.789152 -78.452481 
L 215.970075 -82.164585 
L 218.150998 -83.455201 
L 220.331921 -83.081553 
L 222.512844 -82.708386 
L 224.693767 -80.387112 
L 226.87469 -78.136615 
L 229.055613 -78.232784 
L 231.236535 -79.512892 
L 233.417458 -82.247495 
L 235.598381 -84.535237 
L 237.779304 -85.575453 
L 237.779304 -100.911254 
L 237.779304 -100.911254 
L 235.598381 -99.814976 
L 233.417458 -96.727772 
L 231.236535 -94.078635 
L 229.055613 -92.624513 
L 226.87469 -92.200866 
L 224.693767 -94.271518 
L 222.512844 -98.220661 
L 220.331921 -99.294799 
L 218.150998 -98.138316 
L 215.970075 -96.443789 
L 213.789152 -93.703727 
L 211.60823 -94.428418 
L 209.427307 -97.790489 
L 207.246384 -99.510726 
L 205.065461 -101.243402 
L 202.884538 -100.70382 
L 200.703615 -101.110084 
L 198.522692 -104.486867 
L 196.34177 -107.059093 
L 194.160847 -108.019963 
L 191.979924 -110.591695 
L 189.799001 -113.948497 
L 187.618078 -116.945699 
L 185.437155 -118.606391 
L 183.256232 -115.413092 
L 181.075309 -110.33906 
L 178.894387 -107.403047 
L 176.713464 -106.894898 
L 174.532541 -104.73942 
L 172.351618 -99.380361 
L 170.170695 -96.16302 
L 167.989772 -94.346263 
L 165.808849 -94.661111 
L 163.627927 -97.71713 
L 161.447004 -99.730163 
L 159.266081 -98.464511 
L 157.085158 -96.857371 
L 154.904235 -95.435715 
L 152.723312 -91.284203 
L 150.542389 -87.402348 
L 148.361467 -83.270778 
L 146.180544 -77.691805 
L 143.999621 -72.286652 
L 141.818698 -67.647268 
L 139.637775 -65.357138 
L 137.456852 -65.819011 
L 135.275929 -69.22378 
L 133.095006 -69.010574 
L 130.914084 -65.782338 
L 128.733161 -64.534249 
L 126.552238 -66.779274 
L 124.371315 -69.05933 
L 122.190392 -71.460123 
L 120.009469 -74.519348 
L 117.828546 -78.068021 
L 115.647624 -79.556103 
L 113.466701 -80.308991 
L 111.285778 -79.171126 
L 109.104855 -77.222966 
L 106.923932 -76.230376 
L 104.743009 -77.395957 
L 102.562086 -76.443954 
L 100.381163 -76.649761 
L 98.200241 -78.04808 
L 96.019318 -76.95552 
L 93.838395 -73.102219 
L 91.657472 -67.657767 
L 89.476549 -65.852073 
L 87.295626 -68.670387 
L 85.114703 -75.882579 
L 82.933781 -84.419655 
L 80.752858 -92.781771 
L 78.571935 -97.69989 
L 76.391012 -99.974852 
L 74.210089 -101.89088 
L 72.029166 -103.810543 
L 69.848243 -106.141482 
L 67.667321 -111.089569 
L 65.486398 -112.277882 
L 63.305475 -110.729306 
L 61.124552 -107.261086 
L 58.943629 -104.208668 
L 56.762706 -104.095345 
L 54.581783 -105.049592 
L 52.40086 -104.475589 
L 50.219938 -101.538733 
L 48.039015 -97.708991 
L 45.858092 -98.097746 
z
" style="stroke: #1f77b4; stroke-opacity: 0.15"/>
    </defs>
    <g clip-path="url(#pb0b9fac208)">
     <use xlink:href="#m1e9f225370" x="0" y="215.397188" style="fill: #1f77b4; fill-opacity: 0.15; stroke: #1f77b4; stroke-opacity: 0.15"/>
    </g>
   </g>
   <g id="FillBetweenPolyCollection_2">
    <defs>
     <path id="m73b4ee6dbe" d="M 45.858092 -115.141959 
L 45.858092 -81.869555 
L 48.039015 -85.222382 
L 50.219938 -90.7398 
L 52.40086 -89.668154 
L 54.581783 -89.426841 
L 56.762706 -90.201054 
L 58.943629 -86.805666 
L 61.124552 -85.108039 
L 63.305475 -83.759494 
L 65.486398 -82.539464 
L 67.667321 -83.892823 
L 69.848243 -82.571957 
L 72.029166 -78.890672 
L 74.210089 -76.122095 
L 76.391012 -79.060334 
L 78.571935 -71.553718 
L 80.752858 -55.176421 
L 82.933781 -48.296471 
L 85.114703 -52.755002 
L 87.295626 -57.839007 
L 89.476549 -64.346124 
L 91.657472 -73.067207 
L 93.838395 -77.9811 
L 96.019318 -79.871338 
L 98.200241 -79.51758 
L 100.381163 -82.53095 
L 102.562086 -84.166447 
L 104.743009 -80.347358 
L 106.923932 -83.800362 
L 109.104855 -85.88992 
L 111.285778 -84.082344 
L 113.466701 -79.048017 
L 115.647624 -76.281672 
L 117.828546 -72.213053 
L 120.009469 -72.058729 
L 122.190392 -73.889121 
L 124.371315 -72.180028 
L 126.552238 -69.337832 
L 128.733161 -69.759617 
L 130.914084 -68.278494 
L 133.095006 -59.653447 
L 135.275929 -54.797218 
L 137.456852 -54.15423 
L 139.637775 -51.848188 
L 141.818698 -56.317785 
L 143.999621 -68.514197 
L 146.180544 -73.199675 
L 148.361467 -69.514811 
L 150.542389 -63.52679 
L 152.723312 -67.164949 
L 154.904235 -81.671764 
L 157.085158 -95.342806 
L 159.266081 -96.485907 
L 161.447004 -88.999959 
L 163.627927 -83.485211 
L 165.808849 -82.394857 
L 167.989772 -83.605354 
L 170.170695 -81.520076 
L 172.351618 -80.916939 
L 174.532541 -80.737379 
L 176.713464 -81.79344 
L 178.894387 -83.537164 
L 181.075309 -81.846742 
L 183.256232 -77.308036 
L 185.437155 -78.067808 
L 187.618078 -82.73849 
L 189.799001 -84.037728 
L 191.979924 -79.803724 
L 194.160847 -76.492801 
L 196.34177 -80.288709 
L 198.522692 -83.570716 
L 200.703615 -81.722441 
L 202.884538 -78.691354 
L 205.065461 -75.789391 
L 207.246384 -74.188361 
L 209.427307 -80.973721 
L 211.60823 -85.405946 
L 213.789152 -77.654825 
L 215.970075 -70.637534 
L 218.150998 -76.087425 
L 220.331921 -79.0236 
L 222.512844 -72.636722 
L 224.693767 -67.893635 
L 226.87469 -67.832397 
L 229.055613 -74.67338 
L 231.236535 -80.082112 
L 233.417458 -81.335126 
L 235.598381 -83.272382 
L 237.779304 -83.93732 
L 237.779304 -114.904279 
L 237.779304 -114.904279 
L 235.598381 -113.561889 
L 233.417458 -108.674426 
L 231.236535 -109.364113 
L 229.055613 -102.701 
L 226.87469 -98.341398 
L 224.693767 -99.389692 
L 222.512844 -104.110888 
L 220.331921 -106.993345 
L 218.150998 -105.601143 
L 215.970075 -101.244223 
L 213.789152 -106.238083 
L 211.60823 -113.427954 
L 209.427307 -115.297252 
L 207.246384 -105.947788 
L 205.065461 -105.770537 
L 202.884538 -111.209871 
L 200.703615 -111.777167 
L 198.522692 -112.200613 
L 196.34177 -109.95756 
L 194.160847 -110.986493 
L 191.979924 -114.892577 
L 189.799001 -119.410197 
L 187.618078 -124.003423 
L 185.437155 -118.756 
L 183.256232 -115.016191 
L 181.075309 -116.380304 
L 178.894387 -112.843937 
L 176.713464 -111.366321 
L 174.532541 -105.932615 
L 172.351618 -107.346558 
L 170.170695 -108.837069 
L 167.989772 -111.143767 
L 165.808849 -109.763029 
L 163.627927 -106.450428 
L 161.447004 -112.624895 
L 159.266081 -121.733504 
L 157.085158 -122.374455 
L 154.904235 -112.726958 
L 152.723312 -100.885498 
L 150.542389 -96.924836 
L 148.361467 -104.391528 
L 146.180544 -109.416451 
L 143.999621 -105.664588 
L 141.818698 -94.548442 
L 139.637775 -89.324451 
L 137.456852 -90.028442 
L 135.275929 -93.557993 
L 133.095006 -102.893314 
L 130.914084 -110.89439 
L 128.733161 -112.362547 
L 126.552238 -110.510573 
L 124.371315 -113.537936 
L 122.190392 -118.620837 
L 120.009469 -118.0207 
L 117.828546 -115.928792 
L 115.647624 -115.407015 
L 113.466701 -113.780905 
L 111.285778 -118.973982 
L 109.104855 -118.058949 
L 106.923932 -116.458957 
L 104.743009 -112.038519 
L 102.562086 -114.371182 
L 100.381163 -114.256944 
L 98.200241 -120.378165 
L 96.019318 -127.230983 
L 93.838395 -130.134527 
L 91.657472 -127.140124 
L 89.476549 -118.28827 
L 87.295626 -108.770832 
L 85.114703 -96.832329 
L 82.933781 -88.117194 
L 80.752858 -90.721914 
L 78.571935 -103.848238 
L 76.391012 -110.666028 
L 74.210089 -109.562596 
L 72.029166 -106.465168 
L 69.848243 -112.013735 
L 67.667321 -113.958322 
L 65.486398 -113.973029 
L 63.305475 -114.785418 
L 61.124552 -115.418587 
L 58.943629 -116.339981 
L 56.762706 -118.833523 
L 54.581783 -117.917202 
L 52.40086 -115.091338 
L 50.219938 -117.557431 
L 48.039015 -115.820697 
L 45.858092 -115.141959 
z
" style="stroke: #ff7f0e; stroke-opacity: 0.15"/>
    </defs>
    <g clip-path="url(#pb0b9fac208)">
     <use xlink:href="#m73b4ee6dbe" x="0" y="215.397188" style="fill: #ff7f0e; fill-opacity: 0.15; stroke: #ff7f0e; stroke-opacity: 0.15"/>
    </g>
   </g>
   <g id="line2d_1">
    <path d="M 36.262031 114.519793 
L 247.375365 114.519793 
" clip-path="url(#pb0b9fac208)" style="fill: none; stroke-dasharray: 2.96,1.28; stroke-dashoffset: 0; stroke: #000000; stroke-width: 0.8"/>
   </g>
   <g id="matplotlib.axis_1">
    <g id="xtick_1">
     <g id="line2d_2">
      <defs>
       <path id="m1b0e112561" d="M 0 0 
L 0 3.5 
" style="stroke: #000000; stroke-width: 0.8"/>
      </defs>
      <g>
       <use xlink:href="#m1b0e112561" x="41.496246" y="182.68" style="stroke: #000000; stroke-width: 0.8"/>
      </g>
     </g>
     <g id="text_1">
      <!-- 0 -->
      <g transform="translate(39.269371 194.998906) scale(0.07 -0.07)">
       <defs>
        <path id="DejaVuSans-30" d="M 2034 4250 
Q 1547 4250 1301 3770 
Q 1056 3291 1056 2328 
Q 1056 1369 1301 889 
Q 1547 409 2034 409 
Q 2525 409 2770 889 
Q 3016 1369 3016 2328 
Q 3016 3291 2770 3770 
Q 2525 4250 2034 4250 
z
M 2034 4750 
Q 2819 4750 3233 4129 
Q 3647 3509 3647 2328 
Q 3647 1150 3233 529 
Q 2819 -91 2034 -91 
Q 1250 -91 836 529 
Q 422 1150 422 2328 
Q 422 3509 836 4129 
Q 1250 4750 2034 4750 
z
" transform="scale(0.015625)"/>
       </defs>
       <use xlink:href="#DejaVuSans-30"/>
      </g>
     </g>
    </g>
    <g id="xtick_2">
     <g id="line2d_3">
      <g>
       <use xlink:href="#m1b0e112561" x="85.114703" y="182.68" style="stroke: #000000; stroke-width: 0.8"/>
      </g>
     </g>
     <g id="text_2">
      <!-- 10 -->
      <g transform="translate(80.660953 194.998906) scale(0.07 -0.07)">
       <defs>
        <path id="DejaVuSans-31" d="M 794 531 
L 1825 531 
L 1825 4091 
L 703 3866 
L 703 4441 
L 1819 4666 
L 2450 4666 
L 2450 531 
L 3481 531 
L 3481 0 
L 794 0 
L 794 531 
z
" transform="scale(0.015625)"/>
       </defs>
       <use xlink:href="#DejaVuSans-31"/>
       <use xlink:href="#DejaVuSans-30" transform="translate(63.623047 0)"/>
      </g>
     </g>
    </g>
    <g id="xtick_3">
     <g id="line2d_4">
      <g>
       <use xlink:href="#m1b0e112561" x="128.733161" y="182.68" style="stroke: #000000; stroke-width: 0.8"/>
      </g>
     </g>
     <g id="text_3">
      <!-- 20 -->
      <g transform="translate(124.279411 194.998906) scale(0.07 -0.07)">
       <defs>
        <path id="DejaVuSans-32" d="M 1228 531 
L 3431 531 
L 3431 0 
L 469 0 
L 469 531 
Q 828 903 1448 1529 
Q 2069 2156 2228 2338 
Q 2531 2678 2651 2914 
Q 2772 3150 2772 3378 
Q 2772 3750 2511 3984 
Q 2250 4219 1831 4219 
Q 1534 4219 1204 4116 
Q 875 4013 500 3803 
L 500 4441 
Q 881 4594 1212 4672 
Q 1544 4750 1819 4750 
Q 2544 4750 2975 4387 
Q 3406 4025 3406 3419 
Q 3406 3131 3298 2873 
Q 3191 2616 2906 2266 
Q 2828 2175 2409 1742 
Q 1991 1309 1228 531 
z
" transform="scale(0.015625)"/>
       </defs>
       <use xlink:href="#DejaVuSans-32"/>
       <use xlink:href="#DejaVuSans-30" transform="translate(63.623047 0)"/>
      </g>
     </g>
    </g>
    <g id="xtick_4">
     <g id="line2d_5">
      <g>
       <use xlink:href="#m1b0e112561" x="172.351618" y="182.68" style="stroke: #000000; stroke-width: 0.8"/>
      </g>
     </g>
     <g id="text_4">
      <!-- 30 -->
      <g transform="translate(167.897868 194.998906) scale(0.07 -0.07)">
       <defs>
        <path id="DejaVuSans-33" d="M 2597 2516 
Q 3050 2419 3304 2112 
Q 3559 1806 3559 1356 
Q 3559 666 3084 287 
Q 2609 -91 1734 -91 
Q 1441 -91 1130 -33 
Q 819 25 488 141 
L 488 750 
Q 750 597 1062 519 
Q 1375 441 1716 441 
Q 2309 441 2620 675 
Q 2931 909 2931 1356 
Q 2931 1769 2642 2001 
Q 2353 2234 1838 2234 
L 1294 2234 
L 1294 2753 
L 1863 2753 
Q 2328 2753 2575 2939 
Q 2822 3125 2822 3475 
Q 2822 3834 2567 4026 
Q 2313 4219 1838 4219 
Q 1578 4219 1281 4162 
Q 984 4106 628 3988 
L 628 4550 
Q 988 4650 1302 4700 
Q 1616 4750 1894 4750 
Q 2613 4750 3031 4423 
Q 3450 4097 3450 3541 
Q 3450 3153 3228 2886 
Q 3006 2619 2597 2516 
z
" transform="scale(0.015625)"/>
       </defs>
       <use xlink:href="#DejaVuSans-33"/>
       <use xlink:href="#DejaVuSans-30" transform="translate(63.623047 0)"/>
      </g>
     </g>
    </g>
    <g id="xtick_5">
     <g id="line2d_6">
      <g>
       <use xlink:href="#m1b0e112561" x="215.970075" y="182.68" style="stroke: #000000; stroke-width: 0.8"/>
      </g>
     </g>
     <g id="text_5">
      <!-- 40 -->
      <g transform="translate(211.516325 194.998906) scale(0.07 -0.07)">
       <defs>
        <path id="DejaVuSans-34" d="M 2419 4116 
L 825 1625 
L 2419 1625 
L 2419 4116 
z
M 2253 4666 
L 3047 4666 
L 3047 1625 
L 3713 1625 
L 3713 1100 
L 3047 1100 
L 3047 0 
L 2419 0 
L 2419 1100 
L 313 1100 
L 313 1709 
L 2253 4666 
z
" transform="scale(0.015625)"/>
       </defs>
       <use xlink:href="#DejaVuSans-34"/>
       <use xlink:href="#DejaVuSans-30" transform="translate(63.623047 0)"/>
      </g>
     </g>
    </g>
    <g id="text_6">
     <!-- Frequency (Hz) -->
     <g transform="translate(111.654948 206.533437) scale(0.08 -0.08)">
      <defs>
       <path id="DejaVuSans-46" d="M 628 4666 
L 3309 4666 
L 3309 4134 
L 1259 4134 
L 1259 2759 
L 3109 2759 
L 3109 2228 
L 1259 2228 
L 1259 0 
L 628 0 
L 628 4666 
z
" transform="scale(0.015625)"/>
       <path id="DejaVuSans-72" d="M 2631 2963 
Q 2534 3019 2420 3045 
Q 2306 3072 2169 3072 
Q 1681 3072 1420 2755 
Q 1159 2438 1159 1844 
L 1159 0 
L 581 0 
L 581 3500 
L 1159 3500 
L 1159 2956 
Q 1341 3275 1631 3429 
Q 1922 3584 2338 3584 
Q 2397 3584 2469 3576 
Q 2541 3569 2628 3553 
L 2631 2963 
z
" transform="scale(0.015625)"/>
       <path id="DejaVuSans-65" d="M 3597 1894 
L 3597 1613 
L 953 1613 
Q 991 1019 1311 708 
Q 1631 397 2203 397 
Q 2534 397 2845 478 
Q 3156 559 3463 722 
L 3463 178 
Q 3153 47 2828 -22 
Q 2503 -91 2169 -91 
Q 1331 -91 842 396 
Q 353 884 353 1716 
Q 353 2575 817 3079 
Q 1281 3584 2069 3584 
Q 2775 3584 3186 3129 
Q 3597 2675 3597 1894 
z
M 3022 2063 
Q 3016 2534 2758 2815 
Q 2500 3097 2075 3097 
Q 1594 3097 1305 2825 
Q 1016 2553 972 2059 
L 3022 2063 
z
" transform="scale(0.015625)"/>
       <path id="DejaVuSans-71" d="M 947 1747 
Q 947 1113 1208 752 
Q 1469 391 1925 391 
Q 2381 391 2643 752 
Q 2906 1113 2906 1747 
Q 2906 2381 2643 2742 
Q 2381 3103 1925 3103 
Q 1469 3103 1208 2742 
Q 947 2381 947 1747 
z
M 2906 525 
Q 2725 213 2448 61 
Q 2172 -91 1784 -91 
Q 1150 -91 751 415 
Q 353 922 353 1747 
Q 353 2572 751 3078 
Q 1150 3584 1784 3584 
Q 2172 3584 2448 3432 
Q 2725 3281 2906 2969 
L 2906 3500 
L 3481 3500 
L 3481 -1331 
L 2906 -1331 
L 2906 525 
z
" transform="scale(0.015625)"/>
       <path id="DejaVuSans-75" d="M 544 1381 
L 544 3500 
L 1119 3500 
L 1119 1403 
Q 1119 906 1312 657 
Q 1506 409 1894 409 
Q 2359 409 2629 706 
Q 2900 1003 2900 1516 
L 2900 3500 
L 3475 3500 
L 3475 0 
L 2900 0 
L 2900 538 
Q 2691 219 2414 64 
Q 2138 -91 1772 -91 
Q 1169 -91 856 284 
Q 544 659 544 1381 
z
M 1991 3584 
L 1991 3584 
z
" transform="scale(0.015625)"/>
       <path id="DejaVuSans-6e" d="M 3513 2113 
L 3513 0 
L 2938 0 
L 2938 2094 
Q 2938 2591 2744 2837 
Q 2550 3084 2163 3084 
Q 1697 3084 1428 2787 
Q 1159 2491 1159 1978 
L 1159 0 
L 581 0 
L 581 3500 
L 1159 3500 
L 1159 2956 
Q 1366 3272 1645 3428 
Q 1925 3584 2291 3584 
Q 2894 3584 3203 3211 
Q 3513 2838 3513 2113 
z
" transform="scale(0.015625)"/>
       <path id="DejaVuSans-63" d="M 3122 3366 
L 3122 2828 
Q 2878 2963 2633 3030 
Q 2388 3097 2138 3097 
Q 1578 3097 1268 2742 
Q 959 2388 959 1747 
Q 959 1106 1268 751 
Q 1578 397 2138 397 
Q 2388 397 2633 464 
Q 2878 531 3122 666 
L 3122 134 
Q 2881 22 2623 -34 
Q 2366 -91 2075 -91 
Q 1284 -91 818 406 
Q 353 903 353 1747 
Q 353 2603 823 3093 
Q 1294 3584 2113 3584 
Q 2378 3584 2631 3529 
Q 2884 3475 3122 3366 
z
" transform="scale(0.015625)"/>
       <path id="DejaVuSans-79" d="M 2059 -325 
Q 1816 -950 1584 -1140 
Q 1353 -1331 966 -1331 
L 506 -1331 
L 506 -850 
L 844 -850 
Q 1081 -850 1212 -737 
Q 1344 -625 1503 -206 
L 1606 56 
L 191 3500 
L 800 3500 
L 1894 763 
L 2988 3500 
L 3597 3500 
L 2059 -325 
z
" transform="scale(0.015625)"/>
       <path id="DejaVuSans-20" transform="scale(0.015625)"/>
       <path id="DejaVuSans-28" d="M 1984 4856 
Q 1566 4138 1362 3434 
Q 1159 2731 1159 2009 
Q 1159 1288 1364 580 
Q 1569 -128 1984 -844 
L 1484 -844 
Q 1016 -109 783 600 
Q 550 1309 550 2009 
Q 550 2706 781 3412 
Q 1013 4119 1484 4856 
L 1984 4856 
z
" transform="scale(0.015625)"/>
       <path id="DejaVuSans-48" d="M 628 4666 
L 1259 4666 
L 1259 2753 
L 3553 2753 
L 3553 4666 
L 4184 4666 
L 4184 0 
L 3553 0 
L 3553 2222 
L 1259 2222 
L 1259 0 
L 628 0 
L 628 4666 
z
" transform="scale(0.015625)"/>
       <path id="DejaVuSans-7a" d="M 353 3500 
L 3084 3500 
L 3084 2975 
L 922 459 
L 3084 459 
L 3084 0 
L 275 0 
L 275 525 
L 2438 3041 
L 353 3041 
L 353 3500 
z
" transform="scale(0.015625)"/>
       <path id="DejaVuSans-29" d="M 513 4856 
L 1013 4856 
Q 1481 4119 1714 3412 
Q 1947 2706 1947 2009 
Q 1947 1309 1714 600 
Q 1481 -109 1013 -844 
L 513 -844 
Q 928 -128 1133 580 
Q 1338 1288 1338 2009 
Q 1338 2731 1133 3434 
Q 928 4138 513 4856 
z
" transform="scale(0.015625)"/>
      </defs>
      <use xlink:href="#DejaVuSans-46"/>
      <use xlink:href="#DejaVuSans-72" transform="translate(50.269531 0)"/>
      <use xlink:href="#DejaVuSans-65" transform="translate(89.132812 0)"/>
      <use xlink:href="#DejaVuSans-71" transform="translate(150.65625 0)"/>
      <use xlink:href="#DejaVuSans-75" transform="translate(214.132812 0)"/>
      <use xlink:href="#DejaVuSans-65" transform="translate(277.511719 0)"/>
      <use xlink:href="#DejaVuSans-6e" transform="translate(339.035156 0)"/>
      <use xlink:href="#DejaVuSans-63" transform="translate(402.414062 0)"/>
      <use xlink:href="#DejaVuSans-79" transform="translate(457.394531 0)"/>
      <use xlink:href="#DejaVuSans-20" transform="translate(516.574219 0)"/>
      <use xlink:href="#DejaVuSans-28" transform="translate(548.361328 0)"/>
      <use xlink:href="#DejaVuSans-48" transform="translate(587.375 0)"/>
      <use xlink:href="#DejaVuSans-7a" transform="translate(662.570312 0)"/>
      <use xlink:href="#DejaVuSans-29" transform="translate(715.060547 0)"/>
     </g>
    </g>
   </g>
   <g id="matplotlib.axis_2">
    <g id="ytick_1">
     <g id="line2d_7">
      <defs>
       <path id="mea4f3ad8e3" d="M 0 0 
L -3.5 0 
" style="stroke: #000000; stroke-width: 0.8"/>
      </defs>
      <g>
       <use xlink:href="#mea4f3ad8e3" x="36.262031" y="179.135361" style="stroke: #000000; stroke-width: 0.8"/>
      </g>
     </g>
     <g id="text_7">
      <!-- −4 -->
      <g transform="translate(18.9425 181.794814) scale(0.07 -0.07)">
       <defs>
        <path id="DejaVuSans-2212" d="M 678 2272 
L 4684 2272 
L 4684 1741 
L 678 1741 
L 678 2272 
z
" transform="scale(0.015625)"/>
       </defs>
       <use xlink:href="#DejaVuSans-2212"/>
       <use xlink:href="#DejaVuSans-34" transform="translate(83.789062 0)"/>
      </g>
     </g>
    </g>
    <g id="ytick_2">
     <g id="line2d_8">
      <g>
       <use xlink:href="#mea4f3ad8e3" x="36.262031" y="162.981469" style="stroke: #000000; stroke-width: 0.8"/>
      </g>
     </g>
     <g id="text_8">
      <!-- −3 -->
      <g transform="translate(18.9425 165.640922) scale(0.07 -0.07)">
       <use xlink:href="#DejaVuSans-2212"/>
       <use xlink:href="#DejaVuSans-33" transform="translate(83.789062 0)"/>
      </g>
     </g>
    </g>
    <g id="ytick_3">
     <g id="line2d_9">
      <g>
       <use xlink:href="#mea4f3ad8e3" x="36.262031" y="146.827577" style="stroke: #000000; stroke-width: 0.8"/>
      </g>
     </g>
     <g id="text_9">
      <!-- −2 -->
      <g transform="translate(18.9425 149.48703) scale(0.07 -0.07)">
       <use xlink:href="#DejaVuSans-2212"/>
       <use xlink:href="#DejaVuSans-32" transform="translate(83.789062 0)"/>
      </g>
     </g>
    </g>
    <g id="ytick_4">
     <g id="line2d_10">
      <g>
       <use xlink:href="#mea4f3ad8e3" x="36.262031" y="130.673685" style="stroke: #000000; stroke-width: 0.8"/>
      </g>
     </g>
     <g id="text_10">
      <!-- −1 -->
      <g transform="translate(18.9425 133.333138) scale(0.07 -0.07)">
       <use xlink:href="#DejaVuSans-2212"/>
       <use xlink:href="#DejaVuSans-31" transform="translate(83.789062 0)"/>
      </g>
     </g>
    </g>
    <g id="ytick_5">
     <g id="line2d_11">
      <g>
       <use xlink:href="#mea4f3ad8e3" x="36.262031" y="114.519793" style="stroke: #000000; stroke-width: 0.8"/>
      </g>
     </g>
     <g id="text_11">
      <!-- 0 -->
      <g transform="translate(24.808281 117.179246) scale(0.07 -0.07)">
       <use xlink:href="#DejaVuSans-30"/>
      </g>
     </g>
    </g>
    <g id="ytick_6">
     <g id="line2d_12">
      <g>
       <use xlink:href="#mea4f3ad8e3" x="36.262031" y="98.365901" style="stroke: #000000; stroke-width: 0.8"/>
      </g>
     </g>
     <g id="text_12">
      <!-- 1 -->
      <g transform="translate(24.808281 101.025354) scale(0.07 -0.07)">
       <use xlink:href="#DejaVuSans-31"/>
      </g>
     </g>
    </g>
    <g id="ytick_7">
     <g id="line2d_13">
      <g>
       <use xlink:href="#mea4f3ad8e3" x="36.262031" y="82.212009" style="stroke: #000000; stroke-width: 0.8"/>
      </g>
     </g>
     <g id="text_13">
      <!-- 2 -->
      <g transform="translate(24.808281 84.871462) scale(0.07 -0.07)">
       <use xlink:href="#DejaVuSans-32"/>
      </g>
     </g>
    </g>
    <g id="ytick_8">
     <g id="line2d_14">
      <g>
       <use xlink:href="#mea4f3ad8e3" x="36.262031" y="66.058117" style="stroke: #000000; stroke-width: 0.8"/>
      </g>
     </g>
     <g id="text_14">
      <!-- 3 -->
      <g transform="translate(24.808281 68.71757) scale(0.07 -0.07)">
       <use xlink:href="#DejaVuSans-33"/>
      </g>
     </g>
    </g>
    <g id="text_15">
     <!-- ERD/ERS (dB) -->
     <g transform="translate(13.27875 148.236875) rotate(-90) scale(0.08 -0.08)">
      <defs>
       <path id="DejaVuSans-45" d="M 628 4666 
L 3578 4666 
L 3578 4134 
L 1259 4134 
L 1259 2753 
L 3481 2753 
L 3481 2222 
L 1259 2222 
L 1259 531 
L 3634 531 
L 3634 0 
L 628 0 
L 628 4666 
z
" transform="scale(0.015625)"/>
       <path id="DejaVuSans-52" d="M 2841 2188 
Q 3044 2119 3236 1894 
Q 3428 1669 3622 1275 
L 4263 0 
L 3584 0 
L 2988 1197 
Q 2756 1666 2539 1819 
Q 2322 1972 1947 1972 
L 1259 1972 
L 1259 0 
L 628 0 
L 628 4666 
L 2053 4666 
Q 2853 4666 3247 4331 
Q 3641 3997 3641 3322 
Q 3641 2881 3436 2590 
Q 3231 2300 2841 2188 
z
M 1259 4147 
L 1259 2491 
L 2053 2491 
Q 2509 2491 2742 2702 
Q 2975 2913 2975 3322 
Q 2975 3731 2742 3939 
Q 2509 4147 2053 4147 
L 1259 4147 
z
" transform="scale(0.015625)"/>
       <path id="DejaVuSans-44" d="M 1259 4147 
L 1259 519 
L 2022 519 
Q 2988 519 3436 956 
Q 3884 1394 3884 2338 
Q 3884 3275 3436 3711 
Q 2988 4147 2022 4147 
L 1259 4147 
z
M 628 4666 
L 1925 4666 
Q 3281 4666 3915 4102 
Q 4550 3538 4550 2338 
Q 4550 1131 3912 565 
Q 3275 0 1925 0 
L 628 0 
L 628 4666 
z
" transform="scale(0.015625)"/>
       <path id="DejaVuSans-2f" d="M 1625 4666 
L 2156 4666 
L 531 -594 
L 0 -594 
L 1625 4666 
z
" transform="scale(0.015625)"/>
       <path id="DejaVuSans-53" d="M 3425 4513 
L 3425 3897 
Q 3066 4069 2747 4153 
Q 2428 4238 2131 4238 
Q 1616 4238 1336 4038 
Q 1056 3838 1056 3469 
Q 1056 3159 1242 3001 
Q 1428 2844 1947 2747 
L 2328 2669 
Q 3034 2534 3370 2195 
Q 3706 1856 3706 1288 
Q 3706 609 3251 259 
Q 2797 -91 1919 -91 
Q 1588 -91 1214 -16 
Q 841 59 441 206 
L 441 856 
Q 825 641 1194 531 
Q 1563 422 1919 422 
Q 2459 422 2753 634 
Q 3047 847 3047 1241 
Q 3047 1584 2836 1778 
Q 2625 1972 2144 2069 
L 1759 2144 
Q 1053 2284 737 2584 
Q 422 2884 422 3419 
Q 422 4038 858 4394 
Q 1294 4750 2059 4750 
Q 2388 4750 2728 4690 
Q 3069 4631 3425 4513 
z
" transform="scale(0.015625)"/>
       <path id="DejaVuSans-64" d="M 2906 2969 
L 2906 4863 
L 3481 4863 
L 3481 0 
L 2906 0 
L 2906 525 
Q 2725 213 2448 61 
Q 2172 -91 1784 -91 
Q 1150 -91 751 415 
Q 353 922 353 1747 
Q 353 2572 751 3078 
Q 1150 3584 1784 3584 
Q 2172 3584 2448 3432 
Q 2725 3281 2906 2969 
z
M 947 1747 
Q 947 1113 1208 752 
Q 1469 391 1925 391 
Q 2381 391 2643 752 
Q 2906 1113 2906 1747 
Q 2906 2381 2643 2742 
Q 2381 3103 1925 3103 
Q 1469 3103 1208 2742 
Q 947 2381 947 1747 
z
" transform="scale(0.015625)"/>
       <path id="DejaVuSans-42" d="M 1259 2228 
L 1259 519 
L 2272 519 
Q 2781 519 3026 730 
Q 3272 941 3272 1375 
Q 3272 1813 3026 2020 
Q 2781 2228 2272 2228 
L 1259 2228 
z
M 1259 4147 
L 1259 2741 
L 2194 2741 
Q 2656 2741 2882 2914 
Q 3109 3088 3109 3444 
Q 3109 3797 2882 3972 
Q 2656 4147 2194 4147 
L 1259 4147 
z
M 628 4666 
L 2241 4666 
Q 2963 4666 3353 4366 
Q 3744 4066 3744 3513 
Q 3744 3084 3544 2831 
Q 3344 2578 2956 2516 
Q 3422 2416 3680 2098 
Q 3938 1781 3938 1306 
Q 3938 681 3513 340 
Q 3088 0 2303 0 
L 628 0 
L 628 4666 
z
" transform="scale(0.015625)"/>
      </defs>
      <use xlink:href="#DejaVuSans-45"/>
      <use xlink:href="#DejaVuSans-52" transform="translate(63.183594 0)"/>
      <use xlink:href="#DejaVuSans-44" transform="translate(132.666016 0)"/>
      <use xlink:href="#DejaVuSans-2f" transform="translate(209.667969 0)"/>
      <use xlink:href="#DejaVuSans-45" transform="translate(243.359375 0)"/>
      <use xlink:href="#DejaVuSans-52" transform="translate(306.542969 0)"/>
      <use xlink:href="#DejaVuSans-53" transform="translate(376.025391 0)"/>
      <use xlink:href="#DejaVuSans-20" transform="translate(439.501953 0)"/>
      <use xlink:href="#DejaVuSans-28" transform="translate(471.289062 0)"/>
      <use xlink:href="#DejaVuSans-64" transform="translate(510.302734 0)"/>
      <use xlink:href="#DejaVuSans-42" transform="translate(573.779297 0)"/>
      <use xlink:href="#DejaVuSans-29" transform="translate(642.382812 0)"/>
     </g>
    </g>
   </g>
   <g id="line2d_15">
    <path d="M 45.858092 125.104766 
L 48.039015 125.126222 
L 50.219938 121.220947 
L 52.40086 118.145427 
L 54.581783 117.480698 
L 56.762706 118.597963 
L 58.943629 118.861346 
L 61.124552 115.615336 
L 63.305475 111.926745 
L 65.486398 110.197858 
L 67.667321 111.613827 
L 69.848243 116.081312 
L 72.029166 118.458697 
L 74.210089 120.174267 
L 76.391012 122.372359 
L 78.571935 125.677327 
L 80.752858 131.267931 
L 82.933781 139.762542 
L 85.114703 149.00868 
L 87.295626 156.967799 
L 89.476549 160.09213 
L 91.657472 158.199815 
L 93.838395 152.470553 
L 96.019318 147.74716 
L 98.200241 145.783831 
L 100.381163 147.154934 
L 102.562086 147.680305 
L 104.743009 146.502193 
L 106.923932 147.36728 
L 109.104855 146.374337 
L 111.285778 144.854292 
L 113.466701 143.951414 
L 115.647624 144.640013 
L 117.828546 146.214507 
L 120.009469 149.899411 
L 122.190392 153.583243 
L 124.371315 156.338753 
L 126.552238 158.83189 
L 128.733161 161.310528 
L 130.914084 160.247372 
L 133.095006 156.917926 
L 135.275929 156.450136 
L 137.456852 159.117179 
L 139.637775 159.152869 
L 141.818698 156.676977 
L 143.999621 152.254471 
L 146.180544 146.721146 
L 148.361467 141.465565 
L 150.542389 137.237461 
L 152.723312 132.289775 
L 154.904235 127.764579 
L 157.085158 126.111227 
L 159.266081 124.200095 
L 161.447004 122.869588 
L 163.627927 125.106027 
L 165.808849 127.610623 
L 167.989772 127.381989 
L 170.170695 126.169557 
L 172.351618 123.651052 
L 174.532541 118.295714 
L 176.713464 115.635342 
L 178.894387 114.598493 
L 181.075309 111.851385 
L 183.256232 107.128884 
L 185.437155 104.473753 
L 187.618078 106.494309 
L 189.799001 109.337547 
L 191.979924 112.104607 
L 194.160847 114.260962 
L 196.34177 115.520563 
L 198.522692 118.092114 
L 200.703615 121.327783 
L 202.884538 122.206569 
L 205.065461 122.500955 
L 207.246384 124.010373 
L 209.427307 125.43043 
L 211.60823 128.805955 
L 213.789152 129.319084 
L 215.970075 126.093 
L 218.150998 124.600429 
L 220.331921 124.209012 
L 222.512844 124.932664 
L 224.693767 128.067873 
L 226.87469 130.228447 
L 229.055613 129.968539 
L 231.236535 128.601424 
L 233.417458 125.909554 
L 235.598381 123.222081 
L 237.779304 122.153834 
" clip-path="url(#pb0b9fac208)" style="fill: none; stroke: #1f77b4; stroke-width: 1.3; stroke-linecap: square"/>
   </g>
   <g id="line2d_16">
    <path d="M 45.858092 116.89143 
L 48.039015 114.875648 
L 50.219938 111.248572 
L 52.40086 113.017441 
L 54.581783 111.725166 
L 56.762706 110.879899 
L 58.943629 113.824364 
L 61.124552 115.133874 
L 63.305475 116.124732 
L 65.486398 117.140941 
L 67.667321 116.471615 
L 69.848243 118.104342 
L 72.029166 122.719268 
L 74.210089 122.554842 
L 76.391012 120.534007 
L 78.571935 127.696209 
L 80.752858 142.44802 
L 82.933781 147.190355 
L 85.114703 140.603522 
L 87.295626 132.092268 
L 89.476549 124.07999 
L 91.657472 115.293522 
L 93.838395 111.339374 
L 96.019318 111.846027 
L 98.200241 115.449315 
L 100.381163 117.00324 
L 102.562086 116.128373 
L 104.743009 119.204249 
L 106.923932 115.267528 
L 109.104855 113.422753 
L 111.285778 113.869024 
L 113.466701 118.982727 
L 115.647624 119.552844 
L 117.828546 121.326265 
L 120.009469 120.357473 
L 122.190392 119.142208 
L 124.371315 122.538206 
L 126.552238 125.472985 
L 128.733161 124.336106 
L 130.914084 125.810746 
L 133.095006 134.123807 
L 135.275929 141.219582 
L 137.456852 143.305852 
L 139.637775 144.810868 
L 141.818698 139.964074 
L 143.999621 128.307795 
L 146.180544 124.089125 
L 148.361467 128.444018 
L 150.542389 135.171374 
L 152.723312 131.371964 
L 154.904235 118.197827 
L 157.085158 106.538557 
L 159.266081 106.287482 
L 161.447004 114.58476 
L 163.627927 120.429368 
L 165.808849 119.318244 
L 167.989772 118.022627 
L 170.170695 120.218615 
L 172.351618 121.265439 
L 174.532541 122.062191 
L 176.713464 118.817307 
L 178.894387 117.206637 
L 181.075309 116.283665 
L 183.256232 119.235074 
L 185.437155 116.985284 
L 187.618078 112.026231 
L 189.799001 113.673225 
L 191.979924 118.049037 
L 194.160847 121.65754 
L 196.34177 120.274053 
L 198.522692 117.511523 
L 200.703615 118.647384 
L 202.884538 120.446575 
L 205.065461 124.617224 
L 207.246384 125.329113 
L 209.427307 117.261701 
L 211.60823 115.980238 
L 213.789152 123.450733 
L 215.970075 129.456309 
L 218.150998 124.552903 
L 220.331921 122.388715 
L 222.512844 127.023383 
L 224.693767 131.755524 
L 226.87469 132.31029 
L 229.055613 126.709997 
L 231.236535 120.674075 
L 233.417458 120.392412 
L 235.598381 116.980052 
L 237.779304 115.976388 
" clip-path="url(#pb0b9fac208)" style="fill: none; stroke: #ff7f0e; stroke-width: 1.3; stroke-linecap: square"/>
   </g>
   <g id="patch_5">
    <path d="M 36.262031 182.68 
L 36.262031 59.28 
" style="fill: none; stroke: #000000; stroke-width: 0.8; stroke-linejoin: miter; stroke-linecap: square"/>
   </g>
   <g id="patch_6">
    <path d="M 247.375365 182.68 
L 247.375365 59.28 
" style="fill: none; stroke: #000000; stroke-width: 0.8; stroke-linejoin: miter; stroke-linecap: square"/>
   </g>
   <g id="patch_7">
    <path d="M 36.262031 182.68 
L 247.375365 182.68 
" style="fill: none; stroke: #000000; stroke-width: 0.8; stroke-linejoin: miter; stroke-linecap: square"/>
   </g>
   <g id="patch_8">
    <path d="M 36.262031 59.28 
L 247.375365 59.28 
" style="fill: none; stroke: #000000; stroke-width: 0.8; stroke-linejoin: miter; stroke-linecap: square"/>
   </g>
   <g id="text_16">
    <!-- C3 -->
    <g transform="translate(135.813307 53.28) scale(0.09 -0.09)">
     <defs>
      <path id="DejaVuSans-43" d="M 4122 4306 
L 4122 3641 
Q 3803 3938 3442 4084 
Q 3081 4231 2675 4231 
Q 1875 4231 1450 3742 
Q 1025 3253 1025 2328 
Q 1025 1406 1450 917 
Q 1875 428 2675 428 
Q 3081 428 3442 575 
Q 3803 722 4122 1019 
L 4122 359 
Q 3791 134 3420 21 
Q 3050 -91 2638 -91 
Q 1578 -91 968 557 
Q 359 1206 359 2328 
Q 359 3453 968 4101 
Q 1578 4750 2638 4750 
Q 3056 4750 3426 4639 
Q 3797 4528 4122 4306 
z
" transform="scale(0.015625)"/>
     </defs>
     <use xlink:href="#DejaVuSans-43"/>
     <use xlink:href="#DejaVuSans-33" transform="translate(69.824219 0)"/>
    </g>
   </g>
  </g>
  <g id="axes_2">
   <g id="patch_9">
    <path d="M 272.875365 182.68 
L 483.988698 182.68 
L 483.988698 59.28 
L 272.875365 59.28 
L 272.875365 182.68 
z
" style="fill: none"/>
   </g>
   <g id="patch_10">
    <path d="M 313.004345 182.68 
L 334.813574 182.68 
L 334.813574 59.28 
L 313.004345 59.28 
z
" clip-path="url(#p13bfdc41c6)" style="fill: #d9d9d9; stroke: #d9d9d9; stroke-linejoin: miter"/>
   </g>
   <g id="patch_11">
    <path d="M 334.813574 182.68 
L 408.964951 182.68 
L 408.964951 59.28 
L 334.813574 59.28 
z
" clip-path="url(#p13bfdc41c6)" style="fill: #ebebeb; stroke: #ebebeb; stroke-linejoin: miter"/>
   </g>
   <g id="FillBetweenPolyCollection_3">
    <defs>
     <path id="m8d39506a78" d="M 282.471425 -117.146147 
L 282.471425 -99.518823 
L 284.652348 -95.929379 
L 286.833271 -94.180696 
L 289.014194 -95.111573 
L 291.195117 -93.459822 
L 293.37604 -91.254669 
L 295.556962 -92.548934 
L 297.737885 -94.801652 
L 299.918808 -93.739316 
L 302.099731 -88.729025 
L 304.280654 -84.013307 
L 306.461577 -83.968953 
L 308.6425 -82.324065 
L 310.823422 -80.097253 
L 313.004345 -77.067522 
L 315.185268 -72.884962 
L 317.366191 -68.570141 
L 319.547114 -62.166282 
L 321.728037 -55.425172 
L 323.90896 -51.285611 
L 326.089882 -51.342951 
L 328.270805 -55.727815 
L 330.451728 -61.095612 
L 332.632651 -69.052157 
L 334.813574 -78.341179 
L 336.994497 -86.578559 
L 339.17542 -94.145054 
L 341.356343 -98.814761 
L 343.537265 -100.548653 
L 345.718188 -98.748587 
L 347.899111 -95.209388 
L 350.080034 -93.150795 
L 352.260957 -91.739575 
L 354.44188 -88.117789 
L 356.622803 -85.923114 
L 358.803725 -85.763161 
L 360.984648 -82.39367 
L 363.165571 -77.022749 
L 365.346494 -75.40926 
L 367.527417 -78.992154 
L 369.70834 -85.759521 
L 371.889263 -87.553154 
L 374.070186 -83.012783 
L 376.251108 -79.591599 
L 378.432031 -79.503937 
L 380.612954 -82.11616 
L 382.793877 -84.152514 
L 384.9748 -83.805879 
L 387.155723 -82.235938 
L 389.336646 -83.085935 
L 391.517568 -86.625058 
L 393.698491 -87.471259 
L 395.879414 -85.480628 
L 398.060337 -82.807525 
L 400.24126 -80.462948 
L 402.422183 -81.037333 
L 404.603106 -85.221397 
L 406.784028 -90.332649 
L 408.964951 -93.721832 
L 411.145874 -95.425682 
L 413.326797 -98.078111 
L 415.50772 -99.79415 
L 417.688643 -107.80781 
L 419.869566 -118.75472 
L 422.050489 -127.584543 
L 424.231411 -132.540466 
L 426.412334 -130.330698 
L 428.593257 -124.086567 
L 430.77418 -113.837075 
L 432.955103 -102.954583 
L 435.136026 -95.961065 
L 437.316949 -95.675693 
L 439.497871 -96.450982 
L 441.678794 -93.914765 
L 443.859717 -90.827454 
L 446.04064 -88.670394 
L 448.221563 -85.482465 
L 450.402486 -86.538465 
L 452.583409 -91.575681 
L 454.764332 -91.577947 
L 456.945254 -89.508908 
L 459.126177 -88.860815 
L 461.3071 -90.756835 
L 463.488023 -91.766936 
L 465.668946 -91.124482 
L 467.849869 -91.592649 
L 470.030792 -94.586405 
L 472.211714 -96.620836 
L 474.392637 -95.060476 
L 474.392637 -110.199207 
L 474.392637 -110.199207 
L 472.211714 -111.880417 
L 470.030792 -108.418434 
L 467.849869 -104.922539 
L 465.668946 -105.238991 
L 463.488023 -105.900111 
L 461.3071 -104.576819 
L 459.126177 -102.359302 
L 456.945254 -103.670322 
L 454.764332 -106.082534 
L 452.583409 -106.03921 
L 450.402486 -101.602196 
L 448.221563 -100.608299 
L 446.04064 -103.426963 
L 443.859717 -103.85939 
L 441.678794 -107.214309 
L 439.497871 -111.036689 
L 437.316949 -110.755443 
L 435.136026 -110.681142 
L 432.955103 -118.284576 
L 430.77418 -129.925647 
L 428.593257 -140.922065 
L 426.412334 -147.278726 
L 424.231411 -150.508097 
L 422.050489 -145.710181 
L 419.869566 -136.719671 
L 417.688643 -124.761888 
L 415.50772 -116.729357 
L 413.326797 -115.215613 
L 411.145874 -111.906322 
L 408.964951 -109.724863 
L 406.784028 -106.617719 
L 404.603106 -100.974409 
L 402.422183 -96.992363 
L 400.24126 -96.262705 
L 398.060337 -98.673327 
L 395.879414 -101.826208 
L 393.698491 -103.407524 
L 391.517568 -101.732289 
L 389.336646 -98.997109 
L 387.155723 -98.851808 
L 384.9748 -100.209403 
L 382.793877 -99.354643 
L 380.612954 -97.177703 
L 378.432031 -95.864578 
L 376.251108 -97.609268 
L 374.070186 -102.372599 
L 371.889263 -107.222778 
L 369.70834 -104.723466 
L 367.527417 -96.830649 
L 365.346494 -93.161423 
L 363.165571 -94.574867 
L 360.984648 -98.689155 
L 358.803725 -102.644207 
L 356.622803 -101.971446 
L 354.44188 -103.734501 
L 352.260957 -107.577231 
L 350.080034 -109.509095 
L 347.899111 -110.983479 
L 345.718188 -113.306892 
L 343.537265 -114.324243 
L 341.356343 -114.086454 
L 339.17542 -110.663111 
L 336.994497 -101.879083 
L 334.813574 -93.637007 
L 332.632651 -86.488683 
L 330.451728 -80.999601 
L 328.270805 -76.699887 
L 326.089882 -72.770259 
L 323.90896 -72.655892 
L 321.728037 -75.74143 
L 319.547114 -81.657858 
L 317.366191 -87.287052 
L 315.185268 -90.072079 
L 313.004345 -93.256947 
L 310.823422 -94.910252 
L 308.6425 -96.495393 
L 306.461577 -98.068935 
L 304.280654 -99.074778 
L 302.099731 -104.53387 
L 299.918808 -109.568089 
L 297.737885 -110.386589 
L 295.556962 -107.485331 
L 293.37604 -106.018849 
L 291.195117 -108.094512 
L 289.014194 -109.679758 
L 286.833271 -109.783397 
L 284.652348 -112.50094 
L 282.471425 -117.146147 
z
" style="stroke: #1f77b4; stroke-opacity: 0.15"/>
    </defs>
    <g clip-path="url(#p13bfdc41c6)">
     <use xlink:href="#m8d39506a78" x="0" y="215.397188" style="fill: #1f77b4; fill-opacity: 0.15; stroke: #1f77b4; stroke-opacity: 0.15"/>
    </g>
   </g>
   <g id="FillBetweenPolyCollection_4">
    <defs>
     <path id="mdb8721715f" d="M 282.471425 -136.043056 
L 282.471425 -99.877605 
L 284.652348 -107.566417 
L 286.833271 -112.312216 
L 289.014194 -110.117787 
L 291.195117 -105.920351 
L 293.37604 -99.19504 
L 295.556962 -94.513463 
L 297.737885 -89.750005 
L 299.918808 -86.698158 
L 302.099731 -87.149799 
L 304.280654 -77.747127 
L 306.461577 -63.210883 
L 308.6425 -60.822776 
L 310.823422 -67.131722 
L 313.004345 -70.06114 
L 315.185268 -65.392553 
L 317.366191 -54.985494 
L 319.547114 -51.275686 
L 321.728037 -55.355783 
L 323.90896 -57.758063 
L 326.089882 -58.770876 
L 328.270805 -59.559682 
L 330.451728 -60.389695 
L 332.632651 -64.303086 
L 334.813574 -71.223135 
L 336.994497 -76.318039 
L 339.17542 -83.73969 
L 341.356343 -88.873701 
L 343.537265 -96.005566 
L 345.718188 -107.402623 
L 347.899111 -120.92269 
L 350.080034 -121.671366 
L 352.260957 -107.069025 
L 354.44188 -94.437466 
L 356.622803 -94.382075 
L 358.803725 -96.72834 
L 360.984648 -94.960464 
L 363.165571 -92.15072 
L 365.346494 -89.630486 
L 367.527417 -87.365112 
L 369.70834 -88.805968 
L 371.889263 -91.243765 
L 374.070186 -90.927016 
L 376.251108 -89.660611 
L 378.432031 -85.395197 
L 380.612954 -87.375983 
L 382.793877 -97.22377 
L 384.9748 -95.231132 
L 387.155723 -86.0983 
L 389.336646 -79.885821 
L 391.517568 -80.280831 
L 393.698491 -81.295022 
L 395.879414 -85.348975 
L 398.060337 -94.46009 
L 400.24126 -98.612465 
L 402.422183 -97.07009 
L 404.603106 -93.47521 
L 406.784028 -93.390843 
L 408.964951 -94.344204 
L 411.145874 -95.23065 
L 413.326797 -92.540582 
L 415.50772 -94.230647 
L 417.688643 -94.415793 
L 419.869566 -87.421361 
L 422.050489 -86.212353 
L 424.231411 -89.374298 
L 426.412334 -93.951785 
L 428.593257 -90.71232 
L 430.77418 -85.941469 
L 432.955103 -86.990212 
L 435.136026 -92.864015 
L 437.316949 -99.08137 
L 439.497871 -100.534718 
L 441.678794 -96.431141 
L 443.859717 -90.028134 
L 446.04064 -84.24713 
L 448.221563 -81.905181 
L 450.402486 -80.017106 
L 452.583409 -77.79935 
L 454.764332 -79.525852 
L 456.945254 -82.279853 
L 459.126177 -84.243666 
L 461.3071 -82.283275 
L 463.488023 -76.675775 
L 465.668946 -73.223495 
L 467.849869 -75.130051 
L 470.030792 -78.249968 
L 472.211714 -79.254518 
L 474.392637 -77.334619 
L 474.392637 -108.212888 
L 474.392637 -108.212888 
L 472.211714 -113.297997 
L 470.030792 -110.241508 
L 467.849869 -105.918444 
L 465.668946 -105.133928 
L 463.488023 -110.055845 
L 461.3071 -115.240307 
L 459.126177 -117.815774 
L 456.945254 -117.091817 
L 454.764332 -113.23708 
L 452.583409 -111.412636 
L 450.402486 -111.236644 
L 448.221563 -113.407723 
L 446.04064 -115.764416 
L 443.859717 -121.536354 
L 441.678794 -127.667207 
L 439.497871 -131.426069 
L 437.316949 -130.804825 
L 435.136026 -125.60687 
L 432.955103 -119.946334 
L 430.77418 -117.451702 
L 428.593257 -119.964048 
L 426.412334 -127.09212 
L 424.231411 -128.069385 
L 422.050489 -128.235308 
L 419.869566 -124.277187 
L 417.688643 -126.098172 
L 415.50772 -124.120791 
L 413.326797 -122.353541 
L 411.145874 -126.411483 
L 408.964951 -126.136092 
L 406.784028 -125.830707 
L 404.603106 -125.075005 
L 402.422183 -126.311877 
L 400.24126 -128.350644 
L 398.060337 -128.990272 
L 395.879414 -121.914968 
L 393.698491 -117.496537 
L 391.517568 -113.545724 
L 389.336646 -111.103277 
L 387.155723 -117.373258 
L 384.9748 -127.771927 
L 382.793877 -132.496795 
L 380.612954 -125.704363 
L 378.432031 -124.249171 
L 376.251108 -130.725568 
L 374.070186 -131.326329 
L 371.889263 -132.698712 
L 369.70834 -128.796844 
L 367.527417 -125.055607 
L 365.346494 -125.692334 
L 363.165571 -125.789115 
L 360.984648 -127.056477 
L 358.803725 -131.524284 
L 356.622803 -130.210064 
L 354.44188 -127.748971 
L 352.260957 -139.735391 
L 350.080034 -148.811801 
L 347.899111 -149.05839 
L 345.718188 -139.260045 
L 343.537265 -127.991705 
L 341.356343 -119.249201 
L 339.17542 -116.973974 
L 336.994497 -107.084202 
L 334.813574 -100.714082 
L 332.632651 -97.009537 
L 330.451728 -100.755118 
L 328.270805 -104.394271 
L 326.089882 -103.048316 
L 323.90896 -97.93643 
L 321.728037 -92.706415 
L 319.547114 -87.995517 
L 317.366191 -87.994761 
L 315.185268 -93.549572 
L 313.004345 -99.854458 
L 310.823422 -99.818451 
L 308.6425 -95.383527 
L 306.461577 -96.10202 
L 304.280654 -103.317939 
L 302.099731 -111.058629 
L 299.918808 -115.068103 
L 297.737885 -121.639341 
L 295.556962 -125.314428 
L 293.37604 -132.034098 
L 291.195117 -140.978208 
L 289.014194 -142.061269 
L 286.833271 -144.275071 
L 284.652348 -142.291184 
L 282.471425 -136.043056 
z
" style="stroke: #ff7f0e; stroke-opacity: 0.15"/>
    </defs>
    <g clip-path="url(#p13bfdc41c6)">
     <use xlink:href="#mdb8721715f" x="0" y="215.397188" style="fill: #ff7f0e; fill-opacity: 0.15; stroke: #ff7f0e; stroke-opacity: 0.15"/>
    </g>
   </g>
   <g id="line2d_17">
    <path d="M 272.875365 114.519793 
L 483.988698 114.519793 
" clip-path="url(#p13bfdc41c6)" style="fill: none; stroke-dasharray: 2.96,1.28; stroke-dashoffset: 0; stroke: #000000; stroke-width: 0.8"/>
   </g>
   <g id="matplotlib.axis_3">
    <g id="xtick_6">
     <g id="line2d_18">
      <g>
       <use xlink:href="#m1b0e112561" x="278.109579" y="182.68" style="stroke: #000000; stroke-width: 0.8"/>
      </g>
     </g>
     <g id="text_17">
      <!-- 0 -->
      <g transform="translate(275.882704 194.998906) scale(0.07 -0.07)">
       <use xlink:href="#DejaVuSans-30"/>
      </g>
     </g>
    </g>
    <g id="xtick_7">
     <g id="line2d_19">
      <g>
       <use xlink:href="#m1b0e112561" x="321.728037" y="182.68" style="stroke: #000000; stroke-width: 0.8"/>
      </g>
     </g>
     <g id="text_18">
      <!-- 10 -->
      <g transform="translate(317.274287 194.998906) scale(0.07 -0.07)">
       <use xlink:href="#DejaVuSans-31"/>
       <use xlink:href="#DejaVuSans-30" transform="translate(63.623047 0)"/>
      </g>
     </g>
    </g>
    <g id="xtick_8">
     <g id="line2d_20">
      <g>
       <use xlink:href="#m1b0e112561" x="365.346494" y="182.68" style="stroke: #000000; stroke-width: 0.8"/>
      </g>
     </g>
     <g id="text_19">
      <!-- 20 -->
      <g transform="translate(360.892744 194.998906) scale(0.07 -0.07)">
       <use xlink:href="#DejaVuSans-32"/>
       <use xlink:href="#DejaVuSans-30" transform="translate(63.623047 0)"/>
      </g>
     </g>
    </g>
    <g id="xtick_9">
     <g id="line2d_21">
      <g>
       <use xlink:href="#m1b0e112561" x="408.964951" y="182.68" style="stroke: #000000; stroke-width: 0.8"/>
      </g>
     </g>
     <g id="text_20">
      <!-- 30 -->
      <g transform="translate(404.511201 194.998906) scale(0.07 -0.07)">
       <use xlink:href="#DejaVuSans-33"/>
       <use xlink:href="#DejaVuSans-30" transform="translate(63.623047 0)"/>
      </g>
     </g>
    </g>
    <g id="xtick_10">
     <g id="line2d_22">
      <g>
       <use xlink:href="#m1b0e112561" x="452.583409" y="182.68" style="stroke: #000000; stroke-width: 0.8"/>
      </g>
     </g>
     <g id="text_21">
      <!-- 40 -->
      <g transform="translate(448.129659 194.998906) scale(0.07 -0.07)">
       <use xlink:href="#DejaVuSans-34"/>
       <use xlink:href="#DejaVuSans-30" transform="translate(63.623047 0)"/>
      </g>
     </g>
    </g>
    <g id="text_22">
     <!-- Frequency (Hz) -->
     <g transform="translate(348.268281 206.533437) scale(0.08 -0.08)">
      <use xlink:href="#DejaVuSans-46"/>
      <use xlink:href="#DejaVuSans-72" transform="translate(50.269531 0)"/>
      <use xlink:href="#DejaVuSans-65" transform="translate(89.132812 0)"/>
      <use xlink:href="#DejaVuSans-71" transform="translate(150.65625 0)"/>
      <use xlink:href="#DejaVuSans-75" transform="translate(214.132812 0)"/>
      <use xlink:href="#DejaVuSans-65" transform="translate(277.511719 0)"/>
      <use xlink:href="#DejaVuSans-6e" transform="translate(339.035156 0)"/>
      <use xlink:href="#DejaVuSans-63" transform="translate(402.414062 0)"/>
      <use xlink:href="#DejaVuSans-79" transform="translate(457.394531 0)"/>
      <use xlink:href="#DejaVuSans-20" transform="translate(516.574219 0)"/>
      <use xlink:href="#DejaVuSans-28" transform="translate(548.361328 0)"/>
      <use xlink:href="#DejaVuSans-48" transform="translate(587.375 0)"/>
      <use xlink:href="#DejaVuSans-7a" transform="translate(662.570312 0)"/>
      <use xlink:href="#DejaVuSans-29" transform="translate(715.060547 0)"/>
     </g>
    </g>
   </g>
   <g id="matplotlib.axis_4">
    <g id="ytick_9">
     <g id="line2d_23">
      <g>
       <use xlink:href="#mea4f3ad8e3" x="272.875365" y="179.135361" style="stroke: #000000; stroke-width: 0.8"/>
      </g>
     </g>
    </g>
    <g id="ytick_10">
     <g id="line2d_24">
      <g>
       <use xlink:href="#mea4f3ad8e3" x="272.875365" y="162.981469" style="stroke: #000000; stroke-width: 0.8"/>
      </g>
     </g>
    </g>
    <g id="ytick_11">
     <g id="line2d_25">
      <g>
       <use xlink:href="#mea4f3ad8e3" x="272.875365" y="146.827577" style="stroke: #000000; stroke-width: 0.8"/>
      </g>
     </g>
    </g>
    <g id="ytick_12">
     <g id="line2d_26">
      <g>
       <use xlink:href="#mea4f3ad8e3" x="272.875365" y="130.673685" style="stroke: #000000; stroke-width: 0.8"/>
      </g>
     </g>
    </g>
    <g id="ytick_13">
     <g id="line2d_27">
      <g>
       <use xlink:href="#mea4f3ad8e3" x="272.875365" y="114.519793" style="stroke: #000000; stroke-width: 0.8"/>
      </g>
     </g>
    </g>
    <g id="ytick_14">
     <g id="line2d_28">
      <g>
       <use xlink:href="#mea4f3ad8e3" x="272.875365" y="98.365901" style="stroke: #000000; stroke-width: 0.8"/>
      </g>
     </g>
    </g>
    <g id="ytick_15">
     <g id="line2d_29">
      <g>
       <use xlink:href="#mea4f3ad8e3" x="272.875365" y="82.212009" style="stroke: #000000; stroke-width: 0.8"/>
      </g>
     </g>
    </g>
    <g id="ytick_16">
     <g id="line2d_30">
      <g>
       <use xlink:href="#mea4f3ad8e3" x="272.875365" y="66.058117" style="stroke: #000000; stroke-width: 0.8"/>
      </g>
     </g>
    </g>
    <g id="text_23">
     <!-- ERD/ERS (dB) -->
     <g transform="translate(263.711615 148.236875) rotate(-90) scale(0.08 -0.08)">
      <use xlink:href="#DejaVuSans-45"/>
      <use xlink:href="#DejaVuSans-52" transform="translate(63.183594 0)"/>
      <use xlink:href="#DejaVuSans-44" transform="translate(132.666016 0)"/>
      <use xlink:href="#DejaVuSans-2f" transform="translate(209.667969 0)"/>
      <use xlink:href="#DejaVuSans-45" transform="translate(243.359375 0)"/>
      <use xlink:href="#DejaVuSans-52" transform="translate(306.542969 0)"/>
      <use xlink:href="#DejaVuSans-53" transform="translate(376.025391 0)"/>
      <use xlink:href="#DejaVuSans-20" transform="translate(439.501953 0)"/>
      <use xlink:href="#DejaVuSans-28" transform="translate(471.289062 0)"/>
      <use xlink:href="#DejaVuSans-64" transform="translate(510.302734 0)"/>
      <use xlink:href="#DejaVuSans-42" transform="translate(573.779297 0)"/>
      <use xlink:href="#DejaVuSans-29" transform="translate(642.382812 0)"/>
     </g>
    </g>
   </g>
   <g id="line2d_31">
    <path d="M 282.471425 107.064703 
L 284.652348 111.182028 
L 286.833271 113.415141 
L 289.014194 113.001522 
L 291.195117 114.62002 
L 293.37604 116.760429 
L 295.556962 115.380055 
L 297.737885 112.803067 
L 299.918808 113.743485 
L 302.099731 118.76574 
L 304.280654 123.853145 
L 306.461577 124.378244 
L 308.6425 125.987458 
L 310.823422 127.893435 
L 313.004345 130.234953 
L 315.185268 133.918667 
L 317.366191 137.468591 
L 319.547114 143.485118 
L 321.728037 149.813886 
L 323.90896 153.426436 
L 326.089882 153.340582 
L 328.270805 149.183337 
L 330.451728 144.349581 
L 332.632651 137.626768 
L 334.813574 129.408095 
L 336.994497 121.168366 
L 339.17542 112.993105 
L 341.356343 108.94658 
L 343.537265 107.96074 
L 345.718188 109.369448 
L 347.899111 112.300754 
L 350.080034 114.067243 
L 352.260957 115.738785 
L 354.44188 119.471043 
L 356.622803 121.449907 
L 358.803725 121.193503 
L 360.984648 124.855775 
L 363.165571 129.598379 
L 365.346494 131.111846 
L 367.527417 127.485786 
L 369.70834 120.155694 
L 371.889263 118.009222 
L 374.070186 122.704497 
L 376.251108 126.796754 
L 378.432031 127.71293 
L 380.612954 125.750256 
L 382.793877 123.643609 
L 384.9748 123.389546 
L 387.155723 124.853315 
L 389.336646 124.355665 
L 391.517568 121.218514 
L 393.698491 119.957796 
L 395.879414 121.74377 
L 398.060337 124.656761 
L 400.24126 127.034361 
L 402.422183 126.38234 
L 404.603106 122.299285 
L 406.784028 116.922004 
L 408.964951 113.67384 
L 411.145874 111.731186 
L 413.326797 108.750326 
L 415.50772 107.135434 
L 417.688643 99.112338 
L 419.869566 87.659992 
L 422.050489 78.749825 
L 424.231411 73.872906 
L 426.412334 76.592475 
L 428.593257 82.892871 
L 430.77418 93.515826 
L 432.955103 104.777608 
L 435.136026 112.076084 
L 437.316949 112.18162 
L 439.497871 111.653352 
L 441.678794 114.832651 
L 443.859717 118.053766 
L 446.04064 119.348509 
L 448.221563 122.351806 
L 450.402486 121.326857 
L 452.583409 116.589742 
L 454.764332 116.566947 
L 456.945254 118.807572 
L 459.126177 119.787129 
L 461.3071 117.73036 
L 463.488023 116.563664 
L 465.668946 117.215451 
L 467.849869 117.139593 
L 470.030792 113.894768 
L 472.211714 111.146561 
L 474.392637 112.767346 
" clip-path="url(#p13bfdc41c6)" style="fill: none; stroke: #1f77b4; stroke-width: 1.3; stroke-linecap: square"/>
   </g>
   <g id="line2d_32">
    <path d="M 282.471425 97.436857 
L 284.652348 90.468387 
L 286.833271 87.103544 
L 289.014194 89.30766 
L 291.195117 91.947908 
L 293.37604 99.782619 
L 295.556962 105.483242 
L 297.737885 109.702515 
L 299.918808 114.514057 
L 302.099731 116.292974 
L 304.280654 124.864655 
L 306.461577 135.740736 
L 308.6425 137.294036 
L 310.823422 131.922101 
L 313.004345 130.439388 
L 315.185268 135.926125 
L 317.366191 143.90706 
L 319.547114 145.761586 
L 321.728037 141.366089 
L 323.90896 137.549941 
L 326.089882 134.487591 
L 328.270805 133.420211 
L 330.451728 134.824781 
L 332.632651 134.740876 
L 334.813574 129.428579 
L 336.994497 123.696067 
L 339.17542 115.040355 
L 341.356343 111.335736 
L 343.537265 103.398552 
L 345.718188 92.065853 
L 347.899111 80.406648 
L 350.080034 80.155604 
L 352.260957 91.994979 
L 354.44188 104.303969 
L 356.622803 103.101118 
L 358.803725 101.270876 
L 360.984648 104.388717 
L 363.165571 106.42727 
L 365.346494 107.735778 
L 367.527417 109.186828 
L 369.70834 106.595782 
L 371.889263 103.425949 
L 374.070186 104.270515 
L 376.251108 105.204098 
L 378.432031 110.575003 
L 380.612954 108.857014 
L 382.793877 100.536905 
L 384.9748 103.895658 
L 387.155723 113.661409 
L 389.336646 119.902639 
L 391.517568 118.48391 
L 393.698491 116.001408 
L 395.879414 111.765216 
L 398.060337 103.672007 
L 400.24126 101.915633 
L 402.422183 103.706204 
L 404.603106 106.12208 
L 406.784028 105.786412 
L 408.964951 105.15704 
L 411.145874 104.576121 
L 413.326797 107.950126 
L 415.50772 106.221469 
L 417.688643 105.140205 
L 419.869566 109.547914 
L 422.050489 108.173357 
L 424.231411 106.675346 
L 426.412334 104.875235 
L 428.593257 110.059003 
L 430.77418 113.700602 
L 432.955103 111.928914 
L 435.136026 106.161745 
L 437.316949 100.45409 
L 439.497871 99.416794 
L 441.678794 103.348014 
L 443.859717 109.614943 
L 446.04064 115.391415 
L 448.221563 117.740735 
L 450.402486 119.770313 
L 452.583409 120.791194 
L 454.764332 119.015721 
L 456.945254 115.711352 
L 459.126177 114.367467 
L 461.3071 116.635397 
L 463.488023 122.031377 
L 465.668946 126.218476 
L 467.849869 124.87294 
L 470.030792 121.151449 
L 472.211714 119.12093 
L 474.392637 122.623434 
" clip-path="url(#p13bfdc41c6)" style="fill: none; stroke: #ff7f0e; stroke-width: 1.3; stroke-linecap: square"/>
   </g>
   <g id="patch_12">
    <path d="M 272.875365 182.68 
L 272.875365 59.28 
" style="fill: none; stroke: #000000; stroke-width: 0.8; stroke-linejoin: miter; stroke-linecap: square"/>
   </g>
   <g id="patch_13">
    <path d="M 483.988698 182.68 
L 483.988698 59.28 
" style="fill: none; stroke: #000000; stroke-width: 0.8; stroke-linejoin: miter; stroke-linecap: square"/>
   </g>
   <g id="patch_14">
    <path d="M 272.875365 182.68 
L 483.988698 182.68 
" style="fill: none; stroke: #000000; stroke-width: 0.8; stroke-linejoin: miter; stroke-linecap: square"/>
   </g>
   <g id="patch_15">
    <path d="M 272.875365 59.28 
L 483.988698 59.28 
" style="fill: none; stroke: #000000; stroke-width: 0.8; stroke-linejoin: miter; stroke-linecap: square"/>
   </g>
   <g id="text_24">
    <!-- Cz -->
    <g transform="translate(372.927969 53.28) scale(0.09 -0.09)">
     <use xlink:href="#DejaVuSans-43"/>
     <use xlink:href="#DejaVuSans-7a" transform="translate(69.824219 0)"/>
    </g>
   </g>
  </g>
  <g id="axes_3">
   <g id="patch_16">
    <path d="M 509.488698 182.68 
L 720.602031 182.68 
L 720.602031 59.28 
L 509.488698 59.28 
L 509.488698 182.68 
z
" style="fill: none"/>
   </g>
   <g id="patch_17">
    <path d="M 549.617679 182.68 
L 571.426907 182.68 
L 571.426907 59.28 
L 549.617679 59.28 
z
" clip-path="url(#p378af23797)" style="fill: #d9d9d9; stroke: #d9d9d9; stroke-linejoin: miter"/>
   </g>
   <g id="patch_18">
    <path d="M 571.426907 182.68 
L 645.578285 182.68 
L 645.578285 59.28 
L 571.426907 59.28 
z
" clip-path="url(#p378af23797)" style="fill: #ebebeb; stroke: #ebebeb; stroke-linejoin: miter"/>
   </g>
   <g id="FillBetweenPolyCollection_5">
    <defs>
     <path id="mb54608b3d5" d="M 519.084759 -129.490381 
L 519.084759 -113.481864 
L 521.265681 -111.335135 
L 523.446604 -106.025046 
L 525.627527 -102.348952 
L 527.80845 -97.045944 
L 529.989373 -90.240819 
L 532.170296 -87.591978 
L 534.351219 -88.610991 
L 536.532141 -84.270634 
L 538.713064 -79.787251 
L 540.893987 -80.932782 
L 543.07491 -84.406168 
L 545.255833 -84.535439 
L 547.436756 -81.430964 
L 549.617679 -75.730632 
L 551.798601 -68.949762 
L 553.979524 -62.868722 
L 556.160447 -56.783422 
L 558.34137 -46.576293 
L 560.522293 -38.326278 
L 562.703216 -38.430314 
L 564.884139 -43.073102 
L 567.065062 -49.979839 
L 569.245984 -59.424774 
L 571.426907 -67.760784 
L 573.60783 -72.962128 
L 575.788753 -75.008554 
L 577.969676 -74.856671 
L 580.150599 -75.358941 
L 582.331522 -78.116052 
L 584.512444 -81.002382 
L 586.693367 -82.352191 
L 588.87429 -80.602234 
L 591.055213 -74.79536 
L 593.236136 -69.362719 
L 595.417059 -65.745242 
L 597.597982 -65.018575 
L 599.778905 -65.195827 
L 601.959827 -65.285647 
L 604.14075 -66.407693 
L 606.321673 -67.469737 
L 608.502596 -67.292767 
L 610.683519 -65.979496 
L 612.864442 -67.603703 
L 615.045365 -68.724585 
L 617.226287 -69.280732 
L 619.40721 -69.286016 
L 621.588133 -70.268282 
L 623.769056 -73.574147 
L 625.949979 -76.641122 
L 628.130902 -77.824239 
L 630.311825 -77.081675 
L 632.492748 -77.700663 
L 634.67367 -78.936145 
L 636.854593 -80.225148 
L 639.035516 -84.426943 
L 641.216439 -88.263723 
L 643.397362 -90.608219 
L 645.578285 -91.22417 
L 647.759208 -92.794915 
L 649.94013 -93.336976 
L 652.121053 -92.81358 
L 654.301976 -96.718789 
L 656.482899 -100.213143 
L 658.663822 -101.618538 
L 660.844745 -102.663648 
L 663.025668 -102.555726 
L 665.20659 -103.046887 
L 667.387513 -102.761975 
L 669.568436 -97.64682 
L 671.749359 -93.106921 
L 673.930282 -89.352512 
L 676.111205 -88.55226 
L 678.292128 -89.204098 
L 680.473051 -87.329843 
L 682.653973 -84.532573 
L 684.834896 -81.684547 
L 687.015819 -82.497258 
L 689.196742 -86.550326 
L 691.377665 -86.382118 
L 693.558588 -85.205566 
L 695.739511 -85.874421 
L 697.920433 -86.549509 
L 700.101356 -87.115305 
L 702.282279 -85.512126 
L 704.463202 -84.275993 
L 706.644125 -85.124228 
L 708.825048 -85.351094 
L 711.005971 -84.238793 
L 711.005971 -100.373893 
L 711.005971 -100.373893 
L 708.825048 -100.705926 
L 706.644125 -100.627738 
L 704.463202 -99.100331 
L 702.282279 -99.650636 
L 700.101356 -101.962687 
L 697.920433 -101.760628 
L 695.739511 -100.318585 
L 693.558588 -100.168074 
L 691.377665 -102.12816 
L 689.196742 -101.624805 
L 687.015819 -97.331434 
L 684.834896 -96.518005 
L 682.653973 -100.429596 
L 680.473051 -103.468336 
L 678.292128 -104.949557 
L 676.111205 -102.838276 
L 673.930282 -103.334765 
L 671.749359 -106.562432 
L 669.568436 -111.990621 
L 667.387513 -118.958605 
L 665.20659 -119.803064 
L 663.025668 -119.537206 
L 660.844745 -119.366878 
L 658.663822 -118.694927 
L 656.482899 -116.315918 
L 654.301976 -112.079973 
L 652.121053 -107.476546 
L 649.94013 -108.330437 
L 647.759208 -107.750345 
L 645.578285 -106.055225 
L 643.397362 -106.485237 
L 641.216439 -104.116382 
L 639.035516 -99.32487 
L 636.854593 -95.430142 
L 634.67367 -94.784596 
L 632.492748 -93.565399 
L 630.311825 -93.629417 
L 628.130902 -93.895654 
L 625.949979 -93.026688 
L 623.769056 -90.742658 
L 621.588133 -86.35012 
L 619.40721 -86.230237 
L 617.226287 -86.308065 
L 615.045365 -86.156544 
L 612.864442 -85.434531 
L 610.683519 -84.0699 
L 608.502596 -86.471952 
L 606.321673 -86.332889 
L 604.14075 -85.292329 
L 601.959827 -83.296469 
L 599.778905 -82.244615 
L 597.597982 -82.682288 
L 595.417059 -82.954579 
L 593.236136 -86.487732 
L 591.055213 -92.405318 
L 588.87429 -97.639815 
L 586.693367 -98.879984 
L 584.512444 -97.443641 
L 582.331522 -94.313816 
L 580.150599 -91.700142 
L 577.969676 -91.369769 
L 575.788753 -90.536643 
L 573.60783 -88.002515 
L 571.426907 -83.990365 
L 569.245984 -78.475134 
L 567.065062 -72.082249 
L 564.884139 -67.072422 
L 562.703216 -62.936392 
L 560.522293 -61.802322 
L 558.34137 -67.818252 
L 556.160447 -76.289329 
L 553.979524 -80.541498 
L 551.798601 -84.643467 
L 549.617679 -90.311345 
L 547.436756 -95.009324 
L 545.255833 -98.686881 
L 543.07491 -98.547845 
L 540.893987 -95.26908 
L 538.713064 -94.426044 
L 536.532141 -98.089717 
L 534.351219 -102.973948 
L 532.170296 -101.553534 
L 529.989373 -104.312095 
L 527.80845 -112.299429 
L 525.627527 -118.42693 
L 523.446604 -121.94277 
L 521.265681 -126.61393 
L 519.084759 -129.490381 
z
" style="stroke: #1f77b4; stroke-opacity: 0.15"/>
    </defs>
    <g clip-path="url(#p378af23797)">
     <use xlink:href="#mb54608b3d5" x="0" y="215.397188" style="fill: #1f77b4; fill-opacity: 0.15; stroke: #1f77b4; stroke-opacity: 0.15"/>
    </g>
   </g>
   <g id="FillBetweenPolyCollection_6">
    <defs>
     <path id="m8b76c50060" d="M 519.084759 -135.48961 
L 519.084759 -104.278752 
L 521.265681 -108.265245 
L 523.446604 -102.042037 
L 525.627527 -88.182745 
L 527.80845 -80.215511 
L 529.989373 -77.189063 
L 532.170296 -81.310489 
L 534.351219 -88.29222 
L 536.532141 -90.670972 
L 538.713064 -86.639854 
L 540.893987 -83.461678 
L 543.07491 -83.300956 
L 545.255833 -79.800949 
L 547.436756 -77.72774 
L 549.617679 -75.056211 
L 551.798601 -64.816225 
L 553.979524 -55.41414 
L 556.160447 -48.664869 
L 558.34137 -47.554474 
L 560.522293 -49.560699 
L 562.703216 -52.014741 
L 564.884139 -58.875553 
L 567.065062 -70.737083 
L 569.245984 -81.964197 
L 571.426907 -85.654855 
L 573.60783 -84.377331 
L 575.788753 -77.234564 
L 577.969676 -68.988455 
L 580.150599 -78.753878 
L 582.331522 -87.255165 
L 584.512444 -87.000839 
L 586.693367 -79.456087 
L 588.87429 -73.846162 
L 591.055213 -69.634432 
L 593.236136 -68.087031 
L 595.417059 -65.214466 
L 597.597982 -66.569132 
L 599.778905 -70.469725 
L 601.959827 -71.912777 
L 604.14075 -70.553004 
L 606.321673 -75.217767 
L 608.502596 -80.557038 
L 610.683519 -78.996909 
L 612.864442 -75.894052 
L 615.045365 -81.033318 
L 617.226287 -84.589247 
L 619.40721 -82.271923 
L 621.588133 -81.353248 
L 623.769056 -78.782961 
L 625.949979 -74.2611 
L 628.130902 -68.007857 
L 630.311825 -61.637349 
L 632.492748 -56.016506 
L 634.67367 -53.137222 
L 636.854593 -61.121645 
L 639.035516 -75.027532 
L 641.216439 -79.341676 
L 643.397362 -77.937018 
L 645.578285 -81.678639 
L 647.759208 -90.003848 
L 649.94013 -90.654414 
L 652.121053 -87.926042 
L 654.301976 -84.603923 
L 656.482899 -81.231385 
L 658.663822 -82.472506 
L 660.844745 -90.379421 
L 663.025668 -96.727308 
L 665.20659 -90.420225 
L 667.387513 -85.101131 
L 669.568436 -81.252408 
L 671.749359 -81.559934 
L 673.930282 -86.939719 
L 676.111205 -89.006216 
L 678.292128 -89.246837 
L 680.473051 -86.478626 
L 682.653973 -80.983826 
L 684.834896 -81.106795 
L 687.015819 -86.567614 
L 689.196742 -85.765711 
L 691.377665 -81.631896 
L 693.558588 -82.984686 
L 695.739511 -84.271354 
L 697.920433 -81.233959 
L 700.101356 -71.930531 
L 702.282279 -71.501631 
L 704.463202 -76.086177 
L 706.644125 -79.814163 
L 708.825048 -82.462226 
L 711.005971 -83.569254 
L 711.005971 -113.346485 
L 711.005971 -113.346485 
L 708.825048 -111.941046 
L 706.644125 -110.639657 
L 704.463202 -107.585472 
L 702.282279 -107.129894 
L 700.101356 -105.57179 
L 697.920433 -112.024005 
L 695.739511 -115.436207 
L 693.558588 -112.66096 
L 691.377665 -110.721483 
L 689.196742 -112.98129 
L 687.015819 -114.741365 
L 684.834896 -109.024579 
L 682.653973 -107.647236 
L 680.473051 -111.664953 
L 678.292128 -114.667018 
L 676.111205 -119.98932 
L 673.930282 -114.938024 
L 671.749359 -108.226506 
L 669.568436 -109.712414 
L 667.387513 -114.694282 
L 665.20659 -123.44348 
L 663.025668 -130.019053 
L 660.844745 -119.804642 
L 658.663822 -111.477492 
L 656.482899 -109.459965 
L 654.301976 -113.17484 
L 652.121053 -116.380933 
L 649.94013 -116.637149 
L 647.759208 -120.356844 
L 645.578285 -116.823763 
L 643.397362 -113.170906 
L 641.216439 -110.183169 
L 639.035516 -101.826826 
L 636.854593 -92.566412 
L 634.67367 -82.707513 
L 632.492748 -83.30962 
L 630.311825 -89.584354 
L 628.130902 -97.844027 
L 625.949979 -106.618422 
L 623.769056 -113.495058 
L 621.588133 -117.988877 
L 619.40721 -117.283389 
L 617.226287 -118.19483 
L 615.045365 -115.463112 
L 612.864442 -109.979861 
L 610.683519 -116.80525 
L 608.502596 -120.276806 
L 606.321673 -113.962769 
L 604.14075 -108.774924 
L 601.959827 -111.961935 
L 599.778905 -112.004172 
L 597.597982 -111.432321 
L 595.417059 -108.458296 
L 593.236136 -107.004483 
L 591.055213 -104.300286 
L 588.87429 -108.69066 
L 586.693367 -117.616858 
L 584.512444 -129.298965 
L 582.331522 -121.500679 
L 580.150599 -113.268316 
L 577.969676 -107.153686 
L 575.788753 -112.729625 
L 573.60783 -116.998077 
L 571.426907 -122.760859 
L 569.245984 -122.952126 
L 567.065062 -119.876332 
L 564.884139 -114.85234 
L 562.703216 -110.454951 
L 560.522293 -106.099244 
L 558.34137 -99.209317 
L 556.160447 -91.962344 
L 553.979524 -97.075505 
L 551.798601 -101.999696 
L 549.617679 -107.437888 
L 547.436756 -103.516 
L 545.255833 -107.618167 
L 543.07491 -117.002338 
L 540.893987 -117.386166 
L 538.713064 -123.495519 
L 536.532141 -119.671541 
L 534.351219 -120.461835 
L 532.170296 -116.903236 
L 529.989373 -114.843826 
L 527.80845 -115.769812 
L 525.627527 -119.57972 
L 523.446604 -135.306041 
L 521.265681 -138.175643 
L 519.084759 -135.48961 
z
" style="stroke: #ff7f0e; stroke-opacity: 0.15"/>
    </defs>
    <g clip-path="url(#p378af23797)">
     <use xlink:href="#m8b76c50060" x="0" y="215.397188" style="fill: #ff7f0e; fill-opacity: 0.15; stroke: #ff7f0e; stroke-opacity: 0.15"/>
    </g>
   </g>
   <g id="line2d_33">
    <path d="M 509.488698 114.519793 
L 720.602031 114.519793 
" clip-path="url(#p378af23797)" style="fill: none; stroke-dasharray: 2.96,1.28; stroke-dashoffset: 0; stroke: #000000; stroke-width: 0.8"/>
   </g>
   <g id="matplotlib.axis_5">
    <g id="xtick_11">
     <g id="line2d_34">
      <g>
       <use xlink:href="#m1b0e112561" x="514.722913" y="182.68" style="stroke: #000000; stroke-width: 0.8"/>
      </g>
     </g>
     <g id="text_25">
      <!-- 0 -->
      <g transform="translate(512.496038 194.998906) scale(0.07 -0.07)">
       <use xlink:href="#DejaVuSans-30"/>
      </g>
     </g>
    </g>
    <g id="xtick_12">
     <g id="line2d_35">
      <g>
       <use xlink:href="#m1b0e112561" x="558.34137" y="182.68" style="stroke: #000000; stroke-width: 0.8"/>
      </g>
     </g>
     <g id="text_26">
      <!-- 10 -->
      <g transform="translate(553.88762 194.998906) scale(0.07 -0.07)">
       <use xlink:href="#DejaVuSans-31"/>
       <use xlink:href="#DejaVuSans-30" transform="translate(63.623047 0)"/>
      </g>
     </g>
    </g>
    <g id="xtick_13">
     <g id="line2d_36">
      <g>
       <use xlink:href="#m1b0e112561" x="601.959827" y="182.68" style="stroke: #000000; stroke-width: 0.8"/>
      </g>
     </g>
     <g id="text_27">
      <!-- 20 -->
      <g transform="translate(597.506077 194.998906) scale(0.07 -0.07)">
       <use xlink:href="#DejaVuSans-32"/>
       <use xlink:href="#DejaVuSans-30" transform="translate(63.623047 0)"/>
      </g>
     </g>
    </g>
    <g id="xtick_14">
     <g id="line2d_37">
      <g>
       <use xlink:href="#m1b0e112561" x="645.578285" y="182.68" style="stroke: #000000; stroke-width: 0.8"/>
      </g>
     </g>
     <g id="text_28">
      <!-- 30 -->
      <g transform="translate(641.124535 194.998906) scale(0.07 -0.07)">
       <use xlink:href="#DejaVuSans-33"/>
       <use xlink:href="#DejaVuSans-30" transform="translate(63.623047 0)"/>
      </g>
     </g>
    </g>
    <g id="xtick_15">
     <g id="line2d_38">
      <g>
       <use xlink:href="#m1b0e112561" x="689.196742" y="182.68" style="stroke: #000000; stroke-width: 0.8"/>
      </g>
     </g>
     <g id="text_29">
      <!-- 40 -->
      <g transform="translate(684.742992 194.998906) scale(0.07 -0.07)">
       <use xlink:href="#DejaVuSans-34"/>
       <use xlink:href="#DejaVuSans-30" transform="translate(63.623047 0)"/>
      </g>
     </g>
    </g>
    <g id="text_30">
     <!-- Frequency (Hz) -->
     <g transform="translate(584.881615 206.533437) scale(0.08 -0.08)">
      <use xlink:href="#DejaVuSans-46"/>
      <use xlink:href="#DejaVuSans-72" transform="translate(50.269531 0)"/>
      <use xlink:href="#DejaVuSans-65" transform="translate(89.132812 0)"/>
      <use xlink:href="#DejaVuSans-71" transform="translate(150.65625 0)"/>
      <use xlink:href="#DejaVuSans-75" transform="translate(214.132812 0)"/>
      <use xlink:href="#DejaVuSans-65" transform="translate(277.511719 0)"/>
      <use xlink:href="#DejaVuSans-6e" transform="translate(339.035156 0)"/>
      <use xlink:href="#DejaVuSans-63" transform="translate(402.414062 0)"/>
      <use xlink:href="#DejaVuSans-79" transform="translate(457.394531 0)"/>
      <use xlink:href="#DejaVuSans-20" transform="translate(516.574219 0)"/>
      <use xlink:href="#DejaVuSans-28" transform="translate(548.361328 0)"/>
      <use xlink:href="#DejaVuSans-48" transform="translate(587.375 0)"/>
      <use xlink:href="#DejaVuSans-7a" transform="translate(662.570312 0)"/>
      <use xlink:href="#DejaVuSans-29" transform="translate(715.060547 0)"/>
     </g>
    </g>
   </g>
   <g id="matplotlib.axis_6">
    <g id="ytick_17">
     <g id="line2d_39">
      <g>
       <use xlink:href="#mea4f3ad8e3" x="509.488698" y="179.135361" style="stroke: #000000; stroke-width: 0.8"/>
      </g>
     </g>
    </g>
    <g id="ytick_18">
     <g id="line2d_40">
      <g>
       <use xlink:href="#mea4f3ad8e3" x="509.488698" y="162.981469" style="stroke: #000000; stroke-width: 0.8"/>
      </g>
     </g>
    </g>
    <g id="ytick_19">
     <g id="line2d_41">
      <g>
       <use xlink:href="#mea4f3ad8e3" x="509.488698" y="146.827577" style="stroke: #000000; stroke-width: 0.8"/>
      </g>
     </g>
    </g>
    <g id="ytick_20">
     <g id="line2d_42">
      <g>
       <use xlink:href="#mea4f3ad8e3" x="509.488698" y="130.673685" style="stroke: #000000; stroke-width: 0.8"/>
      </g>
     </g>
    </g>
    <g id="ytick_21">
     <g id="line2d_43">
      <g>
       <use xlink:href="#mea4f3ad8e3" x="509.488698" y="114.519793" style="stroke: #000000; stroke-width: 0.8"/>
      </g>
     </g>
    </g>
    <g id="ytick_22">
     <g id="line2d_44">
      <g>
       <use xlink:href="#mea4f3ad8e3" x="509.488698" y="98.365901" style="stroke: #000000; stroke-width: 0.8"/>
      </g>
     </g>
    </g>
    <g id="ytick_23">
     <g id="line2d_45">
      <g>
       <use xlink:href="#mea4f3ad8e3" x="509.488698" y="82.212009" style="stroke: #000000; stroke-width: 0.8"/>
      </g>
     </g>
    </g>
    <g id="ytick_24">
     <g id="line2d_46">
      <g>
       <use xlink:href="#mea4f3ad8e3" x="509.488698" y="66.058117" style="stroke: #000000; stroke-width: 0.8"/>
      </g>
     </g>
    </g>
    <g id="text_31">
     <!-- ERD/ERS (dB) -->
     <g transform="translate(500.324948 148.236875) rotate(-90) scale(0.08 -0.08)">
      <use xlink:href="#DejaVuSans-45"/>
      <use xlink:href="#DejaVuSans-52" transform="translate(63.183594 0)"/>
      <use xlink:href="#DejaVuSans-44" transform="translate(132.666016 0)"/>
      <use xlink:href="#DejaVuSans-2f" transform="translate(209.667969 0)"/>
      <use xlink:href="#DejaVuSans-45" transform="translate(243.359375 0)"/>
      <use xlink:href="#DejaVuSans-52" transform="translate(306.542969 0)"/>
      <use xlink:href="#DejaVuSans-53" transform="translate(376.025391 0)"/>
      <use xlink:href="#DejaVuSans-20" transform="translate(439.501953 0)"/>
      <use xlink:href="#DejaVuSans-28" transform="translate(471.289062 0)"/>
      <use xlink:href="#DejaVuSans-64" transform="translate(510.302734 0)"/>
      <use xlink:href="#DejaVuSans-42" transform="translate(573.779297 0)"/>
      <use xlink:href="#DejaVuSans-29" transform="translate(642.382812 0)"/>
     </g>
    </g>
   </g>
   <g id="line2d_47">
    <path d="M 519.084759 93.911065 
L 521.265681 96.422655 
L 523.446604 101.41328 
L 525.627527 105.009247 
L 527.80845 110.724501 
L 529.989373 118.12073 
L 532.170296 120.824432 
L 534.351219 119.604718 
L 536.532141 124.217012 
L 538.713064 128.29054 
L 540.893987 127.296257 
L 543.07491 123.920181 
L 545.255833 123.786027 
L 547.436756 127.177044 
L 549.617679 132.376199 
L 551.798601 138.600573 
L 553.979524 143.692077 
L 556.160447 148.860812 
L 558.34137 158.199915 
L 560.522293 165.332887 
L 562.703216 164.713835 
L 564.884139 160.324425 
L 567.065062 154.366144 
L 569.245984 146.447234 
L 571.426907 139.521613 
L 573.60783 134.914866 
L 575.788753 132.624589 
L 577.969676 132.283968 
L 580.150599 131.867646 
L 582.331522 129.182253 
L 584.512444 126.174176 
L 586.693367 124.7811 
L 588.87429 126.276163 
L 591.055213 131.796849 
L 593.236136 137.471962 
L 595.417059 141.047277 
L 597.597982 141.546756 
L 599.778905 141.676967 
L 601.959827 141.10613 
L 604.14075 139.547177 
L 606.321673 138.495874 
L 608.502596 138.514828 
L 610.683519 140.37249 
L 612.864442 138.87807 
L 615.045365 137.956623 
L 617.226287 137.602789 
L 619.40721 137.639061 
L 621.588133 137.087987 
L 623.769056 133.238785 
L 625.949979 130.563282 
L 628.130902 129.537241 
L 630.311825 130.041641 
L 632.492748 129.764156 
L 634.67367 128.536817 
L 636.854593 127.569542 
L 639.035516 123.521281 
L 641.216439 119.207135 
L 643.397362 116.85046 
L 645.578285 116.75749 
L 647.759208 115.124558 
L 649.94013 114.563481 
L 652.121053 115.252124 
L 654.301976 110.997806 
L 656.482899 107.132657 
L 658.663822 105.240455 
L 660.844745 104.381925 
L 663.025668 104.350721 
L 665.20659 103.972212 
L 667.387513 104.536898 
L 669.568436 110.578467 
L 671.749359 115.562511 
L 673.930282 119.053549 
L 676.111205 119.701919 
L 678.292128 118.32036 
L 680.473051 119.998098 
L 682.653973 122.916103 
L 684.834896 126.295911 
L 687.015819 125.482842 
L 689.196742 121.309622 
L 691.377665 121.142049 
L 693.558588 122.710367 
L 695.739511 122.300685 
L 697.920433 121.242119 
L 700.101356 120.858191 
L 702.282279 122.815806 
L 704.463202 123.709026 
L 706.644125 122.521205 
L 708.825048 122.368677 
L 711.005971 123.090845 
" clip-path="url(#p378af23797)" style="fill: none; stroke: #1f77b4; stroke-width: 1.3; stroke-linecap: square"/>
   </g>
   <g id="line2d_48">
    <path d="M 519.084759 95.513006 
L 521.265681 92.176743 
L 523.446604 96.723148 
L 525.627527 111.515955 
L 527.80845 117.404526 
L 529.989373 119.380743 
L 532.170296 116.290325 
L 534.351219 111.02016 
L 536.532141 110.225931 
L 538.713064 110.329501 
L 540.893987 114.973266 
L 543.07491 115.24554 
L 545.255833 121.68763 
L 547.436756 124.775318 
L 549.617679 124.150138 
L 551.798601 131.989227 
L 553.979524 139.152365 
L 556.160447 145.083581 
L 558.34137 142.015292 
L 560.522293 137.567216 
L 562.703216 134.162342 
L 564.884139 128.533241 
L 567.065062 120.09048 
L 569.245984 112.939026 
L 571.426907 111.189331 
L 573.60783 114.709483 
L 575.788753 120.415093 
L 577.969676 127.326117 
L 580.150599 119.386091 
L 582.331522 111.019266 
L 584.512444 107.247286 
L 586.693367 116.860715 
L 588.87429 124.128776 
L 591.055213 128.429829 
L 593.236136 127.851431 
L 595.417059 128.560807 
L 597.597982 126.396461 
L 599.778905 124.160239 
L 601.959827 123.459832 
L 604.14075 125.733223 
L 606.321673 120.80692 
L 608.502596 114.980266 
L 610.683519 117.496108 
L 612.864442 122.460231 
L 615.045365 117.148973 
L 617.226287 114.005149 
L 619.40721 115.619532 
L 621.588133 115.726125 
L 623.769056 119.258178 
L 625.949979 124.957426 
L 628.130902 132.471245 
L 630.311825 139.786336 
L 632.492748 145.734125 
L 634.67367 147.47482 
L 636.854593 138.553159 
L 639.035516 126.970008 
L 641.216439 120.634765 
L 643.397362 119.843226 
L 645.578285 116.145986 
L 647.759208 110.216842 
L 649.94013 111.751406 
L 652.121053 113.2437 
L 654.301976 116.507806 
L 656.482899 120.051512 
L 658.663822 118.422188 
L 660.844745 110.305156 
L 663.025668 102.024007 
L 665.20659 108.465335 
L 667.387513 115.499481 
L 669.568436 119.914777 
L 671.749359 120.503968 
L 673.930282 114.458316 
L 676.111205 110.89942 
L 678.292128 113.44026 
L 680.473051 116.325398 
L 682.653973 121.081656 
L 684.834896 120.331501 
L 687.015819 114.742698 
L 689.196742 116.023687 
L 691.377665 119.220498 
L 693.558588 117.574365 
L 695.739511 115.543407 
L 697.920433 118.768206 
L 700.101356 126.646027 
L 702.282279 126.081425 
L 704.463202 123.561363 
L 706.644125 120.170277 
L 708.825048 118.195552 
L 711.005971 116.939318 
" clip-path="url(#p378af23797)" style="fill: none; stroke: #ff7f0e; stroke-width: 1.3; stroke-linecap: square"/>
   </g>
   <g id="patch_19">
    <path d="M 509.488698 182.68 
L 509.488698 59.28 
" style="fill: none; stroke: #000000; stroke-width: 0.8; stroke-linejoin: miter; stroke-linecap: square"/>
   </g>
   <g id="patch_20">
    <path d="M 720.602031 182.68 
L 720.602031 59.28 
" style="fill: none; stroke: #000000; stroke-width: 0.8; stroke-linejoin: miter; stroke-linecap: square"/>
   </g>
   <g id="patch_21">
    <path d="M 509.488698 182.68 
L 720.602031 182.68 
" style="fill: none; stroke: #000000; stroke-width: 0.8; stroke-linejoin: miter; stroke-linecap: square"/>
   </g>
   <g id="patch_22">
    <path d="M 509.488698 59.28 
L 720.602031 59.28 
" style="fill: none; stroke: #000000; stroke-width: 0.8; stroke-linejoin: miter; stroke-linecap: square"/>
   </g>
   <g id="text_32">
    <!-- C4 -->
    <g transform="translate(609.039974 53.28) scale(0.09 -0.09)">
     <use xlink:href="#DejaVuSans-43"/>
     <use xlink:href="#DejaVuSans-34" transform="translate(69.824219 0)"/>
    </g>
   </g>
  </g>
  <g id="text_33">
   <!-- ERD/ERS — ME — S04 (Movement vs Rest) -->
   <g transform="translate(246.556172 15.558281) scale(0.11 -0.11)">
    <defs>
     <path id="DejaVuSans-2014" d="M 313 1978 
L 6088 1978 
L 6088 1528 
L 313 1528 
L 313 1978 
z
" transform="scale(0.015625)"/>
     <path id="DejaVuSans-4d" d="M 628 4666 
L 1569 4666 
L 2759 1491 
L 3956 4666 
L 4897 4666 
L 4897 0 
L 4281 0 
L 4281 4097 
L 3078 897 
L 2444 897 
L 1241 4097 
L 1241 0 
L 628 0 
L 628 4666 
z
" transform="scale(0.015625)"/>
     <path id="DejaVuSans-6f" d="M 1959 3097 
Q 1497 3097 1228 2736 
Q 959 2375 959 1747 
Q 959 1119 1226 758 
Q 1494 397 1959 397 
Q 2419 397 2687 759 
Q 2956 1122 2956 1747 
Q 2956 2369 2687 2733 
Q 2419 3097 1959 3097 
z
M 1959 3584 
Q 2709 3584 3137 3096 
Q 3566 2609 3566 1747 
Q 3566 888 3137 398 
Q 2709 -91 1959 -91 
Q 1206 -91 779 398 
Q 353 888 353 1747 
Q 353 2609 779 3096 
Q 1206 3584 1959 3584 
z
" transform="scale(0.015625)"/>
     <path id="DejaVuSans-76" d="M 191 3500 
L 800 3500 
L 1894 563 
L 2988 3500 
L 3597 3500 
L 2284 0 
L 1503 0 
L 191 3500 
z
" transform="scale(0.015625)"/>
     <path id="DejaVuSans-6d" d="M 3328 2828 
Q 3544 3216 3844 3400 
Q 4144 3584 4550 3584 
Q 5097 3584 5394 3201 
Q 5691 2819 5691 2113 
L 5691 0 
L 5113 0 
L 5113 2094 
Q 5113 2597 4934 2840 
Q 4756 3084 4391 3084 
Q 3944 3084 3684 2787 
Q 3425 2491 3425 1978 
L 3425 0 
L 2847 0 
L 2847 2094 
Q 2847 2600 2669 2842 
Q 2491 3084 2119 3084 
Q 1678 3084 1418 2786 
Q 1159 2488 1159 1978 
L 1159 0 
L 581 0 
L 581 3500 
L 1159 3500 
L 1159 2956 
Q 1356 3278 1631 3431 
Q 1906 3584 2284 3584 
Q 2666 3584 2933 3390 
Q 3200 3197 3328 2828 
z
" transform="scale(0.015625)"/>
     <path id="DejaVuSans-74" d="M 1172 4494 
L 1172 3500 
L 2356 3500 
L 2356 3053 
L 1172 3053 
L 1172 1153 
Q 1172 725 1289 603 
Q 1406 481 1766 481 
L 2356 481 
L 2356 0 
L 1766 0 
Q 1100 0 847 248 
Q 594 497 594 1153 
L 594 3053 
L 172 3053 
L 172 3500 
L 594 3500 
L 594 4494 
L 1172 4494 
z
" transform="scale(0.015625)"/>
     <path id="DejaVuSans-73" d="M 2834 3397 
L 2834 2853 
Q 2591 2978 2328 3040 
Q 2066 3103 1784 3103 
Q 1356 3103 1142 2972 
Q 928 2841 928 2578 
Q 928 2378 1081 2264 
Q 1234 2150 1697 2047 
L 1894 2003 
Q 2506 1872 2764 1633 
Q 3022 1394 3022 966 
Q 3022 478 2636 193 
Q 2250 -91 1575 -91 
Q 1294 -91 989 -36 
Q 684 19 347 128 
L 347 722 
Q 666 556 975 473 
Q 1284 391 1588 391 
Q 1994 391 2212 530 
Q 2431 669 2431 922 
Q 2431 1156 2273 1281 
Q 2116 1406 1581 1522 
L 1381 1569 
Q 847 1681 609 1914 
Q 372 2147 372 2553 
Q 372 3047 722 3315 
Q 1072 3584 1716 3584 
Q 2034 3584 2315 3537 
Q 2597 3491 2834 3397 
z
" transform="scale(0.015625)"/>
    </defs>
    <use xlink:href="#DejaVuSans-45"/>
    <use xlink:href="#DejaVuSans-52" transform="translate(63.183594 0)"/>
    <use xlink:href="#DejaVuSans-44" transform="translate(132.666016 0)"/>
    <use xlink:href="#DejaVuSans-2f" transform="translate(209.667969 0)"/>
    <use xlink:href="#DejaVuSans-45" transform="translate(243.359375 0)"/>
    <use xlink:href="#DejaVuSans-52" transform="translate(306.542969 0)"/>
    <use xlink:href="#DejaVuSans-53" transform="translate(376.025391 0)"/>
    <use xlink:href="#DejaVuSans-20" transform="translate(439.501953 0)"/>
    <use xlink:href="#DejaVuSans-2014" transform="translate(471.289062 0)"/>
    <use xlink:href="#DejaVuSans-20" transform="translate(571.289062 0)"/>
    <use xlink:href="#DejaVuSans-4d" transform="translate(603.076172 0)"/>
    <use xlink:href="#DejaVuSans-45" transform="translate(689.355469 0)"/>
    <use xlink:href="#DejaVuSans-20" transform="translate(752.539062 0)"/>
    <use xlink:href="#DejaVuSans-2014" transform="translate(784.326172 0)"/>
    <use xlink:href="#DejaVuSans-20" transform="translate(884.326172 0)"/>
    <use xlink:href="#DejaVuSans-53" transform="translate(916.113281 0)"/>
    <use xlink:href="#DejaVuSans-30" transform="translate(979.589844 0)"/>
    <use xlink:href="#DejaVuSans-34" transform="translate(1043.212891 0)"/>
    <use xlink:href="#DejaVuSans-20" transform="translate(1106.835938 0)"/>
    <use xlink:href="#DejaVuSans-28" transform="translate(1138.623047 0)"/>
    <use xlink:href="#DejaVuSans-4d" transform="translate(1177.636719 0)"/>
    <use xlink:href="#DejaVuSans-6f" transform="translate(1263.916016 0)"/>
    <use xlink:href="#DejaVuSans-76" transform="translate(1325.097656 0)"/>
    <use xlink:href="#DejaVuSans-65" transform="translate(1384.277344 0)"/>
    <use xlink:href="#DejaVuSans-6d" transform="translate(1445.800781 0)"/>
    <use xlink:href="#DejaVuSans-65" transform="translate(1543.212891 0)"/>
    <use xlink:href="#DejaVuSans-6e" transform="translate(1604.736328 0)"/>
    <use xlink:href="#DejaVuSans-74" transform="translate(1668.115234 0)"/>
    <use xlink:href="#DejaVuSans-20" transform="translate(1707.324219 0)"/>
    <use xlink:href="#DejaVuSans-76" transform="translate(1739.111328 0)"/>
    <use xlink:href="#DejaVuSans-73" transform="translate(1798.291016 0)"/>
    <use xlink:href="#DejaVuSans-20" transform="translate(1850.390625 0)"/>
    <use xlink:href="#DejaVuSans-52" transform="translate(1882.177734 0)"/>
    <use xlink:href="#DejaVuSans-65" transform="translate(1947.160156 0)"/>
    <use xlink:href="#DejaVuSans-73" transform="translate(2008.683594 0)"/>
    <use xlink:href="#DejaVuSans-74" transform="translate(2060.783203 0)"/>
    <use xlink:href="#DejaVuSans-29" transform="translate(2099.992188 0)"/>
   </g>
  </g>
  <g id="legend_1">
   <g id="patch_23">
    <path d="M 663.350812 30.109375 
L 722.830031 30.109375 
Q 724.230031 30.109375 724.230031 28.709375 
L 724.230031 8.86 
Q 724.230031 7.46 722.830031 7.46 
L 663.350812 7.46 
Q 661.950812 7.46 661.950812 8.86 
L 661.950812 28.709375 
Q 661.950812 30.109375 663.350812 30.109375 
z
" style="fill: #ffffff; opacity: 0.8; stroke: #cccccc; stroke-linejoin: miter"/>
   </g>
   <g id="line2d_49">
    <path d="M 664.750812 13.128906 
L 671.750812 13.128906 
L 678.750812 13.128906 
" style="fill: none; stroke: #1f77b4; stroke-width: 1.3; stroke-linecap: square"/>
   </g>
   <g id="text_34">
    <!-- Movement -->
    <g transform="translate(684.350812 15.578906) scale(0.07 -0.07)">
     <use xlink:href="#DejaVuSans-4d"/>
     <use xlink:href="#DejaVuSans-6f" transform="translate(86.279297 0)"/>
     <use xlink:href="#DejaVuSans-76" transform="translate(147.460938 0)"/>
     <use xlink:href="#DejaVuSans-65" transform="translate(206.640625 0)"/>
     <use xlink:href="#DejaVuSans-6d" transform="translate(268.164062 0)"/>
     <use xlink:href="#DejaVuSans-65" transform="translate(365.576172 0)"/>
     <use xlink:href="#DejaVuSans-6e" transform="translate(427.099609 0)"/>
     <use xlink:href="#DejaVuSans-74" transform="translate(490.478516 0)"/>
    </g>
   </g>
   <g id="line2d_50">
    <path d="M 664.750812 23.403594 
L 671.750812 23.403594 
L 678.750812 23.403594 
" style="fill: none; stroke: #ff7f0e; stroke-width: 1.3; stroke-linecap: square"/>
   </g>
   <g id="text_35">
    <!-- rest -->
    <g transform="translate(684.350812 25.853594) scale(0.07 -0.07)">
     <use xlink:href="#DejaVuSans-72"/>
     <use xlink:href="#DejaVuSans-65" transform="translate(38.863281 0)"/>
     <use xlink:href="#DejaVuSans-73" transform="translate(100.386719 0)"/>
     <use xlink:href="#DejaVuSans-74" transform="translate(152.486328 0)"/>
    </g>
   </g>
  </g>
 </g>
 <defs>
  <clipPath id="pb0b9fac208">
   <rect x="36.262031" y="59.28" width="211.113333" height="123.4"/>
  </clipPath>
  <clipPath id="p13bfdc41c6">
   <rect x="272.875365" y="59.28" width="211.113333" height="123.4"/>
  </clipPath>
  <clipPath id="p378af23797">
   <rect x="509.488698" y="59.28" width="211.113333" height="123.4"/>
  </clipPath>
 </defs>
</svg>
