<?xml version="1.0" encoding="utf-8" standalone="no"?>
<!DOCTYPE svg PUBLIC "-//W3C//DTD SVG 1.1//EN"
  "http://www.w3.org/Graphics/SVG/1.1/DTD/svg11.dtd">
<svg xmlns:xlink="http://www.w3.org/1999/xlink" width="731.430031pt" height="215.397188pt" viewBox="0 0 731.430031 215.397188" xmlns="http://www.w3.org/2000/svg" version="1.1">
 <metadata>
  <rdf:RDF xmlns:dc="http://purl.org/dc/elements/1.1/" xmlns:cc="http://creativecommons.org/ns#" xmlns:rdf="http://www.w3.org/1999/02/22-rdf-syntax-ns#">
   <cc:Work>
    <dc:type rdf:resource="http://purl.org/dc/dcmitype/StillImage"/>
    <dc:date>2026-06-26T22:26:28.862585</dc:date>
    <dc:format>image/svg+xml</dc:format>
    <dc:creator>
     <cc:Agent>
      <dc:title>Matplotlib v3.10.9, https://matplotlib.org/</dc:title>
     </cc:Agent>
    </dc:creator>
   </cc:Work>
  </rdf:RDF>
 </metadata>
 <defs>
  <style type="text/css">*{stroke-linejoin: round; stroke-linecap: butt}</style>
 </defs>
 <g id="figure_1">
  <g id="patch_1">
   <path d="M 0 215.397188 
L 731.430031 215.397188 
L 731.430031 0 
L 0 0 
L 0 215.397188 
z
" style="fill: none"/>
  </g>
  <g id="axes_1">
   <g id="patch_2">
    <path d="M 36.262031 182.68 
L 247.375365 182.68 
L 247.375365 59.28 
L 36.262031 59.28 
L 36.262031 182.68 
z
" style="fill: none"/>
   </g>
   <g id="patch_3">
    <path d="M 76.391012 182.68 
L 98.200241 182.68 
L 98.200241 59.28 
L 76.391012 59.28 
z
" clip-path="url(#p3cd40f16cb)" style="fill: #d9d9d9; stroke: #d9d9d9; stroke-linejoin: miter"/>
   </g>
   <g id="patch_4">
    <path d="M 98.200241 182.68 
L 172.351618 182.68 
L 172.351618 59.28 
L 98.200241 59.28 
z
" clip-path="url(#p3cd40f16cb)" style="fill: #ebebeb; stroke: #ebebeb; stroke-linejoin: miter"/>
   </g>
   <g id="FillBetweenPolyCollection_1">
    <defs>
     <path id="m04b784ac6e" d="M 45.858092 -88.536817 
L 45.858092 -66.018788 
L 48.039015 -69.508916 
L 50.219938 -73.535537 
L 52.40086 -77.072522 
L 54.581783 -77.565491 
L 56.762706 -76.252521 
L 58.943629 -73.980621 
L 61.124552 -65.507531 
L 63.305475 -57.426619 
L 65.486398 -56.093652 
L 67.667321 -58.610961 
L 69.848243 -66.339518 
L 72.029166 -74.936199 
L 74.210089 -74.750874 
L 76.391012 -69.258264 
L 78.571935 -62.699569 
L 80.752858 -58.32646 
L 82.933781 -53.473169 
L 85.114703 -48.98445 
L 87.295626 -47.334489 
L 89.476549 -53.616984 
L 91.657472 -67.87786 
L 93.838395 -80.120804 
L 96.019318 -82.518992 
L 98.200241 -82.414499 
L 100.381163 -80.466371 
L 102.562086 -82.04164 
L 104.743009 -84.38116 
L 106.923932 -85.605281 
L 109.104855 -82.417896 
L 111.285778 -80.48638 
L 113.466701 -81.743464 
L 115.647624 -80.138792 
L 117.828546 -76.502948 
L 120.009469 -75.003604 
L 122.190392 -75.198178 
L 124.371315 -74.398458 
L 126.552238 -69.130211 
L 128.733161 -62.090936 
L 130.914084 -58.836632 
L 133.095006 -59.211768 
L 135.275929 -64.889904 
L 137.456852 -71.637849 
L 139.637775 -76.083059 
L 141.818698 -79.309302 
L 143.999621 -81.275447 
L 146.180544 -78.223914 
L 148.361467 -76.072132 
L 150.542389 -75.94446 
L 152.723312 -75.310553 
L 154.904235 -75.474824 
L 157.085158 -79.04948 
L 159.266081 -79.879193 
L 161.447004 -79.548678 
L 163.627927 -80.181804 
L 165.808849 -78.730885 
L 167.989772 -74.537243 
L 170.170695 -72.902763 
L 172.351618 -75.954777 
L 174.532541 -79.315065 
L 176.713464 -80.644866 
L 178.894387 -80.826304 
L 181.075309 -80.466947 
L 183.256232 -83.582418 
L 185.437155 -81.866448 
L 187.618078 -75.303923 
L 189.799001 -75.014017 
L 191.979924 -80.903677 
L 194.160847 -85.227894 
L 196.34177 -86.060387 
L 198.522692 -85.443199 
L 200.703615 -86.265489 
L 202.884538 -87.044568 
L 205.065461 -81.493206 
L 207.246384 -75.689719 
L 209.427307 -78.577742 
L 211.60823 -79.988102 
L 213.789152 -78.884223 
L 215.970075 -75.6967 
L 218.150998 -75.779212 
L 220.331921 -76.574084 
L 222.512844 -74.470093 
L 224.693767 -71.940727 
L 226.87469 -72.596796 
L 229.055613 -72.393626 
L 231.236535 -68.818369 
L 233.417458 -67.491961 
L 235.598381 -70.483219 
L 237.779304 -72.18462 
L 237.779304 -95.287921 
L 237.779304 -95.287921 
L 235.598381 -92.986395 
L 233.417458 -89.66231 
L 231.236535 -91.283204 
L 229.055613 -94.781166 
L 226.87469 -94.775017 
L 224.693767 -93.16676 
L 222.512844 -95.824569 
L 220.331921 -98.706588 
L 218.150998 -97.421403 
L 215.970075 -95.591939 
L 213.789152 -98.609445 
L 211.60823 -99.584829 
L 209.427307 -98.110502 
L 207.246384 -94.505507 
L 205.065461 -100.418721 
L 202.884538 -106.486612 
L 200.703615 -104.932282 
L 198.522692 -104.111621 
L 196.34177 -106.377552 
L 194.160847 -105.915738 
L 191.979924 -101.276312 
L 189.799001 -95.025855 
L 187.618078 -94.721166 
L 185.437155 -101.591361 
L 183.256232 -104.07552 
L 181.075309 -101.553242 
L 178.894387 -102.253298 
L 176.713464 -101.344297 
L 174.532541 -100.102131 
L 172.351618 -96.31933 
L 170.170695 -93.478424 
L 167.989772 -95.863296 
L 165.808849 -99.587391 
L 163.627927 -100.691476 
L 161.447004 -100.133356 
L 159.266081 -99.430047 
L 157.085158 -99.78026 
L 154.904235 -96.975878 
L 152.723312 -95.594743 
L 150.542389 -95.47036 
L 148.361467 -94.9328 
L 146.180544 -97.50346 
L 143.999621 -100.432664 
L 141.818698 -98.067209 
L 139.637775 -95.040949 
L 137.456852 -91.059897 
L 135.275929 -84.208384 
L 133.095006 -79.06617 
L 130.914084 -80.345063 
L 128.733161 -83.263149 
L 126.552238 -91.540956 
L 124.371315 -97.306081 
L 122.190392 -96.045386 
L 120.009469 -93.817062 
L 117.828546 -95.362384 
L 115.647624 -99.971969 
L 113.466701 -100.953617 
L 111.285778 -99.436399 
L 109.104855 -102.214431 
L 106.923932 -105.715926 
L 104.743009 -104.453804 
L 102.562086 -102.782699 
L 100.381163 -100.84799 
L 98.200241 -102.290867 
L 96.019318 -102.953574 
L 93.838395 -99.981339 
L 91.657472 -86.95799 
L 89.476549 -73.883263 
L 87.295626 -69.445182 
L 85.114703 -72.489949 
L 82.933781 -77.421425 
L 80.752858 -81.203496 
L 78.571935 -84.280604 
L 76.391012 -88.355753 
L 74.210089 -92.399781 
L 72.029166 -92.270006 
L 69.848243 -85.036835 
L 67.667321 -77.166833 
L 65.486398 -74.042461 
L 63.305475 -75.413935 
L 61.124552 -82.781028 
L 58.943629 -90.832354 
L 56.762706 -92.843216 
L 54.581783 -95.21519 
L 52.40086 -95.361653 
L 50.219938 -93.023088 
L 48.039015 -90.705702 
L 45.858092 -88.536817 
z
" style="stroke: #1f77b4; stroke-opacity: 0.15"/>
    </defs>
    <g clip-path="url(#p3cd40f16cb)">
     <use xlink:href="#m04b784ac6e" x="0" y="215.397188" style="fill: #1f77b4; fill-opacity: 0.15; stroke: #1f77b4; stroke-opacity: 0.15"/>
    </g>
   </g>
   <g id="FillBetweenPolyCollection_2">
    <defs>
     <path id="m8935c56389" d="M 45.858092 -97.66234 
L 45.858092 -56.983948 
L 48.039015 -57.605036 
L 50.219938 -56.324435 
L 52.40086 -63.195783 
L 54.581783 -66.126598 
L 56.762706 -60.057889 
L 58.943629 -52.860273 
L 61.124552 -47.547886 
L 63.305475 -47.58291 
L 65.486398 -53.198944 
L 67.667321 -69.222332 
L 69.848243 -84.874866 
L 72.029166 -79.660055 
L 74.210089 -62.965762 
L 76.391012 -60.727674 
L 78.571935 -61.181595 
L 80.752858 -54.368355 
L 82.933781 -45.5221 
L 85.114703 -46.666664 
L 87.295626 -49.618039 
L 89.476549 -49.386019 
L 91.657472 -47.363252 
L 93.838395 -51.782318 
L 96.019318 -66.928045 
L 98.200241 -75.260014 
L 100.381163 -74.436699 
L 102.562086 -72.489116 
L 104.743009 -78.16891 
L 106.923932 -87.07398 
L 109.104855 -90.186314 
L 111.285778 -87.824676 
L 113.466701 -82.442358 
L 115.647624 -77.512082 
L 117.828546 -78.196943 
L 120.009469 -82.620302 
L 122.190392 -85.298307 
L 124.371315 -79.808846 
L 126.552238 -72.925288 
L 128.733161 -67.53486 
L 130.914084 -65.268362 
L 133.095006 -69.5288 
L 135.275929 -77.158512 
L 137.456852 -77.154843 
L 139.637775 -73.865526 
L 141.818698 -74.202514 
L 143.999621 -80.586574 
L 146.180544 -82.670089 
L 148.361467 -77.615885 
L 150.542389 -72.08832 
L 152.723312 -68.964227 
L 154.904235 -64.094685 
L 157.085158 -62.38536 
L 159.266081 -72.884645 
L 161.447004 -88.618439 
L 163.627927 -98.629149 
L 165.808849 -93.515154 
L 167.989772 -78.876741 
L 170.170695 -68.866364 
L 172.351618 -69.177918 
L 174.532541 -68.86166 
L 176.713464 -64.853914 
L 178.894387 -75.230709 
L 181.075309 -85.877249 
L 183.256232 -88.982396 
L 185.437155 -78.693916 
L 187.618078 -68.56836 
L 189.799001 -66.869298 
L 191.979924 -75.714055 
L 194.160847 -81.395659 
L 196.34177 -78.476569 
L 198.522692 -76.472619 
L 200.703615 -74.39723 
L 202.884538 -75.168456 
L 205.065461 -76.435423 
L 207.246384 -75.138363 
L 209.427307 -72.539793 
L 211.60823 -66.965866 
L 213.789152 -63.883539 
L 215.970075 -67.095857 
L 218.150998 -71.521549 
L 220.331921 -73.839411 
L 222.512844 -73.141191 
L 224.693767 -66.800549 
L 226.87469 -58.324555 
L 229.055613 -61.232759 
L 231.236535 -61.829353 
L 233.417458 -64.057863 
L 235.598381 -70.578702 
L 237.779304 -71.85888 
L 237.779304 -104.592427 
L 237.779304 -104.592427 
L 235.598381 -100.802404 
L 233.417458 -98.589758 
L 231.236535 -101.015238 
L 229.055613 -101.576321 
L 226.87469 -98.051899 
L 224.693767 -104.810529 
L 222.512844 -107.504419 
L 220.331921 -112.596371 
L 218.150998 -113.694262 
L 215.970075 -108.020532 
L 213.789152 -102.365351 
L 211.60823 -102.65479 
L 209.427307 -104.166688 
L 207.246384 -107.762196 
L 205.065461 -107.746739 
L 202.884538 -109.4277 
L 200.703615 -111.951947 
L 198.522692 -112.498534 
L 196.34177 -111.113227 
L 194.160847 -110.202378 
L 191.979924 -110.23026 
L 189.799001 -104.503191 
L 187.618078 -100.047984 
L 185.437155 -105.793702 
L 183.256232 -118.441442 
L 181.075309 -118.12375 
L 178.894387 -115.075844 
L 176.713464 -106.205214 
L 174.532541 -104.039407 
L 172.351618 -100.906186 
L 170.170695 -103.464097 
L 167.989772 -115.518809 
L 165.808849 -127.176644 
L 163.627927 -133.518579 
L 161.447004 -124.956817 
L 159.266081 -108.970025 
L 157.085158 -96.648106 
L 154.904235 -96.644927 
L 152.723312 -106.994811 
L 150.542389 -108.085849 
L 148.361467 -114.289662 
L 146.180544 -114.404013 
L 143.999621 -114.332502 
L 141.818698 -110.748911 
L 139.637775 -106.693306 
L 137.456852 -109.52227 
L 135.275929 -111.029931 
L 133.095006 -107.503157 
L 130.914084 -110.208043 
L 128.733161 -116.192825 
L 126.552238 -119.51711 
L 124.371315 -124.801446 
L 122.190392 -122.489346 
L 120.009469 -118.834472 
L 117.828546 -109.356245 
L 115.647624 -111.95709 
L 113.466701 -124.811022 
L 111.285778 -135.191692 
L 109.104855 -131.169176 
L 106.923932 -125.13611 
L 104.743009 -113.821223 
L 102.562086 -107.864138 
L 100.381163 -109.43181 
L 98.200241 -107.845687 
L 96.019318 -98.431909 
L 93.838395 -88.711663 
L 91.657472 -90.116276 
L 89.476549 -91.419576 
L 87.295626 -94.102928 
L 85.114703 -94.815204 
L 82.933781 -93.585552 
L 80.752858 -99.94503 
L 78.571935 -100.301057 
L 76.391012 -94.633044 
L 74.210089 -99.805202 
L 72.029166 -115.190721 
L 69.848243 -120.094503 
L 67.667321 -107.060728 
L 65.486398 -91.047703 
L 63.305475 -82.599928 
L 61.124552 -83.337189 
L 58.943629 -90.478079 
L 56.762706 -99.611485 
L 54.581783 -103.829958 
L 52.40086 -100.48787 
L 50.219938 -94.646242 
L 48.039015 -95.188207 
L 45.858092 -97.66234 
z
" style="stroke: #ff7f0e; stroke-opacity: 0.15"/>
    </defs>
    <g clip-path="url(#p3cd40f16cb)">
     <use xlink:href="#m8935c56389" x="0" y="215.397188" style="fill: #ff7f0e; fill-opacity: 0.15; stroke: #ff7f0e; stroke-opacity: 0.15"/>
    </g>
   </g>
   <g id="line2d_1">
    <path d="M 36.262031 125.450263 
L 247.375365 125.450263 
" clip-path="url(#p3cd40f16cb)" style="fill: none; stroke-dasharray: 2.96,1.28; stroke-dashoffset: 0; stroke: #000000; stroke-width: 0.8"/>
   </g>
   <g id="matplotlib.axis_1">
    <g id="xtick_1">
     <g id="line2d_2">
      <defs>
       <path id="mf9f4a24758" d="M 0 0 
L 0 3.5 
" style="stroke: #000000; stroke-width: 0.8"/>
      </defs>
      <g>
       <use xlink:href="#mf9f4a24758" x="41.496246" y="182.68" style="stroke: #000000; stroke-width: 0.8"/>
      </g>
     </g>
     <g id="text_1">
      <!-- 0 -->
      <g transform="translate(39.269371 194.998906) scale(0.07 -0.07)">
       <defs>
        <path id="DejaVuSans-30" d="M 2034 4250 
Q 1547 4250 1301 3770 
Q 1056 3291 1056 2328 
Q 1056 1369 1301 889 
Q 1547 409 2034 409 
Q 2525 409 2770 889 
Q 3016 1369 3016 2328 
Q 3016 3291 2770 3770 
Q 2525 4250 2034 4250 
z
M 2034 4750 
Q 2819 4750 3233 4129 
Q 3647 3509 3647 2328 
Q 3647 1150 3233 529 
Q 2819 -91 2034 -91 
Q 1250 -91 836 529 
Q 422 1150 422 2328 
Q 422 3509 836 4129 
Q 1250 4750 2034 4750 
z
" transform="scale(0.015625)"/>
       </defs>
       <use xlink:href="#DejaVuSans-30"/>
      </g>
     </g>
    </g>
    <g id="xtick_2">
     <g id="line2d_3">
      <g>
       <use xlink:href="#mf9f4a24758" x="85.114703" y="182.68" style="stroke: #000000; stroke-width: 0.8"/>
      </g>
     </g>
     <g id="text_2">
      <!-- 10 -->
      <g transform="translate(80.660953 194.998906) scale(0.07 -0.07)">
       <defs>
        <path id="DejaVuSans-31" d="M 794 531 
L 1825 531 
L 1825 4091 
L 703 3866 
L 703 4441 
L 1819 4666 
L 2450 4666 
L 2450 531 
L 3481 531 
L 3481 0 
L 794 0 
L 794 531 
z
" transform="scale(0.015625)"/>
       </defs>
       <use xlink:href="#DejaVuSans-31"/>
       <use xlink:href="#DejaVuSans-30" transform="translate(63.623047 0)"/>
      </g>
     </g>
    </g>
    <g id="xtick_3">
     <g id="line2d_4">
      <g>
       <use xlink:href="#mf9f4a24758" x="128.733161" y="182.68" style="stroke: #000000; stroke-width: 0.8"/>
      </g>
     </g>
     <g id="text_3">
      <!-- 20 -->
      <g transform="translate(124.279411 194.998906) scale(0.07 -0.07)">
       <defs>
        <path id="DejaVuSans-32" d="M 1228 531 
L 3431 531 
L 3431 0 
L 469 0 
L 469 531 
Q 828 903 1448 1529 
Q 2069 2156 2228 2338 
Q 2531 2678 2651 2914 
Q 2772 3150 2772 3378 
Q 2772 3750 2511 3984 
Q 2250 4219 1831 4219 
Q 1534 4219 1204 4116 
Q 875 4013 500 3803 
L 500 4441 
Q 881 4594 1212 4672 
Q 1544 4750 1819 4750 
Q 2544 4750 2975 4387 
Q 3406 4025 3406 3419 
Q 3406 3131 3298 2873 
Q 3191 2616 2906 2266 
Q 2828 2175 2409 1742 
Q 1991 1309 1228 531 
z
" transform="scale(0.015625)"/>
       </defs>
       <use xlink:href="#DejaVuSans-32"/>
       <use xlink:href="#DejaVuSans-30" transform="translate(63.623047 0)"/>
      </g>
     </g>
    </g>
    <g id="xtick_4">
     <g id="line2d_5">
      <g>
       <use xlink:href="#mf9f4a24758" x="172.351618" y="182.68" style="stroke: #000000; stroke-width: 0.8"/>
      </g>
     </g>
     <g id="text_4">
      <!-- 30 -->
      <g transform="translate(167.897868 194.998906) scale(0.07 -0.07)">
       <defs>
        <path id="DejaVuSans-33" d="M 2597 2516 
Q 3050 2419 3304 2112 
Q 3559 1806 3559 1356 
Q 3559 666 3084 287 
Q 2609 -91 1734 -91 
Q 1441 -91 1130 -33 
Q 819 25 488 141 
L 488 750 
Q 750 597 1062 519 
Q 1375 441 1716 441 
Q 2309 441 2620 675 
Q 2931 909 2931 1356 
Q 2931 1769 2642 2001 
Q 2353 2234 1838 2234 
L 1294 2234 
L 1294 2753 
L 1863 2753 
Q 2328 2753 2575 2939 
Q 2822 3125 2822 3475 
Q 2822 3834 2567 4026 
Q 2313 4219 1838 4219 
Q 1578 4219 1281 4162 
Q 984 4106 628 3988 
L 628 4550 
Q 988 4650 1302 4700 
Q 1616 4750 1894 4750 
Q 2613 4750 3031 4423 
Q 3450 4097 3450 3541 
Q 3450 3153 3228 2886 
Q 3006 2619 2597 2516 
z
" transform="scale(0.015625)"/>
       </defs>
       <use xlink:href="#DejaVuSans-33"/>
       <use xlink:href="#DejaVuSans-30" transform="translate(63.623047 0)"/>
      </g>
     </g>
    </g>
    <g id="xtick_5">
     <g id="line2d_6">
      <g>
       <use xlink:href="#mf9f4a24758" x="215.970075" y="182.68" style="stroke: #000000; stroke-width: 0.8"/>
      </g>
     </g>
     <g id="text_5">
      <!-- 40 -->
      <g transform="translate(211.516325 194.998906) scale(0.07 -0.07)">
       <defs>
        <path id="DejaVuSans-34" d="M 2419 4116 
L 825 1625 
L 2419 1625 
L 2419 4116 
z
M 2253 4666 
L 3047 4666 
L 3047 1625 
L 3713 1625 
L 3713 1100 
L 3047 1100 
L 3047 0 
L 2419 0 
L 2419 1100 
L 313 1100 
L 313 1709 
L 2253 4666 
z
" transform="scale(0.015625)"/>
       </defs>
       <use xlink:href="#DejaVuSans-34"/>
       <use xlink:href="#DejaVuSans-30" transform="translate(63.623047 0)"/>
      </g>
     </g>
    </g>
    <g id="text_6">
     <!-- Frequency (Hz) -->
     <g transform="translate(111.654948 206.533437) scale(0.08 -0.08)">
      <defs>
       <path id="DejaVuSans-46" d="M 628 4666 
L 3309 4666 
L 3309 4134 
L 1259 4134 
L 1259 2759 
L 3109 2759 
L 3109 2228 
L 1259 2228 
L 1259 0 
L 628 0 
L 628 4666 
z
" transform="scale(0.015625)"/>
       <path id="DejaVuSans-72" d="M 2631 2963 
Q 2534 3019 2420 3045 
Q 2306 3072 2169 3072 
Q 1681 3072 1420 2755 
Q 1159 2438 1159 1844 
L 1159 0 
L 581 0 
L 581 3500 
L 1159 3500 
L 1159 2956 
Q 1341 3275 1631 3429 
Q 1922 3584 2338 3584 
Q 2397 3584 2469 3576 
Q 2541 3569 2628 3553 
L 2631 2963 
z
" transform="scale(0.015625)"/>
       <path id="DejaVuSans-65" d="M 3597 1894 
L 3597 1613 
L 953 1613 
Q 991 1019 1311 708 
Q 1631 397 2203 397 
Q 2534 397 2845 478 
Q 3156 559 3463 722 
L 3463 178 
Q 3153 47 2828 -22 
Q 2503 -91 2169 -91 
Q 1331 -91 842 396 
Q 353 884 353 1716 
Q 353 2575 817 3079 
Q 1281 3584 2069 3584 
Q 2775 3584 3186 3129 
Q 3597 2675 3597 1894 
z
M 3022 2063 
Q 3016 2534 2758 2815 
Q 2500 3097 2075 3097 
Q 1594 3097 1305 2825 
Q 1016 2553 972 2059 
L 3022 2063 
z
" transform="scale(0.015625)"/>
       <path id="DejaVuSans-71" d="M 947 1747 
Q 947 1113 1208 752 
Q 1469 391 1925 391 
Q 2381 391 2643 752 
Q 2906 1113 2906 1747 
Q 2906 2381 2643 2742 
Q 2381 3103 1925 3103 
Q 1469 3103 1208 2742 
Q 947 2381 947 1747 
z
M 2906 525 
Q 2725 213 2448 61 
Q 2172 -91 1784 -91 
Q 1150 -91 751 415 
Q 353 922 353 1747 
Q 353 2572 751 3078 
Q 1150 3584 1784 3584 
Q 2172 3584 2448 3432 
Q 2725 3281 2906 2969 
L 2906 3500 
L 3481 3500 
L 3481 -1331 
L 2906 -1331 
L 2906 525 
z
" transform="scale(0.015625)"/>
       <path id="DejaVuSans-75" d="M 544 1381 
L 544 3500 
L 1119 3500 
L 1119 1403 
Q 1119 906 1312 657 
Q 1506 409 1894 409 
Q 2359 409 2629 706 
Q 2900 1003 2900 1516 
L 2900 3500 
L 3475 3500 
L 3475 0 
L 2900 0 
L 2900 538 
Q 2691 219 2414 64 
Q 2138 -91 1772 -91 
Q 1169 -91 856 284 
Q 544 659 544 1381 
z
M 1991 3584 
L 1991 3584 
z
" transform="scale(0.015625)"/>
       <path id="DejaVuSans-6e" d="M 3513 2113 
L 3513 0 
L 2938 0 
L 2938 2094 
Q 2938 2591 2744 2837 
Q 2550 3084 2163 3084 
Q 1697 3084 1428 2787 
Q 1159 2491 1159 1978 
L 1159 0 
L 581 0 
L 581 3500 
L 1159 3500 
L 1159 2956 
Q 1366 3272 1645 3428 
Q 1925 3584 2291 3584 
Q 2894 3584 3203 3211 
Q 3513 2838 3513 2113 
z
" transform="scale(0.015625)"/>
       <path id="DejaVuSans-63" d="M 3122 3366 
L 3122 2828 
Q 2878 2963 2633 3030 
Q 2388 3097 2138 3097 
Q 1578 3097 1268 2742 
Q 959 2388 959 1747 
Q 959 1106 1268 751 
Q 1578 397 2138 397 
Q 2388 397 2633 464 
Q 2878 531 3122 666 
L 3122 134 
Q 2881 22 2623 -34 
Q 2366 -91 2075 -91 
Q 1284 -91 818 406 
Q 353 903 353 1747 
Q 353 2603 823 3093 
Q 1294 3584 2113 3584 
Q 2378 3584 2631 3529 
Q 2884 3475 3122 3366 
z
" transform="scale(0.015625)"/>
       <path id="DejaVuSans-79" d="M 2059 -325 
Q 1816 -950 1584 -1140 
Q 1353 -1331 966 -1331 
L 506 -1331 
L 506 -850 
L 844 -850 
Q 1081 -850 1212 -737 
Q 1344 -625 1503 -206 
L 1606 56 
L 191 3500 
L 800 3500 
L 1894 763 
L 2988 3500 
L 3597 3500 
L 2059 -325 
z
" transform="scale(0.015625)"/>
       <path id="DejaVuSans-20" transform="scale(0.015625)"/>
       <path id="DejaVuSans-28" d="M 1984 4856 
Q 1566 4138 1362 3434 
Q 1159 2731 1159 2009 
Q 1159 1288 1364 580 
Q 1569 -128 1984 -844 
L 1484 -844 
Q 1016 -109 783 600 
Q 550 1309 550 2009 
Q 550 2706 781 3412 
Q 1013 4119 1484 4856 
L 1984 4856 
z
" transform="scale(0.015625)"/>
       <path id="DejaVuSans-48" d="M 628 4666 
L 1259 4666 
L 1259 2753 
L 3553 2753 
L 3553 4666 
L 4184 4666 
L 4184 0 
L 3553 0 
L 3553 2222 
L 1259 2222 
L 1259 0 
L 628 0 
L 628 4666 
z
" transform="scale(0.015625)"/>
       <path id="DejaVuSans-7a" d="M 353 3500 
L 3084 3500 
L 3084 2975 
L 922 459 
L 3084 459 
L 3084 0 
L 275 0 
L 275 525 
L 2438 3041 
L 353 3041 
L 353 3500 
z
" transform="scale(0.015625)"/>
       <path id="DejaVuSans-29" d="M 513 4856 
L 1013 4856 
Q 1481 4119 1714 3412 
Q 1947 2706 1947 2009 
Q 1947 1309 1714 600 
Q 1481 -109 1013 -844 
L 513 -844 
Q 928 -128 1133 580 
Q 1338 1288 1338 2009 
Q 1338 2731 1133 3434 
Q 928 4138 513 4856 
z
" transform="scale(0.015625)"/>
      </defs>
      <use xlink:href="#DejaVuSans-46"/>
      <use xlink:href="#DejaVuSans-72" transform="translate(50.269531 0)"/>
      <use xlink:href="#DejaVuSans-65" transform="translate(89.132812 0)"/>
      <use xlink:href="#DejaVuSans-71" transform="translate(150.65625 0)"/>
      <use xlink:href="#DejaVuSans-75" transform="translate(214.132812 0)"/>
      <use xlink:href="#DejaVuSans-65" transform="translate(277.511719 0)"/>
      <use xlink:href="#DejaVuSans-6e" transform="translate(339.035156 0)"/>
      <use xlink:href="#DejaVuSans-63" transform="translate(402.414062 0)"/>
      <use xlink:href="#DejaVuSans-79" transform="translate(457.394531 0)"/>
      <use xlink:href="#DejaVuSans-20" transform="translate(516.574219 0)"/>
      <use xlink:href="#DejaVuSans-28" transform="translate(548.361328 0)"/>
      <use xlink:href="#DejaVuSans-48" transform="translate(587.375 0)"/>
      <use xlink:href="#DejaVuSans-7a" transform="translate(662.570312 0)"/>
      <use xlink:href="#DejaVuSans-29" transform="translate(715.060547 0)"/>
     </g>
    </g>
   </g>
   <g id="matplotlib.axis_2">
    <g id="ytick_1">
     <g id="line2d_7">
      <defs>
       <path id="mc1b5c5160f" d="M 0 0 
L -3.5 0 
" style="stroke: #000000; stroke-width: 0.8"/>
      </defs>
      <g>
       <use xlink:href="#mc1b5c5160f" x="36.262031" y="163.616444" style="stroke: #000000; stroke-width: 0.8"/>
      </g>
     </g>
     <g id="text_7">
      <!-- −2 -->
      <g transform="translate(18.9425 166.275897) scale(0.07 -0.07)">
       <defs>
        <path id="DejaVuSans-2212" d="M 678 2272 
L 4684 2272 
L 4684 1741 
L 678 1741 
L 678 2272 
z
" transform="scale(0.015625)"/>
       </defs>
       <use xlink:href="#DejaVuSans-2212"/>
       <use xlink:href="#DejaVuSans-32" transform="translate(83.789062 0)"/>
      </g>
     </g>
    </g>
    <g id="ytick_2">
     <g id="line2d_8">
      <g>
       <use xlink:href="#mc1b5c5160f" x="36.262031" y="144.533353" style="stroke: #000000; stroke-width: 0.8"/>
      </g>
     </g>
     <g id="text_8">
      <!-- −1 -->
      <g transform="translate(18.9425 147.192806) scale(0.07 -0.07)">
       <use xlink:href="#DejaVuSans-2212"/>
       <use xlink:href="#DejaVuSans-31" transform="translate(83.789062 0)"/>
      </g>
     </g>
    </g>
    <g id="ytick_3">
     <g id="line2d_9">
      <g>
       <use xlink:href="#mc1b5c5160f" x="36.262031" y="125.450263" style="stroke: #000000; stroke-width: 0.8"/>
      </g>
     </g>
     <g id="text_9">
      <!-- 0 -->
      <g transform="translate(24.808281 128.109716) scale(0.07 -0.07)">
       <use xlink:href="#DejaVuSans-30"/>
      </g>
     </g>
    </g>
    <g id="ytick_4">
     <g id="line2d_10">
      <g>
       <use xlink:href="#mc1b5c5160f" x="36.262031" y="106.367172" style="stroke: #000000; stroke-width: 0.8"/>
      </g>
     </g>
     <g id="text_10">
      <!-- 1 -->
      <g transform="translate(24.808281 109.026625) scale(0.07 -0.07)">
       <use xlink:href="#DejaVuSans-31"/>
      </g>
     </g>
    </g>
    <g id="ytick_5">
     <g id="line2d_11">
      <g>
       <use xlink:href="#mc1b5c5160f" x="36.262031" y="87.284081" style="stroke: #000000; stroke-width: 0.8"/>
      </g>
     </g>
     <g id="text_11">
      <!-- 2 -->
      <g transform="translate(24.808281 89.943534) scale(0.07 -0.07)">
       <use xlink:href="#DejaVuSans-32"/>
      </g>
     </g>
    </g>
    <g id="ytick_6">
     <g id="line2d_12">
      <g>
       <use xlink:href="#mc1b5c5160f" x="36.262031" y="68.200991" style="stroke: #000000; stroke-width: 0.8"/>
      </g>
     </g>
     <g id="text_12">
      <!-- 3 -->
      <g transform="translate(24.808281 70.860444) scale(0.07 -0.07)">
       <use xlink:href="#DejaVuSans-33"/>
      </g>
     </g>
    </g>
    <g id="text_13">
     <!-- ERD/ERS (dB) -->
     <g transform="translate(13.27875 148.236875) rotate(-90) scale(0.08 -0.08)">
      <defs>
       <path id="DejaVuSans-45" d="M 628 4666 
L 3578 4666 
L 3578 4134 
L 1259 4134 
L 1259 2753 
L 3481 2753 
L 3481 2222 
L 1259 2222 
L 1259 531 
L 3634 531 
L 3634 0 
L 628 0 
L 628 4666 
z
" transform="scale(0.015625)"/>
       <path id="DejaVuSans-52" d="M 2841 2188 
Q 3044 2119 3236 1894 
Q 3428 1669 3622 1275 
L 4263 0 
L 3584 0 
L 2988 1197 
Q 2756 1666 2539 1819 
Q 2322 1972 1947 1972 
L 1259 1972 
L 1259 0 
L 628 0 
L 628 4666 
L 2053 4666 
Q 2853 4666 3247 4331 
Q 3641 3997 3641 3322 
Q 3641 2881 3436 2590 
Q 3231 2300 2841 2188 
z
M 1259 4147 
L 1259 2491 
L 2053 2491 
Q 2509 2491 2742 2702 
Q 2975 2913 2975 3322 
Q 2975 3731 2742 3939 
Q 2509 4147 2053 4147 
L 1259 4147 
z
" transform="scale(0.015625)"/>
       <path id="DejaVuSans-44" d="M 1259 4147 
L 1259 519 
L 2022 519 
Q 2988 519 3436 956 
Q 3884 1394 3884 2338 
Q 3884 3275 3436 3711 
Q 2988 4147 2022 4147 
L 1259 4147 
z
M 628 4666 
L 1925 4666 
Q 3281 4666 3915 4102 
Q 4550 3538 4550 2338 
Q 4550 1131 3912 565 
Q 3275 0 1925 0 
L 628 0 
L 628 4666 
z
" transform="scale(0.015625)"/>
       <path id="DejaVuSans-2f" d="M 1625 4666 
L 2156 4666 
L 531 -594 
L 0 -594 
L 1625 4666 
z
" transform="scale(0.015625)"/>
       <path id="DejaVuSans-53" d="M 3425 4513 
L 3425 3897 
Q 3066 4069 2747 4153 
Q 2428 4238 2131 4238 
Q 1616 4238 1336 4038 
Q 1056 3838 1056 3469 
Q 1056 3159 1242 3001 
Q 1428 2844 1947 2747 
L 2328 2669 
Q 3034 2534 3370 2195 
Q 3706 1856 3706 1288 
Q 3706 609 3251 259 
Q 2797 -91 1919 -91 
Q 1588 -91 1214 -16 
Q 841 59 441 206 
L 441 856 
Q 825 641 1194 531 
Q 1563 422 1919 422 
Q 2459 422 2753 634 
Q 3047 847 3047 1241 
Q 3047 1584 2836 1778 
Q 2625 1972 2144 2069 
L 1759 2144 
Q 1053 2284 737 2584 
Q 422 2884 422 3419 
Q 422 4038 858 4394 
Q 1294 4750 2059 4750 
Q 2388 4750 2728 4690 
Q 3069 4631 3425 4513 
z
" transform="scale(0.015625)"/>
       <path id="DejaVuSans-64" d="M 2906 2969 
L 2906 4863 
L 3481 4863 
L 3481 0 
L 2906 0 
L 2906 525 
Q 2725 213 2448 61 
Q 2172 -91 1784 -91 
Q 1150 -91 751 415 
Q 353 922 353 1747 
Q 353 2572 751 3078 
Q 1150 3584 1784 3584 
Q 2172 3584 2448 3432 
Q 2725 3281 2906 2969 
z
M 947 1747 
Q 947 1113 1208 752 
Q 1469 391 1925 391 
Q 2381 391 2643 752 
Q 2906 1113 2906 1747 
Q 2906 2381 2643 2742 
Q 2381 3103 1925 3103 
Q 1469 3103 1208 2742 
Q 947 2381 947 1747 
z
" transform="scale(0.015625)"/>
       <path id="DejaVuSans-42" d="M 1259 2228 
L 1259 519 
L 2272 519 
Q 2781 519 3026 730 
Q 3272 941 3272 1375 
Q 3272 1813 3026 2020 
Q 2781 2228 2272 2228 
L 1259 2228 
z
M 1259 4147 
L 1259 2741 
L 2194 2741 
Q 2656 2741 2882 2914 
Q 3109 3088 3109 3444 
Q 3109 3797 2882 3972 
Q 2656 4147 2194 4147 
L 1259 4147 
z
M 628 4666 
L 2241 4666 
Q 2963 4666 3353 4366 
Q 3744 4066 3744 3513 
Q 3744 3084 3544 2831 
Q 3344 2578 2956 2516 
Q 3422 2416 3680 2098 
Q 3938 1781 3938 1306 
Q 3938 681 3513 340 
Q 3088 0 2303 0 
L 628 0 
L 628 4666 
z
" transform="scale(0.015625)"/>
      </defs>
      <use xlink:href="#DejaVuSans-45"/>
      <use xlink:href="#DejaVuSans-52" transform="translate(63.183594 0)"/>
      <use xlink:href="#DejaVuSans-44" transform="translate(132.666016 0)"/>
      <use xlink:href="#DejaVuSans-2f" transform="translate(209.667969 0)"/>
      <use xlink:href="#DejaVuSans-45" transform="translate(243.359375 0)"/>
      <use xlink:href="#DejaVuSans-52" transform="translate(306.542969 0)"/>
      <use xlink:href="#DejaVuSans-53" transform="translate(376.025391 0)"/>
      <use xlink:href="#DejaVuSans-20" transform="translate(439.501953 0)"/>
      <use xlink:href="#DejaVuSans-28" transform="translate(471.289062 0)"/>
      <use xlink:href="#DejaVuSans-64" transform="translate(510.302734 0)"/>
      <use xlink:href="#DejaVuSans-42" transform="translate(573.779297 0)"/>
      <use xlink:href="#DejaVuSans-29" transform="translate(642.382812 0)"/>
     </g>
    </g>
   </g>
   <g id="line2d_13">
    <path d="M 45.858092 138.119385 
L 48.039015 135.289878 
L 50.219938 132.117875 
L 52.40086 129.1801 
L 54.581783 129.006847 
L 56.762706 130.849319 
L 58.943629 132.9907 
L 61.124552 141.252908 
L 63.305475 148.97691 
L 65.486398 150.329131 
L 67.667321 147.50829 
L 69.848243 139.709011 
L 72.029166 131.794085 
L 74.210089 131.82186 
L 76.391012 136.590179 
L 78.571935 141.907101 
L 80.752858 145.632209 
L 82.933781 149.949891 
L 85.114703 154.659988 
L 87.295626 157.007352 
L 89.476549 151.647064 
L 91.657472 137.979263 
L 93.838395 125.346116 
L 96.019318 122.660904 
L 98.200241 123.044504 
L 100.381163 124.740007 
L 102.562086 122.985018 
L 104.743009 120.979706 
L 106.923932 119.736584 
L 109.104855 123.081024 
L 111.285778 125.435798 
L 113.466701 124.048647 
L 115.647624 125.341807 
L 117.828546 129.464521 
L 120.009469 130.986854 
L 122.190392 129.775405 
L 124.371315 129.544918 
L 126.552238 135.061604 
L 128.733161 142.720145 
L 130.914084 145.80634 
L 133.095006 146.258219 
L 135.275929 140.848043 
L 137.456852 134.048315 
L 139.637775 129.835183 
L 141.818698 126.708932 
L 143.999621 124.543132 
L 146.180544 127.533501 
L 148.361467 129.894721 
L 150.542389 129.689778 
L 152.723312 129.944539 
L 154.904235 129.171837 
L 157.085158 125.982318 
L 159.266081 125.742568 
L 161.447004 125.55617 
L 163.627927 124.960547 
L 165.808849 126.238049 
L 167.989772 130.196918 
L 170.170695 132.206594 
L 172.351618 129.260134 
L 174.532541 125.688589 
L 176.713464 124.402606 
L 178.894387 123.857387 
L 181.075309 124.387093 
L 183.256232 121.568219 
L 185.437155 123.668283 
L 187.618078 130.384643 
L 189.799001 130.377251 
L 191.979924 124.307193 
L 194.160847 119.825372 
L 196.34177 119.178218 
L 198.522692 120.619777 
L 200.703615 119.798302 
L 202.884538 118.631597 
L 205.065461 124.441224 
L 207.246384 130.299575 
L 209.427307 127.053065 
L 211.60823 125.610722 
L 213.789152 126.650353 
L 215.970075 129.752868 
L 218.150998 128.79688 
L 220.331921 127.756851 
L 222.512844 130.249856 
L 224.693767 132.843444 
L 226.87469 131.711281 
L 229.055613 131.809791 
L 231.236535 135.346401 
L 233.417458 136.820052 
L 235.598381 133.662381 
L 237.779304 131.660917 
" clip-path="url(#p3cd40f16cb)" style="fill: none; stroke: #1f77b4; stroke-width: 1.3; stroke-linecap: square"/>
   </g>
   <g id="line2d_14">
    <path d="M 45.858092 138.074043 
L 48.039015 139.000566 
L 50.219938 139.911849 
L 52.40086 133.555361 
L 54.581783 130.418909 
L 56.762706 135.562501 
L 58.943629 143.728012 
L 61.124552 149.95465 
L 63.305475 150.305769 
L 65.486398 143.273864 
L 67.667321 127.255657 
L 69.848243 112.912503 
L 72.029166 117.971799 
L 74.210089 134.011706 
L 76.391012 137.716828 
L 78.571935 134.655861 
L 80.752858 138.240495 
L 82.933781 145.843362 
L 85.114703 144.656254 
L 87.295626 143.536704 
L 89.476549 144.99439 
L 91.657472 146.657424 
L 93.838395 145.150197 
L 96.019318 132.717211 
L 98.200241 123.844337 
L 100.381163 123.462933 
L 102.562086 125.220561 
L 104.743009 119.402121 
L 106.923932 109.292143 
L 109.104855 104.719443 
L 111.285778 103.889004 
L 113.466701 111.770497 
L 115.647624 120.662601 
L 117.828546 121.620594 
L 120.009469 114.6698 
L 122.190392 111.503361 
L 124.371315 113.092042 
L 126.552238 119.175989 
L 128.733161 123.533345 
L 130.914084 127.658985 
L 133.095006 126.881209 
L 135.275929 121.302966 
L 137.456852 122.058631 
L 139.637775 125.117771 
L 141.818698 122.921475 
L 143.999621 117.93765 
L 146.180544 116.860137 
L 148.361467 119.444414 
L 150.542389 125.310103 
L 152.723312 127.417669 
L 154.904235 135.027381 
L 157.085158 135.880454 
L 159.266081 124.469852 
L 161.447004 108.609559 
L 163.627927 99.323323 
L 165.808849 105.051288 
L 167.989772 118.199412 
L 170.170695 129.231957 
L 172.351618 130.355136 
L 174.532541 128.946654 
L 176.713464 129.867624 
L 178.894387 120.243911 
L 181.075309 113.396688 
L 183.256232 111.685268 
L 185.437155 123.153379 
L 187.618078 131.089015 
L 189.799001 129.710943 
L 191.979924 122.42503 
L 194.160847 119.598169 
L 196.34177 120.60229 
L 198.522692 120.911611 
L 200.703615 122.222599 
L 202.884538 123.099109 
L 205.065461 123.306106 
L 207.246384 123.946908 
L 209.427307 127.043947 
L 211.60823 130.58686 
L 213.789152 132.272743 
L 215.970075 127.838993 
L 218.150998 122.789282 
L 220.331921 122.179297 
L 222.512844 125.074382 
L 224.693767 129.591649 
L 226.87469 137.20896 
L 229.055613 133.992647 
L 231.236535 133.974892 
L 233.417458 134.073377 
L 235.598381 129.706635 
L 237.779304 127.171534 
" clip-path="url(#p3cd40f16cb)" style="fill: none; stroke: #ff7f0e; stroke-width: 1.3; stroke-linecap: square"/>
   </g>
   <g id="patch_5">
    <path d="M 36.262031 182.68 
L 36.262031 59.28 
" style="fill: none; stroke: #000000; stroke-width: 0.8; stroke-linejoin: miter; stroke-linecap: square"/>
   </g>
   <g id="patch_6">
    <path d="M 247.375365 182.68 
L 247.375365 59.28 
" style="fill: none; stroke: #000000; stroke-width: 0.8; stroke-linejoin: miter; stroke-linecap: square"/>
   </g>
   <g id="patch_7">
    <path d="M 36.262031 182.68 
L 247.375365 182.68 
" style="fill: none; stroke: #000000; stroke-width: 0.8; stroke-linejoin: miter; stroke-linecap: square"/>
   </g>
   <g id="patch_8">
    <path d="M 36.262031 59.28 
L 247.375365 59.28 
" style="fill: none; stroke: #000000; stroke-width: 0.8; stroke-linejoin: miter; stroke-linecap: square"/>
   </g>
   <g id="text_14">
    <!-- C3 -->
    <g transform="translate(135.813307 53.28) scale(0.09 -0.09)">
     <defs>
      <path id="DejaVuSans-43" d="M 4122 4306 
L 4122 3641 
Q 3803 3938 3442 4084 
Q 3081 4231 2675 4231 
Q 1875 4231 1450 3742 
Q 1025 3253 1025 2328 
Q 1025 1406 1450 917 
Q 1875 428 2675 428 
Q 3081 428 3442 575 
Q 3803 722 4122 1019 
L 4122 359 
Q 3791 134 3420 21 
Q 3050 -91 2638 -91 
Q 1578 -91 968 557 
Q 359 1206 359 2328 
Q 359 3453 968 4101 
Q 1578 4750 2638 4750 
Q 3056 4750 3426 4639 
Q 3797 4528 4122 4306 
z
" transform="scale(0.015625)"/>
     </defs>
     <use xlink:href="#DejaVuSans-43"/>
     <use xlink:href="#DejaVuSans-33" transform="translate(69.824219 0)"/>
    </g>
   </g>
  </g>
  <g id="axes_2">
   <g id="patch_9">
    <path d="M 272.875365 182.68 
L 483.988698 182.68 
L 483.988698 59.28 
L 272.875365 59.28 
L 272.875365 182.68 
z
" style="fill: none"/>
   </g>
   <g id="patch_10">
    <path d="M 313.004345 182.68 
L 334.813574 182.68 
L 334.813574 59.28 
L 313.004345 59.28 
z
" clip-path="url(#pc017a1a4a1)" style="fill: #d9d9d9; stroke: #d9d9d9; stroke-linejoin: miter"/>
   </g>
   <g id="patch_11">
    <path d="M 334.813574 182.68 
L 408.964951 182.68 
L 408.964951 59.28 
L 334.813574 59.28 
z
" clip-path="url(#pc017a1a4a1)" style="fill: #ebebeb; stroke: #ebebeb; stroke-linejoin: miter"/>
   </g>
   <g id="FillBetweenPolyCollection_3">
    <defs>
     <path id="m2976e248d9" d="M 282.471425 -106.711969 
L 282.471425 -86.927833 
L 284.652348 -87.636464 
L 286.833271 -87.259149 
L 289.014194 -84.41494 
L 291.195117 -82.923852 
L 293.37604 -81.512068 
L 295.556962 -82.726269 
L 297.737885 -85.953864 
L 299.918808 -85.567389 
L 302.099731 -83.529618 
L 304.280654 -84.208292 
L 306.461577 -87.588608 
L 308.6425 -92.149738 
L 310.823422 -92.86537 
L 313.004345 -86.211402 
L 315.185268 -73.797755 
L 317.366191 -62.639185 
L 319.547114 -55.587506 
L 321.728037 -49.294172 
L 323.90896 -48.961991 
L 326.089882 -60.087811 
L 328.270805 -71.519825 
L 330.451728 -80.622891 
L 332.632651 -82.786094 
L 334.813574 -78.635437 
L 336.994497 -76.168483 
L 339.17542 -75.283805 
L 341.356343 -75.003081 
L 343.537265 -75.75088 
L 345.718188 -77.582164 
L 347.899111 -78.97527 
L 350.080034 -81.154062 
L 352.260957 -82.44288 
L 354.44188 -83.4413 
L 356.622803 -87.462827 
L 358.803725 -91.871995 
L 360.984648 -93.08522 
L 363.165571 -87.179634 
L 365.346494 -83.468537 
L 367.527417 -84.944049 
L 369.70834 -88.387562 
L 371.889263 -89.357369 
L 374.070186 -88.477024 
L 376.251108 -90.184401 
L 378.432031 -90.756087 
L 380.612954 -89.721403 
L 382.793877 -86.828925 
L 384.9748 -83.605063 
L 387.155723 -81.106734 
L 389.336646 -77.748795 
L 391.517568 -78.191323 
L 393.698491 -79.503373 
L 395.879414 -80.243874 
L 398.060337 -82.411782 
L 400.24126 -85.512018 
L 402.422183 -89.826268 
L 404.603106 -92.394953 
L 406.784028 -92.106549 
L 408.964951 -91.06833 
L 411.145874 -87.249622 
L 413.326797 -87.008042 
L 415.50772 -92.191935 
L 417.688643 -96.028858 
L 419.869566 -94.905299 
L 422.050489 -90.712559 
L 424.231411 -89.529792 
L 426.412334 -92.630892 
L 428.593257 -92.382864 
L 430.77418 -84.908357 
L 432.955103 -79.672793 
L 435.136026 -81.009381 
L 437.316949 -84.746171 
L 439.497871 -86.735234 
L 441.678794 -86.699892 
L 443.859717 -81.850511 
L 446.04064 -76.753897 
L 448.221563 -75.648948 
L 450.402486 -75.733133 
L 452.583409 -74.1606 
L 454.764332 -73.0959 
L 456.945254 -72.495103 
L 459.126177 -71.377154 
L 461.3071 -73.388115 
L 463.488023 -76.239493 
L 465.668946 -75.916843 
L 467.849869 -76.466164 
L 470.030792 -76.875477 
L 472.211714 -77.169363 
L 474.392637 -75.496795 
L 474.392637 -93.420741 
L 474.392637 -93.420741 
L 472.211714 -94.923171 
L 470.030792 -95.492694 
L 467.849869 -95.398366 
L 465.668946 -94.215086 
L 463.488023 -93.883645 
L 461.3071 -91.390703 
L 459.126177 -89.919116 
L 456.945254 -90.182088 
L 454.764332 -90.12428 
L 452.583409 -90.778697 
L 450.402486 -93.118511 
L 448.221563 -93.244209 
L 446.04064 -94.858196 
L 443.859717 -100.513232 
L 441.678794 -105.452194 
L 439.497871 -105.153768 
L 437.316949 -101.648399 
L 435.136026 -99.02282 
L 432.955103 -98.455222 
L 430.77418 -102.528099 
L 428.593257 -109.498274 
L 426.412334 -110.060451 
L 424.231411 -108.114784 
L 422.050489 -109.219733 
L 419.869566 -113.134948 
L 417.688643 -113.750411 
L 415.50772 -110.340934 
L 413.326797 -105.581458 
L 411.145874 -105.387982 
L 408.964951 -108.033431 
L 406.784028 -109.308312 
L 404.603106 -110.263463 
L 402.422183 -108.127339 
L 400.24126 -103.756233 
L 398.060337 -101.244929 
L 395.879414 -99.401658 
L 393.698491 -99.279747 
L 391.517568 -98.551462 
L 389.336646 -97.854975 
L 387.155723 -100.857751 
L 384.9748 -103.474264 
L 382.793877 -106.222924 
L 380.612954 -109.001911 
L 378.432031 -110.779155 
L 376.251108 -111.220397 
L 374.070186 -109.516797 
L 371.889263 -108.831312 
L 369.70834 -107.807894 
L 367.527417 -103.435205 
L 365.346494 -102.609294 
L 363.165571 -107.022827 
L 360.984648 -113.846987 
L 358.803725 -111.588305 
L 356.622803 -107.085035 
L 354.44188 -103.016866 
L 352.260957 -102.52194 
L 350.080034 -101.415763 
L 347.899111 -99.565527 
L 345.718188 -99.487891 
L 343.537265 -97.730218 
L 341.356343 -95.608507 
L 339.17542 -95.101752 
L 336.994497 -94.909558 
L 334.813574 -96.229997 
L 332.632651 -101.676386 
L 330.451728 -99.488723 
L 328.270805 -89.97795 
L 326.089882 -79.609072 
L 323.90896 -69.630829 
L 321.728037 -70.26647 
L 319.547114 -76.483956 
L 317.366191 -82.636553 
L 315.185268 -92.65109 
L 313.004345 -105.203812 
L 310.823422 -111.985561 
L 308.6425 -111.053589 
L 306.461577 -107.441021 
L 304.280654 -103.925814 
L 302.099731 -102.29461 
L 299.918808 -102.939773 
L 297.737885 -102.991385 
L 295.556962 -100.674643 
L 293.37604 -99.387268 
L 291.195117 -99.48647 
L 289.014194 -101.671174 
L 286.833271 -105.881852 
L 284.652348 -106.298502 
L 282.471425 -106.711969 
z
" style="stroke: #1f77b4; stroke-opacity: 0.15"/>
    </defs>
    <g clip-path="url(#pc017a1a4a1)">
     <use xlink:href="#m2976e248d9" x="0" y="215.397188" style="fill: #1f77b4; fill-opacity: 0.15; stroke: #1f77b4; stroke-opacity: 0.15"/>
    </g>
   </g>
   <g id="FillBetweenPolyCollection_4">
    <defs>
     <path id="m530d58e982" d="M 282.471425 -107.423511 
L 282.471425 -70.068617 
L 284.652348 -74.200163 
L 286.833271 -83.626793 
L 289.014194 -91.826827 
L 291.195117 -88.76423 
L 293.37604 -80.381538 
L 295.556962 -74.30821 
L 297.737885 -71.533308 
L 299.918808 -74.293456 
L 302.099731 -70.724666 
L 304.280654 -65.598006 
L 306.461577 -67.097005 
L 308.6425 -69.972419 
L 310.823422 -65.037215 
L 313.004345 -63.405384 
L 315.185268 -60.278096 
L 317.366191 -59.578702 
L 319.547114 -63.744208 
L 321.728037 -61.237056 
L 323.90896 -45.860646 
L 326.089882 -38.326278 
L 328.270805 -44.280666 
L 330.451728 -52.207294 
L 332.632651 -61.266552 
L 334.813574 -71.107791 
L 336.994497 -80.907312 
L 339.17542 -86.80226 
L 341.356343 -86.398851 
L 343.537265 -86.727929 
L 345.718188 -80.8402 
L 347.899111 -77.981953 
L 350.080034 -85.480813 
L 352.260957 -91.497198 
L 354.44188 -98.024326 
L 356.622803 -99.685681 
L 358.803725 -91.909235 
L 360.984648 -86.568751 
L 363.165571 -83.892777 
L 365.346494 -81.687536 
L 367.527417 -79.321863 
L 369.70834 -71.380988 
L 371.889263 -69.297491 
L 374.070186 -68.653298 
L 376.251108 -75.509054 
L 378.432031 -79.940388 
L 380.612954 -79.988454 
L 382.793877 -74.851004 
L 384.9748 -70.52817 
L 387.155723 -71.337036 
L 389.336646 -73.783035 
L 391.517568 -66.912588 
L 393.698491 -59.872124 
L 395.879414 -60.416021 
L 398.060337 -67.635981 
L 400.24126 -74.705448 
L 402.422183 -75.344494 
L 404.603106 -73.273922 
L 406.784028 -67.665339 
L 408.964951 -59.444105 
L 411.145874 -56.569988 
L 413.326797 -62.469423 
L 415.50772 -72.246159 
L 417.688643 -76.436892 
L 419.869566 -76.608668 
L 422.050489 -75.8352 
L 424.231411 -75.788158 
L 426.412334 -70.823234 
L 428.593257 -72.644862 
L 430.77418 -81.140909 
L 432.955103 -83.142565 
L 435.136026 -76.665866 
L 437.316949 -67.395429 
L 439.497871 -64.571371 
L 441.678794 -67.797309 
L 443.859717 -75.6017 
L 446.04064 -80.655618 
L 448.221563 -82.721643 
L 450.402486 -82.43688 
L 452.583409 -83.45135 
L 454.764332 -94.840705 
L 456.945254 -98.232151 
L 459.126177 -85.430411 
L 461.3071 -73.588324 
L 463.488023 -66.137804 
L 465.668946 -64.667433 
L 467.849869 -67.00646 
L 470.030792 -66.325426 
L 472.211714 -64.440759 
L 474.392637 -67.151938 
L 474.392637 -108.50021 
L 474.392637 -108.50021 
L 472.211714 -101.144954 
L 470.030792 -104.150434 
L 467.849869 -106.524666 
L 465.668946 -100.921327 
L 463.488023 -102.284696 
L 461.3071 -108.947583 
L 459.126177 -122.044475 
L 456.945254 -135.371237 
L 454.764332 -130.78787 
L 452.583409 -114.969523 
L 450.402486 -109.685448 
L 448.221563 -111.939667 
L 446.04064 -113.915219 
L 443.859717 -111.148017 
L 441.678794 -102.880903 
L 439.497871 -100.669379 
L 437.316949 -102.456895 
L 435.136026 -109.665559 
L 432.955103 -113.245364 
L 430.77418 -112.35369 
L 428.593257 -105.762952 
L 426.412334 -107.665068 
L 424.231411 -117.832073 
L 422.050489 -119.076744 
L 419.869566 -113.915792 
L 417.688643 -111.473108 
L 415.50772 -105.3019 
L 413.326797 -97.139903 
L 411.145874 -91.394081 
L 408.964951 -93.286992 
L 406.784028 -102.095626 
L 404.603106 -106.409289 
L 402.422183 -110.952296 
L 400.24126 -112.394443 
L 398.060337 -100.635627 
L 395.879414 -94.082493 
L 393.698491 -95.010441 
L 391.517568 -106.291329 
L 389.336646 -115.418729 
L 387.155723 -112.938316 
L 384.9748 -109.372555 
L 382.793877 -113.783966 
L 380.612954 -116.214617 
L 378.432031 -120.161378 
L 376.251108 -118.173079 
L 374.070186 -109.84063 
L 371.889263 -108.359748 
L 369.70834 -109.049563 
L 367.527417 -119.361072 
L 365.346494 -122.584492 
L 363.165571 -124.854425 
L 360.984648 -122.459992 
L 358.803725 -126.531709 
L 356.622803 -134.22365 
L 354.44188 -138.915477 
L 352.260957 -135.9078 
L 350.080034 -128.310531 
L 347.899111 -120.210922 
L 345.718188 -122.101657 
L 343.537265 -123.993624 
L 341.356343 -126.094494 
L 339.17542 -127.843717 
L 336.994497 -121.316635 
L 334.813574 -107.56583 
L 332.632651 -96.218859 
L 330.451728 -95.087525 
L 328.270805 -87.273058 
L 326.089882 -82.49593 
L 323.90896 -89.900839 
L 321.728037 -99.539591 
L 319.547114 -98.453131 
L 317.366191 -96.080532 
L 315.185268 -99.162249 
L 313.004345 -104.301229 
L 310.823422 -109.561461 
L 308.6425 -114.628335 
L 306.461577 -111.902566 
L 304.280654 -109.629697 
L 302.099731 -111.985585 
L 299.918808 -111.225381 
L 297.737885 -107.530498 
L 295.556962 -116.385601 
L 293.37604 -125.173419 
L 291.195117 -127.147548 
L 289.014194 -125.147319 
L 286.833271 -117.877657 
L 284.652348 -108.620049 
L 282.471425 -107.423511 
z
" style="stroke: #ff7f0e; stroke-opacity: 0.15"/>
    </defs>
    <g clip-path="url(#pc017a1a4a1)">
     <use xlink:href="#m530d58e982" x="0" y="215.397188" style="fill: #ff7f0e; fill-opacity: 0.15; stroke: #ff7f0e; stroke-opacity: 0.15"/>
    </g>
   </g>
   <g id="line2d_15">
    <path d="M 272.875365 125.450263 
L 483.988698 125.450263 
" clip-path="url(#pc017a1a4a1)" style="fill: none; stroke-dasharray: 2.96,1.28; stroke-dashoffset: 0; stroke: #000000; stroke-width: 0.8"/>
   </g>
   <g id="matplotlib.axis_3">
    <g id="xtick_6">
     <g id="line2d_16">
      <g>
       <use xlink:href="#mf9f4a24758" x="278.109579" y="182.68" style="stroke: #000000; stroke-width: 0.8"/>
      </g>
     </g>
     <g id="text_15">
      <!-- 0 -->
      <g transform="translate(275.882704 194.998906) scale(0.07 -0.07)">
       <use xlink:href="#DejaVuSans-30"/>
      </g>
     </g>
    </g>
    <g id="xtick_7">
     <g id="line2d_17">
      <g>
       <use xlink:href="#mf9f4a24758" x="321.728037" y="182.68" style="stroke: #000000; stroke-width: 0.8"/>
      </g>
     </g>
     <g id="text_16">
      <!-- 10 -->
      <g transform="translate(317.274287 194.998906) scale(0.07 -0.07)">
       <use xlink:href="#DejaVuSans-31"/>
       <use xlink:href="#DejaVuSans-30" transform="translate(63.623047 0)"/>
      </g>
     </g>
    </g>
    <g id="xtick_8">
     <g id="line2d_18">
      <g>
       <use xlink:href="#mf9f4a24758" x="365.346494" y="182.68" style="stroke: #000000; stroke-width: 0.8"/>
      </g>
     </g>
     <g id="text_17">
      <!-- 20 -->
      <g transform="translate(360.892744 194.998906) scale(0.07 -0.07)">
       <use xlink:href="#DejaVuSans-32"/>
       <use xlink:href="#DejaVuSans-30" transform="translate(63.623047 0)"/>
      </g>
     </g>
    </g>
    <g id="xtick_9">
     <g id="line2d_19">
      <g>
       <use xlink:href="#mf9f4a24758" x="408.964951" y="182.68" style="stroke: #000000; stroke-width: 0.8"/>
      </g>
     </g>
     <g id="text_18">
      <!-- 30 -->
      <g transform="translate(404.511201 194.998906) scale(0.07 -0.07)">
       <use xlink:href="#DejaVuSans-33"/>
       <use xlink:href="#DejaVuSans-30" transform="translate(63.623047 0)"/>
      </g>
     </g>
    </g>
    <g id="xtick_10">
     <g id="line2d_20">
      <g>
       <use xlink:href="#mf9f4a24758" x="452.583409" y="182.68" style="stroke: #000000; stroke-width: 0.8"/>
      </g>
     </g>
     <g id="text_19">
      <!-- 40 -->
      <g transform="translate(448.129659 194.998906) scale(0.07 -0.07)">
       <use xlink:href="#DejaVuSans-34"/>
       <use xlink:href="#DejaVuSans-30" transform="translate(63.623047 0)"/>
      </g>
     </g>
    </g>
    <g id="text_20">
     <!-- Frequency (Hz) -->
     <g transform="translate(348.268281 206.533437) scale(0.08 -0.08)">
      <use xlink:href="#DejaVuSans-46"/>
      <use xlink:href="#DejaVuSans-72" transform="translate(50.269531 0)"/>
      <use xlink:href="#DejaVuSans-65" transform="translate(89.132812 0)"/>
      <use xlink:href="#DejaVuSans-71" transform="translate(150.65625 0)"/>
      <use xlink:href="#DejaVuSans-75" transform="translate(214.132812 0)"/>
      <use xlink:href="#DejaVuSans-65" transform="translate(277.511719 0)"/>
      <use xlink:href="#DejaVuSans-6e" transform="translate(339.035156 0)"/>
      <use xlink:href="#DejaVuSans-63" transform="translate(402.414062 0)"/>
      <use xlink:href="#DejaVuSans-79" transform="translate(457.394531 0)"/>
      <use xlink:href="#DejaVuSans-20" transform="translate(516.574219 0)"/>
      <use xlink:href="#DejaVuSans-28" transform="translate(548.361328 0)"/>
      <use xlink:href="#DejaVuSans-48" transform="translate(587.375 0)"/>
      <use xlink:href="#DejaVuSans-7a" transform="translate(662.570312 0)"/>
      <use xlink:href="#DejaVuSans-29" transform="translate(715.060547 0)"/>
     </g>
    </g>
   </g>
   <g id="matplotlib.axis_4">
    <g id="ytick_7">
     <g id="line2d_21">
      <g>
       <use xlink:href="#mc1b5c5160f" x="272.875365" y="163.616444" style="stroke: #000000; stroke-width: 0.8"/>
      </g>
     </g>
    </g>
    <g id="ytick_8">
     <g id="line2d_22">
      <g>
       <use xlink:href="#mc1b5c5160f" x="272.875365" y="144.533353" style="stroke: #000000; stroke-width: 0.8"/>
      </g>
     </g>
    </g>
    <g id="ytick_9">
     <g id="line2d_23">
      <g>
       <use xlink:href="#mc1b5c5160f" x="272.875365" y="125.450263" style="stroke: #000000; stroke-width: 0.8"/>
      </g>
     </g>
    </g>
    <g id="ytick_10">
     <g id="line2d_24">
      <g>
       <use xlink:href="#mc1b5c5160f" x="272.875365" y="106.367172" style="stroke: #000000; stroke-width: 0.8"/>
      </g>
     </g>
    </g>
    <g id="ytick_11">
     <g id="line2d_25">
      <g>
       <use xlink:href="#mc1b5c5160f" x="272.875365" y="87.284081" style="stroke: #000000; stroke-width: 0.8"/>
      </g>
     </g>
    </g>
    <g id="ytick_12">
     <g id="line2d_26">
      <g>
       <use xlink:href="#mc1b5c5160f" x="272.875365" y="68.200991" style="stroke: #000000; stroke-width: 0.8"/>
      </g>
     </g>
    </g>
    <g id="text_21">
     <!-- ERD/ERS (dB) -->
     <g transform="translate(263.711615 148.236875) rotate(-90) scale(0.08 -0.08)">
      <use xlink:href="#DejaVuSans-45"/>
      <use xlink:href="#DejaVuSans-52" transform="translate(63.183594 0)"/>
      <use xlink:href="#DejaVuSans-44" transform="translate(132.666016 0)"/>
      <use xlink:href="#DejaVuSans-2f" transform="translate(209.667969 0)"/>
      <use xlink:href="#DejaVuSans-45" transform="translate(243.359375 0)"/>
      <use xlink:href="#DejaVuSans-52" transform="translate(306.542969 0)"/>
      <use xlink:href="#DejaVuSans-53" transform="translate(376.025391 0)"/>
      <use xlink:href="#DejaVuSans-20" transform="translate(439.501953 0)"/>
      <use xlink:href="#DejaVuSans-28" transform="translate(471.289062 0)"/>
      <use xlink:href="#DejaVuSans-64" transform="translate(510.302734 0)"/>
      <use xlink:href="#DejaVuSans-42" transform="translate(573.779297 0)"/>
      <use xlink:href="#DejaVuSans-29" transform="translate(642.382812 0)"/>
     </g>
    </g>
   </g>
   <g id="line2d_27">
    <path d="M 282.471425 118.577286 
L 284.652348 118.429705 
L 286.833271 118.826687 
L 289.014194 122.35413 
L 291.195117 124.192027 
L 293.37604 124.947519 
L 295.556962 123.696732 
L 297.737885 120.924563 
L 299.918808 121.143606 
L 302.099731 122.485074 
L 304.280654 121.330134 
L 306.461577 117.882373 
L 308.6425 113.795524 
L 310.823422 112.971722 
L 313.004345 119.68958 
L 315.185268 132.172765 
L 317.366191 142.759318 
L 319.547114 149.361457 
L 321.728037 155.616867 
L 323.90896 156.100778 
L 326.089882 145.548746 
L 328.270805 134.6483 
L 330.451728 125.34138 
L 332.632651 123.165948 
L 334.813574 127.964471 
L 336.994497 129.858167 
L 339.17542 130.204409 
L 341.356343 130.091394 
L 343.537265 128.656639 
L 345.718188 126.86216 
L 347.899111 126.126789 
L 350.080034 124.112275 
L 352.260957 122.914777 
L 354.44188 122.168105 
L 356.622803 118.123257 
L 358.803725 113.667038 
L 360.984648 111.931084 
L 363.165571 118.295957 
L 365.346494 122.358272 
L 367.527417 121.207561 
L 369.70834 117.299459 
L 371.889263 116.302847 
L 374.070186 116.400277 
L 376.251108 114.694789 
L 378.432031 114.629567 
L 380.612954 116.035531 
L 382.793877 118.871263 
L 384.9748 121.857524 
L 387.155723 124.414945 
L 389.336646 127.595302 
L 391.517568 127.025795 
L 393.698491 126.005628 
L 395.879414 125.574421 
L 398.060337 123.568832 
L 400.24126 120.763062 
L 402.422183 116.420384 
L 404.603106 114.06798 
L 406.784028 114.689757 
L 408.964951 115.846307 
L 411.145874 119.078385 
L 413.326797 119.102438 
L 415.50772 114.130753 
L 417.688643 110.507553 
L 419.869566 111.377064 
L 422.050489 115.431041 
L 424.231411 116.574899 
L 426.412334 114.051516 
L 428.593257 114.456618 
L 430.77418 121.67896 
L 432.955103 126.33318 
L 435.136026 125.381087 
L 437.316949 122.199902 
L 439.497871 119.452687 
L 441.678794 119.321144 
L 443.859717 124.215316 
L 446.04064 129.591141 
L 448.221563 130.950609 
L 450.402486 130.971365 
L 452.583409 132.927539 
L 454.764332 133.787097 
L 456.945254 134.058592 
L 459.126177 134.749052 
L 461.3071 133.007779 
L 463.488023 130.335618 
L 465.668946 130.331223 
L 467.849869 129.464923 
L 470.030792 129.213102 
L 472.211714 129.35092 
L 474.392637 130.938419 
" clip-path="url(#pc017a1a4a1)" style="fill: none; stroke: #1f77b4; stroke-width: 1.3; stroke-linecap: square"/>
   </g>
   <g id="line2d_28">
    <path d="M 282.471425 126.651124 
L 284.652348 123.987082 
L 286.833271 114.644963 
L 289.014194 106.910115 
L 291.195117 107.441299 
L 293.37604 112.619709 
L 295.556962 120.050282 
L 297.737885 125.865284 
L 299.918808 122.637769 
L 302.099731 124.042062 
L 304.280654 127.783336 
L 306.461577 125.897402 
L 308.6425 123.096811 
L 310.823422 128.097849 
L 313.004345 131.543881 
L 315.185268 135.677015 
L 317.366191 137.56757 
L 319.547114 134.298518 
L 321.728037 135.008864 
L 323.90896 147.516445 
L 326.089882 154.986083 
L 328.270805 149.620325 
L 330.451728 141.749778 
L 332.632651 136.654482 
L 334.813574 126.060377 
L 336.994497 114.285214 
L 339.17542 108.074199 
L 341.356343 109.150515 
L 343.537265 110.036411 
L 345.718188 113.926259 
L 347.899111 116.30075 
L 350.080034 108.501515 
L 352.260957 101.694688 
L 354.44188 96.927286 
L 356.622803 98.442522 
L 358.803725 106.176715 
L 360.984648 110.882816 
L 363.165571 111.023586 
L 365.346494 113.261173 
L 367.527417 116.05572 
L 369.70834 125.181912 
L 371.889263 126.568568 
L 374.070186 126.150223 
L 376.251108 118.556121 
L 378.432031 115.346304 
L 380.612954 117.295652 
L 382.793877 121.079703 
L 384.9748 125.446825 
L 387.155723 123.259512 
L 389.336646 120.796306 
L 391.517568 128.795229 
L 393.698491 137.955905 
L 395.879414 138.14793 
L 398.060337 131.261384 
L 400.24126 121.847242 
L 402.422183 122.248793 
L 404.603106 125.555582 
L 406.784028 130.516705 
L 408.964951 139.031639 
L 411.145874 141.415153 
L 413.326797 135.592524 
L 415.50772 126.623158 
L 417.688643 121.442188 
L 419.869566 120.134958 
L 422.050489 117.941215 
L 424.231411 118.587072 
L 426.412334 126.153037 
L 428.593257 126.19328 
L 430.77418 118.649888 
L 432.955103 117.203223 
L 435.136026 122.231475 
L 437.316949 130.471026 
L 439.497871 132.776812 
L 441.678794 130.058082 
L 443.859717 122.022329 
L 446.04064 118.111769 
L 448.221563 118.066532 
L 450.402486 119.336024 
L 452.583409 116.186751 
L 454.764332 102.5829 
L 456.945254 98.595494 
L 459.126177 111.659744 
L 461.3071 124.129234 
L 463.488023 131.185938 
L 465.668946 132.602808 
L 467.849869 128.631624 
L 470.030792 130.159258 
L 472.211714 132.604331 
L 474.392637 127.571113 
" clip-path="url(#pc017a1a4a1)" style="fill: none; stroke: #ff7f0e; stroke-width: 1.3; stroke-linecap: square"/>
   </g>
   <g id="patch_12">
    <path d="M 272.875365 182.68 
L 272.875365 59.28 
" style="fill: none; stroke: #000000; stroke-width: 0.8; stroke-linejoin: miter; stroke-linecap: square"/>
   </g>
   <g id="patch_13">
    <path d="M 483.988698 182.68 
L 483.988698 59.28 
" style="fill: none; stroke: #000000; stroke-width: 0.8; stroke-linejoin: miter; stroke-linecap: square"/>
   </g>
   <g id="patch_14">
    <path d="M 272.875365 182.68 
L 483.988698 182.68 
" style="fill: none; stroke: #000000; stroke-width: 0.8; stroke-linejoin: miter; stroke-linecap: square"/>
   </g>
   <g id="patch_15">
    <path d="M 272.875365 59.28 
L 483.988698 59.28 
" style="fill: none; stroke: #000000; stroke-width: 0.8; stroke-linejoin: miter; stroke-linecap: square"/>
   </g>
   <g id="text_22">
    <!-- Cz -->
    <g transform="translate(372.927969 53.28) scale(0.09 -0.09)">
     <use xlink:href="#DejaVuSans-43"/>
     <use xlink:href="#DejaVuSans-7a" transform="translate(69.824219 0)"/>
    </g>
   </g>
  </g>
  <g id="axes_3">
   <g id="patch_16">
    <path d="M 509.488698 182.68 
L 720.602031 182.68 
L 720.602031 59.28 
L 509.488698 59.28 
L 509.488698 182.68 
z
" style="fill: none"/>
   </g>
   <g id="patch_17">
    <path d="M 549.617679 182.68 
L 571.426907 182.68 
L 571.426907 59.28 
L 549.617679 59.28 
z
" clip-path="url(#p8bbeabe1df)" style="fill: #d9d9d9; stroke: #d9d9d9; stroke-linejoin: miter"/>
   </g>
   <g id="patch_18">
    <path d="M 571.426907 182.68 
L 645.578285 182.68 
L 645.578285 59.28 
L 571.426907 59.28 
z
" clip-path="url(#p8bbeabe1df)" style="fill: #ebebeb; stroke: #ebebeb; stroke-linejoin: miter"/>
   </g>
   <g id="FillBetweenPolyCollection_5">
    <defs>
     <path id="mc03d3fc0f6" d="M 519.084759 -105.466392 
L 519.084759 -84.811927 
L 521.265681 -85.36435 
L 523.446604 -84.02973 
L 525.627527 -79.994931 
L 527.80845 -76.433172 
L 529.989373 -75.895344 
L 532.170296 -77.927403 
L 534.351219 -79.552996 
L 536.532141 -77.280462 
L 538.713064 -76.113956 
L 540.893987 -75.659108 
L 543.07491 -80.99469 
L 545.255833 -91.222315 
L 547.436756 -93.712929 
L 549.617679 -94.253818 
L 551.798601 -93.792513 
L 553.979524 -91.921064 
L 556.160447 -84.990709 
L 558.34137 -77.364627 
L 560.522293 -69.147965 
L 562.703216 -67.902297 
L 564.884139 -78.997408 
L 567.065062 -89.843882 
L 569.245984 -92.676616 
L 571.426907 -90.765343 
L 573.60783 -89.398241 
L 575.788753 -92.934008 
L 577.969676 -94.07883 
L 580.150599 -94.556563 
L 582.331522 -92.332945 
L 584.512444 -85.57511 
L 586.693367 -84.223584 
L 588.87429 -89.039851 
L 591.055213 -92.698688 
L 593.236136 -94.85524 
L 595.417059 -94.622868 
L 597.597982 -88.957486 
L 599.778905 -80.351619 
L 601.959827 -73.182022 
L 604.14075 -72.525561 
L 606.321673 -75.027924 
L 608.502596 -76.766482 
L 610.683519 -76.007885 
L 612.864442 -77.659077 
L 615.045365 -80.331944 
L 617.226287 -84.075036 
L 619.40721 -86.312402 
L 621.588133 -85.042175 
L 623.769056 -85.306369 
L 625.949979 -85.999106 
L 628.130902 -88.537146 
L 630.311825 -92.326042 
L 632.492748 -91.714532 
L 634.67367 -91.329195 
L 636.854593 -94.51759 
L 639.035516 -97.610064 
L 641.216439 -99.901667 
L 643.397362 -98.971554 
L 645.578285 -96.568587 
L 647.759208 -96.262815 
L 649.94013 -96.609263 
L 652.121053 -97.160934 
L 654.301976 -98.379012 
L 656.482899 -98.589407 
L 658.663822 -95.967858 
L 660.844745 -89.45023 
L 663.025668 -86.291132 
L 665.20659 -86.185065 
L 667.387513 -83.396093 
L 669.568436 -83.409238 
L 671.749359 -84.228882 
L 673.930282 -83.775596 
L 676.111205 -84.851007 
L 678.292128 -89.10774 
L 680.473051 -90.577272 
L 682.653973 -86.582102 
L 684.834896 -80.898293 
L 687.015819 -75.864143 
L 689.196742 -73.553725 
L 691.377665 -77.761923 
L 693.558588 -81.57772 
L 695.739511 -81.084224 
L 697.920433 -80.854904 
L 700.101356 -83.150139 
L 702.282279 -86.588537 
L 704.463202 -86.25633 
L 706.644125 -83.356097 
L 708.825048 -79.234872 
L 711.005971 -76.592032 
L 711.005971 -96.393641 
L 711.005971 -96.393641 
L 708.825048 -100.113052 
L 706.644125 -104.809273 
L 704.463202 -107.612373 
L 702.282279 -106.853892 
L 700.101356 -102.901299 
L 697.920433 -100.621644 
L 695.739511 -101.146499 
L 693.558588 -100.097287 
L 691.377665 -96.307882 
L 689.196742 -92.749178 
L 687.015819 -95.042862 
L 684.834896 -100.021203 
L 682.653973 -106.24575 
L 680.473051 -110.22643 
L 678.292128 -108.205266 
L 676.111205 -103.819261 
L 673.930282 -102.29055 
L 671.749359 -103.046439 
L 669.568436 -102.557206 
L 667.387513 -102.550593 
L 665.20659 -105.850909 
L 663.025668 -105.681831 
L 660.844745 -108.773059 
L 658.663822 -115.557407 
L 656.482899 -117.989842 
L 654.301976 -116.698041 
L 652.121053 -114.170356 
L 649.94013 -113.825926 
L 647.759208 -114.03887 
L 645.578285 -115.213501 
L 643.397362 -118.296237 
L 641.216439 -119.285932 
L 639.035516 -117.50367 
L 636.854593 -116.043007 
L 634.67367 -111.120587 
L 632.492748 -110.264295 
L 630.311825 -111.374925 
L 628.130902 -107.967112 
L 625.949979 -104.065687 
L 623.769056 -103.695422 
L 621.588133 -103.070265 
L 619.40721 -104.579199 
L 617.226287 -103.509788 
L 615.045365 -100.115066 
L 612.864442 -97.673589 
L 610.683519 -96.492558 
L 608.502596 -97.522214 
L 606.321673 -94.887824 
L 604.14075 -92.286584 
L 601.959827 -94.369312 
L 599.778905 -103.156848 
L 597.597982 -112.6345 
L 595.417059 -118.967917 
L 593.236136 -116.962103 
L 591.055213 -113.003335 
L 588.87429 -109.037629 
L 586.693367 -102.71008 
L 584.512444 -103.450423 
L 582.331522 -111.521908 
L 580.150599 -114.642346 
L 577.969676 -114.703535 
L 575.788753 -113.36499 
L 573.60783 -108.654194 
L 571.426907 -109.346644 
L 569.245984 -111.320715 
L 567.065062 -106.91829 
L 564.884139 -96.792171 
L 562.703216 -86.465837 
L 560.522293 -91.079174 
L 558.34137 -104.392821 
L 556.160447 -115.878609 
L 553.979524 -123.405968 
L 551.798601 -122.221182 
L 549.617679 -116.949107 
L 547.436756 -112.631394 
L 545.255833 -109.505608 
L 543.07491 -98.122086 
L 540.893987 -92.444025 
L 538.713064 -93.377217 
L 536.532141 -94.219066 
L 534.351219 -96.985303 
L 532.170296 -95.759408 
L 529.989373 -94.010651 
L 527.80845 -93.573121 
L 525.627527 -97.844224 
L 523.446604 -102.343989 
L 521.265681 -104.432725 
L 519.084759 -105.466392 
z
" style="stroke: #1f77b4; stroke-opacity: 0.15"/>
    </defs>
    <g clip-path="url(#p8bbeabe1df)">
     <use xlink:href="#mc03d3fc0f6" x="0" y="215.397188" style="fill: #1f77b4; fill-opacity: 0.15; stroke: #1f77b4; stroke-opacity: 0.15"/>
    </g>
   </g>
   <g id="FillBetweenPolyCollection_6">
    <defs>
     <path id="md9c939a8a6" d="M 519.084759 -102.278152 
L 519.084759 -58.779292 
L 521.265681 -56.108118 
L 523.446604 -57.11538 
L 525.627527 -63.168524 
L 527.80845 -65.739236 
L 529.989373 -65.540599 
L 532.170296 -64.547229 
L 534.351219 -62.269216 
L 536.532141 -67.511982 
L 538.713064 -72.972178 
L 540.893987 -72.816965 
L 543.07491 -72.586318 
L 545.255833 -76.818771 
L 547.436756 -86.827777 
L 549.617679 -93.939855 
L 551.798601 -97.941003 
L 553.979524 -94.12881 
L 556.160447 -92.085309 
L 558.34137 -90.667437 
L 560.522293 -88.283603 
L 562.703216 -81.565213 
L 564.884139 -73.816686 
L 567.065062 -75.755879 
L 569.245984 -79.565367 
L 571.426907 -71.082874 
L 573.60783 -60.793701 
L 575.788753 -62.406226 
L 577.969676 -72.930795 
L 580.150599 -81.045006 
L 582.331522 -87.969399 
L 584.512444 -89.338971 
L 586.693367 -81.299562 
L 588.87429 -79.414566 
L 591.055213 -87.243735 
L 593.236136 -93.071131 
L 595.417059 -99.839395 
L 597.597982 -102.303298 
L 599.778905 -95.937863 
L 601.959827 -91.498327 
L 604.14075 -85.410731 
L 606.321673 -83.395053 
L 608.502596 -83.666829 
L 610.683519 -92.393011 
L 612.864442 -97.532326 
L 615.045365 -92.48996 
L 617.226287 -83.639544 
L 619.40721 -80.717715 
L 621.588133 -75.519821 
L 623.769056 -72.115254 
L 625.949979 -69.645771 
L 628.130902 -74.685742 
L 630.311825 -79.893503 
L 632.492748 -83.409374 
L 634.67367 -87.617169 
L 636.854593 -87.322134 
L 639.035516 -89.428546 
L 641.216439 -91.157959 
L 643.397362 -83.304524 
L 645.578285 -74.010634 
L 647.759208 -73.780054 
L 649.94013 -75.106396 
L 652.121053 -81.878486 
L 654.301976 -87.490753 
L 656.482899 -89.979324 
L 658.663822 -88.126964 
L 660.844745 -84.895895 
L 663.025668 -86.767967 
L 665.20659 -89.016061 
L 667.387513 -87.984715 
L 669.568436 -84.747786 
L 671.749359 -88.037898 
L 673.930282 -98.388789 
L 676.111205 -102.699294 
L 678.292128 -100.026781 
L 680.473051 -98.260266 
L 682.653973 -88.296198 
L 684.834896 -72.063244 
L 687.015819 -63.2135 
L 689.196742 -67.390692 
L 691.377665 -69.166478 
L 693.558588 -69.864673 
L 695.739511 -72.954242 
L 697.920433 -67.627883 
L 700.101356 -61.735677 
L 702.282279 -65.442263 
L 704.463202 -69.415979 
L 706.644125 -73.243075 
L 708.825048 -77.387078 
L 711.005971 -78.032643 
L 711.005971 -117.955121 
L 711.005971 -117.955121 
L 708.825048 -112.219103 
L 706.644125 -106.271492 
L 704.463202 -103.274117 
L 702.282279 -101.842127 
L 700.101356 -101.327662 
L 697.920433 -103.258146 
L 695.739511 -104.98759 
L 693.558588 -103.296982 
L 691.377665 -96.400858 
L 689.196742 -94.794468 
L 687.015819 -97.196061 
L 684.834896 -107.503269 
L 682.653973 -122.106161 
L 680.473051 -133.329578 
L 678.292128 -133.09401 
L 676.111205 -133.229066 
L 673.930282 -130.308712 
L 671.749359 -122.200445 
L 669.568436 -119.401259 
L 667.387513 -128.345989 
L 665.20659 -127.006471 
L 663.025668 -125.25537 
L 660.844745 -121.395726 
L 658.663822 -126.165533 
L 656.482899 -124.523909 
L 654.301976 -124.932199 
L 652.121053 -123.245987 
L 649.94013 -116.126409 
L 647.759208 -107.516201 
L 645.578285 -110.188791 
L 643.397362 -121.409397 
L 641.216439 -131.869821 
L 639.035516 -129.227769 
L 636.854593 -126.053059 
L 634.67367 -126.607176 
L 632.492748 -123.406179 
L 630.311825 -113.367736 
L 628.130902 -105.491888 
L 625.949979 -104.603383 
L 623.769056 -108.835192 
L 621.588133 -110.301169 
L 619.40721 -111.76145 
L 617.226287 -119.362797 
L 615.045365 -136.360183 
L 612.864442 -141.578765 
L 610.683519 -130.200627 
L 608.502596 -119.566918 
L 606.321673 -123.870754 
L 604.14075 -127.443316 
L 601.959827 -133.281083 
L 599.778905 -139.963799 
L 597.597982 -150.011665 
L 595.417059 -150.508097 
L 593.236136 -143.856234 
L 591.055213 -135.382792 
L 588.87429 -124.296234 
L 586.693367 -125.493261 
L 584.512444 -129.6822 
L 582.331522 -127.057241 
L 580.150599 -124.009352 
L 577.969676 -120.701911 
L 575.788753 -107.247947 
L 573.60783 -103.382945 
L 571.426907 -111.455213 
L 569.245984 -118.67768 
L 567.065062 -119.989098 
L 564.884139 -118.437777 
L 562.703216 -124.093062 
L 560.522293 -130.681769 
L 558.34137 -138.95304 
L 556.160447 -143.179502 
L 553.979524 -144.527193 
L 551.798601 -147.901348 
L 549.617679 -141.159441 
L 547.436756 -132.8303 
L 545.255833 -118.664546 
L 543.07491 -107.4249 
L 540.893987 -102.461952 
L 538.713064 -103.115067 
L 536.532141 -103.297632 
L 534.351219 -97.813915 
L 532.170296 -99.165474 
L 529.989373 -98.999077 
L 527.80845 -101.529435 
L 525.627527 -98.211928 
L 523.446604 -92.489105 
L 521.265681 -94.990308 
L 519.084759 -102.278152 
z
" style="stroke: #ff7f0e; stroke-opacity: 0.15"/>
    </defs>
    <g clip-path="url(#p8bbeabe1df)">
     <use xlink:href="#md9c939a8a6" x="0" y="215.397188" style="fill: #ff7f0e; fill-opacity: 0.15; stroke: #ff7f0e; stroke-opacity: 0.15"/>
    </g>
   </g>
   <g id="line2d_29">
    <path d="M 509.488698 125.450263 
L 720.602031 125.450263 
" clip-path="url(#p8bbeabe1df)" style="fill: none; stroke-dasharray: 2.96,1.28; stroke-dashoffset: 0; stroke: #000000; stroke-width: 0.8"/>
   </g>
   <g id="matplotlib.axis_5">
    <g id="xtick_11">
     <g id="line2d_30">
      <g>
       <use xlink:href="#mf9f4a24758" x="514.722913" y="182.68" style="stroke: #000000; stroke-width: 0.8"/>
      </g>
     </g>
     <g id="text_23">
      <!-- 0 -->
      <g transform="translate(512.496038 194.998906) scale(0.07 -0.07)">
       <use xlink:href="#DejaVuSans-30"/>
      </g>
     </g>
    </g>
    <g id="xtick_12">
     <g id="line2d_31">
      <g>
       <use xlink:href="#mf9f4a24758" x="558.34137" y="182.68" style="stroke: #000000; stroke-width: 0.8"/>
      </g>
     </g>
     <g id="text_24">
      <!-- 10 -->
      <g transform="translate(553.88762 194.998906) scale(0.07 -0.07)">
       <use xlink:href="#DejaVuSans-31"/>
       <use xlink:href="#DejaVuSans-30" transform="translate(63.623047 0)"/>
      </g>
     </g>
    </g>
    <g id="xtick_13">
     <g id="line2d_32">
      <g>
       <use xlink:href="#mf9f4a24758" x="601.959827" y="182.68" style="stroke: #000000; stroke-width: 0.8"/>
      </g>
     </g>
     <g id="text_25">
      <!-- 20 -->
      <g transform="translate(597.506077 194.998906) scale(0.07 -0.07)">
       <use xlink:href="#DejaVuSans-32"/>
       <use xlink:href="#DejaVuSans-30" transform="translate(63.623047 0)"/>
      </g>
     </g>
    </g>
    <g id="xtick_14">
     <g id="line2d_33">
      <g>
       <use xlink:href="#mf9f4a24758" x="645.578285" y="182.68" style="stroke: #000000; stroke-width: 0.8"/>
      </g>
     </g>
     <g id="text_26">
      <!-- 30 -->
      <g transform="translate(641.124535 194.998906) scale(0.07 -0.07)">
       <use xlink:href="#DejaVuSans-33"/>
       <use xlink:href="#DejaVuSans-30" transform="translate(63.623047 0)"/>
      </g>
     </g>
    </g>
    <g id="xtick_15">
     <g id="line2d_34">
      <g>
       <use xlink:href="#mf9f4a24758" x="689.196742" y="182.68" style="stroke: #000000; stroke-width: 0.8"/>
      </g>
     </g>
     <g id="text_27">
      <!-- 40 -->
      <g transform="translate(684.742992 194.998906) scale(0.07 -0.07)">
       <use xlink:href="#DejaVuSans-34"/>
       <use xlink:href="#DejaVuSans-30" transform="translate(63.623047 0)"/>
      </g>
     </g>
    </g>
    <g id="text_28">
     <!-- Frequency (Hz) -->
     <g transform="translate(584.881615 206.533437) scale(0.08 -0.08)">
      <use xlink:href="#DejaVuSans-46"/>
      <use xlink:href="#DejaVuSans-72" transform="translate(50.269531 0)"/>
      <use xlink:href="#DejaVuSans-65" transform="translate(89.132812 0)"/>
      <use xlink:href="#DejaVuSans-71" transform="translate(150.65625 0)"/>
      <use xlink:href="#DejaVuSans-75" transform="translate(214.132812 0)"/>
      <use xlink:href="#DejaVuSans-65" transform="translate(277.511719 0)"/>
      <use xlink:href="#DejaVuSans-6e" transform="translate(339.035156 0)"/>
      <use xlink:href="#DejaVuSans-63" transform="translate(402.414062 0)"/>
      <use xlink:href="#DejaVuSans-79" transform="translate(457.394531 0)"/>
      <use xlink:href="#DejaVuSans-20" transform="translate(516.574219 0)"/>
      <use xlink:href="#DejaVuSans-28" transform="translate(548.361328 0)"/>
      <use xlink:href="#DejaVuSans-48" transform="translate(587.375 0)"/>
      <use xlink:href="#DejaVuSans-7a" transform="translate(662.570312 0)"/>
      <use xlink:href="#DejaVuSans-29" transform="translate(715.060547 0)"/>
     </g>
    </g>
   </g>
   <g id="matplotlib.axis_6">
    <g id="ytick_13">
     <g id="line2d_35">
      <g>
       <use xlink:href="#mc1b5c5160f" x="509.488698" y="163.616444" style="stroke: #000000; stroke-width: 0.8"/>
      </g>
     </g>
    </g>
    <g id="ytick_14">
     <g id="line2d_36">
      <g>
       <use xlink:href="#mc1b5c5160f" x="509.488698" y="144.533353" style="stroke: #000000; stroke-width: 0.8"/>
      </g>
     </g>
    </g>
    <g id="ytick_15">
     <g id="line2d_37">
      <g>
       <use xlink:href="#mc1b5c5160f" x="509.488698" y="125.450263" style="stroke: #000000; stroke-width: 0.8"/>
      </g>
     </g>
    </g>
    <g id="ytick_16">
     <g id="line2d_38">
      <g>
       <use xlink:href="#mc1b5c5160f" x="509.488698" y="106.367172" style="stroke: #000000; stroke-width: 0.8"/>
      </g>
     </g>
    </g>
    <g id="ytick_17">
     <g id="line2d_39">
      <g>
       <use xlink:href="#mc1b5c5160f" x="509.488698" y="87.284081" style="stroke: #000000; stroke-width: 0.8"/>
      </g>
     </g>
    </g>
    <g id="ytick_18">
     <g id="line2d_40">
      <g>
       <use xlink:href="#mc1b5c5160f" x="509.488698" y="68.200991" style="stroke: #000000; stroke-width: 0.8"/>
      </g>
     </g>
    </g>
    <g id="text_29">
     <!-- ERD/ERS (dB) -->
     <g transform="translate(500.324948 148.236875) rotate(-90) scale(0.08 -0.08)">
      <use xlink:href="#DejaVuSans-45"/>
      <use xlink:href="#DejaVuSans-52" transform="translate(63.183594 0)"/>
      <use xlink:href="#DejaVuSans-44" transform="translate(132.666016 0)"/>
      <use xlink:href="#DejaVuSans-2f" transform="translate(209.667969 0)"/>
      <use xlink:href="#DejaVuSans-45" transform="translate(243.359375 0)"/>
      <use xlink:href="#DejaVuSans-52" transform="translate(306.542969 0)"/>
      <use xlink:href="#DejaVuSans-53" transform="translate(376.025391 0)"/>
      <use xlink:href="#DejaVuSans-20" transform="translate(439.501953 0)"/>
      <use xlink:href="#DejaVuSans-28" transform="translate(471.289062 0)"/>
      <use xlink:href="#DejaVuSans-64" transform="translate(510.302734 0)"/>
      <use xlink:href="#DejaVuSans-42" transform="translate(573.779297 0)"/>
      <use xlink:href="#DejaVuSans-29" transform="translate(642.382812 0)"/>
     </g>
    </g>
   </g>
   <g id="line2d_41">
    <path d="M 519.084759 120.258028 
L 521.265681 120.49865 
L 523.446604 122.210328 
L 525.627527 126.47761 
L 527.80845 130.394041 
L 529.989373 130.44419 
L 532.170296 128.553782 
L 534.351219 127.128038 
L 536.532141 129.647423 
L 538.713064 130.651601 
L 540.893987 131.345621 
L 543.07491 125.838799 
L 545.255833 115.033226 
L 547.436756 112.225026 
L 549.617679 109.795725 
L 551.798601 107.39034 
L 553.979524 107.733672 
L 556.160447 114.962528 
L 558.34137 124.518463 
L 560.522293 135.283618 
L 562.703216 138.21312 
L 564.884139 127.502398 
L 567.065062 117.016101 
L 569.245984 113.398522 
L 571.426907 115.341194 
L 573.60783 116.37097 
L 575.788753 112.247688 
L 577.969676 111.006005 
L 580.150599 110.797733 
L 582.331522 113.469761 
L 584.512444 120.884421 
L 586.693367 121.930356 
L 588.87429 116.358447 
L 591.055213 112.546176 
L 593.236136 109.488516 
L 595.417059 108.601795 
L 597.597982 114.601195 
L 599.778905 123.642954 
L 601.959827 131.621521 
L 604.14075 132.991115 
L 606.321673 130.439313 
L 608.502596 128.25284 
L 610.683519 129.146966 
L 612.864442 127.730854 
L 615.045365 125.173682 
L 617.226287 121.604776 
L 619.40721 119.951387 
L 621.588133 121.340967 
L 623.769056 120.896292 
L 625.949979 120.364791 
L 628.130902 117.145058 
L 630.311825 113.546704 
L 632.492748 114.407774 
L 634.67367 114.172297 
L 636.854593 110.116889 
L 639.035516 107.84032 
L 641.216439 105.803388 
L 643.397362 106.763292 
L 645.578285 109.506144 
L 647.759208 110.246345 
L 649.94013 110.179593 
L 652.121053 109.731542 
L 654.301976 107.858661 
L 656.482899 107.107563 
L 658.663822 109.634555 
L 660.844745 116.285543 
L 663.025668 119.410706 
L 665.20659 119.379201 
L 667.387513 122.423845 
L 669.568436 122.413966 
L 671.749359 121.759527 
L 673.930282 122.364114 
L 676.111205 121.062053 
L 678.292128 116.740684 
L 680.473051 114.995337 
L 682.653973 118.983262 
L 684.834896 124.93744 
L 687.015819 129.943685 
L 689.196742 132.245736 
L 691.377665 128.362285 
L 693.558588 124.559684 
L 695.739511 124.281826 
L 697.920433 124.658913 
L 700.101356 122.371468 
L 702.282279 118.675973 
L 704.463202 118.462836 
L 706.644125 121.314502 
L 708.825048 125.723225 
L 711.005971 128.904351 
" clip-path="url(#p8bbeabe1df)" style="fill: none; stroke: #1f77b4; stroke-width: 1.3; stroke-linecap: square"/>
   </g>
   <g id="line2d_42">
    <path d="M 519.084759 134.868465 
L 521.265681 139.847975 
L 523.446604 140.594945 
L 525.627527 134.706962 
L 527.80845 131.762852 
L 529.989373 133.12735 
L 532.170296 133.540836 
L 534.351219 135.355622 
L 536.532141 129.99238 
L 538.713064 127.353565 
L 540.893987 127.757729 
L 543.07491 125.391578 
L 545.255833 117.655529 
L 547.436756 105.568149 
L 549.617679 97.847539 
L 551.798601 92.476012 
L 553.979524 96.069186 
L 556.160447 97.764782 
L 558.34137 100.586949 
L 560.522293 105.914502 
L 562.703216 112.56805 
L 564.884139 119.269956 
L 567.065062 117.524699 
L 569.245984 116.275664 
L 571.426907 124.128144 
L 573.60783 133.308865 
L 575.788753 130.570101 
L 577.969676 118.580835 
L 580.150599 112.870008 
L 582.331522 107.883867 
L 584.512444 105.886602 
L 586.693367 112.000776 
L 588.87429 113.541787 
L 591.055213 104.083924 
L 593.236136 96.933505 
L 595.417059 90.223441 
L 597.597982 89.239706 
L 599.778905 97.446356 
L 601.959827 103.007482 
L 604.14075 108.970164 
L 606.321673 111.764284 
L 608.502596 113.780314 
L 610.683519 104.100368 
L 612.864442 95.841642 
L 615.045365 100.972116 
L 617.226287 113.896017 
L 619.40721 119.157605 
L 621.588133 122.486693 
L 623.769056 124.921964 
L 625.949979 128.27261 
L 628.130902 125.308372 
L 630.311825 118.766568 
L 632.492748 111.989411 
L 634.67367 108.285015 
L 636.854593 108.709591 
L 639.035516 106.06903 
L 641.216439 103.883298 
L 643.397362 113.040227 
L 645.578285 123.297475 
L 647.759208 124.74906 
L 649.94013 119.780785 
L 652.121053 112.834951 
L 654.301976 109.185712 
L 656.482899 108.145571 
L 658.663822 108.250939 
L 660.844745 112.251377 
L 663.025668 109.385519 
L 665.20659 107.385921 
L 667.387513 107.231835 
L 669.568436 113.322665 
L 671.749359 110.278016 
L 673.930282 101.048437 
L 676.111205 97.433008 
L 678.292128 98.836792 
L 680.473051 99.602266 
L 682.653973 110.196008 
L 684.834896 125.613931 
L 687.015819 135.192407 
L 689.196742 134.304608 
L 691.377665 132.61352 
L 693.558588 128.81636 
L 695.739511 126.426272 
L 697.920433 129.954173 
L 700.101356 133.865518 
L 702.282279 131.754993 
L 704.463202 129.052139 
L 706.644125 125.639904 
L 708.825048 120.594097 
L 711.005971 117.403305 
" clip-path="url(#p8bbeabe1df)" style="fill: none; stroke: #ff7f0e; stroke-width: 1.3; stroke-linecap: square"/>
   </g>
   <g id="patch_19">
    <path d="M 509.488698 182.68 
L 509.488698 59.28 
" style="fill: none; stroke: #000000; stroke-width: 0.8; stroke-linejoin: miter; stroke-linecap: square"/>
   </g>
   <g id="patch_20">
    <path d="M 720.602031 182.68 
L 720.602031 59.28 
" style="fill: none; stroke: #000000; stroke-width: 0.8; stroke-linejoin: miter; stroke-linecap: square"/>
   </g>
   <g id="patch_21">
    <path d="M 509.488698 182.68 
L 720.602031 182.68 
" style="fill: none; stroke: #000000; stroke-width: 0.8; stroke-linejoin: miter; stroke-linecap: square"/>
   </g>
   <g id="patch_22">
    <path d="M 509.488698 59.28 
L 720.602031 59.28 
" style="fill: none; stroke: #000000; stroke-width: 0.8; stroke-linejoin: miter; stroke-linecap: square"/>
   </g>
   <g id="text_30">
    <!-- C4 -->
    <g transform="translate(609.039974 53.28) scale(0.09 -0.09)">
     <use xlink:href="#DejaVuSans-43"/>
     <use xlink:href="#DejaVuSans-34" transform="translate(69.824219 0)"/>
    </g>
   </g>
  </g>
  <g id="text_31">
   <!-- ERD/ERS — MI — S05 (Movement vs Rest) -->
   <g transform="translate(248.408984 15.558281) scale(0.11 -0.11)">
    <defs>
     <path id="DejaVuSans-2014" d="M 313 1978 
L 6088 1978 
L 6088 1528 
L 313 1528 
L 313 1978 
z
" transform="scale(0.015625)"/>
     <path id="DejaVuSans-4d" d="M 628 4666 
L 1569 4666 
L 2759 1491 
L 3956 4666 
L 4897 4666 
L 4897 0 
L 4281 0 
L 4281 4097 
L 3078 897 
L 2444 897 
L 1241 4097 
L 1241 0 
L 628 0 
L 628 4666 
z
" transform="scale(0.015625)"/>
     <path id="DejaVuSans-49" d="M 628 4666 
L 1259 4666 
L 1259 0 
L 628 0 
L 628 4666 
z
" transform="scale(0.015625)"/>
     <path id="DejaVuSans-35" d="M 691 4666 
L 3169 4666 
L 3169 4134 
L 1269 4134 
L 1269 2991 
Q 1406 3038 1543 3061 
Q 1681 3084 1819 3084 
Q 2600 3084 3056 2656 
Q 3513 2228 3513 1497 
Q 3513 744 3044 326 
Q 2575 -91 1722 -91 
Q 1428 -91 1123 -41 
Q 819 9 494 109 
L 494 744 
Q 775 591 1075 516 
Q 1375 441 1709 441 
Q 2250 441 2565 725 
Q 2881 1009 2881 1497 
Q 2881 1984 2565 2268 
Q 2250 2553 1709 2553 
Q 1456 2553 1204 2497 
Q 953 2441 691 2322 
L 691 4666 
z
" transform="scale(0.015625)"/>
     <path id="DejaVuSans-6f" d="M 1959 3097 
Q 1497 3097 1228 2736 
Q 959 2375 959 1747 
Q 959 1119 1226 758 
Q 1494 397 1959 397 
Q 2419 397 2687 759 
Q 2956 1122 2956 1747 
Q 2956 2369 2687 2733 
Q 2419 3097 1959 3097 
z
M 1959 3584 
Q 2709 3584 3137 3096 
Q 3566 2609 3566 1747 
Q 3566 888 3137 398 
Q 2709 -91 1959 -91 
Q 1206 -91 779 398 
Q 353 888 353 1747 
Q 353 2609 779 3096 
Q 1206 3584 1959 3584 
z
" transform="scale(0.015625)"/>
     <path id="DejaVuSans-76" d="M 191 3500 
L 800 3500 
L 1894 563 
L 2988 3500 
L 3597 3500 
L 2284 0 
L 1503 0 
L 191 3500 
z
" transform="scale(0.015625)"/>
     <path id="DejaVuSans-6d" d="M 3328 2828 
Q 3544 3216 3844 3400 
Q 4144 3584 4550 3584 
Q 5097 3584 5394 3201 
Q 5691 2819 5691 2113 
L 5691 0 
L 5113 0 
L 5113 2094 
Q 5113 2597 4934 2840 
Q 4756 3084 4391 3084 
Q 3944 3084 3684 2787 
Q 3425 2491 3425 1978 
L 3425 0 
L 2847 0 
L 2847 2094 
Q 2847 2600 2669 2842 
Q 2491 3084 2119 3084 
Q 1678 3084 1418 2786 
Q 1159 2488 1159 1978 
L 1159 0 
L 581 0 
L 581 3500 
L 1159 3500 
L 1159 2956 
Q 1356 3278 1631 3431 
Q 1906 3584 2284 3584 
Q 2666 3584 2933 3390 
Q 3200 3197 3328 2828 
z
" transform="scale(0.015625)"/>
     <path id="DejaVuSans-74" d="M 1172 4494 
L 1172 3500 
L 2356 3500 
L 2356 3053 
L 1172 3053 
L 1172 1153 
Q 1172 725 1289 603 
Q 1406 481 1766 481 
L 2356 481 
L 2356 0 
L 1766 0 
Q 1100 0 847 248 
Q 594 497 594 1153 
L 594 3053 
L 172 3053 
L 172 3500 
L 594 3500 
L 594 4494 
L 1172 4494 
z
" transform="scale(0.015625)"/>
     <path id="DejaVuSans-73" d="M 2834 3397 
L 2834 2853 
Q 2591 2978 2328 3040 
Q 2066 3103 1784 3103 
Q 1356 3103 1142 2972 
Q 928 2841 928 2578 
Q 928 2378 1081 2264 
Q 1234 2150 1697 2047 
L 1894 2003 
Q 2506 1872 2764 1633 
Q 3022 1394 3022 966 
Q 3022 478 2636 193 
Q 2250 -91 1575 -91 
Q 1294 -91 989 -36 
Q 684 19 347 128 
L 347 722 
Q 666 556 975 473 
Q 1284 391 1588 391 
Q 1994 391 2212 530 
Q 2431 669 2431 922 
Q 2431 1156 2273 1281 
Q 2116 1406 1581 1522 
L 1381 1569 
Q 847 1681 609 1914 
Q 372 2147 372 2553 
Q 372 3047 722 3315 
Q 1072 3584 1716 3584 
Q 2034 3584 2315 3537 
Q 2597 3491 2834 3397 
z
" transform="scale(0.015625)"/>
    </defs>
    <use xlink:href="#DejaVuSans-45"/>
    <use xlink:href="#DejaVuSans-52" transform="translate(63.183594 0)"/>
    <use xlink:href="#DejaVuSans-44" transform="translate(132.666016 0)"/>
    <use xlink:href="#DejaVuSans-2f" transform="translate(209.667969 0)"/>
    <use xlink:href="#DejaVuSans-45" transform="translate(243.359375 0)"/>
    <use xlink:href="#DejaVuSans-52" transform="translate(306.542969 0)"/>
    <use xlink:href="#DejaVuSans-53" transform="translate(376.025391 0)"/>
    <use xlink:href="#DejaVuSans-20" transform="translate(439.501953 0)"/>
    <use xlink:href="#DejaVuSans-2014" transform="translate(471.289062 0)"/>
    <use xlink:href="#DejaVuSans-20" transform="translate(571.289062 0)"/>
    <use xlink:href="#DejaVuSans-4d" transform="translate(603.076172 0)"/>
    <use xlink:href="#DejaVuSans-49" transform="translate(689.355469 0)"/>
    <use xlink:href="#DejaVuSans-20" transform="translate(718.847656 0)"/>
    <use xlink:href="#DejaVuSans-2014" transform="translate(750.634766 0)"/>
    <use xlink:href="#DejaVuSans-20" transform="translate(850.634766 0)"/>
    <use xlink:href="#DejaVuSans-53" transform="translate(882.421875 0)"/>
    <use xlink:href="#DejaVuSans-30" transform="translate(945.898438 0)"/>
    <use xlink:href="#DejaVuSans-35" transform="translate(1009.521484 0)"/>
    <use xlink:href="#DejaVuSans-20" transform="translate(1073.144531 0)"/>
    <use xlink:href="#DejaVuSans-28" transform="translate(1104.931641 0)"/>
    <use xlink:href="#DejaVuSans-4d" transform="translate(1143.945312 0)"/>
    <use xlink:href="#DejaVuSans-6f" transform="translate(1230.224609 0)"/>
    <use xlink:href="#DejaVuSans-76" transform="translate(1291.40625 0)"/>
    <use xlink:href="#DejaVuSans-65" transform="translate(1350.585938 0)"/>
    <use xlink:href="#DejaVuSans-6d" transform="translate(1412.109375 0)"/>
    <use xlink:href="#DejaVuSans-65" transform="translate(1509.521484 0)"/>
    <use xlink:href="#DejaVuSans-6e" transform="translate(1571.044922 0)"/>
    <use xlink:href="#DejaVuSans-74" transform="translate(1634.423828 0)"/>
    <use xlink:href="#DejaVuSans-20" transform="translate(1673.632812 0)"/>
    <use xlink:href="#DejaVuSans-76" transform="translate(1705.419922 0)"/>
    <use xlink:href="#DejaVuSans-73" transform="translate(1764.599609 0)"/>
    <use xlink:href="#DejaVuSans-20" transform="translate(1816.699219 0)"/>
    <use xlink:href="#DejaVuSans-52" transform="translate(1848.486328 0)"/>
    <use xlink:href="#DejaVuSans-65" transform="translate(1913.46875 0)"/>
    <use xlink:href="#DejaVuSans-73" transform="translate(1974.992188 0)"/>
    <use xlink:href="#DejaVuSans-74" transform="translate(2027.091797 0)"/>
    <use xlink:href="#DejaVuSans-29" transform="translate(2066.300781 0)"/>
   </g>
  </g>
  <g id="legend_1">
   <g id="patch_23">
    <path d="M 663.350812 30.109375 
L 722.830031 30.109375 
Q 724.230031 30.109375 724.230031 28.709375 
L 724.230031 8.86 
Q 724.230031 7.46 722.830031 7.46 
L 663.350812 7.46 
Q 661.950812 7.46 661.950812 8.86 
L 661.950812 28.709375 
Q 661.950812 30.109375 663.350812 30.109375 
z
" style="fill: #ffffff; opacity: 0.8; stroke: #cccccc; stroke-linejoin: miter"/>
   </g>
   <g id="line2d_43">
    <path d="M 664.750812 13.128906 
L 671.750812 13.128906 
L 678.750812 13.128906 
" style="fill: none; stroke: #1f77b4; stroke-width: 1.3; stroke-linecap: square"/>
   </g>
   <g id="text_32">
    <!-- Movement -->
    <g transform="translate(684.350812 15.578906) scale(0.07 -0.07)">
     <use xlink:href="#DejaVuSans-4d"/>
     <use xlink:href="#DejaVuSans-6f" transform="translate(86.279297 0)"/>
     <use xlink:href="#DejaVuSans-76" transform="translate(147.460938 0)"/>
     <use xlink:href="#DejaVuSans-65" transform="translate(206.640625 0)"/>
     <use xlink:href="#DejaVuSans-6d" transform="translate(268.164062 0)"/>
     <use xlink:href="#DejaVuSans-65" transform="translate(365.576172 0)"/>
     <use xlink:href="#DejaVuSans-6e" transform="translate(427.099609 0)"/>
     <use xlink:href="#DejaVuSans-74" transform="translate(490.478516 0)"/>
    </g>
   </g>
   <g id="line2d_44">
    <path d="M 664.750812 23.403594 
L 671.750812 23.403594 
L 678.750812 23.403594 
" style="fill: none; stroke: #ff7f0e; stroke-width: 1.3; stroke-linecap: square"/>
   </g>
   <g id="text_33">
    <!-- rest -->
    <g transform="translate(684.350812 25.853594) scale(0.07 -0.07)">
     <use xlink:href="#DejaVuSans-72"/>
     <use xlink:href="#DejaVuSans-65" transform="translate(38.863281 0)"/>
     <use xlink:href="#DejaVuSans-73" transform="translate(100.386719 0)"/>
     <use xlink:href="#DejaVuSans-74" transform="translate(152.486328 0)"/>
    </g>
   </g>
  </g>
 </g>
 <defs>
  <clipPath id="p3cd40f16cb">
   <rect x="36.262031" y="59.28" width="211.113333" height="123.4"/>
  </clipPath>
  <clipPath id="pc017a1a4a1">
   <rect x="272.875365" y="59.28" width="211.113333" height="123.4"/>
  </clipPath>
  <clipPath id="p8bbeabe1df">
   <rect x="509.488698" y="59.28" width="211.113333" height="123.4"/>
  </clipPath>
 </defs>
</svg>
