<?xml version="1.0" encoding="utf-8" standalone="no"?>
<!DOCTYPE svg PUBLIC "-//W3C//DTD SVG 1.1//EN"
  "http://www.w3.org/Graphics/SVG/1.1/DTD/svg11.dtd">
<svg xmlns:xlink="http://www.w3.org/1999/xlink" width="731.430031pt" height="215.397188pt" viewBox="0 0 731.430031 215.397188" xmlns="http://www.w3.org/2000/svg" version="1.1">
 <metadata>
  <rdf:RDF xmlns:dc="http://purl.org/dc/elements/1.1/" xmlns:cc="http://creativecommons.org/ns#" xmlns:rdf="http://www.w3.org/1999/02/22-rdf-syntax-ns#">
   <cc:Work>
    <dc:type rdf:resource="http://purl.org/dc/dcmitype/StillImage"/>
    <dc:date>2026-06-26T22:25:41.617109</dc:date>
    <dc:format>image/svg+xml</dc:format>
    <dc:creator>
     <cc:Agent>
      <dc:title>Matplotlib v3.10.9, https://matplotlib.org/</dc:title>
     </cc:Agent>
    </dc:creator>
   </cc:Work>
  </rdf:RDF>
 </metadata>
 <defs>
  <style type="text/css">*{stroke-linejoin: round; stroke-linecap: butt}</style>
 </defs>
 <g id="figure_1">
  <g id="patch_1">
   <path d="M 0 215.397188 
L 731.430031 215.397188 
L 731.430031 0 
L 0 0 
L 0 215.397188 
z
" style="fill: none"/>
  </g>
  <g id="axes_1">
   <g id="patch_2">
    <path d="M 36.262031 182.68 
L 247.375365 182.68 
L 247.375365 59.28 
L 36.262031 59.28 
L 36.262031 182.68 
z
" style="fill: none"/>
   </g>
   <g id="patch_3">
    <path d="M 76.391012 182.68 
L 98.200241 182.68 
L 98.200241 59.28 
L 76.391012 59.28 
z
" clip-path="url(#pe7d785e443)" style="fill: #d9d9d9; stroke: #d9d9d9; stroke-linejoin: miter"/>
   </g>
   <g id="patch_4">
    <path d="M 98.200241 182.68 
L 172.351618 182.68 
L 172.351618 59.28 
L 98.200241 59.28 
z
" clip-path="url(#pe7d785e443)" style="fill: #ebebeb; stroke: #ebebeb; stroke-linejoin: miter"/>
   </g>
   <g id="FillBetweenPolyCollection_1">
    <defs>
     <path id="m5a7d22a8d6" d="M 45.858092 -106.121644 
L 45.858092 -91.371617 
L 48.039015 -90.979408 
L 50.219938 -89.748844 
L 52.40086 -87.166239 
L 54.581783 -85.000874 
L 56.762706 -84.120488 
L 58.943629 -85.562198 
L 61.124552 -85.952239 
L 63.305475 -85.757183 
L 65.486398 -86.199505 
L 67.667321 -82.871945 
L 69.848243 -77.55252 
L 72.029166 -73.135932 
L 74.210089 -67.919782 
L 76.391012 -57.827429 
L 78.571935 -46.801314 
L 80.752858 -40.358728 
L 82.933781 -38.326278 
L 85.114703 -39.394411 
L 87.295626 -47.00992 
L 89.476549 -61.976953 
L 91.657472 -79.428328 
L 93.838395 -89.039346 
L 96.019318 -91.376115 
L 98.200241 -90.247025 
L 100.381163 -89.795803 
L 102.562086 -86.852277 
L 104.743009 -83.425061 
L 106.923932 -80.598953 
L 109.104855 -76.320106 
L 111.285778 -71.533429 
L 113.466701 -72.427527 
L 115.647624 -75.093624 
L 117.828546 -75.086197 
L 120.009469 -70.914309 
L 122.190392 -64.841254 
L 124.371315 -62.080492 
L 126.552238 -61.993526 
L 128.733161 -60.916985 
L 130.914084 -65.168174 
L 133.095006 -72.906837 
L 135.275929 -77.741489 
L 137.456852 -77.613994 
L 139.637775 -74.399155 
L 141.818698 -71.133734 
L 143.999621 -69.10535 
L 146.180544 -71.280034 
L 148.361467 -72.732121 
L 150.542389 -73.671113 
L 152.723312 -76.003612 
L 154.904235 -76.53769 
L 157.085158 -77.400166 
L 159.266081 -79.794865 
L 161.447004 -79.374267 
L 163.627927 -78.846038 
L 165.808849 -80.001858 
L 167.989772 -80.436957 
L 170.170695 -85.083361 
L 172.351618 -90.285077 
L 174.532541 -91.837055 
L 176.713464 -89.543234 
L 178.894387 -87.500502 
L 181.075309 -87.574666 
L 183.256232 -88.381258 
L 185.437155 -89.8892 
L 187.618078 -91.572423 
L 189.799001 -90.854817 
L 191.979924 -92.246187 
L 194.160847 -93.092707 
L 196.34177 -92.600551 
L 198.522692 -91.680374 
L 200.703615 -90.749158 
L 202.884538 -91.60891 
L 205.065461 -95.022102 
L 207.246384 -96.619846 
L 209.427307 -96.303846 
L 211.60823 -93.898149 
L 213.789152 -91.351059 
L 215.970075 -91.932169 
L 218.150998 -93.25451 
L 220.331921 -92.627873 
L 222.512844 -90.694276 
L 224.693767 -88.716319 
L 226.87469 -87.67359 
L 229.055613 -88.167538 
L 231.236535 -89.026613 
L 233.417458 -88.701812 
L 235.598381 -89.128615 
L 237.779304 -90.370662 
L 237.779304 -104.38967 
L 237.779304 -104.38967 
L 235.598381 -103.713775 
L 233.417458 -102.248829 
L 231.236535 -102.33513 
L 229.055613 -100.835175 
L 226.87469 -100.410813 
L 224.693767 -102.527204 
L 222.512844 -105.982283 
L 220.331921 -107.45934 
L 218.150998 -107.08688 
L 215.970075 -106.14469 
L 213.789152 -104.393198 
L 211.60823 -106.672157 
L 209.427307 -109.454603 
L 207.246384 -110.137704 
L 205.065461 -108.653543 
L 202.884538 -105.498662 
L 200.703615 -104.713316 
L 198.522692 -105.388343 
L 196.34177 -106.72709 
L 194.160847 -107.545548 
L 191.979924 -106.518672 
L 189.799001 -104.948565 
L 187.618078 -104.922352 
L 185.437155 -103.408859 
L 183.256232 -102.646104 
L 181.075309 -100.914788 
L 178.894387 -100.812868 
L 176.713464 -101.841898 
L 174.532541 -103.955508 
L 172.351618 -103.068756 
L 170.170695 -98.270938 
L 167.989772 -93.144198 
L 165.808849 -92.698543 
L 163.627927 -91.458418 
L 161.447004 -92.181449 
L 159.266081 -93.142138 
L 157.085158 -90.942563 
L 154.904235 -89.807734 
L 152.723312 -89.1159 
L 150.542389 -87.164917 
L 148.361467 -86.242465 
L 146.180544 -85.398742 
L 143.999621 -83.420917 
L 141.818698 -85.506449 
L 139.637775 -88.419598 
L 137.456852 -92.405388 
L 135.275929 -92.034495 
L 133.095006 -87.03151 
L 130.914084 -79.494346 
L 128.733161 -75.051754 
L 126.552238 -76.847738 
L 124.371315 -77.413324 
L 122.190392 -80.629208 
L 120.009469 -86.724459 
L 117.828546 -90.882608 
L 115.647624 -90.861967 
L 113.466701 -88.508535 
L 111.285778 -87.328253 
L 109.104855 -92.17191 
L 106.923932 -95.621569 
L 104.743009 -97.918125 
L 102.562086 -100.781105 
L 100.381163 -104.515197 
L 98.200241 -105.187336 
L 96.019318 -105.948327 
L 93.838395 -103.52162 
L 91.657472 -93.724056 
L 89.476549 -76.62578 
L 87.295626 -63.105179 
L 85.114703 -56.46993 
L 82.933781 -55.745711 
L 80.752858 -57.437989 
L 78.571935 -63.201904 
L 76.391012 -73.458888 
L 74.210089 -82.864312 
L 72.029166 -87.559964 
L 69.848243 -91.762873 
L 67.667321 -96.853632 
L 65.486398 -100.205429 
L 63.305475 -98.555351 
L 61.124552 -97.920977 
L 58.943629 -97.877696 
L 56.762706 -96.310634 
L 54.581783 -97.591613 
L 52.40086 -101.06557 
L 50.219938 -103.252291 
L 48.039015 -104.777598 
L 45.858092 -106.121644 
z
" style="stroke: #1f77b4; stroke-opacity: 0.15"/>
    </defs>
    <g clip-path="url(#pe7d785e443)">
     <use xlink:href="#m5a7d22a8d6" x="0" y="215.397188" style="fill: #1f77b4; fill-opacity: 0.15; stroke: #1f77b4; stroke-opacity: 0.15"/>
    </g>
   </g>
   <g id="FillBetweenPolyCollection_2">
    <defs>
     <path id="m02db93e899" d="M 45.858092 -118.467721 
L 45.858092 -88.500058 
L 48.039015 -86.143018 
L 50.219938 -84.758521 
L 52.40086 -84.620612 
L 54.581783 -82.357371 
L 56.762706 -75.947796 
L 58.943629 -76.768331 
L 61.124552 -80.560284 
L 63.305475 -82.543771 
L 65.486398 -84.073628 
L 67.667321 -83.118834 
L 69.848243 -82.977068 
L 72.029166 -82.759968 
L 74.210089 -82.199126 
L 76.391012 -80.93408 
L 78.571935 -79.101258 
L 80.752858 -80.013953 
L 82.933781 -83.235609 
L 85.114703 -82.285123 
L 87.295626 -81.163048 
L 89.476549 -79.599153 
L 91.657472 -84.945725 
L 93.838395 -93.447108 
L 96.019318 -92.619917 
L 98.200241 -89.122426 
L 100.381163 -86.642691 
L 102.562086 -82.862349 
L 104.743009 -84.759574 
L 106.923932 -91.645624 
L 109.104855 -95.239201 
L 111.285778 -92.601253 
L 113.466701 -82.927971 
L 115.647624 -74.077669 
L 117.828546 -73.778131 
L 120.009469 -79.349356 
L 122.190392 -87.798051 
L 124.371315 -92.217237 
L 126.552238 -93.003391 
L 128.733161 -90.673485 
L 130.914084 -90.112284 
L 133.095006 -93.447053 
L 135.275929 -93.713319 
L 137.456852 -92.413879 
L 139.637775 -89.42297 
L 141.818698 -87.839271 
L 143.999621 -83.118809 
L 146.180544 -79.716626 
L 148.361467 -83.730461 
L 150.542389 -89.400441 
L 152.723312 -91.035001 
L 154.904235 -91.618885 
L 157.085158 -91.470588 
L 159.266081 -92.163657 
L 161.447004 -88.198795 
L 163.627927 -85.373764 
L 165.808849 -89.160681 
L 167.989772 -96.638955 
L 170.170695 -100.66633 
L 172.351618 -100.004745 
L 174.532541 -94.105863 
L 176.713464 -91.331515 
L 178.894387 -97.142038 
L 181.075309 -103.622948 
L 183.256232 -99.162208 
L 185.437155 -85.668896 
L 187.618078 -77.883998 
L 189.799001 -78.363622 
L 191.979924 -83.79865 
L 194.160847 -91.035355 
L 196.34177 -97.972039 
L 198.522692 -97.290962 
L 200.703615 -88.666342 
L 202.884538 -84.050274 
L 205.065461 -85.369418 
L 207.246384 -86.871891 
L 209.427307 -82.672801 
L 211.60823 -75.531734 
L 213.789152 -77.867205 
L 215.970075 -84.195055 
L 218.150998 -86.424795 
L 220.331921 -92.078104 
L 222.512844 -95.741943 
L 224.693767 -94.863148 
L 226.87469 -89.389816 
L 229.055613 -83.176085 
L 231.236535 -78.065321 
L 233.417458 -77.673042 
L 235.598381 -80.556257 
L 237.779304 -81.658536 
L 237.779304 -106.422669 
L 237.779304 -106.422669 
L 235.598381 -104.05369 
L 233.417458 -99.517614 
L 231.236535 -103.221098 
L 229.055613 -108.857152 
L 226.87469 -114.992206 
L 224.693767 -120.098193 
L 222.512844 -118.80442 
L 220.331921 -117.516149 
L 218.150998 -111.325846 
L 215.970075 -114.201427 
L 213.789152 -107.874939 
L 211.60823 -105.245585 
L 209.427307 -109.537386 
L 207.246384 -110.986056 
L 205.065461 -111.589835 
L 202.884538 -111.43361 
L 200.703615 -113.369194 
L 198.522692 -117.284579 
L 196.34177 -119.827311 
L 194.160847 -117.770264 
L 191.979924 -113.814561 
L 189.799001 -110.20523 
L 187.618078 -108.802921 
L 185.437155 -117.277704 
L 183.256232 -127.933563 
L 181.075309 -130.155183 
L 178.894387 -120.633052 
L 176.713464 -118.826053 
L 174.532541 -120.978004 
L 172.351618 -126.246168 
L 170.170695 -123.574667 
L 167.989772 -120.062465 
L 165.808849 -116.041909 
L 163.627927 -117.064251 
L 161.447004 -120.254563 
L 159.266081 -124.973355 
L 157.085158 -124.966523 
L 154.904235 -119.311078 
L 152.723312 -115.567724 
L 150.542389 -115.677911 
L 148.361467 -110.782466 
L 146.180544 -109.816167 
L 143.999621 -114.467808 
L 141.818698 -116.100345 
L 139.637775 -110.800063 
L 137.456852 -116.09239 
L 135.275929 -119.563612 
L 133.095006 -122.051108 
L 130.914084 -119.148794 
L 128.733161 -121.984596 
L 126.552238 -127.335368 
L 124.371315 -125.139759 
L 122.190392 -115.577675 
L 120.009469 -107.552257 
L 117.828546 -106.525198 
L 115.647624 -103.264195 
L 113.466701 -111.282906 
L 111.285778 -123.686066 
L 109.104855 -126.013017 
L 106.923932 -122.085494 
L 104.743009 -117.079778 
L 102.562086 -114.980891 
L 100.381163 -117.17396 
L 98.200241 -117.842916 
L 96.019318 -120.433396 
L 93.838395 -118.827476 
L 91.657472 -108.889285 
L 89.476549 -104.871468 
L 87.295626 -108.635664 
L 85.114703 -115.723657 
L 82.933781 -122.421963 
L 80.752858 -120.143721 
L 78.571935 -123.80989 
L 76.391012 -124.882019 
L 74.210089 -117.981892 
L 72.029166 -112.73514 
L 69.848243 -112.99637 
L 67.667321 -109.737847 
L 65.486398 -108.487699 
L 63.305475 -108.020933 
L 61.124552 -104.901638 
L 58.943629 -98.364767 
L 56.762706 -100.605301 
L 54.581783 -108.513192 
L 52.40086 -112.520987 
L 50.219938 -111.884259 
L 48.039015 -113.80536 
L 45.858092 -118.467721 
z
" style="stroke: #ff7f0e; stroke-opacity: 0.15"/>
    </defs>
    <g clip-path="url(#pe7d785e443)">
     <use xlink:href="#m02db93e899" x="0" y="215.397188" style="fill: #ff7f0e; fill-opacity: 0.15; stroke: #ff7f0e; stroke-opacity: 0.15"/>
    </g>
   </g>
   <g id="line2d_1">
    <path d="M 36.262031 111.626791 
L 247.375365 111.626791 
" clip-path="url(#pe7d785e443)" style="fill: none; stroke-dasharray: 2.96,1.28; stroke-dashoffset: 0; stroke: #000000; stroke-width: 0.8"/>
   </g>
   <g id="matplotlib.axis_1">
    <g id="xtick_1">
     <g id="line2d_2">
      <defs>
       <path id="m8e6aca1a07" d="M 0 0 
L 0 3.5 
" style="stroke: #000000; stroke-width: 0.8"/>
      </defs>
      <g>
       <use xlink:href="#m8e6aca1a07" x="41.496246" y="182.68" style="stroke: #000000; stroke-width: 0.8"/>
      </g>
     </g>
     <g id="text_1">
      <!-- 0 -->
      <g transform="translate(39.269371 194.998906) scale(0.07 -0.07)">
       <defs>
        <path id="DejaVuSans-30" d="M 2034 4250 
Q 1547 4250 1301 3770 
Q 1056 3291 1056 2328 
Q 1056 1369 1301 889 
Q 1547 409 2034 409 
Q 2525 409 2770 889 
Q 3016 1369 3016 2328 
Q 3016 3291 2770 3770 
Q 2525 4250 2034 4250 
z
M 2034 4750 
Q 2819 4750 3233 4129 
Q 3647 3509 3647 2328 
Q 3647 1150 3233 529 
Q 2819 -91 2034 -91 
Q 1250 -91 836 529 
Q 422 1150 422 2328 
Q 422 3509 836 4129 
Q 1250 4750 2034 4750 
z
" transform="scale(0.015625)"/>
       </defs>
       <use xlink:href="#DejaVuSans-30"/>
      </g>
     </g>
    </g>
    <g id="xtick_2">
     <g id="line2d_3">
      <g>
       <use xlink:href="#m8e6aca1a07" x="85.114703" y="182.68" style="stroke: #000000; stroke-width: 0.8"/>
      </g>
     </g>
     <g id="text_2">
      <!-- 10 -->
      <g transform="translate(80.660953 194.998906) scale(0.07 -0.07)">
       <defs>
        <path id="DejaVuSans-31" d="M 794 531 
L 1825 531 
L 1825 4091 
L 703 3866 
L 703 4441 
L 1819 4666 
L 2450 4666 
L 2450 531 
L 3481 531 
L 3481 0 
L 794 0 
L 794 531 
z
" transform="scale(0.015625)"/>
       </defs>
       <use xlink:href="#DejaVuSans-31"/>
       <use xlink:href="#DejaVuSans-30" transform="translate(63.623047 0)"/>
      </g>
     </g>
    </g>
    <g id="xtick_3">
     <g id="line2d_4">
      <g>
       <use xlink:href="#m8e6aca1a07" x="128.733161" y="182.68" style="stroke: #000000; stroke-width: 0.8"/>
      </g>
     </g>
     <g id="text_3">
      <!-- 20 -->
      <g transform="translate(124.279411 194.998906) scale(0.07 -0.07)">
       <defs>
        <path id="DejaVuSans-32" d="M 1228 531 
L 3431 531 
L 3431 0 
L 469 0 
L 469 531 
Q 828 903 1448 1529 
Q 2069 2156 2228 2338 
Q 2531 2678 2651 2914 
Q 2772 3150 2772 3378 
Q 2772 3750 2511 3984 
Q 2250 4219 1831 4219 
Q 1534 4219 1204 4116 
Q 875 4013 500 3803 
L 500 4441 
Q 881 4594 1212 4672 
Q 1544 4750 1819 4750 
Q 2544 4750 2975 4387 
Q 3406 4025 3406 3419 
Q 3406 3131 3298 2873 
Q 3191 2616 2906 2266 
Q 2828 2175 2409 1742 
Q 1991 1309 1228 531 
z
" transform="scale(0.015625)"/>
       </defs>
       <use xlink:href="#DejaVuSans-32"/>
       <use xlink:href="#DejaVuSans-30" transform="translate(63.623047 0)"/>
      </g>
     </g>
    </g>
    <g id="xtick_4">
     <g id="line2d_5">
      <g>
       <use xlink:href="#m8e6aca1a07" x="172.351618" y="182.68" style="stroke: #000000; stroke-width: 0.8"/>
      </g>
     </g>
     <g id="text_4">
      <!-- 30 -->
      <g transform="translate(167.897868 194.998906) scale(0.07 -0.07)">
       <defs>
        <path id="DejaVuSans-33" d="M 2597 2516 
Q 3050 2419 3304 2112 
Q 3559 1806 3559 1356 
Q 3559 666 3084 287 
Q 2609 -91 1734 -91 
Q 1441 -91 1130 -33 
Q 819 25 488 141 
L 488 750 
Q 750 597 1062 519 
Q 1375 441 1716 441 
Q 2309 441 2620 675 
Q 2931 909 2931 1356 
Q 2931 1769 2642 2001 
Q 2353 2234 1838 2234 
L 1294 2234 
L 1294 2753 
L 1863 2753 
Q 2328 2753 2575 2939 
Q 2822 3125 2822 3475 
Q 2822 3834 2567 4026 
Q 2313 4219 1838 4219 
Q 1578 4219 1281 4162 
Q 984 4106 628 3988 
L 628 4550 
Q 988 4650 1302 4700 
Q 1616 4750 1894 4750 
Q 2613 4750 3031 4423 
Q 3450 4097 3450 3541 
Q 3450 3153 3228 2886 
Q 3006 2619 2597 2516 
z
" transform="scale(0.015625)"/>
       </defs>
       <use xlink:href="#DejaVuSans-33"/>
       <use xlink:href="#DejaVuSans-30" transform="translate(63.623047 0)"/>
      </g>
     </g>
    </g>
    <g id="xtick_5">
     <g id="line2d_6">
      <g>
       <use xlink:href="#m8e6aca1a07" x="215.970075" y="182.68" style="stroke: #000000; stroke-width: 0.8"/>
      </g>
     </g>
     <g id="text_5">
      <!-- 40 -->
      <g transform="translate(211.516325 194.998906) scale(0.07 -0.07)">
       <defs>
        <path id="DejaVuSans-34" d="M 2419 4116 
L 825 1625 
L 2419 1625 
L 2419 4116 
z
M 2253 4666 
L 3047 4666 
L 3047 1625 
L 3713 1625 
L 3713 1100 
L 3047 1100 
L 3047 0 
L 2419 0 
L 2419 1100 
L 313 1100 
L 313 1709 
L 2253 4666 
z
" transform="scale(0.015625)"/>
       </defs>
       <use xlink:href="#DejaVuSans-34"/>
       <use xlink:href="#DejaVuSans-30" transform="translate(63.623047 0)"/>
      </g>
     </g>
    </g>
    <g id="text_6">
     <!-- Frequency (Hz) -->
     <g transform="translate(111.654948 206.533437) scale(0.08 -0.08)">
      <defs>
       <path id="DejaVuSans-46" d="M 628 4666 
L 3309 4666 
L 3309 4134 
L 1259 4134 
L 1259 2759 
L 3109 2759 
L 3109 2228 
L 1259 2228 
L 1259 0 
L 628 0 
L 628 4666 
z
" transform="scale(0.015625)"/>
       <path id="DejaVuSans-72" d="M 2631 2963 
Q 2534 3019 2420 3045 
Q 2306 3072 2169 3072 
Q 1681 3072 1420 2755 
Q 1159 2438 1159 1844 
L 1159 0 
L 581 0 
L 581 3500 
L 1159 3500 
L 1159 2956 
Q 1341 3275 1631 3429 
Q 1922 3584 2338 3584 
Q 2397 3584 2469 3576 
Q 2541 3569 2628 3553 
L 2631 2963 
z
" transform="scale(0.015625)"/>
       <path id="DejaVuSans-65" d="M 3597 1894 
L 3597 1613 
L 953 1613 
Q 991 1019 1311 708 
Q 1631 397 2203 397 
Q 2534 397 2845 478 
Q 3156 559 3463 722 
L 3463 178 
Q 3153 47 2828 -22 
Q 2503 -91 2169 -91 
Q 1331 -91 842 396 
Q 353 884 353 1716 
Q 353 2575 817 3079 
Q 1281 3584 2069 3584 
Q 2775 3584 3186 3129 
Q 3597 2675 3597 1894 
z
M 3022 2063 
Q 3016 2534 2758 2815 
Q 2500 3097 2075 3097 
Q 1594 3097 1305 2825 
Q 1016 2553 972 2059 
L 3022 2063 
z
" transform="scale(0.015625)"/>
       <path id="DejaVuSans-71" d="M 947 1747 
Q 947 1113 1208 752 
Q 1469 391 1925 391 
Q 2381 391 2643 752 
Q 2906 1113 2906 1747 
Q 2906 2381 2643 2742 
Q 2381 3103 1925 3103 
Q 1469 3103 1208 2742 
Q 947 2381 947 1747 
z
M 2906 525 
Q 2725 213 2448 61 
Q 2172 -91 1784 -91 
Q 1150 -91 751 415 
Q 353 922 353 1747 
Q 353 2572 751 3078 
Q 1150 3584 1784 3584 
Q 2172 3584 2448 3432 
Q 2725 3281 2906 2969 
L 2906 3500 
L 3481 3500 
L 3481 -1331 
L 2906 -1331 
L 2906 525 
z
" transform="scale(0.015625)"/>
       <path id="DejaVuSans-75" d="M 544 1381 
L 544 3500 
L 1119 3500 
L 1119 1403 
Q 1119 906 1312 657 
Q 1506 409 1894 409 
Q 2359 409 2629 706 
Q 2900 1003 2900 1516 
L 2900 3500 
L 3475 3500 
L 3475 0 
L 2900 0 
L 2900 538 
Q 2691 219 2414 64 
Q 2138 -91 1772 -91 
Q 1169 -91 856 284 
Q 544 659 544 1381 
z
M 1991 3584 
L 1991 3584 
z
" transform="scale(0.015625)"/>
       <path id="DejaVuSans-6e" d="M 3513 2113 
L 3513 0 
L 2938 0 
L 2938 2094 
Q 2938 2591 2744 2837 
Q 2550 3084 2163 3084 
Q 1697 3084 1428 2787 
Q 1159 2491 1159 1978 
L 1159 0 
L 581 0 
L 581 3500 
L 1159 3500 
L 1159 2956 
Q 1366 3272 1645 3428 
Q 1925 3584 2291 3584 
Q 2894 3584 3203 3211 
Q 3513 2838 3513 2113 
z
" transform="scale(0.015625)"/>
       <path id="DejaVuSans-63" d="M 3122 3366 
L 3122 2828 
Q 2878 2963 2633 3030 
Q 2388 3097 2138 3097 
Q 1578 3097 1268 2742 
Q 959 2388 959 1747 
Q 959 1106 1268 751 
Q 1578 397 2138 397 
Q 2388 397 2633 464 
Q 2878 531 3122 666 
L 3122 134 
Q 2881 22 2623 -34 
Q 2366 -91 2075 -91 
Q 1284 -91 818 406 
Q 353 903 353 1747 
Q 353 2603 823 3093 
Q 1294 3584 2113 3584 
Q 2378 3584 2631 3529 
Q 2884 3475 3122 3366 
z
" transform="scale(0.015625)"/>
       <path id="DejaVuSans-79" d="M 2059 -325 
Q 1816 -950 1584 -1140 
Q 1353 -1331 966 -1331 
L 506 -1331 
L 506 -850 
L 844 -850 
Q 1081 -850 1212 -737 
Q 1344 -625 1503 -206 
L 1606 56 
L 191 3500 
L 800 3500 
L 1894 763 
L 2988 3500 
L 3597 3500 
L 2059 -325 
z
" transform="scale(0.015625)"/>
       <path id="DejaVuSans-20" transform="scale(0.015625)"/>
       <path id="DejaVuSans-28" d="M 1984 4856 
Q 1566 4138 1362 3434 
Q 1159 2731 1159 2009 
Q 1159 1288 1364 580 
Q 1569 -128 1984 -844 
L 1484 -844 
Q 1016 -109 783 600 
Q 550 1309 550 2009 
Q 550 2706 781 3412 
Q 1013 4119 1484 4856 
L 1984 4856 
z
" transform="scale(0.015625)"/>
       <path id="DejaVuSans-48" d="M 628 4666 
L 1259 4666 
L 1259 2753 
L 3553 2753 
L 3553 4666 
L 4184 4666 
L 4184 0 
L 3553 0 
L 3553 2222 
L 1259 2222 
L 1259 0 
L 628 0 
L 628 4666 
z
" transform="scale(0.015625)"/>
       <path id="DejaVuSans-7a" d="M 353 3500 
L 3084 3500 
L 3084 2975 
L 922 459 
L 3084 459 
L 3084 0 
L 275 0 
L 275 525 
L 2438 3041 
L 353 3041 
L 353 3500 
z
" transform="scale(0.015625)"/>
       <path id="DejaVuSans-29" d="M 513 4856 
L 1013 4856 
Q 1481 4119 1714 3412 
Q 1947 2706 1947 2009 
Q 1947 1309 1714 600 
Q 1481 -109 1013 -844 
L 513 -844 
Q 928 -128 1133 580 
Q 1338 1288 1338 2009 
Q 1338 2731 1133 3434 
Q 928 4138 513 4856 
z
" transform="scale(0.015625)"/>
      </defs>
      <use xlink:href="#DejaVuSans-46"/>
      <use xlink:href="#DejaVuSans-72" transform="translate(50.269531 0)"/>
      <use xlink:href="#DejaVuSans-65" transform="translate(89.132812 0)"/>
      <use xlink:href="#DejaVuSans-71" transform="translate(150.65625 0)"/>
      <use xlink:href="#DejaVuSans-75" transform="translate(214.132812 0)"/>
      <use xlink:href="#DejaVuSans-65" transform="translate(277.511719 0)"/>
      <use xlink:href="#DejaVuSans-6e" transform="translate(339.035156 0)"/>
      <use xlink:href="#DejaVuSans-63" transform="translate(402.414062 0)"/>
      <use xlink:href="#DejaVuSans-79" transform="translate(457.394531 0)"/>
      <use xlink:href="#DejaVuSans-20" transform="translate(516.574219 0)"/>
      <use xlink:href="#DejaVuSans-28" transform="translate(548.361328 0)"/>
      <use xlink:href="#DejaVuSans-48" transform="translate(587.375 0)"/>
      <use xlink:href="#DejaVuSans-7a" transform="translate(662.570312 0)"/>
      <use xlink:href="#DejaVuSans-29" transform="translate(715.060547 0)"/>
     </g>
    </g>
   </g>
   <g id="matplotlib.axis_2">
    <g id="ytick_1">
     <g id="line2d_7">
      <defs>
       <path id="m099d4d3683" d="M 0 0 
L -3.5 0 
" style="stroke: #000000; stroke-width: 0.8"/>
      </defs>
      <g>
       <use xlink:href="#m099d4d3683" x="36.262031" y="169.436768" style="stroke: #000000; stroke-width: 0.8"/>
      </g>
     </g>
     <g id="text_7">
      <!-- −4 -->
      <g transform="translate(18.9425 172.096221) scale(0.07 -0.07)">
       <defs>
        <path id="DejaVuSans-2212" d="M 678 2272 
L 4684 2272 
L 4684 1741 
L 678 1741 
L 678 2272 
z
" transform="scale(0.015625)"/>
       </defs>
       <use xlink:href="#DejaVuSans-2212"/>
       <use xlink:href="#DejaVuSans-34" transform="translate(83.789062 0)"/>
      </g>
     </g>
    </g>
    <g id="ytick_2">
     <g id="line2d_8">
      <g>
       <use xlink:href="#m099d4d3683" x="36.262031" y="140.531779" style="stroke: #000000; stroke-width: 0.8"/>
      </g>
     </g>
     <g id="text_8">
      <!-- −2 -->
      <g transform="translate(18.9425 143.191232) scale(0.07 -0.07)">
       <use xlink:href="#DejaVuSans-2212"/>
       <use xlink:href="#DejaVuSans-32" transform="translate(83.789062 0)"/>
      </g>
     </g>
    </g>
    <g id="ytick_3">
     <g id="line2d_9">
      <g>
       <use xlink:href="#m099d4d3683" x="36.262031" y="111.626791" style="stroke: #000000; stroke-width: 0.8"/>
      </g>
     </g>
     <g id="text_9">
      <!-- 0 -->
      <g transform="translate(24.808281 114.286244) scale(0.07 -0.07)">
       <use xlink:href="#DejaVuSans-30"/>
      </g>
     </g>
    </g>
    <g id="ytick_4">
     <g id="line2d_10">
      <g>
       <use xlink:href="#m099d4d3683" x="36.262031" y="82.721802" style="stroke: #000000; stroke-width: 0.8"/>
      </g>
     </g>
     <g id="text_10">
      <!-- 2 -->
      <g transform="translate(24.808281 85.381255) scale(0.07 -0.07)">
       <use xlink:href="#DejaVuSans-32"/>
      </g>
     </g>
    </g>
    <g id="text_11">
     <!-- ERD/ERS (dB) -->
     <g transform="translate(13.27875 148.236875) rotate(-90) scale(0.08 -0.08)">
      <defs>
       <path id="DejaVuSans-45" d="M 628 4666 
L 3578 4666 
L 3578 4134 
L 1259 4134 
L 1259 2753 
L 3481 2753 
L 3481 2222 
L 1259 2222 
L 1259 531 
L 3634 531 
L 3634 0 
L 628 0 
L 628 4666 
z
" transform="scale(0.015625)"/>
       <path id="DejaVuSans-52" d="M 2841 2188 
Q 3044 2119 3236 1894 
Q 3428 1669 3622 1275 
L 4263 0 
L 3584 0 
L 2988 1197 
Q 2756 1666 2539 1819 
Q 2322 1972 1947 1972 
L 1259 1972 
L 1259 0 
L 628 0 
L 628 4666 
L 2053 4666 
Q 2853 4666 3247 4331 
Q 3641 3997 3641 3322 
Q 3641 2881 3436 2590 
Q 3231 2300 2841 2188 
z
M 1259 4147 
L 1259 2491 
L 2053 2491 
Q 2509 2491 2742 2702 
Q 2975 2913 2975 3322 
Q 2975 3731 2742 3939 
Q 2509 4147 2053 4147 
L 1259 4147 
z
" transform="scale(0.015625)"/>
       <path id="DejaVuSans-44" d="M 1259 4147 
L 1259 519 
L 2022 519 
Q 2988 519 3436 956 
Q 3884 1394 3884 2338 
Q 3884 3275 3436 3711 
Q 2988 4147 2022 4147 
L 1259 4147 
z
M 628 4666 
L 1925 4666 
Q 3281 4666 3915 4102 
Q 4550 3538 4550 2338 
Q 4550 1131 3912 565 
Q 3275 0 1925 0 
L 628 0 
L 628 4666 
z
" transform="scale(0.015625)"/>
       <path id="DejaVuSans-2f" d="M 1625 4666 
L 2156 4666 
L 531 -594 
L 0 -594 
L 1625 4666 
z
" transform="scale(0.015625)"/>
       <path id="DejaVuSans-53" d="M 3425 4513 
L 3425 3897 
Q 3066 4069 2747 4153 
Q 2428 4238 2131 4238 
Q 1616 4238 1336 4038 
Q 1056 3838 1056 3469 
Q 1056 3159 1242 3001 
Q 1428 2844 1947 2747 
L 2328 2669 
Q 3034 2534 3370 2195 
Q 3706 1856 3706 1288 
Q 3706 609 3251 259 
Q 2797 -91 1919 -91 
Q 1588 -91 1214 -16 
Q 841 59 441 206 
L 441 856 
Q 825 641 1194 531 
Q 1563 422 1919 422 
Q 2459 422 2753 634 
Q 3047 847 3047 1241 
Q 3047 1584 2836 1778 
Q 2625 1972 2144 2069 
L 1759 2144 
Q 1053 2284 737 2584 
Q 422 2884 422 3419 
Q 422 4038 858 4394 
Q 1294 4750 2059 4750 
Q 2388 4750 2728 4690 
Q 3069 4631 3425 4513 
z
" transform="scale(0.015625)"/>
       <path id="DejaVuSans-64" d="M 2906 2969 
L 2906 4863 
L 3481 4863 
L 3481 0 
L 2906 0 
L 2906 525 
Q 2725 213 2448 61 
Q 2172 -91 1784 -91 
Q 1150 -91 751 415 
Q 353 922 353 1747 
Q 353 2572 751 3078 
Q 1150 3584 1784 3584 
Q 2172 3584 2448 3432 
Q 2725 3281 2906 2969 
z
M 947 1747 
Q 947 1113 1208 752 
Q 1469 391 1925 391 
Q 2381 391 2643 752 
Q 2906 1113 2906 1747 
Q 2906 2381 2643 2742 
Q 2381 3103 1925 3103 
Q 1469 3103 1208 2742 
Q 947 2381 947 1747 
z
" transform="scale(0.015625)"/>
       <path id="DejaVuSans-42" d="M 1259 2228 
L 1259 519 
L 2272 519 
Q 2781 519 3026 730 
Q 3272 941 3272 1375 
Q 3272 1813 3026 2020 
Q 2781 2228 2272 2228 
L 1259 2228 
z
M 1259 4147 
L 1259 2741 
L 2194 2741 
Q 2656 2741 2882 2914 
Q 3109 3088 3109 3444 
Q 3109 3797 2882 3972 
Q 2656 4147 2194 4147 
L 1259 4147 
z
M 628 4666 
L 2241 4666 
Q 2963 4666 3353 4366 
Q 3744 4066 3744 3513 
Q 3744 3084 3544 2831 
Q 3344 2578 2956 2516 
Q 3422 2416 3680 2098 
Q 3938 1781 3938 1306 
Q 3938 681 3513 340 
Q 3088 0 2303 0 
L 628 0 
L 628 4666 
z
" transform="scale(0.015625)"/>
      </defs>
      <use xlink:href="#DejaVuSans-45"/>
      <use xlink:href="#DejaVuSans-52" transform="translate(63.183594 0)"/>
      <use xlink:href="#DejaVuSans-44" transform="translate(132.666016 0)"/>
      <use xlink:href="#DejaVuSans-2f" transform="translate(209.667969 0)"/>
      <use xlink:href="#DejaVuSans-45" transform="translate(243.359375 0)"/>
      <use xlink:href="#DejaVuSans-52" transform="translate(306.542969 0)"/>
      <use xlink:href="#DejaVuSans-53" transform="translate(376.025391 0)"/>
      <use xlink:href="#DejaVuSans-20" transform="translate(439.501953 0)"/>
      <use xlink:href="#DejaVuSans-28" transform="translate(471.289062 0)"/>
      <use xlink:href="#DejaVuSans-64" transform="translate(510.302734 0)"/>
      <use xlink:href="#DejaVuSans-42" transform="translate(573.779297 0)"/>
      <use xlink:href="#DejaVuSans-29" transform="translate(642.382812 0)"/>
     </g>
    </g>
   </g>
   <g id="line2d_11">
    <path d="M 45.858092 116.650557 
L 48.039015 117.518685 
L 50.219938 118.89662 
L 52.40086 121.281283 
L 54.581783 124.100944 
L 56.762706 125.181626 
L 58.943629 123.677241 
L 61.124552 123.460579 
L 63.305475 123.24092 
L 65.486398 122.19472 
L 67.667321 125.534399 
L 69.848243 130.739491 
L 72.029166 135.04924 
L 74.210089 140.00514 
L 76.391012 149.754029 
L 78.571935 160.395578 
L 80.752858 166.498829 
L 82.933781 168.361193 
L 85.114703 167.465017 
L 87.295626 160.339638 
L 89.476549 146.095821 
L 91.657472 128.820995 
L 93.838395 119.116704 
L 96.019318 116.734966 
L 98.200241 117.680007 
L 100.381163 118.241688 
L 102.562086 121.580497 
L 104.743009 124.725595 
L 106.923932 127.286926 
L 109.104855 131.151179 
L 111.285778 135.966347 
L 113.466701 134.929156 
L 115.647624 132.419392 
L 117.828546 132.412785 
L 120.009469 136.577803 
L 122.190392 142.661957 
L 124.371315 145.65028 
L 126.552238 145.976556 
L 128.733161 147.412818 
L 130.914084 143.065928 
L 133.095006 135.428014 
L 135.275929 130.509196 
L 137.456852 130.387496 
L 139.637775 133.987811 
L 141.818698 137.077096 
L 143.999621 139.134054 
L 146.180544 137.0578 
L 148.361467 135.909894 
L 150.542389 134.979172 
L 152.723312 132.837432 
L 154.904235 132.224475 
L 157.085158 131.225823 
L 159.266081 128.928686 
L 161.447004 129.61933 
L 163.627927 130.244959 
L 165.808849 129.046987 
L 167.989772 128.60661 
L 170.170695 123.720038 
L 172.351618 118.720271 
L 174.532541 117.500906 
L 176.713464 119.704621 
L 178.894387 121.240503 
L 181.075309 121.152461 
L 183.256232 119.883506 
L 185.437155 118.748158 
L 187.618078 117.1498 
L 189.799001 117.495496 
L 191.979924 116.014758 
L 194.160847 115.07806 
L 196.34177 115.733367 
L 198.522692 116.862829 
L 200.703615 117.665951 
L 202.884538 116.843402 
L 205.065461 113.559365 
L 207.246384 112.018412 
L 209.427307 112.517963 
L 211.60823 115.112034 
L 213.789152 117.525059 
L 215.970075 116.358758 
L 218.150998 115.226493 
L 220.331921 115.353581 
L 222.512844 117.058908 
L 224.693767 119.775426 
L 226.87469 121.354986 
L 229.055613 120.895831 
L 231.236535 119.716316 
L 233.417458 119.921867 
L 235.598381 118.975992 
L 237.779304 118.017022 
" clip-path="url(#pe7d785e443)" style="fill: none; stroke: #1f77b4; stroke-width: 1.3; stroke-linecap: square"/>
   </g>
   <g id="line2d_12">
    <path d="M 45.858092 111.913298 
L 48.039015 115.422999 
L 50.219938 117.075797 
L 52.40086 116.826388 
L 54.581783 119.961906 
L 56.762706 127.120639 
L 58.943629 127.830639 
L 61.124552 122.666226 
L 63.305475 120.114836 
L 65.486398 119.116524 
L 67.667321 118.968847 
L 69.848243 117.410469 
L 72.029166 117.649633 
L 74.210089 115.306679 
L 76.391012 112.489138 
L 78.571935 113.941614 
L 80.752858 115.318351 
L 82.933781 112.568402 
L 85.114703 116.392798 
L 87.295626 120.497832 
L 89.476549 123.161877 
L 91.657472 118.479683 
L 93.838395 109.259895 
L 96.019318 108.870531 
L 98.200241 111.914517 
L 100.381163 113.488862 
L 102.562086 116.475567 
L 104.743009 114.477512 
L 106.923932 108.531629 
L 109.104855 104.771078 
L 111.285778 107.253528 
L 113.466701 118.291749 
L 115.647624 126.726255 
L 117.828546 125.245523 
L 120.009469 121.946381 
L 122.190392 113.709324 
L 124.371315 106.71869 
L 126.552238 105.227808 
L 128.733161 109.068147 
L 130.914084 110.766648 
L 133.095006 107.648107 
L 135.275929 108.758722 
L 137.456852 111.144053 
L 139.637775 115.285671 
L 141.818698 113.42738 
L 143.999621 116.603879 
L 146.180544 120.630791 
L 148.361467 118.140724 
L 150.542389 112.858011 
L 152.723312 112.095825 
L 154.904235 109.932206 
L 157.085158 107.178632 
L 159.266081 106.828682 
L 161.447004 111.170508 
L 163.627927 114.17818 
L 165.808849 112.795893 
L 167.989772 107.046478 
L 170.170695 103.276689 
L 172.351618 102.271731 
L 174.532541 107.855254 
L 176.713464 110.318403 
L 178.894387 106.509642 
L 181.075309 98.508122 
L 183.256232 101.849302 
L 185.437155 113.923887 
L 187.618078 122.053728 
L 189.799001 121.112761 
L 191.979924 116.590582 
L 194.160847 110.994378 
L 196.34177 106.497513 
L 198.522692 108.109417 
L 200.703615 114.37942 
L 202.884538 117.655246 
L 205.065461 116.917561 
L 207.246384 116.468214 
L 209.427307 119.292094 
L 211.60823 125.008528 
L 213.789152 122.526116 
L 215.970075 116.198946 
L 218.150998 116.521867 
L 220.331921 110.600061 
L 222.512844 108.124006 
L 224.693767 107.916517 
L 226.87469 113.206177 
L 229.055613 119.380569 
L 231.236535 124.753978 
L 233.417458 126.801859 
L 235.598381 123.092214 
L 237.779304 121.356585 
" clip-path="url(#pe7d785e443)" style="fill: none; stroke: #ff7f0e; stroke-width: 1.3; stroke-linecap: square"/>
   </g>
   <g id="patch_5">
    <path d="M 36.262031 182.68 
L 36.262031 59.28 
" style="fill: none; stroke: #000000; stroke-width: 0.8; stroke-linejoin: miter; stroke-linecap: square"/>
   </g>
   <g id="patch_6">
    <path d="M 247.375365 182.68 
L 247.375365 59.28 
" style="fill: none; stroke: #000000; stroke-width: 0.8; stroke-linejoin: miter; stroke-linecap: square"/>
   </g>
   <g id="patch_7">
    <path d="M 36.262031 182.68 
L 247.375365 182.68 
" style="fill: none; stroke: #000000; stroke-width: 0.8; stroke-linejoin: miter; stroke-linecap: square"/>
   </g>
   <g id="patch_8">
    <path d="M 36.262031 59.28 
L 247.375365 59.28 
" style="fill: none; stroke: #000000; stroke-width: 0.8; stroke-linejoin: miter; stroke-linecap: square"/>
   </g>
   <g id="text_12">
    <!-- C3 -->
    <g transform="translate(135.813307 53.28) scale(0.09 -0.09)">
     <defs>
      <path id="DejaVuSans-43" d="M 4122 4306 
L 4122 3641 
Q 3803 3938 3442 4084 
Q 3081 4231 2675 4231 
Q 1875 4231 1450 3742 
Q 1025 3253 1025 2328 
Q 1025 1406 1450 917 
Q 1875 428 2675 428 
Q 3081 428 3442 575 
Q 3803 722 4122 1019 
L 4122 359 
Q 3791 134 3420 21 
Q 3050 -91 2638 -91 
Q 1578 -91 968 557 
Q 359 1206 359 2328 
Q 359 3453 968 4101 
Q 1578 4750 2638 4750 
Q 3056 4750 3426 4639 
Q 3797 4528 4122 4306 
z
" transform="scale(0.015625)"/>
     </defs>
     <use xlink:href="#DejaVuSans-43"/>
     <use xlink:href="#DejaVuSans-33" transform="translate(69.824219 0)"/>
    </g>
   </g>
  </g>
  <g id="axes_2">
   <g id="patch_9">
    <path d="M 272.875365 182.68 
L 483.988698 182.68 
L 483.988698 59.28 
L 272.875365 59.28 
L 272.875365 182.68 
z
" style="fill: none"/>
   </g>
   <g id="patch_10">
    <path d="M 313.004345 182.68 
L 334.813574 182.68 
L 334.813574 59.28 
L 313.004345 59.28 
z
" clip-path="url(#p9b58bdbfa5)" style="fill: #d9d9d9; stroke: #d9d9d9; stroke-linejoin: miter"/>
   </g>
   <g id="patch_11">
    <path d="M 334.813574 182.68 
L 408.964951 182.68 
L 408.964951 59.28 
L 334.813574 59.28 
z
" clip-path="url(#p9b58bdbfa5)" style="fill: #ebebeb; stroke: #ebebeb; stroke-linejoin: miter"/>
   </g>
   <g id="FillBetweenPolyCollection_3">
    <defs>
     <path id="m69b913f2f6" d="M 282.471425 -135.800748 
L 282.471425 -121.853208 
L 284.652348 -116.737739 
L 286.833271 -107.819707 
L 289.014194 -97.400376 
L 291.195117 -95.152665 
L 293.37604 -95.590835 
L 295.556962 -96.855391 
L 297.737885 -96.760687 
L 299.918808 -93.607131 
L 302.099731 -93.573589 
L 304.280654 -95.2104 
L 306.461577 -95.12297 
L 308.6425 -91.562547 
L 310.823422 -83.495998 
L 313.004345 -73.291319 
L 315.185268 -63.898069 
L 317.366191 -56.51579 
L 319.547114 -52.017306 
L 321.728037 -48.871338 
L 323.90896 -50.81325 
L 326.089882 -60.950983 
L 328.270805 -74.598471 
L 330.451728 -81.07697 
L 332.632651 -83.188119 
L 334.813574 -87.85322 
L 336.994497 -91.6483 
L 339.17542 -91.554803 
L 341.356343 -91.174085 
L 343.537265 -89.371038 
L 345.718188 -86.665665 
L 347.899111 -85.928035 
L 350.080034 -85.545558 
L 352.260957 -86.102899 
L 354.44188 -86.236076 
L 356.622803 -87.139855 
L 358.803725 -86.690094 
L 360.984648 -84.642168 
L 363.165571 -84.499746 
L 365.346494 -88.506658 
L 367.527417 -94.544541 
L 369.70834 -96.630703 
L 371.889263 -95.187684 
L 374.070186 -93.285821 
L 376.251108 -93.407784 
L 378.432031 -91.245117 
L 380.612954 -88.009323 
L 382.793877 -90.056902 
L 384.9748 -92.334353 
L 387.155723 -93.889918 
L 389.336646 -93.044599 
L 391.517568 -90.250526 
L 393.698491 -89.860791 
L 395.879414 -92.639264 
L 398.060337 -97.340008 
L 400.24126 -101.468924 
L 402.422183 -102.618805 
L 404.603106 -104.075823 
L 406.784028 -105.56859 
L 408.964951 -105.339972 
L 411.145874 -106.146012 
L 413.326797 -106.844835 
L 415.50772 -105.465316 
L 417.688643 -103.773465 
L 419.869566 -102.041524 
L 422.050489 -102.19047 
L 424.231411 -103.091731 
L 426.412334 -100.277943 
L 428.593257 -94.547535 
L 430.77418 -91.329671 
L 432.955103 -92.629284 
L 435.136026 -93.198316 
L 437.316949 -92.432052 
L 439.497871 -92.831777 
L 441.678794 -93.76071 
L 443.859717 -91.880957 
L 446.04064 -90.213135 
L 448.221563 -89.904026 
L 450.402486 -93.014185 
L 452.583409 -95.196186 
L 454.764332 -92.509238 
L 456.945254 -88.667599 
L 459.126177 -87.09602 
L 461.3071 -87.348159 
L 463.488023 -87.135547 
L 465.668946 -87.521502 
L 467.849869 -87.856846 
L 470.030792 -87.702317 
L 472.211714 -91.162967 
L 474.392637 -93.265248 
L 474.392637 -106.348983 
L 474.392637 -106.348983 
L 472.211714 -104.413681 
L 470.030792 -100.673199 
L 467.849869 -101.525879 
L 465.668946 -101.344909 
L 463.488023 -101.413198 
L 461.3071 -101.667185 
L 459.126177 -101.471695 
L 456.945254 -102.29156 
L 454.764332 -105.442346 
L 452.583409 -108.228802 
L 450.402486 -106.343363 
L 448.221563 -102.841809 
L 446.04064 -102.547313 
L 443.859717 -104.496594 
L 441.678794 -107.01062 
L 439.497871 -105.178753 
L 437.316949 -104.836297 
L 435.136026 -106.499471 
L 432.955103 -106.052459 
L 430.77418 -105.012541 
L 428.593257 -107.86264 
L 426.412334 -112.440052 
L 424.231411 -115.313007 
L 422.050489 -115.015002 
L 419.869566 -114.834626 
L 417.688643 -116.832221 
L 415.50772 -119.006592 
L 413.326797 -120.429609 
L 411.145874 -119.82529 
L 408.964951 -118.752819 
L 406.784028 -118.751936 
L 404.603106 -117.444093 
L 402.422183 -116.515336 
L 400.24126 -116.18124 
L 398.060337 -112.422895 
L 395.879414 -108.539394 
L 393.698491 -105.500849 
L 391.517568 -105.57977 
L 389.336646 -107.943213 
L 387.155723 -107.836553 
L 384.9748 -106.768961 
L 382.793877 -105.190968 
L 380.612954 -103.319945 
L 378.432031 -106.823939 
L 376.251108 -108.905133 
L 374.070186 -107.738381 
L 371.889263 -108.942164 
L 369.70834 -110.322303 
L 367.527417 -108.356285 
L 365.346494 -101.475545 
L 363.165571 -96.482016 
L 360.984648 -97.070363 
L 358.803725 -100.205285 
L 356.622803 -100.559985 
L 354.44188 -99.062496 
L 352.260957 -99.212338 
L 350.080034 -100.53012 
L 347.899111 -102.123542 
L 345.718188 -102.881377 
L 343.537265 -104.92474 
L 341.356343 -105.473649 
L 339.17542 -105.797378 
L 336.994497 -105.858139 
L 334.813574 -101.244398 
L 332.632651 -96.864418 
L 330.451728 -95.109682 
L 328.270805 -89.699298 
L 326.089882 -77.094916 
L 323.90896 -67.246267 
L 321.728037 -65.930985 
L 319.547114 -69.672277 
L 317.366191 -73.185381 
L 315.185268 -81.197295 
L 313.004345 -91.050629 
L 310.823422 -100.665135 
L 308.6425 -107.69619 
L 306.461577 -109.714425 
L 304.280654 -109.358144 
L 302.099731 -107.642089 
L 299.918808 -107.828292 
L 297.737885 -110.653569 
L 295.556962 -110.49114 
L 293.37604 -109.092174 
L 291.195117 -107.924679 
L 289.014194 -109.815715 
L 286.833271 -120.711972 
L 284.652348 -129.961138 
L 282.471425 -135.800748 
z
" style="stroke: #1f77b4; stroke-opacity: 0.15"/>
    </defs>
    <g clip-path="url(#p9b58bdbfa5)">
     <use xlink:href="#m69b913f2f6" x="0" y="215.397188" style="fill: #1f77b4; fill-opacity: 0.15; stroke: #1f77b4; stroke-opacity: 0.15"/>
    </g>
   </g>
   <g id="FillBetweenPolyCollection_4">
    <defs>
     <path id="m3eb2a46142" d="M 282.471425 -118.672742 
L 282.471425 -86.7901 
L 284.652348 -87.586419 
L 286.833271 -88.297183 
L 289.014194 -89.437545 
L 291.195117 -92.501528 
L 293.37604 -94.908739 
L 295.556962 -94.722914 
L 297.737885 -90.515395 
L 299.918808 -88.518555 
L 302.099731 -84.246159 
L 304.280654 -82.640938 
L 306.461577 -87.28758 
L 308.6425 -89.064644 
L 310.823422 -84.921924 
L 313.004345 -78.487324 
L 315.185268 -71.30075 
L 317.366191 -70.382798 
L 319.547114 -72.908862 
L 321.728037 -77.441907 
L 323.90896 -80.271497 
L 326.089882 -78.181382 
L 328.270805 -79.016131 
L 330.451728 -83.26357 
L 332.632651 -90.629341 
L 334.813574 -95.08769 
L 336.994497 -85.500309 
L 339.17542 -79.339964 
L 341.356343 -82.383434 
L 343.537265 -91.623553 
L 345.718188 -95.075345 
L 347.899111 -95.744018 
L 350.080034 -93.709599 
L 352.260957 -90.021901 
L 354.44188 -89.701496 
L 356.622803 -90.303358 
L 358.803725 -96.403383 
L 360.984648 -108.103929 
L 363.165571 -116.086395 
L 365.346494 -109.935078 
L 367.527417 -99.950335 
L 369.70834 -95.862308 
L 371.889263 -96.731119 
L 374.070186 -99.093225 
L 376.251108 -103.278425 
L 378.432031 -101.442298 
L 380.612954 -94.583613 
L 382.793877 -90.411542 
L 384.9748 -90.985203 
L 387.155723 -93.777656 
L 389.336646 -92.287207 
L 391.517568 -91.337331 
L 393.698491 -98.813415 
L 395.879414 -102.707454 
L 398.060337 -94.090787 
L 400.24126 -92.292952 
L 402.422183 -95.746073 
L 404.603106 -95.998822 
L 406.784028 -90.383837 
L 408.964951 -82.019709 
L 411.145874 -82.07314 
L 413.326797 -92.291999 
L 415.50772 -99.762248 
L 417.688643 -94.396582 
L 419.869566 -86.270942 
L 422.050489 -81.640111 
L 424.231411 -82.845044 
L 426.412334 -86.202525 
L 428.593257 -89.405633 
L 430.77418 -92.049633 
L 432.955103 -91.584083 
L 435.136026 -86.248723 
L 437.316949 -90.002179 
L 439.497871 -96.796763 
L 441.678794 -96.956139 
L 443.859717 -95.416494 
L 446.04064 -96.691183 
L 448.221563 -96.615029 
L 450.402486 -91.813035 
L 452.583409 -87.770963 
L 454.764332 -88.190371 
L 456.945254 -91.178275 
L 459.126177 -90.986821 
L 461.3071 -89.13355 
L 463.488023 -90.407047 
L 465.668946 -90.034937 
L 467.849869 -84.680406 
L 470.030792 -80.099703 
L 472.211714 -79.94988 
L 474.392637 -80.566149 
L 474.392637 -107.444009 
L 474.392637 -107.444009 
L 472.211714 -102.883037 
L 470.030792 -103.920262 
L 467.849869 -111.465464 
L 465.668946 -115.927513 
L 463.488023 -117.147303 
L 461.3071 -115.059803 
L 459.126177 -116.266545 
L 456.945254 -117.322517 
L 454.764332 -114.07475 
L 452.583409 -115.662696 
L 450.402486 -117.085916 
L 448.221563 -121.86462 
L 446.04064 -121.747775 
L 443.859717 -120.32821 
L 441.678794 -123.356205 
L 439.497871 -127.238605 
L 437.316949 -117.283033 
L 435.136026 -113.402095 
L 432.955103 -118.537815 
L 430.77418 -117.690433 
L 428.593257 -112.288702 
L 426.412334 -110.183548 
L 424.231411 -107.895464 
L 422.050489 -109.904135 
L 419.869566 -110.16927 
L 417.688643 -117.607458 
L 415.50772 -127.282392 
L 413.326797 -121.303794 
L 411.145874 -107.836356 
L 408.964951 -106.852315 
L 406.784028 -113.883081 
L 404.603106 -122.054953 
L 402.422183 -122.648325 
L 400.24126 -124.582898 
L 398.060337 -125.754738 
L 395.879414 -132.361471 
L 393.698491 -123.719529 
L 391.517568 -115.523555 
L 389.336646 -117.406958 
L 387.155723 -122.190613 
L 384.9748 -121.262737 
L 382.793877 -121.99366 
L 380.612954 -124.431179 
L 378.432031 -129.441102 
L 376.251108 -130.032087 
L 374.070186 -129.241964 
L 371.889263 -126.991176 
L 369.70834 -122.092294 
L 367.527417 -127.040923 
L 365.346494 -135.626622 
L 363.165571 -144.796077 
L 360.984648 -137.493108 
L 358.803725 -127.112501 
L 356.622803 -119.714073 
L 354.44188 -117.025655 
L 352.260957 -119.843653 
L 350.080034 -124.064957 
L 347.899111 -129.061513 
L 345.718188 -130.09124 
L 343.537265 -125.79018 
L 341.356343 -113.144784 
L 339.17542 -103.56516 
L 336.994497 -108.231044 
L 334.813574 -120.114033 
L 332.632651 -117.298651 
L 330.451728 -108.463375 
L 328.270805 -104.664912 
L 326.089882 -107.416271 
L 323.90896 -112.363382 
L 321.728037 -111.650195 
L 319.547114 -109.130578 
L 317.366191 -103.914713 
L 315.185268 -109.976028 
L 313.004345 -120.010338 
L 310.823422 -124.264155 
L 308.6425 -123.660404 
L 306.461577 -113.344179 
L 304.280654 -105.417059 
L 302.099731 -107.442511 
L 299.918808 -112.31042 
L 297.737885 -119.085025 
L 295.556962 -123.182615 
L 293.37604 -118.807949 
L 291.195117 -116.877056 
L 289.014194 -114.832485 
L 286.833271 -117.140628 
L 284.652348 -117.744224 
L 282.471425 -118.672742 
z
" style="stroke: #ff7f0e; stroke-opacity: 0.15"/>
    </defs>
    <g clip-path="url(#p9b58bdbfa5)">
     <use xlink:href="#m3eb2a46142" x="0" y="215.397188" style="fill: #ff7f0e; fill-opacity: 0.15; stroke: #ff7f0e; stroke-opacity: 0.15"/>
    </g>
   </g>
   <g id="line2d_13">
    <path d="M 272.875365 111.626791 
L 483.988698 111.626791 
" clip-path="url(#p9b58bdbfa5)" style="fill: none; stroke-dasharray: 2.96,1.28; stroke-dashoffset: 0; stroke: #000000; stroke-width: 0.8"/>
   </g>
   <g id="matplotlib.axis_3">
    <g id="xtick_6">
     <g id="line2d_14">
      <g>
       <use xlink:href="#m8e6aca1a07" x="278.109579" y="182.68" style="stroke: #000000; stroke-width: 0.8"/>
      </g>
     </g>
     <g id="text_13">
      <!-- 0 -->
      <g transform="translate(275.882704 194.998906) scale(0.07 -0.07)">
       <use xlink:href="#DejaVuSans-30"/>
      </g>
     </g>
    </g>
    <g id="xtick_7">
     <g id="line2d_15">
      <g>
       <use xlink:href="#m8e6aca1a07" x="321.728037" y="182.68" style="stroke: #000000; stroke-width: 0.8"/>
      </g>
     </g>
     <g id="text_14">
      <!-- 10 -->
      <g transform="translate(317.274287 194.998906) scale(0.07 -0.07)">
       <use xlink:href="#DejaVuSans-31"/>
       <use xlink:href="#DejaVuSans-30" transform="translate(63.623047 0)"/>
      </g>
     </g>
    </g>
    <g id="xtick_8">
     <g id="line2d_16">
      <g>
       <use xlink:href="#m8e6aca1a07" x="365.346494" y="182.68" style="stroke: #000000; stroke-width: 0.8"/>
      </g>
     </g>
     <g id="text_15">
      <!-- 20 -->
      <g transform="translate(360.892744 194.998906) scale(0.07 -0.07)">
       <use xlink:href="#DejaVuSans-32"/>
       <use xlink:href="#DejaVuSans-30" transform="translate(63.623047 0)"/>
      </g>
     </g>
    </g>
    <g id="xtick_9">
     <g id="line2d_17">
      <g>
       <use xlink:href="#m8e6aca1a07" x="408.964951" y="182.68" style="stroke: #000000; stroke-width: 0.8"/>
      </g>
     </g>
     <g id="text_16">
      <!-- 30 -->
      <g transform="translate(404.511201 194.998906) scale(0.07 -0.07)">
       <use xlink:href="#DejaVuSans-33"/>
       <use xlink:href="#DejaVuSans-30" transform="translate(63.623047 0)"/>
      </g>
     </g>
    </g>
    <g id="xtick_10">
     <g id="line2d_18">
      <g>
       <use xlink:href="#m8e6aca1a07" x="452.583409" y="182.68" style="stroke: #000000; stroke-width: 0.8"/>
      </g>
     </g>
     <g id="text_17">
      <!-- 40 -->
      <g transform="translate(448.129659 194.998906) scale(0.07 -0.07)">
       <use xlink:href="#DejaVuSans-34"/>
       <use xlink:href="#DejaVuSans-30" transform="translate(63.623047 0)"/>
      </g>
     </g>
    </g>
    <g id="text_18">
     <!-- Frequency (Hz) -->
     <g transform="translate(348.268281 206.533437) scale(0.08 -0.08)">
      <use xlink:href="#DejaVuSans-46"/>
      <use xlink:href="#DejaVuSans-72" transform="translate(50.269531 0)"/>
      <use xlink:href="#DejaVuSans-65" transform="translate(89.132812 0)"/>
      <use xlink:href="#DejaVuSans-71" transform="translate(150.65625 0)"/>
      <use xlink:href="#DejaVuSans-75" transform="translate(214.132812 0)"/>
      <use xlink:href="#DejaVuSans-65" transform="translate(277.511719 0)"/>
      <use xlink:href="#DejaVuSans-6e" transform="translate(339.035156 0)"/>
      <use xlink:href="#DejaVuSans-63" transform="translate(402.414062 0)"/>
      <use xlink:href="#DejaVuSans-79" transform="translate(457.394531 0)"/>
      <use xlink:href="#DejaVuSans-20" transform="translate(516.574219 0)"/>
      <use xlink:href="#DejaVuSans-28" transform="translate(548.361328 0)"/>
      <use xlink:href="#DejaVuSans-48" transform="translate(587.375 0)"/>
      <use xlink:href="#DejaVuSans-7a" transform="translate(662.570312 0)"/>
      <use xlink:href="#DejaVuSans-29" transform="translate(715.060547 0)"/>
     </g>
    </g>
   </g>
   <g id="matplotlib.axis_4">
    <g id="ytick_5">
     <g id="line2d_19">
      <g>
       <use xlink:href="#m099d4d3683" x="272.875365" y="169.436768" style="stroke: #000000; stroke-width: 0.8"/>
      </g>
     </g>
    </g>
    <g id="ytick_6">
     <g id="line2d_20">
      <g>
       <use xlink:href="#m099d4d3683" x="272.875365" y="140.531779" style="stroke: #000000; stroke-width: 0.8"/>
      </g>
     </g>
    </g>
    <g id="ytick_7">
     <g id="line2d_21">
      <g>
       <use xlink:href="#m099d4d3683" x="272.875365" y="111.626791" style="stroke: #000000; stroke-width: 0.8"/>
      </g>
     </g>
    </g>
    <g id="ytick_8">
     <g id="line2d_22">
      <g>
       <use xlink:href="#m099d4d3683" x="272.875365" y="82.721802" style="stroke: #000000; stroke-width: 0.8"/>
      </g>
     </g>
    </g>
    <g id="text_19">
     <!-- ERD/ERS (dB) -->
     <g transform="translate(263.711615 148.236875) rotate(-90) scale(0.08 -0.08)">
      <use xlink:href="#DejaVuSans-45"/>
      <use xlink:href="#DejaVuSans-52" transform="translate(63.183594 0)"/>
      <use xlink:href="#DejaVuSans-44" transform="translate(132.666016 0)"/>
      <use xlink:href="#DejaVuSans-2f" transform="translate(209.667969 0)"/>
      <use xlink:href="#DejaVuSans-45" transform="translate(243.359375 0)"/>
      <use xlink:href="#DejaVuSans-52" transform="translate(306.542969 0)"/>
      <use xlink:href="#DejaVuSans-53" transform="translate(376.025391 0)"/>
      <use xlink:href="#DejaVuSans-20" transform="translate(439.501953 0)"/>
      <use xlink:href="#DejaVuSans-28" transform="translate(471.289062 0)"/>
      <use xlink:href="#DejaVuSans-64" transform="translate(510.302734 0)"/>
      <use xlink:href="#DejaVuSans-42" transform="translate(573.779297 0)"/>
      <use xlink:href="#DejaVuSans-29" transform="translate(642.382812 0)"/>
     </g>
    </g>
   </g>
   <g id="line2d_23">
    <path d="M 282.471425 86.570209 
L 284.652348 92.047749 
L 286.833271 101.131348 
L 289.014194 111.789142 
L 291.195117 113.858515 
L 293.37604 113.055683 
L 295.556962 111.723922 
L 297.737885 111.69006 
L 299.918808 114.679476 
L 302.099731 114.789349 
L 304.280654 113.112915 
L 306.461577 112.97849 
L 308.6425 115.767819 
L 310.823422 123.316621 
L 313.004345 133.226214 
L 315.185268 142.849506 
L 317.366191 150.546602 
L 319.547114 154.552396 
L 321.728037 157.996026 
L 323.90896 156.367429 
L 326.089882 146.374238 
L 328.270805 133.248303 
L 330.451728 127.303862 
L 332.632651 125.370919 
L 334.813574 120.848379 
L 336.994497 116.643968 
L 339.17542 116.721097 
L 341.356343 117.073321 
L 343.537265 118.249298 
L 345.718188 120.623667 
L 347.899111 121.371399 
L 350.080034 122.359349 
L 352.260957 122.739569 
L 354.44188 122.747902 
L 356.622803 121.547267 
L 358.803725 121.949498 
L 360.984648 124.540922 
L 363.165571 124.906307 
L 365.346494 120.406086 
L 367.527417 113.946774 
L 369.70834 111.920685 
L 371.889263 113.332263 
L 374.070186 114.885086 
L 376.251108 114.240729 
L 378.432031 116.36266 
L 380.612954 119.732553 
L 382.793877 117.773253 
L 384.9748 115.84553 
L 387.155723 114.533952 
L 389.336646 114.903281 
L 391.517568 117.48204 
L 393.698491 117.716368 
L 395.879414 114.807858 
L 398.060337 110.515736 
L 400.24126 106.572106 
L 402.422183 105.830117 
L 404.603106 104.63723 
L 406.784028 103.236925 
L 408.964951 103.350792 
L 411.145874 102.411537 
L 413.326797 101.759966 
L 415.50772 103.161233 
L 417.688643 105.094345 
L 419.869566 106.959113 
L 422.050489 106.794451 
L 424.231411 106.194818 
L 426.412334 109.03819 
L 428.593257 114.1921 
L 430.77418 117.226081 
L 432.955103 116.056316 
L 435.136026 115.548294 
L 437.316949 116.763013 
L 439.497871 116.391922 
L 441.678794 115.011522 
L 443.859717 117.208412 
L 446.04064 119.016964 
L 448.221563 119.02427 
L 450.402486 115.718414 
L 452.583409 113.684693 
L 454.764332 116.421396 
L 456.945254 119.917608 
L 459.126177 121.11333 
L 461.3071 120.889515 
L 463.488023 121.122815 
L 465.668946 120.963982 
L 467.849869 120.705825 
L 470.030792 121.20943 
L 472.211714 117.608864 
L 474.392637 115.590072 
" clip-path="url(#p9b58bdbfa5)" style="fill: none; stroke: #1f77b4; stroke-width: 1.3; stroke-linecap: square"/>
   </g>
   <g id="line2d_24">
    <path d="M 282.471425 112.665767 
L 284.652348 112.731866 
L 286.833271 112.678282 
L 289.014194 113.262172 
L 291.195117 110.707896 
L 293.37604 108.538843 
L 295.556962 106.444423 
L 297.737885 110.596978 
L 299.918808 114.9827 
L 302.099731 119.552853 
L 304.280654 121.368189 
L 306.461577 115.081308 
L 308.6425 109.034664 
L 310.823422 110.804148 
L 313.004345 116.148356 
L 315.185268 124.758799 
L 317.366191 128.248432 
L 319.547114 124.377468 
L 321.728037 120.851137 
L 323.90896 119.079748 
L 326.089882 122.598361 
L 328.270805 123.556666 
L 330.451728 119.533715 
L 332.632651 111.433192 
L 334.813574 107.796326 
L 336.994497 118.531511 
L 339.17542 123.944626 
L 341.356343 117.633079 
L 343.537265 106.690321 
L 345.718188 102.813895 
L 347.899111 102.994422 
L 350.080034 106.509909 
L 352.260957 110.464411 
L 354.44188 112.033612 
L 356.622803 110.388472 
L 358.803725 103.639245 
L 360.984648 92.598669 
L 363.165571 84.955952 
L 365.346494 92.616337 
L 367.527417 101.901558 
L 369.70834 106.419886 
L 371.889263 103.53604 
L 374.070186 101.229593 
L 376.251108 98.741932 
L 378.432031 99.955487 
L 380.612954 105.889792 
L 382.793877 109.194586 
L 384.9748 109.273218 
L 387.155723 107.413053 
L 389.336646 110.550105 
L 391.517568 111.966744 
L 393.698491 104.130715 
L 395.879414 97.862725 
L 398.060337 105.474425 
L 400.24126 106.959263 
L 402.422183 106.199988 
L 404.603106 106.3703 
L 406.784028 113.263728 
L 408.964951 120.961175 
L 411.145874 120.44244 
L 413.326797 108.599291 
L 415.50772 101.874867 
L 417.688643 109.395167 
L 419.869566 117.177081 
L 422.050489 119.625064 
L 424.231411 120.026934 
L 426.412334 117.204151 
L 428.593257 114.55002 
L 430.77418 110.527154 
L 432.955103 110.336238 
L 435.136026 115.571778 
L 437.316949 111.754582 
L 439.497871 103.379503 
L 441.678794 105.241015 
L 443.859717 107.524835 
L 446.04064 106.177708 
L 448.221563 106.157363 
L 450.402486 110.947712 
L 452.583409 113.680358 
L 454.764332 114.264627 
L 456.945254 111.146792 
L 459.126177 111.770504 
L 461.3071 113.300511 
L 463.488023 111.620012 
L 465.668946 112.415962 
L 467.849869 117.324252 
L 470.030792 123.387205 
L 472.211714 123.980729 
L 474.392637 121.392108 
" clip-path="url(#p9b58bdbfa5)" style="fill: none; stroke: #ff7f0e; stroke-width: 1.3; stroke-linecap: square"/>
   </g>
   <g id="patch_12">
    <path d="M 272.875365 182.68 
L 272.875365 59.28 
" style="fill: none; stroke: #000000; stroke-width: 0.8; stroke-linejoin: miter; stroke-linecap: square"/>
   </g>
   <g id="patch_13">
    <path d="M 483.988698 182.68 
L 483.988698 59.28 
" style="fill: none; stroke: #000000; stroke-width: 0.8; stroke-linejoin: miter; stroke-linecap: square"/>
   </g>
   <g id="patch_14">
    <path d="M 272.875365 182.68 
L 483.988698 182.68 
" style="fill: none; stroke: #000000; stroke-width: 0.8; stroke-linejoin: miter; stroke-linecap: square"/>
   </g>
   <g id="patch_15">
    <path d="M 272.875365 59.28 
L 483.988698 59.28 
" style="fill: none; stroke: #000000; stroke-width: 0.8; stroke-linejoin: miter; stroke-linecap: square"/>
   </g>
   <g id="text_20">
    <!-- Cz -->
    <g transform="translate(372.927969 53.28) scale(0.09 -0.09)">
     <use xlink:href="#DejaVuSans-43"/>
     <use xlink:href="#DejaVuSans-7a" transform="translate(69.824219 0)"/>
    </g>
   </g>
  </g>
  <g id="axes_3">
   <g id="patch_16">
    <path d="M 509.488698 182.68 
L 720.602031 182.68 
L 720.602031 59.28 
L 509.488698 59.28 
L 509.488698 182.68 
z
" style="fill: none"/>
   </g>
   <g id="patch_17">
    <path d="M 549.617679 182.68 
L 571.426907 182.68 
L 571.426907 59.28 
L 549.617679 59.28 
z
" clip-path="url(#pa3c795863e)" style="fill: #d9d9d9; stroke: #d9d9d9; stroke-linejoin: miter"/>
   </g>
   <g id="patch_18">
    <path d="M 571.426907 182.68 
L 645.578285 182.68 
L 645.578285 59.28 
L 571.426907 59.28 
z
" clip-path="url(#pa3c795863e)" style="fill: #ebebeb; stroke: #ebebeb; stroke-linejoin: miter"/>
   </g>
   <g id="FillBetweenPolyCollection_5">
    <defs>
     <path id="m1f62859177" d="M 519.084759 -113.182657 
L 519.084759 -97.8079 
L 521.265681 -98.458467 
L 523.446604 -98.410783 
L 525.627527 -94.658484 
L 527.80845 -89.662839 
L 529.989373 -89.279765 
L 532.170296 -90.951427 
L 534.351219 -93.81751 
L 536.532141 -95.209309 
L 538.713064 -92.595066 
L 540.893987 -89.701658 
L 543.07491 -88.124684 
L 545.255833 -88.617214 
L 547.436756 -86.896107 
L 549.617679 -83.680307 
L 551.798601 -77.486724 
L 553.979524 -71.381391 
L 556.160447 -67.864632 
L 558.34137 -66.610415 
L 560.522293 -68.25182 
L 562.703216 -78.619722 
L 564.884139 -92.670263 
L 567.065062 -98.452842 
L 569.245984 -99.386231 
L 571.426907 -99.544156 
L 573.60783 -101.228404 
L 575.788753 -101.487315 
L 577.969676 -99.911588 
L 580.150599 -99.150287 
L 582.331522 -96.456645 
L 584.512444 -93.220534 
L 586.693367 -91.258617 
L 588.87429 -92.395058 
L 591.055213 -93.610192 
L 593.236136 -90.020014 
L 595.417059 -83.478255 
L 597.597982 -76.390838 
L 599.778905 -70.850216 
L 601.959827 -70.355241 
L 604.14075 -73.909393 
L 606.321673 -77.228736 
L 608.502596 -79.967925 
L 610.683519 -84.5057 
L 612.864442 -88.74617 
L 615.045365 -92.75619 
L 617.226287 -95.335432 
L 619.40721 -95.738058 
L 621.588133 -93.995685 
L 623.769056 -93.621308 
L 625.949979 -95.318153 
L 628.130902 -95.883691 
L 630.311825 -96.227275 
L 632.492748 -95.314048 
L 634.67367 -93.396469 
L 636.854593 -93.917801 
L 639.035516 -95.936979 
L 641.216439 -98.519321 
L 643.397362 -99.629145 
L 645.578285 -100.84759 
L 647.759208 -101.076954 
L 649.94013 -100.195073 
L 652.121053 -100.429659 
L 654.301976 -101.771098 
L 656.482899 -102.566912 
L 658.663822 -101.346641 
L 660.844745 -100.635294 
L 663.025668 -100.566559 
L 665.20659 -99.263868 
L 667.387513 -97.639508 
L 669.568436 -97.774002 
L 671.749359 -98.230702 
L 673.930282 -95.833837 
L 676.111205 -94.2258 
L 678.292128 -94.310367 
L 680.473051 -95.967417 
L 682.653973 -95.582222 
L 684.834896 -94.492769 
L 687.015819 -95.371999 
L 689.196742 -97.330642 
L 691.377665 -98.523832 
L 693.558588 -97.767184 
L 695.739511 -97.719731 
L 697.920433 -96.168916 
L 700.101356 -92.706337 
L 702.282279 -90.084012 
L 704.463202 -89.378106 
L 706.644125 -90.335455 
L 708.825048 -91.493983 
L 711.005971 -91.107057 
L 711.005971 -105.420529 
L 711.005971 -105.420529 
L 708.825048 -106.172216 
L 706.644125 -105.084092 
L 704.463202 -103.621202 
L 702.282279 -104.05579 
L 700.101356 -106.326622 
L 697.920433 -109.641511 
L 695.739511 -110.868195 
L 693.558588 -110.848511 
L 691.377665 -111.593038 
L 689.196742 -111.192011 
L 687.015819 -108.527456 
L 684.834896 -107.098849 
L 682.653973 -109.18929 
L 680.473051 -109.368633 
L 678.292128 -107.350098 
L 676.111205 -108.293235 
L 673.930282 -109.573425 
L 671.749359 -111.855417 
L 669.568436 -111.527533 
L 667.387513 -111.622054 
L 665.20659 -113.953278 
L 663.025668 -115.582746 
L 660.844745 -115.23941 
L 658.663822 -115.597645 
L 656.482899 -117.291611 
L 654.301976 -116.036174 
L 652.121053 -115.509316 
L 649.94013 -114.427498 
L 647.759208 -114.80424 
L 645.578285 -114.612046 
L 643.397362 -113.831481 
L 641.216439 -112.238956 
L 639.035516 -109.803564 
L 636.854593 -107.885762 
L 634.67367 -106.911581 
L 632.492748 -108.278825 
L 630.311825 -109.172078 
L 628.130902 -108.939431 
L 625.949979 -108.399331 
L 623.769056 -107.054689 
L 621.588133 -108.097692 
L 619.40721 -109.730972 
L 617.226287 -109.198365 
L 615.045365 -107.002464 
L 612.864442 -103.150285 
L 610.683519 -98.597649 
L 608.502596 -93.874184 
L 606.321673 -91.731123 
L 604.14075 -89.366259 
L 601.959827 -86.597648 
L 599.778905 -87.536644 
L 597.597982 -93.578059 
L 595.417059 -99.430809 
L 593.236136 -104.913239 
L 591.055213 -107.9206 
L 588.87429 -106.433303 
L 586.693367 -105.965221 
L 584.512444 -108.779285 
L 582.331522 -111.481397 
L 580.150599 -113.906213 
L 577.969676 -115.133036 
L 575.788753 -117.128281 
L 573.60783 -117.250624 
L 571.426907 -114.838532 
L 569.245984 -113.864933 
L 567.065062 -113.197211 
L 564.884139 -106.643274 
L 562.703216 -92.342166 
L 560.522293 -83.183078 
L 558.34137 -83.691309 
L 556.160447 -85.947273 
L 553.979524 -89.18737 
L 551.798601 -93.421528 
L 549.617679 -96.711947 
L 547.436756 -100.457949 
L 545.255833 -102.711264 
L 543.07491 -101.479239 
L 540.893987 -102.492891 
L 538.713064 -105.071655 
L 536.532141 -108.258125 
L 534.351219 -107.454402 
L 532.170296 -104.004735 
L 529.989373 -102.323854 
L 527.80845 -102.491023 
L 525.627527 -107.67964 
L 523.446604 -111.009809 
L 521.265681 -112.329145 
L 519.084759 -113.182657 
z
" style="stroke: #1f77b4; stroke-opacity: 0.15"/>
    </defs>
    <g clip-path="url(#pa3c795863e)">
     <use xlink:href="#m1f62859177" x="0" y="215.397188" style="fill: #1f77b4; fill-opacity: 0.15; stroke: #1f77b4; stroke-opacity: 0.15"/>
    </g>
   </g>
   <g id="FillBetweenPolyCollection_6">
    <defs>
     <path id="m0df8be4935" d="M 519.084759 -115.361406 
L 519.084759 -86.691402 
L 521.265681 -86.77924 
L 523.446604 -86.800367 
L 525.627527 -89.747728 
L 527.80845 -100.712386 
L 529.989373 -105.138472 
L 532.170296 -100.213683 
L 534.351219 -96.106443 
L 536.532141 -93.017014 
L 538.713064 -90.596785 
L 540.893987 -86.170424 
L 543.07491 -84.102564 
L 545.255833 -89.073438 
L 547.436756 -97.965513 
L 549.617679 -102.482895 
L 551.798601 -102.169927 
L 553.979524 -102.117068 
L 556.160447 -104.431345 
L 558.34137 -103.920223 
L 560.522293 -99.586618 
L 562.703216 -95.376348 
L 564.884139 -95.056165 
L 567.065062 -94.216922 
L 569.245984 -89.551215 
L 571.426907 -87.093446 
L 573.60783 -87.549475 
L 575.788753 -91.597319 
L 577.969676 -96.573687 
L 580.150599 -95.866423 
L 582.331522 -93.713876 
L 584.512444 -94.83997 
L 586.693367 -99.334524 
L 588.87429 -99.252651 
L 591.055213 -97.762369 
L 593.236136 -99.768467 
L 595.417059 -104.758546 
L 597.597982 -107.178146 
L 599.778905 -106.796026 
L 601.959827 -101.808616 
L 604.14075 -97.872869 
L 606.321673 -101.976137 
L 608.502596 -103.972842 
L 610.683519 -96.072734 
L 612.864442 -83.743621 
L 615.045365 -80.806654 
L 617.226287 -81.374475 
L 619.40721 -88.351701 
L 621.588133 -100.472433 
L 623.769056 -105.196202 
L 625.949979 -101.029224 
L 628.130902 -94.944516 
L 630.311825 -91.472723 
L 632.492748 -93.400903 
L 634.67367 -98.211704 
L 636.854593 -103.578427 
L 639.035516 -109.273246 
L 641.216439 -110.861841 
L 643.397362 -111.523435 
L 645.578285 -112.527178 
L 647.759208 -108.753777 
L 649.94013 -101.303909 
L 652.121053 -97.729704 
L 654.301976 -99.838648 
L 656.482899 -103.98268 
L 658.663822 -101.972796 
L 660.844745 -93.353504 
L 663.025668 -84.671107 
L 665.20659 -80.782375 
L 667.387513 -81.648586 
L 669.568436 -81.906548 
L 671.749359 -81.695313 
L 673.930282 -88.291461 
L 676.111205 -96.643165 
L 678.292128 -99.643507 
L 680.473051 -95.227939 
L 682.653973 -93.113691 
L 684.834896 -93.873607 
L 687.015819 -96.665521 
L 689.196742 -98.954232 
L 691.377665 -93.928231 
L 693.558588 -92.869752 
L 695.739511 -91.765357 
L 697.920433 -90.636292 
L 700.101356 -88.997579 
L 702.282279 -88.087204 
L 704.463202 -88.731115 
L 706.644125 -88.739335 
L 708.825048 -88.30296 
L 711.005971 -86.187386 
L 711.005971 -113.813985 
L 711.005971 -113.813985 
L 708.825048 -116.079127 
L 706.644125 -114.848996 
L 704.463202 -114.159953 
L 702.282279 -112.306495 
L 700.101356 -115.329077 
L 697.920433 -114.932784 
L 695.739511 -115.031615 
L 693.558588 -115.676317 
L 691.377665 -121.604029 
L 689.196742 -130.259401 
L 687.015819 -124.071117 
L 684.834896 -115.494276 
L 682.653973 -117.388995 
L 680.473051 -123.484823 
L 678.292128 -125.896438 
L 676.111205 -121.572472 
L 673.930282 -115.186735 
L 671.749359 -113.101002 
L 669.568436 -111.302899 
L 667.387513 -110.293663 
L 665.20659 -109.340354 
L 663.025668 -113.169372 
L 660.844745 -118.702235 
L 658.663822 -124.0525 
L 656.482899 -125.215863 
L 654.301976 -124.37928 
L 652.121053 -123.497588 
L 649.94013 -126.594488 
L 647.759208 -136.555689 
L 645.578285 -140.563381 
L 643.397362 -140.648211 
L 641.216439 -143.631644 
L 639.035516 -140.074778 
L 636.854593 -131.10247 
L 634.67367 -123.425811 
L 632.492748 -118.120469 
L 630.311825 -118.133878 
L 628.130902 -122.252715 
L 625.949979 -128.299625 
L 623.769056 -134.13751 
L 621.588133 -130.213203 
L 619.40721 -118.944445 
L 617.226287 -110.7378 
L 615.045365 -107.054924 
L 612.864442 -110.031085 
L 610.683519 -122.715645 
L 608.502596 -129.56832 
L 606.321673 -128.324328 
L 604.14075 -126.574771 
L 601.959827 -137.423829 
L 599.778905 -147.106572 
L 597.597982 -147.664801 
L 595.417059 -143.835989 
L 593.236136 -136.825226 
L 591.055213 -132.03672 
L 588.87429 -132.654715 
L 586.693367 -133.741632 
L 584.512444 -125.922053 
L 582.331522 -124.113325 
L 580.150599 -126.599399 
L 577.969676 -124.418124 
L 575.788753 -119.921273 
L 573.60783 -118.503674 
L 571.426907 -122.075701 
L 569.245984 -122.045207 
L 567.065062 -122.093993 
L 564.884139 -124.234253 
L 562.703216 -124.861789 
L 560.522293 -133.059744 
L 558.34137 -144.874896 
L 556.160447 -150.508097 
L 553.979524 -144.898645 
L 551.798601 -135.672524 
L 549.617679 -131.960032 
L 547.436756 -128.932075 
L 545.255833 -116.936741 
L 543.07491 -110.258039 
L 540.893987 -115.207229 
L 538.713064 -116.994726 
L 536.532141 -119.407914 
L 534.351219 -119.420274 
L 532.170296 -122.555728 
L 529.989373 -126.689954 
L 527.80845 -125.971936 
L 525.627527 -117.596789 
L 523.446604 -114.791095 
L 521.265681 -112.112302 
L 519.084759 -115.361406 
z
" style="stroke: #ff7f0e; stroke-opacity: 0.15"/>
    </defs>
    <g clip-path="url(#pa3c795863e)">
     <use xlink:href="#m0df8be4935" x="0" y="215.397188" style="fill: #ff7f0e; fill-opacity: 0.15; stroke: #ff7f0e; stroke-opacity: 0.15"/>
    </g>
   </g>
   <g id="line2d_25">
    <path d="M 509.488698 111.626791 
L 720.602031 111.626791 
" clip-path="url(#pa3c795863e)" style="fill: none; stroke-dasharray: 2.96,1.28; stroke-dashoffset: 0; stroke: #000000; stroke-width: 0.8"/>
   </g>
   <g id="matplotlib.axis_5">
    <g id="xtick_11">
     <g id="line2d_26">
      <g>
       <use xlink:href="#m8e6aca1a07" x="514.722913" y="182.68" style="stroke: #000000; stroke-width: 0.8"/>
      </g>
     </g>
     <g id="text_21">
      <!-- 0 -->
      <g transform="translate(512.496038 194.998906) scale(0.07 -0.07)">
       <use xlink:href="#DejaVuSans-30"/>
      </g>
     </g>
    </g>
    <g id="xtick_12">
     <g id="line2d_27">
      <g>
       <use xlink:href="#m8e6aca1a07" x="558.34137" y="182.68" style="stroke: #000000; stroke-width: 0.8"/>
      </g>
     </g>
     <g id="text_22">
      <!-- 10 -->
      <g transform="translate(553.88762 194.998906) scale(0.07 -0.07)">
       <use xlink:href="#DejaVuSans-31"/>
       <use xlink:href="#DejaVuSans-30" transform="translate(63.623047 0)"/>
      </g>
     </g>
    </g>
    <g id="xtick_13">
     <g id="line2d_28">
      <g>
       <use xlink:href="#m8e6aca1a07" x="601.959827" y="182.68" style="stroke: #000000; stroke-width: 0.8"/>
      </g>
     </g>
     <g id="text_23">
      <!-- 20 -->
      <g transform="translate(597.506077 194.998906) scale(0.07 -0.07)">
       <use xlink:href="#DejaVuSans-32"/>
       <use xlink:href="#DejaVuSans-30" transform="translate(63.623047 0)"/>
      </g>
     </g>
    </g>
    <g id="xtick_14">
     <g id="line2d_29">
      <g>
       <use xlink:href="#m8e6aca1a07" x="645.578285" y="182.68" style="stroke: #000000; stroke-width: 0.8"/>
      </g>
     </g>
     <g id="text_24">
      <!-- 30 -->
      <g transform="translate(641.124535 194.998906) scale(0.07 -0.07)">
       <use xlink:href="#DejaVuSans-33"/>
       <use xlink:href="#DejaVuSans-30" transform="translate(63.623047 0)"/>
      </g>
     </g>
    </g>
    <g id="xtick_15">
     <g id="line2d_30">
      <g>
       <use xlink:href="#m8e6aca1a07" x="689.196742" y="182.68" style="stroke: #000000; stroke-width: 0.8"/>
      </g>
     </g>
     <g id="text_25">
      <!-- 40 -->
      <g transform="translate(684.742992 194.998906) scale(0.07 -0.07)">
       <use xlink:href="#DejaVuSans-34"/>
       <use xlink:href="#DejaVuSans-30" transform="translate(63.623047 0)"/>
      </g>
     </g>
    </g>
    <g id="text_26">
     <!-- Frequency (Hz) -->
     <g transform="translate(584.881615 206.533437) scale(0.08 -0.08)">
      <use xlink:href="#DejaVuSans-46"/>
      <use xlink:href="#DejaVuSans-72" transform="translate(50.269531 0)"/>
      <use xlink:href="#DejaVuSans-65" transform="translate(89.132812 0)"/>
      <use xlink:href="#DejaVuSans-71" transform="translate(150.65625 0)"/>
      <use xlink:href="#DejaVuSans-75" transform="translate(214.132812 0)"/>
      <use xlink:href="#DejaVuSans-65" transform="translate(277.511719 0)"/>
      <use xlink:href="#DejaVuSans-6e" transform="translate(339.035156 0)"/>
      <use xlink:href="#DejaVuSans-63" transform="translate(402.414062 0)"/>
      <use xlink:href="#DejaVuSans-79" transform="translate(457.394531 0)"/>
      <use xlink:href="#DejaVuSans-20" transform="translate(516.574219 0)"/>
      <use xlink:href="#DejaVuSans-28" transform="translate(548.361328 0)"/>
      <use xlink:href="#DejaVuSans-48" transform="translate(587.375 0)"/>
      <use xlink:href="#DejaVuSans-7a" transform="translate(662.570312 0)"/>
      <use xlink:href="#DejaVuSans-29" transform="translate(715.060547 0)"/>
     </g>
    </g>
   </g>
   <g id="matplotlib.axis_6">
    <g id="ytick_9">
     <g id="line2d_31">
      <g>
       <use xlink:href="#m099d4d3683" x="509.488698" y="169.436768" style="stroke: #000000; stroke-width: 0.8"/>
      </g>
     </g>
    </g>
    <g id="ytick_10">
     <g id="line2d_32">
      <g>
       <use xlink:href="#m099d4d3683" x="509.488698" y="140.531779" style="stroke: #000000; stroke-width: 0.8"/>
      </g>
     </g>
    </g>
    <g id="ytick_11">
     <g id="line2d_33">
      <g>
       <use xlink:href="#m099d4d3683" x="509.488698" y="111.626791" style="stroke: #000000; stroke-width: 0.8"/>
      </g>
     </g>
    </g>
    <g id="ytick_12">
     <g id="line2d_34">
      <g>
       <use xlink:href="#m099d4d3683" x="509.488698" y="82.721802" style="stroke: #000000; stroke-width: 0.8"/>
      </g>
     </g>
    </g>
    <g id="text_27">
     <!-- ERD/ERS (dB) -->
     <g transform="translate(500.324948 148.236875) rotate(-90) scale(0.08 -0.08)">
      <use xlink:href="#DejaVuSans-45"/>
      <use xlink:href="#DejaVuSans-52" transform="translate(63.183594 0)"/>
      <use xlink:href="#DejaVuSans-44" transform="translate(132.666016 0)"/>
      <use xlink:href="#DejaVuSans-2f" transform="translate(209.667969 0)"/>
      <use xlink:href="#DejaVuSans-45" transform="translate(243.359375 0)"/>
      <use xlink:href="#DejaVuSans-52" transform="translate(306.542969 0)"/>
      <use xlink:href="#DejaVuSans-53" transform="translate(376.025391 0)"/>
      <use xlink:href="#DejaVuSans-20" transform="translate(439.501953 0)"/>
      <use xlink:href="#DejaVuSans-28" transform="translate(471.289062 0)"/>
      <use xlink:href="#DejaVuSans-64" transform="translate(510.302734 0)"/>
      <use xlink:href="#DejaVuSans-42" transform="translate(573.779297 0)"/>
      <use xlink:href="#DejaVuSans-29" transform="translate(642.382812 0)"/>
     </g>
    </g>
   </g>
   <g id="line2d_35">
    <path d="M 519.084759 109.901909 
L 521.265681 110.003382 
L 523.446604 110.686891 
L 525.627527 114.228125 
L 527.80845 119.320256 
L 529.989373 119.595378 
L 532.170296 117.919107 
L 534.351219 114.761232 
L 536.532141 113.66347 
L 538.713064 116.563827 
L 540.893987 119.299913 
L 543.07491 120.595226 
L 545.255833 119.732949 
L 547.436756 121.720159 
L 549.617679 125.201061 
L 551.798601 129.943061 
L 553.979524 135.112807 
L 556.160447 138.491235 
L 558.34137 140.246326 
L 560.522293 139.679738 
L 562.703216 129.916244 
L 564.884139 115.740419 
L 567.065062 109.572161 
L 569.245984 108.771606 
L 571.426907 108.205844 
L 573.60783 106.157674 
L 575.788753 106.089389 
L 577.969676 107.874875 
L 580.150599 108.868938 
L 582.331522 111.428166 
L 584.512444 114.397278 
L 586.693367 116.785269 
L 588.87429 115.983007 
L 591.055213 114.631792 
L 593.236136 117.930561 
L 595.417059 123.942655 
L 597.597982 130.412739 
L 599.778905 136.203757 
L 601.959827 136.920743 
L 604.14075 133.759361 
L 606.321673 130.917258 
L 608.502596 128.476133 
L 610.683519 123.845513 
L 612.864442 119.44896 
L 615.045365 115.517861 
L 617.226287 113.130289 
L 619.40721 112.662673 
L 621.588133 114.350499 
L 623.769056 115.059189 
L 625.949979 113.538445 
L 628.130902 112.985626 
L 630.311825 112.697511 
L 632.492748 113.600751 
L 634.67367 115.243163 
L 636.854593 114.495406 
L 639.035516 112.526916 
L 641.216439 110.018049 
L 643.397362 108.666875 
L 645.578285 107.667369 
L 647.759208 107.456591 
L 649.94013 108.085902 
L 652.121053 107.4277 
L 654.301976 106.493552 
L 656.482899 105.467926 
L 658.663822 106.925045 
L 660.844745 107.459836 
L 663.025668 107.322535 
L 665.20659 108.788614 
L 667.387513 110.766406 
L 669.568436 110.74642 
L 671.749359 110.354128 
L 673.930282 112.693557 
L 676.111205 114.13767 
L 678.292128 114.566955 
L 680.473051 112.729163 
L 682.653973 113.011431 
L 684.834896 114.601379 
L 687.015819 113.44746 
L 689.196742 111.135861 
L 691.377665 110.338752 
L 693.558588 111.08934 
L 695.739511 111.103224 
L 697.920433 112.491974 
L 700.101356 115.880708 
L 702.282279 118.327287 
L 704.463202 118.897533 
L 706.644125 117.687414 
L 708.825048 116.564088 
L 711.005971 117.133395 
" clip-path="url(#pa3c795863e)" style="fill: none; stroke: #1f77b4; stroke-width: 1.3; stroke-linecap: square"/>
   </g>
   <g id="line2d_36">
    <path d="M 519.084759 114.370784 
L 521.265681 115.951417 
L 523.446604 114.601456 
L 525.627527 111.724929 
L 527.80845 102.055027 
L 529.989373 99.482975 
L 532.170296 104.012482 
L 534.351219 107.633829 
L 536.532141 109.184724 
L 538.713064 111.601432 
L 540.893987 114.708361 
L 543.07491 118.216886 
L 545.255833 112.392098 
L 547.436756 101.948393 
L 549.617679 98.175724 
L 551.798601 96.475962 
L 553.979524 91.889331 
L 556.160447 87.927467 
L 558.34137 90.999628 
L 560.522293 99.074006 
L 562.703216 105.278119 
L 564.884139 105.751978 
L 567.065062 107.24173 
L 569.245984 109.598977 
L 571.426907 110.812614 
L 573.60783 112.370613 
L 575.788753 109.637891 
L 577.969676 104.901282 
L 580.150599 104.164277 
L 582.331522 106.483587 
L 584.512444 105.016176 
L 586.693367 98.85911 
L 588.87429 99.443504 
L 591.055213 100.497643 
L 593.236136 97.100341 
L 595.417059 91.09992 
L 597.597982 87.975714 
L 599.778905 88.445888 
L 601.959827 95.780965 
L 604.14075 103.173367 
L 606.321673 100.246955 
L 608.502596 98.626607 
L 610.683519 106.002998 
L 612.864442 118.509834 
L 615.045365 121.466398 
L 617.226287 119.34105 
L 619.40721 111.749114 
L 621.588133 100.054369 
L 623.769056 95.730332 
L 625.949979 100.732763 
L 628.130902 106.798572 
L 630.311825 110.593887 
L 632.492748 109.636501 
L 634.67367 104.57843 
L 636.854593 98.056739 
L 639.035516 90.723175 
L 641.216439 88.150445 
L 643.397362 89.311365 
L 645.578285 88.851908 
L 647.759208 92.742454 
L 649.94013 101.447989 
L 652.121053 104.783541 
L 654.301976 103.288223 
L 656.482899 100.797916 
L 658.663822 102.38454 
L 660.844745 109.369318 
L 663.025668 116.476948 
L 665.20659 120.335823 
L 667.387513 119.426063 
L 669.568436 118.792464 
L 671.749359 117.99903 
L 673.930282 113.65809 
L 676.111205 106.289369 
L 678.292128 102.627215 
L 680.473051 106.040806 
L 682.653973 110.145844 
L 684.834896 110.713246 
L 687.015819 105.028869 
L 689.196742 100.790371 
L 691.377665 107.631058 
L 693.558588 111.124153 
L 695.739511 111.998701 
L 697.920433 112.612649 
L 700.101356 113.23386 
L 702.282279 115.200338 
L 704.463202 113.951654 
L 706.644125 113.603022 
L 708.825048 113.206144 
L 711.005971 115.396502 
" clip-path="url(#pa3c795863e)" style="fill: none; stroke: #ff7f0e; stroke-width: 1.3; stroke-linecap: square"/>
   </g>
   <g id="patch_19">
    <path d="M 509.488698 182.68 
L 509.488698 59.28 
" style="fill: none; stroke: #000000; stroke-width: 0.8; stroke-linejoin: miter; stroke-linecap: square"/>
   </g>
   <g id="patch_20">
    <path d="M 720.602031 182.68 
L 720.602031 59.28 
" style="fill: none; stroke: #000000; stroke-width: 0.8; stroke-linejoin: miter; stroke-linecap: square"/>
   </g>
   <g id="patch_21">
    <path d="M 509.488698 182.68 
L 720.602031 182.68 
" style="fill: none; stroke: #000000; stroke-width: 0.8; stroke-linejoin: miter; stroke-linecap: square"/>
   </g>
   <g id="patch_22">
    <path d="M 509.488698 59.28 
L 720.602031 59.28 
" style="fill: none; stroke: #000000; stroke-width: 0.8; stroke-linejoin: miter; stroke-linecap: square"/>
   </g>
   <g id="text_28">
    <!-- C4 -->
    <g transform="translate(609.039974 53.28) scale(0.09 -0.09)">
     <use xlink:href="#DejaVuSans-43"/>
     <use xlink:href="#DejaVuSans-34" transform="translate(69.824219 0)"/>
    </g>
   </g>
  </g>
  <g id="text_29">
   <!-- ERD/ERS — ME — S05 (Movement vs Rest) -->
   <g transform="translate(246.556172 15.558281) scale(0.11 -0.11)">
    <defs>
     <path id="DejaVuSans-2014" d="M 313 1978 
L 6088 1978 
L 6088 1528 
L 313 1528 
L 313 1978 
z
" transform="scale(0.015625)"/>
     <path id="DejaVuSans-4d" d="M 628 4666 
L 1569 4666 
L 2759 1491 
L 3956 4666 
L 4897 4666 
L 4897 0 
L 4281 0 
L 4281 4097 
L 3078 897 
L 2444 897 
L 1241 4097 
L 1241 0 
L 628 0 
L 628 4666 
z
" transform="scale(0.015625)"/>
     <path id="DejaVuSans-35" d="M 691 4666 
L 3169 4666 
L 3169 4134 
L 1269 4134 
L 1269 2991 
Q 1406 3038 1543 3061 
Q 1681 3084 1819 3084 
Q 2600 3084 3056 2656 
Q 3513 2228 3513 1497 
Q 3513 744 3044 326 
Q 2575 -91 1722 -91 
Q 1428 -91 1123 -41 
Q 819 9 494 109 
L 494 744 
Q 775 591 1075 516 
Q 1375 441 1709 441 
Q 2250 441 2565 725 
Q 2881 1009 2881 1497 
Q 2881 1984 2565 2268 
Q 2250 2553 1709 2553 
Q 1456 2553 1204 2497 
Q 953 2441 691 2322 
L 691 4666 
z
" transform="scale(0.015625)"/>
     <path id="DejaVuSans-6f" d="M 1959 3097 
Q 1497 3097 1228 2736 
Q 959 2375 959 1747 
Q 959 1119 1226 758 
Q 1494 397 1959 397 
Q 2419 397 2687 759 
Q 2956 1122 2956 1747 
Q 2956 2369 2687 2733 
Q 2419 3097 1959 3097 
z
M 1959 3584 
Q 2709 3584 3137 3096 
Q 3566 2609 3566 1747 
Q 3566 888 3137 398 
Q 2709 -91 1959 -91 
Q 1206 -91 779 398 
Q 353 888 353 1747 
Q 353 2609 779 3096 
Q 1206 3584 1959 3584 
z
" transform="scale(0.015625)"/>
     <path id="DejaVuSans-76" d="M 191 3500 
L 800 3500 
L 1894 563 
L 2988 3500 
L 3597 3500 
L 2284 0 
L 1503 0 
L 191 3500 
z
" transform="scale(0.015625)"/>
     <path id="DejaVuSans-6d" d="M 3328 2828 
Q 3544 3216 3844 3400 
Q 4144 3584 4550 3584 
Q 5097 3584 5394 3201 
Q 5691 2819 5691 2113 
L 5691 0 
L 5113 0 
L 5113 2094 
Q 5113 2597 4934 2840 
Q 4756 3084 4391 3084 
Q 3944 3084 3684 2787 
Q 3425 2491 3425 1978 
L 3425 0 
L 2847 0 
L 2847 2094 
Q 2847 2600 2669 2842 
Q 2491 3084 2119 3084 
Q 1678 3084 1418 2786 
Q 1159 2488 1159 1978 
L 1159 0 
L 581 0 
L 581 3500 
L 1159 3500 
L 1159 2956 
Q 1356 3278 1631 3431 
Q 1906 3584 2284 3584 
Q 2666 3584 2933 3390 
Q 3200 3197 3328 2828 
z
" transform="scale(0.015625)"/>
     <path id="DejaVuSans-74" d="M 1172 4494 
L 1172 3500 
L 2356 3500 
L 2356 3053 
L 1172 3053 
L 1172 1153 
Q 1172 725 1289 603 
Q 1406 481 1766 481 
L 2356 481 
L 2356 0 
L 1766 0 
Q 1100 0 847 248 
Q 594 497 594 1153 
L 594 3053 
L 172 3053 
L 172 3500 
L 594 3500 
L 594 4494 
L 1172 4494 
z
" transform="scale(0.015625)"/>
     <path id="DejaVuSans-73" d="M 2834 3397 
L 2834 2853 
Q 2591 2978 2328 3040 
Q 2066 3103 1784 3103 
Q 1356 3103 1142 2972 
Q 928 2841 928 2578 
Q 928 2378 1081 2264 
Q 1234 2150 1697 2047 
L 1894 2003 
Q 2506 1872 2764 1633 
Q 3022 1394 3022 966 
Q 3022 478 2636 193 
Q 2250 -91 1575 -91 
Q 1294 -91 989 -36 
Q 684 19 347 128 
L 347 722 
Q 666 556 975 473 
Q 1284 391 1588 391 
Q 1994 391 2212 530 
Q 2431 669 2431 922 
Q 2431 1156 2273 1281 
Q 2116 1406 1581 1522 
L 1381 1569 
Q 847 1681 609 1914 
Q 372 2147 372 2553 
Q 372 3047 722 3315 
Q 1072 3584 1716 3584 
Q 2034 3584 2315 3537 
Q 2597 3491 2834 3397 
z
" transform="scale(0.015625)"/>
    </defs>
    <use xlink:href="#DejaVuSans-45"/>
    <use xlink:href="#DejaVuSans-52" transform="translate(63.183594 0)"/>
    <use xlink:href="#DejaVuSans-44" transform="translate(132.666016 0)"/>
    <use xlink:href="#DejaVuSans-2f" transform="translate(209.667969 0)"/>
    <use xlink:href="#DejaVuSans-45" transform="translate(243.359375 0)"/>
    <use xlink:href="#DejaVuSans-52" transform="translate(306.542969 0)"/>
    <use xlink:href="#DejaVuSans-53" transform="translate(376.025391 0)"/>
    <use xlink:href="#DejaVuSans-20" transform="translate(439.501953 0)"/>
    <use xlink:href="#DejaVuSans-2014" transform="translate(471.289062 0)"/>
    <use xlink:href="#DejaVuSans-20" transform="translate(571.289062 0)"/>
    <use xlink:href="#DejaVuSans-4d" transform="translate(603.076172 0)"/>
    <use xlink:href="#DejaVuSans-45" transform="translate(689.355469 0)"/>
    <use xlink:href="#DejaVuSans-20" transform="translate(752.539062 0)"/>
    <use xlink:href="#DejaVuSans-2014" transform="translate(784.326172 0)"/>
    <use xlink:href="#DejaVuSans-20" transform="translate(884.326172 0)"/>
    <use xlink:href="#DejaVuSans-53" transform="translate(916.113281 0)"/>
    <use xlink:href="#DejaVuSans-30" transform="translate(979.589844 0)"/>
    <use xlink:href="#DejaVuSans-35" transform="translate(1043.212891 0)"/>
    <use xlink:href="#DejaVuSans-20" transform="translate(1106.835938 0)"/>
    <use xlink:href="#DejaVuSans-28" transform="translate(1138.623047 0)"/>
    <use xlink:href="#DejaVuSans-4d" transform="translate(1177.636719 0)"/>
    <use xlink:href="#DejaVuSans-6f" transform="translate(1263.916016 0)"/>
    <use xlink:href="#DejaVuSans-76" transform="translate(1325.097656 0)"/>
    <use xlink:href="#DejaVuSans-65" transform="translate(1384.277344 0)"/>
    <use xlink:href="#DejaVuSans-6d" transform="translate(1445.800781 0)"/>
    <use xlink:href="#DejaVuSans-65" transform="translate(1543.212891 0)"/>
    <use xlink:href="#DejaVuSans-6e" transform="translate(1604.736328 0)"/>
    <use xlink:href="#DejaVuSans-74" transform="translate(1668.115234 0)"/>
    <use xlink:href="#DejaVuSans-20" transform="translate(1707.324219 0)"/>
    <use xlink:href="#DejaVuSans-76" transform="translate(1739.111328 0)"/>
    <use xlink:href="#DejaVuSans-73" transform="translate(1798.291016 0)"/>
    <use xlink:href="#DejaVuSans-20" transform="translate(1850.390625 0)"/>
    <use xlink:href="#DejaVuSans-52" transform="translate(1882.177734 0)"/>
    <use xlink:href="#DejaVuSans-65" transform="translate(1947.160156 0)"/>
    <use xlink:href="#DejaVuSans-73" transform="translate(2008.683594 0)"/>
    <use xlink:href="#DejaVuSans-74" transform="translate(2060.783203 0)"/>
    <use xlink:href="#DejaVuSans-29" transform="translate(2099.992188 0)"/>
   </g>
  </g>
  <g id="legend_1">
   <g id="patch_23">
    <path d="M 663.350812 30.109375 
L 722.830031 30.109375 
Q 724.230031 30.109375 724.230031 28.709375 
L 724.230031 8.86 
Q 724.230031 7.46 722.830031 7.46 
L 663.350812 7.46 
Q 661.950812 7.46 661.950812 8.86 
L 661.950812 28.709375 
Q 661.950812 30.109375 663.350812 30.109375 
z
" style="fill: #ffffff; opacity: 0.8; stroke: #cccccc; stroke-linejoin: miter"/>
   </g>
   <g id="line2d_37">
    <path d="M 664.750812 13.128906 
L 671.750812 13.128906 
L 678.750812 13.128906 
" style="fill: none; stroke: #1f77b4; stroke-width: 1.3; stroke-linecap: square"/>
   </g>
   <g id="text_30">
    <!-- Movement -->
    <g transform="translate(684.350812 15.578906) scale(0.07 -0.07)">
     <use xlink:href="#DejaVuSans-4d"/>
     <use xlink:href="#DejaVuSans-6f" transform="translate(86.279297 0)"/>
     <use xlink:href="#DejaVuSans-76" transform="translate(147.460938 0)"/>
     <use xlink:href="#DejaVuSans-65" transform="translate(206.640625 0)"/>
     <use xlink:href="#DejaVuSans-6d" transform="translate(268.164062 0)"/>
     <use xlink:href="#DejaVuSans-65" transform="translate(365.576172 0)"/>
     <use xlink:href="#DejaVuSans-6e" transform="translate(427.099609 0)"/>
     <use xlink:href="#DejaVuSans-74" transform="translate(490.478516 0)"/>
    </g>
   </g>
   <g id="line2d_38">
    <path d="M 664.750812 23.403594 
L 671.750812 23.403594 
L 678.750812 23.403594 
" style="fill: none; stroke: #ff7f0e; stroke-width: 1.3; stroke-linecap: square"/>
   </g>
   <g id="text_31">
    <!-- rest -->
    <g transform="translate(684.350812 25.853594) scale(0.07 -0.07)">
     <use xlink:href="#DejaVuSans-72"/>
     <use xlink:href="#DejaVuSans-65" transform="translate(38.863281 0)"/>
     <use xlink:href="#DejaVuSans-73" transform="translate(100.386719 0)"/>
     <use xlink:href="#DejaVuSans-74" transform="translate(152.486328 0)"/>
    </g>
   </g>
  </g>
 </g>
 <defs>
  <clipPath id="pe7d785e443">
   <rect x="36.262031" y="59.28" width="211.113333" height="123.4"/>
  </clipPath>
  <clipPath id="p9b58bdbfa5">
   <rect x="272.875365" y="59.28" width="211.113333" height="123.4"/>
  </clipPath>
  <clipPath id="pa3c795863e">
   <rect x="509.488698" y="59.28" width="211.113333" height="123.4"/>
  </clipPath>
 </defs>
</svg>
