<?xml version="1.0" encoding="utf-8" standalone="no"?>
<!DOCTYPE svg PUBLIC "-//W3C//DTD SVG 1.1//EN"
  "http://www.w3.org/Graphics/SVG/1.1/DTD/svg11.dtd">
<svg xmlns:xlink="http://www.w3.org/1999/xlink" width="731.430031pt" height="215.397188pt" viewBox="0 0 731.430031 215.397188" xmlns="http://www.w3.org/2000/svg" version="1.1">
 <metadata>
  <rdf:RDF xmlns:dc="http://purl.org/dc/elements/1.1/" xmlns:cc="http://creativecommons.org/ns#" xmlns:rdf="http://www.w3.org/1999/02/22-rdf-syntax-ns#">
   <cc:Work>
    <dc:type rdf:resource="http://purl.org/dc/dcmitype/StillImage"/>
    <dc:date>2026-06-26T22:25:42.116292</dc:date>
    <dc:format>image/svg+xml</dc:format>
    <dc:creator>
     <cc:Agent>
      <dc:title>Matplotlib v3.10.9, https://matplotlib.org/</dc:title>
     </cc:Agent>
    </dc:creator>
   </cc:Work>
  </rdf:RDF>
 </metadata>
 <defs>
  <style type="text/css">*{stroke-linejoin: round; stroke-linecap: butt}</style>
 </defs>
 <g id="figure_1">
  <g id="patch_1">
   <path d="M 0 215.397188 
L 731.430031 215.397188 
L 731.430031 0 
L 0 0 
L 0 215.397188 
z
" style="fill: none"/>
  </g>
  <g id="axes_1">
   <g id="patch_2">
    <path d="M 36.262031 182.68 
L 247.375365 182.68 
L 247.375365 59.28 
L 36.262031 59.28 
L 36.262031 182.68 
z
" style="fill: none"/>
   </g>
   <g id="patch_3">
    <path d="M 76.391012 182.68 
L 98.200241 182.68 
L 98.200241 59.28 
L 76.391012 59.28 
z
" clip-path="url(#p3f9ab051ef)" style="fill: #d9d9d9; stroke: #d9d9d9; stroke-linejoin: miter"/>
   </g>
   <g id="patch_4">
    <path d="M 98.200241 182.68 
L 172.351618 182.68 
L 172.351618 59.28 
L 98.200241 59.28 
z
" clip-path="url(#p3f9ab051ef)" style="fill: #ebebeb; stroke: #ebebeb; stroke-linejoin: miter"/>
   </g>
   <g id="FillBetweenPolyCollection_1">
    <defs>
     <path id="m7180891af4" d="M 45.858092 -125.881441 
L 45.858092 -110.214135 
L 48.039015 -102.521603 
L 50.219938 -90.443824 
L 52.40086 -81.568776 
L 54.581783 -83.82212 
L 56.762706 -89.679249 
L 58.943629 -90.302117 
L 61.124552 -84.231939 
L 63.305475 -76.009449 
L 65.486398 -70.097497 
L 67.667321 -69.993698 
L 69.848243 -68.439111 
L 72.029166 -65.389521 
L 74.210089 -62.808767 
L 76.391012 -61.318343 
L 78.571935 -59.456613 
L 80.752858 -58.707431 
L 82.933781 -59.393039 
L 85.114703 -61.273752 
L 87.295626 -59.553068 
L 89.476549 -58.985176 
L 91.657472 -58.574052 
L 93.838395 -58.323065 
L 96.019318 -61.083549 
L 98.200241 -64.520233 
L 100.381163 -66.935844 
L 102.562086 -66.633398 
L 104.743009 -65.719582 
L 106.923932 -65.217879 
L 109.104855 -64.037955 
L 111.285778 -60.665776 
L 113.466701 -58.627623 
L 115.647624 -56.297227 
L 117.828546 -52.058173 
L 120.009469 -47.559885 
L 122.190392 -41.910707 
L 124.371315 -38.998554 
L 126.552238 -38.326278 
L 128.733161 -39.074703 
L 130.914084 -40.94442 
L 133.095006 -43.657888 
L 135.275929 -45.928138 
L 137.456852 -49.779122 
L 139.637775 -52.887582 
L 141.818698 -57.085015 
L 143.999621 -61.283324 
L 146.180544 -63.344367 
L 148.361467 -63.954767 
L 150.542389 -64.037923 
L 152.723312 -62.588638 
L 154.904235 -64.83633 
L 157.085158 -71.338705 
L 159.266081 -75.794312 
L 161.447004 -78.911816 
L 163.627927 -79.677645 
L 165.808849 -80.651815 
L 167.989772 -81.678007 
L 170.170695 -79.710829 
L 172.351618 -78.876172 
L 174.532541 -82.493921 
L 176.713464 -86.217372 
L 178.894387 -88.566824 
L 181.075309 -88.939958 
L 183.256232 -84.230861 
L 185.437155 -79.62723 
L 187.618078 -77.534159 
L 189.799001 -80.036779 
L 191.979924 -83.812292 
L 194.160847 -83.631167 
L 196.34177 -82.165775 
L 198.522692 -80.94421 
L 200.703615 -79.246835 
L 202.884538 -80.163932 
L 205.065461 -83.687695 
L 207.246384 -86.691949 
L 209.427307 -89.947286 
L 211.60823 -94.019004 
L 213.789152 -96.352016 
L 215.970075 -93.955649 
L 218.150998 -88.208968 
L 220.331921 -84.901996 
L 222.512844 -86.934746 
L 224.693767 -90.086789 
L 226.87469 -86.186472 
L 229.055613 -81.400633 
L 231.236535 -78.839866 
L 233.417458 -81.23419 
L 235.598381 -86.774898 
L 237.779304 -90.7576 
L 237.779304 -105.036466 
L 237.779304 -105.036466 
L 235.598381 -100.624624 
L 233.417458 -94.094353 
L 231.236535 -90.830899 
L 229.055613 -93.424183 
L 226.87469 -99.513629 
L 224.693767 -104.07707 
L 222.512844 -100.925816 
L 220.331921 -98.95384 
L 218.150998 -101.553581 
L 215.970075 -108.08652 
L 213.789152 -109.988761 
L 211.60823 -108.25139 
L 209.427307 -103.799213 
L 207.246384 -100.360629 
L 205.065461 -96.823737 
L 202.884538 -94.559846 
L 200.703615 -92.975324 
L 198.522692 -94.228971 
L 196.34177 -96.02936 
L 194.160847 -97.580853 
L 191.979924 -97.900516 
L 189.799001 -93.656333 
L 187.618078 -91.478281 
L 185.437155 -94.293218 
L 183.256232 -98.669075 
L 181.075309 -103.122346 
L 178.894387 -101.876321 
L 176.713464 -99.702535 
L 174.532541 -96.162323 
L 172.351618 -92.47411 
L 170.170695 -92.90075 
L 167.989772 -94.566425 
L 165.808849 -93.871142 
L 163.627927 -92.713562 
L 161.447004 -92.582376 
L 159.266081 -90.350597 
L 157.085158 -87.098049 
L 154.904235 -80.239256 
L 152.723312 -77.562724 
L 150.542389 -79.393775 
L 148.361467 -79.522666 
L 146.180544 -79.339774 
L 143.999621 -77.600929 
L 141.818698 -73.897762 
L 139.637775 -70.185794 
L 137.456852 -67.433772 
L 135.275929 -62.605852 
L 133.095006 -60.54493 
L 130.914084 -58.655904 
L 128.733161 -56.517124 
L 126.552238 -55.89893 
L 124.371315 -56.332656 
L 122.190392 -59.006821 
L 120.009469 -64.314487 
L 117.828546 -67.88733 
L 115.647624 -72.054403 
L 113.466701 -74.861414 
L 111.285778 -76.8801 
L 109.104855 -79.545943 
L 106.923932 -80.167487 
L 104.743009 -80.602647 
L 102.562086 -82.061428 
L 100.381163 -84.282434 
L 98.200241 -84.188443 
L 96.019318 -81.599716 
L 93.838395 -77.420169 
L 91.657472 -76.18173 
L 89.476549 -76.719724 
L 87.295626 -75.879661 
L 85.114703 -77.248399 
L 82.933781 -76.423228 
L 80.752858 -77.25895 
L 78.571935 -77.653723 
L 76.391012 -79.140046 
L 74.210089 -78.459432 
L 72.029166 -79.205174 
L 69.848243 -81.895556 
L 67.667321 -83.986733 
L 65.486398 -84.317944 
L 63.305475 -89.998785 
L 61.124552 -97.900725 
L 58.943629 -104.758865 
L 56.762706 -103.693845 
L 54.581783 -97.233855 
L 52.40086 -94.544846 
L 50.219938 -104.272133 
L 48.039015 -116.918225 
L 45.858092 -125.881441 
z
" style="stroke: #1f77b4; stroke-opacity: 0.15"/>
    </defs>
    <g clip-path="url(#p3f9ab051ef)">
     <use xlink:href="#m7180891af4" x="0" y="215.397188" style="fill: #1f77b4; fill-opacity: 0.15; stroke: #1f77b4; stroke-opacity: 0.15"/>
    </g>
   </g>
   <g id="FillBetweenPolyCollection_2">
    <defs>
     <path id="me362d3225d" d="M 45.858092 -103.11516 
L 45.858092 -74.125176 
L 48.039015 -73.346534 
L 50.219938 -71.886242 
L 52.40086 -72.531051 
L 54.581783 -81.252115 
L 56.762706 -86.840037 
L 58.943629 -87.432504 
L 61.124552 -88.36478 
L 63.305475 -86.03707 
L 65.486398 -76.239004 
L 67.667321 -66.6855 
L 69.848243 -60.661644 
L 72.029166 -58.112326 
L 74.210089 -52.700165 
L 76.391012 -52.705542 
L 78.571935 -55.697265 
L 80.752858 -62.204132 
L 82.933781 -68.519023 
L 85.114703 -68.488378 
L 87.295626 -65.933886 
L 89.476549 -67.286337 
L 91.657472 -77.189521 
L 93.838395 -93.182618 
L 96.019318 -109.994187 
L 98.200241 -119.911222 
L 100.381163 -120.525596 
L 102.562086 -107.946123 
L 104.743009 -87.041566 
L 106.923932 -71.703287 
L 109.104855 -67.395773 
L 111.285778 -67.247243 
L 113.466701 -65.412722 
L 115.647624 -65.950472 
L 117.828546 -66.636453 
L 120.009469 -64.380837 
L 122.190392 -63.528976 
L 124.371315 -64.237236 
L 126.552238 -65.587833 
L 128.733161 -68.051809 
L 130.914084 -76.215019 
L 133.095006 -85.468792 
L 135.275929 -87.902435 
L 137.456852 -82.883557 
L 139.637775 -77.289377 
L 141.818698 -75.170209 
L 143.999621 -80.552827 
L 146.180544 -94.023725 
L 148.361467 -104.935125 
L 150.542389 -110.966413 
L 152.723312 -110.338783 
L 154.904235 -106.484479 
L 157.085158 -102.568145 
L 159.266081 -103.742327 
L 161.447004 -101.700855 
L 163.627927 -100.184851 
L 165.808849 -99.901432 
L 167.989772 -96.370749 
L 170.170695 -89.651983 
L 172.351618 -93.086303 
L 174.532541 -101.3553 
L 176.713464 -95.241797 
L 178.894387 -88.191067 
L 181.075309 -90.317922 
L 183.256232 -92.73944 
L 185.437155 -91.612083 
L 187.618078 -86.477726 
L 189.799001 -81.603823 
L 191.979924 -81.33093 
L 194.160847 -82.968987 
L 196.34177 -91.281826 
L 198.522692 -100.68935 
L 200.703615 -104.80103 
L 202.884538 -102.186338 
L 205.065461 -95.015056 
L 207.246384 -88.419184 
L 209.427307 -84.555076 
L 211.60823 -79.536552 
L 213.789152 -79.654446 
L 215.970075 -83.866783 
L 218.150998 -89.201979 
L 220.331921 -93.398257 
L 222.512844 -90.772156 
L 224.693767 -90.177385 
L 226.87469 -88.55044 
L 229.055613 -82.803332 
L 231.236535 -73.43936 
L 233.417458 -68.385797 
L 235.598381 -70.163794 
L 237.779304 -77.495238 
L 237.779304 -106.283187 
L 237.779304 -106.283187 
L 235.598381 -99.557255 
L 233.417458 -98.748111 
L 231.236535 -104.252414 
L 229.055613 -113.131295 
L 226.87469 -116.97593 
L 224.693767 -114.68927 
L 222.512844 -114.86828 
L 220.331921 -119.857927 
L 218.150998 -118.566248 
L 215.970075 -112.943587 
L 213.789152 -107.163136 
L 211.60823 -107.007243 
L 209.427307 -111.468963 
L 207.246384 -114.186041 
L 205.065461 -118.938771 
L 202.884538 -126.752797 
L 200.703615 -129.636405 
L 198.522692 -126.546045 
L 196.34177 -117.589264 
L 194.160847 -111.196497 
L 191.979924 -112.454418 
L 189.799001 -110.368071 
L 187.618078 -110.41617 
L 185.437155 -116.452883 
L 183.256232 -120.013378 
L 181.075309 -117.794183 
L 178.894387 -113.825615 
L 176.713464 -120.593764 
L 174.532541 -126.040558 
L 172.351618 -123.183514 
L 170.170695 -118.812745 
L 167.989772 -119.677725 
L 165.808849 -125.979057 
L 163.627927 -129.497202 
L 161.447004 -132.451714 
L 159.266081 -138.475779 
L 157.085158 -136.013508 
L 154.904235 -133.871419 
L 152.723312 -136.015341 
L 150.542389 -134.834327 
L 148.361467 -134.91095 
L 146.180544 -127.114445 
L 143.999621 -112.95472 
L 141.818698 -106.144376 
L 139.637775 -106.251039 
L 137.456852 -110.359256 
L 135.275929 -116.789008 
L 133.095006 -115.961335 
L 130.914084 -107.000877 
L 128.733161 -102.194037 
L 126.552238 -101.44049 
L 124.371315 -98.61077 
L 122.190392 -99.883227 
L 120.009469 -100.583966 
L 117.828546 -100.929219 
L 115.647624 -97.662988 
L 113.466701 -97.792805 
L 111.285778 -103.699635 
L 109.104855 -99.649077 
L 106.923932 -102.525245 
L 104.743009 -120.321311 
L 102.562086 -139.932287 
L 100.381163 -150.508097 
L 98.200241 -147.720656 
L 96.019318 -138.600148 
L 93.838395 -126.681184 
L 91.657472 -112.369421 
L 89.476549 -103.416128 
L 87.295626 -106.011195 
L 85.114703 -107.677841 
L 82.933781 -108.110521 
L 80.752858 -99.74355 
L 78.571935 -94.036697 
L 76.391012 -90.973802 
L 74.210089 -91.165258 
L 72.029166 -95.052481 
L 69.848243 -94.33777 
L 67.667321 -98.722641 
L 65.486398 -109.260105 
L 63.305475 -117.364273 
L 61.124552 -118.887596 
L 58.943629 -120.976227 
L 56.762706 -120.131251 
L 54.581783 -104.165391 
L 52.40086 -97.046104 
L 50.219938 -98.684301 
L 48.039015 -101.532858 
L 45.858092 -103.11516 
z
" style="stroke: #ff7f0e; stroke-opacity: 0.15"/>
    </defs>
    <g clip-path="url(#p3f9ab051ef)">
     <use xlink:href="#me362d3225d" x="0" y="215.397188" style="fill: #ff7f0e; fill-opacity: 0.15; stroke: #ff7f0e; stroke-opacity: 0.15"/>
    </g>
   </g>
   <g id="line2d_1">
    <path d="M 36.262031 119.389085 
L 247.375365 119.389085 
" clip-path="url(#p3f9ab051ef)" style="fill: none; stroke-dasharray: 2.96,1.28; stroke-dashoffset: 0; stroke: #000000; stroke-width: 0.8"/>
   </g>
   <g id="matplotlib.axis_1">
    <g id="xtick_1">
     <g id="line2d_2">
      <defs>
       <path id="m5acb40c5e2" d="M 0 0 
L 0 3.5 
" style="stroke: #000000; stroke-width: 0.8"/>
      </defs>
      <g>
       <use xlink:href="#m5acb40c5e2" x="41.496246" y="182.68" style="stroke: #000000; stroke-width: 0.8"/>
      </g>
     </g>
     <g id="text_1">
      <!-- 0 -->
      <g transform="translate(39.269371 194.998906) scale(0.07 -0.07)">
       <defs>
        <path id="DejaVuSans-30" d="M 2034 4250 
Q 1547 4250 1301 3770 
Q 1056 3291 1056 2328 
Q 1056 1369 1301 889 
Q 1547 409 2034 409 
Q 2525 409 2770 889 
Q 3016 1369 3016 2328 
Q 3016 3291 2770 3770 
Q 2525 4250 2034 4250 
z
M 2034 4750 
Q 2819 4750 3233 4129 
Q 3647 3509 3647 2328 
Q 3647 1150 3233 529 
Q 2819 -91 2034 -91 
Q 1250 -91 836 529 
Q 422 1150 422 2328 
Q 422 3509 836 4129 
Q 1250 4750 2034 4750 
z
" transform="scale(0.015625)"/>
       </defs>
       <use xlink:href="#DejaVuSans-30"/>
      </g>
     </g>
    </g>
    <g id="xtick_2">
     <g id="line2d_3">
      <g>
       <use xlink:href="#m5acb40c5e2" x="85.114703" y="182.68" style="stroke: #000000; stroke-width: 0.8"/>
      </g>
     </g>
     <g id="text_2">
      <!-- 10 -->
      <g transform="translate(80.660953 194.998906) scale(0.07 -0.07)">
       <defs>
        <path id="DejaVuSans-31" d="M 794 531 
L 1825 531 
L 1825 4091 
L 703 3866 
L 703 4441 
L 1819 4666 
L 2450 4666 
L 2450 531 
L 3481 531 
L 3481 0 
L 794 0 
L 794 531 
z
" transform="scale(0.015625)"/>
       </defs>
       <use xlink:href="#DejaVuSans-31"/>
       <use xlink:href="#DejaVuSans-30" transform="translate(63.623047 0)"/>
      </g>
     </g>
    </g>
    <g id="xtick_3">
     <g id="line2d_4">
      <g>
       <use xlink:href="#m5acb40c5e2" x="128.733161" y="182.68" style="stroke: #000000; stroke-width: 0.8"/>
      </g>
     </g>
     <g id="text_3">
      <!-- 20 -->
      <g transform="translate(124.279411 194.998906) scale(0.07 -0.07)">
       <defs>
        <path id="DejaVuSans-32" d="M 1228 531 
L 3431 531 
L 3431 0 
L 469 0 
L 469 531 
Q 828 903 1448 1529 
Q 2069 2156 2228 2338 
Q 2531 2678 2651 2914 
Q 2772 3150 2772 3378 
Q 2772 3750 2511 3984 
Q 2250 4219 1831 4219 
Q 1534 4219 1204 4116 
Q 875 4013 500 3803 
L 500 4441 
Q 881 4594 1212 4672 
Q 1544 4750 1819 4750 
Q 2544 4750 2975 4387 
Q 3406 4025 3406 3419 
Q 3406 3131 3298 2873 
Q 3191 2616 2906 2266 
Q 2828 2175 2409 1742 
Q 1991 1309 1228 531 
z
" transform="scale(0.015625)"/>
       </defs>
       <use xlink:href="#DejaVuSans-32"/>
       <use xlink:href="#DejaVuSans-30" transform="translate(63.623047 0)"/>
      </g>
     </g>
    </g>
    <g id="xtick_4">
     <g id="line2d_5">
      <g>
       <use xlink:href="#m5acb40c5e2" x="172.351618" y="182.68" style="stroke: #000000; stroke-width: 0.8"/>
      </g>
     </g>
     <g id="text_4">
      <!-- 30 -->
      <g transform="translate(167.897868 194.998906) scale(0.07 -0.07)">
       <defs>
        <path id="DejaVuSans-33" d="M 2597 2516 
Q 3050 2419 3304 2112 
Q 3559 1806 3559 1356 
Q 3559 666 3084 287 
Q 2609 -91 1734 -91 
Q 1441 -91 1130 -33 
Q 819 25 488 141 
L 488 750 
Q 750 597 1062 519 
Q 1375 441 1716 441 
Q 2309 441 2620 675 
Q 2931 909 2931 1356 
Q 2931 1769 2642 2001 
Q 2353 2234 1838 2234 
L 1294 2234 
L 1294 2753 
L 1863 2753 
Q 2328 2753 2575 2939 
Q 2822 3125 2822 3475 
Q 2822 3834 2567 4026 
Q 2313 4219 1838 4219 
Q 1578 4219 1281 4162 
Q 984 4106 628 3988 
L 628 4550 
Q 988 4650 1302 4700 
Q 1616 4750 1894 4750 
Q 2613 4750 3031 4423 
Q 3450 4097 3450 3541 
Q 3450 3153 3228 2886 
Q 3006 2619 2597 2516 
z
" transform="scale(0.015625)"/>
       </defs>
       <use xlink:href="#DejaVuSans-33"/>
       <use xlink:href="#DejaVuSans-30" transform="translate(63.623047 0)"/>
      </g>
     </g>
    </g>
    <g id="xtick_5">
     <g id="line2d_6">
      <g>
       <use xlink:href="#m5acb40c5e2" x="215.970075" y="182.68" style="stroke: #000000; stroke-width: 0.8"/>
      </g>
     </g>
     <g id="text_5">
      <!-- 40 -->
      <g transform="translate(211.516325 194.998906) scale(0.07 -0.07)">
       <defs>
        <path id="DejaVuSans-34" d="M 2419 4116 
L 825 1625 
L 2419 1625 
L 2419 4116 
z
M 2253 4666 
L 3047 4666 
L 3047 1625 
L 3713 1625 
L 3713 1100 
L 3047 1100 
L 3047 0 
L 2419 0 
L 2419 1100 
L 313 1100 
L 313 1709 
L 2253 4666 
z
" transform="scale(0.015625)"/>
       </defs>
       <use xlink:href="#DejaVuSans-34"/>
       <use xlink:href="#DejaVuSans-30" transform="translate(63.623047 0)"/>
      </g>
     </g>
    </g>
    <g id="text_6">
     <!-- Frequency (Hz) -->
     <g transform="translate(111.654948 206.533437) scale(0.08 -0.08)">
      <defs>
       <path id="DejaVuSans-46" d="M 628 4666 
L 3309 4666 
L 3309 4134 
L 1259 4134 
L 1259 2759 
L 3109 2759 
L 3109 2228 
L 1259 2228 
L 1259 0 
L 628 0 
L 628 4666 
z
" transform="scale(0.015625)"/>
       <path id="DejaVuSans-72" d="M 2631 2963 
Q 2534 3019 2420 3045 
Q 2306 3072 2169 3072 
Q 1681 3072 1420 2755 
Q 1159 2438 1159 1844 
L 1159 0 
L 581 0 
L 581 3500 
L 1159 3500 
L 1159 2956 
Q 1341 3275 1631 3429 
Q 1922 3584 2338 3584 
Q 2397 3584 2469 3576 
Q 2541 3569 2628 3553 
L 2631 2963 
z
" transform="scale(0.015625)"/>
       <path id="DejaVuSans-65" d="M 3597 1894 
L 3597 1613 
L 953 1613 
Q 991 1019 1311 708 
Q 1631 397 2203 397 
Q 2534 397 2845 478 
Q 3156 559 3463 722 
L 3463 178 
Q 3153 47 2828 -22 
Q 2503 -91 2169 -91 
Q 1331 -91 842 396 
Q 353 884 353 1716 
Q 353 2575 817 3079 
Q 1281 3584 2069 3584 
Q 2775 3584 3186 3129 
Q 3597 2675 3597 1894 
z
M 3022 2063 
Q 3016 2534 2758 2815 
Q 2500 3097 2075 3097 
Q 1594 3097 1305 2825 
Q 1016 2553 972 2059 
L 3022 2063 
z
" transform="scale(0.015625)"/>
       <path id="DejaVuSans-71" d="M 947 1747 
Q 947 1113 1208 752 
Q 1469 391 1925 391 
Q 2381 391 2643 752 
Q 2906 1113 2906 1747 
Q 2906 2381 2643 2742 
Q 2381 3103 1925 3103 
Q 1469 3103 1208 2742 
Q 947 2381 947 1747 
z
M 2906 525 
Q 2725 213 2448 61 
Q 2172 -91 1784 -91 
Q 1150 -91 751 415 
Q 353 922 353 1747 
Q 353 2572 751 3078 
Q 1150 3584 1784 3584 
Q 2172 3584 2448 3432 
Q 2725 3281 2906 2969 
L 2906 3500 
L 3481 3500 
L 3481 -1331 
L 2906 -1331 
L 2906 525 
z
" transform="scale(0.015625)"/>
       <path id="DejaVuSans-75" d="M 544 1381 
L 544 3500 
L 1119 3500 
L 1119 1403 
Q 1119 906 1312 657 
Q 1506 409 1894 409 
Q 2359 409 2629 706 
Q 2900 1003 2900 1516 
L 2900 3500 
L 3475 3500 
L 3475 0 
L 2900 0 
L 2900 538 
Q 2691 219 2414 64 
Q 2138 -91 1772 -91 
Q 1169 -91 856 284 
Q 544 659 544 1381 
z
M 1991 3584 
L 1991 3584 
z
" transform="scale(0.015625)"/>
       <path id="DejaVuSans-6e" d="M 3513 2113 
L 3513 0 
L 2938 0 
L 2938 2094 
Q 2938 2591 2744 2837 
Q 2550 3084 2163 3084 
Q 1697 3084 1428 2787 
Q 1159 2491 1159 1978 
L 1159 0 
L 581 0 
L 581 3500 
L 1159 3500 
L 1159 2956 
Q 1366 3272 1645 3428 
Q 1925 3584 2291 3584 
Q 2894 3584 3203 3211 
Q 3513 2838 3513 2113 
z
" transform="scale(0.015625)"/>
       <path id="DejaVuSans-63" d="M 3122 3366 
L 3122 2828 
Q 2878 2963 2633 3030 
Q 2388 3097 2138 3097 
Q 1578 3097 1268 2742 
Q 959 2388 959 1747 
Q 959 1106 1268 751 
Q 1578 397 2138 397 
Q 2388 397 2633 464 
Q 2878 531 3122 666 
L 3122 134 
Q 2881 22 2623 -34 
Q 2366 -91 2075 -91 
Q 1284 -91 818 406 
Q 353 903 353 1747 
Q 353 2603 823 3093 
Q 1294 3584 2113 3584 
Q 2378 3584 2631 3529 
Q 2884 3475 3122 3366 
z
" transform="scale(0.015625)"/>
       <path id="DejaVuSans-79" d="M 2059 -325 
Q 1816 -950 1584 -1140 
Q 1353 -1331 966 -1331 
L 506 -1331 
L 506 -850 
L 844 -850 
Q 1081 -850 1212 -737 
Q 1344 -625 1503 -206 
L 1606 56 
L 191 3500 
L 800 3500 
L 1894 763 
L 2988 3500 
L 3597 3500 
L 2059 -325 
z
" transform="scale(0.015625)"/>
       <path id="DejaVuSans-20" transform="scale(0.015625)"/>
       <path id="DejaVuSans-28" d="M 1984 4856 
Q 1566 4138 1362 3434 
Q 1159 2731 1159 2009 
Q 1159 1288 1364 580 
Q 1569 -128 1984 -844 
L 1484 -844 
Q 1016 -109 783 600 
Q 550 1309 550 2009 
Q 550 2706 781 3412 
Q 1013 4119 1484 4856 
L 1984 4856 
z
" transform="scale(0.015625)"/>
       <path id="DejaVuSans-48" d="M 628 4666 
L 1259 4666 
L 1259 2753 
L 3553 2753 
L 3553 4666 
L 4184 4666 
L 4184 0 
L 3553 0 
L 3553 2222 
L 1259 2222 
L 1259 0 
L 628 0 
L 628 4666 
z
" transform="scale(0.015625)"/>
       <path id="DejaVuSans-7a" d="M 353 3500 
L 3084 3500 
L 3084 2975 
L 922 459 
L 3084 459 
L 3084 0 
L 275 0 
L 275 525 
L 2438 3041 
L 353 3041 
L 353 3500 
z
" transform="scale(0.015625)"/>
       <path id="DejaVuSans-29" d="M 513 4856 
L 1013 4856 
Q 1481 4119 1714 3412 
Q 1947 2706 1947 2009 
Q 1947 1309 1714 600 
Q 1481 -109 1013 -844 
L 513 -844 
Q 928 -128 1133 580 
Q 1338 1288 1338 2009 
Q 1338 2731 1133 3434 
Q 928 4138 513 4856 
z
" transform="scale(0.015625)"/>
      </defs>
      <use xlink:href="#DejaVuSans-46"/>
      <use xlink:href="#DejaVuSans-72" transform="translate(50.269531 0)"/>
      <use xlink:href="#DejaVuSans-65" transform="translate(89.132812 0)"/>
      <use xlink:href="#DejaVuSans-71" transform="translate(150.65625 0)"/>
      <use xlink:href="#DejaVuSans-75" transform="translate(214.132812 0)"/>
      <use xlink:href="#DejaVuSans-65" transform="translate(277.511719 0)"/>
      <use xlink:href="#DejaVuSans-6e" transform="translate(339.035156 0)"/>
      <use xlink:href="#DejaVuSans-63" transform="translate(402.414062 0)"/>
      <use xlink:href="#DejaVuSans-79" transform="translate(457.394531 0)"/>
      <use xlink:href="#DejaVuSans-20" transform="translate(516.574219 0)"/>
      <use xlink:href="#DejaVuSans-28" transform="translate(548.361328 0)"/>
      <use xlink:href="#DejaVuSans-48" transform="translate(587.375 0)"/>
      <use xlink:href="#DejaVuSans-7a" transform="translate(662.570312 0)"/>
      <use xlink:href="#DejaVuSans-29" transform="translate(715.060547 0)"/>
     </g>
    </g>
   </g>
   <g id="matplotlib.axis_2">
    <g id="ytick_1">
     <g id="line2d_7">
      <defs>
       <path id="m392a74eaf1" d="M 0 0 
L -3.5 0 
" style="stroke: #000000; stroke-width: 0.8"/>
      </defs>
      <g>
       <use xlink:href="#m392a74eaf1" x="36.262031" y="180.599333" style="stroke: #000000; stroke-width: 0.8"/>
      </g>
     </g>
     <g id="text_7">
      <!-- −4 -->
      <g transform="translate(18.9425 183.258786) scale(0.07 -0.07)">
       <defs>
        <path id="DejaVuSans-2212" d="M 678 2272 
L 4684 2272 
L 4684 1741 
L 678 1741 
L 678 2272 
z
" transform="scale(0.015625)"/>
       </defs>
       <use xlink:href="#DejaVuSans-2212"/>
       <use xlink:href="#DejaVuSans-34" transform="translate(83.789062 0)"/>
      </g>
     </g>
    </g>
    <g id="ytick_2">
     <g id="line2d_8">
      <g>
       <use xlink:href="#m392a74eaf1" x="36.262031" y="149.994209" style="stroke: #000000; stroke-width: 0.8"/>
      </g>
     </g>
     <g id="text_8">
      <!-- −2 -->
      <g transform="translate(18.9425 152.653662) scale(0.07 -0.07)">
       <use xlink:href="#DejaVuSans-2212"/>
       <use xlink:href="#DejaVuSans-32" transform="translate(83.789062 0)"/>
      </g>
     </g>
    </g>
    <g id="ytick_3">
     <g id="line2d_9">
      <g>
       <use xlink:href="#m392a74eaf1" x="36.262031" y="119.389085" style="stroke: #000000; stroke-width: 0.8"/>
      </g>
     </g>
     <g id="text_9">
      <!-- 0 -->
      <g transform="translate(24.808281 122.048538) scale(0.07 -0.07)">
       <use xlink:href="#DejaVuSans-30"/>
      </g>
     </g>
    </g>
    <g id="ytick_4">
     <g id="line2d_10">
      <g>
       <use xlink:href="#m392a74eaf1" x="36.262031" y="88.783961" style="stroke: #000000; stroke-width: 0.8"/>
      </g>
     </g>
     <g id="text_10">
      <!-- 2 -->
      <g transform="translate(24.808281 91.443414) scale(0.07 -0.07)">
       <use xlink:href="#DejaVuSans-32"/>
      </g>
     </g>
    </g>
    <g id="text_11">
     <!-- ERD/ERS (dB) -->
     <g transform="translate(13.27875 148.236875) rotate(-90) scale(0.08 -0.08)">
      <defs>
       <path id="DejaVuSans-45" d="M 628 4666 
L 3578 4666 
L 3578 4134 
L 1259 4134 
L 1259 2753 
L 3481 2753 
L 3481 2222 
L 1259 2222 
L 1259 531 
L 3634 531 
L 3634 0 
L 628 0 
L 628 4666 
z
" transform="scale(0.015625)"/>
       <path id="DejaVuSans-52" d="M 2841 2188 
Q 3044 2119 3236 1894 
Q 3428 1669 3622 1275 
L 4263 0 
L 3584 0 
L 2988 1197 
Q 2756 1666 2539 1819 
Q 2322 1972 1947 1972 
L 1259 1972 
L 1259 0 
L 628 0 
L 628 4666 
L 2053 4666 
Q 2853 4666 3247 4331 
Q 3641 3997 3641 3322 
Q 3641 2881 3436 2590 
Q 3231 2300 2841 2188 
z
M 1259 4147 
L 1259 2491 
L 2053 2491 
Q 2509 2491 2742 2702 
Q 2975 2913 2975 3322 
Q 2975 3731 2742 3939 
Q 2509 4147 2053 4147 
L 1259 4147 
z
" transform="scale(0.015625)"/>
       <path id="DejaVuSans-44" d="M 1259 4147 
L 1259 519 
L 2022 519 
Q 2988 519 3436 956 
Q 3884 1394 3884 2338 
Q 3884 3275 3436 3711 
Q 2988 4147 2022 4147 
L 1259 4147 
z
M 628 4666 
L 1925 4666 
Q 3281 4666 3915 4102 
Q 4550 3538 4550 2338 
Q 4550 1131 3912 565 
Q 3275 0 1925 0 
L 628 0 
L 628 4666 
z
" transform="scale(0.015625)"/>
       <path id="DejaVuSans-2f" d="M 1625 4666 
L 2156 4666 
L 531 -594 
L 0 -594 
L 1625 4666 
z
" transform="scale(0.015625)"/>
       <path id="DejaVuSans-53" d="M 3425 4513 
L 3425 3897 
Q 3066 4069 2747 4153 
Q 2428 4238 2131 4238 
Q 1616 4238 1336 4038 
Q 1056 3838 1056 3469 
Q 1056 3159 1242 3001 
Q 1428 2844 1947 2747 
L 2328 2669 
Q 3034 2534 3370 2195 
Q 3706 1856 3706 1288 
Q 3706 609 3251 259 
Q 2797 -91 1919 -91 
Q 1588 -91 1214 -16 
Q 841 59 441 206 
L 441 856 
Q 825 641 1194 531 
Q 1563 422 1919 422 
Q 2459 422 2753 634 
Q 3047 847 3047 1241 
Q 3047 1584 2836 1778 
Q 2625 1972 2144 2069 
L 1759 2144 
Q 1053 2284 737 2584 
Q 422 2884 422 3419 
Q 422 4038 858 4394 
Q 1294 4750 2059 4750 
Q 2388 4750 2728 4690 
Q 3069 4631 3425 4513 
z
" transform="scale(0.015625)"/>
       <path id="DejaVuSans-64" d="M 2906 2969 
L 2906 4863 
L 3481 4863 
L 3481 0 
L 2906 0 
L 2906 525 
Q 2725 213 2448 61 
Q 2172 -91 1784 -91 
Q 1150 -91 751 415 
Q 353 922 353 1747 
Q 353 2572 751 3078 
Q 1150 3584 1784 3584 
Q 2172 3584 2448 3432 
Q 2725 3281 2906 2969 
z
M 947 1747 
Q 947 1113 1208 752 
Q 1469 391 1925 391 
Q 2381 391 2643 752 
Q 2906 1113 2906 1747 
Q 2906 2381 2643 2742 
Q 2381 3103 1925 3103 
Q 1469 3103 1208 2742 
Q 947 2381 947 1747 
z
" transform="scale(0.015625)"/>
       <path id="DejaVuSans-42" d="M 1259 2228 
L 1259 519 
L 2272 519 
Q 2781 519 3026 730 
Q 3272 941 3272 1375 
Q 3272 1813 3026 2020 
Q 2781 2228 2272 2228 
L 1259 2228 
z
M 1259 4147 
L 1259 2741 
L 2194 2741 
Q 2656 2741 2882 2914 
Q 3109 3088 3109 3444 
Q 3109 3797 2882 3972 
Q 2656 4147 2194 4147 
L 1259 4147 
z
M 628 4666 
L 2241 4666 
Q 2963 4666 3353 4366 
Q 3744 4066 3744 3513 
Q 3744 3084 3544 2831 
Q 3344 2578 2956 2516 
Q 3422 2416 3680 2098 
Q 3938 1781 3938 1306 
Q 3938 681 3513 340 
Q 3088 0 2303 0 
L 628 0 
L 628 4666 
z
" transform="scale(0.015625)"/>
      </defs>
      <use xlink:href="#DejaVuSans-45"/>
      <use xlink:href="#DejaVuSans-52" transform="translate(63.183594 0)"/>
      <use xlink:href="#DejaVuSans-44" transform="translate(132.666016 0)"/>
      <use xlink:href="#DejaVuSans-2f" transform="translate(209.667969 0)"/>
      <use xlink:href="#DejaVuSans-45" transform="translate(243.359375 0)"/>
      <use xlink:href="#DejaVuSans-52" transform="translate(306.542969 0)"/>
      <use xlink:href="#DejaVuSans-53" transform="translate(376.025391 0)"/>
      <use xlink:href="#DejaVuSans-20" transform="translate(439.501953 0)"/>
      <use xlink:href="#DejaVuSans-28" transform="translate(471.289062 0)"/>
      <use xlink:href="#DejaVuSans-64" transform="translate(510.302734 0)"/>
      <use xlink:href="#DejaVuSans-42" transform="translate(573.779297 0)"/>
      <use xlink:href="#DejaVuSans-29" transform="translate(642.382812 0)"/>
     </g>
    </g>
   </g>
   <g id="line2d_11">
    <path d="M 45.858092 97.3494 
L 48.039015 105.677274 
L 50.219938 118.039209 
L 52.40086 127.340377 
L 54.581783 124.8692 
L 56.762706 118.710641 
L 58.943629 117.866697 
L 61.124552 124.330855 
L 63.305475 132.393071 
L 65.486398 138.189467 
L 67.667321 138.406972 
L 69.848243 140.229854 
L 72.029166 143.09984 
L 74.210089 144.763088 
L 76.391012 145.167993 
L 78.571935 146.84202 
L 80.752858 147.413997 
L 82.933781 147.489054 
L 85.114703 146.136112 
L 87.295626 147.680823 
L 89.476549 147.544737 
L 91.657472 148.019296 
L 93.838395 147.525571 
L 96.019318 144.055555 
L 98.200241 141.04285 
L 100.381163 139.788048 
L 102.562086 141.049775 
L 104.743009 142.236073 
L 106.923932 142.704505 
L 109.104855 143.605238 
L 111.285778 146.62425 
L 113.466701 148.652669 
L 115.647624 151.221373 
L 117.828546 155.424436 
L 120.009469 159.460001 
L 122.190392 164.938423 
L 124.371315 167.731583 
L 126.552238 168.284583 
L 128.733161 167.601274 
L 130.914084 165.597025 
L 133.095006 163.295778 
L 135.275929 161.130193 
L 137.456852 156.79074 
L 139.637775 153.860499 
L 141.818698 149.905799 
L 143.999621 145.955061 
L 146.180544 144.055117 
L 148.361467 143.658471 
L 150.542389 143.681338 
L 152.723312 145.321506 
L 154.904235 142.859394 
L 157.085158 136.17881 
L 159.266081 132.324733 
L 161.447004 129.650091 
L 163.627927 129.201584 
L 165.808849 128.135709 
L 167.989772 127.274971 
L 170.170695 129.091398 
L 172.351618 129.722046 
L 174.532541 126.069066 
L 176.713464 122.437234 
L 178.894387 120.175615 
L 181.075309 119.366035 
L 183.256232 123.94722 
L 185.437155 128.436964 
L 187.618078 130.890967 
L 189.799001 128.550631 
L 191.979924 124.540784 
L 194.160847 124.791177 
L 196.34177 126.29962 
L 198.522692 127.810597 
L 200.703615 129.286108 
L 202.884538 128.035299 
L 205.065461 125.141472 
L 207.246384 121.870899 
L 209.427307 118.523938 
L 211.60823 114.261991 
L 213.789152 112.226799 
L 215.970075 114.376103 
L 218.150998 120.515913 
L 220.331921 123.46927 
L 222.512844 121.466907 
L 224.693767 118.315258 
L 226.87469 122.547137 
L 229.055613 127.984779 
L 231.236535 130.561805 
L 233.417458 127.732916 
L 235.598381 121.697427 
L 237.779304 117.500155 
" clip-path="url(#p3f9ab051ef)" style="fill: none; stroke: #1f77b4; stroke-width: 1.3; stroke-linecap: square"/>
   </g>
   <g id="line2d_12">
    <path d="M 45.858092 126.777019 
L 48.039015 127.957492 
L 50.219938 130.111916 
L 52.40086 130.60861 
L 54.581783 122.688435 
L 56.762706 111.911543 
L 58.943629 111.192822 
L 61.124552 111.770999 
L 63.305475 113.696516 
L 65.486398 122.647633 
L 67.667321 132.693117 
L 69.848243 137.89748 
L 72.029166 138.814784 
L 74.210089 143.464476 
L 76.391012 143.557516 
L 78.571935 140.530207 
L 80.752858 134.423347 
L 82.933781 127.082416 
L 85.114703 127.314078 
L 87.295626 129.424647 
L 89.476549 130.045955 
L 91.657472 120.617717 
L 93.838395 105.465287 
L 96.019318 91.10002 
L 98.200241 81.581248 
L 100.381163 79.880341 
L 102.562086 91.457983 
L 104.743009 111.715749 
L 106.923932 128.282921 
L 109.104855 131.874762 
L 111.285778 129.923748 
L 113.466701 133.794424 
L 115.647624 133.590458 
L 117.828546 131.614351 
L 120.009469 132.914786 
L 122.190392 133.691086 
L 124.371315 133.973185 
L 126.552238 131.883026 
L 128.733161 130.274265 
L 130.914084 123.78924 
L 133.095006 114.682124 
L 135.275929 113.051466 
L 137.456852 118.775781 
L 139.637775 123.626979 
L 141.818698 124.739895 
L 143.999621 118.643414 
L 146.180544 104.828102 
L 148.361467 95.47415 
L 150.542389 92.496817 
L 152.723312 92.220126 
L 154.904235 95.219239 
L 157.085158 96.106361 
L 159.266081 94.288134 
L 161.447004 98.320903 
L 163.627927 100.556161 
L 165.808849 102.456943 
L 167.989772 107.372951 
L 170.170695 111.164823 
L 172.351618 107.262279 
L 174.532541 101.699259 
L 176.713464 107.479407 
L 178.894387 114.388847 
L 181.075309 111.341135 
L 183.256232 109.020778 
L 185.437155 111.364704 
L 187.618078 116.95024 
L 189.799001 119.411241 
L 191.979924 118.504514 
L 194.160847 118.314446 
L 196.34177 110.961642 
L 198.522692 101.77949 
L 200.703615 98.17847 
L 202.884538 100.92762 
L 205.065461 108.420274 
L 207.246384 114.094575 
L 209.427307 117.385168 
L 211.60823 122.12529 
L 213.789152 121.988397 
L 215.970075 116.992002 
L 218.150998 111.513074 
L 220.331921 108.769096 
L 222.512844 112.576969 
L 224.693767 112.96386 
L 226.87469 112.634003 
L 229.055613 117.429874 
L 231.236535 126.5513 
L 233.417458 131.830233 
L 235.598381 130.536663 
L 237.779304 123.507975 
" clip-path="url(#p3f9ab051ef)" style="fill: none; stroke: #ff7f0e; stroke-width: 1.3; stroke-linecap: square"/>
   </g>
   <g id="patch_5">
    <path d="M 36.262031 182.68 
L 36.262031 59.28 
" style="fill: none; stroke: #000000; stroke-width: 0.8; stroke-linejoin: miter; stroke-linecap: square"/>
   </g>
   <g id="patch_6">
    <path d="M 247.375365 182.68 
L 247.375365 59.28 
" style="fill: none; stroke: #000000; stroke-width: 0.8; stroke-linejoin: miter; stroke-linecap: square"/>
   </g>
   <g id="patch_7">
    <path d="M 36.262031 182.68 
L 247.375365 182.68 
" style="fill: none; stroke: #000000; stroke-width: 0.8; stroke-linejoin: miter; stroke-linecap: square"/>
   </g>
   <g id="patch_8">
    <path d="M 36.262031 59.28 
L 247.375365 59.28 
" style="fill: none; stroke: #000000; stroke-width: 0.8; stroke-linejoin: miter; stroke-linecap: square"/>
   </g>
   <g id="text_12">
    <!-- C3 -->
    <g transform="translate(135.813307 53.28) scale(0.09 -0.09)">
     <defs>
      <path id="DejaVuSans-43" d="M 4122 4306 
L 4122 3641 
Q 3803 3938 3442 4084 
Q 3081 4231 2675 4231 
Q 1875 4231 1450 3742 
Q 1025 3253 1025 2328 
Q 1025 1406 1450 917 
Q 1875 428 2675 428 
Q 3081 428 3442 575 
Q 3803 722 4122 1019 
L 4122 359 
Q 3791 134 3420 21 
Q 3050 -91 2638 -91 
Q 1578 -91 968 557 
Q 359 1206 359 2328 
Q 359 3453 968 4101 
Q 1578 4750 2638 4750 
Q 3056 4750 3426 4639 
Q 3797 4528 4122 4306 
z
" transform="scale(0.015625)"/>
     </defs>
     <use xlink:href="#DejaVuSans-43"/>
     <use xlink:href="#DejaVuSans-33" transform="translate(69.824219 0)"/>
    </g>
   </g>
  </g>
  <g id="axes_2">
   <g id="patch_9">
    <path d="M 272.875365 182.68 
L 483.988698 182.68 
L 483.988698 59.28 
L 272.875365 59.28 
L 272.875365 182.68 
z
" style="fill: none"/>
   </g>
   <g id="patch_10">
    <path d="M 313.004345 182.68 
L 334.813574 182.68 
L 334.813574 59.28 
L 313.004345 59.28 
z
" clip-path="url(#p73cdf8118e)" style="fill: #d9d9d9; stroke: #d9d9d9; stroke-linejoin: miter"/>
   </g>
   <g id="patch_11">
    <path d="M 334.813574 182.68 
L 408.964951 182.68 
L 408.964951 59.28 
L 334.813574 59.28 
z
" clip-path="url(#p73cdf8118e)" style="fill: #ebebeb; stroke: #ebebeb; stroke-linejoin: miter"/>
   </g>
   <g id="FillBetweenPolyCollection_3">
    <defs>
     <path id="me73ce0cd38" d="M 282.471425 -129.647844 
L 282.471425 -114.620905 
L 284.652348 -104.23726 
L 286.833271 -93.82031 
L 289.014194 -87.864618 
L 291.195117 -82.842594 
L 293.37604 -77.425798 
L 295.556962 -74.931395 
L 297.737885 -76.789421 
L 299.918808 -83.031385 
L 302.099731 -90.076275 
L 304.280654 -88.090699 
L 306.461577 -82.199741 
L 308.6425 -76.80467 
L 310.823422 -72.307312 
L 313.004345 -71.613259 
L 315.185268 -71.692994 
L 317.366191 -72.115558 
L 319.547114 -74.726281 
L 321.728037 -77.463198 
L 323.90896 -80.008783 
L 326.089882 -80.451675 
L 328.270805 -76.562017 
L 330.451728 -72.906403 
L 332.632651 -75.911272 
L 334.813574 -79.945579 
L 336.994497 -81.671815 
L 339.17542 -80.327677 
L 341.356343 -80.265084 
L 343.537265 -81.206636 
L 345.718188 -78.767079 
L 347.899111 -74.948146 
L 350.080034 -73.343974 
L 352.260957 -70.745914 
L 354.44188 -64.579337 
L 356.622803 -58.799696 
L 358.803725 -56.101031 
L 360.984648 -57.500489 
L 363.165571 -59.868972 
L 365.346494 -59.38792 
L 367.527417 -57.277109 
L 369.70834 -55.510897 
L 371.889263 -56.771462 
L 374.070186 -58.67435 
L 376.251108 -62.245024 
L 378.432031 -63.329231 
L 380.612954 -62.055859 
L 382.793877 -62.041734 
L 384.9748 -63.379498 
L 387.155723 -65.562311 
L 389.336646 -68.976907 
L 391.517568 -74.946352 
L 393.698491 -79.614011 
L 395.879414 -81.840877 
L 398.060337 -79.7672 
L 400.24126 -80.681854 
L 402.422183 -87.22472 
L 404.603106 -92.090967 
L 406.784028 -92.030408 
L 408.964951 -91.477024 
L 411.145874 -91.156838 
L 413.326797 -91.709969 
L 415.50772 -90.516524 
L 417.688643 -89.281365 
L 419.869566 -88.086734 
L 422.050489 -85.519637 
L 424.231411 -81.885949 
L 426.412334 -80.240767 
L 428.593257 -83.121462 
L 430.77418 -84.217983 
L 432.955103 -83.89959 
L 435.136026 -83.303088 
L 437.316949 -81.61022 
L 439.497871 -79.749293 
L 441.678794 -81.633595 
L 443.859717 -85.426062 
L 446.04064 -86.295725 
L 448.221563 -87.181726 
L 450.402486 -89.584173 
L 452.583409 -88.904821 
L 454.764332 -88.729492 
L 456.945254 -87.098351 
L 459.126177 -83.666901 
L 461.3071 -81.730837 
L 463.488023 -83.213405 
L 465.668946 -84.609888 
L 467.849869 -85.338542 
L 470.030792 -84.708775 
L 472.211714 -86.215161 
L 474.392637 -88.681546 
L 474.392637 -102.778313 
L 474.392637 -102.778313 
L 472.211714 -100.339986 
L 470.030792 -98.455026 
L 467.849869 -98.80107 
L 465.668946 -97.368833 
L 463.488023 -96.714185 
L 461.3071 -95.513855 
L 459.126177 -98.017888 
L 456.945254 -101.724152 
L 454.764332 -102.378734 
L 452.583409 -102.906203 
L 450.402486 -104.291214 
L 448.221563 -101.359624 
L 446.04064 -100.471835 
L 443.859717 -99.498262 
L 441.678794 -94.969841 
L 439.497871 -93.228023 
L 437.316949 -96.119165 
L 435.136026 -98.081442 
L 432.955103 -98.459375 
L 430.77418 -97.790419 
L 428.593257 -97.831923 
L 426.412334 -95.599765 
L 424.231411 -96.946971 
L 422.050489 -100.122738 
L 419.869566 -102.658657 
L 417.688643 -103.537492 
L 415.50772 -104.122018 
L 413.326797 -105.287573 
L 411.145874 -105.003107 
L 408.964951 -104.363793 
L 406.784028 -105.611909 
L 404.603106 -107.079608 
L 402.422183 -101.47577 
L 400.24126 -93.766231 
L 398.060337 -92.704861 
L 395.879414 -95.565068 
L 393.698491 -93.764286 
L 391.517568 -90.098456 
L 389.336646 -84.639295 
L 387.155723 -81.338704 
L 384.9748 -78.895007 
L 382.793877 -77.798737 
L 380.612954 -78.261095 
L 378.432031 -79.354471 
L 376.251108 -78.156953 
L 374.070186 -74.524414 
L 371.889263 -72.971744 
L 369.70834 -72.538281 
L 367.527417 -74.178495 
L 365.346494 -75.732117 
L 363.165571 -76.85079 
L 360.984648 -74.734224 
L 358.803725 -72.979266 
L 356.622803 -75.577207 
L 354.44188 -81.280217 
L 352.260957 -87.588579 
L 350.080034 -88.64125 
L 347.899111 -89.348163 
L 345.718188 -93.114427 
L 343.537265 -96.148227 
L 341.356343 -94.879261 
L 339.17542 -95.015201 
L 336.994497 -97.11339 
L 334.813574 -96.288894 
L 332.632651 -92.049856 
L 330.451728 -88.230631 
L 328.270805 -91.611644 
L 326.089882 -95.909621 
L 323.90896 -95.937715 
L 321.728037 -93.614918 
L 319.547114 -90.978814 
L 317.366191 -87.940159 
L 315.185268 -87.320844 
L 313.004345 -86.794182 
L 310.823422 -86.514565 
L 308.6425 -90.695812 
L 306.461577 -95.949447 
L 304.280654 -102.163501 
L 302.099731 -104.568433 
L 299.918808 -98.655984 
L 297.737885 -92.316847 
L 295.556962 -90.174967 
L 293.37604 -93.176055 
L 291.195117 -98.327613 
L 289.014194 -101.483026 
L 286.833271 -106.188847 
L 284.652348 -117.74575 
L 282.471425 -129.647844 
z
" style="stroke: #1f77b4; stroke-opacity: 0.15"/>
    </defs>
    <g clip-path="url(#p73cdf8118e)">
     <use xlink:href="#me73ce0cd38" x="0" y="215.397188" style="fill: #1f77b4; fill-opacity: 0.15; stroke: #1f77b4; stroke-opacity: 0.15"/>
    </g>
   </g>
   <g id="FillBetweenPolyCollection_4">
    <defs>
     <path id="m3749dedf1f" d="M 282.471425 -132.24538 
L 282.471425 -98.744583 
L 284.652348 -95.453857 
L 286.833271 -89.885941 
L 289.014194 -87.326816 
L 291.195117 -89.921006 
L 293.37604 -94.212656 
L 295.556962 -94.791495 
L 297.737885 -91.110885 
L 299.918808 -84.375704 
L 302.099731 -84.319559 
L 304.280654 -93.215449 
L 306.461577 -100.144368 
L 308.6425 -102.952779 
L 310.823422 -103.625232 
L 313.004345 -102.448741 
L 315.185268 -99.588331 
L 317.366191 -91.566663 
L 319.547114 -89.194271 
L 321.728037 -91.145838 
L 323.90896 -91.215621 
L 326.089882 -86.616894 
L 328.270805 -91.894175 
L 330.451728 -99.865063 
L 332.632651 -106.118356 
L 334.813574 -105.714895 
L 336.994497 -98.420221 
L 339.17542 -86.624555 
L 341.356343 -81.630222 
L 343.537265 -85.199166 
L 345.718188 -85.324882 
L 347.899111 -82.76 
L 350.080034 -84.290687 
L 352.260957 -86.683557 
L 354.44188 -86.867315 
L 356.622803 -87.197261 
L 358.803725 -89.152679 
L 360.984648 -97.108976 
L 363.165571 -105.089831 
L 365.346494 -104.041698 
L 367.527417 -100.407866 
L 369.70834 -100.366997 
L 371.889263 -101.57073 
L 374.070186 -108.239002 
L 376.251108 -114.169626 
L 378.432031 -109.174068 
L 380.612954 -103.302362 
L 382.793877 -96.780927 
L 384.9748 -90.220247 
L 387.155723 -87.801557 
L 389.336646 -84.894727 
L 391.517568 -83.858655 
L 393.698491 -88.668844 
L 395.879414 -93.734765 
L 398.060337 -97.973704 
L 400.24126 -100.704264 
L 402.422183 -100.410414 
L 404.603106 -98.31049 
L 406.784028 -88.670694 
L 408.964951 -82.261591 
L 411.145874 -78.317611 
L 413.326797 -77.177605 
L 415.50772 -83.389379 
L 417.688643 -94.009117 
L 419.869566 -101.324871 
L 422.050489 -103.25776 
L 424.231411 -94.400928 
L 426.412334 -88.587514 
L 428.593257 -92.60037 
L 430.77418 -91.120015 
L 432.955103 -87.00261 
L 435.136026 -86.144938 
L 437.316949 -87.601982 
L 439.497871 -90.037025 
L 441.678794 -90.389812 
L 443.859717 -90.437999 
L 446.04064 -90.917605 
L 448.221563 -91.84678 
L 450.402486 -95.37336 
L 452.583409 -94.062189 
L 454.764332 -89.928267 
L 456.945254 -91.62747 
L 459.126177 -98.126981 
L 461.3071 -100.729367 
L 463.488023 -95.085532 
L 465.668946 -84.87411 
L 467.849869 -82.656532 
L 470.030792 -82.556298 
L 472.211714 -83.138199 
L 474.392637 -85.379806 
L 474.392637 -119.509757 
L 474.392637 -119.509757 
L 472.211714 -115.181871 
L 470.030792 -112.766613 
L 467.849869 -110.812648 
L 465.668946 -115.62779 
L 463.488023 -127.814948 
L 461.3071 -132.71393 
L 459.126177 -130.983883 
L 456.945254 -124.270621 
L 454.764332 -120.347135 
L 452.583409 -123.047551 
L 450.402486 -127.47018 
L 448.221563 -125.279588 
L 446.04064 -121.108184 
L 443.859717 -119.006226 
L 441.678794 -118.771945 
L 439.497871 -119.642618 
L 437.316949 -121.170845 
L 435.136026 -119.396605 
L 432.955103 -120.428919 
L 430.77418 -125.806556 
L 428.593257 -123.351117 
L 426.412334 -117.206901 
L 424.231411 -124.565205 
L 422.050489 -132.364516 
L 419.869566 -130.974274 
L 417.688643 -124.448122 
L 415.50772 -114.07453 
L 413.326797 -109.372492 
L 411.145874 -110.624341 
L 408.964951 -113.796879 
L 406.784028 -118.315476 
L 404.603106 -126.208533 
L 402.422183 -126.99284 
L 400.24126 -127.574583 
L 398.060337 -126.552426 
L 395.879414 -124.724313 
L 393.698491 -118.128228 
L 391.517568 -109.575322 
L 389.336646 -109.673765 
L 387.155723 -113.942659 
L 384.9748 -123.011339 
L 382.793877 -134.517044 
L 380.612954 -144.44608 
L 378.432031 -146.054331 
L 376.251108 -149.023225 
L 374.070186 -141.642676 
L 371.889263 -135.531012 
L 369.70834 -134.900269 
L 367.527417 -135.069725 
L 365.346494 -141.297772 
L 363.165571 -145.183126 
L 360.984648 -136.87389 
L 358.803725 -125.876096 
L 356.622803 -126.353458 
L 354.44188 -130.050567 
L 352.260957 -129.794012 
L 350.080034 -121.603932 
L 347.899111 -114.02054 
L 345.718188 -115.560701 
L 343.537265 -118.841792 
L 341.356343 -116.685237 
L 339.17542 -120.474798 
L 336.994497 -131.297356 
L 334.813574 -135.716777 
L 332.632651 -133.241271 
L 330.451728 -129.911438 
L 328.270805 -125.037123 
L 326.089882 -120.088982 
L 323.90896 -121.386295 
L 321.728037 -121.737664 
L 319.547114 -125.401376 
L 317.366191 -133.331287 
L 315.185268 -139.155796 
L 313.004345 -137.645204 
L 310.823422 -141.583216 
L 308.6425 -141.204844 
L 306.461577 -137.13992 
L 304.280654 -125.618596 
L 302.099731 -113.737809 
L 299.918808 -114.543536 
L 297.737885 -121.218538 
L 295.556962 -127.007561 
L 293.37604 -125.351625 
L 291.195117 -119.361089 
L 289.014194 -109.727632 
L 286.833271 -113.585212 
L 284.652348 -124.609378 
L 282.471425 -132.24538 
z
" style="stroke: #ff7f0e; stroke-opacity: 0.15"/>
    </defs>
    <g clip-path="url(#p73cdf8118e)">
     <use xlink:href="#m3749dedf1f" x="0" y="215.397188" style="fill: #ff7f0e; fill-opacity: 0.15; stroke: #ff7f0e; stroke-opacity: 0.15"/>
    </g>
   </g>
   <g id="line2d_13">
    <path d="M 272.875365 119.389085 
L 483.988698 119.389085 
" clip-path="url(#p73cdf8118e)" style="fill: none; stroke-dasharray: 2.96,1.28; stroke-dashoffset: 0; stroke: #000000; stroke-width: 0.8"/>
   </g>
   <g id="matplotlib.axis_3">
    <g id="xtick_6">
     <g id="line2d_14">
      <g>
       <use xlink:href="#m5acb40c5e2" x="278.109579" y="182.68" style="stroke: #000000; stroke-width: 0.8"/>
      </g>
     </g>
     <g id="text_13">
      <!-- 0 -->
      <g transform="translate(275.882704 194.998906) scale(0.07 -0.07)">
       <use xlink:href="#DejaVuSans-30"/>
      </g>
     </g>
    </g>
    <g id="xtick_7">
     <g id="line2d_15">
      <g>
       <use xlink:href="#m5acb40c5e2" x="321.728037" y="182.68" style="stroke: #000000; stroke-width: 0.8"/>
      </g>
     </g>
     <g id="text_14">
      <!-- 10 -->
      <g transform="translate(317.274287 194.998906) scale(0.07 -0.07)">
       <use xlink:href="#DejaVuSans-31"/>
       <use xlink:href="#DejaVuSans-30" transform="translate(63.623047 0)"/>
      </g>
     </g>
    </g>
    <g id="xtick_8">
     <g id="line2d_16">
      <g>
       <use xlink:href="#m5acb40c5e2" x="365.346494" y="182.68" style="stroke: #000000; stroke-width: 0.8"/>
      </g>
     </g>
     <g id="text_15">
      <!-- 20 -->
      <g transform="translate(360.892744 194.998906) scale(0.07 -0.07)">
       <use xlink:href="#DejaVuSans-32"/>
       <use xlink:href="#DejaVuSans-30" transform="translate(63.623047 0)"/>
      </g>
     </g>
    </g>
    <g id="xtick_9">
     <g id="line2d_17">
      <g>
       <use xlink:href="#m5acb40c5e2" x="408.964951" y="182.68" style="stroke: #000000; stroke-width: 0.8"/>
      </g>
     </g>
     <g id="text_16">
      <!-- 30 -->
      <g transform="translate(404.511201 194.998906) scale(0.07 -0.07)">
       <use xlink:href="#DejaVuSans-33"/>
       <use xlink:href="#DejaVuSans-30" transform="translate(63.623047 0)"/>
      </g>
     </g>
    </g>
    <g id="xtick_10">
     <g id="line2d_18">
      <g>
       <use xlink:href="#m5acb40c5e2" x="452.583409" y="182.68" style="stroke: #000000; stroke-width: 0.8"/>
      </g>
     </g>
     <g id="text_17">
      <!-- 40 -->
      <g transform="translate(448.129659 194.998906) scale(0.07 -0.07)">
       <use xlink:href="#DejaVuSans-34"/>
       <use xlink:href="#DejaVuSans-30" transform="translate(63.623047 0)"/>
      </g>
     </g>
    </g>
    <g id="text_18">
     <!-- Frequency (Hz) -->
     <g transform="translate(348.268281 206.533437) scale(0.08 -0.08)">
      <use xlink:href="#DejaVuSans-46"/>
      <use xlink:href="#DejaVuSans-72" transform="translate(50.269531 0)"/>
      <use xlink:href="#DejaVuSans-65" transform="translate(89.132812 0)"/>
      <use xlink:href="#DejaVuSans-71" transform="translate(150.65625 0)"/>
      <use xlink:href="#DejaVuSans-75" transform="translate(214.132812 0)"/>
      <use xlink:href="#DejaVuSans-65" transform="translate(277.511719 0)"/>
      <use xlink:href="#DejaVuSans-6e" transform="translate(339.035156 0)"/>
      <use xlink:href="#DejaVuSans-63" transform="translate(402.414062 0)"/>
      <use xlink:href="#DejaVuSans-79" transform="translate(457.394531 0)"/>
      <use xlink:href="#DejaVuSans-20" transform="translate(516.574219 0)"/>
      <use xlink:href="#DejaVuSans-28" transform="translate(548.361328 0)"/>
      <use xlink:href="#DejaVuSans-48" transform="translate(587.375 0)"/>
      <use xlink:href="#DejaVuSans-7a" transform="translate(662.570312 0)"/>
      <use xlink:href="#DejaVuSans-29" transform="translate(715.060547 0)"/>
     </g>
    </g>
   </g>
   <g id="matplotlib.axis_4">
    <g id="ytick_5">
     <g id="line2d_19">
      <g>
       <use xlink:href="#m392a74eaf1" x="272.875365" y="180.599333" style="stroke: #000000; stroke-width: 0.8"/>
      </g>
     </g>
    </g>
    <g id="ytick_6">
     <g id="line2d_20">
      <g>
       <use xlink:href="#m392a74eaf1" x="272.875365" y="149.994209" style="stroke: #000000; stroke-width: 0.8"/>
      </g>
     </g>
    </g>
    <g id="ytick_7">
     <g id="line2d_21">
      <g>
       <use xlink:href="#m392a74eaf1" x="272.875365" y="119.389085" style="stroke: #000000; stroke-width: 0.8"/>
      </g>
     </g>
    </g>
    <g id="ytick_8">
     <g id="line2d_22">
      <g>
       <use xlink:href="#m392a74eaf1" x="272.875365" y="88.783961" style="stroke: #000000; stroke-width: 0.8"/>
      </g>
     </g>
    </g>
    <g id="text_19">
     <!-- ERD/ERS (dB) -->
     <g transform="translate(263.711615 148.236875) rotate(-90) scale(0.08 -0.08)">
      <use xlink:href="#DejaVuSans-45"/>
      <use xlink:href="#DejaVuSans-52" transform="translate(63.183594 0)"/>
      <use xlink:href="#DejaVuSans-44" transform="translate(132.666016 0)"/>
      <use xlink:href="#DejaVuSans-2f" transform="translate(209.667969 0)"/>
      <use xlink:href="#DejaVuSans-45" transform="translate(243.359375 0)"/>
      <use xlink:href="#DejaVuSans-52" transform="translate(306.542969 0)"/>
      <use xlink:href="#DejaVuSans-53" transform="translate(376.025391 0)"/>
      <use xlink:href="#DejaVuSans-20" transform="translate(439.501953 0)"/>
      <use xlink:href="#DejaVuSans-28" transform="translate(471.289062 0)"/>
      <use xlink:href="#DejaVuSans-64" transform="translate(510.302734 0)"/>
      <use xlink:href="#DejaVuSans-42" transform="translate(573.779297 0)"/>
      <use xlink:href="#DejaVuSans-29" transform="translate(642.382812 0)"/>
     </g>
    </g>
   </g>
   <g id="line2d_23">
    <path d="M 282.471425 93.262813 
L 284.652348 104.405682 
L 286.833271 115.392609 
L 289.014194 120.723366 
L 291.195117 124.812084 
L 293.37604 130.096261 
L 295.556962 132.844006 
L 297.737885 130.844054 
L 299.918808 124.553503 
L 302.099731 118.074833 
L 304.280654 120.270087 
L 306.461577 126.322594 
L 308.6425 131.646947 
L 310.823422 135.986249 
L 313.004345 136.193467 
L 315.185268 135.890269 
L 317.366191 135.369329 
L 319.547114 132.54464 
L 321.728037 129.85813 
L 323.90896 127.423939 
L 326.089882 127.216539 
L 328.270805 131.310357 
L 330.451728 134.828671 
L 332.632651 131.416624 
L 334.813574 127.279951 
L 336.994497 126.004585 
L 339.17542 127.725749 
L 341.356343 127.825015 
L 343.537265 126.719756 
L 345.718188 129.456435 
L 347.899111 133.249033 
L 350.080034 134.404575 
L 352.260957 136.229941 
L 354.44188 142.467411 
L 356.622803 148.208736 
L 358.803725 150.857039 
L 360.984648 149.279831 
L 363.165571 147.037306 
L 365.346494 147.837169 
L 367.527417 149.669386 
L 369.70834 151.372598 
L 371.889263 150.525584 
L 374.070186 148.797806 
L 376.251108 145.196199 
L 378.432031 144.055337 
L 380.612954 145.238711 
L 382.793877 145.476952 
L 384.9748 144.259935 
L 387.155723 141.94668 
L 389.336646 138.589086 
L 391.517568 132.874784 
L 393.698491 128.708039 
L 395.879414 126.694215 
L 398.060337 129.161157 
L 400.24126 128.173145 
L 402.422183 121.046942 
L 404.603106 115.8119 
L 406.784028 116.576029 
L 408.964951 117.476779 
L 411.145874 117.317215 
L 413.326797 116.898416 
L 415.50772 118.077916 
L 417.688643 118.987759 
L 419.869566 120.024492 
L 422.050489 122.576 
L 424.231411 125.980727 
L 426.412334 127.476921 
L 428.593257 124.920495 
L 430.77418 124.392987 
L 432.955103 124.217705 
L 435.136026 124.704922 
L 437.316949 126.532495 
L 439.497871 128.908529 
L 441.678794 127.09547 
L 443.859717 122.935025 
L 446.04064 122.013407 
L 448.221563 121.126513 
L 450.402486 118.459494 
L 452.583409 119.491676 
L 454.764332 119.843075 
L 456.945254 120.985936 
L 459.126177 124.554793 
L 461.3071 126.774842 
L 463.488023 125.433393 
L 465.668946 124.407827 
L 467.849869 123.327382 
L 470.030792 123.815287 
L 472.211714 122.119614 
L 474.392637 119.667258 
" clip-path="url(#p73cdf8118e)" style="fill: none; stroke: #1f77b4; stroke-width: 1.3; stroke-linecap: square"/>
   </g>
   <g id="line2d_24">
    <path d="M 282.471425 99.902206 
L 284.652348 105.36557 
L 286.833271 113.661611 
L 289.014194 116.869964 
L 291.195117 110.75614 
L 293.37604 105.615047 
L 295.556962 104.497659 
L 297.737885 109.232476 
L 299.918808 115.937568 
L 302.099731 116.368504 
L 304.280654 105.980165 
L 306.461577 96.755044 
L 308.6425 93.318376 
L 310.823422 92.792964 
L 313.004345 95.350215 
L 315.185268 96.025124 
L 317.366191 102.948212 
L 319.547114 108.099364 
L 321.728037 108.955437 
L 323.90896 109.096229 
L 326.089882 112.044249 
L 328.270805 106.931538 
L 330.451728 100.508937 
L 332.632651 95.717374 
L 334.813574 94.681351 
L 336.994497 100.538399 
L 339.17542 111.847511 
L 341.356343 116.239458 
L 343.537265 113.376708 
L 345.718188 114.954396 
L 347.899111 117.006918 
L 350.080034 112.449878 
L 352.260957 107.158403 
L 354.44188 106.938246 
L 356.622803 108.621828 
L 358.803725 107.8828 
L 360.984648 98.405755 
L 363.165571 90.260709 
L 365.346494 92.727452 
L 367.527417 97.658392 
L 369.70834 97.763555 
L 371.889263 96.846316 
L 374.070186 90.456349 
L 376.251108 83.800762 
L 378.432031 87.782988 
L 380.612954 91.522966 
L 382.793877 99.748202 
L 384.9748 108.781395 
L 387.155723 114.525079 
L 389.336646 118.112942 
L 391.517568 118.680199 
L 393.698491 111.998652 
L 395.879414 106.167648 
L 398.060337 103.134122 
L 400.24126 101.257764 
L 402.422183 101.69556 
L 404.603106 103.137676 
L 406.784028 111.904103 
L 408.964951 117.367952 
L 411.145874 120.926212 
L 413.326797 122.122139 
L 415.50772 116.665233 
L 417.688643 106.168568 
L 419.869566 99.247615 
L 422.050489 97.58605 
L 424.231411 105.914121 
L 426.412334 112.49998 
L 428.593257 107.421444 
L 430.77418 106.933902 
L 432.955103 111.681423 
L 435.136026 112.626416 
L 437.316949 111.010774 
L 439.497871 110.557366 
L 441.678794 110.816309 
L 443.859717 110.675075 
L 446.04064 109.384293 
L 448.221563 106.834004 
L 450.402486 103.975418 
L 452.583409 106.842317 
L 454.764332 110.259486 
L 456.945254 107.448142 
L 459.126177 100.841755 
L 461.3071 98.675539 
L 463.488023 103.946947 
L 465.668946 115.146237 
L 467.849869 118.662598 
L 470.030792 117.735732 
L 472.211714 116.237153 
L 474.392637 112.952406 
" clip-path="url(#p73cdf8118e)" style="fill: none; stroke: #ff7f0e; stroke-width: 1.3; stroke-linecap: square"/>
   </g>
   <g id="patch_12">
    <path d="M 272.875365 182.68 
L 272.875365 59.28 
" style="fill: none; stroke: #000000; stroke-width: 0.8; stroke-linejoin: miter; stroke-linecap: square"/>
   </g>
   <g id="patch_13">
    <path d="M 483.988698 182.68 
L 483.988698 59.28 
" style="fill: none; stroke: #000000; stroke-width: 0.8; stroke-linejoin: miter; stroke-linecap: square"/>
   </g>
   <g id="patch_14">
    <path d="M 272.875365 182.68 
L 483.988698 182.68 
" style="fill: none; stroke: #000000; stroke-width: 0.8; stroke-linejoin: miter; stroke-linecap: square"/>
   </g>
   <g id="patch_15">
    <path d="M 272.875365 59.28 
L 483.988698 59.28 
" style="fill: none; stroke: #000000; stroke-width: 0.8; stroke-linejoin: miter; stroke-linecap: square"/>
   </g>
   <g id="text_20">
    <!-- Cz -->
    <g transform="translate(372.927969 53.28) scale(0.09 -0.09)">
     <use xlink:href="#DejaVuSans-43"/>
     <use xlink:href="#DejaVuSans-7a" transform="translate(69.824219 0)"/>
    </g>
   </g>
  </g>
  <g id="axes_3">
   <g id="patch_16">
    <path d="M 509.488698 182.68 
L 720.602031 182.68 
L 720.602031 59.28 
L 509.488698 59.28 
L 509.488698 182.68 
z
" style="fill: none"/>
   </g>
   <g id="patch_17">
    <path d="M 549.617679 182.68 
L 571.426907 182.68 
L 571.426907 59.28 
L 549.617679 59.28 
z
" clip-path="url(#p0b5749b6a3)" style="fill: #d9d9d9; stroke: #d9d9d9; stroke-linejoin: miter"/>
   </g>
   <g id="patch_18">
    <path d="M 571.426907 182.68 
L 645.578285 182.68 
L 645.578285 59.28 
L 571.426907 59.28 
z
" clip-path="url(#p0b5749b6a3)" style="fill: #ebebeb; stroke: #ebebeb; stroke-linejoin: miter"/>
   </g>
   <g id="FillBetweenPolyCollection_5">
    <defs>
     <path id="m64f32e7f54" d="M 519.084759 -105.06299 
L 519.084759 -89.586146 
L 521.265681 -87.598288 
L 523.446604 -86.086229 
L 525.627527 -84.880761 
L 527.80845 -86.808879 
L 529.989373 -87.004436 
L 532.170296 -82.271975 
L 534.351219 -77.48791 
L 536.532141 -75.342838 
L 538.713064 -76.42963 
L 540.893987 -79.415204 
L 543.07491 -82.411704 
L 545.255833 -81.312063 
L 547.436756 -77.414775 
L 549.617679 -74.590766 
L 551.798601 -71.476207 
L 553.979524 -66.132026 
L 556.160447 -61.172174 
L 558.34137 -62.568043 
L 560.522293 -70.105452 
L 562.703216 -74.875446 
L 564.884139 -71.587418 
L 567.065062 -68.048161 
L 569.245984 -68.701775 
L 571.426907 -72.392298 
L 573.60783 -77.649469 
L 575.788753 -82.233951 
L 577.969676 -83.508139 
L 580.150599 -86.36227 
L 582.331522 -87.569311 
L 584.512444 -87.010887 
L 586.693367 -86.116386 
L 588.87429 -81.911186 
L 591.055213 -73.944863 
L 593.236136 -67.259762 
L 595.417059 -64.329476 
L 597.597982 -63.560347 
L 599.778905 -64.426595 
L 601.959827 -64.627012 
L 604.14075 -64.342475 
L 606.321673 -64.808198 
L 608.502596 -68.672411 
L 610.683519 -74.772278 
L 612.864442 -78.453925 
L 615.045365 -80.870846 
L 617.226287 -78.140548 
L 619.40721 -74.263932 
L 621.588133 -74.718915 
L 623.769056 -75.591436 
L 625.949979 -75.130333 
L 628.130902 -73.573779 
L 630.311825 -74.127996 
L 632.492748 -78.651478 
L 634.67367 -83.708108 
L 636.854593 -86.665065 
L 639.035516 -90.622424 
L 641.216439 -92.961428 
L 643.397362 -92.318572 
L 645.578285 -91.277593 
L 647.759208 -89.523863 
L 649.94013 -89.735025 
L 652.121053 -89.229392 
L 654.301976 -87.309864 
L 656.482899 -87.548685 
L 658.663822 -87.709084 
L 660.844745 -87.975876 
L 663.025668 -89.041188 
L 665.20659 -91.777969 
L 667.387513 -94.517449 
L 669.568436 -92.503667 
L 671.749359 -89.775795 
L 673.930282 -89.465884 
L 676.111205 -91.651463 
L 678.292128 -90.350098 
L 680.473051 -86.449238 
L 682.653973 -83.780912 
L 684.834896 -85.034595 
L 687.015819 -86.879518 
L 689.196742 -88.120514 
L 691.377665 -88.760112 
L 693.558588 -89.11453 
L 695.739511 -87.909634 
L 697.920433 -89.192364 
L 700.101356 -92.1236 
L 702.282279 -93.156121 
L 704.463202 -93.997311 
L 706.644125 -90.20638 
L 708.825048 -88.764773 
L 711.005971 -89.017627 
L 711.005971 -103.000369 
L 711.005971 -103.000369 
L 708.825048 -103.104148 
L 706.644125 -104.78656 
L 704.463202 -108.342118 
L 702.282279 -107.774792 
L 700.101356 -106.277689 
L 697.920433 -102.960799 
L 695.739511 -101.711784 
L 693.558588 -102.853249 
L 691.377665 -102.425296 
L 689.196742 -101.292534 
L 687.015819 -99.90497 
L 684.834896 -98.88685 
L 682.653973 -97.826571 
L 680.473051 -100.051169 
L 678.292128 -104.32717 
L 676.111205 -106.189304 
L 673.930282 -103.814234 
L 671.749359 -104.0454 
L 669.568436 -106.572918 
L 667.387513 -108.192652 
L 665.20659 -105.713022 
L 663.025668 -102.950123 
L 660.844745 -101.367171 
L 658.663822 -100.465088 
L 656.482899 -100.065032 
L 654.301976 -100.525183 
L 652.121053 -103.332429 
L 649.94013 -102.596172 
L 647.759208 -102.378589 
L 645.578285 -104.500514 
L 643.397362 -105.442585 
L 641.216439 -106.475175 
L 639.035516 -103.986975 
L 636.854593 -100.384544 
L 634.67367 -97.561304 
L 632.492748 -93.164245 
L 630.311825 -89.763999 
L 628.130902 -90.177069 
L 625.949979 -91.997018 
L 623.769056 -92.197429 
L 621.588133 -90.689222 
L 619.40721 -89.189069 
L 617.226287 -93.465605 
L 615.045365 -95.617125 
L 612.864442 -93.006386 
L 610.683519 -90.952822 
L 608.502596 -84.292745 
L 606.321673 -79.556543 
L 604.14075 -78.391291 
L 601.959827 -78.975994 
L 599.778905 -79.907281 
L 597.597982 -79.411748 
L 595.417059 -81.491585 
L 593.236136 -85.261779 
L 591.055213 -91.119058 
L 588.87429 -98.373975 
L 586.693367 -100.915406 
L 584.512444 -101.72897 
L 582.331522 -102.632816 
L 580.150599 -100.893476 
L 577.969676 -97.846423 
L 575.788753 -98.102201 
L 573.60783 -96.041566 
L 571.426907 -91.734896 
L 569.245984 -87.807228 
L 567.065062 -85.144366 
L 564.884139 -86.216786 
L 562.703216 -89.890538 
L 560.522293 -86.595065 
L 558.34137 -80.24548 
L 556.160447 -79.735413 
L 553.979524 -84.51146 
L 551.798601 -89.239568 
L 549.617679 -91.865653 
L 547.436756 -94.083274 
L 545.255833 -97.424782 
L 543.07491 -98.141302 
L 540.893987 -94.544367 
L 538.713064 -91.709841 
L 536.532141 -90.099877 
L 534.351219 -91.65114 
L 532.170296 -96.904157 
L 529.989373 -101.686098 
L 527.80845 -100.917159 
L 525.627527 -98.103171 
L 523.446604 -99.810146 
L 521.265681 -102.150689 
L 519.084759 -105.06299 
z
" style="stroke: #1f77b4; stroke-opacity: 0.15"/>
    </defs>
    <g clip-path="url(#p0b5749b6a3)">
     <use xlink:href="#m64f32e7f54" x="0" y="215.397188" style="fill: #1f77b4; fill-opacity: 0.15; stroke: #1f77b4; stroke-opacity: 0.15"/>
    </g>
   </g>
   <g id="FillBetweenPolyCollection_6">
    <defs>
     <path id="mef14ab6e46" d="M 519.084759 -98.590329 
L 519.084759 -69.037003 
L 521.265681 -68.830446 
L 523.446604 -74.145491 
L 525.627527 -82.036232 
L 527.80845 -83.102901 
L 529.989373 -82.739163 
L 532.170296 -85.531298 
L 534.351219 -88.190386 
L 536.532141 -89.369677 
L 538.713064 -87.295446 
L 540.893987 -87.62999 
L 543.07491 -88.5199 
L 545.255833 -84.609625 
L 547.436756 -79.48606 
L 549.617679 -78.79027 
L 551.798601 -77.635956 
L 553.979524 -77.870067 
L 556.160447 -81.65415 
L 558.34137 -83.063736 
L 560.522293 -78.848496 
L 562.703216 -79.382687 
L 564.884139 -85.006405 
L 567.065062 -91.457331 
L 569.245984 -98.454755 
L 571.426907 -105.41495 
L 573.60783 -110.243699 
L 575.788753 -108.006646 
L 577.969676 -94.404332 
L 580.150599 -84.813232 
L 582.331522 -83.794013 
L 584.512444 -78.277637 
L 586.693367 -70.753008 
L 588.87429 -68.180654 
L 591.055213 -68.410614 
L 593.236136 -67.338854 
L 595.417059 -66.39364 
L 597.597982 -66.745841 
L 599.778905 -70.743465 
L 601.959827 -75.255414 
L 604.14075 -79.393268 
L 606.321673 -79.76347 
L 608.502596 -77.358487 
L 610.683519 -78.046439 
L 612.864442 -82.422099 
L 615.045365 -82.942574 
L 617.226287 -81.758484 
L 619.40721 -91.451728 
L 621.588133 -101.069448 
L 623.769056 -102.140426 
L 625.949979 -101.903709 
L 628.130902 -102.436884 
L 630.311825 -98.505531 
L 632.492748 -92.547489 
L 634.67367 -88.552616 
L 636.854593 -92.467695 
L 639.035516 -99.592405 
L 641.216439 -97.478952 
L 643.397362 -91.853447 
L 645.578285 -83.094213 
L 647.759208 -73.837273 
L 649.94013 -75.618957 
L 652.121053 -81.01756 
L 654.301976 -83.747663 
L 656.482899 -82.022071 
L 658.663822 -75.023598 
L 660.844745 -71.440424 
L 663.025668 -79.415644 
L 665.20659 -92.273166 
L 667.387513 -94.008133 
L 669.568436 -92.006742 
L 671.749359 -88.499711 
L 673.930282 -89.289271 
L 676.111205 -91.938925 
L 678.292128 -92.394177 
L 680.473051 -92.53877 
L 682.653973 -89.374681 
L 684.834896 -88.834536 
L 687.015819 -88.195132 
L 689.196742 -81.964667 
L 691.377665 -76.493337 
L 693.558588 -77.089748 
L 695.739511 -82.145454 
L 697.920433 -85.613574 
L 700.101356 -88.084865 
L 702.282279 -88.675806 
L 704.463202 -86.914687 
L 706.644125 -87.255672 
L 708.825048 -89.905852 
L 711.005971 -90.040886 
L 711.005971 -117.635949 
L 711.005971 -117.635949 
L 708.825048 -115.186871 
L 706.644125 -114.117416 
L 704.463202 -112.217616 
L 702.282279 -115.290814 
L 700.101356 -114.338917 
L 697.920433 -110.188333 
L 695.739511 -108.042235 
L 693.558588 -103.556218 
L 691.377665 -103.23029 
L 689.196742 -113.160525 
L 687.015819 -119.24988 
L 684.834896 -121.100339 
L 682.653973 -121.129982 
L 680.473051 -123.1217 
L 678.292128 -124.630471 
L 676.111205 -123.534853 
L 673.930282 -120.554216 
L 671.749359 -116.339208 
L 669.568436 -116.10676 
L 667.387513 -117.39239 
L 665.20659 -116.202155 
L 663.025668 -103.163147 
L 660.844745 -98.341233 
L 658.663822 -103.308146 
L 656.482899 -109.457155 
L 654.301976 -111.724973 
L 652.121053 -109.035355 
L 649.94013 -101.038444 
L 647.759208 -99.50162 
L 645.578285 -109.825922 
L 643.397362 -121.632833 
L 641.216439 -128.644208 
L 639.035516 -127.87262 
L 636.854593 -119.611635 
L 634.67367 -117.626645 
L 632.492748 -122.461149 
L 630.311825 -132.516233 
L 628.130902 -135.73994 
L 625.949979 -131.751875 
L 623.769056 -132.378748 
L 621.588133 -134.549117 
L 619.40721 -125.585203 
L 617.226287 -112.917889 
L 615.045365 -112.151012 
L 612.864442 -112.430957 
L 610.683519 -113.159287 
L 608.502596 -112.80591 
L 606.321673 -113.066242 
L 604.14075 -109.532898 
L 601.959827 -103.868165 
L 599.778905 -99.395796 
L 597.597982 -95.659725 
L 595.417059 -98.523354 
L 593.236136 -105.181612 
L 591.055213 -104.130498 
L 588.87429 -100.649331 
L 586.693367 -103.401343 
L 584.512444 -109.932661 
L 582.331522 -114.318977 
L 580.150599 -110.78491 
L 577.969676 -121.232086 
L 575.788753 -141.065165 
L 573.60783 -146.483086 
L 571.426907 -140.896239 
L 569.245984 -134.415627 
L 567.065062 -128.604415 
L 564.884139 -123.188273 
L 562.703216 -114.652582 
L 560.522293 -114.771177 
L 558.34137 -118.419438 
L 556.160447 -119.314188 
L 553.979524 -121.679166 
L 551.798601 -120.810755 
L 549.617679 -120.163316 
L 547.436756 -117.794511 
L 545.255833 -120.510723 
L 543.07491 -121.165737 
L 540.893987 -117.536036 
L 538.713064 -118.680068 
L 536.532141 -122.707331 
L 534.351219 -121.866273 
L 532.170296 -115.173353 
L 529.989373 -109.867462 
L 527.80845 -110.719261 
L 525.627527 -113.49858 
L 523.446604 -103.799718 
L 521.265681 -96.960291 
L 519.084759 -98.590329 
z
" style="stroke: #ff7f0e; stroke-opacity: 0.15"/>
    </defs>
    <g clip-path="url(#p0b5749b6a3)">
     <use xlink:href="#mef14ab6e46" x="0" y="215.397188" style="fill: #ff7f0e; fill-opacity: 0.15; stroke: #ff7f0e; stroke-opacity: 0.15"/>
    </g>
   </g>
   <g id="line2d_25">
    <path d="M 509.488698 119.389085 
L 720.602031 119.389085 
" clip-path="url(#p0b5749b6a3)" style="fill: none; stroke-dasharray: 2.96,1.28; stroke-dashoffset: 0; stroke: #000000; stroke-width: 0.8"/>
   </g>
   <g id="matplotlib.axis_5">
    <g id="xtick_11">
     <g id="line2d_26">
      <g>
       <use xlink:href="#m5acb40c5e2" x="514.722913" y="182.68" style="stroke: #000000; stroke-width: 0.8"/>
      </g>
     </g>
     <g id="text_21">
      <!-- 0 -->
      <g transform="translate(512.496038 194.998906) scale(0.07 -0.07)">
       <use xlink:href="#DejaVuSans-30"/>
      </g>
     </g>
    </g>
    <g id="xtick_12">
     <g id="line2d_27">
      <g>
       <use xlink:href="#m5acb40c5e2" x="558.34137" y="182.68" style="stroke: #000000; stroke-width: 0.8"/>
      </g>
     </g>
     <g id="text_22">
      <!-- 10 -->
      <g transform="translate(553.88762 194.998906) scale(0.07 -0.07)">
       <use xlink:href="#DejaVuSans-31"/>
       <use xlink:href="#DejaVuSans-30" transform="translate(63.623047 0)"/>
      </g>
     </g>
    </g>
    <g id="xtick_13">
     <g id="line2d_28">
      <g>
       <use xlink:href="#m5acb40c5e2" x="601.959827" y="182.68" style="stroke: #000000; stroke-width: 0.8"/>
      </g>
     </g>
     <g id="text_23">
      <!-- 20 -->
      <g transform="translate(597.506077 194.998906) scale(0.07 -0.07)">
       <use xlink:href="#DejaVuSans-32"/>
       <use xlink:href="#DejaVuSans-30" transform="translate(63.623047 0)"/>
      </g>
     </g>
    </g>
    <g id="xtick_14">
     <g id="line2d_29">
      <g>
       <use xlink:href="#m5acb40c5e2" x="645.578285" y="182.68" style="stroke: #000000; stroke-width: 0.8"/>
      </g>
     </g>
     <g id="text_24">
      <!-- 30 -->
      <g transform="translate(641.124535 194.998906) scale(0.07 -0.07)">
       <use xlink:href="#DejaVuSans-33"/>
       <use xlink:href="#DejaVuSans-30" transform="translate(63.623047 0)"/>
      </g>
     </g>
    </g>
    <g id="xtick_15">
     <g id="line2d_30">
      <g>
       <use xlink:href="#m5acb40c5e2" x="689.196742" y="182.68" style="stroke: #000000; stroke-width: 0.8"/>
      </g>
     </g>
     <g id="text_25">
      <!-- 40 -->
      <g transform="translate(684.742992 194.998906) scale(0.07 -0.07)">
       <use xlink:href="#DejaVuSans-34"/>
       <use xlink:href="#DejaVuSans-30" transform="translate(63.623047 0)"/>
      </g>
     </g>
    </g>
    <g id="text_26">
     <!-- Frequency (Hz) -->
     <g transform="translate(584.881615 206.533437) scale(0.08 -0.08)">
      <use xlink:href="#DejaVuSans-46"/>
      <use xlink:href="#DejaVuSans-72" transform="translate(50.269531 0)"/>
      <use xlink:href="#DejaVuSans-65" transform="translate(89.132812 0)"/>
      <use xlink:href="#DejaVuSans-71" transform="translate(150.65625 0)"/>
      <use xlink:href="#DejaVuSans-75" transform="translate(214.132812 0)"/>
      <use xlink:href="#DejaVuSans-65" transform="translate(277.511719 0)"/>
      <use xlink:href="#DejaVuSans-6e" transform="translate(339.035156 0)"/>
      <use xlink:href="#DejaVuSans-63" transform="translate(402.414062 0)"/>
      <use xlink:href="#DejaVuSans-79" transform="translate(457.394531 0)"/>
      <use xlink:href="#DejaVuSans-20" transform="translate(516.574219 0)"/>
      <use xlink:href="#DejaVuSans-28" transform="translate(548.361328 0)"/>
      <use xlink:href="#DejaVuSans-48" transform="translate(587.375 0)"/>
      <use xlink:href="#DejaVuSans-7a" transform="translate(662.570312 0)"/>
      <use xlink:href="#DejaVuSans-29" transform="translate(715.060547 0)"/>
     </g>
    </g>
   </g>
   <g id="matplotlib.axis_6">
    <g id="ytick_9">
     <g id="line2d_31">
      <g>
       <use xlink:href="#m392a74eaf1" x="509.488698" y="180.599333" style="stroke: #000000; stroke-width: 0.8"/>
      </g>
     </g>
    </g>
    <g id="ytick_10">
     <g id="line2d_32">
      <g>
       <use xlink:href="#m392a74eaf1" x="509.488698" y="149.994209" style="stroke: #000000; stroke-width: 0.8"/>
      </g>
     </g>
    </g>
    <g id="ytick_11">
     <g id="line2d_33">
      <g>
       <use xlink:href="#m392a74eaf1" x="509.488698" y="119.389085" style="stroke: #000000; stroke-width: 0.8"/>
      </g>
     </g>
    </g>
    <g id="ytick_12">
     <g id="line2d_34">
      <g>
       <use xlink:href="#m392a74eaf1" x="509.488698" y="88.783961" style="stroke: #000000; stroke-width: 0.8"/>
      </g>
     </g>
    </g>
    <g id="text_27">
     <!-- ERD/ERS (dB) -->
     <g transform="translate(500.324948 148.236875) rotate(-90) scale(0.08 -0.08)">
      <use xlink:href="#DejaVuSans-45"/>
      <use xlink:href="#DejaVuSans-52" transform="translate(63.183594 0)"/>
      <use xlink:href="#DejaVuSans-44" transform="translate(132.666016 0)"/>
      <use xlink:href="#DejaVuSans-2f" transform="translate(209.667969 0)"/>
      <use xlink:href="#DejaVuSans-45" transform="translate(243.359375 0)"/>
      <use xlink:href="#DejaVuSans-52" transform="translate(306.542969 0)"/>
      <use xlink:href="#DejaVuSans-53" transform="translate(376.025391 0)"/>
      <use xlink:href="#DejaVuSans-20" transform="translate(439.501953 0)"/>
      <use xlink:href="#DejaVuSans-28" transform="translate(471.289062 0)"/>
      <use xlink:href="#DejaVuSans-64" transform="translate(510.302734 0)"/>
      <use xlink:href="#DejaVuSans-42" transform="translate(573.779297 0)"/>
      <use xlink:href="#DejaVuSans-29" transform="translate(642.382812 0)"/>
     </g>
    </g>
   </g>
   <g id="line2d_35">
    <path d="M 519.084759 118.07262 
L 521.265681 120.522699 
L 523.446604 122.449 
L 525.627527 123.905221 
L 527.80845 121.534169 
L 529.989373 121.051921 
L 532.170296 125.809122 
L 534.351219 130.827663 
L 536.532141 132.67583 
L 538.713064 131.327452 
L 540.893987 128.417402 
L 543.07491 125.120684 
L 545.255833 126.028765 
L 547.436756 129.648163 
L 549.617679 132.168978 
L 551.798601 135.0393 
L 553.979524 140.075445 
L 556.160447 144.943394 
L 558.34137 143.990426 
L 560.522293 137.046929 
L 562.703216 133.014195 
L 564.884139 136.495086 
L 567.065062 138.800924 
L 569.245984 137.142686 
L 571.426907 133.333591 
L 573.60783 128.55167 
L 575.788753 125.229112 
L 577.969676 124.719907 
L 580.150599 121.769314 
L 582.331522 120.296124 
L 584.512444 121.027259 
L 586.693367 121.881291 
L 588.87429 125.254607 
L 591.055213 132.865227 
L 593.236136 139.136417 
L 595.417059 142.486657 
L 597.597982 143.91114 
L 599.778905 143.230249 
L 601.959827 143.595685 
L 604.14075 144.030305 
L 606.321673 143.214817 
L 608.502596 138.91461 
L 610.683519 132.534638 
L 612.864442 129.667032 
L 615.045365 127.153202 
L 617.226287 129.594111 
L 619.40721 133.670687 
L 621.588133 132.693119 
L 623.769056 131.502755 
L 625.949979 131.833512 
L 628.130902 133.521764 
L 630.311825 133.45119 
L 632.492748 129.489326 
L 634.67367 124.762481 
L 636.854593 121.872383 
L 639.035516 118.092488 
L 641.216439 115.678886 
L 643.397362 116.516609 
L 645.578285 117.508134 
L 647.759208 119.445961 
L 649.94013 119.231589 
L 652.121053 119.116277 
L 654.301976 121.479664 
L 656.482899 121.590329 
L 658.663822 121.310102 
L 660.844745 120.725664 
L 663.025668 119.401532 
L 665.20659 116.651692 
L 667.387513 114.042137 
L 669.568436 115.858895 
L 671.749359 118.48659 
L 673.930282 118.757129 
L 676.111205 116.476804 
L 678.292128 118.058554 
L 680.473051 122.146984 
L 682.653973 124.593446 
L 684.834896 123.436465 
L 687.015819 122.004944 
L 689.196742 120.690664 
L 691.377665 119.804483 
L 693.558588 119.413298 
L 695.739511 120.586478 
L 697.920433 119.320606 
L 700.101356 116.196543 
L 702.282279 114.931731 
L 704.463202 114.227473 
L 706.644125 117.900718 
L 708.825048 119.462727 
L 711.005971 119.38819 
" clip-path="url(#p0b5749b6a3)" style="fill: none; stroke: #1f77b4; stroke-width: 1.3; stroke-linecap: square"/>
   </g>
   <g id="line2d_36">
    <path d="M 519.084759 131.583522 
L 521.265681 132.501819 
L 523.446604 126.424583 
L 525.627527 117.629782 
L 527.80845 118.486107 
L 529.989373 119.093875 
L 532.170296 115.044862 
L 534.351219 110.368858 
L 536.532141 109.358683 
L 538.713064 112.409431 
L 540.893987 112.814174 
L 543.07491 110.554369 
L 545.255833 112.837013 
L 547.436756 116.756902 
L 549.617679 115.920395 
L 551.798601 116.173832 
L 553.979524 115.622571 
L 556.160447 114.913018 
L 558.34137 114.655601 
L 560.522293 118.587351 
L 562.703216 118.379553 
L 564.884139 111.299849 
L 567.065062 105.366314 
L 569.245984 98.961997 
L 571.426907 92.241593 
L 573.60783 87.033795 
L 575.788753 90.861282 
L 577.969676 107.578979 
L 580.150599 117.598117 
L 582.331522 116.340693 
L 584.512444 121.292039 
L 586.693367 128.320012 
L 588.87429 130.982195 
L 591.055213 129.126631 
L 593.236136 129.136954 
L 595.417059 132.93869 
L 597.597982 134.194405 
L 599.778905 130.327557 
L 601.959827 125.835398 
L 604.14075 120.934105 
L 606.321673 118.982331 
L 608.502596 120.314989 
L 610.683519 119.794324 
L 612.864442 117.970659 
L 615.045365 117.850394 
L 617.226287 118.059001 
L 619.40721 106.878722 
L 621.588133 97.587905 
L 623.769056 98.137601 
L 625.949979 98.569395 
L 628.130902 96.308775 
L 630.311825 99.886306 
L 632.492748 107.892869 
L 634.67367 112.307557 
L 636.854593 109.357522 
L 639.035516 101.664675 
L 641.216439 102.335608 
L 643.397362 108.654048 
L 645.578285 118.93712 
L 647.759208 128.727741 
L 649.94013 127.068487 
L 652.121053 120.37073 
L 654.301976 117.660869 
L 656.482899 119.657575 
L 658.663822 126.231315 
L 660.844745 130.506359 
L 663.025668 124.107792 
L 665.20659 111.159527 
L 667.387513 109.696926 
L 669.568436 111.340436 
L 671.749359 112.977728 
L 673.930282 110.475444 
L 676.111205 107.660299 
L 678.292128 106.884863 
L 680.473051 107.566952 
L 682.653973 110.144856 
L 684.834896 110.42975 
L 687.015819 111.674681 
L 689.196742 117.834591 
L 691.377665 125.535374 
L 693.558588 125.074205 
L 695.739511 120.303343 
L 697.920433 117.496234 
L 700.101356 114.185296 
L 702.282279 113.413877 
L 704.463202 115.831036 
L 706.644125 114.710643 
L 708.825048 112.850826 
L 711.005971 111.55877 
" clip-path="url(#p0b5749b6a3)" style="fill: none; stroke: #ff7f0e; stroke-width: 1.3; stroke-linecap: square"/>
   </g>
   <g id="patch_19">
    <path d="M 509.488698 182.68 
L 509.488698 59.28 
" style="fill: none; stroke: #000000; stroke-width: 0.8; stroke-linejoin: miter; stroke-linecap: square"/>
   </g>
   <g id="patch_20">
    <path d="M 720.602031 182.68 
L 720.602031 59.28 
" style="fill: none; stroke: #000000; stroke-width: 0.8; stroke-linejoin: miter; stroke-linecap: square"/>
   </g>
   <g id="patch_21">
    <path d="M 509.488698 182.68 
L 720.602031 182.68 
" style="fill: none; stroke: #000000; stroke-width: 0.8; stroke-linejoin: miter; stroke-linecap: square"/>
   </g>
   <g id="patch_22">
    <path d="M 509.488698 59.28 
L 720.602031 59.28 
" style="fill: none; stroke: #000000; stroke-width: 0.8; stroke-linejoin: miter; stroke-linecap: square"/>
   </g>
   <g id="text_28">
    <!-- C4 -->
    <g transform="translate(609.039974 53.28) scale(0.09 -0.09)">
     <use xlink:href="#DejaVuSans-43"/>
     <use xlink:href="#DejaVuSans-34" transform="translate(69.824219 0)"/>
    </g>
   </g>
  </g>
  <g id="text_29">
   <!-- ERD/ERS — ME — S06 (Movement vs Rest) -->
   <g transform="translate(246.556172 15.558281) scale(0.11 -0.11)">
    <defs>
     <path id="DejaVuSans-2014" d="M 313 1978 
L 6088 1978 
L 6088 1528 
L 313 1528 
L 313 1978 
z
" transform="scale(0.015625)"/>
     <path id="DejaVuSans-4d" d="M 628 4666 
L 1569 4666 
L 2759 1491 
L 3956 4666 
L 4897 4666 
L 4897 0 
L 4281 0 
L 4281 4097 
L 3078 897 
L 2444 897 
L 1241 4097 
L 1241 0 
L 628 0 
L 628 4666 
z
" transform="scale(0.015625)"/>
     <path id="DejaVuSans-36" d="M 2113 2584 
Q 1688 2584 1439 2293 
Q 1191 2003 1191 1497 
Q 1191 994 1439 701 
Q 1688 409 2113 409 
Q 2538 409 2786 701 
Q 3034 994 3034 1497 
Q 3034 2003 2786 2293 
Q 2538 2584 2113 2584 
z
M 3366 4563 
L 3366 3988 
Q 3128 4100 2886 4159 
Q 2644 4219 2406 4219 
Q 1781 4219 1451 3797 
Q 1122 3375 1075 2522 
Q 1259 2794 1537 2939 
Q 1816 3084 2150 3084 
Q 2853 3084 3261 2657 
Q 3669 2231 3669 1497 
Q 3669 778 3244 343 
Q 2819 -91 2113 -91 
Q 1303 -91 875 529 
Q 447 1150 447 2328 
Q 447 3434 972 4092 
Q 1497 4750 2381 4750 
Q 2619 4750 2861 4703 
Q 3103 4656 3366 4563 
z
" transform="scale(0.015625)"/>
     <path id="DejaVuSans-6f" d="M 1959 3097 
Q 1497 3097 1228 2736 
Q 959 2375 959 1747 
Q 959 1119 1226 758 
Q 1494 397 1959 397 
Q 2419 397 2687 759 
Q 2956 1122 2956 1747 
Q 2956 2369 2687 2733 
Q 2419 3097 1959 3097 
z
M 1959 3584 
Q 2709 3584 3137 3096 
Q 3566 2609 3566 1747 
Q 3566 888 3137 398 
Q 2709 -91 1959 -91 
Q 1206 -91 779 398 
Q 353 888 353 1747 
Q 353 2609 779 3096 
Q 1206 3584 1959 3584 
z
" transform="scale(0.015625)"/>
     <path id="DejaVuSans-76" d="M 191 3500 
L 800 3500 
L 1894 563 
L 2988 3500 
L 3597 3500 
L 2284 0 
L 1503 0 
L 191 3500 
z
" transform="scale(0.015625)"/>
     <path id="DejaVuSans-6d" d="M 3328 2828 
Q 3544 3216 3844 3400 
Q 4144 3584 4550 3584 
Q 5097 3584 5394 3201 
Q 5691 2819 5691 2113 
L 5691 0 
L 5113 0 
L 5113 2094 
Q 5113 2597 4934 2840 
Q 4756 3084 4391 3084 
Q 3944 3084 3684 2787 
Q 3425 2491 3425 1978 
L 3425 0 
L 2847 0 
L 2847 2094 
Q 2847 2600 2669 2842 
Q 2491 3084 2119 3084 
Q 1678 3084 1418 2786 
Q 1159 2488 1159 1978 
L 1159 0 
L 581 0 
L 581 3500 
L 1159 3500 
L 1159 2956 
Q 1356 3278 1631 3431 
Q 1906 3584 2284 3584 
Q 2666 3584 2933 3390 
Q 3200 3197 3328 2828 
z
" transform="scale(0.015625)"/>
     <path id="DejaVuSans-74" d="M 1172 4494 
L 1172 3500 
L 2356 3500 
L 2356 3053 
L 1172 3053 
L 1172 1153 
Q 1172 725 1289 603 
Q 1406 481 1766 481 
L 2356 481 
L 2356 0 
L 1766 0 
Q 1100 0 847 248 
Q 594 497 594 1153 
L 594 3053 
L 172 3053 
L 172 3500 
L 594 3500 
L 594 4494 
L 1172 4494 
z
" transform="scale(0.015625)"/>
     <path id="DejaVuSans-73" d="M 2834 3397 
L 2834 2853 
Q 2591 2978 2328 3040 
Q 2066 3103 1784 3103 
Q 1356 3103 1142 2972 
Q 928 2841 928 2578 
Q 928 2378 1081 2264 
Q 1234 2150 1697 2047 
L 1894 2003 
Q 2506 1872 2764 1633 
Q 3022 1394 3022 966 
Q 3022 478 2636 193 
Q 2250 -91 1575 -91 
Q 1294 -91 989 -36 
Q 684 19 347 128 
L 347 722 
Q 666 556 975 473 
Q 1284 391 1588 391 
Q 1994 391 2212 530 
Q 2431 669 2431 922 
Q 2431 1156 2273 1281 
Q 2116 1406 1581 1522 
L 1381 1569 
Q 847 1681 609 1914 
Q 372 2147 372 2553 
Q 372 3047 722 3315 
Q 1072 3584 1716 3584 
Q 2034 3584 2315 3537 
Q 2597 3491 2834 3397 
z
" transform="scale(0.015625)"/>
    </defs>
    <use xlink:href="#DejaVuSans-45"/>
    <use xlink:href="#DejaVuSans-52" transform="translate(63.183594 0)"/>
    <use xlink:href="#DejaVuSans-44" transform="translate(132.666016 0)"/>
    <use xlink:href="#DejaVuSans-2f" transform="translate(209.667969 0)"/>
    <use xlink:href="#DejaVuSans-45" transform="translate(243.359375 0)"/>
    <use xlink:href="#DejaVuSans-52" transform="translate(306.542969 0)"/>
    <use xlink:href="#DejaVuSans-53" transform="translate(376.025391 0)"/>
    <use xlink:href="#DejaVuSans-20" transform="translate(439.501953 0)"/>
    <use xlink:href="#DejaVuSans-2014" transform="translate(471.289062 0)"/>
    <use xlink:href="#DejaVuSans-20" transform="translate(571.289062 0)"/>
    <use xlink:href="#DejaVuSans-4d" transform="translate(603.076172 0)"/>
    <use xlink:href="#DejaVuSans-45" transform="translate(689.355469 0)"/>
    <use xlink:href="#DejaVuSans-20" transform="translate(752.539062 0)"/>
    <use xlink:href="#DejaVuSans-2014" transform="translate(784.326172 0)"/>
    <use xlink:href="#DejaVuSans-20" transform="translate(884.326172 0)"/>
    <use xlink:href="#DejaVuSans-53" transform="translate(916.113281 0)"/>
    <use xlink:href="#DejaVuSans-30" transform="translate(979.589844 0)"/>
    <use xlink:href="#DejaVuSans-36" transform="translate(1043.212891 0)"/>
    <use xlink:href="#DejaVuSans-20" transform="translate(1106.835938 0)"/>
    <use xlink:href="#DejaVuSans-28" transform="translate(1138.623047 0)"/>
    <use xlink:href="#DejaVuSans-4d" transform="translate(1177.636719 0)"/>
    <use xlink:href="#DejaVuSans-6f" transform="translate(1263.916016 0)"/>
    <use xlink:href="#DejaVuSans-76" transform="translate(1325.097656 0)"/>
    <use xlink:href="#DejaVuSans-65" transform="translate(1384.277344 0)"/>
    <use xlink:href="#DejaVuSans-6d" transform="translate(1445.800781 0)"/>
    <use xlink:href="#DejaVuSans-65" transform="translate(1543.212891 0)"/>
    <use xlink:href="#DejaVuSans-6e" transform="translate(1604.736328 0)"/>
    <use xlink:href="#DejaVuSans-74" transform="translate(1668.115234 0)"/>
    <use xlink:href="#DejaVuSans-20" transform="translate(1707.324219 0)"/>
    <use xlink:href="#DejaVuSans-76" transform="translate(1739.111328 0)"/>
    <use xlink:href="#DejaVuSans-73" transform="translate(1798.291016 0)"/>
    <use xlink:href="#DejaVuSans-20" transform="translate(1850.390625 0)"/>
    <use xlink:href="#DejaVuSans-52" transform="translate(1882.177734 0)"/>
    <use xlink:href="#DejaVuSans-65" transform="translate(1947.160156 0)"/>
    <use xlink:href="#DejaVuSans-73" transform="translate(2008.683594 0)"/>
    <use xlink:href="#DejaVuSans-74" transform="translate(2060.783203 0)"/>
    <use xlink:href="#DejaVuSans-29" transform="translate(2099.992188 0)"/>
   </g>
  </g>
  <g id="legend_1">
   <g id="patch_23">
    <path d="M 663.350812 30.109375 
L 722.830031 30.109375 
Q 724.230031 30.109375 724.230031 28.709375 
L 724.230031 8.86 
Q 724.230031 7.46 722.830031 7.46 
L 663.350812 7.46 
Q 661.950812 7.46 661.950812 8.86 
L 661.950812 28.709375 
Q 661.950812 30.109375 663.350812 30.109375 
z
" style="fill: #ffffff; opacity: 0.8; stroke: #cccccc; stroke-linejoin: miter"/>
   </g>
   <g id="line2d_37">
    <path d="M 664.750812 13.128906 
L 671.750812 13.128906 
L 678.750812 13.128906 
" style="fill: none; stroke: #1f77b4; stroke-width: 1.3; stroke-linecap: square"/>
   </g>
   <g id="text_30">
    <!-- Movement -->
    <g transform="translate(684.350812 15.578906) scale(0.07 -0.07)">
     <use xlink:href="#DejaVuSans-4d"/>
     <use xlink:href="#DejaVuSans-6f" transform="translate(86.279297 0)"/>
     <use xlink:href="#DejaVuSans-76" transform="translate(147.460938 0)"/>
     <use xlink:href="#DejaVuSans-65" transform="translate(206.640625 0)"/>
     <use xlink:href="#DejaVuSans-6d" transform="translate(268.164062 0)"/>
     <use xlink:href="#DejaVuSans-65" transform="translate(365.576172 0)"/>
     <use xlink:href="#DejaVuSans-6e" transform="translate(427.099609 0)"/>
     <use xlink:href="#DejaVuSans-74" transform="translate(490.478516 0)"/>
    </g>
   </g>
   <g id="line2d_38">
    <path d="M 664.750812 23.403594 
L 671.750812 23.403594 
L 678.750812 23.403594 
" style="fill: none; stroke: #ff7f0e; stroke-width: 1.3; stroke-linecap: square"/>
   </g>
   <g id="text_31">
    <!-- rest -->
    <g transform="translate(684.350812 25.853594) scale(0.07 -0.07)">
     <use xlink:href="#DejaVuSans-72"/>
     <use xlink:href="#DejaVuSans-65" transform="translate(38.863281 0)"/>
     <use xlink:href="#DejaVuSans-73" transform="translate(100.386719 0)"/>
     <use xlink:href="#DejaVuSans-74" transform="translate(152.486328 0)"/>
    </g>
   </g>
  </g>
 </g>
 <defs>
  <clipPath id="p3f9ab051ef">
   <rect x="36.262031" y="59.28" width="211.113333" height="123.4"/>
  </clipPath>
  <clipPath id="p73cdf8118e">
   <rect x="272.875365" y="59.28" width="211.113333" height="123.4"/>
  </clipPath>
  <clipPath id="p0b5749b6a3">
   <rect x="509.488698" y="59.28" width="211.113333" height="123.4"/>
  </clipPath>
 </defs>
</svg>
