<?xml version="1.0" encoding="utf-8" standalone="no"?>
<!DOCTYPE svg PUBLIC "-//W3C//DTD SVG 1.1//EN"
  "http://www.w3.org/Graphics/SVG/1.1/DTD/svg11.dtd">
<svg xmlns:xlink="http://www.w3.org/1999/xlink" width="731.430031pt" height="215.397188pt" viewBox="0 0 731.430031 215.397188" xmlns="http://www.w3.org/2000/svg" version="1.1">
 <metadata>
  <rdf:RDF xmlns:dc="http://purl.org/dc/elements/1.1/" xmlns:cc="http://creativecommons.org/ns#" xmlns:rdf="http://www.w3.org/1999/02/22-rdf-syntax-ns#">
   <cc:Work>
    <dc:type rdf:resource="http://purl.org/dc/dcmitype/StillImage"/>
    <dc:date>2026-06-26T22:26:29.410130</dc:date>
    <dc:format>image/svg+xml</dc:format>
    <dc:creator>
     <cc:Agent>
      <dc:title>Matplotlib v3.10.9, https://matplotlib.org/</dc:title>
     </cc:Agent>
    </dc:creator>
   </cc:Work>
  </rdf:RDF>
 </metadata>
 <defs>
  <style type="text/css">*{stroke-linejoin: round; stroke-linecap: butt}</style>
 </defs>
 <g id="figure_1">
  <g id="patch_1">
   <path d="M 0 215.397188 
L 731.430031 215.397188 
L 731.430031 0 
L 0 0 
L 0 215.397188 
z
" style="fill: none"/>
  </g>
  <g id="axes_1">
   <g id="patch_2">
    <path d="M 36.262031 182.68 
L 247.375365 182.68 
L 247.375365 59.28 
L 36.262031 59.28 
L 36.262031 182.68 
z
" style="fill: none"/>
   </g>
   <g id="patch_3">
    <path d="M 76.391012 182.68 
L 98.200241 182.68 
L 98.200241 59.28 
L 76.391012 59.28 
z
" clip-path="url(#p483e12d06a)" style="fill: #d9d9d9; stroke: #d9d9d9; stroke-linejoin: miter"/>
   </g>
   <g id="patch_4">
    <path d="M 98.200241 182.68 
L 172.351618 182.68 
L 172.351618 59.28 
L 98.200241 59.28 
z
" clip-path="url(#p483e12d06a)" style="fill: #ebebeb; stroke: #ebebeb; stroke-linejoin: miter"/>
   </g>
   <g id="FillBetweenPolyCollection_1">
    <defs>
     <path id="m82f7d4c6db" d="M 45.858092 -129.228555 
L 45.858092 -108.99835 
L 48.039015 -105.025374 
L 50.219938 -97.543821 
L 52.40086 -87.57818 
L 54.581783 -86.760654 
L 56.762706 -93.053626 
L 58.943629 -98.09955 
L 61.124552 -96.067304 
L 63.305475 -88.020585 
L 65.486398 -83.282347 
L 67.667321 -80.993983 
L 69.848243 -79.19794 
L 72.029166 -79.034359 
L 74.210089 -79.186839 
L 76.391012 -76.858172 
L 78.571935 -77.900062 
L 80.752858 -79.164125 
L 82.933781 -83.068965 
L 85.114703 -84.411544 
L 87.295626 -82.924661 
L 89.476549 -79.542166 
L 91.657472 -71.264618 
L 93.838395 -57.862831 
L 96.019318 -45.288119 
L 98.200241 -38.326278 
L 100.381163 -41.783984 
L 102.562086 -53.670296 
L 104.743009 -71.296021 
L 106.923932 -87.157055 
L 109.104855 -93.991877 
L 111.285778 -94.859733 
L 113.466701 -93.647672 
L 115.647624 -93.023176 
L 117.828546 -89.388832 
L 120.009469 -83.902404 
L 122.190392 -80.314081 
L 124.371315 -77.637541 
L 126.552238 -79.647511 
L 128.733161 -81.329395 
L 130.914084 -78.853677 
L 133.095006 -77.131684 
L 135.275929 -75.166724 
L 137.456852 -73.783413 
L 139.637775 -73.908102 
L 141.818698 -74.604175 
L 143.999621 -74.974916 
L 146.180544 -70.905072 
L 148.361467 -67.116827 
L 150.542389 -67.349062 
L 152.723312 -70.924102 
L 154.904235 -76.263742 
L 157.085158 -78.380081 
L 159.266081 -83.384394 
L 161.447004 -91.979992 
L 163.627927 -98.132937 
L 165.808849 -100.745249 
L 167.989772 -101.290907 
L 170.170695 -100.476094 
L 172.351618 -100.817765 
L 174.532541 -100.56751 
L 176.713464 -98.832096 
L 178.894387 -97.890135 
L 181.075309 -100.274595 
L 183.256232 -102.442409 
L 185.437155 -103.405801 
L 187.618078 -104.359688 
L 189.799001 -104.657178 
L 191.979924 -106.912591 
L 194.160847 -106.790625 
L 196.34177 -110.341123 
L 198.522692 -112.161786 
L 200.703615 -109.522852 
L 202.884538 -104.579265 
L 205.065461 -100.88739 
L 207.246384 -102.221683 
L 209.427307 -105.707582 
L 211.60823 -110.491987 
L 213.789152 -111.337336 
L 215.970075 -111.680091 
L 218.150998 -112.534031 
L 220.331921 -111.694382 
L 222.512844 -110.772641 
L 224.693767 -109.906946 
L 226.87469 -110.458609 
L 229.055613 -112.885941 
L 231.236535 -114.54894 
L 233.417458 -114.253097 
L 235.598381 -112.696805 
L 237.779304 -111.288475 
L 237.779304 -125.926282 
L 237.779304 -125.926282 
L 235.598381 -127.561913 
L 233.417458 -129.557957 
L 231.236535 -129.821784 
L 229.055613 -127.971721 
L 226.87469 -126.353718 
L 224.693767 -125.374756 
L 222.512844 -125.430126 
L 220.331921 -127.270462 
L 218.150998 -128.042824 
L 215.970075 -126.55103 
L 213.789152 -126.519868 
L 211.60823 -126.462094 
L 209.427307 -121.277985 
L 207.246384 -117.24424 
L 205.065461 -114.947931 
L 202.884538 -119.270876 
L 200.703615 -124.540427 
L 198.522692 -127.05978 
L 196.34177 -125.791642 
L 194.160847 -122.132078 
L 191.979924 -122.899952 
L 189.799001 -120.031776 
L 187.618078 -119.352086 
L 185.437155 -118.928425 
L 183.256232 -118.379219 
L 181.075309 -116.682762 
L 178.894387 -113.261596 
L 176.713464 -113.549506 
L 174.532541 -116.284383 
L 172.351618 -116.192513 
L 170.170695 -115.999543 
L 167.989772 -117.309115 
L 165.808849 -116.618003 
L 163.627927 -114.13435 
L 161.447004 -108.597287 
L 159.266081 -100.866206 
L 157.085158 -95.510647 
L 154.904235 -93.421934 
L 152.723312 -88.125637 
L 150.542389 -84.525522 
L 148.361467 -84.744125 
L 146.180544 -87.789747 
L 143.999621 -92.742052 
L 141.818698 -93.926538 
L 139.637775 -94.460263 
L 137.456852 -93.597548 
L 135.275929 -94.675078 
L 133.095006 -95.568062 
L 130.914084 -96.052937 
L 128.733161 -99.955699 
L 126.552238 -98.013812 
L 124.371315 -95.685586 
L 122.190392 -98.522268 
L 120.009469 -101.464591 
L 117.828546 -105.811581 
L 115.647624 -109.353183 
L 113.466701 -110.836846 
L 111.285778 -112.422924 
L 109.104855 -110.961253 
L 106.923932 -104.347117 
L 104.743009 -89.049021 
L 102.562086 -73.122985 
L 100.381163 -62.967408 
L 98.200241 -60.037914 
L 96.019318 -65.711788 
L 93.838395 -76.650731 
L 91.657472 -89.551944 
L 89.476549 -97.754166 
L 87.295626 -100.241098 
L 85.114703 -101.189205 
L 82.933781 -100.508106 
L 80.752858 -96.480963 
L 78.571935 -95.801746 
L 76.391012 -94.879056 
L 74.210089 -97.314894 
L 72.029166 -96.710255 
L 69.848243 -95.769222 
L 67.667321 -98.103698 
L 65.486398 -100.876348 
L 63.305475 -104.604362 
L 61.124552 -111.859526 
L 58.943629 -114.762875 
L 56.762706 -109.323015 
L 54.581783 -102.930931 
L 52.40086 -105.071526 
L 50.219938 -115.704254 
L 48.039015 -123.683391 
L 45.858092 -129.228555 
z
" style="stroke: #1f77b4; stroke-opacity: 0.15"/>
    </defs>
    <g clip-path="url(#p483e12d06a)">
     <use xlink:href="#m82f7d4c6db" x="0" y="215.397188" style="fill: #1f77b4; fill-opacity: 0.15; stroke: #1f77b4; stroke-opacity: 0.15"/>
    </g>
   </g>
   <g id="FillBetweenPolyCollection_2">
    <defs>
     <path id="medefecd6b2" d="M 45.858092 -136.316217 
L 45.858092 -103.149843 
L 48.039015 -95.525707 
L 50.219938 -81.648656 
L 52.40086 -75.480775 
L 54.581783 -80.114316 
L 56.762706 -88.046473 
L 58.943629 -95.195425 
L 61.124552 -95.001131 
L 63.305475 -89.623398 
L 65.486398 -85.035726 
L 67.667321 -77.648653 
L 69.848243 -78.49968 
L 72.029166 -89.434816 
L 74.210089 -94.685725 
L 76.391012 -90.491655 
L 78.571935 -87.017771 
L 80.752858 -85.713466 
L 82.933781 -82.480693 
L 85.114703 -82.329291 
L 87.295626 -80.71636 
L 89.476549 -78.224131 
L 91.657472 -76.91679 
L 93.838395 -74.807778 
L 96.019318 -80.914683 
L 98.200241 -93.495041 
L 100.381163 -105.788247 
L 102.562086 -112.194112 
L 104.743009 -109.43971 
L 106.923932 -99.586085 
L 109.104855 -96.274401 
L 111.285778 -102.932303 
L 113.466701 -95.847913 
L 115.647624 -79.848447 
L 117.828546 -72.928417 
L 120.009469 -77.891765 
L 122.190392 -76.338735 
L 124.371315 -70.186231 
L 126.552238 -68.407742 
L 128.733161 -66.246778 
L 130.914084 -67.774895 
L 133.095006 -72.580863 
L 135.275929 -77.06102 
L 137.456852 -75.483358 
L 139.637775 -75.521183 
L 141.818698 -84.351974 
L 143.999621 -95.730218 
L 146.180544 -98.603152 
L 148.361467 -90.524208 
L 150.542389 -77.187222 
L 152.723312 -68.354167 
L 154.904235 -71.66908 
L 157.085158 -84.82789 
L 159.266081 -91.664326 
L 161.447004 -95.907967 
L 163.627927 -98.785733 
L 165.808849 -100.196332 
L 167.989772 -103.441181 
L 170.170695 -107.845198 
L 172.351618 -112.086773 
L 174.532541 -110.567297 
L 176.713464 -105.224595 
L 178.894387 -96.632365 
L 181.075309 -90.03351 
L 183.256232 -88.863925 
L 185.437155 -94.897852 
L 187.618078 -103.616866 
L 189.799001 -104.528324 
L 191.979924 -103.444106 
L 194.160847 -102.273076 
L 196.34177 -99.425978 
L 198.522692 -98.19198 
L 200.703615 -104.664674 
L 202.884538 -111.359295 
L 205.065461 -116.121001 
L 207.246384 -112.609655 
L 209.427307 -105.075715 
L 211.60823 -99.807364 
L 213.789152 -98.01083 
L 215.970075 -95.866124 
L 218.150998 -93.627897 
L 220.331921 -95.442549 
L 222.512844 -101.208484 
L 224.693767 -103.284125 
L 226.87469 -105.81935 
L 229.055613 -107.913174 
L 231.236535 -111.076337 
L 233.417458 -112.153841 
L 235.598381 -113.460877 
L 237.779304 -114.08509 
L 237.779304 -145.861592 
L 237.779304 -145.861592 
L 235.598381 -146.875302 
L 233.417458 -141.127543 
L 231.236535 -138.73419 
L 229.055613 -138.686921 
L 226.87469 -140.304204 
L 224.693767 -136.485834 
L 222.512844 -133.992061 
L 220.331921 -125.689126 
L 218.150998 -120.584634 
L 215.970075 -121.386631 
L 213.789152 -121.822735 
L 211.60823 -127.98983 
L 209.427307 -138.215269 
L 207.246384 -142.033682 
L 205.065461 -144.967661 
L 202.884538 -143.533353 
L 200.703615 -138.584639 
L 198.522692 -134.694237 
L 196.34177 -135.406531 
L 194.160847 -136.568374 
L 191.979924 -137.726133 
L 189.799001 -138.572557 
L 187.618078 -136.677024 
L 185.437155 -127.475169 
L 183.256232 -118.237069 
L 181.075309 -119.102768 
L 178.894387 -125.883351 
L 176.713464 -133.495766 
L 174.532541 -140.895764 
L 172.351618 -143.239765 
L 170.170695 -136.966569 
L 167.989772 -134.075964 
L 165.808849 -137.261281 
L 163.627927 -135.640456 
L 161.447004 -126.062216 
L 159.266081 -121.880389 
L 157.085158 -120.682942 
L 154.904235 -112.139938 
L 152.723312 -107.625864 
L 150.542389 -115.995946 
L 148.361467 -130.273631 
L 146.180544 -134.659068 
L 143.999621 -128.719032 
L 141.818698 -118.943433 
L 139.637775 -112.112014 
L 137.456852 -113.392555 
L 135.275929 -111.074462 
L 133.095006 -103.715188 
L 130.914084 -98.171908 
L 128.733161 -94.089454 
L 126.552238 -97.476828 
L 124.371315 -104.176901 
L 122.190392 -113.369129 
L 120.009469 -112.103126 
L 117.828546 -107.893404 
L 115.647624 -115.349117 
L 113.466701 -133.196159 
L 111.285778 -139.134811 
L 109.104855 -130.658337 
L 106.923932 -133.13022 
L 104.743009 -143.724015 
L 102.562086 -146.136573 
L 100.381163 -144.799855 
L 98.200241 -135.514807 
L 96.019318 -119.551577 
L 93.838395 -107.868398 
L 91.657472 -106.630055 
L 89.476549 -110.21593 
L 87.295626 -115.987042 
L 85.114703 -114.225101 
L 82.933781 -114.321888 
L 80.752858 -121.478531 
L 78.571935 -125.101558 
L 76.391012 -126.55919 
L 74.210089 -126.991447 
L 72.029166 -125.168649 
L 69.848243 -115.282503 
L 67.667321 -107.776036 
L 65.486398 -112.346791 
L 63.305475 -120.565194 
L 61.124552 -127.266928 
L 58.943629 -128.533595 
L 56.762706 -122.25983 
L 54.581783 -108.408899 
L 52.40086 -103.041709 
L 50.219938 -114.074869 
L 48.039015 -128.287647 
L 45.858092 -136.316217 
z
" style="stroke: #ff7f0e; stroke-opacity: 0.15"/>
    </defs>
    <g clip-path="url(#p483e12d06a)">
     <use xlink:href="#medefecd6b2" x="0" y="215.397188" style="fill: #ff7f0e; fill-opacity: 0.15; stroke: #ff7f0e; stroke-opacity: 0.15"/>
    </g>
   </g>
   <g id="line2d_1">
    <path d="M 36.262031 108.709112 
L 247.375365 108.709112 
" clip-path="url(#p483e12d06a)" style="fill: none; stroke-dasharray: 2.96,1.28; stroke-dashoffset: 0; stroke: #000000; stroke-width: 0.8"/>
   </g>
   <g id="matplotlib.axis_1">
    <g id="xtick_1">
     <g id="line2d_2">
      <defs>
       <path id="mea9960b558" d="M 0 0 
L 0 3.5 
" style="stroke: #000000; stroke-width: 0.8"/>
      </defs>
      <g>
       <use xlink:href="#mea9960b558" x="41.496246" y="182.68" style="stroke: #000000; stroke-width: 0.8"/>
      </g>
     </g>
     <g id="text_1">
      <!-- 0 -->
      <g transform="translate(39.269371 194.998906) scale(0.07 -0.07)">
       <defs>
        <path id="DejaVuSans-30" d="M 2034 4250 
Q 1547 4250 1301 3770 
Q 1056 3291 1056 2328 
Q 1056 1369 1301 889 
Q 1547 409 2034 409 
Q 2525 409 2770 889 
Q 3016 1369 3016 2328 
Q 3016 3291 2770 3770 
Q 2525 4250 2034 4250 
z
M 2034 4750 
Q 2819 4750 3233 4129 
Q 3647 3509 3647 2328 
Q 3647 1150 3233 529 
Q 2819 -91 2034 -91 
Q 1250 -91 836 529 
Q 422 1150 422 2328 
Q 422 3509 836 4129 
Q 1250 4750 2034 4750 
z
" transform="scale(0.015625)"/>
       </defs>
       <use xlink:href="#DejaVuSans-30"/>
      </g>
     </g>
    </g>
    <g id="xtick_2">
     <g id="line2d_3">
      <g>
       <use xlink:href="#mea9960b558" x="85.114703" y="182.68" style="stroke: #000000; stroke-width: 0.8"/>
      </g>
     </g>
     <g id="text_2">
      <!-- 10 -->
      <g transform="translate(80.660953 194.998906) scale(0.07 -0.07)">
       <defs>
        <path id="DejaVuSans-31" d="M 794 531 
L 1825 531 
L 1825 4091 
L 703 3866 
L 703 4441 
L 1819 4666 
L 2450 4666 
L 2450 531 
L 3481 531 
L 3481 0 
L 794 0 
L 794 531 
z
" transform="scale(0.015625)"/>
       </defs>
       <use xlink:href="#DejaVuSans-31"/>
       <use xlink:href="#DejaVuSans-30" transform="translate(63.623047 0)"/>
      </g>
     </g>
    </g>
    <g id="xtick_3">
     <g id="line2d_4">
      <g>
       <use xlink:href="#mea9960b558" x="128.733161" y="182.68" style="stroke: #000000; stroke-width: 0.8"/>
      </g>
     </g>
     <g id="text_3">
      <!-- 20 -->
      <g transform="translate(124.279411 194.998906) scale(0.07 -0.07)">
       <defs>
        <path id="DejaVuSans-32" d="M 1228 531 
L 3431 531 
L 3431 0 
L 469 0 
L 469 531 
Q 828 903 1448 1529 
Q 2069 2156 2228 2338 
Q 2531 2678 2651 2914 
Q 2772 3150 2772 3378 
Q 2772 3750 2511 3984 
Q 2250 4219 1831 4219 
Q 1534 4219 1204 4116 
Q 875 4013 500 3803 
L 500 4441 
Q 881 4594 1212 4672 
Q 1544 4750 1819 4750 
Q 2544 4750 2975 4387 
Q 3406 4025 3406 3419 
Q 3406 3131 3298 2873 
Q 3191 2616 2906 2266 
Q 2828 2175 2409 1742 
Q 1991 1309 1228 531 
z
" transform="scale(0.015625)"/>
       </defs>
       <use xlink:href="#DejaVuSans-32"/>
       <use xlink:href="#DejaVuSans-30" transform="translate(63.623047 0)"/>
      </g>
     </g>
    </g>
    <g id="xtick_4">
     <g id="line2d_5">
      <g>
       <use xlink:href="#mea9960b558" x="172.351618" y="182.68" style="stroke: #000000; stroke-width: 0.8"/>
      </g>
     </g>
     <g id="text_4">
      <!-- 30 -->
      <g transform="translate(167.897868 194.998906) scale(0.07 -0.07)">
       <defs>
        <path id="DejaVuSans-33" d="M 2597 2516 
Q 3050 2419 3304 2112 
Q 3559 1806 3559 1356 
Q 3559 666 3084 287 
Q 2609 -91 1734 -91 
Q 1441 -91 1130 -33 
Q 819 25 488 141 
L 488 750 
Q 750 597 1062 519 
Q 1375 441 1716 441 
Q 2309 441 2620 675 
Q 2931 909 2931 1356 
Q 2931 1769 2642 2001 
Q 2353 2234 1838 2234 
L 1294 2234 
L 1294 2753 
L 1863 2753 
Q 2328 2753 2575 2939 
Q 2822 3125 2822 3475 
Q 2822 3834 2567 4026 
Q 2313 4219 1838 4219 
Q 1578 4219 1281 4162 
Q 984 4106 628 3988 
L 628 4550 
Q 988 4650 1302 4700 
Q 1616 4750 1894 4750 
Q 2613 4750 3031 4423 
Q 3450 4097 3450 3541 
Q 3450 3153 3228 2886 
Q 3006 2619 2597 2516 
z
" transform="scale(0.015625)"/>
       </defs>
       <use xlink:href="#DejaVuSans-33"/>
       <use xlink:href="#DejaVuSans-30" transform="translate(63.623047 0)"/>
      </g>
     </g>
    </g>
    <g id="xtick_5">
     <g id="line2d_6">
      <g>
       <use xlink:href="#mea9960b558" x="215.970075" y="182.68" style="stroke: #000000; stroke-width: 0.8"/>
      </g>
     </g>
     <g id="text_5">
      <!-- 40 -->
      <g transform="translate(211.516325 194.998906) scale(0.07 -0.07)">
       <defs>
        <path id="DejaVuSans-34" d="M 2419 4116 
L 825 1625 
L 2419 1625 
L 2419 4116 
z
M 2253 4666 
L 3047 4666 
L 3047 1625 
L 3713 1625 
L 3713 1100 
L 3047 1100 
L 3047 0 
L 2419 0 
L 2419 1100 
L 313 1100 
L 313 1709 
L 2253 4666 
z
" transform="scale(0.015625)"/>
       </defs>
       <use xlink:href="#DejaVuSans-34"/>
       <use xlink:href="#DejaVuSans-30" transform="translate(63.623047 0)"/>
      </g>
     </g>
    </g>
    <g id="text_6">
     <!-- Frequency (Hz) -->
     <g transform="translate(111.654948 206.533437) scale(0.08 -0.08)">
      <defs>
       <path id="DejaVuSans-46" d="M 628 4666 
L 3309 4666 
L 3309 4134 
L 1259 4134 
L 1259 2759 
L 3109 2759 
L 3109 2228 
L 1259 2228 
L 1259 0 
L 628 0 
L 628 4666 
z
" transform="scale(0.015625)"/>
       <path id="DejaVuSans-72" d="M 2631 2963 
Q 2534 3019 2420 3045 
Q 2306 3072 2169 3072 
Q 1681 3072 1420 2755 
Q 1159 2438 1159 1844 
L 1159 0 
L 581 0 
L 581 3500 
L 1159 3500 
L 1159 2956 
Q 1341 3275 1631 3429 
Q 1922 3584 2338 3584 
Q 2397 3584 2469 3576 
Q 2541 3569 2628 3553 
L 2631 2963 
z
" transform="scale(0.015625)"/>
       <path id="DejaVuSans-65" d="M 3597 1894 
L 3597 1613 
L 953 1613 
Q 991 1019 1311 708 
Q 1631 397 2203 397 
Q 2534 397 2845 478 
Q 3156 559 3463 722 
L 3463 178 
Q 3153 47 2828 -22 
Q 2503 -91 2169 -91 
Q 1331 -91 842 396 
Q 353 884 353 1716 
Q 353 2575 817 3079 
Q 1281 3584 2069 3584 
Q 2775 3584 3186 3129 
Q 3597 2675 3597 1894 
z
M 3022 2063 
Q 3016 2534 2758 2815 
Q 2500 3097 2075 3097 
Q 1594 3097 1305 2825 
Q 1016 2553 972 2059 
L 3022 2063 
z
" transform="scale(0.015625)"/>
       <path id="DejaVuSans-71" d="M 947 1747 
Q 947 1113 1208 752 
Q 1469 391 1925 391 
Q 2381 391 2643 752 
Q 2906 1113 2906 1747 
Q 2906 2381 2643 2742 
Q 2381 3103 1925 3103 
Q 1469 3103 1208 2742 
Q 947 2381 947 1747 
z
M 2906 525 
Q 2725 213 2448 61 
Q 2172 -91 1784 -91 
Q 1150 -91 751 415 
Q 353 922 353 1747 
Q 353 2572 751 3078 
Q 1150 3584 1784 3584 
Q 2172 3584 2448 3432 
Q 2725 3281 2906 2969 
L 2906 3500 
L 3481 3500 
L 3481 -1331 
L 2906 -1331 
L 2906 525 
z
" transform="scale(0.015625)"/>
       <path id="DejaVuSans-75" d="M 544 1381 
L 544 3500 
L 1119 3500 
L 1119 1403 
Q 1119 906 1312 657 
Q 1506 409 1894 409 
Q 2359 409 2629 706 
Q 2900 1003 2900 1516 
L 2900 3500 
L 3475 3500 
L 3475 0 
L 2900 0 
L 2900 538 
Q 2691 219 2414 64 
Q 2138 -91 1772 -91 
Q 1169 -91 856 284 
Q 544 659 544 1381 
z
M 1991 3584 
L 1991 3584 
z
" transform="scale(0.015625)"/>
       <path id="DejaVuSans-6e" d="M 3513 2113 
L 3513 0 
L 2938 0 
L 2938 2094 
Q 2938 2591 2744 2837 
Q 2550 3084 2163 3084 
Q 1697 3084 1428 2787 
Q 1159 2491 1159 1978 
L 1159 0 
L 581 0 
L 581 3500 
L 1159 3500 
L 1159 2956 
Q 1366 3272 1645 3428 
Q 1925 3584 2291 3584 
Q 2894 3584 3203 3211 
Q 3513 2838 3513 2113 
z
" transform="scale(0.015625)"/>
       <path id="DejaVuSans-63" d="M 3122 3366 
L 3122 2828 
Q 2878 2963 2633 3030 
Q 2388 3097 2138 3097 
Q 1578 3097 1268 2742 
Q 959 2388 959 1747 
Q 959 1106 1268 751 
Q 1578 397 2138 397 
Q 2388 397 2633 464 
Q 2878 531 3122 666 
L 3122 134 
Q 2881 22 2623 -34 
Q 2366 -91 2075 -91 
Q 1284 -91 818 406 
Q 353 903 353 1747 
Q 353 2603 823 3093 
Q 1294 3584 2113 3584 
Q 2378 3584 2631 3529 
Q 2884 3475 3122 3366 
z
" transform="scale(0.015625)"/>
       <path id="DejaVuSans-79" d="M 2059 -325 
Q 1816 -950 1584 -1140 
Q 1353 -1331 966 -1331 
L 506 -1331 
L 506 -850 
L 844 -850 
Q 1081 -850 1212 -737 
Q 1344 -625 1503 -206 
L 1606 56 
L 191 3500 
L 800 3500 
L 1894 763 
L 2988 3500 
L 3597 3500 
L 2059 -325 
z
" transform="scale(0.015625)"/>
       <path id="DejaVuSans-20" transform="scale(0.015625)"/>
       <path id="DejaVuSans-28" d="M 1984 4856 
Q 1566 4138 1362 3434 
Q 1159 2731 1159 2009 
Q 1159 1288 1364 580 
Q 1569 -128 1984 -844 
L 1484 -844 
Q 1016 -109 783 600 
Q 550 1309 550 2009 
Q 550 2706 781 3412 
Q 1013 4119 1484 4856 
L 1984 4856 
z
" transform="scale(0.015625)"/>
       <path id="DejaVuSans-48" d="M 628 4666 
L 1259 4666 
L 1259 2753 
L 3553 2753 
L 3553 4666 
L 4184 4666 
L 4184 0 
L 3553 0 
L 3553 2222 
L 1259 2222 
L 1259 0 
L 628 0 
L 628 4666 
z
" transform="scale(0.015625)"/>
       <path id="DejaVuSans-7a" d="M 353 3500 
L 3084 3500 
L 3084 2975 
L 922 459 
L 3084 459 
L 3084 0 
L 275 0 
L 275 525 
L 2438 3041 
L 353 3041 
L 353 3500 
z
" transform="scale(0.015625)"/>
       <path id="DejaVuSans-29" d="M 513 4856 
L 1013 4856 
Q 1481 4119 1714 3412 
Q 1947 2706 1947 2009 
Q 1947 1309 1714 600 
Q 1481 -109 1013 -844 
L 513 -844 
Q 928 -128 1133 580 
Q 1338 1288 1338 2009 
Q 1338 2731 1133 3434 
Q 928 4138 513 4856 
z
" transform="scale(0.015625)"/>
      </defs>
      <use xlink:href="#DejaVuSans-46"/>
      <use xlink:href="#DejaVuSans-72" transform="translate(50.269531 0)"/>
      <use xlink:href="#DejaVuSans-65" transform="translate(89.132812 0)"/>
      <use xlink:href="#DejaVuSans-71" transform="translate(150.65625 0)"/>
      <use xlink:href="#DejaVuSans-75" transform="translate(214.132812 0)"/>
      <use xlink:href="#DejaVuSans-65" transform="translate(277.511719 0)"/>
      <use xlink:href="#DejaVuSans-6e" transform="translate(339.035156 0)"/>
      <use xlink:href="#DejaVuSans-63" transform="translate(402.414062 0)"/>
      <use xlink:href="#DejaVuSans-79" transform="translate(457.394531 0)"/>
      <use xlink:href="#DejaVuSans-20" transform="translate(516.574219 0)"/>
      <use xlink:href="#DejaVuSans-28" transform="translate(548.361328 0)"/>
      <use xlink:href="#DejaVuSans-48" transform="translate(587.375 0)"/>
      <use xlink:href="#DejaVuSans-7a" transform="translate(662.570312 0)"/>
      <use xlink:href="#DejaVuSans-29" transform="translate(715.060547 0)"/>
     </g>
    </g>
   </g>
   <g id="matplotlib.axis_2">
    <g id="ytick_1">
     <g id="line2d_7">
      <defs>
       <path id="m618e93398e" d="M 0 0 
L -3.5 0 
" style="stroke: #000000; stroke-width: 0.8"/>
      </defs>
      <g>
       <use xlink:href="#m618e93398e" x="36.262031" y="178.215133" style="stroke: #000000; stroke-width: 0.8"/>
      </g>
     </g>
     <g id="text_7">
      <!-- −4 -->
      <g transform="translate(18.9425 180.874586) scale(0.07 -0.07)">
       <defs>
        <path id="DejaVuSans-2212" d="M 678 2272 
L 4684 2272 
L 4684 1741 
L 678 1741 
L 678 2272 
z
" transform="scale(0.015625)"/>
       </defs>
       <use xlink:href="#DejaVuSans-2212"/>
       <use xlink:href="#DejaVuSans-34" transform="translate(83.789062 0)"/>
      </g>
     </g>
    </g>
    <g id="ytick_2">
     <g id="line2d_8">
      <g>
       <use xlink:href="#m618e93398e" x="36.262031" y="160.838628" style="stroke: #000000; stroke-width: 0.8"/>
      </g>
     </g>
     <g id="text_8">
      <!-- −3 -->
      <g transform="translate(18.9425 163.498081) scale(0.07 -0.07)">
       <use xlink:href="#DejaVuSans-2212"/>
       <use xlink:href="#DejaVuSans-33" transform="translate(83.789062 0)"/>
      </g>
     </g>
    </g>
    <g id="ytick_3">
     <g id="line2d_9">
      <g>
       <use xlink:href="#m618e93398e" x="36.262031" y="143.462122" style="stroke: #000000; stroke-width: 0.8"/>
      </g>
     </g>
     <g id="text_9">
      <!-- −2 -->
      <g transform="translate(18.9425 146.121575) scale(0.07 -0.07)">
       <use xlink:href="#DejaVuSans-2212"/>
       <use xlink:href="#DejaVuSans-32" transform="translate(83.789062 0)"/>
      </g>
     </g>
    </g>
    <g id="ytick_4">
     <g id="line2d_10">
      <g>
       <use xlink:href="#m618e93398e" x="36.262031" y="126.085617" style="stroke: #000000; stroke-width: 0.8"/>
      </g>
     </g>
     <g id="text_10">
      <!-- −1 -->
      <g transform="translate(18.9425 128.74507) scale(0.07 -0.07)">
       <use xlink:href="#DejaVuSans-2212"/>
       <use xlink:href="#DejaVuSans-31" transform="translate(83.789062 0)"/>
      </g>
     </g>
    </g>
    <g id="ytick_5">
     <g id="line2d_11">
      <g>
       <use xlink:href="#m618e93398e" x="36.262031" y="108.709112" style="stroke: #000000; stroke-width: 0.8"/>
      </g>
     </g>
     <g id="text_11">
      <!-- 0 -->
      <g transform="translate(24.808281 111.368565) scale(0.07 -0.07)">
       <use xlink:href="#DejaVuSans-30"/>
      </g>
     </g>
    </g>
    <g id="ytick_6">
     <g id="line2d_12">
      <g>
       <use xlink:href="#m618e93398e" x="36.262031" y="91.332607" style="stroke: #000000; stroke-width: 0.8"/>
      </g>
     </g>
     <g id="text_12">
      <!-- 1 -->
      <g transform="translate(24.808281 93.99206) scale(0.07 -0.07)">
       <use xlink:href="#DejaVuSans-31"/>
      </g>
     </g>
    </g>
    <g id="ytick_7">
     <g id="line2d_13">
      <g>
       <use xlink:href="#m618e93398e" x="36.262031" y="73.956102" style="stroke: #000000; stroke-width: 0.8"/>
      </g>
     </g>
     <g id="text_13">
      <!-- 2 -->
      <g transform="translate(24.808281 76.615555) scale(0.07 -0.07)">
       <use xlink:href="#DejaVuSans-32"/>
      </g>
     </g>
    </g>
    <g id="text_14">
     <!-- ERD/ERS (dB) -->
     <g transform="translate(13.27875 148.236875) rotate(-90) scale(0.08 -0.08)">
      <defs>
       <path id="DejaVuSans-45" d="M 628 4666 
L 3578 4666 
L 3578 4134 
L 1259 4134 
L 1259 2753 
L 3481 2753 
L 3481 2222 
L 1259 2222 
L 1259 531 
L 3634 531 
L 3634 0 
L 628 0 
L 628 4666 
z
" transform="scale(0.015625)"/>
       <path id="DejaVuSans-52" d="M 2841 2188 
Q 3044 2119 3236 1894 
Q 3428 1669 3622 1275 
L 4263 0 
L 3584 0 
L 2988 1197 
Q 2756 1666 2539 1819 
Q 2322 1972 1947 1972 
L 1259 1972 
L 1259 0 
L 628 0 
L 628 4666 
L 2053 4666 
Q 2853 4666 3247 4331 
Q 3641 3997 3641 3322 
Q 3641 2881 3436 2590 
Q 3231 2300 2841 2188 
z
M 1259 4147 
L 1259 2491 
L 2053 2491 
Q 2509 2491 2742 2702 
Q 2975 2913 2975 3322 
Q 2975 3731 2742 3939 
Q 2509 4147 2053 4147 
L 1259 4147 
z
" transform="scale(0.015625)"/>
       <path id="DejaVuSans-44" d="M 1259 4147 
L 1259 519 
L 2022 519 
Q 2988 519 3436 956 
Q 3884 1394 3884 2338 
Q 3884 3275 3436 3711 
Q 2988 4147 2022 4147 
L 1259 4147 
z
M 628 4666 
L 1925 4666 
Q 3281 4666 3915 4102 
Q 4550 3538 4550 2338 
Q 4550 1131 3912 565 
Q 3275 0 1925 0 
L 628 0 
L 628 4666 
z
" transform="scale(0.015625)"/>
       <path id="DejaVuSans-2f" d="M 1625 4666 
L 2156 4666 
L 531 -594 
L 0 -594 
L 1625 4666 
z
" transform="scale(0.015625)"/>
       <path id="DejaVuSans-53" d="M 3425 4513 
L 3425 3897 
Q 3066 4069 2747 4153 
Q 2428 4238 2131 4238 
Q 1616 4238 1336 4038 
Q 1056 3838 1056 3469 
Q 1056 3159 1242 3001 
Q 1428 2844 1947 2747 
L 2328 2669 
Q 3034 2534 3370 2195 
Q 3706 1856 3706 1288 
Q 3706 609 3251 259 
Q 2797 -91 1919 -91 
Q 1588 -91 1214 -16 
Q 841 59 441 206 
L 441 856 
Q 825 641 1194 531 
Q 1563 422 1919 422 
Q 2459 422 2753 634 
Q 3047 847 3047 1241 
Q 3047 1584 2836 1778 
Q 2625 1972 2144 2069 
L 1759 2144 
Q 1053 2284 737 2584 
Q 422 2884 422 3419 
Q 422 4038 858 4394 
Q 1294 4750 2059 4750 
Q 2388 4750 2728 4690 
Q 3069 4631 3425 4513 
z
" transform="scale(0.015625)"/>
       <path id="DejaVuSans-64" d="M 2906 2969 
L 2906 4863 
L 3481 4863 
L 3481 0 
L 2906 0 
L 2906 525 
Q 2725 213 2448 61 
Q 2172 -91 1784 -91 
Q 1150 -91 751 415 
Q 353 922 353 1747 
Q 353 2572 751 3078 
Q 1150 3584 1784 3584 
Q 2172 3584 2448 3432 
Q 2725 3281 2906 2969 
z
M 947 1747 
Q 947 1113 1208 752 
Q 1469 391 1925 391 
Q 2381 391 2643 752 
Q 2906 1113 2906 1747 
Q 2906 2381 2643 2742 
Q 2381 3103 1925 3103 
Q 1469 3103 1208 2742 
Q 947 2381 947 1747 
z
" transform="scale(0.015625)"/>
       <path id="DejaVuSans-42" d="M 1259 2228 
L 1259 519 
L 2272 519 
Q 2781 519 3026 730 
Q 3272 941 3272 1375 
Q 3272 1813 3026 2020 
Q 2781 2228 2272 2228 
L 1259 2228 
z
M 1259 4147 
L 1259 2741 
L 2194 2741 
Q 2656 2741 2882 2914 
Q 3109 3088 3109 3444 
Q 3109 3797 2882 3972 
Q 2656 4147 2194 4147 
L 1259 4147 
z
M 628 4666 
L 2241 4666 
Q 2963 4666 3353 4366 
Q 3744 4066 3744 3513 
Q 3744 3084 3544 2831 
Q 3344 2578 2956 2516 
Q 3422 2416 3680 2098 
Q 3938 1781 3938 1306 
Q 3938 681 3513 340 
Q 3088 0 2303 0 
L 628 0 
L 628 4666 
z
" transform="scale(0.015625)"/>
      </defs>
      <use xlink:href="#DejaVuSans-45"/>
      <use xlink:href="#DejaVuSans-52" transform="translate(63.183594 0)"/>
      <use xlink:href="#DejaVuSans-44" transform="translate(132.666016 0)"/>
      <use xlink:href="#DejaVuSans-2f" transform="translate(209.667969 0)"/>
      <use xlink:href="#DejaVuSans-45" transform="translate(243.359375 0)"/>
      <use xlink:href="#DejaVuSans-52" transform="translate(306.542969 0)"/>
      <use xlink:href="#DejaVuSans-53" transform="translate(376.025391 0)"/>
      <use xlink:href="#DejaVuSans-20" transform="translate(439.501953 0)"/>
      <use xlink:href="#DejaVuSans-28" transform="translate(471.289062 0)"/>
      <use xlink:href="#DejaVuSans-64" transform="translate(510.302734 0)"/>
      <use xlink:href="#DejaVuSans-42" transform="translate(573.779297 0)"/>
      <use xlink:href="#DejaVuSans-29" transform="translate(642.382812 0)"/>
     </g>
    </g>
   </g>
   <g id="line2d_14">
    <path d="M 45.858092 96.283735 
L 48.039015 101.042805 
L 50.219938 108.77315 
L 52.40086 119.072335 
L 54.581783 120.551395 
L 56.762706 114.208867 
L 58.943629 108.965975 
L 61.124552 111.433772 
L 63.305475 119.084714 
L 65.486398 123.31784 
L 67.667321 125.848347 
L 69.848243 127.913606 
L 72.029166 127.52488 
L 74.210089 127.146321 
L 76.391012 129.528573 
L 78.571935 128.546283 
L 80.752858 127.574644 
L 82.933781 123.608652 
L 85.114703 122.596813 
L 87.295626 123.814308 
L 89.476549 126.749022 
L 91.657472 134.988907 
L 93.838395 148.140406 
L 96.019318 159.897234 
L 98.200241 166.215091 
L 100.381163 163.021491 
L 102.562086 152.000547 
L 104.743009 135.224667 
L 106.923932 119.645101 
L 109.104855 112.920622 
L 111.285778 111.755859 
L 113.466701 113.154929 
L 115.647624 114.209008 
L 117.828546 117.796981 
L 120.009469 122.71369 
L 122.190392 125.979013 
L 124.371315 128.735624 
L 126.552238 126.566526 
L 128.733161 124.754641 
L 130.914084 127.94388 
L 133.095006 129.047314 
L 135.275929 130.476287 
L 137.456852 131.706707 
L 139.637775 131.213005 
L 141.818698 131.131831 
L 143.999621 131.538703 
L 146.180544 136.049778 
L 148.361467 139.466712 
L 150.542389 139.459896 
L 152.723312 135.872318 
L 154.904235 130.554349 
L 157.085158 128.451824 
L 159.266081 123.271887 
L 161.447004 115.108548 
L 163.627927 109.263544 
L 165.808849 106.715561 
L 167.989772 106.097176 
L 170.170695 107.159369 
L 172.351618 106.892048 
L 174.532541 106.971241 
L 176.713464 109.206387 
L 178.894387 109.821322 
L 181.075309 106.918509 
L 183.256232 104.986374 
L 185.437155 104.230074 
L 187.618078 103.5413 
L 189.799001 103.05271 
L 191.979924 100.490916 
L 194.160847 100.935836 
L 196.34177 97.330805 
L 198.522692 95.786404 
L 200.703615 98.365548 
L 202.884538 103.472117 
L 205.065461 107.479527 
L 207.246384 105.664226 
L 209.427307 101.904404 
L 211.60823 96.920147 
L 213.789152 96.468585 
L 215.970075 96.281627 
L 218.150998 95.10876 
L 220.331921 95.914766 
L 222.512844 97.295804 
L 224.693767 97.756337 
L 226.87469 96.991024 
L 229.055613 94.968357 
L 231.236535 93.211826 
L 233.417458 93.49166 
L 235.598381 95.267828 
L 237.779304 96.789809 
" clip-path="url(#p483e12d06a)" style="fill: none; stroke: #1f77b4; stroke-width: 1.3; stroke-linecap: square"/>
   </g>
   <g id="line2d_15">
    <path d="M 45.858092 95.664157 
L 48.039015 103.49051 
L 50.219938 117.535425 
L 52.40086 126.135945 
L 54.581783 121.13558 
L 56.762706 110.244036 
L 58.943629 103.532677 
L 61.124552 104.263158 
L 63.305475 110.302891 
L 65.486398 116.705929 
L 67.667321 122.684843 
L 69.848243 118.506096 
L 72.029166 108.095455 
L 74.210089 104.558601 
L 76.391012 106.871765 
L 78.571935 109.337523 
L 80.752858 111.801189 
L 82.933781 116.995897 
L 85.114703 117.119992 
L 87.295626 117.045487 
L 89.476549 121.177157 
L 91.657472 123.623765 
L 93.838395 124.0591 
L 96.019318 115.164058 
L 98.200241 100.892264 
L 100.381163 90.103136 
L 102.562086 86.231845 
L 104.743009 88.815325 
L 106.923932 99.039035 
L 109.104855 101.930819 
L 111.285778 94.36363 
L 113.466701 100.875151 
L 115.647624 117.798405 
L 117.828546 124.986277 
L 120.009469 120.399742 
L 122.190392 120.543255 
L 124.371315 128.215622 
L 126.552238 132.454902 
L 128.733161 135.229072 
L 130.914084 132.423786 
L 133.095006 127.249162 
L 135.275929 121.329446 
L 137.456852 120.959231 
L 139.637775 121.580589 
L 141.818698 113.749484 
L 143.999621 103.172563 
L 146.180544 98.766077 
L 148.361467 104.998268 
L 150.542389 118.805604 
L 152.723312 127.407172 
L 154.904235 123.492678 
L 157.085158 112.641771 
L 159.266081 108.62483 
L 161.447004 104.412096 
L 163.627927 98.184093 
L 165.808849 96.668381 
L 167.989772 96.638615 
L 170.170695 92.991304 
L 172.351618 87.733918 
L 174.532541 89.665657 
L 176.713464 96.037007 
L 178.894387 104.13933 
L 181.075309 110.829049 
L 183.256232 111.84669 
L 185.437155 104.210677 
L 187.618078 95.250243 
L 189.799001 93.846747 
L 191.979924 94.812068 
L 194.160847 95.976462 
L 196.34177 97.980933 
L 198.522692 98.954079 
L 200.703615 93.772531 
L 202.884538 87.950863 
L 205.065461 84.852856 
L 207.246384 88.075519 
L 209.427307 93.751696 
L 211.60823 101.498591 
L 213.789152 105.480405 
L 215.970075 106.77081 
L 218.150998 108.290922 
L 220.331921 104.83135 
L 222.512844 97.796915 
L 224.693767 95.512208 
L 226.87469 92.335411 
L 229.055613 92.09714 
L 231.236535 90.491924 
L 233.417458 88.756496 
L 235.598381 85.229098 
L 237.779304 85.423846 
" clip-path="url(#p483e12d06a)" style="fill: none; stroke: #ff7f0e; stroke-width: 1.3; stroke-linecap: square"/>
   </g>
   <g id="patch_5">
    <path d="M 36.262031 182.68 
L 36.262031 59.28 
" style="fill: none; stroke: #000000; stroke-width: 0.8; stroke-linejoin: miter; stroke-linecap: square"/>
   </g>
   <g id="patch_6">
    <path d="M 247.375365 182.68 
L 247.375365 59.28 
" style="fill: none; stroke: #000000; stroke-width: 0.8; stroke-linejoin: miter; stroke-linecap: square"/>
   </g>
   <g id="patch_7">
    <path d="M 36.262031 182.68 
L 247.375365 182.68 
" style="fill: none; stroke: #000000; stroke-width: 0.8; stroke-linejoin: miter; stroke-linecap: square"/>
   </g>
   <g id="patch_8">
    <path d="M 36.262031 59.28 
L 247.375365 59.28 
" style="fill: none; stroke: #000000; stroke-width: 0.8; stroke-linejoin: miter; stroke-linecap: square"/>
   </g>
   <g id="text_15">
    <!-- C3 -->
    <g transform="translate(135.813307 53.28) scale(0.09 -0.09)">
     <defs>
      <path id="DejaVuSans-43" d="M 4122 4306 
L 4122 3641 
Q 3803 3938 3442 4084 
Q 3081 4231 2675 4231 
Q 1875 4231 1450 3742 
Q 1025 3253 1025 2328 
Q 1025 1406 1450 917 
Q 1875 428 2675 428 
Q 3081 428 3442 575 
Q 3803 722 4122 1019 
L 4122 359 
Q 3791 134 3420 21 
Q 3050 -91 2638 -91 
Q 1578 -91 968 557 
Q 359 1206 359 2328 
Q 359 3453 968 4101 
Q 1578 4750 2638 4750 
Q 3056 4750 3426 4639 
Q 3797 4528 4122 4306 
z
" transform="scale(0.015625)"/>
     </defs>
     <use xlink:href="#DejaVuSans-43"/>
     <use xlink:href="#DejaVuSans-33" transform="translate(69.824219 0)"/>
    </g>
   </g>
  </g>
  <g id="axes_2">
   <g id="patch_9">
    <path d="M 272.875365 182.68 
L 483.988698 182.68 
L 483.988698 59.28 
L 272.875365 59.28 
L 272.875365 182.68 
z
" style="fill: none"/>
   </g>
   <g id="patch_10">
    <path d="M 313.004345 182.68 
L 334.813574 182.68 
L 334.813574 59.28 
L 313.004345 59.28 
z
" clip-path="url(#p5fe122fae7)" style="fill: #d9d9d9; stroke: #d9d9d9; stroke-linejoin: miter"/>
   </g>
   <g id="patch_11">
    <path d="M 334.813574 182.68 
L 408.964951 182.68 
L 408.964951 59.28 
L 334.813574 59.28 
z
" clip-path="url(#p5fe122fae7)" style="fill: #ebebeb; stroke: #ebebeb; stroke-linejoin: miter"/>
   </g>
   <g id="FillBetweenPolyCollection_3">
    <defs>
     <path id="m0bc707fe52" d="M 282.471425 -123.04904 
L 282.471425 -104.97764 
L 284.652348 -105.262165 
L 286.833271 -105.742986 
L 289.014194 -101.522527 
L 291.195117 -94.447607 
L 293.37604 -89.237585 
L 295.556962 -87.966224 
L 297.737885 -91.928631 
L 299.918808 -99.238204 
L 302.099731 -101.318894 
L 304.280654 -96.270892 
L 306.461577 -92.646305 
L 308.6425 -89.253037 
L 310.823422 -84.785387 
L 313.004345 -78.372597 
L 315.185268 -74.622534 
L 317.366191 -76.237636 
L 319.547114 -83.106575 
L 321.728037 -91.55751 
L 323.90896 -95.686589 
L 326.089882 -95.853777 
L 328.270805 -89.635384 
L 330.451728 -84.999863 
L 332.632651 -84.55482 
L 334.813574 -85.770655 
L 336.994497 -88.216657 
L 339.17542 -93.473729 
L 341.356343 -98.592704 
L 343.537265 -102.640623 
L 345.718188 -103.472863 
L 347.899111 -97.722932 
L 350.080034 -89.577097 
L 352.260957 -85.013586 
L 354.44188 -85.993574 
L 356.622803 -85.817625 
L 358.803725 -86.479358 
L 360.984648 -89.806254 
L 363.165571 -91.963975 
L 365.346494 -89.867923 
L 367.527417 -86.240474 
L 369.70834 -85.869291 
L 371.889263 -90.687117 
L 374.070186 -94.346207 
L 376.251108 -94.467019 
L 378.432031 -92.328232 
L 380.612954 -86.888894 
L 382.793877 -83.248974 
L 384.9748 -84.397734 
L 387.155723 -85.86721 
L 389.336646 -87.729142 
L 391.517568 -91.211909 
L 393.698491 -96.261909 
L 395.879414 -99.005912 
L 398.060337 -98.530735 
L 400.24126 -96.970501 
L 402.422183 -94.048958 
L 404.603106 -97.381699 
L 406.784028 -100.932101 
L 408.964951 -102.771481 
L 411.145874 -100.962131 
L 413.326797 -97.235396 
L 415.50772 -96.513792 
L 417.688643 -99.796071 
L 419.869566 -101.285311 
L 422.050489 -101.803242 
L 424.231411 -102.525612 
L 426.412334 -101.389907 
L 428.593257 -99.679457 
L 430.77418 -100.268153 
L 432.955103 -102.464567 
L 435.136026 -106.356578 
L 437.316949 -108.096023 
L 439.497871 -106.685465 
L 441.678794 -103.934167 
L 443.859717 -102.290858 
L 446.04064 -102.201462 
L 448.221563 -103.935863 
L 450.402486 -103.273895 
L 452.583409 -102.011062 
L 454.764332 -104.407099 
L 456.945254 -107.335916 
L 459.126177 -107.242469 
L 461.3071 -105.163337 
L 463.488023 -105.839699 
L 465.668946 -107.109897 
L 467.849869 -107.518009 
L 470.030792 -106.281948 
L 472.211714 -104.50317 
L 474.392637 -105.399894 
L 474.392637 -121.297213 
L 474.392637 -121.297213 
L 472.211714 -118.521932 
L 470.030792 -120.403501 
L 467.849869 -123.105823 
L 465.668946 -123.506105 
L 463.488023 -122.205662 
L 461.3071 -121.725795 
L 459.126177 -124.059007 
L 456.945254 -123.854657 
L 454.764332 -122.056049 
L 452.583409 -119.624535 
L 450.402486 -120.566222 
L 448.221563 -121.765151 
L 446.04064 -120.609015 
L 443.859717 -120.534098 
L 441.678794 -121.207208 
L 439.497871 -123.154268 
L 437.316949 -125.20171 
L 435.136026 -123.714012 
L 432.955103 -120.422943 
L 430.77418 -118.565067 
L 428.593257 -117.86817 
L 426.412334 -119.256212 
L 424.231411 -118.790306 
L 422.050489 -118.383571 
L 419.869566 -117.683264 
L 417.688643 -115.405354 
L 415.50772 -112.300254 
L 413.326797 -113.192887 
L 411.145874 -116.368528 
L 408.964951 -119.654238 
L 406.784028 -117.905396 
L 404.603106 -113.105773 
L 402.422183 -109.747172 
L 400.24126 -114.179628 
L 398.060337 -115.707709 
L 395.879414 -115.66521 
L 393.698491 -112.201273 
L 391.517568 -107.037414 
L 389.336646 -104.020739 
L 387.155723 -102.414841 
L 384.9748 -103.025139 
L 382.793877 -103.631185 
L 380.612954 -107.45287 
L 378.432031 -112.967498 
L 376.251108 -114.854364 
L 374.070186 -115.237426 
L 371.889263 -111.962854 
L 369.70834 -107.591616 
L 367.527417 -107.882599 
L 365.346494 -110.634592 
L 363.165571 -112.602188 
L 360.984648 -111.051669 
L 358.803725 -107.731347 
L 356.622803 -106.347202 
L 354.44188 -105.086303 
L 352.260957 -102.993447 
L 350.080034 -108.241324 
L 347.899111 -115.464806 
L 345.718188 -120.627314 
L 343.537265 -119.120493 
L 341.356343 -114.273532 
L 339.17542 -109.512295 
L 336.994497 -104.186096 
L 334.813574 -102.765389 
L 332.632651 -102.49522 
L 330.451728 -103.867353 
L 328.270805 -109.222433 
L 326.089882 -113.819994 
L 323.90896 -114.083993 
L 321.728037 -111.86518 
L 319.547114 -102.647885 
L 317.366191 -95.473248 
L 315.185268 -93.681113 
L 313.004345 -96.444753 
L 310.823422 -102.605515 
L 308.6425 -106.634724 
L 306.461577 -108.634849 
L 304.280654 -111.29002 
L 302.099731 -117.830556 
L 299.918808 -116.406714 
L 297.737885 -110.017384 
L 295.556962 -106.251136 
L 293.37604 -106.382771 
L 291.195117 -110.553398 
L 289.014194 -116.294434 
L 286.833271 -121.317567 
L 284.652348 -122.370228 
L 282.471425 -123.04904 
z
" style="stroke: #1f77b4; stroke-opacity: 0.15"/>
    </defs>
    <g clip-path="url(#p5fe122fae7)">
     <use xlink:href="#m0bc707fe52" x="0" y="215.397188" style="fill: #1f77b4; fill-opacity: 0.15; stroke: #1f77b4; stroke-opacity: 0.15"/>
    </g>
   </g>
   <g id="FillBetweenPolyCollection_4">
    <defs>
     <path id="mb06442cac8" d="M 282.471425 -120.946155 
L 282.471425 -89.326155 
L 284.652348 -100.462383 
L 286.833271 -110.038214 
L 289.014194 -110.076007 
L 291.195117 -107.881235 
L 293.37604 -105.163274 
L 295.556962 -101.492247 
L 297.737885 -95.518836 
L 299.918808 -87.662022 
L 302.099731 -85.528594 
L 304.280654 -89.273468 
L 306.461577 -92.86034 
L 308.6425 -90.853343 
L 310.823422 -91.293971 
L 313.004345 -89.745895 
L 315.185268 -81.461283 
L 317.366191 -74.757724 
L 319.547114 -77.156912 
L 321.728037 -84.433669 
L 323.90896 -88.09301 
L 326.089882 -87.265018 
L 328.270805 -88.06435 
L 330.451728 -87.159958 
L 332.632651 -85.69132 
L 334.813574 -86.624156 
L 336.994497 -85.332337 
L 339.17542 -89.231643 
L 341.356343 -99.385178 
L 343.537265 -105.430068 
L 345.718188 -105.154613 
L 347.899111 -101.058986 
L 350.080034 -94.228965 
L 352.260957 -82.828785 
L 354.44188 -74.211421 
L 356.622803 -67.429545 
L 358.803725 -57.189004 
L 360.984648 -48.30206 
L 363.165571 -55.356323 
L 365.346494 -71.080612 
L 367.527417 -82.386463 
L 369.70834 -86.564534 
L 371.889263 -89.861 
L 374.070186 -95.87117 
L 376.251108 -93.109922 
L 378.432031 -89.579772 
L 380.612954 -92.299356 
L 382.793877 -98.720401 
L 384.9748 -105.457845 
L 387.155723 -101.71348 
L 389.336646 -95.182397 
L 391.517568 -93.920733 
L 393.698491 -95.356006 
L 395.879414 -105.756467 
L 398.060337 -115.020226 
L 400.24126 -114.908278 
L 402.422183 -110.955419 
L 404.603106 -103.502507 
L 406.784028 -94.834914 
L 408.964951 -88.813832 
L 411.145874 -83.468906 
L 413.326797 -80.662732 
L 415.50772 -79.498353 
L 417.688643 -78.64267 
L 419.869566 -80.72697 
L 422.050489 -83.381345 
L 424.231411 -86.155579 
L 426.412334 -86.566876 
L 428.593257 -79.667259 
L 430.77418 -71.745156 
L 432.955103 -80.768415 
L 435.136026 -93.805538 
L 437.316949 -100.804219 
L 439.497871 -106.992214 
L 441.678794 -106.02772 
L 443.859717 -99.431844 
L 446.04064 -96.495032 
L 448.221563 -97.686052 
L 450.402486 -98.831825 
L 452.583409 -99.358349 
L 454.764332 -97.258778 
L 456.945254 -93.138573 
L 459.126177 -83.75174 
L 461.3071 -81.848362 
L 463.488023 -83.224588 
L 465.668946 -88.798888 
L 467.849869 -99.185722 
L 470.030792 -103.262462 
L 472.211714 -101.263472 
L 474.392637 -97.986444 
L 474.392637 -126.424006 
L 474.392637 -126.424006 
L 472.211714 -128.375965 
L 470.030792 -130.420221 
L 467.849869 -129.367099 
L 465.668946 -118.115169 
L 463.488023 -115.812738 
L 461.3071 -120.0201 
L 459.126177 -118.807276 
L 456.945254 -126.07558 
L 454.764332 -132.049485 
L 452.583409 -131.640192 
L 450.402486 -128.513355 
L 448.221563 -127.179493 
L 446.04064 -129.251927 
L 443.859717 -132.695944 
L 441.678794 -135.436612 
L 439.497871 -142.36053 
L 437.316949 -133.632184 
L 435.136026 -127.776136 
L 432.955103 -115.386332 
L 430.77418 -107.586271 
L 428.593257 -115.220371 
L 426.412334 -120.992999 
L 424.231411 -123.776844 
L 422.050489 -119.804895 
L 419.869566 -115.09708 
L 417.688643 -113.927112 
L 415.50772 -111.428221 
L 413.326797 -110.683426 
L 411.145874 -114.584371 
L 408.964951 -122.260103 
L 406.784028 -129.431595 
L 404.603106 -140.125096 
L 402.422183 -148.457435 
L 400.24126 -150.508097 
L 398.060337 -149.796506 
L 395.879414 -143.020925 
L 393.698491 -131.071463 
L 391.517568 -124.654535 
L 389.336646 -127.282578 
L 387.155723 -136.492411 
L 384.9748 -140.660077 
L 382.793877 -135.599693 
L 380.612954 -132.561966 
L 378.432031 -132.21099 
L 376.251108 -132.374424 
L 374.070186 -130.682966 
L 371.889263 -123.249182 
L 369.70834 -120.635792 
L 367.527417 -122.088278 
L 365.346494 -115.360399 
L 363.165571 -105.929649 
L 360.984648 -100.49545 
L 358.803725 -104.52331 
L 356.622803 -107.404954 
L 354.44188 -110.008799 
L 352.260957 -120.379384 
L 350.080034 -128.798999 
L 347.899111 -134.576687 
L 345.718188 -133.756682 
L 343.537265 -135.728795 
L 341.356343 -132.228845 
L 339.17542 -121.862901 
L 336.994497 -119.74437 
L 334.813574 -122.446999 
L 332.632651 -122.235254 
L 330.451728 -121.271756 
L 328.270805 -125.005648 
L 326.089882 -125.248882 
L 323.90896 -128.421432 
L 321.728037 -122.35692 
L 319.547114 -115.397352 
L 317.366191 -114.72243 
L 315.185268 -122.707086 
L 313.004345 -127.146339 
L 310.823422 -125.434867 
L 308.6425 -122.374836 
L 306.461577 -126.272623 
L 304.280654 -121.47289 
L 302.099731 -115.984394 
L 299.918808 -119.994082 
L 297.737885 -129.144019 
L 295.556962 -136.552986 
L 293.37604 -140.224631 
L 291.195117 -138.838647 
L 289.014194 -140.289503 
L 286.833271 -138.845778 
L 284.652348 -130.021852 
L 282.471425 -120.946155 
z
" style="stroke: #ff7f0e; stroke-opacity: 0.15"/>
    </defs>
    <g clip-path="url(#p5fe122fae7)">
     <use xlink:href="#mb06442cac8" x="0" y="215.397188" style="fill: #ff7f0e; fill-opacity: 0.15; stroke: #ff7f0e; stroke-opacity: 0.15"/>
    </g>
   </g>
   <g id="line2d_16">
    <path d="M 272.875365 108.709112 
L 483.988698 108.709112 
" clip-path="url(#p5fe122fae7)" style="fill: none; stroke-dasharray: 2.96,1.28; stroke-dashoffset: 0; stroke: #000000; stroke-width: 0.8"/>
   </g>
   <g id="matplotlib.axis_3">
    <g id="xtick_6">
     <g id="line2d_17">
      <g>
       <use xlink:href="#mea9960b558" x="278.109579" y="182.68" style="stroke: #000000; stroke-width: 0.8"/>
      </g>
     </g>
     <g id="text_16">
      <!-- 0 -->
      <g transform="translate(275.882704 194.998906) scale(0.07 -0.07)">
       <use xlink:href="#DejaVuSans-30"/>
      </g>
     </g>
    </g>
    <g id="xtick_7">
     <g id="line2d_18">
      <g>
       <use xlink:href="#mea9960b558" x="321.728037" y="182.68" style="stroke: #000000; stroke-width: 0.8"/>
      </g>
     </g>
     <g id="text_17">
      <!-- 10 -->
      <g transform="translate(317.274287 194.998906) scale(0.07 -0.07)">
       <use xlink:href="#DejaVuSans-31"/>
       <use xlink:href="#DejaVuSans-30" transform="translate(63.623047 0)"/>
      </g>
     </g>
    </g>
    <g id="xtick_8">
     <g id="line2d_19">
      <g>
       <use xlink:href="#mea9960b558" x="365.346494" y="182.68" style="stroke: #000000; stroke-width: 0.8"/>
      </g>
     </g>
     <g id="text_18">
      <!-- 20 -->
      <g transform="translate(360.892744 194.998906) scale(0.07 -0.07)">
       <use xlink:href="#DejaVuSans-32"/>
       <use xlink:href="#DejaVuSans-30" transform="translate(63.623047 0)"/>
      </g>
     </g>
    </g>
    <g id="xtick_9">
     <g id="line2d_20">
      <g>
       <use xlink:href="#mea9960b558" x="408.964951" y="182.68" style="stroke: #000000; stroke-width: 0.8"/>
      </g>
     </g>
     <g id="text_19">
      <!-- 30 -->
      <g transform="translate(404.511201 194.998906) scale(0.07 -0.07)">
       <use xlink:href="#DejaVuSans-33"/>
       <use xlink:href="#DejaVuSans-30" transform="translate(63.623047 0)"/>
      </g>
     </g>
    </g>
    <g id="xtick_10">
     <g id="line2d_21">
      <g>
       <use xlink:href="#mea9960b558" x="452.583409" y="182.68" style="stroke: #000000; stroke-width: 0.8"/>
      </g>
     </g>
     <g id="text_20">
      <!-- 40 -->
      <g transform="translate(448.129659 194.998906) scale(0.07 -0.07)">
       <use xlink:href="#DejaVuSans-34"/>
       <use xlink:href="#DejaVuSans-30" transform="translate(63.623047 0)"/>
      </g>
     </g>
    </g>
    <g id="text_21">
     <!-- Frequency (Hz) -->
     <g transform="translate(348.268281 206.533437) scale(0.08 -0.08)">
      <use xlink:href="#DejaVuSans-46"/>
      <use xlink:href="#DejaVuSans-72" transform="translate(50.269531 0)"/>
      <use xlink:href="#DejaVuSans-65" transform="translate(89.132812 0)"/>
      <use xlink:href="#DejaVuSans-71" transform="translate(150.65625 0)"/>
      <use xlink:href="#DejaVuSans-75" transform="translate(214.132812 0)"/>
      <use xlink:href="#DejaVuSans-65" transform="translate(277.511719 0)"/>
      <use xlink:href="#DejaVuSans-6e" transform="translate(339.035156 0)"/>
      <use xlink:href="#DejaVuSans-63" transform="translate(402.414062 0)"/>
      <use xlink:href="#DejaVuSans-79" transform="translate(457.394531 0)"/>
      <use xlink:href="#DejaVuSans-20" transform="translate(516.574219 0)"/>
      <use xlink:href="#DejaVuSans-28" transform="translate(548.361328 0)"/>
      <use xlink:href="#DejaVuSans-48" transform="translate(587.375 0)"/>
      <use xlink:href="#DejaVuSans-7a" transform="translate(662.570312 0)"/>
      <use xlink:href="#DejaVuSans-29" transform="translate(715.060547 0)"/>
     </g>
    </g>
   </g>
   <g id="matplotlib.axis_4">
    <g id="ytick_8">
     <g id="line2d_22">
      <g>
       <use xlink:href="#m618e93398e" x="272.875365" y="178.215133" style="stroke: #000000; stroke-width: 0.8"/>
      </g>
     </g>
    </g>
    <g id="ytick_9">
     <g id="line2d_23">
      <g>
       <use xlink:href="#m618e93398e" x="272.875365" y="160.838628" style="stroke: #000000; stroke-width: 0.8"/>
      </g>
     </g>
    </g>
    <g id="ytick_10">
     <g id="line2d_24">
      <g>
       <use xlink:href="#m618e93398e" x="272.875365" y="143.462122" style="stroke: #000000; stroke-width: 0.8"/>
      </g>
     </g>
    </g>
    <g id="ytick_11">
     <g id="line2d_25">
      <g>
       <use xlink:href="#m618e93398e" x="272.875365" y="126.085617" style="stroke: #000000; stroke-width: 0.8"/>
      </g>
     </g>
    </g>
    <g id="ytick_12">
     <g id="line2d_26">
      <g>
       <use xlink:href="#m618e93398e" x="272.875365" y="108.709112" style="stroke: #000000; stroke-width: 0.8"/>
      </g>
     </g>
    </g>
    <g id="ytick_13">
     <g id="line2d_27">
      <g>
       <use xlink:href="#m618e93398e" x="272.875365" y="91.332607" style="stroke: #000000; stroke-width: 0.8"/>
      </g>
     </g>
    </g>
    <g id="ytick_14">
     <g id="line2d_28">
      <g>
       <use xlink:href="#m618e93398e" x="272.875365" y="73.956102" style="stroke: #000000; stroke-width: 0.8"/>
      </g>
     </g>
    </g>
    <g id="text_22">
     <!-- ERD/ERS (dB) -->
     <g transform="translate(263.711615 148.236875) rotate(-90) scale(0.08 -0.08)">
      <use xlink:href="#DejaVuSans-45"/>
      <use xlink:href="#DejaVuSans-52" transform="translate(63.183594 0)"/>
      <use xlink:href="#DejaVuSans-44" transform="translate(132.666016 0)"/>
      <use xlink:href="#DejaVuSans-2f" transform="translate(209.667969 0)"/>
      <use xlink:href="#DejaVuSans-45" transform="translate(243.359375 0)"/>
      <use xlink:href="#DejaVuSans-52" transform="translate(306.542969 0)"/>
      <use xlink:href="#DejaVuSans-53" transform="translate(376.025391 0)"/>
      <use xlink:href="#DejaVuSans-20" transform="translate(439.501953 0)"/>
      <use xlink:href="#DejaVuSans-28" transform="translate(471.289062 0)"/>
      <use xlink:href="#DejaVuSans-64" transform="translate(510.302734 0)"/>
      <use xlink:href="#DejaVuSans-42" transform="translate(573.779297 0)"/>
      <use xlink:href="#DejaVuSans-29" transform="translate(642.382812 0)"/>
     </g>
    </g>
   </g>
   <g id="line2d_29">
    <path d="M 282.471425 101.383848 
L 284.652348 101.580991 
L 286.833271 101.866911 
L 289.014194 106.488707 
L 291.195117 112.896685 
L 293.37604 117.58701 
L 295.556962 118.288508 
L 297.737885 114.42418 
L 299.918808 107.574728 
L 302.099731 105.822463 
L 304.280654 111.616731 
L 306.461577 114.756611 
L 308.6425 117.453307 
L 310.823422 121.701736 
L 313.004345 127.988512 
L 315.185268 131.245364 
L 317.366191 129.541746 
L 319.547114 122.519958 
L 321.728037 113.685842 
L 323.90896 110.511896 
L 326.089882 110.560302 
L 328.270805 115.968279 
L 330.451728 120.96358 
L 332.632651 121.872167 
L 334.813574 121.129165 
L 336.994497 119.195811 
L 339.17542 113.904175 
L 341.356343 108.964069 
L 343.537265 104.516629 
L 345.718188 103.347099 
L 347.899111 108.803318 
L 350.080034 116.487977 
L 352.260957 121.393671 
L 354.44188 119.857249 
L 356.622803 119.314774 
L 358.803725 118.291835 
L 360.984648 114.968226 
L 363.165571 113.114106 
L 365.346494 115.14593 
L 367.527417 118.335651 
L 369.70834 118.666734 
L 371.889263 114.072202 
L 374.070186 110.605371 
L 376.251108 110.736496 
L 378.432031 112.749322 
L 380.612954 118.226305 
L 382.793877 121.957108 
L 384.9748 121.685751 
L 387.155723 121.256162 
L 389.336646 119.522247 
L 391.517568 116.272526 
L 393.698491 111.165597 
L 395.879414 108.061627 
L 398.060337 108.277966 
L 400.24126 109.822123 
L 402.422183 113.499122 
L 404.603106 110.153451 
L 406.784028 105.978439 
L 408.964951 104.184328 
L 411.145874 106.731858 
L 413.326797 110.183046 
L 415.50772 110.990165 
L 417.688643 107.796475 
L 419.869566 105.9129 
L 422.050489 105.303781 
L 424.231411 104.739229 
L 426.412334 105.074128 
L 428.593257 106.623374 
L 430.77418 105.980578 
L 432.955103 103.953432 
L 435.136026 100.361893 
L 437.316949 98.748321 
L 439.497871 100.477321 
L 441.678794 102.8265 
L 443.859717 103.984709 
L 446.04064 103.991949 
L 448.221563 102.54668 
L 450.402486 103.477129 
L 452.583409 104.579389 
L 454.764332 102.165613 
L 456.945254 99.801901 
L 459.126177 99.746449 
L 461.3071 101.952621 
L 463.488023 101.374507 
L 465.668946 100.089187 
L 467.849869 100.085271 
L 470.030792 102.054463 
L 472.211714 103.884637 
L 474.392637 102.048634 
" clip-path="url(#p5fe122fae7)" style="fill: none; stroke: #1f77b4; stroke-width: 1.3; stroke-linecap: square"/>
   </g>
   <g id="line2d_30">
    <path d="M 282.471425 110.261032 
L 284.652348 100.15507 
L 286.833271 90.955191 
L 289.014194 90.214433 
L 291.195117 92.037247 
L 293.37604 92.703235 
L 295.556962 96.374571 
L 297.737885 103.06576 
L 299.918808 111.569135 
L 302.099731 114.640694 
L 304.280654 110.024009 
L 306.461577 105.830706 
L 308.6425 108.783098 
L 310.823422 107.032768 
L 313.004345 106.95107 
L 315.185268 113.313003 
L 317.366191 120.657111 
L 319.547114 119.120055 
L 321.728037 112.001893 
L 323.90896 107.139967 
L 326.089882 109.140237 
L 328.270805 108.862189 
L 330.451728 111.18133 
L 332.632651 111.433901 
L 334.813574 110.86161 
L 336.994497 112.858834 
L 339.17542 109.849915 
L 341.356343 99.590176 
L 343.537265 94.817756 
L 345.718188 95.94154 
L 347.899111 97.579351 
L 350.080034 103.883206 
L 352.260957 113.793103 
L 354.44188 123.287078 
L 356.622803 127.979938 
L 358.803725 134.541031 
L 360.984648 140.998432 
L 363.165571 134.754201 
L 365.346494 122.176682 
L 367.527417 113.159817 
L 369.70834 111.797024 
L 371.889263 108.842096 
L 374.070186 102.12012 
L 376.251108 102.655014 
L 378.432031 104.501807 
L 380.612954 102.966527 
L 382.793877 98.237141 
L 384.9748 92.338226 
L 387.155723 96.294242 
L 389.336646 104.1647 
L 391.517568 106.109553 
L 393.698491 102.183453 
L 395.879414 91.008491 
L 398.060337 82.988821 
L 400.24126 82.689 
L 402.422183 85.69076 
L 404.603106 93.583386 
L 406.784028 103.263933 
L 408.964951 109.86022 
L 411.145874 116.370549 
L 413.326797 119.724109 
L 415.50772 119.933901 
L 417.688643 119.112297 
L 419.869566 117.485163 
L 422.050489 113.804067 
L 424.231411 110.430976 
L 426.412334 111.61725 
L 428.593257 117.953372 
L 430.77418 125.731474 
L 432.955103 117.319814 
L 435.136026 104.60635 
L 437.316949 98.178986 
L 439.497871 90.720816 
L 441.678794 94.665021 
L 443.859717 99.333294 
L 446.04064 102.523708 
L 448.221563 102.964415 
L 450.402486 101.724598 
L 452.583409 99.897917 
L 454.764332 100.743056 
L 456.945254 105.790111 
L 459.126177 114.11768 
L 461.3071 114.462956 
L 463.488023 115.878524 
L 465.668946 111.940159 
L 467.849869 101.120777 
L 470.030792 98.555846 
L 472.211714 100.577469 
L 474.392637 103.191962 
" clip-path="url(#p5fe122fae7)" style="fill: none; stroke: #ff7f0e; stroke-width: 1.3; stroke-linecap: square"/>
   </g>
   <g id="patch_12">
    <path d="M 272.875365 182.68 
L 272.875365 59.28 
" style="fill: none; stroke: #000000; stroke-width: 0.8; stroke-linejoin: miter; stroke-linecap: square"/>
   </g>
   <g id="patch_13">
    <path d="M 483.988698 182.68 
L 483.988698 59.28 
" style="fill: none; stroke: #000000; stroke-width: 0.8; stroke-linejoin: miter; stroke-linecap: square"/>
   </g>
   <g id="patch_14">
    <path d="M 272.875365 182.68 
L 483.988698 182.68 
" style="fill: none; stroke: #000000; stroke-width: 0.8; stroke-linejoin: miter; stroke-linecap: square"/>
   </g>
   <g id="patch_15">
    <path d="M 272.875365 59.28 
L 483.988698 59.28 
" style="fill: none; stroke: #000000; stroke-width: 0.8; stroke-linejoin: miter; stroke-linecap: square"/>
   </g>
   <g id="text_23">
    <!-- Cz -->
    <g transform="translate(372.927969 53.28) scale(0.09 -0.09)">
     <use xlink:href="#DejaVuSans-43"/>
     <use xlink:href="#DejaVuSans-7a" transform="translate(69.824219 0)"/>
    </g>
   </g>
  </g>
  <g id="axes_3">
   <g id="patch_16">
    <path d="M 509.488698 182.68 
L 720.602031 182.68 
L 720.602031 59.28 
L 509.488698 59.28 
L 509.488698 182.68 
z
" style="fill: none"/>
   </g>
   <g id="patch_17">
    <path d="M 549.617679 182.68 
L 571.426907 182.68 
L 571.426907 59.28 
L 549.617679 59.28 
z
" clip-path="url(#p5f86511feb)" style="fill: #d9d9d9; stroke: #d9d9d9; stroke-linejoin: miter"/>
   </g>
   <g id="patch_18">
    <path d="M 571.426907 182.68 
L 645.578285 182.68 
L 645.578285 59.28 
L 571.426907 59.28 
z
" clip-path="url(#p5f86511feb)" style="fill: #ebebeb; stroke: #ebebeb; stroke-linejoin: miter"/>
   </g>
   <g id="FillBetweenPolyCollection_5">
    <defs>
     <path id="m93b76a061b" d="M 519.084759 -114.924552 
L 519.084759 -96.598302 
L 521.265681 -97.266322 
L 523.446604 -97.962994 
L 525.627527 -96.702749 
L 527.80845 -95.613807 
L 529.989373 -97.518738 
L 532.170296 -99.306813 
L 534.351219 -99.719851 
L 536.532141 -99.711522 
L 538.713064 -97.019508 
L 540.893987 -95.312913 
L 543.07491 -96.089816 
L 545.255833 -95.604281 
L 547.436756 -94.103877 
L 549.617679 -93.054887 
L 551.798601 -87.974606 
L 553.979524 -78.868909 
L 556.160447 -75.317349 
L 558.34137 -77.817426 
L 560.522293 -83.353592 
L 562.703216 -88.560931 
L 564.884139 -91.054522 
L 567.065062 -85.313082 
L 569.245984 -75.876721 
L 571.426907 -70.67459 
L 573.60783 -69.566298 
L 575.788753 -73.899993 
L 577.969676 -84.1643 
L 580.150599 -92.390133 
L 582.331522 -98.884765 
L 584.512444 -103.311124 
L 586.693367 -101.244205 
L 588.87429 -93.512307 
L 591.055213 -86.283329 
L 593.236136 -82.614311 
L 595.417059 -80.353018 
L 597.597982 -81.026292 
L 599.778905 -82.465421 
L 601.959827 -83.940798 
L 604.14075 -86.226899 
L 606.321673 -87.42339 
L 608.502596 -90.297112 
L 610.683519 -94.209246 
L 612.864442 -97.319777 
L 615.045365 -100.272556 
L 617.226287 -100.055556 
L 619.40721 -93.94052 
L 621.588133 -88.745699 
L 623.769056 -86.30384 
L 625.949979 -87.826952 
L 628.130902 -89.558187 
L 630.311825 -90.184164 
L 632.492748 -91.006098 
L 634.67367 -92.679204 
L 636.854593 -97.481149 
L 639.035516 -100.806409 
L 641.216439 -104.137901 
L 643.397362 -105.701372 
L 645.578285 -105.349647 
L 647.759208 -104.06182 
L 649.94013 -99.910829 
L 652.121053 -96.672306 
L 654.301976 -98.702176 
L 656.482899 -97.942322 
L 658.663822 -95.538111 
L 660.844745 -96.86588 
L 663.025668 -101.416406 
L 665.20659 -104.832197 
L 667.387513 -104.103157 
L 669.568436 -99.998616 
L 671.749359 -97.723797 
L 673.930282 -99.068364 
L 676.111205 -101.162636 
L 678.292128 -102.498957 
L 680.473051 -105.174878 
L 682.653973 -108.018678 
L 684.834896 -108.561458 
L 687.015819 -107.346936 
L 689.196742 -105.96541 
L 691.377665 -102.73371 
L 693.558588 -102.485302 
L 695.739511 -100.639631 
L 697.920433 -98.207158 
L 700.101356 -100.176391 
L 702.282279 -103.639617 
L 704.463202 -103.28106 
L 706.644125 -101.491438 
L 708.825048 -102.430522 
L 711.005971 -104.605942 
L 711.005971 -120.292177 
L 711.005971 -120.292177 
L 708.825048 -117.642466 
L 706.644125 -116.624653 
L 704.463202 -119.432588 
L 702.282279 -120.412545 
L 700.101356 -116.275237 
L 697.920433 -113.951983 
L 695.739511 -116.344463 
L 693.558588 -118.197007 
L 691.377665 -118.035055 
L 689.196742 -121.451853 
L 687.015819 -123.486599 
L 684.834896 -125.41128 
L 682.653973 -123.511003 
L 680.473051 -119.853689 
L 678.292128 -117.629224 
L 676.111205 -118.203853 
L 673.930282 -115.535597 
L 671.749359 -113.537782 
L 669.568436 -115.966974 
L 667.387513 -120.065793 
L 665.20659 -121.440966 
L 663.025668 -117.699527 
L 660.844745 -112.501794 
L 658.663822 -110.781259 
L 656.482899 -113.843806 
L 654.301976 -115.186046 
L 652.121053 -112.867412 
L 649.94013 -116.165765 
L 647.759208 -120.075673 
L 645.578285 -121.37783 
L 643.397362 -122.442147 
L 641.216439 -120.124599 
L 639.035516 -115.457047 
L 636.854593 -111.912832 
L 634.67367 -109.05537 
L 632.492748 -107.175736 
L 630.311825 -105.757852 
L 628.130902 -106.548547 
L 625.949979 -105.950467 
L 623.769056 -104.886531 
L 621.588133 -106.836266 
L 619.40721 -111.39653 
L 617.226287 -117.653086 
L 615.045365 -117.40405 
L 612.864442 -113.948381 
L 610.683519 -110.820361 
L 608.502596 -106.917172 
L 606.321673 -103.7727 
L 604.14075 -103.290724 
L 601.959827 -101.819564 
L 599.778905 -100.822482 
L 597.597982 -98.84881 
L 595.417059 -98.127545 
L 593.236136 -101.176827 
L 591.055213 -105.383804 
L 588.87429 -112.513963 
L 586.693367 -119.742141 
L 584.512444 -120.471088 
L 582.331522 -115.815062 
L 580.150599 -108.89865 
L 577.969676 -101.021094 
L 575.788753 -89.908737 
L 573.60783 -87.58452 
L 571.426907 -90.873866 
L 569.245984 -96.776849 
L 567.065062 -106.013403 
L 564.884139 -110.16294 
L 562.703216 -106.699851 
L 560.522293 -101.452055 
L 558.34137 -97.182898 
L 556.160447 -94.990422 
L 553.979524 -98.429389 
L 551.798601 -106.788083 
L 549.617679 -110.373901 
L 547.436756 -111.256946 
L 545.255833 -112.243717 
L 543.07491 -112.617723 
L 540.893987 -112.190946 
L 538.713064 -112.929796 
L 536.532141 -115.341163 
L 534.351219 -115.143518 
L 532.170296 -115.377182 
L 529.989373 -114.844739 
L 527.80845 -112.769184 
L 525.627527 -112.928568 
L 523.446604 -113.252741 
L 521.265681 -113.915251 
L 519.084759 -114.924552 
z
" style="stroke: #1f77b4; stroke-opacity: 0.15"/>
    </defs>
    <g clip-path="url(#p5f86511feb)">
     <use xlink:href="#m93b76a061b" x="0" y="215.397188" style="fill: #1f77b4; fill-opacity: 0.15; stroke: #1f77b4; stroke-opacity: 0.15"/>
    </g>
   </g>
   <g id="FillBetweenPolyCollection_6">
    <defs>
     <path id="m99570d757f" d="M 519.084759 -130.639536 
L 519.084759 -97.241102 
L 521.265681 -96.741391 
L 523.446604 -90.3167 
L 525.627527 -83.75314 
L 527.80845 -88.320517 
L 529.989373 -93.796025 
L 532.170296 -97.885623 
L 534.351219 -101.427167 
L 536.532141 -98.54777 
L 538.713064 -92.472851 
L 540.893987 -89.967639 
L 543.07491 -93.338254 
L 545.255833 -98.49779 
L 547.436756 -104.721793 
L 549.617679 -99.097242 
L 551.798601 -80.846751 
L 553.979524 -72.447369 
L 556.160447 -81.721762 
L 558.34137 -91.739654 
L 560.522293 -95.367426 
L 562.703216 -96.094877 
L 564.884139 -90.685022 
L 567.065062 -81.194474 
L 569.245984 -79.289705 
L 571.426907 -85.137395 
L 573.60783 -93.697795 
L 575.788753 -100.410292 
L 577.969676 -101.706281 
L 580.150599 -100.796658 
L 582.331522 -103.390078 
L 584.512444 -101.414997 
L 586.693367 -96.801518 
L 588.87429 -92.753286 
L 591.055213 -91.132382 
L 593.236136 -92.568031 
L 595.417059 -88.716597 
L 597.597982 -85.813832 
L 599.778905 -85.564056 
L 601.959827 -83.997481 
L 604.14075 -87.911004 
L 606.321673 -90.508784 
L 608.502596 -87.760873 
L 610.683519 -82.040221 
L 612.864442 -77.265501 
L 615.045365 -77.397787 
L 617.226287 -84.336163 
L 619.40721 -89.577416 
L 621.588133 -88.287927 
L 623.769056 -83.307648 
L 625.949979 -79.992634 
L 628.130902 -82.975442 
L 630.311825 -88.965898 
L 632.492748 -94.215315 
L 634.67367 -94.394126 
L 636.854593 -90.832507 
L 639.035516 -89.513895 
L 641.216439 -91.157364 
L 643.397362 -92.273277 
L 645.578285 -90.71331 
L 647.759208 -92.617132 
L 649.94013 -95.025306 
L 652.121053 -103.503139 
L 654.301976 -108.354814 
L 656.482899 -104.798325 
L 658.663822 -96.155101 
L 660.844745 -90.189054 
L 663.025668 -92.757777 
L 665.20659 -89.549001 
L 667.387513 -83.078546 
L 669.568436 -79.020732 
L 671.749359 -80.619711 
L 673.930282 -87.237879 
L 676.111205 -92.639547 
L 678.292128 -98.506943 
L 680.473051 -102.08582 
L 682.653973 -103.115428 
L 684.834896 -101.109654 
L 687.015819 -96.677633 
L 689.196742 -91.954106 
L 691.377665 -93.913573 
L 693.558588 -97.621221 
L 695.739511 -94.774798 
L 697.920433 -89.262447 
L 700.101356 -93.325854 
L 702.282279 -95.553857 
L 704.463202 -95.815093 
L 706.644125 -98.066703 
L 708.825048 -99.455583 
L 711.005971 -98.603614 
L 711.005971 -131.620489 
L 711.005971 -131.620489 
L 708.825048 -132.876704 
L 706.644125 -131.97312 
L 704.463202 -128.068516 
L 702.282279 -126.952704 
L 700.101356 -128.43288 
L 697.920433 -121.777373 
L 695.739511 -120.307426 
L 693.558588 -125.534296 
L 691.377665 -124.270366 
L 689.196742 -122.054455 
L 687.015819 -127.846956 
L 684.834896 -132.88985 
L 682.653973 -130.762791 
L 680.473051 -127.820704 
L 678.292128 -125.158185 
L 676.111205 -122.558988 
L 673.930282 -118.039066 
L 671.749359 -112.011719 
L 669.568436 -112.478194 
L 667.387513 -118.459363 
L 665.20659 -124.888868 
L 663.025668 -124.317021 
L 660.844745 -120.704455 
L 658.663822 -126.491056 
L 656.482899 -136.509474 
L 654.301976 -138.602845 
L 652.121053 -137.737216 
L 649.94013 -125.861195 
L 647.759208 -120.584942 
L 645.578285 -121.822689 
L 643.397362 -128.191733 
L 641.216439 -121.522079 
L 639.035516 -120.921422 
L 636.854593 -125.274696 
L 634.67367 -122.714357 
L 632.492748 -121.539207 
L 630.311825 -119.29761 
L 628.130902 -114.129606 
L 625.949979 -114.875771 
L 623.769056 -118.271584 
L 621.588133 -123.901808 
L 619.40721 -126.848198 
L 617.226287 -122.447895 
L 615.045365 -109.929333 
L 612.864442 -103.103565 
L 610.683519 -106.079576 
L 608.502596 -115.916153 
L 606.321673 -119.4169 
L 604.14075 -120.796414 
L 601.959827 -120.180848 
L 599.778905 -127.495994 
L 597.597982 -126.663719 
L 595.417059 -133.930107 
L 593.236136 -136.081715 
L 591.055213 -129.230524 
L 588.87429 -125.193276 
L 586.693367 -131.852585 
L 584.512444 -135.018445 
L 582.331522 -137.57219 
L 580.150599 -134.671173 
L 577.969676 -134.116042 
L 575.788753 -134.443743 
L 573.60783 -130.712494 
L 571.426907 -124.987046 
L 569.245984 -119.794625 
L 567.065062 -120.306145 
L 564.884139 -127.317887 
L 562.703216 -131.444401 
L 560.522293 -129.495044 
L 558.34137 -125.629193 
L 556.160447 -120.561753 
L 553.979524 -113.338875 
L 551.798601 -117.647893 
L 549.617679 -133.258096 
L 547.436756 -132.629868 
L 545.255833 -127.895644 
L 543.07491 -125.455444 
L 540.893987 -123.375767 
L 538.713064 -126.149058 
L 536.532141 -130.844231 
L 534.351219 -136.910957 
L 532.170296 -134.957113 
L 529.989373 -130.000781 
L 527.80845 -124.337871 
L 525.627527 -119.758146 
L 523.446604 -124.70652 
L 521.265681 -129.480752 
L 519.084759 -130.639536 
z
" style="stroke: #ff7f0e; stroke-opacity: 0.15"/>
    </defs>
    <g clip-path="url(#p5f86511feb)">
     <use xlink:href="#m99570d757f" x="0" y="215.397188" style="fill: #ff7f0e; fill-opacity: 0.15; stroke: #ff7f0e; stroke-opacity: 0.15"/>
    </g>
   </g>
   <g id="line2d_31">
    <path d="M 509.488698 108.709112 
L 720.602031 108.709112 
" clip-path="url(#p5f86511feb)" style="fill: none; stroke-dasharray: 2.96,1.28; stroke-dashoffset: 0; stroke: #000000; stroke-width: 0.8"/>
   </g>
   <g id="matplotlib.axis_5">
    <g id="xtick_11">
     <g id="line2d_32">
      <g>
       <use xlink:href="#mea9960b558" x="514.722913" y="182.68" style="stroke: #000000; stroke-width: 0.8"/>
      </g>
     </g>
     <g id="text_24">
      <!-- 0 -->
      <g transform="translate(512.496038 194.998906) scale(0.07 -0.07)">
       <use xlink:href="#DejaVuSans-30"/>
      </g>
     </g>
    </g>
    <g id="xtick_12">
     <g id="line2d_33">
      <g>
       <use xlink:href="#mea9960b558" x="558.34137" y="182.68" style="stroke: #000000; stroke-width: 0.8"/>
      </g>
     </g>
     <g id="text_25">
      <!-- 10 -->
      <g transform="translate(553.88762 194.998906) scale(0.07 -0.07)">
       <use xlink:href="#DejaVuSans-31"/>
       <use xlink:href="#DejaVuSans-30" transform="translate(63.623047 0)"/>
      </g>
     </g>
    </g>
    <g id="xtick_13">
     <g id="line2d_34">
      <g>
       <use xlink:href="#mea9960b558" x="601.959827" y="182.68" style="stroke: #000000; stroke-width: 0.8"/>
      </g>
     </g>
     <g id="text_26">
      <!-- 20 -->
      <g transform="translate(597.506077 194.998906) scale(0.07 -0.07)">
       <use xlink:href="#DejaVuSans-32"/>
       <use xlink:href="#DejaVuSans-30" transform="translate(63.623047 0)"/>
      </g>
     </g>
    </g>
    <g id="xtick_14">
     <g id="line2d_35">
      <g>
       <use xlink:href="#mea9960b558" x="645.578285" y="182.68" style="stroke: #000000; stroke-width: 0.8"/>
      </g>
     </g>
     <g id="text_27">
      <!-- 30 -->
      <g transform="translate(641.124535 194.998906) scale(0.07 -0.07)">
       <use xlink:href="#DejaVuSans-33"/>
       <use xlink:href="#DejaVuSans-30" transform="translate(63.623047 0)"/>
      </g>
     </g>
    </g>
    <g id="xtick_15">
     <g id="line2d_36">
      <g>
       <use xlink:href="#mea9960b558" x="689.196742" y="182.68" style="stroke: #000000; stroke-width: 0.8"/>
      </g>
     </g>
     <g id="text_28">
      <!-- 40 -->
      <g transform="translate(684.742992 194.998906) scale(0.07 -0.07)">
       <use xlink:href="#DejaVuSans-34"/>
       <use xlink:href="#DejaVuSans-30" transform="translate(63.623047 0)"/>
      </g>
     </g>
    </g>
    <g id="text_29">
     <!-- Frequency (Hz) -->
     <g transform="translate(584.881615 206.533437) scale(0.08 -0.08)">
      <use xlink:href="#DejaVuSans-46"/>
      <use xlink:href="#DejaVuSans-72" transform="translate(50.269531 0)"/>
      <use xlink:href="#DejaVuSans-65" transform="translate(89.132812 0)"/>
      <use xlink:href="#DejaVuSans-71" transform="translate(150.65625 0)"/>
      <use xlink:href="#DejaVuSans-75" transform="translate(214.132812 0)"/>
      <use xlink:href="#DejaVuSans-65" transform="translate(277.511719 0)"/>
      <use xlink:href="#DejaVuSans-6e" transform="translate(339.035156 0)"/>
      <use xlink:href="#DejaVuSans-63" transform="translate(402.414062 0)"/>
      <use xlink:href="#DejaVuSans-79" transform="translate(457.394531 0)"/>
      <use xlink:href="#DejaVuSans-20" transform="translate(516.574219 0)"/>
      <use xlink:href="#DejaVuSans-28" transform="translate(548.361328 0)"/>
      <use xlink:href="#DejaVuSans-48" transform="translate(587.375 0)"/>
      <use xlink:href="#DejaVuSans-7a" transform="translate(662.570312 0)"/>
      <use xlink:href="#DejaVuSans-29" transform="translate(715.060547 0)"/>
     </g>
    </g>
   </g>
   <g id="matplotlib.axis_6">
    <g id="ytick_15">
     <g id="line2d_37">
      <g>
       <use xlink:href="#m618e93398e" x="509.488698" y="178.215133" style="stroke: #000000; stroke-width: 0.8"/>
      </g>
     </g>
    </g>
    <g id="ytick_16">
     <g id="line2d_38">
      <g>
       <use xlink:href="#m618e93398e" x="509.488698" y="160.838628" style="stroke: #000000; stroke-width: 0.8"/>
      </g>
     </g>
    </g>
    <g id="ytick_17">
     <g id="line2d_39">
      <g>
       <use xlink:href="#m618e93398e" x="509.488698" y="143.462122" style="stroke: #000000; stroke-width: 0.8"/>
      </g>
     </g>
    </g>
    <g id="ytick_18">
     <g id="line2d_40">
      <g>
       <use xlink:href="#m618e93398e" x="509.488698" y="126.085617" style="stroke: #000000; stroke-width: 0.8"/>
      </g>
     </g>
    </g>
    <g id="ytick_19">
     <g id="line2d_41">
      <g>
       <use xlink:href="#m618e93398e" x="509.488698" y="108.709112" style="stroke: #000000; stroke-width: 0.8"/>
      </g>
     </g>
    </g>
    <g id="ytick_20">
     <g id="line2d_42">
      <g>
       <use xlink:href="#m618e93398e" x="509.488698" y="91.332607" style="stroke: #000000; stroke-width: 0.8"/>
      </g>
     </g>
    </g>
    <g id="ytick_21">
     <g id="line2d_43">
      <g>
       <use xlink:href="#m618e93398e" x="509.488698" y="73.956102" style="stroke: #000000; stroke-width: 0.8"/>
      </g>
     </g>
    </g>
    <g id="text_30">
     <!-- ERD/ERS (dB) -->
     <g transform="translate(500.324948 148.236875) rotate(-90) scale(0.08 -0.08)">
      <use xlink:href="#DejaVuSans-45"/>
      <use xlink:href="#DejaVuSans-52" transform="translate(63.183594 0)"/>
      <use xlink:href="#DejaVuSans-44" transform="translate(132.666016 0)"/>
      <use xlink:href="#DejaVuSans-2f" transform="translate(209.667969 0)"/>
      <use xlink:href="#DejaVuSans-45" transform="translate(243.359375 0)"/>
      <use xlink:href="#DejaVuSans-52" transform="translate(306.542969 0)"/>
      <use xlink:href="#DejaVuSans-53" transform="translate(376.025391 0)"/>
      <use xlink:href="#DejaVuSans-20" transform="translate(439.501953 0)"/>
      <use xlink:href="#DejaVuSans-28" transform="translate(471.289062 0)"/>
      <use xlink:href="#DejaVuSans-64" transform="translate(510.302734 0)"/>
      <use xlink:href="#DejaVuSans-42" transform="translate(573.779297 0)"/>
      <use xlink:href="#DejaVuSans-29" transform="translate(642.382812 0)"/>
     </g>
    </g>
   </g>
   <g id="line2d_44">
    <path d="M 519.084759 109.635761 
L 521.265681 109.806401 
L 523.446604 109.78932 
L 525.627527 110.581529 
L 527.80845 111.205692 
L 529.989373 109.215449 
L 532.170296 108.05519 
L 534.351219 107.965503 
L 536.532141 107.870845 
L 538.713064 110.422535 
L 540.893987 111.645258 
L 543.07491 111.043418 
L 545.255833 111.473189 
L 547.436756 112.716776 
L 549.617679 113.682793 
L 551.798601 118.015843 
L 553.979524 126.748038 
L 556.160447 130.243302 
L 558.34137 127.897026 
L 560.522293 122.994364 
L 562.703216 117.766797 
L 564.884139 114.788457 
L 567.065062 119.733945 
L 569.245984 129.070403 
L 571.426907 134.622959 
L 573.60783 136.821778 
L 575.788753 133.492823 
L 577.969676 122.80449 
L 580.150599 114.752796 
L 582.331522 108.047274 
L 584.512444 103.506082 
L 586.693367 104.904014 
L 588.87429 112.384053 
L 591.055213 119.563621 
L 593.236136 123.501619 
L 595.417059 126.156906 
L 597.597982 125.459637 
L 599.778905 123.753236 
L 601.959827 122.517006 
L 604.14075 120.638376 
L 606.321673 119.799143 
L 608.502596 116.790046 
L 610.683519 112.882384 
L 612.864442 109.763108 
L 615.045365 106.558884 
L 617.226287 106.542867 
L 619.40721 112.728662 
L 621.588133 117.606205 
L 623.769056 119.802002 
L 625.949979 118.508478 
L 628.130902 117.343821 
L 630.311825 117.426179 
L 632.492748 116.306271 
L 634.67367 114.5299 
L 636.854593 110.700197 
L 639.035516 107.265459 
L 641.216439 103.265938 
L 643.397362 101.325428 
L 645.578285 102.033449 
L 647.759208 103.328441 
L 649.94013 107.35889 
L 652.121053 110.627328 
L 654.301976 108.453076 
L 656.482899 109.504123 
L 658.663822 112.237502 
L 660.844745 110.713351 
L 663.025668 105.839221 
L 665.20659 102.260606 
L 667.387513 103.312712 
L 669.568436 107.414393 
L 671.749359 109.766398 
L 673.930282 108.095207 
L 676.111205 105.713943 
L 678.292128 105.333097 
L 680.473051 102.882904 
L 682.653973 99.632347 
L 684.834896 98.410819 
L 687.015819 99.98042 
L 689.196742 101.688556 
L 691.377665 105.012805 
L 693.558588 105.056033 
L 695.739511 106.90514 
L 697.920433 109.317617 
L 700.101356 107.171373 
L 702.282279 103.371106 
L 704.463202 104.040364 
L 706.644125 106.339142 
L 708.825048 105.360694 
L 711.005971 102.948128 
" clip-path="url(#p5f86511feb)" style="fill: none; stroke: #1f77b4; stroke-width: 1.3; stroke-linecap: square"/>
   </g>
   <g id="line2d_45">
    <path d="M 519.084759 101.456869 
L 521.265681 102.286116 
L 523.446604 107.885578 
L 525.627527 113.641545 
L 527.80845 109.067994 
L 529.989373 103.498784 
L 532.170296 98.97582 
L 534.351219 96.228125 
L 536.532141 100.701187 
L 538.713064 106.086233 
L 540.893987 108.725485 
L 543.07491 106.000338 
L 545.255833 102.200471 
L 547.436756 96.721357 
L 549.617679 99.219518 
L 551.798601 116.149866 
L 553.979524 122.504065 
L 556.160447 114.25543 
L 558.34137 106.712764 
L 560.522293 102.965952 
L 562.703216 101.627548 
L 564.884139 106.395733 
L 567.065062 114.646878 
L 569.245984 115.855022 
L 571.426907 110.334967 
L 573.60783 103.192043 
L 575.788753 97.97017 
L 577.969676 97.486026 
L 580.150599 97.663272 
L 582.331522 94.916054 
L 584.512444 97.180467 
L 586.693367 101.070136 
L 588.87429 106.423906 
L 591.055213 105.215734 
L 593.236136 101.072315 
L 595.417059 104.073835 
L 597.597982 109.158412 
L 599.778905 108.867163 
L 601.959827 113.308023 
L 604.14075 111.043479 
L 606.321673 110.434346 
L 608.502596 113.558675 
L 610.683519 121.337289 
L 612.864442 125.212655 
L 615.045365 121.733627 
L 617.226287 112.005159 
L 619.40721 107.18438 
L 621.588133 109.30232 
L 623.769056 114.607572 
L 625.949979 117.962985 
L 628.130902 116.844664 
L 630.311825 111.265434 
L 632.492748 107.519926 
L 634.67367 106.842946 
L 636.854593 107.343586 
L 639.035516 110.179529 
L 641.216439 109.057466 
L 643.397362 105.164682 
L 645.578285 109.129188 
L 647.759208 108.79615 
L 649.94013 104.953937 
L 652.121053 94.77701 
L 654.301976 91.918358 
L 656.482899 94.743288 
L 658.663822 104.074109 
L 660.844745 109.950433 
L 663.025668 106.859788 
L 665.20659 108.178253 
L 667.387513 114.628233 
L 669.568436 119.647724 
L 671.749359 119.081472 
L 673.930282 112.758715 
L 676.111205 107.79792 
L 678.292128 103.564623 
L 680.473051 100.443925 
L 682.653973 98.458078 
L 684.834896 98.397436 
L 687.015819 103.134893 
L 689.196742 108.392907 
L 691.377665 106.305218 
L 693.558588 103.819429 
L 695.739511 107.856076 
L 697.920433 109.877277 
L 700.101356 104.517821 
L 702.282279 104.143907 
L 704.463202 103.455383 
L 706.644125 100.377276 
L 708.825048 99.231044 
L 711.005971 100.285136 
" clip-path="url(#p5f86511feb)" style="fill: none; stroke: #ff7f0e; stroke-width: 1.3; stroke-linecap: square"/>
   </g>
   <g id="patch_19">
    <path d="M 509.488698 182.68 
L 509.488698 59.28 
" style="fill: none; stroke: #000000; stroke-width: 0.8; stroke-linejoin: miter; stroke-linecap: square"/>
   </g>
   <g id="patch_20">
    <path d="M 720.602031 182.68 
L 720.602031 59.28 
" style="fill: none; stroke: #000000; stroke-width: 0.8; stroke-linejoin: miter; stroke-linecap: square"/>
   </g>
   <g id="patch_21">
    <path d="M 509.488698 182.68 
L 720.602031 182.68 
" style="fill: none; stroke: #000000; stroke-width: 0.8; stroke-linejoin: miter; stroke-linecap: square"/>
   </g>
   <g id="patch_22">
    <path d="M 509.488698 59.28 
L 720.602031 59.28 
" style="fill: none; stroke: #000000; stroke-width: 0.8; stroke-linejoin: miter; stroke-linecap: square"/>
   </g>
   <g id="text_31">
    <!-- C4 -->
    <g transform="translate(609.039974 53.28) scale(0.09 -0.09)">
     <use xlink:href="#DejaVuSans-43"/>
     <use xlink:href="#DejaVuSans-34" transform="translate(69.824219 0)"/>
    </g>
   </g>
  </g>
  <g id="text_32">
   <!-- ERD/ERS — MI — S06 (Movement vs Rest) -->
   <g transform="translate(248.408984 15.558281) scale(0.11 -0.11)">
    <defs>
     <path id="DejaVuSans-2014" d="M 313 1978 
L 6088 1978 
L 6088 1528 
L 313 1528 
L 313 1978 
z
" transform="scale(0.015625)"/>
     <path id="DejaVuSans-4d" d="M 628 4666 
L 1569 4666 
L 2759 1491 
L 3956 4666 
L 4897 4666 
L 4897 0 
L 4281 0 
L 4281 4097 
L 3078 897 
L 2444 897 
L 1241 4097 
L 1241 0 
L 628 0 
L 628 4666 
z
" transform="scale(0.015625)"/>
     <path id="DejaVuSans-49" d="M 628 4666 
L 1259 4666 
L 1259 0 
L 628 0 
L 628 4666 
z
" transform="scale(0.015625)"/>
     <path id="DejaVuSans-36" d="M 2113 2584 
Q 1688 2584 1439 2293 
Q 1191 2003 1191 1497 
Q 1191 994 1439 701 
Q 1688 409 2113 409 
Q 2538 409 2786 701 
Q 3034 994 3034 1497 
Q 3034 2003 2786 2293 
Q 2538 2584 2113 2584 
z
M 3366 4563 
L 3366 3988 
Q 3128 4100 2886 4159 
Q 2644 4219 2406 4219 
Q 1781 4219 1451 3797 
Q 1122 3375 1075 2522 
Q 1259 2794 1537 2939 
Q 1816 3084 2150 3084 
Q 2853 3084 3261 2657 
Q 3669 2231 3669 1497 
Q 3669 778 3244 343 
Q 2819 -91 2113 -91 
Q 1303 -91 875 529 
Q 447 1150 447 2328 
Q 447 3434 972 4092 
Q 1497 4750 2381 4750 
Q 2619 4750 2861 4703 
Q 3103 4656 3366 4563 
z
" transform="scale(0.015625)"/>
     <path id="DejaVuSans-6f" d="M 1959 3097 
Q 1497 3097 1228 2736 
Q 959 2375 959 1747 
Q 959 1119 1226 758 
Q 1494 397 1959 397 
Q 2419 397 2687 759 
Q 2956 1122 2956 1747 
Q 2956 2369 2687 2733 
Q 2419 3097 1959 3097 
z
M 1959 3584 
Q 2709 3584 3137 3096 
Q 3566 2609 3566 1747 
Q 3566 888 3137 398 
Q 2709 -91 1959 -91 
Q 1206 -91 779 398 
Q 353 888 353 1747 
Q 353 2609 779 3096 
Q 1206 3584 1959 3584 
z
" transform="scale(0.015625)"/>
     <path id="DejaVuSans-76" d="M 191 3500 
L 800 3500 
L 1894 563 
L 2988 3500 
L 3597 3500 
L 2284 0 
L 1503 0 
L 191 3500 
z
" transform="scale(0.015625)"/>
     <path id="DejaVuSans-6d" d="M 3328 2828 
Q 3544 3216 3844 3400 
Q 4144 3584 4550 3584 
Q 5097 3584 5394 3201 
Q 5691 2819 5691 2113 
L 5691 0 
L 5113 0 
L 5113 2094 
Q 5113 2597 4934 2840 
Q 4756 3084 4391 3084 
Q 3944 3084 3684 2787 
Q 3425 2491 3425 1978 
L 3425 0 
L 2847 0 
L 2847 2094 
Q 2847 2600 2669 2842 
Q 2491 3084 2119 3084 
Q 1678 3084 1418 2786 
Q 1159 2488 1159 1978 
L 1159 0 
L 581 0 
L 581 3500 
L 1159 3500 
L 1159 2956 
Q 1356 3278 1631 3431 
Q 1906 3584 2284 3584 
Q 2666 3584 2933 3390 
Q 3200 3197 3328 2828 
z
" transform="scale(0.015625)"/>
     <path id="DejaVuSans-74" d="M 1172 4494 
L 1172 3500 
L 2356 3500 
L 2356 3053 
L 1172 3053 
L 1172 1153 
Q 1172 725 1289 603 
Q 1406 481 1766 481 
L 2356 481 
L 2356 0 
L 1766 0 
Q 1100 0 847 248 
Q 594 497 594 1153 
L 594 3053 
L 172 3053 
L 172 3500 
L 594 3500 
L 594 4494 
L 1172 4494 
z
" transform="scale(0.015625)"/>
     <path id="DejaVuSans-73" d="M 2834 3397 
L 2834 2853 
Q 2591 2978 2328 3040 
Q 2066 3103 1784 3103 
Q 1356 3103 1142 2972 
Q 928 2841 928 2578 
Q 928 2378 1081 2264 
Q 1234 2150 1697 2047 
L 1894 2003 
Q 2506 1872 2764 1633 
Q 3022 1394 3022 966 
Q 3022 478 2636 193 
Q 2250 -91 1575 -91 
Q 1294 -91 989 -36 
Q 684 19 347 128 
L 347 722 
Q 666 556 975 473 
Q 1284 391 1588 391 
Q 1994 391 2212 530 
Q 2431 669 2431 922 
Q 2431 1156 2273 1281 
Q 2116 1406 1581 1522 
L 1381 1569 
Q 847 1681 609 1914 
Q 372 2147 372 2553 
Q 372 3047 722 3315 
Q 1072 3584 1716 3584 
Q 2034 3584 2315 3537 
Q 2597 3491 2834 3397 
z
" transform="scale(0.015625)"/>
    </defs>
    <use xlink:href="#DejaVuSans-45"/>
    <use xlink:href="#DejaVuSans-52" transform="translate(63.183594 0)"/>
    <use xlink:href="#DejaVuSans-44" transform="translate(132.666016 0)"/>
    <use xlink:href="#DejaVuSans-2f" transform="translate(209.667969 0)"/>
    <use xlink:href="#DejaVuSans-45" transform="translate(243.359375 0)"/>
    <use xlink:href="#DejaVuSans-52" transform="translate(306.542969 0)"/>
    <use xlink:href="#DejaVuSans-53" transform="translate(376.025391 0)"/>
    <use xlink:href="#DejaVuSans-20" transform="translate(439.501953 0)"/>
    <use xlink:href="#DejaVuSans-2014" transform="translate(471.289062 0)"/>
    <use xlink:href="#DejaVuSans-20" transform="translate(571.289062 0)"/>
    <use xlink:href="#DejaVuSans-4d" transform="translate(603.076172 0)"/>
    <use xlink:href="#DejaVuSans-49" transform="translate(689.355469 0)"/>
    <use xlink:href="#DejaVuSans-20" transform="translate(718.847656 0)"/>
    <use xlink:href="#DejaVuSans-2014" transform="translate(750.634766 0)"/>
    <use xlink:href="#DejaVuSans-20" transform="translate(850.634766 0)"/>
    <use xlink:href="#DejaVuSans-53" transform="translate(882.421875 0)"/>
    <use xlink:href="#DejaVuSans-30" transform="translate(945.898438 0)"/>
    <use xlink:href="#DejaVuSans-36" transform="translate(1009.521484 0)"/>
    <use xlink:href="#DejaVuSans-20" transform="translate(1073.144531 0)"/>
    <use xlink:href="#DejaVuSans-28" transform="translate(1104.931641 0)"/>
    <use xlink:href="#DejaVuSans-4d" transform="translate(1143.945312 0)"/>
    <use xlink:href="#DejaVuSans-6f" transform="translate(1230.224609 0)"/>
    <use xlink:href="#DejaVuSans-76" transform="translate(1291.40625 0)"/>
    <use xlink:href="#DejaVuSans-65" transform="translate(1350.585938 0)"/>
    <use xlink:href="#DejaVuSans-6d" transform="translate(1412.109375 0)"/>
    <use xlink:href="#DejaVuSans-65" transform="translate(1509.521484 0)"/>
    <use xlink:href="#DejaVuSans-6e" transform="translate(1571.044922 0)"/>
    <use xlink:href="#DejaVuSans-74" transform="translate(1634.423828 0)"/>
    <use xlink:href="#DejaVuSans-20" transform="translate(1673.632812 0)"/>
    <use xlink:href="#DejaVuSans-76" transform="translate(1705.419922 0)"/>
    <use xlink:href="#DejaVuSans-73" transform="translate(1764.599609 0)"/>
    <use xlink:href="#DejaVuSans-20" transform="translate(1816.699219 0)"/>
    <use xlink:href="#DejaVuSans-52" transform="translate(1848.486328 0)"/>
    <use xlink:href="#DejaVuSans-65" transform="translate(1913.46875 0)"/>
    <use xlink:href="#DejaVuSans-73" transform="translate(1974.992188 0)"/>
    <use xlink:href="#DejaVuSans-74" transform="translate(2027.091797 0)"/>
    <use xlink:href="#DejaVuSans-29" transform="translate(2066.300781 0)"/>
   </g>
  </g>
  <g id="legend_1">
   <g id="patch_23">
    <path d="M 663.350812 30.109375 
L 722.830031 30.109375 
Q 724.230031 30.109375 724.230031 28.709375 
L 724.230031 8.86 
Q 724.230031 7.46 722.830031 7.46 
L 663.350812 7.46 
Q 661.950812 7.46 661.950812 8.86 
L 661.950812 28.709375 
Q 661.950812 30.109375 663.350812 30.109375 
z
" style="fill: #ffffff; opacity: 0.8; stroke: #cccccc; stroke-linejoin: miter"/>
   </g>
   <g id="line2d_46">
    <path d="M 664.750812 13.128906 
L 671.750812 13.128906 
L 678.750812 13.128906 
" style="fill: none; stroke: #1f77b4; stroke-width: 1.3; stroke-linecap: square"/>
   </g>
   <g id="text_33">
    <!-- Movement -->
    <g transform="translate(684.350812 15.578906) scale(0.07 -0.07)">
     <use xlink:href="#DejaVuSans-4d"/>
     <use xlink:href="#DejaVuSans-6f" transform="translate(86.279297 0)"/>
     <use xlink:href="#DejaVuSans-76" transform="translate(147.460938 0)"/>
     <use xlink:href="#DejaVuSans-65" transform="translate(206.640625 0)"/>
     <use xlink:href="#DejaVuSans-6d" transform="translate(268.164062 0)"/>
     <use xlink:href="#DejaVuSans-65" transform="translate(365.576172 0)"/>
     <use xlink:href="#DejaVuSans-6e" transform="translate(427.099609 0)"/>
     <use xlink:href="#DejaVuSans-74" transform="translate(490.478516 0)"/>
    </g>
   </g>
   <g id="line2d_47">
    <path d="M 664.750812 23.403594 
L 671.750812 23.403594 
L 678.750812 23.403594 
" style="fill: none; stroke: #ff7f0e; stroke-width: 1.3; stroke-linecap: square"/>
   </g>
   <g id="text_34">
    <!-- rest -->
    <g transform="translate(684.350812 25.853594) scale(0.07 -0.07)">
     <use xlink:href="#DejaVuSans-72"/>
     <use xlink:href="#DejaVuSans-65" transform="translate(38.863281 0)"/>
     <use xlink:href="#DejaVuSans-73" transform="translate(100.386719 0)"/>
     <use xlink:href="#DejaVuSans-74" transform="translate(152.486328 0)"/>
    </g>
   </g>
  </g>
 </g>
 <defs>
  <clipPath id="p483e12d06a">
   <rect x="36.262031" y="59.28" width="211.113333" height="123.4"/>
  </clipPath>
  <clipPath id="p5fe122fae7">
   <rect x="272.875365" y="59.28" width="211.113333" height="123.4"/>
  </clipPath>
  <clipPath id="p5f86511feb">
   <rect x="509.488698" y="59.28" width="211.113333" height="123.4"/>
  </clipPath>
 </defs>
</svg>
