<?xml version="1.0" encoding="utf-8" standalone="no"?>
<!DOCTYPE svg PUBLIC "-//W3C//DTD SVG 1.1//EN"
  "http://www.w3.org/Graphics/SVG/1.1/DTD/svg11.dtd">
<svg xmlns:xlink="http://www.w3.org/1999/xlink" width="731.430031pt" height="215.397188pt" viewBox="0 0 731.430031 215.397188" xmlns="http://www.w3.org/2000/svg" version="1.1">
 <metadata>
  <rdf:RDF xmlns:dc="http://purl.org/dc/elements/1.1/" xmlns:cc="http://creativecommons.org/ns#" xmlns:rdf="http://www.w3.org/1999/02/22-rdf-syntax-ns#">
   <cc:Work>
    <dc:type rdf:resource="http://purl.org/dc/dcmitype/StillImage"/>
    <dc:date>2026-06-26T22:26:29.889307</dc:date>
    <dc:format>image/svg+xml</dc:format>
    <dc:creator>
     <cc:Agent>
      <dc:title>Matplotlib v3.10.9, https://matplotlib.org/</dc:title>
     </cc:Agent>
    </dc:creator>
   </cc:Work>
  </rdf:RDF>
 </metadata>
 <defs>
  <style type="text/css">*{stroke-linejoin: round; stroke-linecap: butt}</style>
 </defs>
 <g id="figure_1">
  <g id="patch_1">
   <path d="M 0 215.397188 
L 731.430031 215.397188 
L 731.430031 0 
L 0 0 
L 0 215.397188 
z
" style="fill: none"/>
  </g>
  <g id="axes_1">
   <g id="patch_2">
    <path d="M 36.262031 182.68 
L 247.375365 182.68 
L 247.375365 59.28 
L 36.262031 59.28 
L 36.262031 182.68 
z
" style="fill: none"/>
   </g>
   <g id="patch_3">
    <path d="M 76.391012 182.68 
L 98.200241 182.68 
L 98.200241 59.28 
L 76.391012 59.28 
z
" clip-path="url(#pf04f730ab5)" style="fill: #d9d9d9; stroke: #d9d9d9; stroke-linejoin: miter"/>
   </g>
   <g id="patch_4">
    <path d="M 98.200241 182.68 
L 172.351618 182.68 
L 172.351618 59.28 
L 98.200241 59.28 
z
" clip-path="url(#pf04f730ab5)" style="fill: #ebebeb; stroke: #ebebeb; stroke-linejoin: miter"/>
   </g>
   <g id="FillBetweenPolyCollection_1">
    <defs>
     <path id="md6f5252cc5" d="M 45.858092 -104.779828 
L 45.858092 -80.485378 
L 48.039015 -82.468787 
L 50.219938 -86.957877 
L 52.40086 -90.704201 
L 54.581783 -90.778946 
L 56.762706 -83.662175 
L 58.943629 -75.620512 
L 61.124552 -71.822106 
L 63.305475 -72.838888 
L 65.486398 -72.132385 
L 67.667321 -68.734389 
L 69.848243 -65.778172 
L 72.029166 -65.254998 
L 74.210089 -70.290428 
L 76.391012 -77.835757 
L 78.571935 -81.784535 
L 80.752858 -77.086662 
L 82.933781 -70.231174 
L 85.114703 -66.438345 
L 87.295626 -63.182497 
L 89.476549 -68.581948 
L 91.657472 -81.250749 
L 93.838395 -84.488306 
L 96.019318 -74.355326 
L 98.200241 -64.349132 
L 100.381163 -60.094336 
L 102.562086 -58.362124 
L 104.743009 -58.058978 
L 106.923932 -58.971655 
L 109.104855 -62.644385 
L 111.285778 -62.835978 
L 113.466701 -61.835309 
L 115.647624 -65.250984 
L 117.828546 -70.739811 
L 120.009469 -76.477768 
L 122.190392 -79.506921 
L 124.371315 -79.114403 
L 126.552238 -76.968443 
L 128.733161 -71.479626 
L 130.914084 -66.270406 
L 133.095006 -67.646007 
L 135.275929 -72.664109 
L 137.456852 -76.982541 
L 139.637775 -81.59158 
L 141.818698 -87.418012 
L 143.999621 -90.748289 
L 146.180544 -88.059312 
L 148.361467 -86.009541 
L 150.542389 -82.713571 
L 152.723312 -77.986845 
L 154.904235 -74.541473 
L 157.085158 -75.594095 
L 159.266081 -76.592863 
L 161.447004 -78.882923 
L 163.627927 -85.343239 
L 165.808849 -88.687227 
L 167.989772 -86.333388 
L 170.170695 -80.798706 
L 172.351618 -76.923544 
L 174.532541 -78.27482 
L 176.713464 -84.223322 
L 178.894387 -88.17279 
L 181.075309 -88.182847 
L 183.256232 -86.941767 
L 185.437155 -85.541626 
L 187.618078 -83.334367 
L 189.799001 -83.930073 
L 191.979924 -86.050261 
L 194.160847 -83.535222 
L 196.34177 -81.179718 
L 198.522692 -81.897762 
L 200.703615 -84.172653 
L 202.884538 -84.810903 
L 205.065461 -86.653733 
L 207.246384 -85.35661 
L 209.427307 -81.048024 
L 211.60823 -81.337738 
L 213.789152 -84.836538 
L 215.970075 -86.961117 
L 218.150998 -85.317226 
L 220.331921 -85.399832 
L 222.512844 -86.226864 
L 224.693767 -86.307039 
L 226.87469 -86.289569 
L 229.055613 -86.998529 
L 231.236535 -84.841098 
L 233.417458 -81.176044 
L 235.598381 -79.95569 
L 237.779304 -82.802087 
L 237.779304 -106.460862 
L 237.779304 -106.460862 
L 235.598381 -104.512546 
L 233.417458 -105.009191 
L 231.236535 -107.602124 
L 229.055613 -110.064258 
L 226.87469 -109.258143 
L 224.693767 -108.34576 
L 222.512844 -108.470424 
L 220.331921 -109.289855 
L 218.150998 -110.224169 
L 215.970075 -111.778588 
L 213.789152 -109.857884 
L 211.60823 -107.747612 
L 209.427307 -106.784253 
L 207.246384 -109.82137 
L 205.065461 -109.166718 
L 202.884538 -107.230056 
L 200.703615 -106.155513 
L 198.522692 -102.938869 
L 196.34177 -103.519644 
L 194.160847 -106.707623 
L 191.979924 -107.809239 
L 189.799001 -105.254612 
L 187.618078 -105.295195 
L 185.437155 -109.180471 
L 183.256232 -110.525049 
L 181.075309 -110.161528 
L 178.894387 -110.667167 
L 176.713464 -106.971585 
L 174.532541 -99.443152 
L 172.351618 -97.35396 
L 170.170695 -100.985275 
L 167.989772 -105.531481 
L 165.808849 -108.897694 
L 163.627927 -107.394474 
L 161.447004 -101.166132 
L 159.266081 -98.200357 
L 157.085158 -97.903605 
L 154.904235 -96.64713 
L 152.723312 -99.02212 
L 150.542389 -102.4425 
L 148.361467 -107.579334 
L 146.180544 -110.516678 
L 143.999621 -115.969118 
L 141.818698 -112.301437 
L 139.637775 -105.532979 
L 137.456852 -98.451024 
L 135.275929 -91.838903 
L 133.095006 -86.924223 
L 130.914084 -87.012523 
L 128.733161 -92.303371 
L 126.552238 -98.363529 
L 124.371315 -99.964144 
L 122.190392 -100.8726 
L 120.009469 -98.053194 
L 117.828546 -91.810173 
L 115.647624 -86.148922 
L 113.466701 -83.312182 
L 111.285778 -85.337165 
L 109.104855 -84.571949 
L 106.923932 -81.140107 
L 104.743009 -81.427728 
L 102.562086 -83.352662 
L 100.381163 -84.68271 
L 98.200241 -87.693813 
L 96.019318 -96.754918 
L 93.838395 -105.835958 
L 91.657472 -104.481126 
L 89.476549 -93.693234 
L 87.295626 -88.436177 
L 85.114703 -92.092365 
L 82.933781 -95.313573 
L 80.752858 -101.197513 
L 78.571935 -103.962089 
L 76.391012 -100.114932 
L 74.210089 -94.475935 
L 72.029166 -89.468937 
L 69.848243 -90.763774 
L 67.667321 -93.000077 
L 65.486398 -95.214216 
L 63.305475 -94.906226 
L 61.124552 -94.354433 
L 58.943629 -100.143225 
L 56.762706 -108.287389 
L 54.581783 -113.726089 
L 52.40086 -114.376739 
L 50.219938 -111.104662 
L 48.039015 -106.419262 
L 45.858092 -104.779828 
z
" style="stroke: #1f77b4; stroke-opacity: 0.15"/>
    </defs>
    <g clip-path="url(#pf04f730ab5)">
     <use xlink:href="#md6f5252cc5" x="0" y="215.397188" style="fill: #1f77b4; fill-opacity: 0.15; stroke: #1f77b4; stroke-opacity: 0.15"/>
    </g>
   </g>
   <g id="FillBetweenPolyCollection_2">
    <defs>
     <path id="m4a52a3947b" d="M 45.858092 -106.902074 
L 45.858092 -56.658636 
L 48.039015 -56.142773 
L 50.219938 -58.518887 
L 52.40086 -64.97744 
L 54.581783 -69.588313 
L 56.762706 -64.620971 
L 58.943629 -57.134016 
L 61.124552 -51.165439 
L 63.305475 -52.803075 
L 65.486398 -55.44117 
L 67.667321 -58.885516 
L 69.848243 -65.38005 
L 72.029166 -71.533584 
L 74.210089 -78.400473 
L 76.391012 -76.243921 
L 78.571935 -74.269677 
L 80.752858 -74.222573 
L 82.933781 -72.166454 
L 85.114703 -66.558737 
L 87.295626 -68.997284 
L 89.476549 -71.762505 
L 91.657472 -69.007156 
L 93.838395 -67.60805 
L 96.019318 -65.514687 
L 98.200241 -62.50674 
L 100.381163 -61.393931 
L 102.562086 -66.1259 
L 104.743009 -72.614526 
L 106.923932 -75.367963 
L 109.104855 -72.008157 
L 111.285778 -78.214937 
L 113.466701 -92.392595 
L 115.647624 -104.73119 
L 117.828546 -100.577256 
L 120.009469 -90.565782 
L 122.190392 -81.400213 
L 124.371315 -76.394169 
L 126.552238 -66.931245 
L 128.733161 -62.357364 
L 130.914084 -68.208308 
L 133.095006 -82.518467 
L 135.275929 -83.914146 
L 137.456852 -68.129632 
L 139.637775 -61.332941 
L 141.818698 -68.378568 
L 143.999621 -80.282738 
L 146.180544 -91.576061 
L 148.361467 -89.826941 
L 150.542389 -81.688885 
L 152.723312 -81.48013 
L 154.904235 -83.531341 
L 157.085158 -87.636822 
L 159.266081 -86.340136 
L 161.447004 -83.707099 
L 163.627927 -87.560038 
L 165.808849 -88.651729 
L 167.989772 -86.913839 
L 170.170695 -91.825116 
L 172.351618 -99.341521 
L 174.532541 -103.90799 
L 176.713464 -92.593317 
L 178.894387 -85.986533 
L 181.075309 -94.340724 
L 183.256232 -96.6951 
L 185.437155 -94.622881 
L 187.618078 -86.790593 
L 189.799001 -79.382471 
L 191.979924 -81.590747 
L 194.160847 -86.435527 
L 196.34177 -93.473795 
L 198.522692 -94.777194 
L 200.703615 -92.171955 
L 202.884538 -92.373713 
L 205.065461 -90.619817 
L 207.246384 -75.941739 
L 209.427307 -70.257743 
L 211.60823 -78.845667 
L 213.789152 -90.909596 
L 215.970075 -84.008078 
L 218.150998 -73.345873 
L 220.331921 -73.905305 
L 222.512844 -81.810612 
L 224.693767 -81.822552 
L 226.87469 -80.660722 
L 229.055613 -77.057188 
L 231.236535 -67.744862 
L 233.417458 -65.072629 
L 235.598381 -69.051286 
L 237.779304 -77.897083 
L 237.779304 -115.33084 
L 237.779304 -115.33084 
L 235.598381 -103.782492 
L 233.417458 -104.249192 
L 231.236535 -110.481356 
L 229.055613 -120.267928 
L 226.87469 -122.387661 
L 224.693767 -117.124377 
L 222.512844 -117.967209 
L 220.331921 -116.295952 
L 218.150998 -113.259659 
L 215.970075 -125.328252 
L 213.789152 -132.618451 
L 211.60823 -123.75923 
L 209.427307 -115.395317 
L 207.246384 -119.809539 
L 205.065461 -131.274199 
L 202.884538 -131.669856 
L 200.703615 -130.332048 
L 198.522692 -140.037372 
L 196.34177 -148.053256 
L 194.160847 -134.700984 
L 191.979924 -117.78529 
L 189.799001 -114.445382 
L 187.618078 -125.454938 
L 185.437155 -137.523127 
L 183.256232 -140.410223 
L 181.075309 -134.897139 
L 178.894387 -125.993542 
L 176.713464 -138.306145 
L 174.532541 -150.360881 
L 172.351618 -144.036681 
L 170.170695 -134.759661 
L 167.989772 -125.366862 
L 165.808849 -123.320662 
L 163.627927 -126.886822 
L 161.447004 -130.109626 
L 159.266081 -133.558951 
L 157.085158 -133.64398 
L 154.904235 -128.550206 
L 152.723312 -124.137229 
L 150.542389 -120.747466 
L 148.361467 -122.538236 
L 146.180544 -126.047187 
L 143.999621 -116.630824 
L 141.818698 -110.2586 
L 139.637775 -101.360185 
L 137.456852 -108.28752 
L 135.275929 -122.928762 
L 133.095006 -121.516165 
L 130.914084 -110.027651 
L 128.733161 -106.886044 
L 126.552238 -109.083264 
L 124.371315 -115.371347 
L 122.190392 -121.948438 
L 120.009469 -133.511011 
L 117.828546 -144.242273 
L 115.647624 -150.508097 
L 113.466701 -135.02419 
L 111.285778 -127.221201 
L 109.104855 -114.242734 
L 106.923932 -114.786827 
L 104.743009 -115.363388 
L 102.562086 -109.511984 
L 100.381163 -107.370851 
L 98.200241 -116.192502 
L 96.019318 -117.121952 
L 93.838395 -111.960272 
L 91.657472 -112.035424 
L 89.476549 -115.172404 
L 87.295626 -112.721738 
L 85.114703 -115.64163 
L 82.933781 -131.825949 
L 80.752858 -130.252527 
L 78.571935 -123.094933 
L 76.391012 -122.28057 
L 74.210089 -129.352451 
L 72.029166 -120.03842 
L 69.848243 -108.338654 
L 67.667321 -106.759021 
L 65.486398 -106.660583 
L 63.305475 -101.45698 
L 61.124552 -95.640233 
L 58.943629 -99.273784 
L 56.762706 -104.255727 
L 54.581783 -112.801591 
L 52.40086 -108.473478 
L 50.219938 -102.727397 
L 48.039015 -105.871935 
L 45.858092 -106.902074 
z
" style="stroke: #ff7f0e; stroke-opacity: 0.15"/>
    </defs>
    <g clip-path="url(#pf04f730ab5)">
     <use xlink:href="#m4a52a3947b" x="0" y="215.397188" style="fill: #ff7f0e; fill-opacity: 0.15; stroke: #ff7f0e; stroke-opacity: 0.15"/>
    </g>
   </g>
   <g id="line2d_1">
    <path d="M 36.262031 112.284556 
L 247.375365 112.284556 
" clip-path="url(#pf04f730ab5)" style="fill: none; stroke-dasharray: 2.96,1.28; stroke-dashoffset: 0; stroke: #000000; stroke-width: 0.8"/>
   </g>
   <g id="matplotlib.axis_1">
    <g id="xtick_1">
     <g id="line2d_2">
      <defs>
       <path id="m868a892f77" d="M 0 0 
L 0 3.5 
" style="stroke: #000000; stroke-width: 0.8"/>
      </defs>
      <g>
       <use xlink:href="#m868a892f77" x="41.496246" y="182.68" style="stroke: #000000; stroke-width: 0.8"/>
      </g>
     </g>
     <g id="text_1">
      <!-- 0 -->
      <g transform="translate(39.269371 194.998906) scale(0.07 -0.07)">
       <defs>
        <path id="DejaVuSans-30" d="M 2034 4250 
Q 1547 4250 1301 3770 
Q 1056 3291 1056 2328 
Q 1056 1369 1301 889 
Q 1547 409 2034 409 
Q 2525 409 2770 889 
Q 3016 1369 3016 2328 
Q 3016 3291 2770 3770 
Q 2525 4250 2034 4250 
z
M 2034 4750 
Q 2819 4750 3233 4129 
Q 3647 3509 3647 2328 
Q 3647 1150 3233 529 
Q 2819 -91 2034 -91 
Q 1250 -91 836 529 
Q 422 1150 422 2328 
Q 422 3509 836 4129 
Q 1250 4750 2034 4750 
z
" transform="scale(0.015625)"/>
       </defs>
       <use xlink:href="#DejaVuSans-30"/>
      </g>
     </g>
    </g>
    <g id="xtick_2">
     <g id="line2d_3">
      <g>
       <use xlink:href="#m868a892f77" x="85.114703" y="182.68" style="stroke: #000000; stroke-width: 0.8"/>
      </g>
     </g>
     <g id="text_2">
      <!-- 10 -->
      <g transform="translate(80.660953 194.998906) scale(0.07 -0.07)">
       <defs>
        <path id="DejaVuSans-31" d="M 794 531 
L 1825 531 
L 1825 4091 
L 703 3866 
L 703 4441 
L 1819 4666 
L 2450 4666 
L 2450 531 
L 3481 531 
L 3481 0 
L 794 0 
L 794 531 
z
" transform="scale(0.015625)"/>
       </defs>
       <use xlink:href="#DejaVuSans-31"/>
       <use xlink:href="#DejaVuSans-30" transform="translate(63.623047 0)"/>
      </g>
     </g>
    </g>
    <g id="xtick_3">
     <g id="line2d_4">
      <g>
       <use xlink:href="#m868a892f77" x="128.733161" y="182.68" style="stroke: #000000; stroke-width: 0.8"/>
      </g>
     </g>
     <g id="text_3">
      <!-- 20 -->
      <g transform="translate(124.279411 194.998906) scale(0.07 -0.07)">
       <defs>
        <path id="DejaVuSans-32" d="M 1228 531 
L 3431 531 
L 3431 0 
L 469 0 
L 469 531 
Q 828 903 1448 1529 
Q 2069 2156 2228 2338 
Q 2531 2678 2651 2914 
Q 2772 3150 2772 3378 
Q 2772 3750 2511 3984 
Q 2250 4219 1831 4219 
Q 1534 4219 1204 4116 
Q 875 4013 500 3803 
L 500 4441 
Q 881 4594 1212 4672 
Q 1544 4750 1819 4750 
Q 2544 4750 2975 4387 
Q 3406 4025 3406 3419 
Q 3406 3131 3298 2873 
Q 3191 2616 2906 2266 
Q 2828 2175 2409 1742 
Q 1991 1309 1228 531 
z
" transform="scale(0.015625)"/>
       </defs>
       <use xlink:href="#DejaVuSans-32"/>
       <use xlink:href="#DejaVuSans-30" transform="translate(63.623047 0)"/>
      </g>
     </g>
    </g>
    <g id="xtick_4">
     <g id="line2d_5">
      <g>
       <use xlink:href="#m868a892f77" x="172.351618" y="182.68" style="stroke: #000000; stroke-width: 0.8"/>
      </g>
     </g>
     <g id="text_4">
      <!-- 30 -->
      <g transform="translate(167.897868 194.998906) scale(0.07 -0.07)">
       <defs>
        <path id="DejaVuSans-33" d="M 2597 2516 
Q 3050 2419 3304 2112 
Q 3559 1806 3559 1356 
Q 3559 666 3084 287 
Q 2609 -91 1734 -91 
Q 1441 -91 1130 -33 
Q 819 25 488 141 
L 488 750 
Q 750 597 1062 519 
Q 1375 441 1716 441 
Q 2309 441 2620 675 
Q 2931 909 2931 1356 
Q 2931 1769 2642 2001 
Q 2353 2234 1838 2234 
L 1294 2234 
L 1294 2753 
L 1863 2753 
Q 2328 2753 2575 2939 
Q 2822 3125 2822 3475 
Q 2822 3834 2567 4026 
Q 2313 4219 1838 4219 
Q 1578 4219 1281 4162 
Q 984 4106 628 3988 
L 628 4550 
Q 988 4650 1302 4700 
Q 1616 4750 1894 4750 
Q 2613 4750 3031 4423 
Q 3450 4097 3450 3541 
Q 3450 3153 3228 2886 
Q 3006 2619 2597 2516 
z
" transform="scale(0.015625)"/>
       </defs>
       <use xlink:href="#DejaVuSans-33"/>
       <use xlink:href="#DejaVuSans-30" transform="translate(63.623047 0)"/>
      </g>
     </g>
    </g>
    <g id="xtick_5">
     <g id="line2d_6">
      <g>
       <use xlink:href="#m868a892f77" x="215.970075" y="182.68" style="stroke: #000000; stroke-width: 0.8"/>
      </g>
     </g>
     <g id="text_5">
      <!-- 40 -->
      <g transform="translate(211.516325 194.998906) scale(0.07 -0.07)">
       <defs>
        <path id="DejaVuSans-34" d="M 2419 4116 
L 825 1625 
L 2419 1625 
L 2419 4116 
z
M 2253 4666 
L 3047 4666 
L 3047 1625 
L 3713 1625 
L 3713 1100 
L 3047 1100 
L 3047 0 
L 2419 0 
L 2419 1100 
L 313 1100 
L 313 1709 
L 2253 4666 
z
" transform="scale(0.015625)"/>
       </defs>
       <use xlink:href="#DejaVuSans-34"/>
       <use xlink:href="#DejaVuSans-30" transform="translate(63.623047 0)"/>
      </g>
     </g>
    </g>
    <g id="text_6">
     <!-- Frequency (Hz) -->
     <g transform="translate(111.654948 206.533437) scale(0.08 -0.08)">
      <defs>
       <path id="DejaVuSans-46" d="M 628 4666 
L 3309 4666 
L 3309 4134 
L 1259 4134 
L 1259 2759 
L 3109 2759 
L 3109 2228 
L 1259 2228 
L 1259 0 
L 628 0 
L 628 4666 
z
" transform="scale(0.015625)"/>
       <path id="DejaVuSans-72" d="M 2631 2963 
Q 2534 3019 2420 3045 
Q 2306 3072 2169 3072 
Q 1681 3072 1420 2755 
Q 1159 2438 1159 1844 
L 1159 0 
L 581 0 
L 581 3500 
L 1159 3500 
L 1159 2956 
Q 1341 3275 1631 3429 
Q 1922 3584 2338 3584 
Q 2397 3584 2469 3576 
Q 2541 3569 2628 3553 
L 2631 2963 
z
" transform="scale(0.015625)"/>
       <path id="DejaVuSans-65" d="M 3597 1894 
L 3597 1613 
L 953 1613 
Q 991 1019 1311 708 
Q 1631 397 2203 397 
Q 2534 397 2845 478 
Q 3156 559 3463 722 
L 3463 178 
Q 3153 47 2828 -22 
Q 2503 -91 2169 -91 
Q 1331 -91 842 396 
Q 353 884 353 1716 
Q 353 2575 817 3079 
Q 1281 3584 2069 3584 
Q 2775 3584 3186 3129 
Q 3597 2675 3597 1894 
z
M 3022 2063 
Q 3016 2534 2758 2815 
Q 2500 3097 2075 3097 
Q 1594 3097 1305 2825 
Q 1016 2553 972 2059 
L 3022 2063 
z
" transform="scale(0.015625)"/>
       <path id="DejaVuSans-71" d="M 947 1747 
Q 947 1113 1208 752 
Q 1469 391 1925 391 
Q 2381 391 2643 752 
Q 2906 1113 2906 1747 
Q 2906 2381 2643 2742 
Q 2381 3103 1925 3103 
Q 1469 3103 1208 2742 
Q 947 2381 947 1747 
z
M 2906 525 
Q 2725 213 2448 61 
Q 2172 -91 1784 -91 
Q 1150 -91 751 415 
Q 353 922 353 1747 
Q 353 2572 751 3078 
Q 1150 3584 1784 3584 
Q 2172 3584 2448 3432 
Q 2725 3281 2906 2969 
L 2906 3500 
L 3481 3500 
L 3481 -1331 
L 2906 -1331 
L 2906 525 
z
" transform="scale(0.015625)"/>
       <path id="DejaVuSans-75" d="M 544 1381 
L 544 3500 
L 1119 3500 
L 1119 1403 
Q 1119 906 1312 657 
Q 1506 409 1894 409 
Q 2359 409 2629 706 
Q 2900 1003 2900 1516 
L 2900 3500 
L 3475 3500 
L 3475 0 
L 2900 0 
L 2900 538 
Q 2691 219 2414 64 
Q 2138 -91 1772 -91 
Q 1169 -91 856 284 
Q 544 659 544 1381 
z
M 1991 3584 
L 1991 3584 
z
" transform="scale(0.015625)"/>
       <path id="DejaVuSans-6e" d="M 3513 2113 
L 3513 0 
L 2938 0 
L 2938 2094 
Q 2938 2591 2744 2837 
Q 2550 3084 2163 3084 
Q 1697 3084 1428 2787 
Q 1159 2491 1159 1978 
L 1159 0 
L 581 0 
L 581 3500 
L 1159 3500 
L 1159 2956 
Q 1366 3272 1645 3428 
Q 1925 3584 2291 3584 
Q 2894 3584 3203 3211 
Q 3513 2838 3513 2113 
z
" transform="scale(0.015625)"/>
       <path id="DejaVuSans-63" d="M 3122 3366 
L 3122 2828 
Q 2878 2963 2633 3030 
Q 2388 3097 2138 3097 
Q 1578 3097 1268 2742 
Q 959 2388 959 1747 
Q 959 1106 1268 751 
Q 1578 397 2138 397 
Q 2388 397 2633 464 
Q 2878 531 3122 666 
L 3122 134 
Q 2881 22 2623 -34 
Q 2366 -91 2075 -91 
Q 1284 -91 818 406 
Q 353 903 353 1747 
Q 353 2603 823 3093 
Q 1294 3584 2113 3584 
Q 2378 3584 2631 3529 
Q 2884 3475 3122 3366 
z
" transform="scale(0.015625)"/>
       <path id="DejaVuSans-79" d="M 2059 -325 
Q 1816 -950 1584 -1140 
Q 1353 -1331 966 -1331 
L 506 -1331 
L 506 -850 
L 844 -850 
Q 1081 -850 1212 -737 
Q 1344 -625 1503 -206 
L 1606 56 
L 191 3500 
L 800 3500 
L 1894 763 
L 2988 3500 
L 3597 3500 
L 2059 -325 
z
" transform="scale(0.015625)"/>
       <path id="DejaVuSans-20" transform="scale(0.015625)"/>
       <path id="DejaVuSans-28" d="M 1984 4856 
Q 1566 4138 1362 3434 
Q 1159 2731 1159 2009 
Q 1159 1288 1364 580 
Q 1569 -128 1984 -844 
L 1484 -844 
Q 1016 -109 783 600 
Q 550 1309 550 2009 
Q 550 2706 781 3412 
Q 1013 4119 1484 4856 
L 1984 4856 
z
" transform="scale(0.015625)"/>
       <path id="DejaVuSans-48" d="M 628 4666 
L 1259 4666 
L 1259 2753 
L 3553 2753 
L 3553 4666 
L 4184 4666 
L 4184 0 
L 3553 0 
L 3553 2222 
L 1259 2222 
L 1259 0 
L 628 0 
L 628 4666 
z
" transform="scale(0.015625)"/>
       <path id="DejaVuSans-7a" d="M 353 3500 
L 3084 3500 
L 3084 2975 
L 922 459 
L 3084 459 
L 3084 0 
L 275 0 
L 275 525 
L 2438 3041 
L 353 3041 
L 353 3500 
z
" transform="scale(0.015625)"/>
       <path id="DejaVuSans-29" d="M 513 4856 
L 1013 4856 
Q 1481 4119 1714 3412 
Q 1947 2706 1947 2009 
Q 1947 1309 1714 600 
Q 1481 -109 1013 -844 
L 513 -844 
Q 928 -128 1133 580 
Q 1338 1288 1338 2009 
Q 1338 2731 1133 3434 
Q 928 4138 513 4856 
z
" transform="scale(0.015625)"/>
      </defs>
      <use xlink:href="#DejaVuSans-46"/>
      <use xlink:href="#DejaVuSans-72" transform="translate(50.269531 0)"/>
      <use xlink:href="#DejaVuSans-65" transform="translate(89.132812 0)"/>
      <use xlink:href="#DejaVuSans-71" transform="translate(150.65625 0)"/>
      <use xlink:href="#DejaVuSans-75" transform="translate(214.132812 0)"/>
      <use xlink:href="#DejaVuSans-65" transform="translate(277.511719 0)"/>
      <use xlink:href="#DejaVuSans-6e" transform="translate(339.035156 0)"/>
      <use xlink:href="#DejaVuSans-63" transform="translate(402.414062 0)"/>
      <use xlink:href="#DejaVuSans-79" transform="translate(457.394531 0)"/>
      <use xlink:href="#DejaVuSans-20" transform="translate(516.574219 0)"/>
      <use xlink:href="#DejaVuSans-28" transform="translate(548.361328 0)"/>
      <use xlink:href="#DejaVuSans-48" transform="translate(587.375 0)"/>
      <use xlink:href="#DejaVuSans-7a" transform="translate(662.570312 0)"/>
      <use xlink:href="#DejaVuSans-29" transform="translate(715.060547 0)"/>
     </g>
    </g>
   </g>
   <g id="matplotlib.axis_2">
    <g id="ytick_1">
     <g id="line2d_7">
      <defs>
       <path id="m9df34c8c72" d="M 0 0 
L -3.5 0 
" style="stroke: #000000; stroke-width: 0.8"/>
      </defs>
      <g>
       <use xlink:href="#m9df34c8c72" x="36.262031" y="159.924634" style="stroke: #000000; stroke-width: 0.8"/>
      </g>
     </g>
     <g id="text_7">
      <!-- −2 -->
      <g transform="translate(18.9425 162.584087) scale(0.07 -0.07)">
       <defs>
        <path id="DejaVuSans-2212" d="M 678 2272 
L 4684 2272 
L 4684 1741 
L 678 1741 
L 678 2272 
z
" transform="scale(0.015625)"/>
       </defs>
       <use xlink:href="#DejaVuSans-2212"/>
       <use xlink:href="#DejaVuSans-32" transform="translate(83.789062 0)"/>
      </g>
     </g>
    </g>
    <g id="ytick_2">
     <g id="line2d_8">
      <g>
       <use xlink:href="#m9df34c8c72" x="36.262031" y="136.104595" style="stroke: #000000; stroke-width: 0.8"/>
      </g>
     </g>
     <g id="text_8">
      <!-- −1 -->
      <g transform="translate(18.9425 138.764048) scale(0.07 -0.07)">
       <use xlink:href="#DejaVuSans-2212"/>
       <use xlink:href="#DejaVuSans-31" transform="translate(83.789062 0)"/>
      </g>
     </g>
    </g>
    <g id="ytick_3">
     <g id="line2d_9">
      <g>
       <use xlink:href="#m9df34c8c72" x="36.262031" y="112.284556" style="stroke: #000000; stroke-width: 0.8"/>
      </g>
     </g>
     <g id="text_9">
      <!-- 0 -->
      <g transform="translate(24.808281 114.944009) scale(0.07 -0.07)">
       <use xlink:href="#DejaVuSans-30"/>
      </g>
     </g>
    </g>
    <g id="ytick_4">
     <g id="line2d_10">
      <g>
       <use xlink:href="#m9df34c8c72" x="36.262031" y="88.464517" style="stroke: #000000; stroke-width: 0.8"/>
      </g>
     </g>
     <g id="text_10">
      <!-- 1 -->
      <g transform="translate(24.808281 91.123971) scale(0.07 -0.07)">
       <use xlink:href="#DejaVuSans-31"/>
      </g>
     </g>
    </g>
    <g id="ytick_5">
     <g id="line2d_11">
      <g>
       <use xlink:href="#m9df34c8c72" x="36.262031" y="64.644479" style="stroke: #000000; stroke-width: 0.8"/>
      </g>
     </g>
     <g id="text_11">
      <!-- 2 -->
      <g transform="translate(24.808281 67.303932) scale(0.07 -0.07)">
       <use xlink:href="#DejaVuSans-32"/>
      </g>
     </g>
    </g>
    <g id="text_12">
     <!-- ERD/ERS (dB) -->
     <g transform="translate(13.27875 148.236875) rotate(-90) scale(0.08 -0.08)">
      <defs>
       <path id="DejaVuSans-45" d="M 628 4666 
L 3578 4666 
L 3578 4134 
L 1259 4134 
L 1259 2753 
L 3481 2753 
L 3481 2222 
L 1259 2222 
L 1259 531 
L 3634 531 
L 3634 0 
L 628 0 
L 628 4666 
z
" transform="scale(0.015625)"/>
       <path id="DejaVuSans-52" d="M 2841 2188 
Q 3044 2119 3236 1894 
Q 3428 1669 3622 1275 
L 4263 0 
L 3584 0 
L 2988 1197 
Q 2756 1666 2539 1819 
Q 2322 1972 1947 1972 
L 1259 1972 
L 1259 0 
L 628 0 
L 628 4666 
L 2053 4666 
Q 2853 4666 3247 4331 
Q 3641 3997 3641 3322 
Q 3641 2881 3436 2590 
Q 3231 2300 2841 2188 
z
M 1259 4147 
L 1259 2491 
L 2053 2491 
Q 2509 2491 2742 2702 
Q 2975 2913 2975 3322 
Q 2975 3731 2742 3939 
Q 2509 4147 2053 4147 
L 1259 4147 
z
" transform="scale(0.015625)"/>
       <path id="DejaVuSans-44" d="M 1259 4147 
L 1259 519 
L 2022 519 
Q 2988 519 3436 956 
Q 3884 1394 3884 2338 
Q 3884 3275 3436 3711 
Q 2988 4147 2022 4147 
L 1259 4147 
z
M 628 4666 
L 1925 4666 
Q 3281 4666 3915 4102 
Q 4550 3538 4550 2338 
Q 4550 1131 3912 565 
Q 3275 0 1925 0 
L 628 0 
L 628 4666 
z
" transform="scale(0.015625)"/>
       <path id="DejaVuSans-2f" d="M 1625 4666 
L 2156 4666 
L 531 -594 
L 0 -594 
L 1625 4666 
z
" transform="scale(0.015625)"/>
       <path id="DejaVuSans-53" d="M 3425 4513 
L 3425 3897 
Q 3066 4069 2747 4153 
Q 2428 4238 2131 4238 
Q 1616 4238 1336 4038 
Q 1056 3838 1056 3469 
Q 1056 3159 1242 3001 
Q 1428 2844 1947 2747 
L 2328 2669 
Q 3034 2534 3370 2195 
Q 3706 1856 3706 1288 
Q 3706 609 3251 259 
Q 2797 -91 1919 -91 
Q 1588 -91 1214 -16 
Q 841 59 441 206 
L 441 856 
Q 825 641 1194 531 
Q 1563 422 1919 422 
Q 2459 422 2753 634 
Q 3047 847 3047 1241 
Q 3047 1584 2836 1778 
Q 2625 1972 2144 2069 
L 1759 2144 
Q 1053 2284 737 2584 
Q 422 2884 422 3419 
Q 422 4038 858 4394 
Q 1294 4750 2059 4750 
Q 2388 4750 2728 4690 
Q 3069 4631 3425 4513 
z
" transform="scale(0.015625)"/>
       <path id="DejaVuSans-64" d="M 2906 2969 
L 2906 4863 
L 3481 4863 
L 3481 0 
L 2906 0 
L 2906 525 
Q 2725 213 2448 61 
Q 2172 -91 1784 -91 
Q 1150 -91 751 415 
Q 353 922 353 1747 
Q 353 2572 751 3078 
Q 1150 3584 1784 3584 
Q 2172 3584 2448 3432 
Q 2725 3281 2906 2969 
z
M 947 1747 
Q 947 1113 1208 752 
Q 1469 391 1925 391 
Q 2381 391 2643 752 
Q 2906 1113 2906 1747 
Q 2906 2381 2643 2742 
Q 2381 3103 1925 3103 
Q 1469 3103 1208 2742 
Q 947 2381 947 1747 
z
" transform="scale(0.015625)"/>
       <path id="DejaVuSans-42" d="M 1259 2228 
L 1259 519 
L 2272 519 
Q 2781 519 3026 730 
Q 3272 941 3272 1375 
Q 3272 1813 3026 2020 
Q 2781 2228 2272 2228 
L 1259 2228 
z
M 1259 4147 
L 1259 2741 
L 2194 2741 
Q 2656 2741 2882 2914 
Q 3109 3088 3109 3444 
Q 3109 3797 2882 3972 
Q 2656 4147 2194 4147 
L 1259 4147 
z
M 628 4666 
L 2241 4666 
Q 2963 4666 3353 4366 
Q 3744 4066 3744 3513 
Q 3744 3084 3544 2831 
Q 3344 2578 2956 2516 
Q 3422 2416 3680 2098 
Q 3938 1781 3938 1306 
Q 3938 681 3513 340 
Q 3088 0 2303 0 
L 628 0 
L 628 4666 
z
" transform="scale(0.015625)"/>
      </defs>
      <use xlink:href="#DejaVuSans-45"/>
      <use xlink:href="#DejaVuSans-52" transform="translate(63.183594 0)"/>
      <use xlink:href="#DejaVuSans-44" transform="translate(132.666016 0)"/>
      <use xlink:href="#DejaVuSans-2f" transform="translate(209.667969 0)"/>
      <use xlink:href="#DejaVuSans-45" transform="translate(243.359375 0)"/>
      <use xlink:href="#DejaVuSans-52" transform="translate(306.542969 0)"/>
      <use xlink:href="#DejaVuSans-53" transform="translate(376.025391 0)"/>
      <use xlink:href="#DejaVuSans-20" transform="translate(439.501953 0)"/>
      <use xlink:href="#DejaVuSans-28" transform="translate(471.289062 0)"/>
      <use xlink:href="#DejaVuSans-64" transform="translate(510.302734 0)"/>
      <use xlink:href="#DejaVuSans-42" transform="translate(573.779297 0)"/>
      <use xlink:href="#DejaVuSans-29" transform="translate(642.382812 0)"/>
     </g>
    </g>
   </g>
   <g id="line2d_12">
    <path d="M 45.858092 122.764585 
L 48.039015 120.953163 
L 50.219938 116.365918 
L 52.40086 112.856717 
L 54.581783 113.14467 
L 56.762706 119.422405 
L 58.943629 127.515319 
L 61.124552 132.308918 
L 63.305475 131.524631 
L 65.486398 131.723887 
L 67.667321 134.529955 
L 69.848243 137.126215 
L 72.029166 138.03522 
L 74.210089 133.014006 
L 76.391012 126.421843 
L 78.571935 122.523876 
L 80.752858 126.2551 
L 82.933781 132.624814 
L 85.114703 136.131832 
L 87.295626 139.58785 
L 89.476549 134.259597 
L 91.657472 122.53125 
L 93.838395 120.235055 
L 96.019318 129.842066 
L 98.200241 139.375715 
L 100.381163 143.008664 
L 102.562086 144.539794 
L 104.743009 145.653835 
L 106.923932 145.341307 
L 109.104855 141.789021 
L 111.285778 141.310616 
L 113.466701 142.823442 
L 115.647624 139.697234 
L 117.828546 134.122195 
L 120.009469 128.131707 
L 122.190392 125.207427 
L 124.371315 125.857914 
L 126.552238 127.731202 
L 128.733161 133.505689 
L 130.914084 138.755723 
L 133.095006 138.112072 
L 135.275929 133.145682 
L 137.456852 127.680405 
L 139.637775 121.834908 
L 141.818698 115.537463 
L 143.999621 112.038484 
L 146.180544 116.109192 
L 148.361467 118.60275 
L 150.542389 122.819152 
L 152.723312 126.892705 
L 154.904235 129.802886 
L 157.085158 128.648338 
L 159.266081 128.000578 
L 161.447004 125.37266 
L 163.627927 119.028331 
L 165.808849 116.604727 
L 167.989772 119.464753 
L 170.170695 124.505197 
L 172.351618 128.258436 
L 174.532541 126.538201 
L 176.713464 119.799734 
L 178.894387 115.977209 
L 181.075309 116.225 
L 183.256232 116.66378 
L 185.437155 118.036139 
L 187.618078 121.082407 
L 189.799001 120.804845 
L 191.979924 118.467437 
L 194.160847 120.275765 
L 196.34177 123.047506 
L 198.522692 122.978872 
L 200.703615 120.233105 
L 202.884538 119.376708 
L 205.065461 117.486962 
L 207.246384 117.808197 
L 209.427307 121.481049 
L 211.60823 120.854513 
L 213.789152 118.049976 
L 215.970075 116.027335 
L 218.150998 117.62649 
L 220.331921 118.052344 
L 222.512844 118.048544 
L 224.693767 118.070788 
L 226.87469 117.623331 
L 229.055613 116.865794 
L 231.236535 119.175576 
L 233.417458 122.30457 
L 235.598381 123.163069 
L 237.779304 120.765713 
" clip-path="url(#pf04f730ab5)" style="fill: none; stroke: #1f77b4; stroke-width: 1.3; stroke-linecap: square"/>
   </g>
   <g id="line2d_13">
    <path d="M 45.858092 133.616832 
L 48.039015 134.389834 
L 50.219938 134.774046 
L 52.40086 128.671728 
L 54.581783 124.202235 
L 56.762706 130.958838 
L 58.943629 137.193288 
L 61.124552 141.994351 
L 63.305475 138.26716 
L 65.486398 134.346311 
L 67.667321 132.574919 
L 69.848243 128.537835 
L 72.029166 119.611185 
L 74.210089 111.520726 
L 76.391012 116.134942 
L 78.571935 116.714883 
L 80.752858 113.159637 
L 82.933781 113.400986 
L 85.114703 124.297004 
L 87.295626 124.537676 
L 89.476549 121.929733 
L 91.657472 124.875897 
L 93.838395 125.613027 
L 96.019318 124.078868 
L 98.200241 126.047567 
L 100.381163 131.014797 
L 102.562086 127.578245 
L 104.743009 121.40823 
L 106.923932 120.319792 
L 109.104855 122.271742 
L 111.285778 112.679118 
L 113.466701 101.688795 
L 115.647624 87.777544 
L 117.828546 92.987423 
L 120.009469 103.358791 
L 122.190392 113.722862 
L 124.371315 119.51443 
L 126.552238 127.389933 
L 128.733161 130.775483 
L 130.914084 126.279208 
L 133.095006 113.379871 
L 135.275929 111.975733 
L 137.456852 127.188612 
L 139.637775 134.050624 
L 141.818698 126.078604 
L 143.999621 116.940407 
L 146.180544 106.585564 
L 148.361467 109.214599 
L 150.542389 114.179012 
L 152.723312 112.588508 
L 154.904235 109.356414 
L 157.085158 104.756787 
L 159.266081 105.447644 
L 161.447004 108.488825 
L 163.627927 108.173758 
L 165.808849 109.410992 
L 167.989772 109.256837 
L 170.170695 102.104799 
L 172.351618 93.708086 
L 174.532541 88.262752 
L 176.713464 99.947457 
L 178.894387 109.40715 
L 181.075309 100.778256 
L 183.256232 96.844526 
L 185.437155 99.324184 
L 187.618078 109.274422 
L 189.799001 118.483261 
L 191.979924 115.709169 
L 194.160847 104.828932 
L 196.34177 94.633662 
L 198.522692 97.989905 
L 200.703615 104.145186 
L 202.884538 103.375403 
L 205.065461 104.450179 
L 207.246384 117.521549 
L 209.427307 122.570657 
L 211.60823 114.094739 
L 213.789152 103.633164 
L 215.970075 110.729023 
L 218.150998 122.094421 
L 220.331921 120.296559 
L 222.512844 115.508277 
L 224.693767 115.923723 
L 226.87469 113.872996 
L 229.055613 116.73463 
L 231.236535 126.284078 
L 233.417458 130.736277 
L 235.598381 128.980299 
L 237.779304 118.783226 
" clip-path="url(#pf04f730ab5)" style="fill: none; stroke: #ff7f0e; stroke-width: 1.3; stroke-linecap: square"/>
   </g>
   <g id="patch_5">
    <path d="M 36.262031 182.68 
L 36.262031 59.28 
" style="fill: none; stroke: #000000; stroke-width: 0.8; stroke-linejoin: miter; stroke-linecap: square"/>
   </g>
   <g id="patch_6">
    <path d="M 247.375365 182.68 
L 247.375365 59.28 
" style="fill: none; stroke: #000000; stroke-width: 0.8; stroke-linejoin: miter; stroke-linecap: square"/>
   </g>
   <g id="patch_7">
    <path d="M 36.262031 182.68 
L 247.375365 182.68 
" style="fill: none; stroke: #000000; stroke-width: 0.8; stroke-linejoin: miter; stroke-linecap: square"/>
   </g>
   <g id="patch_8">
    <path d="M 36.262031 59.28 
L 247.375365 59.28 
" style="fill: none; stroke: #000000; stroke-width: 0.8; stroke-linejoin: miter; stroke-linecap: square"/>
   </g>
   <g id="text_13">
    <!-- C3 -->
    <g transform="translate(135.813307 53.28) scale(0.09 -0.09)">
     <defs>
      <path id="DejaVuSans-43" d="M 4122 4306 
L 4122 3641 
Q 3803 3938 3442 4084 
Q 3081 4231 2675 4231 
Q 1875 4231 1450 3742 
Q 1025 3253 1025 2328 
Q 1025 1406 1450 917 
Q 1875 428 2675 428 
Q 3081 428 3442 575 
Q 3803 722 4122 1019 
L 4122 359 
Q 3791 134 3420 21 
Q 3050 -91 2638 -91 
Q 1578 -91 968 557 
Q 359 1206 359 2328 
Q 359 3453 968 4101 
Q 1578 4750 2638 4750 
Q 3056 4750 3426 4639 
Q 3797 4528 4122 4306 
z
" transform="scale(0.015625)"/>
     </defs>
     <use xlink:href="#DejaVuSans-43"/>
     <use xlink:href="#DejaVuSans-33" transform="translate(69.824219 0)"/>
    </g>
   </g>
  </g>
  <g id="axes_2">
   <g id="patch_9">
    <path d="M 272.875365 182.68 
L 483.988698 182.68 
L 483.988698 59.28 
L 272.875365 59.28 
L 272.875365 182.68 
z
" style="fill: none"/>
   </g>
   <g id="patch_10">
    <path d="M 313.004345 182.68 
L 334.813574 182.68 
L 334.813574 59.28 
L 313.004345 59.28 
z
" clip-path="url(#p5cd7fe19ba)" style="fill: #d9d9d9; stroke: #d9d9d9; stroke-linejoin: miter"/>
   </g>
   <g id="patch_11">
    <path d="M 334.813574 182.68 
L 408.964951 182.68 
L 408.964951 59.28 
L 334.813574 59.28 
z
" clip-path="url(#p5cd7fe19ba)" style="fill: #ebebeb; stroke: #ebebeb; stroke-linejoin: miter"/>
   </g>
   <g id="FillBetweenPolyCollection_3">
    <defs>
     <path id="mee305475b3" d="M 282.471425 -115.317933 
L 282.471425 -91.044733 
L 284.652348 -91.287975 
L 286.833271 -87.010649 
L 289.014194 -77.760084 
L 291.195117 -69.308703 
L 293.37604 -63.44663 
L 295.556962 -55.008239 
L 297.737885 -48.891921 
L 299.918808 -45.097875 
L 302.099731 -44.341624 
L 304.280654 -47.446206 
L 306.461577 -52.150057 
L 308.6425 -56.373866 
L 310.823422 -61.073268 
L 313.004345 -65.7854 
L 315.185268 -67.026274 
L 317.366191 -67.880258 
L 319.547114 -70.20959 
L 321.728037 -73.166897 
L 323.90896 -75.787759 
L 326.089882 -77.671846 
L 328.270805 -81.331739 
L 330.451728 -80.797803 
L 332.632651 -78.338965 
L 334.813574 -75.749304 
L 336.994497 -69.224993 
L 339.17542 -60.138533 
L 341.356343 -57.464351 
L 343.537265 -58.062954 
L 345.718188 -61.679454 
L 347.899111 -61.18707 
L 350.080034 -55.430845 
L 352.260957 -47.355659 
L 354.44188 -45.148829 
L 356.622803 -51.077693 
L 358.803725 -54.855757 
L 360.984648 -57.932201 
L 363.165571 -61.40871 
L 365.346494 -64.546978 
L 367.527417 -67.184689 
L 369.70834 -65.831376 
L 371.889263 -65.851997 
L 374.070186 -64.381441 
L 376.251108 -68.748392 
L 378.432031 -80.60207 
L 380.612954 -85.516237 
L 382.793877 -83.184755 
L 384.9748 -82.724689 
L 387.155723 -81.322025 
L 389.336646 -79.517444 
L 391.517568 -81.224453 
L 393.698491 -79.63446 
L 395.879414 -79.892585 
L 398.060337 -80.632278 
L 400.24126 -79.67018 
L 402.422183 -75.314943 
L 404.603106 -71.293913 
L 406.784028 -72.062368 
L 408.964951 -78.034523 
L 411.145874 -82.31895 
L 413.326797 -81.700817 
L 415.50772 -76.951049 
L 417.688643 -74.496856 
L 419.869566 -79.576082 
L 422.050489 -83.465853 
L 424.231411 -80.703692 
L 426.412334 -79.893994 
L 428.593257 -82.790511 
L 430.77418 -80.912344 
L 432.955103 -75.872016 
L 435.136026 -74.024946 
L 437.316949 -75.695056 
L 439.497871 -79.607358 
L 441.678794 -84.347605 
L 443.859717 -85.951898 
L 446.04064 -86.487848 
L 448.221563 -85.161819 
L 450.402486 -81.265484 
L 452.583409 -78.177282 
L 454.764332 -77.918991 
L 456.945254 -80.646335 
L 459.126177 -82.429889 
L 461.3071 -81.769542 
L 463.488023 -79.569759 
L 465.668946 -74.950588 
L 467.849869 -70.558384 
L 470.030792 -68.589186 
L 472.211714 -68.716947 
L 474.392637 -70.66355 
L 474.392637 -94.469398 
L 474.392637 -94.469398 
L 472.211714 -91.715165 
L 470.030792 -90.23946 
L 467.849869 -92.008111 
L 465.668946 -98.949381 
L 463.488023 -101.746073 
L 461.3071 -103.094161 
L 459.126177 -105.429103 
L 456.945254 -104.092109 
L 454.764332 -100.198453 
L 452.583409 -99.130531 
L 450.402486 -100.566927 
L 448.221563 -105.839538 
L 446.04064 -109.465761 
L 443.859717 -109.656952 
L 441.678794 -107.2264 
L 439.497871 -101.940142 
L 437.316949 -97.186351 
L 435.136026 -94.581508 
L 432.955103 -97.201312 
L 430.77418 -101.668043 
L 428.593257 -103.318584 
L 426.412334 -99.896282 
L 424.231411 -100.737976 
L 422.050489 -103.432802 
L 419.869566 -100.568665 
L 417.688643 -95.705032 
L 415.50772 -98.632004 
L 413.326797 -103.993271 
L 411.145874 -103.927035 
L 408.964951 -98.551405 
L 406.784028 -92.284716 
L 404.603106 -92.655877 
L 402.422183 -96.76993 
L 400.24126 -102.532473 
L 398.060337 -104.291989 
L 395.879414 -103.324102 
L 393.698491 -101.284811 
L 391.517568 -103.651581 
L 389.336646 -102.007258 
L 387.155723 -103.294388 
L 384.9748 -103.422313 
L 382.793877 -104.635188 
L 380.612954 -107.609092 
L 378.432031 -103.680623 
L 376.251108 -92.441806 
L 374.070186 -87.523138 
L 371.889263 -89.286246 
L 369.70834 -87.925233 
L 367.527417 -88.538281 
L 365.346494 -86.390267 
L 363.165571 -84.241648 
L 360.984648 -81.874515 
L 358.803725 -80.435347 
L 356.622803 -74.911328 
L 354.44188 -68.148016 
L 352.260957 -70.275305 
L 350.080034 -78.716705 
L 347.899111 -84.185386 
L 345.718188 -85.917322 
L 343.537265 -81.779588 
L 341.356343 -81.737657 
L 339.17542 -85.41933 
L 336.994497 -95.6702 
L 334.813574 -102.852129 
L 332.632651 -104.678933 
L 330.451728 -104.760369 
L 328.270805 -104.423993 
L 326.089882 -101.756722 
L 323.90896 -100.301967 
L 321.728037 -96.708618 
L 319.547114 -93.034432 
L 317.366191 -90.831638 
L 315.185268 -91.457707 
L 313.004345 -91.628592 
L 310.823422 -90.032152 
L 308.6425 -87.077557 
L 306.461577 -80.945982 
L 304.280654 -73.83967 
L 302.099731 -69.440274 
L 299.918808 -70.2716 
L 297.737885 -73.667981 
L 295.556962 -79.48074 
L 293.37604 -87.224867 
L 291.195117 -91.604707 
L 289.014194 -100.596073 
L 286.833271 -110.032051 
L 284.652348 -114.551771 
L 282.471425 -115.317933 
z
" style="stroke: #1f77b4; stroke-opacity: 0.15"/>
    </defs>
    <g clip-path="url(#p5cd7fe19ba)">
     <use xlink:href="#mee305475b3" x="0" y="215.397188" style="fill: #1f77b4; fill-opacity: 0.15; stroke: #1f77b4; stroke-opacity: 0.15"/>
    </g>
   </g>
   <g id="FillBetweenPolyCollection_4">
    <defs>
     <path id="m12bfa5bcdb" d="M 282.471425 -113.177806 
L 282.471425 -66.587461 
L 284.652348 -62.297361 
L 286.833271 -55.384016 
L 289.014194 -51.291907 
L 291.195117 -49.982473 
L 293.37604 -48.843479 
L 295.556962 -50.436789 
L 297.737885 -41.691597 
L 299.918808 -38.326278 
L 302.099731 -51.203728 
L 304.280654 -62.497065 
L 306.461577 -59.077774 
L 308.6425 -61.229073 
L 310.823422 -67.563755 
L 313.004345 -71.239566 
L 315.185268 -73.496745 
L 317.366191 -69.656189 
L 319.547114 -64.987248 
L 321.728037 -65.909744 
L 323.90896 -70.065836 
L 326.089882 -79.118469 
L 328.270805 -89.705931 
L 330.451728 -93.180891 
L 332.632651 -86.028811 
L 334.813574 -73.807546 
L 336.994497 -65.490314 
L 339.17542 -70.690706 
L 341.356343 -73.65073 
L 343.537265 -70.016246 
L 345.718188 -65.094049 
L 347.899111 -62.239696 
L 350.080034 -58.839477 
L 352.260957 -62.154311 
L 354.44188 -72.250091 
L 356.622803 -76.106087 
L 358.803725 -69.063484 
L 360.984648 -68.393356 
L 363.165571 -67.480594 
L 365.346494 -67.358572 
L 367.527417 -70.915605 
L 369.70834 -74.869383 
L 371.889263 -73.007699 
L 374.070186 -75.747608 
L 376.251108 -79.744884 
L 378.432031 -80.977699 
L 380.612954 -82.086464 
L 382.793877 -76.899717 
L 384.9748 -71.089065 
L 387.155723 -75.530811 
L 389.336646 -82.517531 
L 391.517568 -78.789902 
L 393.698491 -72.510022 
L 395.879414 -70.877046 
L 398.060337 -74.84703 
L 400.24126 -83.615352 
L 402.422183 -87.9028 
L 404.603106 -94.78833 
L 406.784028 -96.450144 
L 408.964951 -90.363993 
L 411.145874 -80.686984 
L 413.326797 -69.425274 
L 415.50772 -70.411426 
L 417.688643 -73.829902 
L 419.869566 -79.477042 
L 422.050489 -86.605722 
L 424.231411 -83.558665 
L 426.412334 -73.90373 
L 428.593257 -72.563293 
L 430.77418 -87.120485 
L 432.955103 -89.410138 
L 435.136026 -82.309351 
L 437.316949 -76.840113 
L 439.497871 -75.842917 
L 441.678794 -71.751633 
L 443.859717 -59.31646 
L 446.04064 -53.791934 
L 448.221563 -66.877953 
L 450.402486 -84.192329 
L 452.583409 -88.054405 
L 454.764332 -85.192452 
L 456.945254 -81.569264 
L 459.126177 -81.381528 
L 461.3071 -73.450279 
L 463.488023 -67.381637 
L 465.668946 -65.502879 
L 467.849869 -58.588048 
L 470.030792 -63.621072 
L 472.211714 -73.532153 
L 474.392637 -80.554225 
L 474.392637 -121.60062 
L 474.392637 -121.60062 
L 472.211714 -113.00823 
L 470.030792 -104.449934 
L 467.849869 -101.814546 
L 465.668946 -107.70466 
L 463.488023 -114.357612 
L 461.3071 -122.310891 
L 459.126177 -131.775275 
L 456.945254 -129.931099 
L 454.764332 -125.711726 
L 452.583409 -125.464722 
L 450.402486 -124.877659 
L 448.221563 -108.191777 
L 446.04064 -101.502512 
L 443.859717 -109.59329 
L 441.678794 -118.234929 
L 439.497871 -121.945519 
L 437.316949 -118.895605 
L 435.136026 -123.478323 
L 432.955103 -129.127159 
L 430.77418 -129.446906 
L 428.593257 -114.673991 
L 426.412334 -109.972316 
L 424.231411 -120.003893 
L 422.050489 -127.241015 
L 419.869566 -127.495454 
L 417.688643 -117.132561 
L 415.50772 -114.125141 
L 413.326797 -116.65793 
L 411.145874 -126.676659 
L 408.964951 -135.883848 
L 406.784028 -144.843289 
L 404.603106 -143.239805 
L 402.422183 -126.931825 
L 400.24126 -116.70618 
L 398.060337 -108.644369 
L 395.879414 -111.164703 
L 393.698491 -115.704647 
L 391.517568 -117.145848 
L 389.336646 -125.003119 
L 387.155723 -125.098709 
L 384.9748 -121.876115 
L 382.793877 -131.445333 
L 380.612954 -132.034156 
L 378.432031 -125.083464 
L 376.251108 -120.183996 
L 374.070186 -114.285949 
L 371.889263 -113.552661 
L 369.70834 -116.108189 
L 367.527417 -114.75682 
L 365.346494 -118.970172 
L 363.165571 -121.590888 
L 360.984648 -118.913385 
L 358.803725 -120.305144 
L 356.622803 -126.855504 
L 354.44188 -121.160203 
L 352.260957 -107.489321 
L 350.080034 -103.143946 
L 347.899111 -108.592574 
L 345.718188 -116.036991 
L 343.537265 -121.492996 
L 341.356343 -119.523875 
L 339.17542 -117.457594 
L 336.994497 -117.981955 
L 334.813574 -127.20047 
L 332.632651 -135.234227 
L 330.451728 -137.307699 
L 328.270805 -132.041332 
L 326.089882 -116.751353 
L 323.90896 -108.834317 
L 321.728037 -108.305269 
L 319.547114 -106.060099 
L 317.366191 -112.317465 
L 315.185268 -120.179162 
L 313.004345 -126.117634 
L 310.823422 -126.62769 
L 308.6425 -119.951668 
L 306.461577 -121.153548 
L 304.280654 -121.635886 
L 302.099731 -107.384997 
L 299.918808 -93.255618 
L 297.737885 -92.550009 
L 295.556962 -95.134391 
L 293.37604 -90.450166 
L 291.195117 -95.19122 
L 289.014194 -97.524108 
L 286.833271 -97.46429 
L 284.652348 -103.449258 
L 282.471425 -113.177806 
z
" style="stroke: #ff7f0e; stroke-opacity: 0.15"/>
    </defs>
    <g clip-path="url(#p5cd7fe19ba)">
     <use xlink:href="#m12bfa5bcdb" x="0" y="215.397188" style="fill: #ff7f0e; fill-opacity: 0.15; stroke: #ff7f0e; stroke-opacity: 0.15"/>
    </g>
   </g>
   <g id="line2d_14">
    <path d="M 272.875365 112.284556 
L 483.988698 112.284556 
" clip-path="url(#p5cd7fe19ba)" style="fill: none; stroke-dasharray: 2.96,1.28; stroke-dashoffset: 0; stroke: #000000; stroke-width: 0.8"/>
   </g>
   <g id="matplotlib.axis_3">
    <g id="xtick_6">
     <g id="line2d_15">
      <g>
       <use xlink:href="#m868a892f77" x="278.109579" y="182.68" style="stroke: #000000; stroke-width: 0.8"/>
      </g>
     </g>
     <g id="text_14">
      <!-- 0 -->
      <g transform="translate(275.882704 194.998906) scale(0.07 -0.07)">
       <use xlink:href="#DejaVuSans-30"/>
      </g>
     </g>
    </g>
    <g id="xtick_7">
     <g id="line2d_16">
      <g>
       <use xlink:href="#m868a892f77" x="321.728037" y="182.68" style="stroke: #000000; stroke-width: 0.8"/>
      </g>
     </g>
     <g id="text_15">
      <!-- 10 -->
      <g transform="translate(317.274287 194.998906) scale(0.07 -0.07)">
       <use xlink:href="#DejaVuSans-31"/>
       <use xlink:href="#DejaVuSans-30" transform="translate(63.623047 0)"/>
      </g>
     </g>
    </g>
    <g id="xtick_8">
     <g id="line2d_17">
      <g>
       <use xlink:href="#m868a892f77" x="365.346494" y="182.68" style="stroke: #000000; stroke-width: 0.8"/>
      </g>
     </g>
     <g id="text_16">
      <!-- 20 -->
      <g transform="translate(360.892744 194.998906) scale(0.07 -0.07)">
       <use xlink:href="#DejaVuSans-32"/>
       <use xlink:href="#DejaVuSans-30" transform="translate(63.623047 0)"/>
      </g>
     </g>
    </g>
    <g id="xtick_9">
     <g id="line2d_18">
      <g>
       <use xlink:href="#m868a892f77" x="408.964951" y="182.68" style="stroke: #000000; stroke-width: 0.8"/>
      </g>
     </g>
     <g id="text_17">
      <!-- 30 -->
      <g transform="translate(404.511201 194.998906) scale(0.07 -0.07)">
       <use xlink:href="#DejaVuSans-33"/>
       <use xlink:href="#DejaVuSans-30" transform="translate(63.623047 0)"/>
      </g>
     </g>
    </g>
    <g id="xtick_10">
     <g id="line2d_19">
      <g>
       <use xlink:href="#m868a892f77" x="452.583409" y="182.68" style="stroke: #000000; stroke-width: 0.8"/>
      </g>
     </g>
     <g id="text_18">
      <!-- 40 -->
      <g transform="translate(448.129659 194.998906) scale(0.07 -0.07)">
       <use xlink:href="#DejaVuSans-34"/>
       <use xlink:href="#DejaVuSans-30" transform="translate(63.623047 0)"/>
      </g>
     </g>
    </g>
    <g id="text_19">
     <!-- Frequency (Hz) -->
     <g transform="translate(348.268281 206.533437) scale(0.08 -0.08)">
      <use xlink:href="#DejaVuSans-46"/>
      <use xlink:href="#DejaVuSans-72" transform="translate(50.269531 0)"/>
      <use xlink:href="#DejaVuSans-65" transform="translate(89.132812 0)"/>
      <use xlink:href="#DejaVuSans-71" transform="translate(150.65625 0)"/>
      <use xlink:href="#DejaVuSans-75" transform="translate(214.132812 0)"/>
      <use xlink:href="#DejaVuSans-65" transform="translate(277.511719 0)"/>
      <use xlink:href="#DejaVuSans-6e" transform="translate(339.035156 0)"/>
      <use xlink:href="#DejaVuSans-63" transform="translate(402.414062 0)"/>
      <use xlink:href="#DejaVuSans-79" transform="translate(457.394531 0)"/>
      <use xlink:href="#DejaVuSans-20" transform="translate(516.574219 0)"/>
      <use xlink:href="#DejaVuSans-28" transform="translate(548.361328 0)"/>
      <use xlink:href="#DejaVuSans-48" transform="translate(587.375 0)"/>
      <use xlink:href="#DejaVuSans-7a" transform="translate(662.570312 0)"/>
      <use xlink:href="#DejaVuSans-29" transform="translate(715.060547 0)"/>
     </g>
    </g>
   </g>
   <g id="matplotlib.axis_4">
    <g id="ytick_6">
     <g id="line2d_20">
      <g>
       <use xlink:href="#m9df34c8c72" x="272.875365" y="159.924634" style="stroke: #000000; stroke-width: 0.8"/>
      </g>
     </g>
    </g>
    <g id="ytick_7">
     <g id="line2d_21">
      <g>
       <use xlink:href="#m9df34c8c72" x="272.875365" y="136.104595" style="stroke: #000000; stroke-width: 0.8"/>
      </g>
     </g>
    </g>
    <g id="ytick_8">
     <g id="line2d_22">
      <g>
       <use xlink:href="#m9df34c8c72" x="272.875365" y="112.284556" style="stroke: #000000; stroke-width: 0.8"/>
      </g>
     </g>
    </g>
    <g id="ytick_9">
     <g id="line2d_23">
      <g>
       <use xlink:href="#m9df34c8c72" x="272.875365" y="88.464517" style="stroke: #000000; stroke-width: 0.8"/>
      </g>
     </g>
    </g>
    <g id="ytick_10">
     <g id="line2d_24">
      <g>
       <use xlink:href="#m9df34c8c72" x="272.875365" y="64.644479" style="stroke: #000000; stroke-width: 0.8"/>
      </g>
     </g>
    </g>
    <g id="text_20">
     <!-- ERD/ERS (dB) -->
     <g transform="translate(263.711615 148.236875) rotate(-90) scale(0.08 -0.08)">
      <use xlink:href="#DejaVuSans-45"/>
      <use xlink:href="#DejaVuSans-52" transform="translate(63.183594 0)"/>
      <use xlink:href="#DejaVuSans-44" transform="translate(132.666016 0)"/>
      <use xlink:href="#DejaVuSans-2f" transform="translate(209.667969 0)"/>
      <use xlink:href="#DejaVuSans-45" transform="translate(243.359375 0)"/>
      <use xlink:href="#DejaVuSans-52" transform="translate(306.542969 0)"/>
      <use xlink:href="#DejaVuSans-53" transform="translate(376.025391 0)"/>
      <use xlink:href="#DejaVuSans-20" transform="translate(439.501953 0)"/>
      <use xlink:href="#DejaVuSans-28" transform="translate(471.289062 0)"/>
      <use xlink:href="#DejaVuSans-64" transform="translate(510.302734 0)"/>
      <use xlink:href="#DejaVuSans-42" transform="translate(573.779297 0)"/>
      <use xlink:href="#DejaVuSans-29" transform="translate(642.382812 0)"/>
     </g>
    </g>
   </g>
   <g id="line2d_25">
    <path d="M 282.471425 112.215854 
L 284.652348 112.477315 
L 286.833271 116.875837 
L 289.014194 126.219109 
L 291.195117 134.940482 
L 293.37604 140.061439 
L 295.556962 148.152698 
L 297.737885 154.117237 
L 299.918808 157.71245 
L 302.099731 158.506239 
L 304.280654 154.75425 
L 306.461577 148.849168 
L 308.6425 143.671476 
L 310.823422 139.844477 
L 313.004345 136.690192 
L 315.185268 136.155197 
L 317.366191 136.04124 
L 319.547114 133.775177 
L 321.728037 130.45943 
L 323.90896 127.352325 
L 326.089882 125.682904 
L 328.270805 122.519321 
L 330.451728 122.618101 
L 332.632651 123.888238 
L 334.813574 126.096471 
L 336.994497 132.949591 
L 339.17542 142.618256 
L 341.356343 145.796183 
L 343.537265 145.475917 
L 345.718188 141.5988 
L 347.899111 142.710959 
L 350.080034 148.323412 
L 352.260957 156.581705 
L 354.44188 158.748765 
L 356.622803 152.402677 
L 358.803725 147.751636 
L 360.984648 145.493829 
L 363.165571 142.572009 
L 365.346494 139.928565 
L 367.527417 137.535703 
L 369.70834 138.518883 
L 371.889263 137.828066 
L 374.070186 139.444898 
L 376.251108 134.802089 
L 378.432031 123.255841 
L 380.612954 118.834523 
L 382.793877 121.487216 
L 384.9748 122.323687 
L 387.155723 123.088981 
L 389.336646 124.634837 
L 391.517568 122.959171 
L 393.698491 124.937552 
L 395.879414 123.788844 
L 398.060337 122.935054 
L 400.24126 124.295861 
L 402.422183 129.354751 
L 404.603106 133.422292 
L 406.784028 133.223645 
L 408.964951 127.104223 
L 411.145874 122.274195 
L 413.326797 122.550144 
L 415.50772 127.605661 
L 417.688643 130.296244 
L 419.869566 125.324814 
L 422.050489 121.94786 
L 424.231411 124.676354 
L 426.412334 125.502049 
L 428.593257 122.34264 
L 430.77418 124.106994 
L 432.955103 128.860523 
L 435.136026 131.093961 
L 437.316949 128.956484 
L 439.497871 124.623437 
L 441.678794 119.610185 
L 443.859717 117.592762 
L 446.04064 117.420383 
L 448.221563 119.896509 
L 450.402486 124.480982 
L 452.583409 126.743281 
L 454.764332 126.338466 
L 456.945254 123.027965 
L 459.126177 121.467691 
L 461.3071 122.965336 
L 463.488023 124.739272 
L 465.668946 128.447203 
L 467.849869 134.11394 
L 470.030792 135.982865 
L 472.211714 135.181131 
L 474.392637 132.830714 
" clip-path="url(#p5cd7fe19ba)" style="fill: none; stroke: #1f77b4; stroke-width: 1.3; stroke-linecap: square"/>
   </g>
   <g id="line2d_26">
    <path d="M 282.471425 125.514554 
L 284.652348 132.523878 
L 286.833271 138.973035 
L 289.014194 140.98918 
L 291.195117 142.810341 
L 293.37604 145.750365 
L 295.556962 142.611598 
L 297.737885 148.276384 
L 299.918808 149.606239 
L 302.099731 136.102825 
L 304.280654 123.330712 
L 306.461577 125.281526 
L 308.6425 124.806817 
L 310.823422 118.301465 
L 313.004345 116.718588 
L 315.185268 118.559234 
L 317.366191 124.410361 
L 319.547114 129.873514 
L 321.728037 128.289681 
L 323.90896 125.947111 
L 326.089882 117.462277 
L 328.270805 104.523556 
L 330.451728 100.152893 
L 332.632651 104.765669 
L 334.813574 114.89318 
L 336.994497 123.661053 
L 339.17542 121.323038 
L 341.356343 118.809885 
L 343.537265 119.642566 
L 345.718188 124.831667 
L 347.899111 129.981052 
L 350.080034 134.405476 
L 352.260957 130.575372 
L 354.44188 118.692041 
L 356.622803 113.916392 
L 358.803725 120.712874 
L 360.984648 121.743817 
L 363.165571 120.861446 
L 365.346494 122.232815 
L 367.527417 122.560975 
L 369.70834 119.908402 
L 371.889263 122.117007 
L 374.070186 120.380409 
L 376.251108 115.432748 
L 378.432031 112.366606 
L 380.612954 108.336878 
L 382.793877 111.224663 
L 384.9748 118.914598 
L 387.155723 115.082428 
L 389.336646 111.636862 
L 391.517568 117.429312 
L 393.698491 121.289853 
L 395.879414 124.376313 
L 398.060337 123.651488 
L 400.24126 115.236421 
L 402.422183 107.979875 
L 404.603106 96.38312 
L 406.784028 94.750471 
L 408.964951 102.273267 
L 411.145874 111.715366 
L 413.326797 122.355585 
L 415.50772 123.128904 
L 417.688643 119.915956 
L 419.869566 111.91094 
L 422.050489 108.473819 
L 424.231411 113.615909 
L 426.412334 123.459164 
L 428.593257 121.778546 
L 430.77418 107.113492 
L 432.955103 106.128539 
L 435.136026 112.50335 
L 437.316949 117.529329 
L 439.497871 116.50297 
L 441.678794 120.403906 
L 443.859717 130.942313 
L 446.04064 137.749964 
L 448.221563 127.862322 
L 450.402486 110.862194 
L 452.583409 108.637624 
L 454.764332 109.945098 
L 456.945254 109.647006 
L 459.126177 108.818786 
L 461.3071 117.516603 
L 463.488023 124.527563 
L 465.668946 128.793418 
L 467.849869 135.195891 
L 470.030792 131.361685 
L 472.211714 122.126996 
L 474.392637 114.319765 
" clip-path="url(#p5cd7fe19ba)" style="fill: none; stroke: #ff7f0e; stroke-width: 1.3; stroke-linecap: square"/>
   </g>
   <g id="patch_12">
    <path d="M 272.875365 182.68 
L 272.875365 59.28 
" style="fill: none; stroke: #000000; stroke-width: 0.8; stroke-linejoin: miter; stroke-linecap: square"/>
   </g>
   <g id="patch_13">
    <path d="M 483.988698 182.68 
L 483.988698 59.28 
" style="fill: none; stroke: #000000; stroke-width: 0.8; stroke-linejoin: miter; stroke-linecap: square"/>
   </g>
   <g id="patch_14">
    <path d="M 272.875365 182.68 
L 483.988698 182.68 
" style="fill: none; stroke: #000000; stroke-width: 0.8; stroke-linejoin: miter; stroke-linecap: square"/>
   </g>
   <g id="patch_15">
    <path d="M 272.875365 59.28 
L 483.988698 59.28 
" style="fill: none; stroke: #000000; stroke-width: 0.8; stroke-linejoin: miter; stroke-linecap: square"/>
   </g>
   <g id="text_21">
    <!-- Cz -->
    <g transform="translate(372.927969 53.28) scale(0.09 -0.09)">
     <use xlink:href="#DejaVuSans-43"/>
     <use xlink:href="#DejaVuSans-7a" transform="translate(69.824219 0)"/>
    </g>
   </g>
  </g>
  <g id="axes_3">
   <g id="patch_16">
    <path d="M 509.488698 182.68 
L 720.602031 182.68 
L 720.602031 59.28 
L 509.488698 59.28 
L 509.488698 182.68 
z
" style="fill: none"/>
   </g>
   <g id="patch_17">
    <path d="M 549.617679 182.68 
L 571.426907 182.68 
L 571.426907 59.28 
L 549.617679 59.28 
z
" clip-path="url(#pa597e84572)" style="fill: #d9d9d9; stroke: #d9d9d9; stroke-linejoin: miter"/>
   </g>
   <g id="patch_18">
    <path d="M 571.426907 182.68 
L 645.578285 182.68 
L 645.578285 59.28 
L 571.426907 59.28 
z
" clip-path="url(#pa597e84572)" style="fill: #ebebeb; stroke: #ebebeb; stroke-linejoin: miter"/>
   </g>
   <g id="FillBetweenPolyCollection_5">
    <defs>
     <path id="m201af9e298" d="M 519.084759 -112.724831 
L 519.084759 -90.564584 
L 521.265681 -90.618618 
L 523.446604 -88.131945 
L 525.627527 -86.045042 
L 527.80845 -89.007175 
L 529.989373 -91.331583 
L 532.170296 -84.413659 
L 534.351219 -75.927245 
L 536.532141 -69.635962 
L 538.713064 -64.565107 
L 540.893987 -64.897125 
L 543.07491 -69.972383 
L 545.255833 -78.627709 
L 547.436756 -84.210775 
L 549.617679 -81.97922 
L 551.798601 -78.260071 
L 553.979524 -70.282128 
L 556.160447 -62.427217 
L 558.34137 -63.481012 
L 560.522293 -66.17473 
L 562.703216 -67.773436 
L 564.884139 -70.790402 
L 567.065062 -71.575155 
L 569.245984 -66.387097 
L 571.426907 -63.036875 
L 573.60783 -57.202252 
L 575.788753 -49.03883 
L 577.969676 -48.725631 
L 580.150599 -52.789287 
L 582.331522 -52.839763 
L 584.512444 -53.03323 
L 586.693367 -58.472599 
L 588.87429 -66.587533 
L 591.055213 -75.022041 
L 593.236136 -78.676521 
L 595.417059 -76.801916 
L 597.597982 -77.400837 
L 599.778905 -83.530052 
L 601.959827 -88.209029 
L 604.14075 -84.654952 
L 606.321673 -82.08636 
L 608.502596 -80.407607 
L 610.683519 -83.85447 
L 612.864442 -92.683603 
L 615.045365 -99.054795 
L 617.226287 -97.395328 
L 619.40721 -93.556798 
L 621.588133 -90.873563 
L 623.769056 -85.968366 
L 625.949979 -86.583209 
L 628.130902 -88.965915 
L 630.311825 -86.257963 
L 632.492748 -83.354134 
L 634.67367 -83.864562 
L 636.854593 -85.051206 
L 639.035516 -81.90433 
L 641.216439 -76.269722 
L 643.397362 -74.24675 
L 645.578285 -78.00876 
L 647.759208 -80.703268 
L 649.94013 -82.049939 
L 652.121053 -84.186803 
L 654.301976 -83.108701 
L 656.482899 -79.036545 
L 658.663822 -78.295039 
L 660.844745 -82.580241 
L 663.025668 -86.653021 
L 665.20659 -87.54419 
L 667.387513 -86.163168 
L 669.568436 -80.63565 
L 671.749359 -75.778042 
L 673.930282 -74.541018 
L 676.111205 -78.883088 
L 678.292128 -82.147444 
L 680.473051 -83.520287 
L 682.653973 -86.717959 
L 684.834896 -88.694284 
L 687.015819 -93.160504 
L 689.196742 -97.065199 
L 691.377665 -94.019787 
L 693.558588 -88.651801 
L 695.739511 -86.064978 
L 697.920433 -88.921803 
L 700.101356 -90.941822 
L 702.282279 -88.206693 
L 704.463202 -83.618882 
L 706.644125 -80.679812 
L 708.825048 -81.666804 
L 711.005971 -83.4092 
L 711.005971 -106.550208 
L 711.005971 -106.550208 
L 708.825048 -104.246043 
L 706.644125 -105.064156 
L 704.463202 -105.943964 
L 702.282279 -109.250476 
L 700.101356 -113.934285 
L 697.920433 -112.159999 
L 695.739511 -107.728218 
L 693.558588 -110.439062 
L 691.377665 -116.328483 
L 689.196742 -119.108283 
L 687.015819 -113.811958 
L 684.834896 -108.932686 
L 682.653973 -107.776713 
L 680.473051 -105.936905 
L 678.292128 -105.953595 
L 676.111205 -101.502518 
L 673.930282 -96.285603 
L 671.749359 -98.363923 
L 669.568436 -102.926728 
L 667.387513 -109.42589 
L 665.20659 -111.160769 
L 663.025668 -109.7057 
L 660.844745 -103.758857 
L 658.663822 -100.156732 
L 656.482899 -100.989053 
L 654.301976 -105.516827 
L 652.121053 -106.704591 
L 649.94013 -105.108412 
L 647.759208 -104.764171 
L 645.578285 -101.392713 
L 643.397362 -95.28906 
L 641.216439 -98.343762 
L 639.035516 -105.089736 
L 636.854593 -108.697366 
L 634.67367 -107.266516 
L 632.492748 -105.186981 
L 630.311825 -107.70239 
L 628.130902 -112.881627 
L 625.949979 -110.872939 
L 623.769056 -109.473675 
L 621.588133 -112.575733 
L 619.40721 -116.125941 
L 617.226287 -120.621423 
L 615.045365 -123.561547 
L 612.864442 -116.829312 
L 610.683519 -106.977758 
L 608.502596 -103.380822 
L 606.321673 -105.296216 
L 604.14075 -108.219117 
L 601.959827 -112.874068 
L 599.778905 -108.538493 
L 597.597982 -102.805952 
L 595.417059 -101.918829 
L 593.236136 -101.243358 
L 591.055213 -97.54204 
L 588.87429 -89.060745 
L 586.693367 -80.641939 
L 584.512444 -75.931551 
L 582.331522 -78.079961 
L 580.150599 -78.544338 
L 577.969676 -74.832729 
L 575.788753 -75.061726 
L 573.60783 -83.267353 
L 571.426907 -88.559472 
L 569.245984 -91.871901 
L 567.065062 -95.629425 
L 564.884139 -95.10919 
L 562.703216 -92.083782 
L 560.522293 -92.24641 
L 558.34137 -90.483045 
L 556.160447 -89.772338 
L 553.979524 -97.345532 
L 551.798601 -102.836114 
L 549.617679 -105.646157 
L 547.436756 -108.605907 
L 545.255833 -103.094508 
L 543.07491 -95.150736 
L 540.893987 -90.141903 
L 538.713064 -87.117667 
L 536.532141 -92.338639 
L 534.351219 -98.720879 
L 532.170296 -107.502443 
L 529.989373 -115.263181 
L 527.80845 -112.309729 
L 525.627527 -108.521358 
L 523.446604 -109.652854 
L 521.265681 -111.656367 
L 519.084759 -112.724831 
z
" style="stroke: #1f77b4; stroke-opacity: 0.15"/>
    </defs>
    <g clip-path="url(#pa597e84572)">
     <use xlink:href="#m201af9e298" x="0" y="215.397188" style="fill: #1f77b4; fill-opacity: 0.15; stroke: #1f77b4; stroke-opacity: 0.15"/>
    </g>
   </g>
   <g id="FillBetweenPolyCollection_6">
    <defs>
     <path id="mb64a962bfd" d="M 519.084759 -108.371021 
L 519.084759 -55.969107 
L 521.265681 -65.008324 
L 523.446604 -71.588692 
L 525.627527 -73.500311 
L 527.80845 -76.706277 
L 529.989373 -83.3651 
L 532.170296 -75.326197 
L 534.351219 -63.838935 
L 536.532141 -59.109042 
L 538.713064 -62.096667 
L 540.893987 -69.016718 
L 543.07491 -74.912355 
L 545.255833 -80.735304 
L 547.436756 -77.720727 
L 549.617679 -75.787618 
L 551.798601 -75.067001 
L 553.979524 -76.404458 
L 556.160447 -82.406572 
L 558.34137 -85.236001 
L 560.522293 -84.186038 
L 562.703216 -82.372473 
L 564.884139 -79.00427 
L 567.065062 -74.940445 
L 569.245984 -75.116238 
L 571.426907 -73.043412 
L 573.60783 -70.432681 
L 575.788753 -68.143331 
L 577.969676 -69.776594 
L 580.150599 -72.762059 
L 582.331522 -71.778157 
L 584.512444 -81.224893 
L 586.693367 -84.77341 
L 588.87429 -91.497187 
L 591.055213 -93.761188 
L 593.236136 -90.912974 
L 595.417059 -85.837557 
L 597.597982 -89.189698 
L 599.778905 -92.969082 
L 601.959827 -91.303035 
L 604.14075 -91.468587 
L 606.321673 -90.772286 
L 608.502596 -86.360631 
L 610.683519 -84.12252 
L 612.864442 -81.10813 
L 615.045365 -80.085511 
L 617.226287 -80.52892 
L 619.40721 -86.159569 
L 621.588133 -91.930627 
L 623.769056 -90.950704 
L 625.949979 -79.524085 
L 628.130902 -69.407894 
L 630.311825 -68.202988 
L 632.492748 -74.076697 
L 634.67367 -80.051156 
L 636.854593 -76.447958 
L 639.035516 -70.644183 
L 641.216439 -73.375181 
L 643.397362 -74.495502 
L 645.578285 -77.166117 
L 647.759208 -81.272415 
L 649.94013 -79.928037 
L 652.121053 -82.407563 
L 654.301976 -89.954185 
L 656.482899 -96.794454 
L 658.663822 -93.736923 
L 660.844745 -85.117105 
L 663.025668 -81.05378 
L 665.20659 -82.457802 
L 667.387513 -90.541074 
L 669.568436 -93.68509 
L 671.749359 -90.674568 
L 673.930282 -87.585446 
L 676.111205 -91.270465 
L 678.292128 -90.366072 
L 680.473051 -77.054635 
L 682.653973 -68.300811 
L 684.834896 -67.458724 
L 687.015819 -76.647692 
L 689.196742 -87.550536 
L 691.377665 -85.072441 
L 693.558588 -76.197469 
L 695.739511 -76.834004 
L 697.920433 -78.54008 
L 700.101356 -70.000337 
L 702.282279 -67.916293 
L 704.463202 -70.113358 
L 706.644125 -72.371255 
L 708.825048 -75.334329 
L 711.005971 -84.439024 
L 711.005971 -121.674048 
L 711.005971 -121.674048 
L 708.825048 -116.913786 
L 706.644125 -117.649071 
L 704.463202 -114.413064 
L 702.282279 -108.59486 
L 700.101356 -111.022379 
L 697.920433 -122.782863 
L 695.739511 -122.775918 
L 693.558588 -121.96098 
L 691.377665 -128.240465 
L 689.196742 -134.194807 
L 687.015819 -121.42 
L 684.834896 -108.437509 
L 682.653973 -103.577759 
L 680.473051 -114.653933 
L 678.292128 -131.73808 
L 676.111205 -129.92029 
L 673.930282 -125.522624 
L 671.749359 -135.762305 
L 669.568436 -139.085379 
L 667.387513 -132.395202 
L 665.20659 -123.224557 
L 663.025668 -121.509747 
L 660.844745 -122.315248 
L 658.663822 -131.571377 
L 656.482899 -138.756524 
L 654.301976 -132.494858 
L 652.121053 -120.107793 
L 649.94013 -115.899492 
L 647.759208 -125.162371 
L 645.578285 -119.453797 
L 643.397362 -116.041481 
L 641.216439 -114.9021 
L 639.035516 -109.638944 
L 636.854593 -118.671287 
L 634.67367 -124.286805 
L 632.492748 -117.593218 
L 630.311825 -112.259858 
L 628.130902 -109.968512 
L 625.949979 -123.573498 
L 623.769056 -139.9258 
L 621.588133 -133.594694 
L 619.40721 -124.49359 
L 617.226287 -117.454864 
L 615.045365 -118.372964 
L 612.864442 -123.591382 
L 610.683519 -134.556785 
L 608.502596 -137.418303 
L 606.321673 -137.475862 
L 604.14075 -138.911549 
L 601.959827 -138.460762 
L 599.778905 -140.408255 
L 597.597982 -131.743712 
L 595.417059 -128.718818 
L 593.236136 -134.270778 
L 591.055213 -133.924204 
L 588.87429 -132.063061 
L 586.693367 -129.831787 
L 584.512444 -126.368178 
L 582.331522 -119.55589 
L 580.150599 -120.061156 
L 577.969676 -113.943407 
L 575.788753 -113.629996 
L 573.60783 -113.058696 
L 571.426907 -119.418289 
L 569.245984 -123.254904 
L 567.065062 -117.94131 
L 564.884139 -114.65255 
L 562.703216 -118.525367 
L 560.522293 -127.614723 
L 558.34137 -133.596936 
L 556.160447 -131.046321 
L 553.979524 -120.941511 
L 551.798601 -115.261498 
L 549.617679 -120.237629 
L 547.436756 -130.278267 
L 545.255833 -137.010612 
L 543.07491 -128.601747 
L 540.893987 -119.461716 
L 538.713064 -107.062953 
L 536.532141 -103.304586 
L 534.351219 -109.724351 
L 532.170296 -120.427316 
L 529.989373 -129.060784 
L 527.80845 -122.632481 
L 525.627527 -122.507214 
L 523.446604 -121.763463 
L 521.265681 -116.368348 
L 519.084759 -108.371021 
z
" style="stroke: #ff7f0e; stroke-opacity: 0.15"/>
    </defs>
    <g clip-path="url(#pa597e84572)">
     <use xlink:href="#mb64a962bfd" x="0" y="215.397188" style="fill: #ff7f0e; fill-opacity: 0.15; stroke: #ff7f0e; stroke-opacity: 0.15"/>
    </g>
   </g>
   <g id="line2d_27">
    <path d="M 509.488698 112.284556 
L 720.602031 112.284556 
" clip-path="url(#pa597e84572)" style="fill: none; stroke-dasharray: 2.96,1.28; stroke-dashoffset: 0; stroke: #000000; stroke-width: 0.8"/>
   </g>
   <g id="matplotlib.axis_5">
    <g id="xtick_11">
     <g id="line2d_28">
      <g>
       <use xlink:href="#m868a892f77" x="514.722913" y="182.68" style="stroke: #000000; stroke-width: 0.8"/>
      </g>
     </g>
     <g id="text_22">
      <!-- 0 -->
      <g transform="translate(512.496038 194.998906) scale(0.07 -0.07)">
       <use xlink:href="#DejaVuSans-30"/>
      </g>
     </g>
    </g>
    <g id="xtick_12">
     <g id="line2d_29">
      <g>
       <use xlink:href="#m868a892f77" x="558.34137" y="182.68" style="stroke: #000000; stroke-width: 0.8"/>
      </g>
     </g>
     <g id="text_23">
      <!-- 10 -->
      <g transform="translate(553.88762 194.998906) scale(0.07 -0.07)">
       <use xlink:href="#DejaVuSans-31"/>
       <use xlink:href="#DejaVuSans-30" transform="translate(63.623047 0)"/>
      </g>
     </g>
    </g>
    <g id="xtick_13">
     <g id="line2d_30">
      <g>
       <use xlink:href="#m868a892f77" x="601.959827" y="182.68" style="stroke: #000000; stroke-width: 0.8"/>
      </g>
     </g>
     <g id="text_24">
      <!-- 20 -->
      <g transform="translate(597.506077 194.998906) scale(0.07 -0.07)">
       <use xlink:href="#DejaVuSans-32"/>
       <use xlink:href="#DejaVuSans-30" transform="translate(63.623047 0)"/>
      </g>
     </g>
    </g>
    <g id="xtick_14">
     <g id="line2d_31">
      <g>
       <use xlink:href="#m868a892f77" x="645.578285" y="182.68" style="stroke: #000000; stroke-width: 0.8"/>
      </g>
     </g>
     <g id="text_25">
      <!-- 30 -->
      <g transform="translate(641.124535 194.998906) scale(0.07 -0.07)">
       <use xlink:href="#DejaVuSans-33"/>
       <use xlink:href="#DejaVuSans-30" transform="translate(63.623047 0)"/>
      </g>
     </g>
    </g>
    <g id="xtick_15">
     <g id="line2d_32">
      <g>
       <use xlink:href="#m868a892f77" x="689.196742" y="182.68" style="stroke: #000000; stroke-width: 0.8"/>
      </g>
     </g>
     <g id="text_26">
      <!-- 40 -->
      <g transform="translate(684.742992 194.998906) scale(0.07 -0.07)">
       <use xlink:href="#DejaVuSans-34"/>
       <use xlink:href="#DejaVuSans-30" transform="translate(63.623047 0)"/>
      </g>
     </g>
    </g>
    <g id="text_27">
     <!-- Frequency (Hz) -->
     <g transform="translate(584.881615 206.533437) scale(0.08 -0.08)">
      <use xlink:href="#DejaVuSans-46"/>
      <use xlink:href="#DejaVuSans-72" transform="translate(50.269531 0)"/>
      <use xlink:href="#DejaVuSans-65" transform="translate(89.132812 0)"/>
      <use xlink:href="#DejaVuSans-71" transform="translate(150.65625 0)"/>
      <use xlink:href="#DejaVuSans-75" transform="translate(214.132812 0)"/>
      <use xlink:href="#DejaVuSans-65" transform="translate(277.511719 0)"/>
      <use xlink:href="#DejaVuSans-6e" transform="translate(339.035156 0)"/>
      <use xlink:href="#DejaVuSans-63" transform="translate(402.414062 0)"/>
      <use xlink:href="#DejaVuSans-79" transform="translate(457.394531 0)"/>
      <use xlink:href="#DejaVuSans-20" transform="translate(516.574219 0)"/>
      <use xlink:href="#DejaVuSans-28" transform="translate(548.361328 0)"/>
      <use xlink:href="#DejaVuSans-48" transform="translate(587.375 0)"/>
      <use xlink:href="#DejaVuSans-7a" transform="translate(662.570312 0)"/>
      <use xlink:href="#DejaVuSans-29" transform="translate(715.060547 0)"/>
     </g>
    </g>
   </g>
   <g id="matplotlib.axis_6">
    <g id="ytick_11">
     <g id="line2d_33">
      <g>
       <use xlink:href="#m9df34c8c72" x="509.488698" y="159.924634" style="stroke: #000000; stroke-width: 0.8"/>
      </g>
     </g>
    </g>
    <g id="ytick_12">
     <g id="line2d_34">
      <g>
       <use xlink:href="#m9df34c8c72" x="509.488698" y="136.104595" style="stroke: #000000; stroke-width: 0.8"/>
      </g>
     </g>
    </g>
    <g id="ytick_13">
     <g id="line2d_35">
      <g>
       <use xlink:href="#m9df34c8c72" x="509.488698" y="112.284556" style="stroke: #000000; stroke-width: 0.8"/>
      </g>
     </g>
    </g>
    <g id="ytick_14">
     <g id="line2d_36">
      <g>
       <use xlink:href="#m9df34c8c72" x="509.488698" y="88.464517" style="stroke: #000000; stroke-width: 0.8"/>
      </g>
     </g>
    </g>
    <g id="ytick_15">
     <g id="line2d_37">
      <g>
       <use xlink:href="#m9df34c8c72" x="509.488698" y="64.644479" style="stroke: #000000; stroke-width: 0.8"/>
      </g>
     </g>
    </g>
    <g id="text_28">
     <!-- ERD/ERS (dB) -->
     <g transform="translate(500.324948 148.236875) rotate(-90) scale(0.08 -0.08)">
      <use xlink:href="#DejaVuSans-45"/>
      <use xlink:href="#DejaVuSans-52" transform="translate(63.183594 0)"/>
      <use xlink:href="#DejaVuSans-44" transform="translate(132.666016 0)"/>
      <use xlink:href="#DejaVuSans-2f" transform="translate(209.667969 0)"/>
      <use xlink:href="#DejaVuSans-45" transform="translate(243.359375 0)"/>
      <use xlink:href="#DejaVuSans-52" transform="translate(306.542969 0)"/>
      <use xlink:href="#DejaVuSans-53" transform="translate(376.025391 0)"/>
      <use xlink:href="#DejaVuSans-20" transform="translate(439.501953 0)"/>
      <use xlink:href="#DejaVuSans-28" transform="translate(471.289062 0)"/>
      <use xlink:href="#DejaVuSans-64" transform="translate(510.302734 0)"/>
      <use xlink:href="#DejaVuSans-42" transform="translate(573.779297 0)"/>
      <use xlink:href="#DejaVuSans-29" transform="translate(642.382812 0)"/>
     </g>
    </g>
   </g>
   <g id="line2d_38">
    <path d="M 519.084759 113.75248 
L 521.265681 114.259695 
L 523.446604 116.504788 
L 525.627527 118.113987 
L 527.80845 114.738735 
L 529.989373 112.099805 
L 532.170296 119.439136 
L 534.351219 128.073126 
L 536.532141 134.409887 
L 538.713064 139.555801 
L 540.893987 137.877674 
L 543.07491 132.835628 
L 545.255833 124.536079 
L 547.436756 118.988846 
L 549.617679 121.584499 
L 551.798601 124.849095 
L 553.979524 131.583357 
L 556.160447 139.29741 
L 558.34137 138.415159 
L 560.522293 136.186618 
L 562.703216 135.468579 
L 564.884139 132.447391 
L 567.065062 131.794897 
L 569.245984 136.267689 
L 571.426907 139.599014 
L 573.60783 145.162385 
L 575.788753 153.34691 
L 577.969676 153.618008 
L 580.150599 149.730375 
L 582.331522 149.937325 
L 584.512444 150.914797 
L 586.693367 145.839919 
L 588.87429 137.573048 
L 591.055213 129.115147 
L 593.236136 125.437248 
L 595.417059 126.036815 
L 597.597982 125.293793 
L 599.778905 119.362915 
L 601.959827 114.855639 
L 604.14075 118.960153 
L 606.321673 121.705899 
L 608.502596 123.502973 
L 610.683519 119.981073 
L 612.864442 110.64073 
L 615.045365 104.089017 
L 617.226287 106.388812 
L 619.40721 110.555818 
L 621.588133 113.672539 
L 623.769056 117.676167 
L 625.949979 116.669114 
L 628.130902 114.473416 
L 630.311825 118.417011 
L 632.492748 121.12663 
L 634.67367 119.831648 
L 636.854593 118.522902 
L 639.035516 121.900155 
L 641.216439 128.090446 
L 643.397362 130.629282 
L 645.578285 125.696451 
L 647.759208 122.663468 
L 649.94013 121.818012 
L 652.121053 119.95149 
L 654.301976 121.084424 
L 656.482899 125.384388 
L 658.663822 126.171302 
L 660.844745 122.227639 
L 663.025668 117.217827 
L 665.20659 116.044708 
L 667.387513 117.602658 
L 669.568436 123.615998 
L 671.749359 128.326205 
L 673.930282 129.983877 
L 676.111205 125.204384 
L 678.292128 121.346668 
L 680.473051 120.668592 
L 682.653973 118.149852 
L 684.834896 116.583702 
L 687.015819 111.910956 
L 689.196742 107.310447 
L 691.377665 110.223052 
L 693.558588 115.851756 
L 695.739511 118.500589 
L 697.920433 114.856286 
L 700.101356 112.959134 
L 702.282279 116.668603 
L 704.463202 120.615765 
L 706.644125 122.525203 
L 708.825048 122.440764 
L 711.005971 120.417484 
" clip-path="url(#pa597e84572)" style="fill: none; stroke: #1f77b4; stroke-width: 1.3; stroke-linecap: square"/>
   </g>
   <g id="line2d_39">
    <path d="M 519.084759 133.227124 
L 521.265681 124.708851 
L 523.446604 118.72111 
L 525.627527 117.393425 
L 527.80845 115.727809 
L 529.989373 109.184245 
L 532.170296 117.520431 
L 534.351219 128.615544 
L 536.532141 134.190374 
L 538.713064 130.817378 
L 540.893987 121.15797 
L 543.07491 113.640136 
L 545.255833 106.52423 
L 547.436756 111.397691 
L 549.617679 117.384564 
L 551.798601 120.232938 
L 553.979524 116.724203 
L 556.160447 108.670741 
L 558.34137 105.980719 
L 560.522293 109.496807 
L 562.703216 114.948268 
L 564.884139 118.568777 
L 567.065062 118.95631 
L 569.245984 116.211616 
L 571.426907 119.166337 
L 573.60783 123.651499 
L 575.788753 124.510524 
L 577.969676 123.537187 
L 580.150599 118.98558 
L 582.331522 119.730164 
L 584.512444 111.600652 
L 586.693367 108.094589 
L 588.87429 103.617063 
L 591.055213 101.554492 
L 593.236136 102.805312 
L 595.417059 108.119 
L 597.597982 104.930482 
L 599.778905 98.708519 
L 601.959827 100.515289 
L 604.14075 100.20712 
L 606.321673 101.273113 
L 608.502596 103.507721 
L 610.683519 106.057535 
L 612.864442 113.047431 
L 615.045365 116.16795 
L 617.226287 116.405295 
L 619.40721 110.070608 
L 621.588133 102.634527 
L 623.769056 99.958936 
L 625.949979 113.848396 
L 628.130902 125.708984 
L 630.311825 125.165765 
L 632.492748 119.56223 
L 634.67367 113.228207 
L 636.854593 117.837565 
L 639.035516 125.255624 
L 641.216439 121.258547 
L 643.397362 120.128696 
L 645.578285 117.087231 
L 647.759208 112.179795 
L 649.94013 117.483423 
L 652.121053 114.139509 
L 654.301976 104.172666 
L 656.482899 97.621698 
L 658.663822 102.743037 
L 660.844745 111.681011 
L 663.025668 114.115424 
L 665.20659 112.556008 
L 667.387513 103.929049 
L 669.568436 99.011953 
L 671.749359 102.178751 
L 673.930282 108.843153 
L 676.111205 104.80181 
L 678.292128 104.345112 
L 680.473051 119.542903 
L 682.653973 129.457903 
L 684.834896 127.449071 
L 687.015819 116.363342 
L 689.196742 104.524516 
L 691.377665 108.740734 
L 693.558588 116.317963 
L 695.739511 115.592227 
L 697.920433 114.735716 
L 700.101356 124.88583 
L 702.282279 127.141611 
L 704.463202 123.133976 
L 706.644125 120.387024 
L 708.825048 119.27313 
L 711.005971 112.340651 
" clip-path="url(#pa597e84572)" style="fill: none; stroke: #ff7f0e; stroke-width: 1.3; stroke-linecap: square"/>
   </g>
   <g id="patch_19">
    <path d="M 509.488698 182.68 
L 509.488698 59.28 
" style="fill: none; stroke: #000000; stroke-width: 0.8; stroke-linejoin: miter; stroke-linecap: square"/>
   </g>
   <g id="patch_20">
    <path d="M 720.602031 182.68 
L 720.602031 59.28 
" style="fill: none; stroke: #000000; stroke-width: 0.8; stroke-linejoin: miter; stroke-linecap: square"/>
   </g>
   <g id="patch_21">
    <path d="M 509.488698 182.68 
L 720.602031 182.68 
" style="fill: none; stroke: #000000; stroke-width: 0.8; stroke-linejoin: miter; stroke-linecap: square"/>
   </g>
   <g id="patch_22">
    <path d="M 509.488698 59.28 
L 720.602031 59.28 
" style="fill: none; stroke: #000000; stroke-width: 0.8; stroke-linejoin: miter; stroke-linecap: square"/>
   </g>
   <g id="text_29">
    <!-- C4 -->
    <g transform="translate(609.039974 53.28) scale(0.09 -0.09)">
     <use xlink:href="#DejaVuSans-43"/>
     <use xlink:href="#DejaVuSans-34" transform="translate(69.824219 0)"/>
    </g>
   </g>
  </g>
  <g id="text_30">
   <!-- ERD/ERS — MI — S07 (Movement vs Rest) -->
   <g transform="translate(248.408984 15.558281) scale(0.11 -0.11)">
    <defs>
     <path id="DejaVuSans-2014" d="M 313 1978 
L 6088 1978 
L 6088 1528 
L 313 1528 
L 313 1978 
z
" transform="scale(0.015625)"/>
     <path id="DejaVuSans-4d" d="M 628 4666 
L 1569 4666 
L 2759 1491 
L 3956 4666 
L 4897 4666 
L 4897 0 
L 4281 0 
L 4281 4097 
L 3078 897 
L 2444 897 
L 1241 4097 
L 1241 0 
L 628 0 
L 628 4666 
z
" transform="scale(0.015625)"/>
     <path id="DejaVuSans-49" d="M 628 4666 
L 1259 4666 
L 1259 0 
L 628 0 
L 628 4666 
z
" transform="scale(0.015625)"/>
     <path id="DejaVuSans-37" d="M 525 4666 
L 3525 4666 
L 3525 4397 
L 1831 0 
L 1172 0 
L 2766 4134 
L 525 4134 
L 525 4666 
z
" transform="scale(0.015625)"/>
     <path id="DejaVuSans-6f" d="M 1959 3097 
Q 1497 3097 1228 2736 
Q 959 2375 959 1747 
Q 959 1119 1226 758 
Q 1494 397 1959 397 
Q 2419 397 2687 759 
Q 2956 1122 2956 1747 
Q 2956 2369 2687 2733 
Q 2419 3097 1959 3097 
z
M 1959 3584 
Q 2709 3584 3137 3096 
Q 3566 2609 3566 1747 
Q 3566 888 3137 398 
Q 2709 -91 1959 -91 
Q 1206 -91 779 398 
Q 353 888 353 1747 
Q 353 2609 779 3096 
Q 1206 3584 1959 3584 
z
" transform="scale(0.015625)"/>
     <path id="DejaVuSans-76" d="M 191 3500 
L 800 3500 
L 1894 563 
L 2988 3500 
L 3597 3500 
L 2284 0 
L 1503 0 
L 191 3500 
z
" transform="scale(0.015625)"/>
     <path id="DejaVuSans-6d" d="M 3328 2828 
Q 3544 3216 3844 3400 
Q 4144 3584 4550 3584 
Q 5097 3584 5394 3201 
Q 5691 2819 5691 2113 
L 5691 0 
L 5113 0 
L 5113 2094 
Q 5113 2597 4934 2840 
Q 4756 3084 4391 3084 
Q 3944 3084 3684 2787 
Q 3425 2491 3425 1978 
L 3425 0 
L 2847 0 
L 2847 2094 
Q 2847 2600 2669 2842 
Q 2491 3084 2119 3084 
Q 1678 3084 1418 2786 
Q 1159 2488 1159 1978 
L 1159 0 
L 581 0 
L 581 3500 
L 1159 3500 
L 1159 2956 
Q 1356 3278 1631 3431 
Q 1906 3584 2284 3584 
Q 2666 3584 2933 3390 
Q 3200 3197 3328 2828 
z
" transform="scale(0.015625)"/>
     <path id="DejaVuSans-74" d="M 1172 4494 
L 1172 3500 
L 2356 3500 
L 2356 3053 
L 1172 3053 
L 1172 1153 
Q 1172 725 1289 603 
Q 1406 481 1766 481 
L 2356 481 
L 2356 0 
L 1766 0 
Q 1100 0 847 248 
Q 594 497 594 1153 
L 594 3053 
L 172 3053 
L 172 3500 
L 594 3500 
L 594 4494 
L 1172 4494 
z
" transform="scale(0.015625)"/>
     <path id="DejaVuSans-73" d="M 2834 3397 
L 2834 2853 
Q 2591 2978 2328 3040 
Q 2066 3103 1784 3103 
Q 1356 3103 1142 2972 
Q 928 2841 928 2578 
Q 928 2378 1081 2264 
Q 1234 2150 1697 2047 
L 1894 2003 
Q 2506 1872 2764 1633 
Q 3022 1394 3022 966 
Q 3022 478 2636 193 
Q 2250 -91 1575 -91 
Q 1294 -91 989 -36 
Q 684 19 347 128 
L 347 722 
Q 666 556 975 473 
Q 1284 391 1588 391 
Q 1994 391 2212 530 
Q 2431 669 2431 922 
Q 2431 1156 2273 1281 
Q 2116 1406 1581 1522 
L 1381 1569 
Q 847 1681 609 1914 
Q 372 2147 372 2553 
Q 372 3047 722 3315 
Q 1072 3584 1716 3584 
Q 2034 3584 2315 3537 
Q 2597 3491 2834 3397 
z
" transform="scale(0.015625)"/>
    </defs>
    <use xlink:href="#DejaVuSans-45"/>
    <use xlink:href="#DejaVuSans-52" transform="translate(63.183594 0)"/>
    <use xlink:href="#DejaVuSans-44" transform="translate(132.666016 0)"/>
    <use xlink:href="#DejaVuSans-2f" transform="translate(209.667969 0)"/>
    <use xlink:href="#DejaVuSans-45" transform="translate(243.359375 0)"/>
    <use xlink:href="#DejaVuSans-52" transform="translate(306.542969 0)"/>
    <use xlink:href="#DejaVuSans-53" transform="translate(376.025391 0)"/>
    <use xlink:href="#DejaVuSans-20" transform="translate(439.501953 0)"/>
    <use xlink:href="#DejaVuSans-2014" transform="translate(471.289062 0)"/>
    <use xlink:href="#DejaVuSans-20" transform="translate(571.289062 0)"/>
    <use xlink:href="#DejaVuSans-4d" transform="translate(603.076172 0)"/>
    <use xlink:href="#DejaVuSans-49" transform="translate(689.355469 0)"/>
    <use xlink:href="#DejaVuSans-20" transform="translate(718.847656 0)"/>
    <use xlink:href="#DejaVuSans-2014" transform="translate(750.634766 0)"/>
    <use xlink:href="#DejaVuSans-20" transform="translate(850.634766 0)"/>
    <use xlink:href="#DejaVuSans-53" transform="translate(882.421875 0)"/>
    <use xlink:href="#DejaVuSans-30" transform="translate(945.898438 0)"/>
    <use xlink:href="#DejaVuSans-37" transform="translate(1009.521484 0)"/>
    <use xlink:href="#DejaVuSans-20" transform="translate(1073.144531 0)"/>
    <use xlink:href="#DejaVuSans-28" transform="translate(1104.931641 0)"/>
    <use xlink:href="#DejaVuSans-4d" transform="translate(1143.945312 0)"/>
    <use xlink:href="#DejaVuSans-6f" transform="translate(1230.224609 0)"/>
    <use xlink:href="#DejaVuSans-76" transform="translate(1291.40625 0)"/>
    <use xlink:href="#DejaVuSans-65" transform="translate(1350.585938 0)"/>
    <use xlink:href="#DejaVuSans-6d" transform="translate(1412.109375 0)"/>
    <use xlink:href="#DejaVuSans-65" transform="translate(1509.521484 0)"/>
    <use xlink:href="#DejaVuSans-6e" transform="translate(1571.044922 0)"/>
    <use xlink:href="#DejaVuSans-74" transform="translate(1634.423828 0)"/>
    <use xlink:href="#DejaVuSans-20" transform="translate(1673.632812 0)"/>
    <use xlink:href="#DejaVuSans-76" transform="translate(1705.419922 0)"/>
    <use xlink:href="#DejaVuSans-73" transform="translate(1764.599609 0)"/>
    <use xlink:href="#DejaVuSans-20" transform="translate(1816.699219 0)"/>
    <use xlink:href="#DejaVuSans-52" transform="translate(1848.486328 0)"/>
    <use xlink:href="#DejaVuSans-65" transform="translate(1913.46875 0)"/>
    <use xlink:href="#DejaVuSans-73" transform="translate(1974.992188 0)"/>
    <use xlink:href="#DejaVuSans-74" transform="translate(2027.091797 0)"/>
    <use xlink:href="#DejaVuSans-29" transform="translate(2066.300781 0)"/>
   </g>
  </g>
  <g id="legend_1">
   <g id="patch_23">
    <path d="M 663.350812 30.109375 
L 722.830031 30.109375 
Q 724.230031 30.109375 724.230031 28.709375 
L 724.230031 8.86 
Q 724.230031 7.46 722.830031 7.46 
L 663.350812 7.46 
Q 661.950812 7.46 661.950812 8.86 
L 661.950812 28.709375 
Q 661.950812 30.109375 663.350812 30.109375 
z
" style="fill: #ffffff; opacity: 0.8; stroke: #cccccc; stroke-linejoin: miter"/>
   </g>
   <g id="line2d_40">
    <path d="M 664.750812 13.128906 
L 671.750812 13.128906 
L 678.750812 13.128906 
" style="fill: none; stroke: #1f77b4; stroke-width: 1.3; stroke-linecap: square"/>
   </g>
   <g id="text_31">
    <!-- Movement -->
    <g transform="translate(684.350812 15.578906) scale(0.07 -0.07)">
     <use xlink:href="#DejaVuSans-4d"/>
     <use xlink:href="#DejaVuSans-6f" transform="translate(86.279297 0)"/>
     <use xlink:href="#DejaVuSans-76" transform="translate(147.460938 0)"/>
     <use xlink:href="#DejaVuSans-65" transform="translate(206.640625 0)"/>
     <use xlink:href="#DejaVuSans-6d" transform="translate(268.164062 0)"/>
     <use xlink:href="#DejaVuSans-65" transform="translate(365.576172 0)"/>
     <use xlink:href="#DejaVuSans-6e" transform="translate(427.099609 0)"/>
     <use xlink:href="#DejaVuSans-74" transform="translate(490.478516 0)"/>
    </g>
   </g>
   <g id="line2d_41">
    <path d="M 664.750812 23.403594 
L 671.750812 23.403594 
L 678.750812 23.403594 
" style="fill: none; stroke: #ff7f0e; stroke-width: 1.3; stroke-linecap: square"/>
   </g>
   <g id="text_32">
    <!-- rest -->
    <g transform="translate(684.350812 25.853594) scale(0.07 -0.07)">
     <use xlink:href="#DejaVuSans-72"/>
     <use xlink:href="#DejaVuSans-65" transform="translate(38.863281 0)"/>
     <use xlink:href="#DejaVuSans-73" transform="translate(100.386719 0)"/>
     <use xlink:href="#DejaVuSans-74" transform="translate(152.486328 0)"/>
    </g>
   </g>
  </g>
 </g>
 <defs>
  <clipPath id="pf04f730ab5">
   <rect x="36.262031" y="59.28" width="211.113333" height="123.4"/>
  </clipPath>
  <clipPath id="p5cd7fe19ba">
   <rect x="272.875365" y="59.28" width="211.113333" height="123.4"/>
  </clipPath>
  <clipPath id="pa597e84572">
   <rect x="509.488698" y="59.28" width="211.113333" height="123.4"/>
  </clipPath>
 </defs>
</svg>
