<?xml version="1.0" encoding="utf-8" standalone="no"?>
<!DOCTYPE svg PUBLIC "-//W3C//DTD SVG 1.1//EN"
  "http://www.w3.org/Graphics/SVG/1.1/DTD/svg11.dtd">
<svg xmlns:xlink="http://www.w3.org/1999/xlink" width="731.430031pt" height="215.397188pt" viewBox="0 0 731.430031 215.397188" xmlns="http://www.w3.org/2000/svg" version="1.1">
 <metadata>
  <rdf:RDF xmlns:dc="http://purl.org/dc/elements/1.1/" xmlns:cc="http://creativecommons.org/ns#" xmlns:rdf="http://www.w3.org/1999/02/22-rdf-syntax-ns#">
   <cc:Work>
    <dc:type rdf:resource="http://purl.org/dc/dcmitype/StillImage"/>
    <dc:date>2026-06-26T22:25:42.674929</dc:date>
    <dc:format>image/svg+xml</dc:format>
    <dc:creator>
     <cc:Agent>
      <dc:title>Matplotlib v3.10.9, https://matplotlib.org/</dc:title>
     </cc:Agent>
    </dc:creator>
   </cc:Work>
  </rdf:RDF>
 </metadata>
 <defs>
  <style type="text/css">*{stroke-linejoin: round; stroke-linecap: butt}</style>
 </defs>
 <g id="figure_1">
  <g id="patch_1">
   <path d="M 0 215.397188 
L 731.430031 215.397188 
L 731.430031 0 
L 0 0 
L 0 215.397188 
z
" style="fill: none"/>
  </g>
  <g id="axes_1">
   <g id="patch_2">
    <path d="M 36.262031 182.68 
L 247.375365 182.68 
L 247.375365 59.28 
L 36.262031 59.28 
L 36.262031 182.68 
z
" style="fill: none"/>
   </g>
   <g id="patch_3">
    <path d="M 76.391012 182.68 
L 98.200241 182.68 
L 98.200241 59.28 
L 76.391012 59.28 
z
" clip-path="url(#pc82da442ed)" style="fill: #d9d9d9; stroke: #d9d9d9; stroke-linejoin: miter"/>
   </g>
   <g id="patch_4">
    <path d="M 98.200241 182.68 
L 172.351618 182.68 
L 172.351618 59.28 
L 98.200241 59.28 
z
" clip-path="url(#pc82da442ed)" style="fill: #ebebeb; stroke: #ebebeb; stroke-linejoin: miter"/>
   </g>
   <g id="FillBetweenPolyCollection_1">
    <defs>
     <path id="m3e1f8d3e12" d="M 45.858092 -100.338265 
L 45.858092 -77.24288 
L 48.039015 -77.655263 
L 50.219938 -73.769723 
L 52.40086 -66.775413 
L 54.581783 -65.932731 
L 56.762706 -69.587181 
L 58.943629 -69.099111 
L 61.124552 -66.357424 
L 63.305475 -66.323637 
L 65.486398 -68.310584 
L 67.667321 -69.069048 
L 69.848243 -69.928902 
L 72.029166 -71.228434 
L 74.210089 -74.747584 
L 76.391012 -79.364215 
L 78.571935 -82.672875 
L 80.752858 -80.354102 
L 82.933781 -76.102025 
L 85.114703 -69.809638 
L 87.295626 -65.781508 
L 89.476549 -68.175774 
L 91.657472 -74.916669 
L 93.838395 -77.376394 
L 96.019318 -74.679974 
L 98.200241 -72.071004 
L 100.381163 -69.10166 
L 102.562086 -63.793919 
L 104.743009 -61.634947 
L 106.923932 -64.347673 
L 109.104855 -67.749053 
L 111.285778 -68.134884 
L 113.466701 -63.985291 
L 115.647624 -59.683131 
L 117.828546 -60.378093 
L 120.009469 -63.212667 
L 122.190392 -65.728415 
L 124.371315 -67.528559 
L 126.552238 -67.000785 
L 128.733161 -65.498549 
L 130.914084 -72.350472 
L 133.095006 -77.043391 
L 135.275929 -77.381331 
L 137.456852 -76.059852 
L 139.637775 -73.452025 
L 141.818698 -71.432428 
L 143.999621 -71.455717 
L 146.180544 -72.326663 
L 148.361467 -75.940935 
L 150.542389 -77.287652 
L 152.723312 -77.425657 
L 154.904235 -77.797831 
L 157.085158 -79.203871 
L 159.266081 -78.404522 
L 161.447004 -79.465337 
L 163.627927 -83.442027 
L 165.808849 -84.774179 
L 167.989772 -82.304218 
L 170.170695 -80.152375 
L 172.351618 -80.037552 
L 174.532541 -78.577604 
L 176.713464 -74.49397 
L 178.894387 -73.277548 
L 181.075309 -73.821198 
L 183.256232 -76.603869 
L 185.437155 -83.20869 
L 187.618078 -85.508218 
L 189.799001 -80.678278 
L 191.979924 -76.573735 
L 194.160847 -74.678033 
L 196.34177 -75.302574 
L 198.522692 -79.305886 
L 200.703615 -81.726907 
L 202.884538 -81.181599 
L 205.065461 -80.508444 
L 207.246384 -81.869028 
L 209.427307 -78.852491 
L 211.60823 -73.328762 
L 213.789152 -75.385783 
L 215.970075 -80.526817 
L 218.150998 -83.820389 
L 220.331921 -86.203365 
L 222.512844 -85.435808 
L 224.693767 -86.081491 
L 226.87469 -86.774923 
L 229.055613 -80.852121 
L 231.236535 -76.211251 
L 233.417458 -77.886117 
L 235.598381 -80.356385 
L 237.779304 -81.287338 
L 237.779304 -98.74635 
L 237.779304 -98.74635 
L 235.598381 -98.468904 
L 233.417458 -96.488504 
L 231.236535 -94.601841 
L 229.055613 -98.79492 
L 226.87469 -103.698922 
L 224.693767 -102.936477 
L 222.512844 -102.173197 
L 220.331921 -102.949468 
L 218.150998 -101.037103 
L 215.970075 -98.714559 
L 213.789152 -94.217284 
L 211.60823 -93.191866 
L 209.427307 -99.659632 
L 207.246384 -100.693036 
L 205.065461 -98.10774 
L 202.884538 -99.064773 
L 200.703615 -99.492546 
L 198.522692 -96.999151 
L 196.34177 -92.190078 
L 194.160847 -91.622858 
L 191.979924 -92.804985 
L 189.799001 -96.592515 
L 187.618078 -102.146149 
L 185.437155 -99.375646 
L 183.256232 -92.843624 
L 181.075309 -90.514105 
L 178.894387 -89.518565 
L 176.713464 -91.728823 
L 174.532541 -97.01968 
L 172.351618 -98.423465 
L 170.170695 -98.840353 
L 167.989772 -100.772578 
L 165.808849 -102.50101 
L 163.627927 -101.265456 
L 161.447004 -97.254581 
L 159.266081 -95.531159 
L 157.085158 -96.556507 
L 154.904235 -95.632699 
L 152.723312 -95.086604 
L 150.542389 -94.419158 
L 148.361467 -93.350559 
L 146.180544 -90.357174 
L 143.999621 -89.198789 
L 141.818698 -88.695814 
L 139.637775 -90.280303 
L 137.456852 -93.508308 
L 135.275929 -95.74421 
L 133.095006 -95.787924 
L 130.914084 -91.589757 
L 128.733161 -84.006626 
L 126.552238 -85.512331 
L 124.371315 -85.857422 
L 122.190392 -83.665269 
L 120.009469 -81.35383 
L 117.828546 -77.46296 
L 115.647624 -76.322218 
L 113.466701 -80.629905 
L 111.285778 -84.654563 
L 109.104855 -85.675635 
L 106.923932 -83.595513 
L 104.743009 -81.217133 
L 102.562086 -83.728777 
L 100.381163 -88.073366 
L 98.200241 -91.554275 
L 96.019318 -93.724914 
L 93.838395 -95.599811 
L 91.657472 -93.693083 
L 89.476549 -87.254885 
L 87.295626 -85.421277 
L 85.114703 -90.560281 
L 82.933781 -97.720952 
L 80.752858 -101.546275 
L 78.571935 -102.297659 
L 76.391012 -98.36529 
L 74.210089 -95.144772 
L 72.029166 -92.251913 
L 69.848243 -90.32412 
L 67.667321 -88.763462 
L 65.486398 -88.425064 
L 63.305475 -86.287282 
L 61.124552 -85.360363 
L 58.943629 -87.063086 
L 56.762706 -87.882421 
L 54.581783 -85.777916 
L 52.40086 -87.451018 
L 50.219938 -94.831753 
L 48.039015 -99.397775 
L 45.858092 -100.338265 
z
" style="stroke: #1f77b4; stroke-opacity: 0.15"/>
    </defs>
    <g clip-path="url(#pc82da442ed)">
     <use xlink:href="#m3e1f8d3e12" x="0" y="215.397188" style="fill: #1f77b4; fill-opacity: 0.15; stroke: #1f77b4; stroke-opacity: 0.15"/>
    </g>
   </g>
   <g id="FillBetweenPolyCollection_2">
    <defs>
     <path id="m1d7cdf09aa" d="M 45.858092 -107.75442 
L 45.858092 -58.843445 
L 48.039015 -59.768769 
L 50.219938 -65.316705 
L 52.40086 -77.657712 
L 54.581783 -87.926005 
L 56.762706 -87.445786 
L 58.943629 -80.788796 
L 61.124552 -79.474767 
L 63.305475 -86.214171 
L 65.486398 -86.646999 
L 67.667321 -85.098302 
L 69.848243 -83.668952 
L 72.029166 -86.96243 
L 74.210089 -94.826117 
L 76.391012 -98.211586 
L 78.571935 -100.254977 
L 80.752858 -103.630072 
L 82.933781 -98.844195 
L 85.114703 -96.532937 
L 87.295626 -99.38388 
L 89.476549 -102.98918 
L 91.657472 -96.002091 
L 93.838395 -90.394289 
L 96.019318 -90.240676 
L 98.200241 -82.061671 
L 100.381163 -77.498503 
L 102.562086 -80.558228 
L 104.743009 -81.71853 
L 106.923932 -79.73671 
L 109.104855 -78.966288 
L 111.285778 -77.037594 
L 113.466701 -75.210634 
L 115.647624 -75.73049 
L 117.828546 -79.513072 
L 120.009469 -78.790226 
L 122.190392 -77.351928 
L 124.371315 -72.166147 
L 126.552238 -69.314703 
L 128.733161 -69.360903 
L 130.914084 -74.330185 
L 133.095006 -75.329155 
L 135.275929 -81.547006 
L 137.456852 -80.101949 
L 139.637775 -73.424459 
L 141.818698 -74.450765 
L 143.999621 -77.099577 
L 146.180544 -80.783114 
L 148.361467 -78.432007 
L 150.542389 -72.647844 
L 152.723312 -73.125398 
L 154.904235 -78.519136 
L 157.085158 -80.380989 
L 159.266081 -76.850838 
L 161.447004 -75.652635 
L 163.627927 -70.3769 
L 165.808849 -62.827602 
L 167.989772 -57.128135 
L 170.170695 -57.142155 
L 172.351618 -61.947774 
L 174.532541 -72.024727 
L 176.713464 -83.646849 
L 178.894387 -86.960722 
L 181.075309 -85.189832 
L 183.256232 -87.560946 
L 185.437155 -84.823658 
L 187.618078 -81.185684 
L 189.799001 -71.993892 
L 191.979924 -66.360064 
L 194.160847 -65.997456 
L 196.34177 -64.470714 
L 198.522692 -61.213098 
L 200.703615 -60.935739 
L 202.884538 -62.290715 
L 205.065461 -62.399494 
L 207.246384 -64.499411 
L 209.427307 -60.408063 
L 211.60823 -56.877516 
L 213.789152 -58.391431 
L 215.970075 -64.937544 
L 218.150998 -67.190269 
L 220.331921 -64.788376 
L 222.512844 -60.276072 
L 224.693767 -60.934271 
L 226.87469 -64.535796 
L 229.055613 -62.680421 
L 231.236535 -59.146269 
L 233.417458 -55.799362 
L 235.598381 -51.384145 
L 237.779304 -51.030769 
L 237.779304 -87.690271 
L 237.779304 -87.690271 
L 235.598381 -88.070806 
L 233.417458 -94.29682 
L 231.236535 -97.363242 
L 229.055613 -102.670003 
L 226.87469 -104.865016 
L 224.693767 -100.800817 
L 222.512844 -99.795776 
L 220.331921 -107.299275 
L 218.150998 -108.988827 
L 215.970075 -103.651072 
L 213.789152 -97.58366 
L 211.60823 -96.467937 
L 209.427307 -104.36574 
L 207.246384 -107.741428 
L 205.065461 -103.268146 
L 202.884538 -98.630855 
L 200.703615 -92.536634 
L 198.522692 -89.951736 
L 196.34177 -99.24555 
L 194.160847 -102.858934 
L 191.979924 -105.536959 
L 189.799001 -110.095366 
L 187.618078 -116.158806 
L 185.437155 -117.513352 
L 183.256232 -125.584446 
L 181.075309 -124.532425 
L 178.894387 -127.26098 
L 176.713464 -125.536168 
L 174.532541 -117.30776 
L 172.351618 -105.127587 
L 170.170695 -97.984559 
L 167.989772 -98.582609 
L 165.808849 -104.890966 
L 163.627927 -112.782566 
L 161.447004 -121.231002 
L 159.266081 -117.219637 
L 157.085158 -118.569827 
L 154.904235 -114.717181 
L 152.723312 -109.619772 
L 150.542389 -105.396684 
L 148.361467 -107.000394 
L 146.180544 -110.217673 
L 143.999621 -113.243627 
L 141.818698 -110.262666 
L 139.637775 -109.753808 
L 137.456852 -113.044429 
L 135.275929 -111.49892 
L 133.095006 -109.677694 
L 130.914084 -111.29133 
L 128.733161 -105.473115 
L 126.552238 -105.596367 
L 124.371315 -109.427691 
L 122.190392 -113.170695 
L 120.009469 -109.638077 
L 117.828546 -109.770875 
L 115.647624 -107.683063 
L 113.466701 -108.201655 
L 111.285778 -116.164035 
L 109.104855 -120.107509 
L 106.923932 -119.956439 
L 104.743009 -116.354556 
L 102.562086 -111.299469 
L 100.381163 -107.870612 
L 98.200241 -112.857968 
L 96.019318 -124.838567 
L 93.838395 -128.960878 
L 91.657472 -136.842594 
L 89.476549 -144.993883 
L 87.295626 -144.603952 
L 85.114703 -143.601223 
L 82.933781 -141.40547 
L 80.752858 -138.973738 
L 78.571935 -138.572255 
L 76.391012 -138.361839 
L 74.210089 -138.58413 
L 72.029166 -130.945224 
L 69.848243 -125.65548 
L 67.667321 -127.249551 
L 65.486398 -127.176189 
L 63.305475 -122.931424 
L 61.124552 -116.343209 
L 58.943629 -115.639963 
L 56.762706 -123.640964 
L 54.581783 -125.444523 
L 52.40086 -117.520064 
L 50.219938 -104.437406 
L 48.039015 -105.544394 
L 45.858092 -107.75442 
z
" style="stroke: #ff7f0e; stroke-opacity: 0.15"/>
    </defs>
    <g clip-path="url(#pc82da442ed)">
     <use xlink:href="#m1d7cdf09aa" x="0" y="215.397188" style="fill: #ff7f0e; fill-opacity: 0.15; stroke: #ff7f0e; stroke-opacity: 0.15"/>
    </g>
   </g>
   <g id="line2d_1">
    <path d="M 36.262031 123.746601 
L 247.375365 123.746601 
" clip-path="url(#pc82da442ed)" style="fill: none; stroke-dasharray: 2.96,1.28; stroke-dashoffset: 0; stroke: #000000; stroke-width: 0.8"/>
   </g>
   <g id="matplotlib.axis_1">
    <g id="xtick_1">
     <g id="line2d_2">
      <defs>
       <path id="ma37d02ad91" d="M 0 0 
L 0 3.5 
" style="stroke: #000000; stroke-width: 0.8"/>
      </defs>
      <g>
       <use xlink:href="#ma37d02ad91" x="41.496246" y="182.68" style="stroke: #000000; stroke-width: 0.8"/>
      </g>
     </g>
     <g id="text_1">
      <!-- 0 -->
      <g transform="translate(39.269371 194.998906) scale(0.07 -0.07)">
       <defs>
        <path id="DejaVuSans-30" d="M 2034 4250 
Q 1547 4250 1301 3770 
Q 1056 3291 1056 2328 
Q 1056 1369 1301 889 
Q 1547 409 2034 409 
Q 2525 409 2770 889 
Q 3016 1369 3016 2328 
Q 3016 3291 2770 3770 
Q 2525 4250 2034 4250 
z
M 2034 4750 
Q 2819 4750 3233 4129 
Q 3647 3509 3647 2328 
Q 3647 1150 3233 529 
Q 2819 -91 2034 -91 
Q 1250 -91 836 529 
Q 422 1150 422 2328 
Q 422 3509 836 4129 
Q 1250 4750 2034 4750 
z
" transform="scale(0.015625)"/>
       </defs>
       <use xlink:href="#DejaVuSans-30"/>
      </g>
     </g>
    </g>
    <g id="xtick_2">
     <g id="line2d_3">
      <g>
       <use xlink:href="#ma37d02ad91" x="85.114703" y="182.68" style="stroke: #000000; stroke-width: 0.8"/>
      </g>
     </g>
     <g id="text_2">
      <!-- 10 -->
      <g transform="translate(80.660953 194.998906) scale(0.07 -0.07)">
       <defs>
        <path id="DejaVuSans-31" d="M 794 531 
L 1825 531 
L 1825 4091 
L 703 3866 
L 703 4441 
L 1819 4666 
L 2450 4666 
L 2450 531 
L 3481 531 
L 3481 0 
L 794 0 
L 794 531 
z
" transform="scale(0.015625)"/>
       </defs>
       <use xlink:href="#DejaVuSans-31"/>
       <use xlink:href="#DejaVuSans-30" transform="translate(63.623047 0)"/>
      </g>
     </g>
    </g>
    <g id="xtick_3">
     <g id="line2d_4">
      <g>
       <use xlink:href="#ma37d02ad91" x="128.733161" y="182.68" style="stroke: #000000; stroke-width: 0.8"/>
      </g>
     </g>
     <g id="text_3">
      <!-- 20 -->
      <g transform="translate(124.279411 194.998906) scale(0.07 -0.07)">
       <defs>
        <path id="DejaVuSans-32" d="M 1228 531 
L 3431 531 
L 3431 0 
L 469 0 
L 469 531 
Q 828 903 1448 1529 
Q 2069 2156 2228 2338 
Q 2531 2678 2651 2914 
Q 2772 3150 2772 3378 
Q 2772 3750 2511 3984 
Q 2250 4219 1831 4219 
Q 1534 4219 1204 4116 
Q 875 4013 500 3803 
L 500 4441 
Q 881 4594 1212 4672 
Q 1544 4750 1819 4750 
Q 2544 4750 2975 4387 
Q 3406 4025 3406 3419 
Q 3406 3131 3298 2873 
Q 3191 2616 2906 2266 
Q 2828 2175 2409 1742 
Q 1991 1309 1228 531 
z
" transform="scale(0.015625)"/>
       </defs>
       <use xlink:href="#DejaVuSans-32"/>
       <use xlink:href="#DejaVuSans-30" transform="translate(63.623047 0)"/>
      </g>
     </g>
    </g>
    <g id="xtick_4">
     <g id="line2d_5">
      <g>
       <use xlink:href="#ma37d02ad91" x="172.351618" y="182.68" style="stroke: #000000; stroke-width: 0.8"/>
      </g>
     </g>
     <g id="text_4">
      <!-- 30 -->
      <g transform="translate(167.897868 194.998906) scale(0.07 -0.07)">
       <defs>
        <path id="DejaVuSans-33" d="M 2597 2516 
Q 3050 2419 3304 2112 
Q 3559 1806 3559 1356 
Q 3559 666 3084 287 
Q 2609 -91 1734 -91 
Q 1441 -91 1130 -33 
Q 819 25 488 141 
L 488 750 
Q 750 597 1062 519 
Q 1375 441 1716 441 
Q 2309 441 2620 675 
Q 2931 909 2931 1356 
Q 2931 1769 2642 2001 
Q 2353 2234 1838 2234 
L 1294 2234 
L 1294 2753 
L 1863 2753 
Q 2328 2753 2575 2939 
Q 2822 3125 2822 3475 
Q 2822 3834 2567 4026 
Q 2313 4219 1838 4219 
Q 1578 4219 1281 4162 
Q 984 4106 628 3988 
L 628 4550 
Q 988 4650 1302 4700 
Q 1616 4750 1894 4750 
Q 2613 4750 3031 4423 
Q 3450 4097 3450 3541 
Q 3450 3153 3228 2886 
Q 3006 2619 2597 2516 
z
" transform="scale(0.015625)"/>
       </defs>
       <use xlink:href="#DejaVuSans-33"/>
       <use xlink:href="#DejaVuSans-30" transform="translate(63.623047 0)"/>
      </g>
     </g>
    </g>
    <g id="xtick_5">
     <g id="line2d_6">
      <g>
       <use xlink:href="#ma37d02ad91" x="215.970075" y="182.68" style="stroke: #000000; stroke-width: 0.8"/>
      </g>
     </g>
     <g id="text_5">
      <!-- 40 -->
      <g transform="translate(211.516325 194.998906) scale(0.07 -0.07)">
       <defs>
        <path id="DejaVuSans-34" d="M 2419 4116 
L 825 1625 
L 2419 1625 
L 2419 4116 
z
M 2253 4666 
L 3047 4666 
L 3047 1625 
L 3713 1625 
L 3713 1100 
L 3047 1100 
L 3047 0 
L 2419 0 
L 2419 1100 
L 313 1100 
L 313 1709 
L 2253 4666 
z
" transform="scale(0.015625)"/>
       </defs>
       <use xlink:href="#DejaVuSans-34"/>
       <use xlink:href="#DejaVuSans-30" transform="translate(63.623047 0)"/>
      </g>
     </g>
    </g>
    <g id="text_6">
     <!-- Frequency (Hz) -->
     <g transform="translate(111.654948 206.533437) scale(0.08 -0.08)">
      <defs>
       <path id="DejaVuSans-46" d="M 628 4666 
L 3309 4666 
L 3309 4134 
L 1259 4134 
L 1259 2759 
L 3109 2759 
L 3109 2228 
L 1259 2228 
L 1259 0 
L 628 0 
L 628 4666 
z
" transform="scale(0.015625)"/>
       <path id="DejaVuSans-72" d="M 2631 2963 
Q 2534 3019 2420 3045 
Q 2306 3072 2169 3072 
Q 1681 3072 1420 2755 
Q 1159 2438 1159 1844 
L 1159 0 
L 581 0 
L 581 3500 
L 1159 3500 
L 1159 2956 
Q 1341 3275 1631 3429 
Q 1922 3584 2338 3584 
Q 2397 3584 2469 3576 
Q 2541 3569 2628 3553 
L 2631 2963 
z
" transform="scale(0.015625)"/>
       <path id="DejaVuSans-65" d="M 3597 1894 
L 3597 1613 
L 953 1613 
Q 991 1019 1311 708 
Q 1631 397 2203 397 
Q 2534 397 2845 478 
Q 3156 559 3463 722 
L 3463 178 
Q 3153 47 2828 -22 
Q 2503 -91 2169 -91 
Q 1331 -91 842 396 
Q 353 884 353 1716 
Q 353 2575 817 3079 
Q 1281 3584 2069 3584 
Q 2775 3584 3186 3129 
Q 3597 2675 3597 1894 
z
M 3022 2063 
Q 3016 2534 2758 2815 
Q 2500 3097 2075 3097 
Q 1594 3097 1305 2825 
Q 1016 2553 972 2059 
L 3022 2063 
z
" transform="scale(0.015625)"/>
       <path id="DejaVuSans-71" d="M 947 1747 
Q 947 1113 1208 752 
Q 1469 391 1925 391 
Q 2381 391 2643 752 
Q 2906 1113 2906 1747 
Q 2906 2381 2643 2742 
Q 2381 3103 1925 3103 
Q 1469 3103 1208 2742 
Q 947 2381 947 1747 
z
M 2906 525 
Q 2725 213 2448 61 
Q 2172 -91 1784 -91 
Q 1150 -91 751 415 
Q 353 922 353 1747 
Q 353 2572 751 3078 
Q 1150 3584 1784 3584 
Q 2172 3584 2448 3432 
Q 2725 3281 2906 2969 
L 2906 3500 
L 3481 3500 
L 3481 -1331 
L 2906 -1331 
L 2906 525 
z
" transform="scale(0.015625)"/>
       <path id="DejaVuSans-75" d="M 544 1381 
L 544 3500 
L 1119 3500 
L 1119 1403 
Q 1119 906 1312 657 
Q 1506 409 1894 409 
Q 2359 409 2629 706 
Q 2900 1003 2900 1516 
L 2900 3500 
L 3475 3500 
L 3475 0 
L 2900 0 
L 2900 538 
Q 2691 219 2414 64 
Q 2138 -91 1772 -91 
Q 1169 -91 856 284 
Q 544 659 544 1381 
z
M 1991 3584 
L 1991 3584 
z
" transform="scale(0.015625)"/>
       <path id="DejaVuSans-6e" d="M 3513 2113 
L 3513 0 
L 2938 0 
L 2938 2094 
Q 2938 2591 2744 2837 
Q 2550 3084 2163 3084 
Q 1697 3084 1428 2787 
Q 1159 2491 1159 1978 
L 1159 0 
L 581 0 
L 581 3500 
L 1159 3500 
L 1159 2956 
Q 1366 3272 1645 3428 
Q 1925 3584 2291 3584 
Q 2894 3584 3203 3211 
Q 3513 2838 3513 2113 
z
" transform="scale(0.015625)"/>
       <path id="DejaVuSans-63" d="M 3122 3366 
L 3122 2828 
Q 2878 2963 2633 3030 
Q 2388 3097 2138 3097 
Q 1578 3097 1268 2742 
Q 959 2388 959 1747 
Q 959 1106 1268 751 
Q 1578 397 2138 397 
Q 2388 397 2633 464 
Q 2878 531 3122 666 
L 3122 134 
Q 2881 22 2623 -34 
Q 2366 -91 2075 -91 
Q 1284 -91 818 406 
Q 353 903 353 1747 
Q 353 2603 823 3093 
Q 1294 3584 2113 3584 
Q 2378 3584 2631 3529 
Q 2884 3475 3122 3366 
z
" transform="scale(0.015625)"/>
       <path id="DejaVuSans-79" d="M 2059 -325 
Q 1816 -950 1584 -1140 
Q 1353 -1331 966 -1331 
L 506 -1331 
L 506 -850 
L 844 -850 
Q 1081 -850 1212 -737 
Q 1344 -625 1503 -206 
L 1606 56 
L 191 3500 
L 800 3500 
L 1894 763 
L 2988 3500 
L 3597 3500 
L 2059 -325 
z
" transform="scale(0.015625)"/>
       <path id="DejaVuSans-20" transform="scale(0.015625)"/>
       <path id="DejaVuSans-28" d="M 1984 4856 
Q 1566 4138 1362 3434 
Q 1159 2731 1159 2009 
Q 1159 1288 1364 580 
Q 1569 -128 1984 -844 
L 1484 -844 
Q 1016 -109 783 600 
Q 550 1309 550 2009 
Q 550 2706 781 3412 
Q 1013 4119 1484 4856 
L 1984 4856 
z
" transform="scale(0.015625)"/>
       <path id="DejaVuSans-48" d="M 628 4666 
L 1259 4666 
L 1259 2753 
L 3553 2753 
L 3553 4666 
L 4184 4666 
L 4184 0 
L 3553 0 
L 3553 2222 
L 1259 2222 
L 1259 0 
L 628 0 
L 628 4666 
z
" transform="scale(0.015625)"/>
       <path id="DejaVuSans-7a" d="M 353 3500 
L 3084 3500 
L 3084 2975 
L 922 459 
L 3084 459 
L 3084 0 
L 275 0 
L 275 525 
L 2438 3041 
L 353 3041 
L 353 3500 
z
" transform="scale(0.015625)"/>
       <path id="DejaVuSans-29" d="M 513 4856 
L 1013 4856 
Q 1481 4119 1714 3412 
Q 1947 2706 1947 2009 
Q 1947 1309 1714 600 
Q 1481 -109 1013 -844 
L 513 -844 
Q 928 -128 1133 580 
Q 1338 1288 1338 2009 
Q 1338 2731 1133 3434 
Q 928 4138 513 4856 
z
" transform="scale(0.015625)"/>
      </defs>
      <use xlink:href="#DejaVuSans-46"/>
      <use xlink:href="#DejaVuSans-72" transform="translate(50.269531 0)"/>
      <use xlink:href="#DejaVuSans-65" transform="translate(89.132812 0)"/>
      <use xlink:href="#DejaVuSans-71" transform="translate(150.65625 0)"/>
      <use xlink:href="#DejaVuSans-75" transform="translate(214.132812 0)"/>
      <use xlink:href="#DejaVuSans-65" transform="translate(277.511719 0)"/>
      <use xlink:href="#DejaVuSans-6e" transform="translate(339.035156 0)"/>
      <use xlink:href="#DejaVuSans-63" transform="translate(402.414062 0)"/>
      <use xlink:href="#DejaVuSans-79" transform="translate(457.394531 0)"/>
      <use xlink:href="#DejaVuSans-20" transform="translate(516.574219 0)"/>
      <use xlink:href="#DejaVuSans-28" transform="translate(548.361328 0)"/>
      <use xlink:href="#DejaVuSans-48" transform="translate(587.375 0)"/>
      <use xlink:href="#DejaVuSans-7a" transform="translate(662.570312 0)"/>
      <use xlink:href="#DejaVuSans-29" transform="translate(715.060547 0)"/>
     </g>
    </g>
   </g>
   <g id="matplotlib.axis_2">
    <g id="ytick_1">
     <g id="line2d_7">
      <defs>
       <path id="mfc359afe84" d="M 0 0 
L -3.5 0 
" style="stroke: #000000; stroke-width: 0.8"/>
      </defs>
      <g>
       <use xlink:href="#mfc359afe84" x="36.262031" y="182.121698" style="stroke: #000000; stroke-width: 0.8"/>
      </g>
     </g>
     <g id="text_7">
      <!-- −3 -->
      <g transform="translate(18.9425 184.781151) scale(0.07 -0.07)">
       <defs>
        <path id="DejaVuSans-2212" d="M 678 2272 
L 4684 2272 
L 4684 1741 
L 678 1741 
L 678 2272 
z
" transform="scale(0.015625)"/>
       </defs>
       <use xlink:href="#DejaVuSans-2212"/>
       <use xlink:href="#DejaVuSans-33" transform="translate(83.789062 0)"/>
      </g>
     </g>
    </g>
    <g id="ytick_2">
     <g id="line2d_8">
      <g>
       <use xlink:href="#mfc359afe84" x="36.262031" y="162.663332" style="stroke: #000000; stroke-width: 0.8"/>
      </g>
     </g>
     <g id="text_8">
      <!-- −2 -->
      <g transform="translate(18.9425 165.322786) scale(0.07 -0.07)">
       <use xlink:href="#DejaVuSans-2212"/>
       <use xlink:href="#DejaVuSans-32" transform="translate(83.789062 0)"/>
      </g>
     </g>
    </g>
    <g id="ytick_3">
     <g id="line2d_9">
      <g>
       <use xlink:href="#mfc359afe84" x="36.262031" y="143.204967" style="stroke: #000000; stroke-width: 0.8"/>
      </g>
     </g>
     <g id="text_9">
      <!-- −1 -->
      <g transform="translate(18.9425 145.86442) scale(0.07 -0.07)">
       <use xlink:href="#DejaVuSans-2212"/>
       <use xlink:href="#DejaVuSans-31" transform="translate(83.789062 0)"/>
      </g>
     </g>
    </g>
    <g id="ytick_4">
     <g id="line2d_10">
      <g>
       <use xlink:href="#mfc359afe84" x="36.262031" y="123.746601" style="stroke: #000000; stroke-width: 0.8"/>
      </g>
     </g>
     <g id="text_10">
      <!-- 0 -->
      <g transform="translate(24.808281 126.406055) scale(0.07 -0.07)">
       <use xlink:href="#DejaVuSans-30"/>
      </g>
     </g>
    </g>
    <g id="ytick_5">
     <g id="line2d_11">
      <g>
       <use xlink:href="#mfc359afe84" x="36.262031" y="104.288236" style="stroke: #000000; stroke-width: 0.8"/>
      </g>
     </g>
     <g id="text_11">
      <!-- 1 -->
      <g transform="translate(24.808281 106.947689) scale(0.07 -0.07)">
       <use xlink:href="#DejaVuSans-31"/>
      </g>
     </g>
    </g>
    <g id="ytick_6">
     <g id="line2d_12">
      <g>
       <use xlink:href="#mfc359afe84" x="36.262031" y="84.829871" style="stroke: #000000; stroke-width: 0.8"/>
      </g>
     </g>
     <g id="text_12">
      <!-- 2 -->
      <g transform="translate(24.808281 87.489324) scale(0.07 -0.07)">
       <use xlink:href="#DejaVuSans-32"/>
      </g>
     </g>
    </g>
    <g id="ytick_7">
     <g id="line2d_13">
      <g>
       <use xlink:href="#mfc359afe84" x="36.262031" y="65.371505" style="stroke: #000000; stroke-width: 0.8"/>
      </g>
     </g>
     <g id="text_13">
      <!-- 3 -->
      <g transform="translate(24.808281 68.030958) scale(0.07 -0.07)">
       <use xlink:href="#DejaVuSans-33"/>
      </g>
     </g>
    </g>
    <g id="text_14">
     <!-- ERD/ERS (dB) -->
     <g transform="translate(13.27875 148.236875) rotate(-90) scale(0.08 -0.08)">
      <defs>
       <path id="DejaVuSans-45" d="M 628 4666 
L 3578 4666 
L 3578 4134 
L 1259 4134 
L 1259 2753 
L 3481 2753 
L 3481 2222 
L 1259 2222 
L 1259 531 
L 3634 531 
L 3634 0 
L 628 0 
L 628 4666 
z
" transform="scale(0.015625)"/>
       <path id="DejaVuSans-52" d="M 2841 2188 
Q 3044 2119 3236 1894 
Q 3428 1669 3622 1275 
L 4263 0 
L 3584 0 
L 2988 1197 
Q 2756 1666 2539 1819 
Q 2322 1972 1947 1972 
L 1259 1972 
L 1259 0 
L 628 0 
L 628 4666 
L 2053 4666 
Q 2853 4666 3247 4331 
Q 3641 3997 3641 3322 
Q 3641 2881 3436 2590 
Q 3231 2300 2841 2188 
z
M 1259 4147 
L 1259 2491 
L 2053 2491 
Q 2509 2491 2742 2702 
Q 2975 2913 2975 3322 
Q 2975 3731 2742 3939 
Q 2509 4147 2053 4147 
L 1259 4147 
z
" transform="scale(0.015625)"/>
       <path id="DejaVuSans-44" d="M 1259 4147 
L 1259 519 
L 2022 519 
Q 2988 519 3436 956 
Q 3884 1394 3884 2338 
Q 3884 3275 3436 3711 
Q 2988 4147 2022 4147 
L 1259 4147 
z
M 628 4666 
L 1925 4666 
Q 3281 4666 3915 4102 
Q 4550 3538 4550 2338 
Q 4550 1131 3912 565 
Q 3275 0 1925 0 
L 628 0 
L 628 4666 
z
" transform="scale(0.015625)"/>
       <path id="DejaVuSans-2f" d="M 1625 4666 
L 2156 4666 
L 531 -594 
L 0 -594 
L 1625 4666 
z
" transform="scale(0.015625)"/>
       <path id="DejaVuSans-53" d="M 3425 4513 
L 3425 3897 
Q 3066 4069 2747 4153 
Q 2428 4238 2131 4238 
Q 1616 4238 1336 4038 
Q 1056 3838 1056 3469 
Q 1056 3159 1242 3001 
Q 1428 2844 1947 2747 
L 2328 2669 
Q 3034 2534 3370 2195 
Q 3706 1856 3706 1288 
Q 3706 609 3251 259 
Q 2797 -91 1919 -91 
Q 1588 -91 1214 -16 
Q 841 59 441 206 
L 441 856 
Q 825 641 1194 531 
Q 1563 422 1919 422 
Q 2459 422 2753 634 
Q 3047 847 3047 1241 
Q 3047 1584 2836 1778 
Q 2625 1972 2144 2069 
L 1759 2144 
Q 1053 2284 737 2584 
Q 422 2884 422 3419 
Q 422 4038 858 4394 
Q 1294 4750 2059 4750 
Q 2388 4750 2728 4690 
Q 3069 4631 3425 4513 
z
" transform="scale(0.015625)"/>
       <path id="DejaVuSans-64" d="M 2906 2969 
L 2906 4863 
L 3481 4863 
L 3481 0 
L 2906 0 
L 2906 525 
Q 2725 213 2448 61 
Q 2172 -91 1784 -91 
Q 1150 -91 751 415 
Q 353 922 353 1747 
Q 353 2572 751 3078 
Q 1150 3584 1784 3584 
Q 2172 3584 2448 3432 
Q 2725 3281 2906 2969 
z
M 947 1747 
Q 947 1113 1208 752 
Q 1469 391 1925 391 
Q 2381 391 2643 752 
Q 2906 1113 2906 1747 
Q 2906 2381 2643 2742 
Q 2381 3103 1925 3103 
Q 1469 3103 1208 2742 
Q 947 2381 947 1747 
z
" transform="scale(0.015625)"/>
       <path id="DejaVuSans-42" d="M 1259 2228 
L 1259 519 
L 2272 519 
Q 2781 519 3026 730 
Q 3272 941 3272 1375 
Q 3272 1813 3026 2020 
Q 2781 2228 2272 2228 
L 1259 2228 
z
M 1259 4147 
L 1259 2741 
L 2194 2741 
Q 2656 2741 2882 2914 
Q 3109 3088 3109 3444 
Q 3109 3797 2882 3972 
Q 2656 4147 2194 4147 
L 1259 4147 
z
M 628 4666 
L 2241 4666 
Q 2963 4666 3353 4366 
Q 3744 4066 3744 3513 
Q 3744 3084 3544 2831 
Q 3344 2578 2956 2516 
Q 3422 2416 3680 2098 
Q 3938 1781 3938 1306 
Q 3938 681 3513 340 
Q 3088 0 2303 0 
L 628 0 
L 628 4666 
z
" transform="scale(0.015625)"/>
      </defs>
      <use xlink:href="#DejaVuSans-45"/>
      <use xlink:href="#DejaVuSans-52" transform="translate(63.183594 0)"/>
      <use xlink:href="#DejaVuSans-44" transform="translate(132.666016 0)"/>
      <use xlink:href="#DejaVuSans-2f" transform="translate(209.667969 0)"/>
      <use xlink:href="#DejaVuSans-45" transform="translate(243.359375 0)"/>
      <use xlink:href="#DejaVuSans-52" transform="translate(306.542969 0)"/>
      <use xlink:href="#DejaVuSans-53" transform="translate(376.025391 0)"/>
      <use xlink:href="#DejaVuSans-20" transform="translate(439.501953 0)"/>
      <use xlink:href="#DejaVuSans-28" transform="translate(471.289062 0)"/>
      <use xlink:href="#DejaVuSans-64" transform="translate(510.302734 0)"/>
      <use xlink:href="#DejaVuSans-42" transform="translate(573.779297 0)"/>
      <use xlink:href="#DejaVuSans-29" transform="translate(642.382812 0)"/>
     </g>
    </g>
   </g>
   <g id="line2d_14">
    <path d="M 45.858092 126.606615 
L 48.039015 126.870668 
L 50.219938 131.09645 
L 52.40086 138.283972 
L 54.581783 139.541864 
L 56.762706 136.662387 
L 58.943629 137.316089 
L 61.124552 139.538294 
L 63.305475 139.091728 
L 65.486398 137.029364 
L 67.667321 136.480932 
L 69.848243 135.270677 
L 72.029166 133.657014 
L 74.210089 130.45101 
L 76.391012 126.532435 
L 78.571935 122.911921 
L 80.752858 124.446999 
L 82.933781 128.485699 
L 85.114703 135.212228 
L 87.295626 139.795795 
L 89.476549 137.681858 
L 91.657472 131.092311 
L 93.838395 128.909085 
L 96.019318 131.194744 
L 98.200241 133.584548 
L 100.381163 136.809674 
L 102.562086 141.63584 
L 104.743009 143.971147 
L 106.923932 141.425595 
L 109.104855 138.684843 
L 111.285778 139.002464 
L 113.466701 143.08959 
L 115.647624 147.394513 
L 117.828546 146.476661 
L 120.009469 143.113939 
L 122.190392 140.700345 
L 124.371315 138.704197 
L 126.552238 139.14063 
L 128.733161 140.6446 
L 130.914084 133.427073 
L 133.095006 128.98153 
L 135.275929 128.834417 
L 137.456852 130.613107 
L 139.637775 133.531024 
L 141.818698 135.333067 
L 143.999621 135.069934 
L 146.180544 134.055269 
L 148.361467 130.75144 
L 150.542389 129.543782 
L 152.723312 129.141057 
L 154.904235 128.681923 
L 157.085158 127.516998 
L 159.266081 128.429347 
L 161.447004 127.037228 
L 163.627927 123.043446 
L 165.808849 121.759593 
L 167.989772 123.85879 
L 170.170695 125.900824 
L 172.351618 126.166679 
L 174.532541 127.598545 
L 176.713464 132.285791 
L 178.894387 133.999131 
L 181.075309 133.229536 
L 183.256232 130.673441 
L 185.437155 124.10502 
L 187.618078 121.570004 
L 189.799001 126.761791 
L 191.979924 130.707828 
L 194.160847 132.246742 
L 196.34177 131.650861 
L 198.522692 127.244669 
L 200.703615 124.787461 
L 202.884538 125.274001 
L 205.065461 126.089095 
L 207.246384 124.116155 
L 209.427307 126.141126 
L 211.60823 132.136874 
L 213.789152 130.595654 
L 215.970075 125.776499 
L 218.150998 122.968442 
L 220.331921 120.820771 
L 222.512844 121.592685 
L 224.693767 120.888204 
L 226.87469 120.160265 
L 229.055613 125.573667 
L 231.236535 129.990642 
L 233.417458 128.209877 
L 235.598381 125.984543 
L 237.779304 125.380344 
" clip-path="url(#pc82da442ed)" style="fill: none; stroke: #1f77b4; stroke-width: 1.3; stroke-linecap: square"/>
   </g>
   <g id="line2d_15">
    <path d="M 45.858092 132.098255 
L 48.039015 132.740606 
L 50.219938 130.520132 
L 52.40086 117.808299 
L 54.581783 108.711924 
L 56.762706 109.853813 
L 58.943629 117.182808 
L 61.124552 117.488199 
L 63.305475 110.82439 
L 65.486398 108.485593 
L 67.667321 109.223261 
L 69.848243 110.734972 
L 72.029166 106.44336 
L 74.210089 98.692064 
L 76.391012 97.110475 
L 78.571935 95.983571 
L 80.752858 94.095282 
L 82.933781 95.272355 
L 85.114703 95.330107 
L 87.295626 93.403272 
L 89.476549 91.405656 
L 91.657472 98.974845 
L 93.838395 105.719604 
L 96.019318 107.857566 
L 98.200241 117.937368 
L 100.381163 122.71263 
L 102.562086 119.468339 
L 104.743009 116.360645 
L 106.923932 115.550613 
L 109.104855 115.860289 
L 111.285778 118.796373 
L 113.466701 123.691043 
L 115.647624 123.690411 
L 117.828546 120.755214 
L 120.009469 121.183036 
L 122.190392 120.135876 
L 124.371315 124.600268 
L 126.552238 127.941653 
L 128.733161 127.980178 
L 130.914084 122.58643 
L 133.095006 122.893763 
L 135.275929 118.874225 
L 137.456852 118.823998 
L 139.637775 123.808054 
L 141.818698 123.040472 
L 143.999621 120.225585 
L 146.180544 119.896794 
L 148.361467 122.680987 
L 150.542389 126.374923 
L 152.723312 124.024603 
L 154.904235 118.779029 
L 157.085158 115.921779 
L 159.266081 118.36195 
L 161.447004 116.955369 
L 163.627927 123.817454 
L 165.808849 131.537904 
L 167.989772 137.541816 
L 170.170695 137.833831 
L 172.351618 131.859507 
L 174.532541 120.730944 
L 176.713464 110.805679 
L 178.894387 108.286337 
L 181.075309 110.536059 
L 183.256232 108.824492 
L 185.437155 114.228682 
L 187.618078 116.724942 
L 189.799001 124.352559 
L 191.979924 129.448676 
L 194.160847 130.968993 
L 196.34177 133.539055 
L 198.522692 139.814771 
L 200.703615 138.661001 
L 202.884538 134.936403 
L 205.065461 132.563367 
L 207.246384 129.276768 
L 209.427307 133.010286 
L 211.60823 138.724461 
L 213.789152 137.409642 
L 215.970075 131.102879 
L 218.150998 127.30764 
L 220.331921 129.353362 
L 222.512844 135.361263 
L 224.693767 134.529643 
L 226.87469 130.696782 
L 229.055613 132.721975 
L 231.236535 137.142432 
L 233.417458 140.349097 
L 235.598381 145.669712 
L 237.779304 146.036667 
" clip-path="url(#pc82da442ed)" style="fill: none; stroke: #ff7f0e; stroke-width: 1.3; stroke-linecap: square"/>
   </g>
   <g id="patch_5">
    <path d="M 36.262031 182.68 
L 36.262031 59.28 
" style="fill: none; stroke: #000000; stroke-width: 0.8; stroke-linejoin: miter; stroke-linecap: square"/>
   </g>
   <g id="patch_6">
    <path d="M 247.375365 182.68 
L 247.375365 59.28 
" style="fill: none; stroke: #000000; stroke-width: 0.8; stroke-linejoin: miter; stroke-linecap: square"/>
   </g>
   <g id="patch_7">
    <path d="M 36.262031 182.68 
L 247.375365 182.68 
" style="fill: none; stroke: #000000; stroke-width: 0.8; stroke-linejoin: miter; stroke-linecap: square"/>
   </g>
   <g id="patch_8">
    <path d="M 36.262031 59.28 
L 247.375365 59.28 
" style="fill: none; stroke: #000000; stroke-width: 0.8; stroke-linejoin: miter; stroke-linecap: square"/>
   </g>
   <g id="text_15">
    <!-- C3 -->
    <g transform="translate(135.813307 53.28) scale(0.09 -0.09)">
     <defs>
      <path id="DejaVuSans-43" d="M 4122 4306 
L 4122 3641 
Q 3803 3938 3442 4084 
Q 3081 4231 2675 4231 
Q 1875 4231 1450 3742 
Q 1025 3253 1025 2328 
Q 1025 1406 1450 917 
Q 1875 428 2675 428 
Q 3081 428 3442 575 
Q 3803 722 4122 1019 
L 4122 359 
Q 3791 134 3420 21 
Q 3050 -91 2638 -91 
Q 1578 -91 968 557 
Q 359 1206 359 2328 
Q 359 3453 968 4101 
Q 1578 4750 2638 4750 
Q 3056 4750 3426 4639 
Q 3797 4528 4122 4306 
z
" transform="scale(0.015625)"/>
     </defs>
     <use xlink:href="#DejaVuSans-43"/>
     <use xlink:href="#DejaVuSans-33" transform="translate(69.824219 0)"/>
    </g>
   </g>
  </g>
  <g id="axes_2">
   <g id="patch_9">
    <path d="M 272.875365 182.68 
L 483.988698 182.68 
L 483.988698 59.28 
L 272.875365 59.28 
L 272.875365 182.68 
z
" style="fill: none"/>
   </g>
   <g id="patch_10">
    <path d="M 313.004345 182.68 
L 334.813574 182.68 
L 334.813574 59.28 
L 313.004345 59.28 
z
" clip-path="url(#p6475e532ec)" style="fill: #d9d9d9; stroke: #d9d9d9; stroke-linejoin: miter"/>
   </g>
   <g id="patch_11">
    <path d="M 334.813574 182.68 
L 408.964951 182.68 
L 408.964951 59.28 
L 334.813574 59.28 
z
" clip-path="url(#p6475e532ec)" style="fill: #ebebeb; stroke: #ebebeb; stroke-linejoin: miter"/>
   </g>
   <g id="FillBetweenPolyCollection_3">
    <defs>
     <path id="m99cebafa42" d="M 282.471425 -111.852501 
L 282.471425 -91.263724 
L 284.652348 -89.272095 
L 286.833271 -86.078538 
L 289.014194 -80.770228 
L 291.195117 -71.17943 
L 293.37604 -62.182654 
L 295.556962 -54.552992 
L 297.737885 -48.414555 
L 299.918808 -43.230361 
L 302.099731 -38.393727 
L 304.280654 -38.326278 
L 306.461577 -43.395326 
L 308.6425 -46.99173 
L 310.823422 -51.272787 
L 313.004345 -59.285354 
L 315.185268 -63.604596 
L 317.366191 -66.227133 
L 319.547114 -70.805769 
L 321.728037 -74.780763 
L 323.90896 -76.938601 
L 326.089882 -80.232005 
L 328.270805 -81.549851 
L 330.451728 -75.398173 
L 332.632651 -67.977254 
L 334.813574 -63.47126 
L 336.994497 -61.424457 
L 339.17542 -57.960752 
L 341.356343 -54.781407 
L 343.537265 -56.814059 
L 345.718188 -57.340987 
L 347.899111 -54.046445 
L 350.080034 -51.599675 
L 352.260957 -51.462515 
L 354.44188 -53.277065 
L 356.622803 -56.875694 
L 358.803725 -58.172946 
L 360.984648 -54.348677 
L 363.165571 -50.741944 
L 365.346494 -52.366462 
L 367.527417 -55.335226 
L 369.70834 -55.194171 
L 371.889263 -54.377956 
L 374.070186 -58.29912 
L 376.251108 -66.084889 
L 378.432031 -76.177183 
L 380.612954 -81.539447 
L 382.793877 -84.86079 
L 384.9748 -84.097507 
L 387.155723 -82.04331 
L 389.336646 -77.591421 
L 391.517568 -71.53921 
L 393.698491 -71.874298 
L 395.879414 -76.496733 
L 398.060337 -78.507931 
L 400.24126 -80.340272 
L 402.422183 -77.902146 
L 404.603106 -73.496098 
L 406.784028 -73.077068 
L 408.964951 -72.778778 
L 411.145874 -72.362188 
L 413.326797 -75.512439 
L 415.50772 -77.982231 
L 417.688643 -74.963211 
L 419.869566 -71.361456 
L 422.050489 -72.104734 
L 424.231411 -75.296796 
L 426.412334 -77.585059 
L 428.593257 -74.983722 
L 430.77418 -74.296026 
L 432.955103 -77.359658 
L 435.136026 -78.781104 
L 437.316949 -77.064115 
L 439.497871 -74.392022 
L 441.678794 -73.251841 
L 443.859717 -73.912978 
L 446.04064 -71.745418 
L 448.221563 -67.807438 
L 450.402486 -70.669368 
L 452.583409 -75.983933 
L 454.764332 -80.0296 
L 456.945254 -82.248691 
L 459.126177 -82.954215 
L 461.3071 -81.765556 
L 463.488023 -80.692017 
L 465.668946 -78.846653 
L 467.849869 -75.944356 
L 470.030792 -74.642179 
L 472.211714 -76.085717 
L 474.392637 -78.62761 
L 474.392637 -97.861083 
L 474.392637 -97.861083 
L 472.211714 -94.873774 
L 470.030792 -93.951527 
L 467.849869 -95.042278 
L 465.668946 -96.655727 
L 463.488023 -97.299213 
L 461.3071 -98.246094 
L 459.126177 -98.688889 
L 456.945254 -98.672817 
L 454.764332 -98.222393 
L 452.583409 -94.729598 
L 450.402486 -88.597952 
L 448.221563 -85.54919 
L 446.04064 -89.944017 
L 443.859717 -91.76636 
L 441.678794 -90.776396 
L 439.497871 -91.176678 
L 437.316949 -93.925642 
L 435.136026 -97.327116 
L 432.955103 -96.677023 
L 430.77418 -92.666075 
L 428.593257 -92.113606 
L 426.412334 -95.980079 
L 424.231411 -93.353086 
L 422.050489 -88.792581 
L 419.869566 -88.187644 
L 417.688643 -92.238111 
L 415.50772 -95.378204 
L 413.326797 -93.107632 
L 411.145874 -90.941929 
L 408.964951 -90.453024 
L 406.784028 -89.405329 
L 404.603106 -90.427577 
L 402.422183 -96.140158 
L 400.24126 -99.283291 
L 398.060337 -97.353453 
L 395.879414 -95.466082 
L 393.698491 -90.138686 
L 391.517568 -88.618396 
L 389.336646 -95.775043 
L 387.155723 -99.584131 
L 384.9748 -102.140368 
L 382.793877 -103.551876 
L 380.612954 -100.357366 
L 378.432031 -94.996571 
L 376.251108 -83.262318 
L 374.070186 -75.713646 
L 371.889263 -72.929251 
L 369.70834 -73.402889 
L 367.527417 -74.129372 
L 365.346494 -71.578475 
L 363.165571 -69.590351 
L 360.984648 -74.099171 
L 358.803725 -78.252222 
L 356.622803 -76.223994 
L 354.44188 -73.335683 
L 352.260957 -71.283843 
L 350.080034 -71.598601 
L 347.899111 -75.091101 
L 345.718188 -78.710856 
L 343.537265 -78.708401 
L 341.356343 -76.820936 
L 339.17542 -80.296627 
L 336.994497 -82.611858 
L 334.813574 -83.14113 
L 332.632651 -86.374384 
L 330.451728 -93.151241 
L 328.270805 -100.093484 
L 326.089882 -97.905529 
L 323.90896 -95.042448 
L 321.728037 -94.369109 
L 319.547114 -89.582513 
L 317.366191 -85.074794 
L 315.185268 -83.412775 
L 313.004345 -81.00902 
L 310.823422 -74.751542 
L 308.6425 -70.767209 
L 306.461577 -66.140776 
L 304.280654 -60.320031 
L 302.099731 -58.788783 
L 299.918808 -61.715436 
L 297.737885 -66.607347 
L 295.556962 -72.986749 
L 293.37604 -80.45969 
L 291.195117 -88.361354 
L 289.014194 -97.936352 
L 286.833271 -103.239421 
L 284.652348 -108.29566 
L 282.471425 -111.852501 
z
" style="stroke: #1f77b4; stroke-opacity: 0.15"/>
    </defs>
    <g clip-path="url(#p6475e532ec)">
     <use xlink:href="#m99cebafa42" x="0" y="215.397188" style="fill: #1f77b4; fill-opacity: 0.15; stroke: #1f77b4; stroke-opacity: 0.15"/>
    </g>
   </g>
   <g id="FillBetweenPolyCollection_4">
    <defs>
     <path id="mc278c1dde6" d="M 282.471425 -114.859885 
L 282.471425 -74.019263 
L 284.652348 -81.829216 
L 286.833271 -87.244566 
L 289.014194 -87.232285 
L 291.195117 -78.671559 
L 293.37604 -66.022845 
L 295.556962 -54.126847 
L 297.737885 -47.161252 
L 299.918808 -48.075869 
L 302.099731 -50.476957 
L 304.280654 -52.679919 
L 306.461577 -60.6115 
L 308.6425 -71.074536 
L 310.823422 -74.722252 
L 313.004345 -74.418989 
L 315.185268 -73.630601 
L 317.366191 -72.323218 
L 319.547114 -72.505599 
L 321.728037 -73.077954 
L 323.90896 -75.208992 
L 326.089882 -81.247672 
L 328.270805 -83.296317 
L 330.451728 -88.580948 
L 332.632651 -84.205073 
L 334.813574 -71.272189 
L 336.994497 -65.975263 
L 339.17542 -69.533691 
L 341.356343 -70.65046 
L 343.537265 -75.744489 
L 345.718188 -73.00801 
L 347.899111 -68.517761 
L 350.080034 -71.310561 
L 352.260957 -80.888966 
L 354.44188 -86.631626 
L 356.622803 -81.029053 
L 358.803725 -68.826261 
L 360.984648 -55.96316 
L 363.165571 -48.483893 
L 365.346494 -48.052065 
L 367.527417 -47.762408 
L 369.70834 -54.414801 
L 371.889263 -67.459814 
L 374.070186 -73.763362 
L 376.251108 -76.701288 
L 378.432031 -78.743121 
L 380.612954 -74.530601 
L 382.793877 -73.363083 
L 384.9748 -78.1291 
L 387.155723 -81.554131 
L 389.336646 -82.367971 
L 391.517568 -73.651478 
L 393.698491 -70.406986 
L 395.879414 -75.549968 
L 398.060337 -77.176736 
L 400.24126 -76.775121 
L 402.422183 -78.545425 
L 404.603106 -75.77305 
L 406.784028 -78.964596 
L 408.964951 -87.43012 
L 411.145874 -86.819682 
L 413.326797 -82.373724 
L 415.50772 -79.355298 
L 417.688643 -74.24179 
L 419.869566 -65.32322 
L 422.050489 -70.291654 
L 424.231411 -79.27105 
L 426.412334 -76.454518 
L 428.593257 -66.994537 
L 430.77418 -64.64358 
L 432.955103 -71.127313 
L 435.136026 -70.221994 
L 437.316949 -63.233935 
L 439.497871 -58.716906 
L 441.678794 -55.551837 
L 443.859717 -56.915144 
L 446.04064 -62.822178 
L 448.221563 -63.112294 
L 450.402486 -59.484446 
L 452.583409 -57.828186 
L 454.764332 -55.002292 
L 456.945254 -50.11111 
L 459.126177 -48.355928 
L 461.3071 -54.307389 
L 463.488023 -62.290529 
L 465.668946 -64.368587 
L 467.849869 -63.760786 
L 470.030792 -64.137041 
L 472.211714 -64.893964 
L 474.392637 -67.418004 
L 474.392637 -104.621214 
L 474.392637 -104.621214 
L 472.211714 -97.24524 
L 470.030792 -96.561485 
L 467.849869 -98.617852 
L 465.668946 -103.510378 
L 463.488023 -104.407138 
L 461.3071 -93.128808 
L 459.126177 -87.857647 
L 456.945254 -92.8759 
L 454.764332 -94.505956 
L 452.583409 -93.25538 
L 450.402486 -93.839422 
L 448.221563 -102.591258 
L 446.04064 -106.080091 
L 443.859717 -98.210914 
L 441.678794 -98.066238 
L 439.497871 -97.635273 
L 437.316949 -99.109734 
L 435.136026 -104.941528 
L 432.955103 -108.849924 
L 430.77418 -102.064709 
L 428.593257 -104.501943 
L 426.412334 -113.165992 
L 424.231411 -114.745886 
L 422.050489 -106.367996 
L 419.869566 -103.155445 
L 417.688643 -112.697624 
L 415.50772 -117.245879 
L 413.326797 -121.354421 
L 411.145874 -127.111345 
L 408.964951 -121.645535 
L 406.784028 -108.540996 
L 404.603106 -107.59825 
L 402.422183 -115.194729 
L 400.24126 -112.53003 
L 398.060337 -113.192445 
L 395.879414 -113.941652 
L 393.698491 -106.243295 
L 391.517568 -109.845829 
L 389.336646 -118.838797 
L 387.155723 -120.694687 
L 384.9748 -116.924611 
L 382.793877 -110.093501 
L 380.612954 -109.687059 
L 378.432031 -114.150343 
L 376.251108 -117.670458 
L 374.070186 -116.937401 
L 371.889263 -107.526691 
L 369.70834 -88.688537 
L 367.527417 -81.75736 
L 365.346494 -83.23569 
L 363.165571 -85.020189 
L 360.984648 -96.357888 
L 358.803725 -107.332922 
L 356.622803 -114.112257 
L 354.44188 -119.879632 
L 352.260957 -113.722731 
L 350.080034 -107.996527 
L 347.899111 -111.631486 
L 345.718188 -112.427023 
L 343.537265 -113.062044 
L 341.356343 -108.687448 
L 339.17542 -112.263759 
L 336.994497 -111.088696 
L 334.813574 -113.989556 
L 332.632651 -122.844526 
L 330.451728 -124.954693 
L 328.270805 -119.619444 
L 326.089882 -121.73878 
L 323.90896 -116.2655 
L 321.728037 -110.68171 
L 319.547114 -107.944006 
L 317.366191 -107.628973 
L 315.185268 -117.400183 
L 313.004345 -118.913084 
L 310.823422 -122.372759 
L 308.6425 -120.015017 
L 306.461577 -106.653132 
L 304.280654 -92.461809 
L 302.099731 -86.557823 
L 299.918808 -85.090637 
L 297.737885 -85.027999 
L 295.556962 -93.402518 
L 293.37604 -107.617019 
L 291.195117 -122.66954 
L 289.014194 -130.898561 
L 286.833271 -125.792559 
L 284.652348 -122.472388 
L 282.471425 -114.859885 
z
" style="stroke: #ff7f0e; stroke-opacity: 0.15"/>
    </defs>
    <g clip-path="url(#p6475e532ec)">
     <use xlink:href="#mc278c1dde6" x="0" y="215.397188" style="fill: #ff7f0e; fill-opacity: 0.15; stroke: #ff7f0e; stroke-opacity: 0.15"/>
    </g>
   </g>
   <g id="line2d_16">
    <path d="M 272.875365 123.746601 
L 483.988698 123.746601 
" clip-path="url(#p6475e532ec)" style="fill: none; stroke-dasharray: 2.96,1.28; stroke-dashoffset: 0; stroke: #000000; stroke-width: 0.8"/>
   </g>
   <g id="matplotlib.axis_3">
    <g id="xtick_6">
     <g id="line2d_17">
      <g>
       <use xlink:href="#ma37d02ad91" x="278.109579" y="182.68" style="stroke: #000000; stroke-width: 0.8"/>
      </g>
     </g>
     <g id="text_16">
      <!-- 0 -->
      <g transform="translate(275.882704 194.998906) scale(0.07 -0.07)">
       <use xlink:href="#DejaVuSans-30"/>
      </g>
     </g>
    </g>
    <g id="xtick_7">
     <g id="line2d_18">
      <g>
       <use xlink:href="#ma37d02ad91" x="321.728037" y="182.68" style="stroke: #000000; stroke-width: 0.8"/>
      </g>
     </g>
     <g id="text_17">
      <!-- 10 -->
      <g transform="translate(317.274287 194.998906) scale(0.07 -0.07)">
       <use xlink:href="#DejaVuSans-31"/>
       <use xlink:href="#DejaVuSans-30" transform="translate(63.623047 0)"/>
      </g>
     </g>
    </g>
    <g id="xtick_8">
     <g id="line2d_19">
      <g>
       <use xlink:href="#ma37d02ad91" x="365.346494" y="182.68" style="stroke: #000000; stroke-width: 0.8"/>
      </g>
     </g>
     <g id="text_18">
      <!-- 20 -->
      <g transform="translate(360.892744 194.998906) scale(0.07 -0.07)">
       <use xlink:href="#DejaVuSans-32"/>
       <use xlink:href="#DejaVuSans-30" transform="translate(63.623047 0)"/>
      </g>
     </g>
    </g>
    <g id="xtick_9">
     <g id="line2d_20">
      <g>
       <use xlink:href="#ma37d02ad91" x="408.964951" y="182.68" style="stroke: #000000; stroke-width: 0.8"/>
      </g>
     </g>
     <g id="text_19">
      <!-- 30 -->
      <g transform="translate(404.511201 194.998906) scale(0.07 -0.07)">
       <use xlink:href="#DejaVuSans-33"/>
       <use xlink:href="#DejaVuSans-30" transform="translate(63.623047 0)"/>
      </g>
     </g>
    </g>
    <g id="xtick_10">
     <g id="line2d_21">
      <g>
       <use xlink:href="#ma37d02ad91" x="452.583409" y="182.68" style="stroke: #000000; stroke-width: 0.8"/>
      </g>
     </g>
     <g id="text_20">
      <!-- 40 -->
      <g transform="translate(448.129659 194.998906) scale(0.07 -0.07)">
       <use xlink:href="#DejaVuSans-34"/>
       <use xlink:href="#DejaVuSans-30" transform="translate(63.623047 0)"/>
      </g>
     </g>
    </g>
    <g id="text_21">
     <!-- Frequency (Hz) -->
     <g transform="translate(348.268281 206.533437) scale(0.08 -0.08)">
      <use xlink:href="#DejaVuSans-46"/>
      <use xlink:href="#DejaVuSans-72" transform="translate(50.269531 0)"/>
      <use xlink:href="#DejaVuSans-65" transform="translate(89.132812 0)"/>
      <use xlink:href="#DejaVuSans-71" transform="translate(150.65625 0)"/>
      <use xlink:href="#DejaVuSans-75" transform="translate(214.132812 0)"/>
      <use xlink:href="#DejaVuSans-65" transform="translate(277.511719 0)"/>
      <use xlink:href="#DejaVuSans-6e" transform="translate(339.035156 0)"/>
      <use xlink:href="#DejaVuSans-63" transform="translate(402.414062 0)"/>
      <use xlink:href="#DejaVuSans-79" transform="translate(457.394531 0)"/>
      <use xlink:href="#DejaVuSans-20" transform="translate(516.574219 0)"/>
      <use xlink:href="#DejaVuSans-28" transform="translate(548.361328 0)"/>
      <use xlink:href="#DejaVuSans-48" transform="translate(587.375 0)"/>
      <use xlink:href="#DejaVuSans-7a" transform="translate(662.570312 0)"/>
      <use xlink:href="#DejaVuSans-29" transform="translate(715.060547 0)"/>
     </g>
    </g>
   </g>
   <g id="matplotlib.axis_4">
    <g id="ytick_8">
     <g id="line2d_22">
      <g>
       <use xlink:href="#mfc359afe84" x="272.875365" y="182.121698" style="stroke: #000000; stroke-width: 0.8"/>
      </g>
     </g>
    </g>
    <g id="ytick_9">
     <g id="line2d_23">
      <g>
       <use xlink:href="#mfc359afe84" x="272.875365" y="162.663332" style="stroke: #000000; stroke-width: 0.8"/>
      </g>
     </g>
    </g>
    <g id="ytick_10">
     <g id="line2d_24">
      <g>
       <use xlink:href="#mfc359afe84" x="272.875365" y="143.204967" style="stroke: #000000; stroke-width: 0.8"/>
      </g>
     </g>
    </g>
    <g id="ytick_11">
     <g id="line2d_25">
      <g>
       <use xlink:href="#mfc359afe84" x="272.875365" y="123.746601" style="stroke: #000000; stroke-width: 0.8"/>
      </g>
     </g>
    </g>
    <g id="ytick_12">
     <g id="line2d_26">
      <g>
       <use xlink:href="#mfc359afe84" x="272.875365" y="104.288236" style="stroke: #000000; stroke-width: 0.8"/>
      </g>
     </g>
    </g>
    <g id="ytick_13">
     <g id="line2d_27">
      <g>
       <use xlink:href="#mfc359afe84" x="272.875365" y="84.829871" style="stroke: #000000; stroke-width: 0.8"/>
      </g>
     </g>
    </g>
    <g id="ytick_14">
     <g id="line2d_28">
      <g>
       <use xlink:href="#mfc359afe84" x="272.875365" y="65.371505" style="stroke: #000000; stroke-width: 0.8"/>
      </g>
     </g>
    </g>
    <g id="text_22">
     <!-- ERD/ERS (dB) -->
     <g transform="translate(263.711615 148.236875) rotate(-90) scale(0.08 -0.08)">
      <use xlink:href="#DejaVuSans-45"/>
      <use xlink:href="#DejaVuSans-52" transform="translate(63.183594 0)"/>
      <use xlink:href="#DejaVuSans-44" transform="translate(132.666016 0)"/>
      <use xlink:href="#DejaVuSans-2f" transform="translate(209.667969 0)"/>
      <use xlink:href="#DejaVuSans-45" transform="translate(243.359375 0)"/>
      <use xlink:href="#DejaVuSans-52" transform="translate(306.542969 0)"/>
      <use xlink:href="#DejaVuSans-53" transform="translate(376.025391 0)"/>
      <use xlink:href="#DejaVuSans-20" transform="translate(439.501953 0)"/>
      <use xlink:href="#DejaVuSans-28" transform="translate(471.289062 0)"/>
      <use xlink:href="#DejaVuSans-64" transform="translate(510.302734 0)"/>
      <use xlink:href="#DejaVuSans-42" transform="translate(573.779297 0)"/>
      <use xlink:href="#DejaVuSans-29" transform="translate(642.382812 0)"/>
     </g>
    </g>
   </g>
   <g id="line2d_29">
    <path d="M 282.471425 113.839075 
L 284.652348 116.61331 
L 286.833271 120.738208 
L 289.014194 126.043898 
L 291.195117 135.626795 
L 293.37604 144.076015 
L 295.556962 151.627317 
L 297.737885 157.886236 
L 299.918808 162.924289 
L 302.099731 166.805933 
L 304.280654 166.074033 
L 306.461577 160.629136 
L 308.6425 156.517718 
L 310.823422 152.385023 
L 313.004345 145.250001 
L 315.185268 141.888502 
L 317.366191 139.746224 
L 319.547114 135.203046 
L 321.728037 130.822251 
L 323.90896 129.406663 
L 326.089882 126.32842 
L 328.270805 124.57552 
L 330.451728 131.122481 
L 332.632651 138.221368 
L 334.813574 142.090992 
L 336.994497 143.37903 
L 339.17542 146.268498 
L 341.356343 149.596016 
L 343.537265 147.635958 
L 345.718188 147.371266 
L 347.899111 150.828414 
L 350.080034 153.798049 
L 352.260957 154.024009 
L 354.44188 152.090813 
L 356.622803 148.847344 
L 358.803725 147.184603 
L 360.984648 151.173264 
L 363.165571 155.23104 
L 365.346494 153.424719 
L 367.527417 150.664888 
L 369.70834 151.098658 
L 371.889263 151.743584 
L 374.070186 148.390804 
L 376.251108 140.723584 
L 378.432031 129.810311 
L 380.612954 124.448781 
L 382.793877 121.190854 
L 384.9748 122.27825 
L 387.155723 124.583467 
L 389.336646 128.713955 
L 391.517568 135.318385 
L 393.698491 134.390696 
L 395.879414 129.41578 
L 398.060337 127.466496 
L 400.24126 125.585406 
L 402.422183 128.376035 
L 404.603106 133.43535 
L 406.784028 134.155989 
L 408.964951 133.781286 
L 411.145874 133.745129 
L 413.326797 131.087152 
L 415.50772 128.71697 
L 417.688643 131.796526 
L 419.869566 135.622638 
L 422.050489 134.94853 
L 424.231411 131.072247 
L 426.412334 128.614619 
L 428.593257 131.848523 
L 430.77418 131.916137 
L 432.955103 128.378847 
L 435.136026 127.343077 
L 437.316949 129.902309 
L 439.497871 132.612837 
L 441.678794 133.383069 
L 443.859717 132.557518 
L 446.04064 134.55247 
L 448.221563 138.718873 
L 450.402486 135.763527 
L 452.583409 130.040422 
L 454.764332 126.271191 
L 456.945254 124.936434 
L 459.126177 124.575636 
L 461.3071 125.391363 
L 463.488023 126.401572 
L 465.668946 127.645997 
L 467.849869 129.903871 
L 470.030792 131.100334 
L 472.211714 129.917442 
L 474.392637 127.152841 
" clip-path="url(#p6475e532ec)" style="fill: none; stroke: #1f77b4; stroke-width: 1.3; stroke-linecap: square"/>
   </g>
   <g id="line2d_30">
    <path d="M 282.471425 120.957614 
L 284.652348 113.246386 
L 286.833271 108.878625 
L 289.014194 106.331764 
L 291.195117 114.726638 
L 293.37604 128.577256 
L 295.556962 141.632505 
L 297.737885 149.302562 
L 299.918808 148.813934 
L 302.099731 146.879798 
L 304.280654 142.826323 
L 306.461577 131.764871 
L 308.6425 119.852411 
L 310.823422 116.849682 
L 313.004345 118.731151 
L 315.185268 119.881795 
L 317.366191 125.421092 
L 319.547114 125.172385 
L 321.728037 123.517356 
L 323.90896 119.659941 
L 326.089882 113.903961 
L 328.270805 113.939307 
L 330.451728 108.629367 
L 332.632651 111.872388 
L 334.813574 122.766315 
L 336.994497 126.865208 
L 339.17542 124.498463 
L 341.356343 125.728234 
L 343.537265 120.993921 
L 345.718188 122.679671 
L 347.899111 125.322564 
L 350.080034 125.743644 
L 352.260957 118.091339 
L 354.44188 112.141558 
L 356.622803 117.826532 
L 358.803725 127.317596 
L 360.984648 139.236663 
L 363.165571 148.645147 
L 365.346494 149.75331 
L 367.527417 150.637304 
L 369.70834 143.845518 
L 371.889263 127.903935 
L 374.070186 120.046806 
L 376.251108 118.211314 
L 378.432031 118.950455 
L 380.612954 123.288358 
L 382.793877 123.668895 
L 384.9748 117.870332 
L 387.155723 114.272779 
L 389.336646 114.793803 
L 391.517568 123.648534 
L 393.698491 127.072047 
L 395.879414 120.651377 
L 398.060337 120.212597 
L 400.24126 120.744612 
L 402.422183 118.527111 
L 404.603106 123.711537 
L 406.784028 121.644392 
L 408.964951 110.85936 
L 411.145874 108.431674 
L 413.326797 113.533115 
L 415.50772 117.096599 
L 417.688643 121.927481 
L 419.869566 131.157855 
L 422.050489 127.067362 
L 424.231411 118.388719 
L 426.412334 120.586932 
L 428.593257 129.648947 
L 430.77418 132.043043 
L 432.955103 125.408569 
L 435.136026 127.815427 
L 437.316949 134.225353 
L 439.497871 137.221098 
L 441.678794 138.58815 
L 443.859717 137.834159 
L 446.04064 130.946053 
L 448.221563 132.545411 
L 450.402486 138.735254 
L 452.583409 139.855405 
L 454.764332 140.643064 
L 456.945254 143.903683 
L 459.126177 147.2904 
L 461.3071 141.679089 
L 463.488023 132.048354 
L 465.668946 131.457705 
L 467.849869 134.207869 
L 470.030792 135.047925 
L 472.211714 134.327585 
L 474.392637 129.377579 
" clip-path="url(#p6475e532ec)" style="fill: none; stroke: #ff7f0e; stroke-width: 1.3; stroke-linecap: square"/>
   </g>
   <g id="patch_12">
    <path d="M 272.875365 182.68 
L 272.875365 59.28 
" style="fill: none; stroke: #000000; stroke-width: 0.8; stroke-linejoin: miter; stroke-linecap: square"/>
   </g>
   <g id="patch_13">
    <path d="M 483.988698 182.68 
L 483.988698 59.28 
" style="fill: none; stroke: #000000; stroke-width: 0.8; stroke-linejoin: miter; stroke-linecap: square"/>
   </g>
   <g id="patch_14">
    <path d="M 272.875365 182.68 
L 483.988698 182.68 
" style="fill: none; stroke: #000000; stroke-width: 0.8; stroke-linejoin: miter; stroke-linecap: square"/>
   </g>
   <g id="patch_15">
    <path d="M 272.875365 59.28 
L 483.988698 59.28 
" style="fill: none; stroke: #000000; stroke-width: 0.8; stroke-linejoin: miter; stroke-linecap: square"/>
   </g>
   <g id="text_23">
    <!-- Cz -->
    <g transform="translate(372.927969 53.28) scale(0.09 -0.09)">
     <use xlink:href="#DejaVuSans-43"/>
     <use xlink:href="#DejaVuSans-7a" transform="translate(69.824219 0)"/>
    </g>
   </g>
  </g>
  <g id="axes_3">
   <g id="patch_16">
    <path d="M 509.488698 182.68 
L 720.602031 182.68 
L 720.602031 59.28 
L 509.488698 59.28 
L 509.488698 182.68 
z
" style="fill: none"/>
   </g>
   <g id="patch_17">
    <path d="M 549.617679 182.68 
L 571.426907 182.68 
L 571.426907 59.28 
L 549.617679 59.28 
z
" clip-path="url(#p989bd114c3)" style="fill: #d9d9d9; stroke: #d9d9d9; stroke-linejoin: miter"/>
   </g>
   <g id="patch_18">
    <path d="M 571.426907 182.68 
L 645.578285 182.68 
L 645.578285 59.28 
L 571.426907 59.28 
z
" clip-path="url(#p989bd114c3)" style="fill: #ebebeb; stroke: #ebebeb; stroke-linejoin: miter"/>
   </g>
   <g id="FillBetweenPolyCollection_5">
    <defs>
     <path id="mdb9e28c06f" d="M 519.084759 -111.263574 
L 519.084759 -91.364342 
L 521.265681 -93.695374 
L 523.446604 -92.00719 
L 525.627527 -82.24567 
L 527.80845 -75.69448 
L 529.989373 -75.269487 
L 532.170296 -76.411306 
L 534.351219 -77.813903 
L 536.532141 -76.606316 
L 538.713064 -71.751203 
L 540.893987 -66.772155 
L 543.07491 -64.892706 
L 545.255833 -67.104251 
L 547.436756 -70.582706 
L 549.617679 -75.581396 
L 551.798601 -75.61665 
L 553.979524 -74.462357 
L 556.160447 -69.644518 
L 558.34137 -64.867513 
L 560.522293 -63.26825 
L 562.703216 -66.493323 
L 564.884139 -72.59333 
L 567.065062 -73.148524 
L 569.245984 -68.315423 
L 571.426907 -63.196184 
L 573.60783 -58.600041 
L 575.788753 -53.648232 
L 577.969676 -52.181768 
L 580.150599 -51.504501 
L 582.331522 -53.748532 
L 584.512444 -58.95702 
L 586.693367 -62.584387 
L 588.87429 -63.756746 
L 591.055213 -66.583793 
L 593.236136 -67.345598 
L 595.417059 -63.94907 
L 597.597982 -63.8655 
L 599.778905 -67.306855 
L 601.959827 -71.643435 
L 604.14075 -75.135204 
L 606.321673 -74.528387 
L 608.502596 -75.227022 
L 610.683519 -76.324105 
L 612.864442 -78.409679 
L 615.045365 -79.978966 
L 617.226287 -81.899245 
L 619.40721 -81.405376 
L 621.588133 -81.651498 
L 623.769056 -77.551617 
L 625.949979 -74.379641 
L 628.130902 -73.696632 
L 630.311825 -76.369019 
L 632.492748 -78.782505 
L 634.67367 -79.231042 
L 636.854593 -80.032919 
L 639.035516 -80.142871 
L 641.216439 -78.814899 
L 643.397362 -77.772695 
L 645.578285 -78.413667 
L 647.759208 -77.541076 
L 649.94013 -78.235744 
L 652.121053 -78.636467 
L 654.301976 -78.15927 
L 656.482899 -77.077765 
L 658.663822 -74.084217 
L 660.844745 -73.382392 
L 663.025668 -75.350683 
L 665.20659 -76.997019 
L 667.387513 -79.977146 
L 669.568436 -82.120823 
L 671.749359 -82.980173 
L 673.930282 -79.643406 
L 676.111205 -76.602426 
L 678.292128 -75.206088 
L 680.473051 -76.807095 
L 682.653973 -80.142146 
L 684.834896 -83.291795 
L 687.015819 -82.967809 
L 689.196742 -80.462499 
L 691.377665 -80.859819 
L 693.558588 -81.820828 
L 695.739511 -79.800826 
L 697.920433 -79.544504 
L 700.101356 -81.09317 
L 702.282279 -79.926678 
L 704.463202 -75.358651 
L 706.644125 -70.027195 
L 708.825048 -68.409716 
L 711.005971 -72.433906 
L 711.005971 -91.591889 
L 711.005971 -91.591889 
L 708.825048 -86.480795 
L 706.644125 -88.542915 
L 704.463202 -94.318078 
L 702.282279 -98.539928 
L 700.101356 -98.89717 
L 697.920433 -97.0843 
L 695.739511 -97.412855 
L 693.558588 -99.412184 
L 691.377665 -99.550106 
L 689.196742 -99.329652 
L 687.015819 -101.785559 
L 684.834896 -100.942291 
L 682.653973 -98.052207 
L 680.473051 -94.307266 
L 678.292128 -92.44825 
L 676.111205 -93.9169 
L 673.930282 -97.293213 
L 671.749359 -102.677234 
L 669.568436 -102.230529 
L 667.387513 -100.171399 
L 665.20659 -94.725254 
L 663.025668 -92.404093 
L 660.844745 -90.913227 
L 658.663822 -91.462249 
L 656.482899 -94.318306 
L 654.301976 -94.836016 
L 652.121053 -94.296444 
L 649.94013 -94.708241 
L 647.759208 -95.683359 
L 645.578285 -95.340605 
L 643.397362 -94.192236 
L 641.216439 -96.004055 
L 639.035516 -97.178284 
L 636.854593 -96.439529 
L 634.67367 -95.821018 
L 632.492748 -96.506651 
L 630.311825 -93.678462 
L 628.130902 -91.225185 
L 625.949979 -91.783658 
L 623.769056 -93.507235 
L 621.588133 -98.559777 
L 619.40721 -98.576398 
L 617.226287 -101.27266 
L 615.045365 -98.005186 
L 612.864442 -95.453048 
L 610.683519 -93.819116 
L 608.502596 -92.842655 
L 606.321673 -93.311187 
L 604.14075 -95.508269 
L 601.959827 -90.783373 
L 599.778905 -85.461905 
L 597.597982 -81.963415 
L 595.417059 -82.111334 
L 593.236136 -86.608652 
L 591.055213 -85.334008 
L 588.87429 -82.343674 
L 586.693367 -81.920392 
L 584.512444 -77.270606 
L 582.331522 -73.257822 
L 580.150599 -71.181447 
L 577.969676 -72.61255 
L 575.788753 -74.346263 
L 573.60783 -79.972528 
L 571.426907 -83.810645 
L 569.245984 -88.665211 
L 567.065062 -93.151998 
L 564.884139 -93.175359 
L 562.703216 -88.067496 
L 560.522293 -85.957474 
L 558.34137 -88.866021 
L 556.160447 -94.265991 
L 553.979524 -98.064027 
L 551.798601 -97.821715 
L 549.617679 -97.35037 
L 547.436756 -91.431675 
L 545.255833 -87.813815 
L 543.07491 -85.776305 
L 540.893987 -88.163663 
L 538.713064 -91.640526 
L 536.532141 -96.181772 
L 534.351219 -96.696549 
L 532.170296 -94.012717 
L 529.989373 -92.899293 
L 527.80845 -94.328713 
L 525.627527 -100.435731 
L 523.446604 -109.787728 
L 521.265681 -112.272145 
L 519.084759 -111.263574 
z
" style="stroke: #1f77b4; stroke-opacity: 0.15"/>
    </defs>
    <g clip-path="url(#p989bd114c3)">
     <use xlink:href="#mdb9e28c06f" x="0" y="215.397188" style="fill: #1f77b4; fill-opacity: 0.15; stroke: #1f77b4; stroke-opacity: 0.15"/>
    </g>
   </g>
   <g id="FillBetweenPolyCollection_6">
    <defs>
     <path id="m162cbeecbf" d="M 519.084759 -142.749718 
L 519.084759 -88.176557 
L 521.265681 -80.839028 
L 523.446604 -70.12892 
L 525.627527 -67.115269 
L 527.80845 -70.590618 
L 529.989373 -77.267281 
L 532.170296 -80.297183 
L 534.351219 -80.09947 
L 536.532141 -76.605875 
L 538.713064 -75.358173 
L 540.893987 -77.636089 
L 543.07491 -81.222952 
L 545.255833 -86.813478 
L 547.436756 -96.938444 
L 549.617679 -107.160462 
L 551.798601 -106.73743 
L 553.979524 -105.000368 
L 556.160447 -108.344037 
L 558.34137 -109.994914 
L 560.522293 -105.107757 
L 562.703216 -96.792559 
L 564.884139 -83.445409 
L 567.065062 -70.10596 
L 569.245984 -63.167872 
L 571.426907 -68.810008 
L 573.60783 -70.395069 
L 575.788753 -60.729369 
L 577.969676 -54.316476 
L 580.150599 -55.221103 
L 582.331522 -59.913714 
L 584.512444 -66.883545 
L 586.693367 -76.146535 
L 588.87429 -82.072545 
L 591.055213 -77.858097 
L 593.236136 -70.781262 
L 595.417059 -70.862946 
L 597.597982 -72.784944 
L 599.778905 -78.791552 
L 601.959827 -90.351444 
L 604.14075 -95.537006 
L 606.321673 -94.593449 
L 608.502596 -90.654937 
L 610.683519 -87.340117 
L 612.864442 -88.584612 
L 615.045365 -84.391242 
L 617.226287 -75.621155 
L 619.40721 -74.321416 
L 621.588133 -77.882381 
L 623.769056 -80.463488 
L 625.949979 -76.133057 
L 628.130902 -73.499946 
L 630.311825 -77.203709 
L 632.492748 -83.82511 
L 634.67367 -83.631769 
L 636.854593 -75.044736 
L 639.035516 -71.708373 
L 641.216439 -75.352407 
L 643.397362 -80.388937 
L 645.578285 -86.189537 
L 647.759208 -90.825726 
L 649.94013 -87.835232 
L 652.121053 -79.190786 
L 654.301976 -71.406158 
L 656.482899 -67.000076 
L 658.663822 -63.478286 
L 660.844745 -59.462301 
L 663.025668 -64.476016 
L 665.20659 -67.740557 
L 667.387513 -64.210176 
L 669.568436 -59.427524 
L 671.749359 -61.234149 
L 673.930282 -62.134468 
L 676.111205 -57.48609 
L 678.292128 -57.237979 
L 680.473051 -56.440656 
L 682.653973 -60.363341 
L 684.834896 -66.463685 
L 687.015819 -68.496664 
L 689.196742 -62.670974 
L 691.377665 -53.186659 
L 693.558588 -46.700244 
L 695.739511 -46.251405 
L 697.920433 -53.671613 
L 700.101356 -65.431274 
L 702.282279 -70.609838 
L 704.463202 -64.862401 
L 706.644125 -58.344675 
L 708.825048 -55.798024 
L 711.005971 -56.961118 
L 711.005971 -97.234241 
L 711.005971 -97.234241 
L 708.825048 -95.071617 
L 706.644125 -94.569491 
L 704.463202 -101.441555 
L 702.282279 -113.916569 
L 700.101356 -111.85358 
L 697.920433 -100.990152 
L 695.739511 -93.287476 
L 693.558588 -89.46054 
L 691.377665 -91.374581 
L 689.196742 -101.574867 
L 687.015819 -111.730235 
L 684.834896 -110.392734 
L 682.653973 -98.83327 
L 680.473051 -97.733431 
L 678.292128 -103.000753 
L 676.111205 -99.285252 
L 673.930282 -103.045319 
L 671.749359 -98.105339 
L 669.568436 -95.216898 
L 667.387513 -100.015002 
L 665.20659 -106.103533 
L 663.025668 -98.788033 
L 660.844745 -92.629867 
L 658.663822 -98.181615 
L 656.482899 -101.810963 
L 654.301976 -109.131166 
L 652.121053 -118.174948 
L 649.94013 -126.200302 
L 647.759208 -126.165409 
L 645.578285 -117.458669 
L 643.397362 -114.385853 
L 641.216439 -111.564046 
L 639.035516 -108.442318 
L 636.854593 -111.876645 
L 634.67367 -123.766 
L 632.492748 -124.671154 
L 630.311825 -115.742997 
L 628.130902 -113.149474 
L 625.949979 -116.994472 
L 623.769056 -116.306967 
L 621.588133 -110.730456 
L 619.40721 -109.828717 
L 617.226287 -113.488961 
L 615.045365 -121.78941 
L 612.864442 -124.897301 
L 610.683519 -124.124479 
L 608.502596 -127.831389 
L 606.321673 -130.737867 
L 604.14075 -134.471815 
L 601.959827 -133.618388 
L 599.778905 -118.000275 
L 597.597982 -110.771769 
L 595.417059 -111.488459 
L 593.236136 -112.877739 
L 591.055213 -116.739488 
L 588.87429 -117.131236 
L 586.693367 -113.066418 
L 584.512444 -106.706918 
L 582.331522 -99.676909 
L 580.150599 -96.280038 
L 577.969676 -94.170594 
L 575.788753 -99.476773 
L 573.60783 -108.595169 
L 571.426907 -109.439415 
L 569.245984 -106.42 
L 567.065062 -112.251449 
L 564.884139 -123.921778 
L 562.703216 -137.957593 
L 560.522293 -145.537913 
L 558.34137 -150.508097 
L 556.160447 -149.20197 
L 553.979524 -143.445458 
L 551.798601 -142.198739 
L 549.617679 -142.746396 
L 547.436756 -135.752681 
L 545.255833 -127.606546 
L 543.07491 -120.782867 
L 540.893987 -116.07711 
L 538.713064 -114.137774 
L 536.532141 -115.379844 
L 534.351219 -118.122582 
L 532.170296 -119.628287 
L 529.989373 -117.614895 
L 527.80845 -107.81152 
L 525.627527 -106.567325 
L 523.446604 -114.602577 
L 521.265681 -130.518784 
L 519.084759 -142.749718 
z
" style="stroke: #ff7f0e; stroke-opacity: 0.15"/>
    </defs>
    <g clip-path="url(#p989bd114c3)">
     <use xlink:href="#m162cbeecbf" x="0" y="215.397188" style="fill: #ff7f0e; fill-opacity: 0.15; stroke: #ff7f0e; stroke-opacity: 0.15"/>
    </g>
   </g>
   <g id="line2d_31">
    <path d="M 509.488698 123.746601 
L 720.602031 123.746601 
" clip-path="url(#p989bd114c3)" style="fill: none; stroke-dasharray: 2.96,1.28; stroke-dashoffset: 0; stroke: #000000; stroke-width: 0.8"/>
   </g>
   <g id="matplotlib.axis_5">
    <g id="xtick_11">
     <g id="line2d_32">
      <g>
       <use xlink:href="#ma37d02ad91" x="514.722913" y="182.68" style="stroke: #000000; stroke-width: 0.8"/>
      </g>
     </g>
     <g id="text_24">
      <!-- 0 -->
      <g transform="translate(512.496038 194.998906) scale(0.07 -0.07)">
       <use xlink:href="#DejaVuSans-30"/>
      </g>
     </g>
    </g>
    <g id="xtick_12">
     <g id="line2d_33">
      <g>
       <use xlink:href="#ma37d02ad91" x="558.34137" y="182.68" style="stroke: #000000; stroke-width: 0.8"/>
      </g>
     </g>
     <g id="text_25">
      <!-- 10 -->
      <g transform="translate(553.88762 194.998906) scale(0.07 -0.07)">
       <use xlink:href="#DejaVuSans-31"/>
       <use xlink:href="#DejaVuSans-30" transform="translate(63.623047 0)"/>
      </g>
     </g>
    </g>
    <g id="xtick_13">
     <g id="line2d_34">
      <g>
       <use xlink:href="#ma37d02ad91" x="601.959827" y="182.68" style="stroke: #000000; stroke-width: 0.8"/>
      </g>
     </g>
     <g id="text_26">
      <!-- 20 -->
      <g transform="translate(597.506077 194.998906) scale(0.07 -0.07)">
       <use xlink:href="#DejaVuSans-32"/>
       <use xlink:href="#DejaVuSans-30" transform="translate(63.623047 0)"/>
      </g>
     </g>
    </g>
    <g id="xtick_14">
     <g id="line2d_35">
      <g>
       <use xlink:href="#ma37d02ad91" x="645.578285" y="182.68" style="stroke: #000000; stroke-width: 0.8"/>
      </g>
     </g>
     <g id="text_27">
      <!-- 30 -->
      <g transform="translate(641.124535 194.998906) scale(0.07 -0.07)">
       <use xlink:href="#DejaVuSans-33"/>
       <use xlink:href="#DejaVuSans-30" transform="translate(63.623047 0)"/>
      </g>
     </g>
    </g>
    <g id="xtick_15">
     <g id="line2d_36">
      <g>
       <use xlink:href="#ma37d02ad91" x="689.196742" y="182.68" style="stroke: #000000; stroke-width: 0.8"/>
      </g>
     </g>
     <g id="text_28">
      <!-- 40 -->
      <g transform="translate(684.742992 194.998906) scale(0.07 -0.07)">
       <use xlink:href="#DejaVuSans-34"/>
       <use xlink:href="#DejaVuSans-30" transform="translate(63.623047 0)"/>
      </g>
     </g>
    </g>
    <g id="text_29">
     <!-- Frequency (Hz) -->
     <g transform="translate(584.881615 206.533437) scale(0.08 -0.08)">
      <use xlink:href="#DejaVuSans-46"/>
      <use xlink:href="#DejaVuSans-72" transform="translate(50.269531 0)"/>
      <use xlink:href="#DejaVuSans-65" transform="translate(89.132812 0)"/>
      <use xlink:href="#DejaVuSans-71" transform="translate(150.65625 0)"/>
      <use xlink:href="#DejaVuSans-75" transform="translate(214.132812 0)"/>
      <use xlink:href="#DejaVuSans-65" transform="translate(277.511719 0)"/>
      <use xlink:href="#DejaVuSans-6e" transform="translate(339.035156 0)"/>
      <use xlink:href="#DejaVuSans-63" transform="translate(402.414062 0)"/>
      <use xlink:href="#DejaVuSans-79" transform="translate(457.394531 0)"/>
      <use xlink:href="#DejaVuSans-20" transform="translate(516.574219 0)"/>
      <use xlink:href="#DejaVuSans-28" transform="translate(548.361328 0)"/>
      <use xlink:href="#DejaVuSans-48" transform="translate(587.375 0)"/>
      <use xlink:href="#DejaVuSans-7a" transform="translate(662.570312 0)"/>
      <use xlink:href="#DejaVuSans-29" transform="translate(715.060547 0)"/>
     </g>
    </g>
   </g>
   <g id="matplotlib.axis_6">
    <g id="ytick_15">
     <g id="line2d_37">
      <g>
       <use xlink:href="#mfc359afe84" x="509.488698" y="182.121698" style="stroke: #000000; stroke-width: 0.8"/>
      </g>
     </g>
    </g>
    <g id="ytick_16">
     <g id="line2d_38">
      <g>
       <use xlink:href="#mfc359afe84" x="509.488698" y="162.663332" style="stroke: #000000; stroke-width: 0.8"/>
      </g>
     </g>
    </g>
    <g id="ytick_17">
     <g id="line2d_39">
      <g>
       <use xlink:href="#mfc359afe84" x="509.488698" y="143.204967" style="stroke: #000000; stroke-width: 0.8"/>
      </g>
     </g>
    </g>
    <g id="ytick_18">
     <g id="line2d_40">
      <g>
       <use xlink:href="#mfc359afe84" x="509.488698" y="123.746601" style="stroke: #000000; stroke-width: 0.8"/>
      </g>
     </g>
    </g>
    <g id="ytick_19">
     <g id="line2d_41">
      <g>
       <use xlink:href="#mfc359afe84" x="509.488698" y="104.288236" style="stroke: #000000; stroke-width: 0.8"/>
      </g>
     </g>
    </g>
    <g id="ytick_20">
     <g id="line2d_42">
      <g>
       <use xlink:href="#mfc359afe84" x="509.488698" y="84.829871" style="stroke: #000000; stroke-width: 0.8"/>
      </g>
     </g>
    </g>
    <g id="ytick_21">
     <g id="line2d_43">
      <g>
       <use xlink:href="#mfc359afe84" x="509.488698" y="65.371505" style="stroke: #000000; stroke-width: 0.8"/>
      </g>
     </g>
    </g>
    <g id="text_30">
     <!-- ERD/ERS (dB) -->
     <g transform="translate(500.324948 148.236875) rotate(-90) scale(0.08 -0.08)">
      <use xlink:href="#DejaVuSans-45"/>
      <use xlink:href="#DejaVuSans-52" transform="translate(63.183594 0)"/>
      <use xlink:href="#DejaVuSans-44" transform="translate(132.666016 0)"/>
      <use xlink:href="#DejaVuSans-2f" transform="translate(209.667969 0)"/>
      <use xlink:href="#DejaVuSans-45" transform="translate(243.359375 0)"/>
      <use xlink:href="#DejaVuSans-52" transform="translate(306.542969 0)"/>
      <use xlink:href="#DejaVuSans-53" transform="translate(376.025391 0)"/>
      <use xlink:href="#DejaVuSans-20" transform="translate(439.501953 0)"/>
      <use xlink:href="#DejaVuSans-28" transform="translate(471.289062 0)"/>
      <use xlink:href="#DejaVuSans-64" transform="translate(510.302734 0)"/>
      <use xlink:href="#DejaVuSans-42" transform="translate(573.779297 0)"/>
      <use xlink:href="#DejaVuSans-29" transform="translate(642.382812 0)"/>
     </g>
    </g>
   </g>
   <g id="line2d_44">
    <path d="M 519.084759 114.083229 
L 521.265681 112.413428 
L 523.446604 114.499729 
L 525.627527 124.056487 
L 527.80845 130.385591 
L 529.989373 131.312798 
L 532.170296 130.185176 
L 534.351219 128.141962 
L 536.532141 129.003143 
L 538.713064 133.701323 
L 540.893987 137.929279 
L 543.07491 140.062682 
L 545.255833 137.938155 
L 547.436756 134.389997 
L 549.617679 128.931305 
L 551.798601 128.678005 
L 553.979524 129.133996 
L 556.160447 133.441933 
L 558.34137 138.530421 
L 560.522293 140.784326 
L 562.703216 138.116778 
L 564.884139 132.512843 
L 567.065062 132.246926 
L 569.245984 136.90687 
L 571.426907 141.893773 
L 573.60783 146.110903 
L 575.788753 151.39994 
L 577.969676 153.000029 
L 580.150599 154.054213 
L 582.331522 151.89401 
L 584.512444 147.283375 
L 586.693367 143.144798 
L 588.87429 142.346978 
L 591.055213 139.438287 
L 593.236136 138.420063 
L 595.417059 142.366985 
L 597.597982 142.48273 
L 599.778905 139.012807 
L 601.959827 134.183784 
L 604.14075 130.075451 
L 606.321673 131.477401 
L 608.502596 131.362349 
L 610.683519 130.325577 
L 612.864442 128.465824 
L 615.045365 126.405112 
L 617.226287 123.811235 
L 619.40721 125.4063 
L 621.588133 125.29155 
L 623.769056 129.867761 
L 625.949979 132.315538 
L 628.130902 132.936279 
L 630.311825 130.373447 
L 632.492748 127.75261 
L 634.67367 127.871157 
L 636.854593 127.160963 
L 639.035516 126.73661 
L 641.216439 127.98771 
L 643.397362 129.414722 
L 645.578285 128.520052 
L 647.759208 128.78497 
L 649.94013 128.925195 
L 652.121053 128.930732 
L 654.301976 128.899544 
L 656.482899 129.699152 
L 658.663822 132.623954 
L 660.844745 133.249378 
L 663.025668 131.519799 
L 665.20659 129.536051 
L 667.387513 125.322915 
L 669.568436 123.221512 
L 671.749359 122.568484 
L 673.930282 126.928878 
L 676.111205 130.137524 
L 678.292128 131.570019 
L 680.473051 129.840007 
L 682.653973 126.300011 
L 684.834896 123.280144 
L 687.015819 123.020503 
L 689.196742 125.501112 
L 691.377665 125.192225 
L 693.558588 124.780681 
L 695.739511 126.790347 
L 697.920433 127.082785 
L 700.101356 125.402017 
L 702.282279 126.163884 
L 704.463202 130.558823 
L 706.644125 136.112133 
L 708.825048 137.951932 
L 711.005971 133.38429 
" clip-path="url(#p989bd114c3)" style="fill: none; stroke: #1f77b4; stroke-width: 1.3; stroke-linecap: square"/>
   </g>
   <g id="line2d_45">
    <path d="M 519.084759 99.93405 
L 521.265681 109.718281 
L 523.446604 123.031439 
L 525.627527 128.55589 
L 527.80845 126.196119 
L 529.989373 117.956099 
L 532.170296 115.434452 
L 534.351219 116.286162 
L 536.532141 119.404328 
L 538.713064 120.649214 
L 540.893987 118.540588 
L 543.07491 114.394278 
L 545.255833 108.187175 
L 547.436756 99.051625 
L 549.617679 90.443759 
L 551.798601 90.929103 
L 553.979524 91.174274 
L 556.160447 86.624184 
L 558.34137 85.145682 
L 560.522293 90.074352 
L 562.703216 98.022112 
L 564.884139 111.713594 
L 567.065062 124.218483 
L 569.245984 130.603251 
L 571.426907 126.272476 
L 573.60783 125.902068 
L 575.788753 135.294117 
L 577.969676 141.153653 
L 580.150599 139.646617 
L 582.331522 135.601876 
L 584.512444 128.601956 
L 586.693367 120.790711 
L 588.87429 115.795297 
L 591.055213 118.098395 
L 593.236136 123.567687 
L 595.417059 124.221485 
L 597.597982 123.618831 
L 599.778905 117.001274 
L 601.959827 103.412271 
L 604.14075 100.392777 
L 606.321673 102.73153 
L 608.502596 106.154024 
L 610.683519 109.66489 
L 612.864442 108.656231 
L 615.045365 112.306862 
L 617.226287 120.84213 
L 619.40721 123.322121 
L 621.588133 121.090769 
L 623.769056 117.01196 
L 625.949979 118.833423 
L 628.130902 122.072478 
L 630.311825 118.923835 
L 632.492748 111.149055 
L 634.67367 111.698303 
L 636.854593 121.936497 
L 639.035516 125.321842 
L 641.216439 121.938961 
L 643.397362 118.009793 
L 645.578285 113.573085 
L 647.759208 106.90162 
L 649.94013 108.37942 
L 652.121053 116.71432 
L 654.301976 125.128525 
L 656.482899 130.991668 
L 658.663822 134.567237 
L 660.844745 139.351104 
L 663.025668 133.765163 
L 665.20659 128.475142 
L 667.387513 133.284598 
L 669.568436 138.074977 
L 671.749359 135.727443 
L 673.930282 132.807294 
L 676.111205 137.011516 
L 678.292128 135.277821 
L 680.473051 138.310144 
L 682.653973 135.798882 
L 684.834896 126.968978 
L 687.015819 125.283738 
L 689.196742 133.274267 
L 691.377665 143.116567 
L 693.558588 147.316795 
L 695.739511 145.627747 
L 697.920433 138.066305 
L 700.101356 126.75476 
L 702.282279 123.133984 
L 704.463202 132.24521 
L 706.644125 138.940105 
L 708.825048 139.962367 
L 711.005971 138.299508 
" clip-path="url(#p989bd114c3)" style="fill: none; stroke: #ff7f0e; stroke-width: 1.3; stroke-linecap: square"/>
   </g>
   <g id="patch_19">
    <path d="M 509.488698 182.68 
L 509.488698 59.28 
" style="fill: none; stroke: #000000; stroke-width: 0.8; stroke-linejoin: miter; stroke-linecap: square"/>
   </g>
   <g id="patch_20">
    <path d="M 720.602031 182.68 
L 720.602031 59.28 
" style="fill: none; stroke: #000000; stroke-width: 0.8; stroke-linejoin: miter; stroke-linecap: square"/>
   </g>
   <g id="patch_21">
    <path d="M 509.488698 182.68 
L 720.602031 182.68 
" style="fill: none; stroke: #000000; stroke-width: 0.8; stroke-linejoin: miter; stroke-linecap: square"/>
   </g>
   <g id="patch_22">
    <path d="M 509.488698 59.28 
L 720.602031 59.28 
" style="fill: none; stroke: #000000; stroke-width: 0.8; stroke-linejoin: miter; stroke-linecap: square"/>
   </g>
   <g id="text_31">
    <!-- C4 -->
    <g transform="translate(609.039974 53.28) scale(0.09 -0.09)">
     <use xlink:href="#DejaVuSans-43"/>
     <use xlink:href="#DejaVuSans-34" transform="translate(69.824219 0)"/>
    </g>
   </g>
  </g>
  <g id="text_32">
   <!-- ERD/ERS — ME — S07 (Movement vs Rest) -->
   <g transform="translate(246.556172 15.558281) scale(0.11 -0.11)">
    <defs>
     <path id="DejaVuSans-2014" d="M 313 1978 
L 6088 1978 
L 6088 1528 
L 313 1528 
L 313 1978 
z
" transform="scale(0.015625)"/>
     <path id="DejaVuSans-4d" d="M 628 4666 
L 1569 4666 
L 2759 1491 
L 3956 4666 
L 4897 4666 
L 4897 0 
L 4281 0 
L 4281 4097 
L 3078 897 
L 2444 897 
L 1241 4097 
L 1241 0 
L 628 0 
L 628 4666 
z
" transform="scale(0.015625)"/>
     <path id="DejaVuSans-37" d="M 525 4666 
L 3525 4666 
L 3525 4397 
L 1831 0 
L 1172 0 
L 2766 4134 
L 525 4134 
L 525 4666 
z
" transform="scale(0.015625)"/>
     <path id="DejaVuSans-6f" d="M 1959 3097 
Q 1497 3097 1228 2736 
Q 959 2375 959 1747 
Q 959 1119 1226 758 
Q 1494 397 1959 397 
Q 2419 397 2687 759 
Q 2956 1122 2956 1747 
Q 2956 2369 2687 2733 
Q 2419 3097 1959 3097 
z
M 1959 3584 
Q 2709 3584 3137 3096 
Q 3566 2609 3566 1747 
Q 3566 888 3137 398 
Q 2709 -91 1959 -91 
Q 1206 -91 779 398 
Q 353 888 353 1747 
Q 353 2609 779 3096 
Q 1206 3584 1959 3584 
z
" transform="scale(0.015625)"/>
     <path id="DejaVuSans-76" d="M 191 3500 
L 800 3500 
L 1894 563 
L 2988 3500 
L 3597 3500 
L 2284 0 
L 1503 0 
L 191 3500 
z
" transform="scale(0.015625)"/>
     <path id="DejaVuSans-6d" d="M 3328 2828 
Q 3544 3216 3844 3400 
Q 4144 3584 4550 3584 
Q 5097 3584 5394 3201 
Q 5691 2819 5691 2113 
L 5691 0 
L 5113 0 
L 5113 2094 
Q 5113 2597 4934 2840 
Q 4756 3084 4391 3084 
Q 3944 3084 3684 2787 
Q 3425 2491 3425 1978 
L 3425 0 
L 2847 0 
L 2847 2094 
Q 2847 2600 2669 2842 
Q 2491 3084 2119 3084 
Q 1678 3084 1418 2786 
Q 1159 2488 1159 1978 
L 1159 0 
L 581 0 
L 581 3500 
L 1159 3500 
L 1159 2956 
Q 1356 3278 1631 3431 
Q 1906 3584 2284 3584 
Q 2666 3584 2933 3390 
Q 3200 3197 3328 2828 
z
" transform="scale(0.015625)"/>
     <path id="DejaVuSans-74" d="M 1172 4494 
L 1172 3500 
L 2356 3500 
L 2356 3053 
L 1172 3053 
L 1172 1153 
Q 1172 725 1289 603 
Q 1406 481 1766 481 
L 2356 481 
L 2356 0 
L 1766 0 
Q 1100 0 847 248 
Q 594 497 594 1153 
L 594 3053 
L 172 3053 
L 172 3500 
L 594 3500 
L 594 4494 
L 1172 4494 
z
" transform="scale(0.015625)"/>
     <path id="DejaVuSans-73" d="M 2834 3397 
L 2834 2853 
Q 2591 2978 2328 3040 
Q 2066 3103 1784 3103 
Q 1356 3103 1142 2972 
Q 928 2841 928 2578 
Q 928 2378 1081 2264 
Q 1234 2150 1697 2047 
L 1894 2003 
Q 2506 1872 2764 1633 
Q 3022 1394 3022 966 
Q 3022 478 2636 193 
Q 2250 -91 1575 -91 
Q 1294 -91 989 -36 
Q 684 19 347 128 
L 347 722 
Q 666 556 975 473 
Q 1284 391 1588 391 
Q 1994 391 2212 530 
Q 2431 669 2431 922 
Q 2431 1156 2273 1281 
Q 2116 1406 1581 1522 
L 1381 1569 
Q 847 1681 609 1914 
Q 372 2147 372 2553 
Q 372 3047 722 3315 
Q 1072 3584 1716 3584 
Q 2034 3584 2315 3537 
Q 2597 3491 2834 3397 
z
" transform="scale(0.015625)"/>
    </defs>
    <use xlink:href="#DejaVuSans-45"/>
    <use xlink:href="#DejaVuSans-52" transform="translate(63.183594 0)"/>
    <use xlink:href="#DejaVuSans-44" transform="translate(132.666016 0)"/>
    <use xlink:href="#DejaVuSans-2f" transform="translate(209.667969 0)"/>
    <use xlink:href="#DejaVuSans-45" transform="translate(243.359375 0)"/>
    <use xlink:href="#DejaVuSans-52" transform="translate(306.542969 0)"/>
    <use xlink:href="#DejaVuSans-53" transform="translate(376.025391 0)"/>
    <use xlink:href="#DejaVuSans-20" transform="translate(439.501953 0)"/>
    <use xlink:href="#DejaVuSans-2014" transform="translate(471.289062 0)"/>
    <use xlink:href="#DejaVuSans-20" transform="translate(571.289062 0)"/>
    <use xlink:href="#DejaVuSans-4d" transform="translate(603.076172 0)"/>
    <use xlink:href="#DejaVuSans-45" transform="translate(689.355469 0)"/>
    <use xlink:href="#DejaVuSans-20" transform="translate(752.539062 0)"/>
    <use xlink:href="#DejaVuSans-2014" transform="translate(784.326172 0)"/>
    <use xlink:href="#DejaVuSans-20" transform="translate(884.326172 0)"/>
    <use xlink:href="#DejaVuSans-53" transform="translate(916.113281 0)"/>
    <use xlink:href="#DejaVuSans-30" transform="translate(979.589844 0)"/>
    <use xlink:href="#DejaVuSans-37" transform="translate(1043.212891 0)"/>
    <use xlink:href="#DejaVuSans-20" transform="translate(1106.835938 0)"/>
    <use xlink:href="#DejaVuSans-28" transform="translate(1138.623047 0)"/>
    <use xlink:href="#DejaVuSans-4d" transform="translate(1177.636719 0)"/>
    <use xlink:href="#DejaVuSans-6f" transform="translate(1263.916016 0)"/>
    <use xlink:href="#DejaVuSans-76" transform="translate(1325.097656 0)"/>
    <use xlink:href="#DejaVuSans-65" transform="translate(1384.277344 0)"/>
    <use xlink:href="#DejaVuSans-6d" transform="translate(1445.800781 0)"/>
    <use xlink:href="#DejaVuSans-65" transform="translate(1543.212891 0)"/>
    <use xlink:href="#DejaVuSans-6e" transform="translate(1604.736328 0)"/>
    <use xlink:href="#DejaVuSans-74" transform="translate(1668.115234 0)"/>
    <use xlink:href="#DejaVuSans-20" transform="translate(1707.324219 0)"/>
    <use xlink:href="#DejaVuSans-76" transform="translate(1739.111328 0)"/>
    <use xlink:href="#DejaVuSans-73" transform="translate(1798.291016 0)"/>
    <use xlink:href="#DejaVuSans-20" transform="translate(1850.390625 0)"/>
    <use xlink:href="#DejaVuSans-52" transform="translate(1882.177734 0)"/>
    <use xlink:href="#DejaVuSans-65" transform="translate(1947.160156 0)"/>
    <use xlink:href="#DejaVuSans-73" transform="translate(2008.683594 0)"/>
    <use xlink:href="#DejaVuSans-74" transform="translate(2060.783203 0)"/>
    <use xlink:href="#DejaVuSans-29" transform="translate(2099.992188 0)"/>
   </g>
  </g>
  <g id="legend_1">
   <g id="patch_23">
    <path d="M 663.350812 30.109375 
L 722.830031 30.109375 
Q 724.230031 30.109375 724.230031 28.709375 
L 724.230031 8.86 
Q 724.230031 7.46 722.830031 7.46 
L 663.350812 7.46 
Q 661.950812 7.46 661.950812 8.86 
L 661.950812 28.709375 
Q 661.950812 30.109375 663.350812 30.109375 
z
" style="fill: #ffffff; opacity: 0.8; stroke: #cccccc; stroke-linejoin: miter"/>
   </g>
   <g id="line2d_46">
    <path d="M 664.750812 13.128906 
L 671.750812 13.128906 
L 678.750812 13.128906 
" style="fill: none; stroke: #1f77b4; stroke-width: 1.3; stroke-linecap: square"/>
   </g>
   <g id="text_33">
    <!-- Movement -->
    <g transform="translate(684.350812 15.578906) scale(0.07 -0.07)">
     <use xlink:href="#DejaVuSans-4d"/>
     <use xlink:href="#DejaVuSans-6f" transform="translate(86.279297 0)"/>
     <use xlink:href="#DejaVuSans-76" transform="translate(147.460938 0)"/>
     <use xlink:href="#DejaVuSans-65" transform="translate(206.640625 0)"/>
     <use xlink:href="#DejaVuSans-6d" transform="translate(268.164062 0)"/>
     <use xlink:href="#DejaVuSans-65" transform="translate(365.576172 0)"/>
     <use xlink:href="#DejaVuSans-6e" transform="translate(427.099609 0)"/>
     <use xlink:href="#DejaVuSans-74" transform="translate(490.478516 0)"/>
    </g>
   </g>
   <g id="line2d_47">
    <path d="M 664.750812 23.403594 
L 671.750812 23.403594 
L 678.750812 23.403594 
" style="fill: none; stroke: #ff7f0e; stroke-width: 1.3; stroke-linecap: square"/>
   </g>
   <g id="text_34">
    <!-- rest -->
    <g transform="translate(684.350812 25.853594) scale(0.07 -0.07)">
     <use xlink:href="#DejaVuSans-72"/>
     <use xlink:href="#DejaVuSans-65" transform="translate(38.863281 0)"/>
     <use xlink:href="#DejaVuSans-73" transform="translate(100.386719 0)"/>
     <use xlink:href="#DejaVuSans-74" transform="translate(152.486328 0)"/>
    </g>
   </g>
  </g>
 </g>
 <defs>
  <clipPath id="pc82da442ed">
   <rect x="36.262031" y="59.28" width="211.113333" height="123.4"/>
  </clipPath>
  <clipPath id="p6475e532ec">
   <rect x="272.875365" y="59.28" width="211.113333" height="123.4"/>
  </clipPath>
  <clipPath id="p989bd114c3">
   <rect x="509.488698" y="59.28" width="211.113333" height="123.4"/>
  </clipPath>
 </defs>
</svg>
