<?xml version="1.0" encoding="utf-8" standalone="no"?>
<!DOCTYPE svg PUBLIC "-//W3C//DTD SVG 1.1//EN"
  "http://www.w3.org/Graphics/SVG/1.1/DTD/svg11.dtd">
<svg xmlns:xlink="http://www.w3.org/1999/xlink" width="731.430031pt" height="215.397188pt" viewBox="0 0 731.430031 215.397188" xmlns="http://www.w3.org/2000/svg" version="1.1">
 <metadata>
  <rdf:RDF xmlns:dc="http://purl.org/dc/elements/1.1/" xmlns:cc="http://creativecommons.org/ns#" xmlns:rdf="http://www.w3.org/1999/02/22-rdf-syntax-ns#">
   <cc:Work>
    <dc:type rdf:resource="http://purl.org/dc/dcmitype/StillImage"/>
    <dc:date>2026-06-26T22:26:30.373957</dc:date>
    <dc:format>image/svg+xml</dc:format>
    <dc:creator>
     <cc:Agent>
      <dc:title>Matplotlib v3.10.9, https://matplotlib.org/</dc:title>
     </cc:Agent>
    </dc:creator>
   </cc:Work>
  </rdf:RDF>
 </metadata>
 <defs>
  <style type="text/css">*{stroke-linejoin: round; stroke-linecap: butt}</style>
 </defs>
 <g id="figure_1">
  <g id="patch_1">
   <path d="M 0 215.397188 
L 731.430031 215.397188 
L 731.430031 0 
L 0 0 
L 0 215.397188 
z
" style="fill: none"/>
  </g>
  <g id="axes_1">
   <g id="patch_2">
    <path d="M 36.262031 182.68 
L 247.375365 182.68 
L 247.375365 59.28 
L 36.262031 59.28 
L 36.262031 182.68 
z
" style="fill: none"/>
   </g>
   <g id="patch_3">
    <path d="M 76.391012 182.68 
L 98.200241 182.68 
L 98.200241 59.28 
L 76.391012 59.28 
z
" clip-path="url(#p981b236e4b)" style="fill: #d9d9d9; stroke: #d9d9d9; stroke-linejoin: miter"/>
   </g>
   <g id="patch_4">
    <path d="M 98.200241 182.68 
L 172.351618 182.68 
L 172.351618 59.28 
L 98.200241 59.28 
z
" clip-path="url(#p981b236e4b)" style="fill: #ebebeb; stroke: #ebebeb; stroke-linejoin: miter"/>
   </g>
   <g id="FillBetweenPolyCollection_1">
    <defs>
     <path id="m989b58f616" d="M 45.858092 -86.497911 
L 45.858092 -72.423564 
L 48.039015 -71.760256 
L 50.219938 -75.149805 
L 52.40086 -81.974448 
L 54.581783 -83.872774 
L 56.762706 -82.403859 
L 58.943629 -80.408574 
L 61.124552 -78.865386 
L 63.305475 -76.875944 
L 65.486398 -75.269043 
L 67.667321 -75.938371 
L 69.848243 -75.864431 
L 72.029166 -75.60952 
L 74.210089 -73.245744 
L 76.391012 -70.799208 
L 78.571935 -70.412346 
L 80.752858 -77.225755 
L 82.933781 -96.644207 
L 85.114703 -118.372009 
L 87.295626 -127.25056 
L 89.476549 -117.312251 
L 91.657472 -91.659392 
L 93.838395 -68.305283 
L 96.019318 -64.200533 
L 98.200241 -67.079254 
L 100.381163 -70.654908 
L 102.562086 -73.270007 
L 104.743009 -73.679657 
L 106.923932 -73.404612 
L 109.104855 -73.209837 
L 111.285778 -74.178963 
L 113.466701 -75.198307 
L 115.647624 -76.442243 
L 117.828546 -76.06645 
L 120.009469 -72.156705 
L 122.190392 -68.361948 
L 124.371315 -67.443744 
L 126.552238 -69.828544 
L 128.733161 -73.500906 
L 130.914084 -75.040723 
L 133.095006 -71.476261 
L 135.275929 -66.253831 
L 137.456852 -61.753409 
L 139.637775 -59.122619 
L 141.818698 -58.608574 
L 143.999621 -58.774931 
L 146.180544 -58.461849 
L 148.361467 -58.11246 
L 150.542389 -55.845216 
L 152.723312 -53.031588 
L 154.904235 -55.596238 
L 157.085158 -60.781595 
L 159.266081 -63.118773 
L 161.447004 -65.369666 
L 163.627927 -67.051672 
L 165.808849 -68.645448 
L 167.989772 -68.834571 
L 170.170695 -68.91797 
L 172.351618 -67.312168 
L 174.532541 -62.680535 
L 176.713464 -58.759386 
L 178.894387 -57.75483 
L 181.075309 -60.566932 
L 183.256232 -63.466168 
L 185.437155 -63.312694 
L 187.618078 -60.9895 
L 189.799001 -58.611528 
L 191.979924 -60.456525 
L 194.160847 -63.800142 
L 196.34177 -63.096217 
L 198.522692 -62.123615 
L 200.703615 -63.624491 
L 202.884538 -63.466275 
L 205.065461 -63.404482 
L 207.246384 -64.502168 
L 209.427307 -63.036857 
L 211.60823 -61.556336 
L 213.789152 -60.285892 
L 215.970075 -57.897846 
L 218.150998 -56.338406 
L 220.331921 -53.603757 
L 222.512844 -51.07291 
L 224.693767 -50.352137 
L 226.87469 -52.932003 
L 229.055613 -56.625475 
L 231.236535 -58.278833 
L 233.417458 -57.885319 
L 235.598381 -56.655211 
L 237.779304 -56.046786 
L 237.779304 -72.622079 
L 237.779304 -72.622079 
L 235.598381 -73.587099 
L 233.417458 -74.728941 
L 231.236535 -74.697616 
L 229.055613 -72.583563 
L 226.87469 -68.935412 
L 224.693767 -66.17747 
L 222.512844 -66.614363 
L 220.331921 -69.229851 
L 218.150998 -72.048048 
L 215.970075 -73.256244 
L 213.789152 -75.5545 
L 211.60823 -76.614912 
L 209.427307 -77.975999 
L 207.246384 -79.072638 
L 205.065461 -77.228507 
L 202.884538 -77.411395 
L 200.703615 -78.04496 
L 198.522692 -76.339697 
L 196.34177 -77.87641 
L 194.160847 -78.349778 
L 191.979924 -74.035456 
L 189.799001 -71.517871 
L 187.618078 -74.663015 
L 185.437155 -77.631215 
L 183.256232 -78.517347 
L 181.075309 -74.963372 
L 178.894387 -70.907183 
L 176.713464 -71.396527 
L 174.532541 -75.071353 
L 172.351618 -79.541923 
L 170.170695 -80.607721 
L 167.989772 -81.02242 
L 165.808849 -81.05568 
L 163.627927 -80.097854 
L 161.447004 -78.793505 
L 159.266081 -76.183901 
L 157.085158 -73.370562 
L 154.904235 -68.20866 
L 152.723312 -65.677341 
L 150.542389 -69.14028 
L 148.361467 -71.494025 
L 146.180544 -72.031117 
L 143.999621 -72.876692 
L 141.818698 -73.173007 
L 139.637775 -73.139264 
L 137.456852 -74.553863 
L 135.275929 -78.942905 
L 133.095006 -84.241598 
L 130.914084 -87.602681 
L 128.733161 -86.48221 
L 126.552238 -82.940906 
L 124.371315 -80.547124 
L 122.190392 -80.907695 
L 120.009469 -84.892272 
L 117.828546 -89.697391 
L 115.647624 -90.271986 
L 113.466701 -88.430075 
L 111.285778 -86.736837 
L 109.104855 -85.981208 
L 106.923932 -86.999696 
L 104.743009 -86.860884 
L 102.562086 -86.641197 
L 100.381163 -82.975381 
L 98.200241 -80.200755 
L 96.019318 -79.056095 
L 93.838395 -82.419786 
L 91.657472 -105.731585 
L 89.476549 -132.933533 
L 87.295626 -143.342283 
L 85.114703 -134.096402 
L 82.933781 -111.22979 
L 80.752858 -91.725537 
L 78.571935 -85.50248 
L 76.391012 -85.109495 
L 74.210089 -86.456068 
L 72.029166 -88.174923 
L 69.848243 -87.892588 
L 67.667321 -88.882751 
L 65.486398 -88.24451 
L 63.305475 -89.783938 
L 61.124552 -91.325463 
L 58.943629 -92.907004 
L 56.762706 -95.31869 
L 54.581783 -96.460073 
L 52.40086 -94.853083 
L 50.219938 -88.369987 
L 48.039015 -85.335533 
L 45.858092 -86.497911 
z
" style="stroke: #1f77b4; stroke-opacity: 0.15"/>
    </defs>
    <g clip-path="url(#p981b236e4b)">
     <use xlink:href="#m989b58f616" x="0" y="215.397188" style="fill: #1f77b4; fill-opacity: 0.15; stroke: #1f77b4; stroke-opacity: 0.15"/>
    </g>
   </g>
   <g id="FillBetweenPolyCollection_2">
    <defs>
     <path id="m53cf1d4db3" d="M 45.858092 -88.98998 
L 45.858092 -62.31299 
L 48.039015 -63.774187 
L 50.219938 -65.522167 
L 52.40086 -68.172442 
L 54.581783 -69.496183 
L 56.762706 -66.495396 
L 58.943629 -60.842095 
L 61.124552 -56.204551 
L 63.305475 -55.713949 
L 65.486398 -63.281543 
L 67.667321 -69.793959 
L 69.848243 -69.934559 
L 72.029166 -67.20257 
L 74.210089 -61.172963 
L 76.391012 -54.332652 
L 78.571935 -49.991709 
L 80.752858 -52.544416 
L 82.933781 -62.01647 
L 85.114703 -75.871918 
L 87.295626 -92.699147 
L 89.476549 -100.452989 
L 91.657472 -89.125479 
L 93.838395 -75.265919 
L 96.019318 -73.634523 
L 98.200241 -71.540777 
L 100.381163 -66.126158 
L 102.562086 -63.914838 
L 104.743009 -66.202652 
L 106.923932 -71.602047 
L 109.104855 -73.863635 
L 111.285778 -74.2089 
L 113.466701 -75.830149 
L 115.647624 -77.024598 
L 117.828546 -74.186705 
L 120.009469 -65.635364 
L 122.190392 -56.966114 
L 124.371315 -54.872532 
L 126.552238 -63.54728 
L 128.733161 -71.15146 
L 130.914084 -65.870222 
L 133.095006 -55.820898 
L 135.275929 -51.484314 
L 137.456852 -53.891503 
L 139.637775 -59.398576 
L 141.818698 -63.107758 
L 143.999621 -62.159582 
L 146.180544 -60.901206 
L 148.361467 -61.758335 
L 150.542389 -63.363197 
L 152.723312 -63.801539 
L 154.904235 -64.444409 
L 157.085158 -68.297751 
L 159.266081 -72.447676 
L 161.447004 -67.259306 
L 163.627927 -61.755654 
L 165.808849 -59.454256 
L 167.989772 -56.650731 
L 170.170695 -56.995311 
L 172.351618 -58.666552 
L 174.532541 -61.795326 
L 176.713464 -62.351971 
L 178.894387 -57.531567 
L 181.075309 -53.164591 
L 183.256232 -57.831369 
L 185.437155 -66.128135 
L 187.618078 -67.82332 
L 189.799001 -62.045737 
L 191.979924 -58.36283 
L 194.160847 -62.713453 
L 196.34177 -68.792136 
L 198.522692 -71.645157 
L 200.703615 -70.892051 
L 202.884538 -65.296421 
L 205.065461 -55.782579 
L 207.246384 -49.595711 
L 209.427307 -51.687641 
L 211.60823 -58.410041 
L 213.789152 -58.357799 
L 215.970075 -53.41631 
L 218.150998 -49.038063 
L 220.331921 -47.486275 
L 222.512844 -46.103428 
L 224.693767 -43.839944 
L 226.87469 -41.850277 
L 229.055613 -41.330337 
L 231.236535 -39.61257 
L 233.417458 -38.326278 
L 235.598381 -39.641978 
L 237.779304 -39.916672 
L 237.779304 -71.003637 
L 237.779304 -71.003637 
L 235.598381 -70.551087 
L 233.417458 -72.564534 
L 231.236535 -73.817207 
L 229.055613 -74.768911 
L 226.87469 -77.974887 
L 224.693767 -76.113015 
L 222.512844 -76.153903 
L 220.331921 -76.971092 
L 218.150998 -78.559058 
L 215.970075 -82.572353 
L 213.789152 -83.991674 
L 211.60823 -82.882654 
L 209.427307 -82.624108 
L 207.246384 -79.627461 
L 205.065461 -81.787763 
L 202.884538 -89.760154 
L 200.703615 -93.603835 
L 198.522692 -94.480011 
L 196.34177 -95.24863 
L 194.160847 -88.916523 
L 191.979924 -84.273401 
L 189.799001 -87.69517 
L 187.618078 -95.81714 
L 185.437155 -96.785354 
L 183.256232 -85.967963 
L 181.075309 -78.144188 
L 178.894387 -78.480609 
L 176.713464 -82.893561 
L 174.532541 -86.290854 
L 172.351618 -87.048101 
L 170.170695 -85.674795 
L 167.989772 -84.712721 
L 165.808849 -87.091459 
L 163.627927 -90.154913 
L 161.447004 -93.624186 
L 159.266081 -97.291523 
L 157.085158 -96.661529 
L 154.904235 -91.642776 
L 152.723312 -88.775831 
L 150.542389 -88.596812 
L 148.361467 -84.828878 
L 146.180544 -83.971475 
L 143.999621 -92.44539 
L 141.818698 -97.161047 
L 139.637775 -89.572901 
L 137.456852 -80.522827 
L 135.275929 -78.130437 
L 133.095006 -80.428379 
L 130.914084 -89.712174 
L 128.733161 -98.663457 
L 126.552238 -92.695964 
L 124.371315 -81.132907 
L 122.190392 -85.98867 
L 120.009469 -90.235386 
L 117.828546 -97.411527 
L 115.647624 -102.113677 
L 113.466701 -99.971115 
L 111.285778 -98.414016 
L 109.104855 -102.028225 
L 106.923932 -98.972788 
L 104.743009 -90.054783 
L 102.562086 -91.498627 
L 100.381163 -96.480995 
L 98.200241 -98.745494 
L 96.019318 -100.323209 
L 93.838395 -104.240977 
L 91.657472 -118.494498 
L 89.476549 -128.49805 
L 87.295626 -120.800237 
L 85.114703 -108.139104 
L 82.933781 -90.514984 
L 80.752858 -82.312134 
L 78.571935 -80.663547 
L 76.391012 -83.592097 
L 74.210089 -90.571517 
L 72.029166 -98.530539 
L 69.848243 -98.338152 
L 67.667321 -96.233105 
L 65.486398 -87.562409 
L 63.305475 -79.952494 
L 61.124552 -82.751606 
L 58.943629 -88.283766 
L 56.762706 -92.556682 
L 54.581783 -93.976277 
L 52.40086 -92.741518 
L 50.219938 -92.253094 
L 48.039015 -89.296489 
L 45.858092 -88.98998 
z
" style="stroke: #ff7f0e; stroke-opacity: 0.15"/>
    </defs>
    <g clip-path="url(#p981b236e4b)">
     <use xlink:href="#m53cf1d4db3" x="0" y="215.397188" style="fill: #ff7f0e; fill-opacity: 0.15; stroke: #ff7f0e; stroke-opacity: 0.15"/>
    </g>
   </g>
   <g id="line2d_1">
    <path d="M 36.262031 129.217647 
L 247.375365 129.217647 
" clip-path="url(#p981b236e4b)" style="fill: none; stroke-dasharray: 2.96,1.28; stroke-dashoffset: 0; stroke: #000000; stroke-width: 0.8"/>
   </g>
   <g id="matplotlib.axis_1">
    <g id="xtick_1">
     <g id="line2d_2">
      <defs>
       <path id="mac7554419c" d="M 0 0 
L 0 3.5 
" style="stroke: #000000; stroke-width: 0.8"/>
      </defs>
      <g>
       <use xlink:href="#mac7554419c" x="41.496246" y="182.68" style="stroke: #000000; stroke-width: 0.8"/>
      </g>
     </g>
     <g id="text_1">
      <!-- 0 -->
      <g transform="translate(39.269371 194.998906) scale(0.07 -0.07)">
       <defs>
        <path id="DejaVuSans-30" d="M 2034 4250 
Q 1547 4250 1301 3770 
Q 1056 3291 1056 2328 
Q 1056 1369 1301 889 
Q 1547 409 2034 409 
Q 2525 409 2770 889 
Q 3016 1369 3016 2328 
Q 3016 3291 2770 3770 
Q 2525 4250 2034 4250 
z
M 2034 4750 
Q 2819 4750 3233 4129 
Q 3647 3509 3647 2328 
Q 3647 1150 3233 529 
Q 2819 -91 2034 -91 
Q 1250 -91 836 529 
Q 422 1150 422 2328 
Q 422 3509 836 4129 
Q 1250 4750 2034 4750 
z
" transform="scale(0.015625)"/>
       </defs>
       <use xlink:href="#DejaVuSans-30"/>
      </g>
     </g>
    </g>
    <g id="xtick_2">
     <g id="line2d_3">
      <g>
       <use xlink:href="#mac7554419c" x="85.114703" y="182.68" style="stroke: #000000; stroke-width: 0.8"/>
      </g>
     </g>
     <g id="text_2">
      <!-- 10 -->
      <g transform="translate(80.660953 194.998906) scale(0.07 -0.07)">
       <defs>
        <path id="DejaVuSans-31" d="M 794 531 
L 1825 531 
L 1825 4091 
L 703 3866 
L 703 4441 
L 1819 4666 
L 2450 4666 
L 2450 531 
L 3481 531 
L 3481 0 
L 794 0 
L 794 531 
z
" transform="scale(0.015625)"/>
       </defs>
       <use xlink:href="#DejaVuSans-31"/>
       <use xlink:href="#DejaVuSans-30" transform="translate(63.623047 0)"/>
      </g>
     </g>
    </g>
    <g id="xtick_3">
     <g id="line2d_4">
      <g>
       <use xlink:href="#mac7554419c" x="128.733161" y="182.68" style="stroke: #000000; stroke-width: 0.8"/>
      </g>
     </g>
     <g id="text_3">
      <!-- 20 -->
      <g transform="translate(124.279411 194.998906) scale(0.07 -0.07)">
       <defs>
        <path id="DejaVuSans-32" d="M 1228 531 
L 3431 531 
L 3431 0 
L 469 0 
L 469 531 
Q 828 903 1448 1529 
Q 2069 2156 2228 2338 
Q 2531 2678 2651 2914 
Q 2772 3150 2772 3378 
Q 2772 3750 2511 3984 
Q 2250 4219 1831 4219 
Q 1534 4219 1204 4116 
Q 875 4013 500 3803 
L 500 4441 
Q 881 4594 1212 4672 
Q 1544 4750 1819 4750 
Q 2544 4750 2975 4387 
Q 3406 4025 3406 3419 
Q 3406 3131 3298 2873 
Q 3191 2616 2906 2266 
Q 2828 2175 2409 1742 
Q 1991 1309 1228 531 
z
" transform="scale(0.015625)"/>
       </defs>
       <use xlink:href="#DejaVuSans-32"/>
       <use xlink:href="#DejaVuSans-30" transform="translate(63.623047 0)"/>
      </g>
     </g>
    </g>
    <g id="xtick_4">
     <g id="line2d_5">
      <g>
       <use xlink:href="#mac7554419c" x="172.351618" y="182.68" style="stroke: #000000; stroke-width: 0.8"/>
      </g>
     </g>
     <g id="text_4">
      <!-- 30 -->
      <g transform="translate(167.897868 194.998906) scale(0.07 -0.07)">
       <defs>
        <path id="DejaVuSans-33" d="M 2597 2516 
Q 3050 2419 3304 2112 
Q 3559 1806 3559 1356 
Q 3559 666 3084 287 
Q 2609 -91 1734 -91 
Q 1441 -91 1130 -33 
Q 819 25 488 141 
L 488 750 
Q 750 597 1062 519 
Q 1375 441 1716 441 
Q 2309 441 2620 675 
Q 2931 909 2931 1356 
Q 2931 1769 2642 2001 
Q 2353 2234 1838 2234 
L 1294 2234 
L 1294 2753 
L 1863 2753 
Q 2328 2753 2575 2939 
Q 2822 3125 2822 3475 
Q 2822 3834 2567 4026 
Q 2313 4219 1838 4219 
Q 1578 4219 1281 4162 
Q 984 4106 628 3988 
L 628 4550 
Q 988 4650 1302 4700 
Q 1616 4750 1894 4750 
Q 2613 4750 3031 4423 
Q 3450 4097 3450 3541 
Q 3450 3153 3228 2886 
Q 3006 2619 2597 2516 
z
" transform="scale(0.015625)"/>
       </defs>
       <use xlink:href="#DejaVuSans-33"/>
       <use xlink:href="#DejaVuSans-30" transform="translate(63.623047 0)"/>
      </g>
     </g>
    </g>
    <g id="xtick_5">
     <g id="line2d_6">
      <g>
       <use xlink:href="#mac7554419c" x="215.970075" y="182.68" style="stroke: #000000; stroke-width: 0.8"/>
      </g>
     </g>
     <g id="text_5">
      <!-- 40 -->
      <g transform="translate(211.516325 194.998906) scale(0.07 -0.07)">
       <defs>
        <path id="DejaVuSans-34" d="M 2419 4116 
L 825 1625 
L 2419 1625 
L 2419 4116 
z
M 2253 4666 
L 3047 4666 
L 3047 1625 
L 3713 1625 
L 3713 1100 
L 3047 1100 
L 3047 0 
L 2419 0 
L 2419 1100 
L 313 1100 
L 313 1709 
L 2253 4666 
z
" transform="scale(0.015625)"/>
       </defs>
       <use xlink:href="#DejaVuSans-34"/>
       <use xlink:href="#DejaVuSans-30" transform="translate(63.623047 0)"/>
      </g>
     </g>
    </g>
    <g id="text_6">
     <!-- Frequency (Hz) -->
     <g transform="translate(111.654948 206.533437) scale(0.08 -0.08)">
      <defs>
       <path id="DejaVuSans-46" d="M 628 4666 
L 3309 4666 
L 3309 4134 
L 1259 4134 
L 1259 2759 
L 3109 2759 
L 3109 2228 
L 1259 2228 
L 1259 0 
L 628 0 
L 628 4666 
z
" transform="scale(0.015625)"/>
       <path id="DejaVuSans-72" d="M 2631 2963 
Q 2534 3019 2420 3045 
Q 2306 3072 2169 3072 
Q 1681 3072 1420 2755 
Q 1159 2438 1159 1844 
L 1159 0 
L 581 0 
L 581 3500 
L 1159 3500 
L 1159 2956 
Q 1341 3275 1631 3429 
Q 1922 3584 2338 3584 
Q 2397 3584 2469 3576 
Q 2541 3569 2628 3553 
L 2631 2963 
z
" transform="scale(0.015625)"/>
       <path id="DejaVuSans-65" d="M 3597 1894 
L 3597 1613 
L 953 1613 
Q 991 1019 1311 708 
Q 1631 397 2203 397 
Q 2534 397 2845 478 
Q 3156 559 3463 722 
L 3463 178 
Q 3153 47 2828 -22 
Q 2503 -91 2169 -91 
Q 1331 -91 842 396 
Q 353 884 353 1716 
Q 353 2575 817 3079 
Q 1281 3584 2069 3584 
Q 2775 3584 3186 3129 
Q 3597 2675 3597 1894 
z
M 3022 2063 
Q 3016 2534 2758 2815 
Q 2500 3097 2075 3097 
Q 1594 3097 1305 2825 
Q 1016 2553 972 2059 
L 3022 2063 
z
" transform="scale(0.015625)"/>
       <path id="DejaVuSans-71" d="M 947 1747 
Q 947 1113 1208 752 
Q 1469 391 1925 391 
Q 2381 391 2643 752 
Q 2906 1113 2906 1747 
Q 2906 2381 2643 2742 
Q 2381 3103 1925 3103 
Q 1469 3103 1208 2742 
Q 947 2381 947 1747 
z
M 2906 525 
Q 2725 213 2448 61 
Q 2172 -91 1784 -91 
Q 1150 -91 751 415 
Q 353 922 353 1747 
Q 353 2572 751 3078 
Q 1150 3584 1784 3584 
Q 2172 3584 2448 3432 
Q 2725 3281 2906 2969 
L 2906 3500 
L 3481 3500 
L 3481 -1331 
L 2906 -1331 
L 2906 525 
z
" transform="scale(0.015625)"/>
       <path id="DejaVuSans-75" d="M 544 1381 
L 544 3500 
L 1119 3500 
L 1119 1403 
Q 1119 906 1312 657 
Q 1506 409 1894 409 
Q 2359 409 2629 706 
Q 2900 1003 2900 1516 
L 2900 3500 
L 3475 3500 
L 3475 0 
L 2900 0 
L 2900 538 
Q 2691 219 2414 64 
Q 2138 -91 1772 -91 
Q 1169 -91 856 284 
Q 544 659 544 1381 
z
M 1991 3584 
L 1991 3584 
z
" transform="scale(0.015625)"/>
       <path id="DejaVuSans-6e" d="M 3513 2113 
L 3513 0 
L 2938 0 
L 2938 2094 
Q 2938 2591 2744 2837 
Q 2550 3084 2163 3084 
Q 1697 3084 1428 2787 
Q 1159 2491 1159 1978 
L 1159 0 
L 581 0 
L 581 3500 
L 1159 3500 
L 1159 2956 
Q 1366 3272 1645 3428 
Q 1925 3584 2291 3584 
Q 2894 3584 3203 3211 
Q 3513 2838 3513 2113 
z
" transform="scale(0.015625)"/>
       <path id="DejaVuSans-63" d="M 3122 3366 
L 3122 2828 
Q 2878 2963 2633 3030 
Q 2388 3097 2138 3097 
Q 1578 3097 1268 2742 
Q 959 2388 959 1747 
Q 959 1106 1268 751 
Q 1578 397 2138 397 
Q 2388 397 2633 464 
Q 2878 531 3122 666 
L 3122 134 
Q 2881 22 2623 -34 
Q 2366 -91 2075 -91 
Q 1284 -91 818 406 
Q 353 903 353 1747 
Q 353 2603 823 3093 
Q 1294 3584 2113 3584 
Q 2378 3584 2631 3529 
Q 2884 3475 3122 3366 
z
" transform="scale(0.015625)"/>
       <path id="DejaVuSans-79" d="M 2059 -325 
Q 1816 -950 1584 -1140 
Q 1353 -1331 966 -1331 
L 506 -1331 
L 506 -850 
L 844 -850 
Q 1081 -850 1212 -737 
Q 1344 -625 1503 -206 
L 1606 56 
L 191 3500 
L 800 3500 
L 1894 763 
L 2988 3500 
L 3597 3500 
L 2059 -325 
z
" transform="scale(0.015625)"/>
       <path id="DejaVuSans-20" transform="scale(0.015625)"/>
       <path id="DejaVuSans-28" d="M 1984 4856 
Q 1566 4138 1362 3434 
Q 1159 2731 1159 2009 
Q 1159 1288 1364 580 
Q 1569 -128 1984 -844 
L 1484 -844 
Q 1016 -109 783 600 
Q 550 1309 550 2009 
Q 550 2706 781 3412 
Q 1013 4119 1484 4856 
L 1984 4856 
z
" transform="scale(0.015625)"/>
       <path id="DejaVuSans-48" d="M 628 4666 
L 1259 4666 
L 1259 2753 
L 3553 2753 
L 3553 4666 
L 4184 4666 
L 4184 0 
L 3553 0 
L 3553 2222 
L 1259 2222 
L 1259 0 
L 628 0 
L 628 4666 
z
" transform="scale(0.015625)"/>
       <path id="DejaVuSans-7a" d="M 353 3500 
L 3084 3500 
L 3084 2975 
L 922 459 
L 3084 459 
L 3084 0 
L 275 0 
L 275 525 
L 2438 3041 
L 353 3041 
L 353 3500 
z
" transform="scale(0.015625)"/>
       <path id="DejaVuSans-29" d="M 513 4856 
L 1013 4856 
Q 1481 4119 1714 3412 
Q 1947 2706 1947 2009 
Q 1947 1309 1714 600 
Q 1481 -109 1013 -844 
L 513 -844 
Q 928 -128 1133 580 
Q 1338 1288 1338 2009 
Q 1338 2731 1133 3434 
Q 928 4138 513 4856 
z
" transform="scale(0.015625)"/>
      </defs>
      <use xlink:href="#DejaVuSans-46"/>
      <use xlink:href="#DejaVuSans-72" transform="translate(50.269531 0)"/>
      <use xlink:href="#DejaVuSans-65" transform="translate(89.132812 0)"/>
      <use xlink:href="#DejaVuSans-71" transform="translate(150.65625 0)"/>
      <use xlink:href="#DejaVuSans-75" transform="translate(214.132812 0)"/>
      <use xlink:href="#DejaVuSans-65" transform="translate(277.511719 0)"/>
      <use xlink:href="#DejaVuSans-6e" transform="translate(339.035156 0)"/>
      <use xlink:href="#DejaVuSans-63" transform="translate(402.414062 0)"/>
      <use xlink:href="#DejaVuSans-79" transform="translate(457.394531 0)"/>
      <use xlink:href="#DejaVuSans-20" transform="translate(516.574219 0)"/>
      <use xlink:href="#DejaVuSans-28" transform="translate(548.361328 0)"/>
      <use xlink:href="#DejaVuSans-48" transform="translate(587.375 0)"/>
      <use xlink:href="#DejaVuSans-7a" transform="translate(662.570312 0)"/>
      <use xlink:href="#DejaVuSans-29" transform="translate(715.060547 0)"/>
     </g>
    </g>
   </g>
   <g id="matplotlib.axis_2">
    <g id="ytick_1">
     <g id="line2d_7">
      <defs>
       <path id="m90ac4fb175" d="M 0 0 
L -3.5 0 
" style="stroke: #000000; stroke-width: 0.8"/>
      </defs>
      <g>
       <use xlink:href="#m90ac4fb175" x="36.262031" y="157.083923" style="stroke: #000000; stroke-width: 0.8"/>
      </g>
     </g>
     <g id="text_7">
      <!-- −2 -->
      <g transform="translate(18.9425 159.743377) scale(0.07 -0.07)">
       <defs>
        <path id="DejaVuSans-2212" d="M 678 2272 
L 4684 2272 
L 4684 1741 
L 678 1741 
L 678 2272 
z
" transform="scale(0.015625)"/>
       </defs>
       <use xlink:href="#DejaVuSans-2212"/>
       <use xlink:href="#DejaVuSans-32" transform="translate(83.789062 0)"/>
      </g>
     </g>
    </g>
    <g id="ytick_2">
     <g id="line2d_8">
      <g>
       <use xlink:href="#m90ac4fb175" x="36.262031" y="129.217647" style="stroke: #000000; stroke-width: 0.8"/>
      </g>
     </g>
     <g id="text_8">
      <!-- 0 -->
      <g transform="translate(24.808281 131.8771) scale(0.07 -0.07)">
       <use xlink:href="#DejaVuSans-30"/>
      </g>
     </g>
    </g>
    <g id="ytick_3">
     <g id="line2d_9">
      <g>
       <use xlink:href="#m90ac4fb175" x="36.262031" y="101.35137" style="stroke: #000000; stroke-width: 0.8"/>
      </g>
     </g>
     <g id="text_9">
      <!-- 2 -->
      <g transform="translate(24.808281 104.010823) scale(0.07 -0.07)">
       <use xlink:href="#DejaVuSans-32"/>
      </g>
     </g>
    </g>
    <g id="ytick_4">
     <g id="line2d_10">
      <g>
       <use xlink:href="#m90ac4fb175" x="36.262031" y="73.485093" style="stroke: #000000; stroke-width: 0.8"/>
      </g>
     </g>
     <g id="text_10">
      <!-- 4 -->
      <g transform="translate(24.808281 76.144546) scale(0.07 -0.07)">
       <use xlink:href="#DejaVuSans-34"/>
      </g>
     </g>
    </g>
    <g id="text_11">
     <!-- ERD/ERS (dB) -->
     <g transform="translate(13.27875 148.236875) rotate(-90) scale(0.08 -0.08)">
      <defs>
       <path id="DejaVuSans-45" d="M 628 4666 
L 3578 4666 
L 3578 4134 
L 1259 4134 
L 1259 2753 
L 3481 2753 
L 3481 2222 
L 1259 2222 
L 1259 531 
L 3634 531 
L 3634 0 
L 628 0 
L 628 4666 
z
" transform="scale(0.015625)"/>
       <path id="DejaVuSans-52" d="M 2841 2188 
Q 3044 2119 3236 1894 
Q 3428 1669 3622 1275 
L 4263 0 
L 3584 0 
L 2988 1197 
Q 2756 1666 2539 1819 
Q 2322 1972 1947 1972 
L 1259 1972 
L 1259 0 
L 628 0 
L 628 4666 
L 2053 4666 
Q 2853 4666 3247 4331 
Q 3641 3997 3641 3322 
Q 3641 2881 3436 2590 
Q 3231 2300 2841 2188 
z
M 1259 4147 
L 1259 2491 
L 2053 2491 
Q 2509 2491 2742 2702 
Q 2975 2913 2975 3322 
Q 2975 3731 2742 3939 
Q 2509 4147 2053 4147 
L 1259 4147 
z
" transform="scale(0.015625)"/>
       <path id="DejaVuSans-44" d="M 1259 4147 
L 1259 519 
L 2022 519 
Q 2988 519 3436 956 
Q 3884 1394 3884 2338 
Q 3884 3275 3436 3711 
Q 2988 4147 2022 4147 
L 1259 4147 
z
M 628 4666 
L 1925 4666 
Q 3281 4666 3915 4102 
Q 4550 3538 4550 2338 
Q 4550 1131 3912 565 
Q 3275 0 1925 0 
L 628 0 
L 628 4666 
z
" transform="scale(0.015625)"/>
       <path id="DejaVuSans-2f" d="M 1625 4666 
L 2156 4666 
L 531 -594 
L 0 -594 
L 1625 4666 
z
" transform="scale(0.015625)"/>
       <path id="DejaVuSans-53" d="M 3425 4513 
L 3425 3897 
Q 3066 4069 2747 4153 
Q 2428 4238 2131 4238 
Q 1616 4238 1336 4038 
Q 1056 3838 1056 3469 
Q 1056 3159 1242 3001 
Q 1428 2844 1947 2747 
L 2328 2669 
Q 3034 2534 3370 2195 
Q 3706 1856 3706 1288 
Q 3706 609 3251 259 
Q 2797 -91 1919 -91 
Q 1588 -91 1214 -16 
Q 841 59 441 206 
L 441 856 
Q 825 641 1194 531 
Q 1563 422 1919 422 
Q 2459 422 2753 634 
Q 3047 847 3047 1241 
Q 3047 1584 2836 1778 
Q 2625 1972 2144 2069 
L 1759 2144 
Q 1053 2284 737 2584 
Q 422 2884 422 3419 
Q 422 4038 858 4394 
Q 1294 4750 2059 4750 
Q 2388 4750 2728 4690 
Q 3069 4631 3425 4513 
z
" transform="scale(0.015625)"/>
       <path id="DejaVuSans-64" d="M 2906 2969 
L 2906 4863 
L 3481 4863 
L 3481 0 
L 2906 0 
L 2906 525 
Q 2725 213 2448 61 
Q 2172 -91 1784 -91 
Q 1150 -91 751 415 
Q 353 922 353 1747 
Q 353 2572 751 3078 
Q 1150 3584 1784 3584 
Q 2172 3584 2448 3432 
Q 2725 3281 2906 2969 
z
M 947 1747 
Q 947 1113 1208 752 
Q 1469 391 1925 391 
Q 2381 391 2643 752 
Q 2906 1113 2906 1747 
Q 2906 2381 2643 2742 
Q 2381 3103 1925 3103 
Q 1469 3103 1208 2742 
Q 947 2381 947 1747 
z
" transform="scale(0.015625)"/>
       <path id="DejaVuSans-42" d="M 1259 2228 
L 1259 519 
L 2272 519 
Q 2781 519 3026 730 
Q 3272 941 3272 1375 
Q 3272 1813 3026 2020 
Q 2781 2228 2272 2228 
L 1259 2228 
z
M 1259 4147 
L 1259 2741 
L 2194 2741 
Q 2656 2741 2882 2914 
Q 3109 3088 3109 3444 
Q 3109 3797 2882 3972 
Q 2656 4147 2194 4147 
L 1259 4147 
z
M 628 4666 
L 2241 4666 
Q 2963 4666 3353 4366 
Q 3744 4066 3744 3513 
Q 3744 3084 3544 2831 
Q 3344 2578 2956 2516 
Q 3422 2416 3680 2098 
Q 3938 1781 3938 1306 
Q 3938 681 3513 340 
Q 3088 0 2303 0 
L 628 0 
L 628 4666 
z
" transform="scale(0.015625)"/>
      </defs>
      <use xlink:href="#DejaVuSans-45"/>
      <use xlink:href="#DejaVuSans-52" transform="translate(63.183594 0)"/>
      <use xlink:href="#DejaVuSans-44" transform="translate(132.666016 0)"/>
      <use xlink:href="#DejaVuSans-2f" transform="translate(209.667969 0)"/>
      <use xlink:href="#DejaVuSans-45" transform="translate(243.359375 0)"/>
      <use xlink:href="#DejaVuSans-52" transform="translate(306.542969 0)"/>
      <use xlink:href="#DejaVuSans-53" transform="translate(376.025391 0)"/>
      <use xlink:href="#DejaVuSans-20" transform="translate(439.501953 0)"/>
      <use xlink:href="#DejaVuSans-28" transform="translate(471.289062 0)"/>
      <use xlink:href="#DejaVuSans-64" transform="translate(510.302734 0)"/>
      <use xlink:href="#DejaVuSans-42" transform="translate(573.779297 0)"/>
      <use xlink:href="#DejaVuSans-29" transform="translate(642.382812 0)"/>
     </g>
    </g>
   </g>
   <g id="line2d_11">
    <path d="M 45.858092 135.93645 
L 48.039015 136.849293 
L 50.219938 133.637291 
L 52.40086 126.983422 
L 54.581783 125.230764 
L 56.762706 126.535913 
L 58.943629 128.739399 
L 61.124552 130.301763 
L 63.305475 132.067246 
L 65.486398 133.640411 
L 67.667321 132.986627 
L 69.848243 133.518678 
L 72.029166 133.504966 
L 74.210089 135.546281 
L 76.391012 137.442836 
L 78.571935 137.439774 
L 80.752858 130.921541 
L 82.933781 111.460189 
L 85.114703 89.162982 
L 87.295626 80.100766 
L 89.476549 90.274296 
L 91.657472 116.701699 
L 93.838395 140.034653 
L 96.019318 143.768874 
L 98.200241 141.757183 
L 100.381163 138.582043 
L 102.562086 135.441586 
L 104.743009 135.126917 
L 106.923932 135.195033 
L 109.104855 135.801665 
L 111.285778 134.939288 
L 113.466701 133.582996 
L 115.647624 132.040073 
L 117.828546 132.515267 
L 120.009469 136.872699 
L 122.190392 140.762366 
L 124.371315 141.401753 
L 126.552238 139.012462 
L 128.733161 135.405629 
L 130.914084 134.075485 
L 133.095006 137.538258 
L 135.275929 142.79882 
L 137.456852 147.243551 
L 139.637775 149.266246 
L 141.818698 149.506397 
L 143.999621 149.571376 
L 146.180544 150.150704 
L 148.361467 150.593945 
L 150.542389 152.90444 
L 152.723312 156.042723 
L 154.904235 153.494738 
L 157.085158 148.321109 
L 159.266081 145.745851 
L 161.447004 143.315602 
L 163.627927 141.822424 
L 165.808849 140.546624 
L 167.989772 140.468692 
L 170.170695 140.634342 
L 172.351618 141.970142 
L 174.532541 146.521243 
L 176.713464 150.319231 
L 178.894387 151.066181 
L 181.075309 147.632035 
L 183.256232 144.40543 
L 185.437155 144.925233 
L 187.618078 147.57093 
L 189.799001 150.332488 
L 191.979924 148.151197 
L 194.160847 144.322227 
L 196.34177 144.910874 
L 198.522692 146.165532 
L 200.703615 144.562462 
L 202.884538 144.958353 
L 205.065461 145.080693 
L 207.246384 143.609785 
L 209.427307 144.89076 
L 211.60823 146.311564 
L 213.789152 147.476991 
L 215.970075 149.820143 
L 218.150998 151.20396 
L 220.331921 153.980383 
L 222.512844 156.553551 
L 224.693767 157.132384 
L 226.87469 154.46348 
L 229.055613 150.792668 
L 231.236535 148.908963 
L 233.417458 149.090058 
L 235.598381 150.276032 
L 237.779304 151.062755 
" clip-path="url(#p981b236e4b)" style="fill: none; stroke: #1f77b4; stroke-width: 1.3; stroke-linecap: square"/>
   </g>
   <g id="line2d_12">
    <path d="M 45.858092 139.745702 
L 48.039015 138.86185 
L 50.219938 136.509557 
L 52.40086 134.940207 
L 54.581783 133.660957 
L 56.762706 135.871148 
L 58.943629 140.834257 
L 61.124552 145.919109 
L 63.305475 147.563966 
L 65.486398 139.975211 
L 67.667321 132.383656 
L 69.848243 131.260832 
L 72.029166 132.530633 
L 74.210089 139.524948 
L 76.391012 146.434813 
L 78.571935 150.069559 
L 80.752858 147.968912 
L 82.933781 139.131461 
L 85.114703 123.391676 
L 87.295626 108.647495 
L 89.476549 100.921668 
L 91.657472 111.587199 
L 93.838395 125.643739 
L 96.019318 128.418321 
L 98.200241 130.254052 
L 100.381163 134.093611 
L 102.562086 137.690455 
L 104.743009 137.26847 
L 106.923932 130.10977 
L 109.104855 127.451258 
L 111.285778 129.08573 
L 113.466701 127.496556 
L 115.647624 125.82805 
L 117.828546 129.598071 
L 120.009469 137.461812 
L 122.190392 143.919796 
L 124.371315 147.394468 
L 126.552238 137.275565 
L 128.733161 130.489729 
L 130.914084 137.605989 
L 133.095006 147.272549 
L 135.275929 150.589812 
L 137.456852 148.190023 
L 139.637775 140.911449 
L 141.818698 135.262785 
L 143.999621 138.094702 
L 146.180544 142.960847 
L 148.361467 142.103581 
L 150.542389 139.417183 
L 152.723312 139.108502 
L 154.904235 137.353595 
L 157.085158 132.917548 
L 159.266081 130.527588 
L 161.447004 134.955442 
L 163.627927 139.441904 
L 165.808849 142.12433 
L 167.989772 144.715461 
L 170.170695 144.062134 
L 172.351618 142.539861 
L 174.532541 141.354097 
L 176.713464 142.774421 
L 178.894387 147.3911 
L 181.075309 149.742798 
L 183.256232 143.497521 
L 185.437155 133.940443 
L 187.618078 133.576957 
L 189.799001 140.526734 
L 191.979924 144.079072 
L 194.160847 139.582199 
L 196.34177 133.376805 
L 198.522692 132.334604 
L 200.703615 133.149244 
L 202.884538 137.8689 
L 205.065461 146.612016 
L 207.246384 150.785601 
L 209.427307 148.241313 
L 211.60823 144.75084 
L 213.789152 144.222451 
L 215.970075 147.402856 
L 218.150998 151.598627 
L 220.331921 153.168504 
L 222.512844 154.268522 
L 224.693767 155.420708 
L 226.87469 155.484605 
L 229.055613 157.347563 
L 231.236535 158.682299 
L 233.417458 159.951781 
L 235.598381 160.300655 
L 237.779304 159.937033 
" clip-path="url(#p981b236e4b)" style="fill: none; stroke: #ff7f0e; stroke-width: 1.3; stroke-linecap: square"/>
   </g>
   <g id="patch_5">
    <path d="M 36.262031 182.68 
L 36.262031 59.28 
" style="fill: none; stroke: #000000; stroke-width: 0.8; stroke-linejoin: miter; stroke-linecap: square"/>
   </g>
   <g id="patch_6">
    <path d="M 247.375365 182.68 
L 247.375365 59.28 
" style="fill: none; stroke: #000000; stroke-width: 0.8; stroke-linejoin: miter; stroke-linecap: square"/>
   </g>
   <g id="patch_7">
    <path d="M 36.262031 182.68 
L 247.375365 182.68 
" style="fill: none; stroke: #000000; stroke-width: 0.8; stroke-linejoin: miter; stroke-linecap: square"/>
   </g>
   <g id="patch_8">
    <path d="M 36.262031 59.28 
L 247.375365 59.28 
" style="fill: none; stroke: #000000; stroke-width: 0.8; stroke-linejoin: miter; stroke-linecap: square"/>
   </g>
   <g id="text_12">
    <!-- C3 -->
    <g transform="translate(135.813307 53.28) scale(0.09 -0.09)">
     <defs>
      <path id="DejaVuSans-43" d="M 4122 4306 
L 4122 3641 
Q 3803 3938 3442 4084 
Q 3081 4231 2675 4231 
Q 1875 4231 1450 3742 
Q 1025 3253 1025 2328 
Q 1025 1406 1450 917 
Q 1875 428 2675 428 
Q 3081 428 3442 575 
Q 3803 722 4122 1019 
L 4122 359 
Q 3791 134 3420 21 
Q 3050 -91 2638 -91 
Q 1578 -91 968 557 
Q 359 1206 359 2328 
Q 359 3453 968 4101 
Q 1578 4750 2638 4750 
Q 3056 4750 3426 4639 
Q 3797 4528 4122 4306 
z
" transform="scale(0.015625)"/>
     </defs>
     <use xlink:href="#DejaVuSans-43"/>
     <use xlink:href="#DejaVuSans-33" transform="translate(69.824219 0)"/>
    </g>
   </g>
  </g>
  <g id="axes_2">
   <g id="patch_9">
    <path d="M 272.875365 182.68 
L 483.988698 182.68 
L 483.988698 59.28 
L 272.875365 59.28 
L 272.875365 182.68 
z
" style="fill: none"/>
   </g>
   <g id="patch_10">
    <path d="M 313.004345 182.68 
L 334.813574 182.68 
L 334.813574 59.28 
L 313.004345 59.28 
z
" clip-path="url(#p92dd5f5c94)" style="fill: #d9d9d9; stroke: #d9d9d9; stroke-linejoin: miter"/>
   </g>
   <g id="patch_11">
    <path d="M 334.813574 182.68 
L 408.964951 182.68 
L 408.964951 59.28 
L 334.813574 59.28 
z
" clip-path="url(#p92dd5f5c94)" style="fill: #ebebeb; stroke: #ebebeb; stroke-linejoin: miter"/>
   </g>
   <g id="FillBetweenPolyCollection_3">
    <defs>
     <path id="m8c2d40a6cf" d="M 282.471425 -103.379883 
L 282.471425 -89.654733 
L 284.652348 -85.292031 
L 286.833271 -80.657739 
L 289.014194 -77.870693 
L 291.195117 -77.51802 
L 293.37604 -79.355479 
L 295.556962 -81.562267 
L 297.737885 -86.557799 
L 299.918808 -90.482772 
L 302.099731 -90.474772 
L 304.280654 -87.094437 
L 306.461577 -82.398477 
L 308.6425 -76.114536 
L 310.823422 -66.894123 
L 313.004345 -60.15655 
L 315.185268 -60.689779 
L 317.366191 -64.719193 
L 319.547114 -67.37042 
L 321.728037 -69.335002 
L 323.90896 -69.213255 
L 326.089882 -64.857848 
L 328.270805 -64.797064 
L 330.451728 -71.255042 
L 332.632651 -75.406647 
L 334.813574 -73.947568 
L 336.994497 -71.231865 
L 339.17542 -70.820838 
L 341.356343 -74.414216 
L 343.537265 -78.683136 
L 345.718188 -77.857974 
L 347.899111 -74.342363 
L 350.080034 -71.47702 
L 352.260957 -70.679902 
L 354.44188 -69.900566 
L 356.622803 -67.055614 
L 358.803725 -65.173638 
L 360.984648 -66.553501 
L 363.165571 -68.430884 
L 365.346494 -69.876366 
L 367.527417 -69.441477 
L 369.70834 -66.206981 
L 371.889263 -62.084625 
L 374.070186 -59.500578 
L 376.251108 -61.401589 
L 378.432031 -64.753706 
L 380.612954 -67.751755 
L 382.793877 -69.363853 
L 384.9748 -69.485225 
L 387.155723 -68.07745 
L 389.336646 -66.74449 
L 391.517568 -67.8757 
L 393.698491 -70.714459 
L 395.879414 -72.27994 
L 398.060337 -70.969138 
L 400.24126 -70.117511 
L 402.422183 -71.477288 
L 404.603106 -73.24387 
L 406.784028 -72.351046 
L 408.964951 -69.385412 
L 411.145874 -65.547348 
L 413.326797 -60.571069 
L 415.50772 -58.785678 
L 417.688643 -60.421177 
L 419.869566 -63.238113 
L 422.050489 -66.370526 
L 424.231411 -68.207071 
L 426.412334 -66.333336 
L 428.593257 -65.409787 
L 430.77418 -67.315573 
L 432.955103 -69.781554 
L 435.136026 -69.048062 
L 437.316949 -66.347877 
L 439.497871 -63.306529 
L 441.678794 -63.139855 
L 443.859717 -63.59757 
L 446.04064 -62.633593 
L 448.221563 -60.748106 
L 450.402486 -59.242482 
L 452.583409 -57.971659 
L 454.764332 -55.792509 
L 456.945254 -52.6656 
L 459.126177 -50.248776 
L 461.3071 -51.281731 
L 463.488023 -54.503726 
L 465.668946 -57.669161 
L 467.849869 -59.639083 
L 470.030792 -62.805126 
L 472.211714 -61.476023 
L 474.392637 -58.641988 
L 474.392637 -74.072686 
L 474.392637 -74.072686 
L 472.211714 -77.240353 
L 470.030792 -78.974369 
L 467.849869 -75.437053 
L 465.668946 -73.602844 
L 463.488023 -70.362459 
L 461.3071 -67.416428 
L 459.126177 -66.55628 
L 456.945254 -68.979389 
L 454.764332 -71.126509 
L 452.583409 -72.424182 
L 450.402486 -73.565279 
L 448.221563 -75.333495 
L 446.04064 -77.346014 
L 443.859717 -78.108565 
L 441.678794 -78.075044 
L 439.497871 -78.607999 
L 437.316949 -81.370041 
L 435.136026 -83.052595 
L 432.955103 -83.506243 
L 430.77418 -80.934675 
L 428.593257 -79.620745 
L 426.412334 -80.951437 
L 424.231411 -83.001381 
L 422.050489 -80.705633 
L 419.869566 -77.582898 
L 417.688643 -74.937782 
L 415.50772 -73.067322 
L 413.326797 -73.504614 
L 411.145874 -77.560586 
L 408.964951 -81.579304 
L 406.784028 -85.10746 
L 404.603106 -86.039553 
L 402.422183 -84.534604 
L 400.24126 -83.396931 
L 398.060337 -84.38005 
L 395.879414 -84.903669 
L 393.698491 -83.391927 
L 391.517568 -79.962898 
L 389.336646 -78.871032 
L 387.155723 -80.520283 
L 384.9748 -81.790628 
L 382.793877 -82.387807 
L 380.612954 -80.958194 
L 378.432031 -78.700144 
L 376.251108 -75.402116 
L 374.070186 -72.516407 
L 371.889263 -74.834526 
L 369.70834 -79.051242 
L 367.527417 -82.9249 
L 365.346494 -83.544555 
L 363.165571 -81.549851 
L 360.984648 -78.701096 
L 358.803725 -77.103886 
L 356.622803 -79.695503 
L 354.44188 -82.678239 
L 352.260957 -84.439133 
L 350.080034 -84.946003 
L 347.899111 -87.050986 
L 345.718188 -90.697257 
L 343.537265 -92.486908 
L 341.356343 -87.006706 
L 339.17542 -82.878026 
L 336.994497 -82.960964 
L 334.813574 -86.108064 
L 332.632651 -87.68763 
L 330.451728 -83.493298 
L 328.270805 -78.321949 
L 326.089882 -79.492462 
L 323.90896 -83.315386 
L 321.728037 -82.873158 
L 319.547114 -82.348835 
L 317.366191 -80.911088 
L 315.185268 -76.421232 
L 313.004345 -75.354317 
L 310.823422 -81.368457 
L 308.6425 -90.054427 
L 306.461577 -95.217168 
L 304.280654 -99.1884 
L 302.099731 -102.050988 
L 299.918808 -102.471965 
L 297.737885 -99.51192 
L 295.556962 -94.826528 
L 293.37604 -92.114903 
L 291.195117 -90.056755 
L 289.014194 -90.07034 
L 286.833271 -92.948965 
L 284.652348 -98.366511 
L 282.471425 -103.379883 
z
" style="stroke: #1f77b4; stroke-opacity: 0.15"/>
    </defs>
    <g clip-path="url(#p92dd5f5c94)">
     <use xlink:href="#m8c2d40a6cf" x="0" y="215.397188" style="fill: #1f77b4; fill-opacity: 0.15; stroke: #1f77b4; stroke-opacity: 0.15"/>
    </g>
   </g>
   <g id="FillBetweenPolyCollection_4">
    <defs>
     <path id="mcbe6c61149" d="M 282.471425 -100.337841 
L 282.471425 -71.028177 
L 284.652348 -69.841029 
L 286.833271 -68.876882 
L 289.014194 -70.255219 
L 291.195117 -71.555155 
L 293.37604 -71.846888 
L 295.556962 -64.982935 
L 297.737885 -57.326514 
L 299.918808 -59.177048 
L 302.099731 -65.812313 
L 304.280654 -73.604091 
L 306.461577 -82.085131 
L 308.6425 -86.884317 
L 310.823422 -84.880065 
L 313.004345 -72.657799 
L 315.185268 -63.281344 
L 317.366191 -61.155142 
L 319.547114 -63.986635 
L 321.728037 -67.714444 
L 323.90896 -67.739153 
L 326.089882 -66.300253 
L 328.270805 -68.592643 
L 330.451728 -69.218809 
L 332.632651 -64.682918 
L 334.813574 -65.540911 
L 336.994497 -69.050211 
L 339.17542 -74.383055 
L 341.356343 -74.464016 
L 343.537265 -66.743309 
L 345.718188 -63.517863 
L 347.899111 -64.059017 
L 350.080034 -66.011002 
L 352.260957 -67.201522 
L 354.44188 -66.149044 
L 356.622803 -63.233999 
L 358.803725 -62.164242 
L 360.984648 -62.272624 
L 363.165571 -62.999014 
L 365.346494 -64.435869 
L 367.527417 -60.032355 
L 369.70834 -58.498086 
L 371.889263 -58.261126 
L 374.070186 -58.884832 
L 376.251108 -55.743986 
L 378.432031 -59.47201 
L 380.612954 -66.307401 
L 382.793877 -70.455918 
L 384.9748 -72.63488 
L 387.155723 -72.273626 
L 389.336646 -70.417725 
L 391.517568 -65.9822 
L 393.698491 -62.132878 
L 395.879414 -63.123962 
L 398.060337 -66.428817 
L 400.24126 -66.356909 
L 402.422183 -64.217354 
L 404.603106 -67.995897 
L 406.784028 -73.334673 
L 408.964951 -73.411716 
L 411.145874 -70.479086 
L 413.326797 -72.459077 
L 415.50772 -74.01692 
L 417.688643 -73.550538 
L 419.869566 -68.970679 
L 422.050489 -64.629049 
L 424.231411 -61.422963 
L 426.412334 -60.238635 
L 428.593257 -59.442901 
L 430.77418 -55.736268 
L 432.955103 -54.900416 
L 435.136026 -56.382423 
L 437.316949 -60.160351 
L 439.497871 -62.706301 
L 441.678794 -61.25552 
L 443.859717 -52.676031 
L 446.04064 -53.833107 
L 448.221563 -57.564628 
L 450.402486 -59.173396 
L 452.583409 -58.498976 
L 454.764332 -53.504011 
L 456.945254 -45.877785 
L 459.126177 -40.404898 
L 461.3071 -38.902202 
L 463.488023 -39.227369 
L 465.668946 -41.331023 
L 467.849869 -46.058059 
L 470.030792 -51.163975 
L 472.211714 -54.466918 
L 474.392637 -58.72756 
L 474.392637 -84.97445 
L 474.392637 -84.97445 
L 472.211714 -80.682602 
L 470.030792 -80.949205 
L 467.849869 -75.492058 
L 465.668946 -73.981868 
L 463.488023 -74.862383 
L 461.3071 -73.394257 
L 459.126177 -74.177701 
L 456.945254 -76.895668 
L 454.764332 -81.677167 
L 452.583409 -84.990587 
L 450.402486 -82.441302 
L 448.221563 -85.552894 
L 446.04064 -80.071007 
L 443.859717 -79.034528 
L 441.678794 -87.171581 
L 439.497871 -91.170827 
L 437.316949 -89.79901 
L 435.136026 -82.82085 
L 432.955103 -79.796147 
L 430.77418 -82.579607 
L 428.593257 -86.381866 
L 426.412334 -87.328725 
L 424.231411 -88.115707 
L 422.050489 -92.581802 
L 419.869566 -96.314934 
L 417.688643 -100.186307 
L 415.50772 -101.558503 
L 413.326797 -99.435668 
L 411.145874 -92.760868 
L 408.964951 -97.926283 
L 406.784028 -97.214432 
L 404.603106 -90.279044 
L 402.422183 -87.839162 
L 400.24126 -92.608966 
L 398.060337 -91.386442 
L 395.879414 -86.040135 
L 393.698491 -86.186831 
L 391.517568 -89.962281 
L 389.336646 -94.612136 
L 387.155723 -95.246343 
L 384.9748 -94.732104 
L 382.793877 -93.804078 
L 380.612954 -88.635826 
L 378.432031 -81.823214 
L 376.251108 -81.214079 
L 374.070186 -86.857713 
L 371.889263 -81.297277 
L 369.70834 -84.734502 
L 367.527417 -89.129303 
L 365.346494 -88.500581 
L 363.165571 -86.079315 
L 360.984648 -88.536586 
L 358.803725 -85.606881 
L 356.622803 -84.721142 
L 354.44188 -88.762228 
L 352.260957 -90.184281 
L 350.080034 -90.764814 
L 347.899111 -90.900909 
L 345.718188 -89.870522 
L 343.537265 -91.552596 
L 341.356343 -96.913447 
L 339.17542 -98.949957 
L 336.994497 -93.22627 
L 334.813574 -91.05127 
L 332.632651 -91.075226 
L 330.451728 -97.498504 
L 328.270805 -96.262957 
L 326.089882 -93.685525 
L 323.90896 -94.731149 
L 321.728037 -95.614087 
L 319.547114 -94.471715 
L 317.366191 -91.501287 
L 315.185268 -93.997321 
L 313.004345 -104.055724 
L 310.823422 -116.943807 
L 308.6425 -118.246609 
L 306.461577 -112.042296 
L 304.280654 -102.004619 
L 302.099731 -93.771959 
L 299.918808 -87.873913 
L 297.737885 -87.682248 
L 295.556962 -96.638701 
L 293.37604 -101.598756 
L 291.195117 -103.679237 
L 289.014194 -100.625923 
L 286.833271 -93.576527 
L 284.652348 -95.767564 
L 282.471425 -100.337841 
z
" style="stroke: #ff7f0e; stroke-opacity: 0.15"/>
    </defs>
    <g clip-path="url(#p92dd5f5c94)">
     <use xlink:href="#mcbe6c61149" x="0" y="215.397188" style="fill: #ff7f0e; fill-opacity: 0.15; stroke: #ff7f0e; stroke-opacity: 0.15"/>
    </g>
   </g>
   <g id="line2d_13">
    <path d="M 272.875365 129.217647 
L 483.988698 129.217647 
" clip-path="url(#p92dd5f5c94)" style="fill: none; stroke-dasharray: 2.96,1.28; stroke-dashoffset: 0; stroke: #000000; stroke-width: 0.8"/>
   </g>
   <g id="matplotlib.axis_3">
    <g id="xtick_6">
     <g id="line2d_14">
      <g>
       <use xlink:href="#mac7554419c" x="278.109579" y="182.68" style="stroke: #000000; stroke-width: 0.8"/>
      </g>
     </g>
     <g id="text_13">
      <!-- 0 -->
      <g transform="translate(275.882704 194.998906) scale(0.07 -0.07)">
       <use xlink:href="#DejaVuSans-30"/>
      </g>
     </g>
    </g>
    <g id="xtick_7">
     <g id="line2d_15">
      <g>
       <use xlink:href="#mac7554419c" x="321.728037" y="182.68" style="stroke: #000000; stroke-width: 0.8"/>
      </g>
     </g>
     <g id="text_14">
      <!-- 10 -->
      <g transform="translate(317.274287 194.998906) scale(0.07 -0.07)">
       <use xlink:href="#DejaVuSans-31"/>
       <use xlink:href="#DejaVuSans-30" transform="translate(63.623047 0)"/>
      </g>
     </g>
    </g>
    <g id="xtick_8">
     <g id="line2d_16">
      <g>
       <use xlink:href="#mac7554419c" x="365.346494" y="182.68" style="stroke: #000000; stroke-width: 0.8"/>
      </g>
     </g>
     <g id="text_15">
      <!-- 20 -->
      <g transform="translate(360.892744 194.998906) scale(0.07 -0.07)">
       <use xlink:href="#DejaVuSans-32"/>
       <use xlink:href="#DejaVuSans-30" transform="translate(63.623047 0)"/>
      </g>
     </g>
    </g>
    <g id="xtick_9">
     <g id="line2d_17">
      <g>
       <use xlink:href="#mac7554419c" x="408.964951" y="182.68" style="stroke: #000000; stroke-width: 0.8"/>
      </g>
     </g>
     <g id="text_16">
      <!-- 30 -->
      <g transform="translate(404.511201 194.998906) scale(0.07 -0.07)">
       <use xlink:href="#DejaVuSans-33"/>
       <use xlink:href="#DejaVuSans-30" transform="translate(63.623047 0)"/>
      </g>
     </g>
    </g>
    <g id="xtick_10">
     <g id="line2d_18">
      <g>
       <use xlink:href="#mac7554419c" x="452.583409" y="182.68" style="stroke: #000000; stroke-width: 0.8"/>
      </g>
     </g>
     <g id="text_17">
      <!-- 40 -->
      <g transform="translate(448.129659 194.998906) scale(0.07 -0.07)">
       <use xlink:href="#DejaVuSans-34"/>
       <use xlink:href="#DejaVuSans-30" transform="translate(63.623047 0)"/>
      </g>
     </g>
    </g>
    <g id="text_18">
     <!-- Frequency (Hz) -->
     <g transform="translate(348.268281 206.533437) scale(0.08 -0.08)">
      <use xlink:href="#DejaVuSans-46"/>
      <use xlink:href="#DejaVuSans-72" transform="translate(50.269531 0)"/>
      <use xlink:href="#DejaVuSans-65" transform="translate(89.132812 0)"/>
      <use xlink:href="#DejaVuSans-71" transform="translate(150.65625 0)"/>
      <use xlink:href="#DejaVuSans-75" transform="translate(214.132812 0)"/>
      <use xlink:href="#DejaVuSans-65" transform="translate(277.511719 0)"/>
      <use xlink:href="#DejaVuSans-6e" transform="translate(339.035156 0)"/>
      <use xlink:href="#DejaVuSans-63" transform="translate(402.414062 0)"/>
      <use xlink:href="#DejaVuSans-79" transform="translate(457.394531 0)"/>
      <use xlink:href="#DejaVuSans-20" transform="translate(516.574219 0)"/>
      <use xlink:href="#DejaVuSans-28" transform="translate(548.361328 0)"/>
      <use xlink:href="#DejaVuSans-48" transform="translate(587.375 0)"/>
      <use xlink:href="#DejaVuSans-7a" transform="translate(662.570312 0)"/>
      <use xlink:href="#DejaVuSans-29" transform="translate(715.060547 0)"/>
     </g>
    </g>
   </g>
   <g id="matplotlib.axis_4">
    <g id="ytick_5">
     <g id="line2d_19">
      <g>
       <use xlink:href="#m90ac4fb175" x="272.875365" y="157.083923" style="stroke: #000000; stroke-width: 0.8"/>
      </g>
     </g>
    </g>
    <g id="ytick_6">
     <g id="line2d_20">
      <g>
       <use xlink:href="#m90ac4fb175" x="272.875365" y="129.217647" style="stroke: #000000; stroke-width: 0.8"/>
      </g>
     </g>
    </g>
    <g id="ytick_7">
     <g id="line2d_21">
      <g>
       <use xlink:href="#m90ac4fb175" x="272.875365" y="101.35137" style="stroke: #000000; stroke-width: 0.8"/>
      </g>
     </g>
    </g>
    <g id="ytick_8">
     <g id="line2d_22">
      <g>
       <use xlink:href="#m90ac4fb175" x="272.875365" y="73.485093" style="stroke: #000000; stroke-width: 0.8"/>
      </g>
     </g>
    </g>
    <g id="text_19">
     <!-- ERD/ERS (dB) -->
     <g transform="translate(263.711615 148.236875) rotate(-90) scale(0.08 -0.08)">
      <use xlink:href="#DejaVuSans-45"/>
      <use xlink:href="#DejaVuSans-52" transform="translate(63.183594 0)"/>
      <use xlink:href="#DejaVuSans-44" transform="translate(132.666016 0)"/>
      <use xlink:href="#DejaVuSans-2f" transform="translate(209.667969 0)"/>
      <use xlink:href="#DejaVuSans-45" transform="translate(243.359375 0)"/>
      <use xlink:href="#DejaVuSans-52" transform="translate(306.542969 0)"/>
      <use xlink:href="#DejaVuSans-53" transform="translate(376.025391 0)"/>
      <use xlink:href="#DejaVuSans-20" transform="translate(439.501953 0)"/>
      <use xlink:href="#DejaVuSans-28" transform="translate(471.289062 0)"/>
      <use xlink:href="#DejaVuSans-64" transform="translate(510.302734 0)"/>
      <use xlink:href="#DejaVuSans-42" transform="translate(573.779297 0)"/>
      <use xlink:href="#DejaVuSans-29" transform="translate(642.382812 0)"/>
     </g>
    </g>
   </g>
   <g id="line2d_23">
    <path d="M 282.471425 118.87988 
L 284.652348 123.567916 
L 286.833271 128.593836 
L 289.014194 131.426671 
L 291.195117 131.6098 
L 293.37604 129.661997 
L 295.556962 127.20279 
L 297.737885 122.362328 
L 299.918808 118.919819 
L 302.099731 119.134308 
L 304.280654 122.255769 
L 306.461577 126.589365 
L 308.6425 132.312706 
L 310.823422 141.265898 
L 313.004345 147.641754 
L 315.185268 146.841682 
L 317.366191 142.582047 
L 319.547114 140.53756 
L 321.728037 139.293108 
L 323.90896 139.132867 
L 326.089882 143.222032 
L 328.270805 143.837681 
L 330.451728 138.023018 
L 332.632651 133.850049 
L 334.813574 135.369371 
L 336.994497 138.300773 
L 339.17542 138.547755 
L 341.356343 134.686726 
L 343.537265 129.812166 
L 345.718188 131.119572 
L 347.899111 134.700513 
L 350.080034 137.185676 
L 352.260957 137.83767 
L 354.44188 139.107785 
L 356.622803 142.021629 
L 358.803725 144.258426 
L 360.984648 142.769889 
L 363.165571 140.40682 
L 365.346494 138.686727 
L 367.527417 139.213999 
L 369.70834 142.768076 
L 371.889263 146.937612 
L 374.070186 149.388695 
L 376.251108 146.995335 
L 378.432031 143.670262 
L 380.612954 141.042213 
L 382.793877 139.521357 
L 384.9748 139.759261 
L 387.155723 141.098321 
L 389.336646 142.589427 
L 391.517568 141.477889 
L 393.698491 138.343994 
L 395.879414 136.805383 
L 398.060337 137.722593 
L 400.24126 138.639967 
L 402.422183 137.391241 
L 404.603106 135.755476 
L 406.784028 136.667935 
L 408.964951 139.91483 
L 411.145874 143.843221 
L 413.326797 148.359346 
L 415.50772 149.470688 
L 417.688643 147.717708 
L 419.869566 144.986682 
L 422.050489 141.859108 
L 424.231411 139.792962 
L 426.412334 141.754801 
L 428.593257 142.881921 
L 430.77418 141.272064 
L 432.955103 138.753289 
L 435.136026 139.346859 
L 437.316949 141.538229 
L 439.497871 144.439924 
L 441.678794 144.789738 
L 443.859717 144.54412 
L 446.04064 145.407384 
L 448.221563 147.356387 
L 450.402486 148.993307 
L 452.583409 150.199267 
L 454.764332 151.937678 
L 456.945254 154.574693 
L 459.126177 156.99466 
L 461.3071 156.048108 
L 463.488023 152.964095 
L 465.668946 149.761185 
L 467.849869 147.85912 
L 470.030792 144.50744 
L 472.211714 146.039 
L 474.392637 149.03985 
" clip-path="url(#p92dd5f5c94)" style="fill: none; stroke: #1f77b4; stroke-width: 1.3; stroke-linecap: square"/>
   </g>
   <g id="line2d_24">
    <path d="M 282.471425 129.714179 
L 284.652348 132.592891 
L 286.833271 134.170483 
L 289.014194 129.956616 
L 291.195117 127.779992 
L 293.37604 128.674365 
L 295.556962 134.58637 
L 297.737885 142.892806 
L 299.918808 141.871707 
L 302.099731 135.605051 
L 304.280654 127.592832 
L 306.461577 118.333474 
L 308.6425 112.831724 
L 310.823422 114.485251 
L 313.004345 127.040426 
L 315.185268 136.757855 
L 317.366191 139.068973 
L 319.547114 136.168013 
L 321.728037 133.732922 
L 323.90896 134.162036 
L 326.089882 135.404298 
L 328.270805 132.969388 
L 330.451728 132.038531 
L 332.632651 137.518116 
L 334.813574 137.101097 
L 336.994497 134.258947 
L 339.17542 128.730682 
L 341.356343 129.708456 
L 343.537265 136.249235 
L 345.718188 138.702995 
L 347.899111 137.917224 
L 350.080034 137.00928 
L 352.260957 136.704286 
L 354.44188 137.941552 
L 356.622803 141.419617 
L 358.803725 141.511626 
L 360.984648 139.992582 
L 363.165571 140.858023 
L 365.346494 138.928963 
L 367.527417 140.816359 
L 369.70834 143.780894 
L 371.889263 145.617986 
L 374.070186 142.525915 
L 376.251108 146.918155 
L 378.432031 144.749575 
L 380.612954 137.925574 
L 382.793877 133.267189 
L 384.9748 131.713696 
L 387.155723 131.637203 
L 389.336646 132.882257 
L 391.517568 137.424947 
L 393.698491 141.237333 
L 395.879414 140.815139 
L 398.060337 136.489558 
L 400.24126 135.91425 
L 402.422183 139.368929 
L 404.603106 136.259717 
L 406.784028 130.122635 
L 408.964951 129.728188 
L 411.145874 133.77721 
L 413.326797 129.449815 
L 415.50772 127.609476 
L 417.688643 128.528765 
L 419.869566 132.754381 
L 422.050489 136.791762 
L 424.231411 140.627853 
L 426.412334 141.613507 
L 428.593257 142.484804 
L 430.77418 146.23925 
L 432.955103 148.048906 
L 435.136026 145.795551 
L 437.316949 140.417507 
L 439.497871 138.458624 
L 441.678794 141.183637 
L 443.859717 149.541908 
L 446.04064 148.44513 
L 448.221563 143.838427 
L 450.402486 144.589838 
L 452.583409 143.652406 
L 454.764332 147.806598 
L 456.945254 154.010461 
L 459.126177 158.105888 
L 461.3071 159.248958 
L 463.488023 158.352311 
L 465.668946 157.740742 
L 467.849869 154.622129 
L 470.030792 149.340598 
L 472.211714 147.822427 
L 474.392637 143.546183 
" clip-path="url(#p92dd5f5c94)" style="fill: none; stroke: #ff7f0e; stroke-width: 1.3; stroke-linecap: square"/>
   </g>
   <g id="patch_12">
    <path d="M 272.875365 182.68 
L 272.875365 59.28 
" style="fill: none; stroke: #000000; stroke-width: 0.8; stroke-linejoin: miter; stroke-linecap: square"/>
   </g>
   <g id="patch_13">
    <path d="M 483.988698 182.68 
L 483.988698 59.28 
" style="fill: none; stroke: #000000; stroke-width: 0.8; stroke-linejoin: miter; stroke-linecap: square"/>
   </g>
   <g id="patch_14">
    <path d="M 272.875365 182.68 
L 483.988698 182.68 
" style="fill: none; stroke: #000000; stroke-width: 0.8; stroke-linejoin: miter; stroke-linecap: square"/>
   </g>
   <g id="patch_15">
    <path d="M 272.875365 59.28 
L 483.988698 59.28 
" style="fill: none; stroke: #000000; stroke-width: 0.8; stroke-linejoin: miter; stroke-linecap: square"/>
   </g>
   <g id="text_20">
    <!-- Cz -->
    <g transform="translate(372.927969 53.28) scale(0.09 -0.09)">
     <use xlink:href="#DejaVuSans-43"/>
     <use xlink:href="#DejaVuSans-7a" transform="translate(69.824219 0)"/>
    </g>
   </g>
  </g>
  <g id="axes_3">
   <g id="patch_16">
    <path d="M 509.488698 182.68 
L 720.602031 182.68 
L 720.602031 59.28 
L 509.488698 59.28 
L 509.488698 182.68 
z
" style="fill: none"/>
   </g>
   <g id="patch_17">
    <path d="M 549.617679 182.68 
L 571.426907 182.68 
L 571.426907 59.28 
L 549.617679 59.28 
z
" clip-path="url(#peeba166c20)" style="fill: #d9d9d9; stroke: #d9d9d9; stroke-linejoin: miter"/>
   </g>
   <g id="patch_18">
    <path d="M 571.426907 182.68 
L 645.578285 182.68 
L 645.578285 59.28 
L 571.426907 59.28 
z
" clip-path="url(#peeba166c20)" style="fill: #ebebeb; stroke: #ebebeb; stroke-linejoin: miter"/>
   </g>
   <g id="FillBetweenPolyCollection_5">
    <defs>
     <path id="m99d25b5e44" d="M 519.084759 -98.847559 
L 519.084759 -84.413779 
L 521.265681 -82.087462 
L 523.446604 -79.928001 
L 525.627527 -78.769126 
L 527.80845 -77.220955 
L 529.989373 -76.221137 
L 532.170296 -75.692461 
L 534.351219 -77.361996 
L 536.532141 -78.593501 
L 538.713064 -77.67672 
L 540.893987 -74.199291 
L 543.07491 -72.309273 
L 545.255833 -70.654882 
L 547.436756 -67.455953 
L 549.617679 -62.207017 
L 551.798601 -61.705142 
L 553.979524 -70.315314 
L 556.160447 -95.286177 
L 558.34137 -120.844387 
L 560.522293 -133.348859 
L 562.703216 -127.100421 
L 564.884139 -106.203935 
L 567.065062 -83.702106 
L 569.245984 -76.379038 
L 571.426907 -76.323265 
L 573.60783 -76.397582 
L 575.788753 -79.475908 
L 577.969676 -80.920499 
L 580.150599 -79.274332 
L 582.331522 -77.054735 
L 584.512444 -75.542456 
L 586.693367 -73.528959 
L 588.87429 -69.773151 
L 591.055213 -68.693279 
L 593.236136 -68.057543 
L 595.417059 -66.05812 
L 597.597982 -66.274665 
L 599.778905 -71.187961 
L 601.959827 -78.877693 
L 604.14075 -85.955195 
L 606.321673 -88.454977 
L 608.502596 -83.685546 
L 610.683519 -76.473475 
L 612.864442 -72.310674 
L 615.045365 -72.501429 
L 617.226287 -76.155989 
L 619.40721 -79.578839 
L 621.588133 -77.394276 
L 623.769056 -73.711211 
L 625.949979 -69.532393 
L 628.130902 -70.611239 
L 630.311825 -71.537427 
L 632.492748 -69.301448 
L 634.67367 -70.140719 
L 636.854593 -73.707675 
L 639.035516 -74.966345 
L 641.216439 -72.505922 
L 643.397362 -69.133656 
L 645.578285 -66.79376 
L 647.759208 -62.744687 
L 649.94013 -60.355895 
L 652.121053 -62.377745 
L 654.301976 -69.232693 
L 656.482899 -75.773912 
L 658.663822 -77.761073 
L 660.844745 -77.217867 
L 663.025668 -75.110839 
L 665.20659 -69.355141 
L 667.387513 -67.027371 
L 669.568436 -67.793764 
L 671.749359 -65.483865 
L 673.930282 -62.616263 
L 676.111205 -62.821522 
L 678.292128 -66.566094 
L 680.473051 -70.309792 
L 682.653973 -69.267303 
L 684.834896 -66.708754 
L 687.015819 -65.486532 
L 689.196742 -65.560225 
L 691.377665 -66.741631 
L 693.558588 -63.690113 
L 695.739511 -58.457721 
L 697.920433 -56.390442 
L 700.101356 -59.132547 
L 702.282279 -62.657965 
L 704.463202 -65.525353 
L 706.644125 -64.15398 
L 708.825048 -62.798697 
L 711.005971 -59.861396 
L 711.005971 -74.899115 
L 711.005971 -74.899115 
L 708.825048 -78.021161 
L 706.644125 -79.488084 
L 704.463202 -80.585621 
L 702.282279 -77.350557 
L 700.101356 -74.275601 
L 697.920433 -72.050711 
L 695.739511 -74.508372 
L 693.558588 -80.123806 
L 691.377665 -82.762764 
L 689.196742 -80.430311 
L 687.015819 -79.796749 
L 684.834896 -80.379008 
L 682.653973 -82.434425 
L 680.473051 -83.559888 
L 678.292128 -80.097101 
L 676.111205 -76.411193 
L 673.930282 -76.061815 
L 671.749359 -79.265148 
L 669.568436 -82.734828 
L 667.387513 -82.154823 
L 665.20659 -84.229153 
L 663.025668 -89.15061 
L 660.844745 -90.304631 
L 658.663822 -90.957979 
L 656.482899 -89.314498 
L 654.301976 -82.70819 
L 652.121053 -75.508293 
L 649.94013 -72.470622 
L 647.759208 -74.879217 
L 645.578285 -79.983395 
L 643.397362 -82.08924 
L 641.216439 -85.214874 
L 639.035516 -88.259517 
L 636.854593 -87.065724 
L 634.67367 -82.628951 
L 632.492748 -81.585246 
L 630.311825 -84.767397 
L 628.130902 -84.381695 
L 625.949979 -83.199304 
L 623.769056 -87.33327 
L 621.588133 -90.75126 
L 619.40721 -93.411593 
L 617.226287 -89.198118 
L 615.045365 -85.503814 
L 612.864442 -85.948759 
L 610.683519 -89.418013 
L 608.502596 -96.397429 
L 606.321673 -101.049918 
L 604.14075 -99.506632 
L 601.959827 -92.83542 
L 599.778905 -84.970902 
L 597.597982 -79.971327 
L 595.417059 -79.731915 
L 593.236136 -81.038447 
L 591.055213 -81.44883 
L 588.87429 -82.542966 
L 586.693367 -86.661726 
L 584.512444 -89.109752 
L 582.331522 -90.491815 
L 580.150599 -92.018259 
L 577.969676 -93.455526 
L 575.788753 -91.728882 
L 573.60783 -88.90596 
L 571.426907 -88.637024 
L 569.245984 -88.516979 
L 567.065062 -96.447175 
L 564.884139 -120.581598 
L 562.703216 -143.158392 
L 560.522293 -150.508097 
L 558.34137 -137.205498 
L 556.160447 -110.340755 
L 553.979524 -84.481213 
L 551.798601 -76.257992 
L 549.617679 -76.74303 
L 547.436756 -81.494399 
L 545.255833 -84.222951 
L 543.07491 -85.677782 
L 540.893987 -87.795171 
L 538.713064 -91.421019 
L 536.532141 -91.333259 
L 534.351219 -89.777462 
L 532.170296 -88.784116 
L 529.989373 -90.663635 
L 527.80845 -90.829213 
L 525.627527 -91.872472 
L 523.446604 -93.483087 
L 521.265681 -95.868929 
L 519.084759 -98.847559 
z
" style="stroke: #1f77b4; stroke-opacity: 0.15"/>
    </defs>
    <g clip-path="url(#peeba166c20)">
     <use xlink:href="#m99d25b5e44" x="0" y="215.397188" style="fill: #1f77b4; fill-opacity: 0.15; stroke: #1f77b4; stroke-opacity: 0.15"/>
    </g>
   </g>
   <g id="FillBetweenPolyCollection_6">
    <defs>
     <path id="m17a93b888b" d="M 519.084759 -108.041827 
L 519.084759 -76.108746 
L 521.265681 -74.666505 
L 523.446604 -74.709785 
L 525.627527 -77.714589 
L 527.80845 -78.686435 
L 529.989373 -72.531449 
L 532.170296 -65.694273 
L 534.351219 -63.024003 
L 536.532141 -63.587876 
L 538.713064 -62.695342 
L 540.893987 -65.046889 
L 543.07491 -72.507009 
L 545.255833 -74.276054 
L 547.436756 -66.897588 
L 549.617679 -59.921937 
L 551.798601 -54.301576 
L 553.979524 -49.281448 
L 556.160447 -56.764525 
L 558.34137 -70.599266 
L 560.522293 -77.92285 
L 562.703216 -75.574827 
L 564.884139 -72.274052 
L 567.065062 -73.994247 
L 569.245984 -78.481432 
L 571.426907 -72.519447 
L 573.60783 -68.625414 
L 575.788753 -72.60605 
L 577.969676 -79.290802 
L 580.150599 -76.78377 
L 582.331522 -72.810415 
L 584.512444 -71.769396 
L 586.693367 -72.64224 
L 588.87429 -73.964129 
L 591.055213 -75.424579 
L 593.236136 -72.698891 
L 595.417059 -69.265433 
L 597.597982 -72.09451 
L 599.778905 -77.505284 
L 601.959827 -79.906021 
L 604.14075 -76.419582 
L 606.321673 -74.668866 
L 608.502596 -69.307446 
L 610.683519 -62.000208 
L 612.864442 -60.380747 
L 615.045365 -67.868613 
L 617.226287 -72.33129 
L 619.40721 -67.945774 
L 621.588133 -65.746095 
L 623.769056 -67.555452 
L 625.949979 -72.80473 
L 628.130902 -73.363403 
L 630.311825 -71.475117 
L 632.492748 -66.676492 
L 634.67367 -64.515592 
L 636.854593 -64.731567 
L 639.035516 -63.023206 
L 641.216439 -58.502464 
L 643.397362 -55.793881 
L 645.578285 -59.442171 
L 647.759208 -66.640045 
L 649.94013 -71.822473 
L 652.121053 -72.09014 
L 654.301976 -71.279668 
L 656.482899 -75.795525 
L 658.663822 -78.893439 
L 660.844745 -80.363536 
L 663.025668 -77.029412 
L 665.20659 -70.215682 
L 667.387513 -64.145323 
L 669.568436 -60.615336 
L 671.749359 -57.773127 
L 673.930282 -58.55949 
L 676.111205 -57.07742 
L 678.292128 -58.24397 
L 680.473051 -58.395294 
L 682.653973 -56.168029 
L 684.834896 -56.261372 
L 687.015819 -57.222944 
L 689.196742 -58.721202 
L 691.377665 -60.297123 
L 693.558588 -60.350924 
L 695.739511 -61.535517 
L 697.920433 -58.359334 
L 700.101356 -51.846926 
L 702.282279 -50.143542 
L 704.463202 -54.004661 
L 706.644125 -57.919444 
L 708.825048 -58.30191 
L 711.005971 -58.571725 
L 711.005971 -85.449399 
L 711.005971 -85.449399 
L 708.825048 -86.537895 
L 706.644125 -87.273174 
L 704.463202 -82.354194 
L 702.282279 -81.24416 
L 700.101356 -81.126987 
L 697.920433 -87.539312 
L 695.739511 -89.708261 
L 693.558588 -88.549771 
L 691.377665 -88.779276 
L 689.196742 -86.825994 
L 687.015819 -87.356034 
L 684.834896 -84.835664 
L 682.653973 -86.165745 
L 680.473051 -85.647931 
L 678.292128 -82.657628 
L 676.111205 -78.503638 
L 673.930282 -82.55187 
L 671.749359 -83.048951 
L 669.568436 -83.208198 
L 667.387513 -89.525977 
L 665.20659 -97.60181 
L 663.025668 -106.652072 
L 660.844745 -107.36992 
L 658.663822 -103.982229 
L 656.482899 -100.272646 
L 654.301976 -95.49905 
L 652.121053 -96.969679 
L 649.94013 -96.895822 
L 647.759208 -91.714862 
L 645.578285 -84.907245 
L 643.397362 -85.472626 
L 641.216439 -87.333518 
L 639.035516 -92.250159 
L 636.854593 -94.240521 
L 634.67367 -89.150214 
L 632.492748 -93.538138 
L 630.311825 -98.777495 
L 628.130902 -104.081778 
L 625.949979 -103.995175 
L 623.769056 -99.128614 
L 621.588133 -94.512287 
L 619.40721 -94.846745 
L 617.226287 -98.0516 
L 615.045365 -94.299611 
L 612.864442 -87.579313 
L 610.683519 -89.612507 
L 608.502596 -96.254916 
L 606.321673 -102.61305 
L 604.14075 -102.892467 
L 601.959827 -104.470746 
L 599.778905 -103.915447 
L 597.597982 -99.762812 
L 595.417059 -99.936224 
L 593.236136 -102.141368 
L 591.055213 -104.684617 
L 588.87429 -98.854514 
L 586.693367 -94.091485 
L 584.512444 -93.823506 
L 582.331522 -94.452892 
L 580.150599 -100.203147 
L 577.969676 -105.069859 
L 575.788753 -99.921403 
L 573.60783 -95.409508 
L 571.426907 -100.283346 
L 569.245984 -104.760704 
L 567.065062 -98.335806 
L 564.884139 -98.854967 
L 562.703216 -106.429597 
L 560.522293 -108.54489 
L 558.34137 -99.870037 
L 556.160447 -87.722814 
L 553.979524 -78.306866 
L 551.798601 -81.121951 
L 549.617679 -87.573485 
L 547.436756 -94.287049 
L 545.255833 -100.727358 
L 543.07491 -100.494567 
L 540.893987 -93.606122 
L 538.713064 -92.246716 
L 536.532141 -94.504849 
L 534.351219 -92.833097 
L 532.170296 -91.780273 
L 529.989373 -98.101436 
L 527.80845 -104.503355 
L 525.627527 -101.128617 
L 523.446604 -97.43156 
L 521.265681 -102.273724 
L 519.084759 -108.041827 
z
" style="stroke: #ff7f0e; stroke-opacity: 0.15"/>
    </defs>
    <g clip-path="url(#peeba166c20)">
     <use xlink:href="#m17a93b888b" x="0" y="215.397188" style="fill: #ff7f0e; fill-opacity: 0.15; stroke: #ff7f0e; stroke-opacity: 0.15"/>
    </g>
   </g>
   <g id="line2d_25">
    <path d="M 509.488698 129.217647 
L 720.602031 129.217647 
" clip-path="url(#peeba166c20)" style="fill: none; stroke-dasharray: 2.96,1.28; stroke-dashoffset: 0; stroke: #000000; stroke-width: 0.8"/>
   </g>
   <g id="matplotlib.axis_5">
    <g id="xtick_11">
     <g id="line2d_26">
      <g>
       <use xlink:href="#mac7554419c" x="514.722913" y="182.68" style="stroke: #000000; stroke-width: 0.8"/>
      </g>
     </g>
     <g id="text_21">
      <!-- 0 -->
      <g transform="translate(512.496038 194.998906) scale(0.07 -0.07)">
       <use xlink:href="#DejaVuSans-30"/>
      </g>
     </g>
    </g>
    <g id="xtick_12">
     <g id="line2d_27">
      <g>
       <use xlink:href="#mac7554419c" x="558.34137" y="182.68" style="stroke: #000000; stroke-width: 0.8"/>
      </g>
     </g>
     <g id="text_22">
      <!-- 10 -->
      <g transform="translate(553.88762 194.998906) scale(0.07 -0.07)">
       <use xlink:href="#DejaVuSans-31"/>
       <use xlink:href="#DejaVuSans-30" transform="translate(63.623047 0)"/>
      </g>
     </g>
    </g>
    <g id="xtick_13">
     <g id="line2d_28">
      <g>
       <use xlink:href="#mac7554419c" x="601.959827" y="182.68" style="stroke: #000000; stroke-width: 0.8"/>
      </g>
     </g>
     <g id="text_23">
      <!-- 20 -->
      <g transform="translate(597.506077 194.998906) scale(0.07 -0.07)">
       <use xlink:href="#DejaVuSans-32"/>
       <use xlink:href="#DejaVuSans-30" transform="translate(63.623047 0)"/>
      </g>
     </g>
    </g>
    <g id="xtick_14">
     <g id="line2d_29">
      <g>
       <use xlink:href="#mac7554419c" x="645.578285" y="182.68" style="stroke: #000000; stroke-width: 0.8"/>
      </g>
     </g>
     <g id="text_24">
      <!-- 30 -->
      <g transform="translate(641.124535 194.998906) scale(0.07 -0.07)">
       <use xlink:href="#DejaVuSans-33"/>
       <use xlink:href="#DejaVuSans-30" transform="translate(63.623047 0)"/>
      </g>
     </g>
    </g>
    <g id="xtick_15">
     <g id="line2d_30">
      <g>
       <use xlink:href="#mac7554419c" x="689.196742" y="182.68" style="stroke: #000000; stroke-width: 0.8"/>
      </g>
     </g>
     <g id="text_25">
      <!-- 40 -->
      <g transform="translate(684.742992 194.998906) scale(0.07 -0.07)">
       <use xlink:href="#DejaVuSans-34"/>
       <use xlink:href="#DejaVuSans-30" transform="translate(63.623047 0)"/>
      </g>
     </g>
    </g>
    <g id="text_26">
     <!-- Frequency (Hz) -->
     <g transform="translate(584.881615 206.533437) scale(0.08 -0.08)">
      <use xlink:href="#DejaVuSans-46"/>
      <use xlink:href="#DejaVuSans-72" transform="translate(50.269531 0)"/>
      <use xlink:href="#DejaVuSans-65" transform="translate(89.132812 0)"/>
      <use xlink:href="#DejaVuSans-71" transform="translate(150.65625 0)"/>
      <use xlink:href="#DejaVuSans-75" transform="translate(214.132812 0)"/>
      <use xlink:href="#DejaVuSans-65" transform="translate(277.511719 0)"/>
      <use xlink:href="#DejaVuSans-6e" transform="translate(339.035156 0)"/>
      <use xlink:href="#DejaVuSans-63" transform="translate(402.414062 0)"/>
      <use xlink:href="#DejaVuSans-79" transform="translate(457.394531 0)"/>
      <use xlink:href="#DejaVuSans-20" transform="translate(516.574219 0)"/>
      <use xlink:href="#DejaVuSans-28" transform="translate(548.361328 0)"/>
      <use xlink:href="#DejaVuSans-48" transform="translate(587.375 0)"/>
      <use xlink:href="#DejaVuSans-7a" transform="translate(662.570312 0)"/>
      <use xlink:href="#DejaVuSans-29" transform="translate(715.060547 0)"/>
     </g>
    </g>
   </g>
   <g id="matplotlib.axis_6">
    <g id="ytick_9">
     <g id="line2d_31">
      <g>
       <use xlink:href="#m90ac4fb175" x="509.488698" y="157.083923" style="stroke: #000000; stroke-width: 0.8"/>
      </g>
     </g>
    </g>
    <g id="ytick_10">
     <g id="line2d_32">
      <g>
       <use xlink:href="#m90ac4fb175" x="509.488698" y="129.217647" style="stroke: #000000; stroke-width: 0.8"/>
      </g>
     </g>
    </g>
    <g id="ytick_11">
     <g id="line2d_33">
      <g>
       <use xlink:href="#m90ac4fb175" x="509.488698" y="101.35137" style="stroke: #000000; stroke-width: 0.8"/>
      </g>
     </g>
    </g>
    <g id="ytick_12">
     <g id="line2d_34">
      <g>
       <use xlink:href="#m90ac4fb175" x="509.488698" y="73.485093" style="stroke: #000000; stroke-width: 0.8"/>
      </g>
     </g>
    </g>
    <g id="text_27">
     <!-- ERD/ERS (dB) -->
     <g transform="translate(500.324948 148.236875) rotate(-90) scale(0.08 -0.08)">
      <use xlink:href="#DejaVuSans-45"/>
      <use xlink:href="#DejaVuSans-52" transform="translate(63.183594 0)"/>
      <use xlink:href="#DejaVuSans-44" transform="translate(132.666016 0)"/>
      <use xlink:href="#DejaVuSans-2f" transform="translate(209.667969 0)"/>
      <use xlink:href="#DejaVuSans-45" transform="translate(243.359375 0)"/>
      <use xlink:href="#DejaVuSans-52" transform="translate(306.542969 0)"/>
      <use xlink:href="#DejaVuSans-53" transform="translate(376.025391 0)"/>
      <use xlink:href="#DejaVuSans-20" transform="translate(439.501953 0)"/>
      <use xlink:href="#DejaVuSans-28" transform="translate(471.289062 0)"/>
      <use xlink:href="#DejaVuSans-64" transform="translate(510.302734 0)"/>
      <use xlink:href="#DejaVuSans-42" transform="translate(573.779297 0)"/>
      <use xlink:href="#DejaVuSans-29" transform="translate(642.382812 0)"/>
     </g>
    </g>
   </g>
   <g id="line2d_35">
    <path d="M 519.084759 123.766519 
L 521.265681 126.418992 
L 523.446604 128.691643 
L 525.627527 130.076389 
L 527.80845 131.372103 
L 529.989373 131.954802 
L 532.170296 133.158899 
L 534.351219 131.827459 
L 536.532141 130.433808 
L 538.713064 130.848318 
L 540.893987 134.399957 
L 543.07491 136.40366 
L 545.255833 137.958271 
L 547.436756 140.922011 
L 549.617679 145.922164 
L 551.798601 146.415621 
L 553.979524 137.998924 
L 556.160447 112.583721 
L 558.34137 86.372245 
L 560.522293 73.46871 
L 562.703216 80.267781 
L 564.884139 102.004421 
L 567.065062 125.322547 
L 569.245984 132.949179 
L 571.426907 132.917043 
L 573.60783 132.745417 
L 575.788753 129.794792 
L 577.969676 128.209175 
L 580.150599 129.750892 
L 582.331522 131.623912 
L 584.512444 133.071083 
L 586.693367 135.301845 
L 588.87429 139.239129 
L 591.055213 140.326133 
L 593.236136 140.849193 
L 595.417059 142.50217 
L 597.597982 142.274192 
L 599.778905 137.317756 
L 601.959827 129.540631 
L 604.14075 122.666274 
L 606.321673 120.64474 
L 608.502596 125.3557 
L 610.683519 132.451443 
L 612.864442 136.267471 
L 615.045365 136.394566 
L 617.226287 132.720134 
L 619.40721 128.901971 
L 621.588133 131.32442 
L 623.769056 134.874947 
L 625.949979 139.031339 
L 628.130902 137.90072 
L 630.311825 137.244776 
L 632.492748 139.953841 
L 634.67367 139.012352 
L 636.854593 135.010488 
L 639.035516 133.784256 
L 641.216439 136.53679 
L 643.397362 139.785739 
L 645.578285 142.00861 
L 647.759208 146.585235 
L 649.94013 148.983929 
L 652.121053 146.454168 
L 654.301976 139.426746 
L 656.482899 132.852983 
L 658.663822 131.037661 
L 660.844745 131.635938 
L 663.025668 133.266463 
L 665.20659 138.60504 
L 667.387513 140.806091 
L 669.568436 140.132891 
L 671.749359 143.022681 
L 673.930282 146.058148 
L 676.111205 145.78083 
L 678.292128 142.06559 
L 680.473051 138.462348 
L 682.653973 139.546324 
L 684.834896 141.853307 
L 687.015819 142.755547 
L 689.196742 142.40192 
L 691.377665 140.64499 
L 693.558588 143.490228 
L 695.739511 148.914141 
L 697.920433 151.176611 
L 700.101356 148.693113 
L 702.282279 145.392926 
L 704.463202 142.3417 
L 706.644125 143.576156 
L 708.825048 144.987258 
L 711.005971 148.016932 
" clip-path="url(#peeba166c20)" style="fill: none; stroke: #1f77b4; stroke-width: 1.3; stroke-linecap: square"/>
   </g>
   <g id="line2d_36">
    <path d="M 519.084759 123.321901 
L 521.265681 126.927073 
L 523.446604 129.326515 
L 525.627527 125.975584 
L 527.80845 123.802293 
L 529.989373 130.080745 
L 532.170296 136.659914 
L 534.351219 137.468637 
L 536.532141 136.350825 
L 538.713064 137.926159 
L 540.893987 136.070682 
L 543.07491 128.8964 
L 545.255833 127.895481 
L 547.436756 134.804869 
L 549.617679 141.649477 
L 551.798601 147.685424 
L 553.979524 151.603031 
L 556.160447 143.153518 
L 558.34137 130.162536 
L 560.522293 122.163317 
L 562.703216 124.394975 
L 564.884139 129.832678 
L 567.065062 129.232161 
L 569.245984 123.77612 
L 571.426907 128.995791 
L 573.60783 133.379726 
L 575.788753 129.133461 
L 577.969676 123.216857 
L 580.150599 126.903729 
L 582.331522 131.765534 
L 584.512444 132.600736 
L 586.693367 132.030325 
L 588.87429 128.987866 
L 591.055213 125.342589 
L 593.236136 127.977058 
L 595.417059 130.796359 
L 597.597982 129.468527 
L 599.778905 124.686822 
L 601.959827 123.208804 
L 604.14075 125.741163 
L 606.321673 126.75623 
L 608.502596 132.616006 
L 610.683519 139.59083 
L 612.864442 141.417158 
L 615.045365 134.313076 
L 617.226287 130.205742 
L 619.40721 134.000928 
L 621.588133 135.267997 
L 623.769056 132.055154 
L 625.949979 126.997235 
L 628.130902 126.674597 
L 630.311825 130.270882 
L 632.492748 135.289873 
L 634.67367 138.564285 
L 636.854593 135.911143 
L 639.035516 137.760505 
L 641.216439 142.479196 
L 643.397362 144.763934 
L 645.578285 143.222479 
L 647.759208 136.219734 
L 649.94013 131.03804 
L 652.121053 130.867278 
L 654.301976 132.007829 
L 656.482899 127.363102 
L 658.663822 123.959353 
L 660.844745 121.530459 
L 663.025668 123.556446 
L 665.20659 131.488441 
L 667.387513 138.561537 
L 669.568436 143.48542 
L 671.749359 144.986149 
L 673.930282 144.841508 
L 676.111205 147.606659 
L 678.292128 144.946389 
L 680.473051 143.375575 
L 682.653973 144.2303 
L 684.834896 144.848669 
L 687.015819 143.107699 
L 689.196742 142.623589 
L 691.377665 140.858988 
L 693.558588 140.94684 
L 695.739511 139.775299 
L 697.920433 142.447865 
L 700.101356 148.910231 
L 702.282279 149.703337 
L 704.463202 147.21776 
L 706.644125 142.800878 
L 708.825048 142.977285 
L 711.005971 143.386625 
" clip-path="url(#peeba166c20)" style="fill: none; stroke: #ff7f0e; stroke-width: 1.3; stroke-linecap: square"/>
   </g>
   <g id="patch_19">
    <path d="M 509.488698 182.68 
L 509.488698 59.28 
" style="fill: none; stroke: #000000; stroke-width: 0.8; stroke-linejoin: miter; stroke-linecap: square"/>
   </g>
   <g id="patch_20">
    <path d="M 720.602031 182.68 
L 720.602031 59.28 
" style="fill: none; stroke: #000000; stroke-width: 0.8; stroke-linejoin: miter; stroke-linecap: square"/>
   </g>
   <g id="patch_21">
    <path d="M 509.488698 182.68 
L 720.602031 182.68 
" style="fill: none; stroke: #000000; stroke-width: 0.8; stroke-linejoin: miter; stroke-linecap: square"/>
   </g>
   <g id="patch_22">
    <path d="M 509.488698 59.28 
L 720.602031 59.28 
" style="fill: none; stroke: #000000; stroke-width: 0.8; stroke-linejoin: miter; stroke-linecap: square"/>
   </g>
   <g id="text_28">
    <!-- C4 -->
    <g transform="translate(609.039974 53.28) scale(0.09 -0.09)">
     <use xlink:href="#DejaVuSans-43"/>
     <use xlink:href="#DejaVuSans-34" transform="translate(69.824219 0)"/>
    </g>
   </g>
  </g>
  <g id="text_29">
   <!-- ERD/ERS — MI — S08 (Movement vs Rest) -->
   <g transform="translate(248.408984 15.558281) scale(0.11 -0.11)">
    <defs>
     <path id="DejaVuSans-2014" d="M 313 1978 
L 6088 1978 
L 6088 1528 
L 313 1528 
L 313 1978 
z
" transform="scale(0.015625)"/>
     <path id="DejaVuSans-4d" d="M 628 4666 
L 1569 4666 
L 2759 1491 
L 3956 4666 
L 4897 4666 
L 4897 0 
L 4281 0 
L 4281 4097 
L 3078 897 
L 2444 897 
L 1241 4097 
L 1241 0 
L 628 0 
L 628 4666 
z
" transform="scale(0.015625)"/>
     <path id="DejaVuSans-49" d="M 628 4666 
L 1259 4666 
L 1259 0 
L 628 0 
L 628 4666 
z
" transform="scale(0.015625)"/>
     <path id="DejaVuSans-38" d="M 2034 2216 
Q 1584 2216 1326 1975 
Q 1069 1734 1069 1313 
Q 1069 891 1326 650 
Q 1584 409 2034 409 
Q 2484 409 2743 651 
Q 3003 894 3003 1313 
Q 3003 1734 2745 1975 
Q 2488 2216 2034 2216 
z
M 1403 2484 
Q 997 2584 770 2862 
Q 544 3141 544 3541 
Q 544 4100 942 4425 
Q 1341 4750 2034 4750 
Q 2731 4750 3128 4425 
Q 3525 4100 3525 3541 
Q 3525 3141 3298 2862 
Q 3072 2584 2669 2484 
Q 3125 2378 3379 2068 
Q 3634 1759 3634 1313 
Q 3634 634 3220 271 
Q 2806 -91 2034 -91 
Q 1263 -91 848 271 
Q 434 634 434 1313 
Q 434 1759 690 2068 
Q 947 2378 1403 2484 
z
M 1172 3481 
Q 1172 3119 1398 2916 
Q 1625 2713 2034 2713 
Q 2441 2713 2670 2916 
Q 2900 3119 2900 3481 
Q 2900 3844 2670 4047 
Q 2441 4250 2034 4250 
Q 1625 4250 1398 4047 
Q 1172 3844 1172 3481 
z
" transform="scale(0.015625)"/>
     <path id="DejaVuSans-6f" d="M 1959 3097 
Q 1497 3097 1228 2736 
Q 959 2375 959 1747 
Q 959 1119 1226 758 
Q 1494 397 1959 397 
Q 2419 397 2687 759 
Q 2956 1122 2956 1747 
Q 2956 2369 2687 2733 
Q 2419 3097 1959 3097 
z
M 1959 3584 
Q 2709 3584 3137 3096 
Q 3566 2609 3566 1747 
Q 3566 888 3137 398 
Q 2709 -91 1959 -91 
Q 1206 -91 779 398 
Q 353 888 353 1747 
Q 353 2609 779 3096 
Q 1206 3584 1959 3584 
z
" transform="scale(0.015625)"/>
     <path id="DejaVuSans-76" d="M 191 3500 
L 800 3500 
L 1894 563 
L 2988 3500 
L 3597 3500 
L 2284 0 
L 1503 0 
L 191 3500 
z
" transform="scale(0.015625)"/>
     <path id="DejaVuSans-6d" d="M 3328 2828 
Q 3544 3216 3844 3400 
Q 4144 3584 4550 3584 
Q 5097 3584 5394 3201 
Q 5691 2819 5691 2113 
L 5691 0 
L 5113 0 
L 5113 2094 
Q 5113 2597 4934 2840 
Q 4756 3084 4391 3084 
Q 3944 3084 3684 2787 
Q 3425 2491 3425 1978 
L 3425 0 
L 2847 0 
L 2847 2094 
Q 2847 2600 2669 2842 
Q 2491 3084 2119 3084 
Q 1678 3084 1418 2786 
Q 1159 2488 1159 1978 
L 1159 0 
L 581 0 
L 581 3500 
L 1159 3500 
L 1159 2956 
Q 1356 3278 1631 3431 
Q 1906 3584 2284 3584 
Q 2666 3584 2933 3390 
Q 3200 3197 3328 2828 
z
" transform="scale(0.015625)"/>
     <path id="DejaVuSans-74" d="M 1172 4494 
L 1172 3500 
L 2356 3500 
L 2356 3053 
L 1172 3053 
L 1172 1153 
Q 1172 725 1289 603 
Q 1406 481 1766 481 
L 2356 481 
L 2356 0 
L 1766 0 
Q 1100 0 847 248 
Q 594 497 594 1153 
L 594 3053 
L 172 3053 
L 172 3500 
L 594 3500 
L 594 4494 
L 1172 4494 
z
" transform="scale(0.015625)"/>
     <path id="DejaVuSans-73" d="M 2834 3397 
L 2834 2853 
Q 2591 2978 2328 3040 
Q 2066 3103 1784 3103 
Q 1356 3103 1142 2972 
Q 928 2841 928 2578 
Q 928 2378 1081 2264 
Q 1234 2150 1697 2047 
L 1894 2003 
Q 2506 1872 2764 1633 
Q 3022 1394 3022 966 
Q 3022 478 2636 193 
Q 2250 -91 1575 -91 
Q 1294 -91 989 -36 
Q 684 19 347 128 
L 347 722 
Q 666 556 975 473 
Q 1284 391 1588 391 
Q 1994 391 2212 530 
Q 2431 669 2431 922 
Q 2431 1156 2273 1281 
Q 2116 1406 1581 1522 
L 1381 1569 
Q 847 1681 609 1914 
Q 372 2147 372 2553 
Q 372 3047 722 3315 
Q 1072 3584 1716 3584 
Q 2034 3584 2315 3537 
Q 2597 3491 2834 3397 
z
" transform="scale(0.015625)"/>
    </defs>
    <use xlink:href="#DejaVuSans-45"/>
    <use xlink:href="#DejaVuSans-52" transform="translate(63.183594 0)"/>
    <use xlink:href="#DejaVuSans-44" transform="translate(132.666016 0)"/>
    <use xlink:href="#DejaVuSans-2f" transform="translate(209.667969 0)"/>
    <use xlink:href="#DejaVuSans-45" transform="translate(243.359375 0)"/>
    <use xlink:href="#DejaVuSans-52" transform="translate(306.542969 0)"/>
    <use xlink:href="#DejaVuSans-53" transform="translate(376.025391 0)"/>
    <use xlink:href="#DejaVuSans-20" transform="translate(439.501953 0)"/>
    <use xlink:href="#DejaVuSans-2014" transform="translate(471.289062 0)"/>
    <use xlink:href="#DejaVuSans-20" transform="translate(571.289062 0)"/>
    <use xlink:href="#DejaVuSans-4d" transform="translate(603.076172 0)"/>
    <use xlink:href="#DejaVuSans-49" transform="translate(689.355469 0)"/>
    <use xlink:href="#DejaVuSans-20" transform="translate(718.847656 0)"/>
    <use xlink:href="#DejaVuSans-2014" transform="translate(750.634766 0)"/>
    <use xlink:href="#DejaVuSans-20" transform="translate(850.634766 0)"/>
    <use xlink:href="#DejaVuSans-53" transform="translate(882.421875 0)"/>
    <use xlink:href="#DejaVuSans-30" transform="translate(945.898438 0)"/>
    <use xlink:href="#DejaVuSans-38" transform="translate(1009.521484 0)"/>
    <use xlink:href="#DejaVuSans-20" transform="translate(1073.144531 0)"/>
    <use xlink:href="#DejaVuSans-28" transform="translate(1104.931641 0)"/>
    <use xlink:href="#DejaVuSans-4d" transform="translate(1143.945312 0)"/>
    <use xlink:href="#DejaVuSans-6f" transform="translate(1230.224609 0)"/>
    <use xlink:href="#DejaVuSans-76" transform="translate(1291.40625 0)"/>
    <use xlink:href="#DejaVuSans-65" transform="translate(1350.585938 0)"/>
    <use xlink:href="#DejaVuSans-6d" transform="translate(1412.109375 0)"/>
    <use xlink:href="#DejaVuSans-65" transform="translate(1509.521484 0)"/>
    <use xlink:href="#DejaVuSans-6e" transform="translate(1571.044922 0)"/>
    <use xlink:href="#DejaVuSans-74" transform="translate(1634.423828 0)"/>
    <use xlink:href="#DejaVuSans-20" transform="translate(1673.632812 0)"/>
    <use xlink:href="#DejaVuSans-76" transform="translate(1705.419922 0)"/>
    <use xlink:href="#DejaVuSans-73" transform="translate(1764.599609 0)"/>
    <use xlink:href="#DejaVuSans-20" transform="translate(1816.699219 0)"/>
    <use xlink:href="#DejaVuSans-52" transform="translate(1848.486328 0)"/>
    <use xlink:href="#DejaVuSans-65" transform="translate(1913.46875 0)"/>
    <use xlink:href="#DejaVuSans-73" transform="translate(1974.992188 0)"/>
    <use xlink:href="#DejaVuSans-74" transform="translate(2027.091797 0)"/>
    <use xlink:href="#DejaVuSans-29" transform="translate(2066.300781 0)"/>
   </g>
  </g>
  <g id="legend_1">
   <g id="patch_23">
    <path d="M 663.350812 30.109375 
L 722.830031 30.109375 
Q 724.230031 30.109375 724.230031 28.709375 
L 724.230031 8.86 
Q 724.230031 7.46 722.830031 7.46 
L 663.350812 7.46 
Q 661.950812 7.46 661.950812 8.86 
L 661.950812 28.709375 
Q 661.950812 30.109375 663.350812 30.109375 
z
" style="fill: #ffffff; opacity: 0.8; stroke: #cccccc; stroke-linejoin: miter"/>
   </g>
   <g id="line2d_37">
    <path d="M 664.750812 13.128906 
L 671.750812 13.128906 
L 678.750812 13.128906 
" style="fill: none; stroke: #1f77b4; stroke-width: 1.3; stroke-linecap: square"/>
   </g>
   <g id="text_30">
    <!-- Movement -->
    <g transform="translate(684.350812 15.578906) scale(0.07 -0.07)">
     <use xlink:href="#DejaVuSans-4d"/>
     <use xlink:href="#DejaVuSans-6f" transform="translate(86.279297 0)"/>
     <use xlink:href="#DejaVuSans-76" transform="translate(147.460938 0)"/>
     <use xlink:href="#DejaVuSans-65" transform="translate(206.640625 0)"/>
     <use xlink:href="#DejaVuSans-6d" transform="translate(268.164062 0)"/>
     <use xlink:href="#DejaVuSans-65" transform="translate(365.576172 0)"/>
     <use xlink:href="#DejaVuSans-6e" transform="translate(427.099609 0)"/>
     <use xlink:href="#DejaVuSans-74" transform="translate(490.478516 0)"/>
    </g>
   </g>
   <g id="line2d_38">
    <path d="M 664.750812 23.403594 
L 671.750812 23.403594 
L 678.750812 23.403594 
" style="fill: none; stroke: #ff7f0e; stroke-width: 1.3; stroke-linecap: square"/>
   </g>
   <g id="text_31">
    <!-- rest -->
    <g transform="translate(684.350812 25.853594) scale(0.07 -0.07)">
     <use xlink:href="#DejaVuSans-72"/>
     <use xlink:href="#DejaVuSans-65" transform="translate(38.863281 0)"/>
     <use xlink:href="#DejaVuSans-73" transform="translate(100.386719 0)"/>
     <use xlink:href="#DejaVuSans-74" transform="translate(152.486328 0)"/>
    </g>
   </g>
  </g>
 </g>
 <defs>
  <clipPath id="p981b236e4b">
   <rect x="36.262031" y="59.28" width="211.113333" height="123.4"/>
  </clipPath>
  <clipPath id="p92dd5f5c94">
   <rect x="272.875365" y="59.28" width="211.113333" height="123.4"/>
  </clipPath>
  <clipPath id="peeba166c20">
   <rect x="509.488698" y="59.28" width="211.113333" height="123.4"/>
  </clipPath>
 </defs>
</svg>
