<?xml version="1.0" encoding="utf-8" standalone="no"?>
<!DOCTYPE svg PUBLIC "-//W3C//DTD SVG 1.1//EN"
  "http://www.w3.org/Graphics/SVG/1.1/DTD/svg11.dtd">
<svg xmlns:xlink="http://www.w3.org/1999/xlink" width="731.430031pt" height="215.397188pt" viewBox="0 0 731.430031 215.397188" xmlns="http://www.w3.org/2000/svg" version="1.1">
 <metadata>
  <rdf:RDF xmlns:dc="http://purl.org/dc/elements/1.1/" xmlns:cc="http://creativecommons.org/ns#" xmlns:rdf="http://www.w3.org/1999/02/22-rdf-syntax-ns#">
   <cc:Work>
    <dc:type rdf:resource="http://purl.org/dc/dcmitype/StillImage"/>
    <dc:date>2026-06-26T22:25:43.192389</dc:date>
    <dc:format>image/svg+xml</dc:format>
    <dc:creator>
     <cc:Agent>
      <dc:title>Matplotlib v3.10.9, https://matplotlib.org/</dc:title>
     </cc:Agent>
    </dc:creator>
   </cc:Work>
  </rdf:RDF>
 </metadata>
 <defs>
  <style type="text/css">*{stroke-linejoin: round; stroke-linecap: butt}</style>
 </defs>
 <g id="figure_1">
  <g id="patch_1">
   <path d="M 0 215.397188 
L 731.430031 215.397188 
L 731.430031 0 
L 0 0 
L 0 215.397188 
z
" style="fill: none"/>
  </g>
  <g id="axes_1">
   <g id="patch_2">
    <path d="M 36.262031 182.68 
L 247.375365 182.68 
L 247.375365 59.28 
L 36.262031 59.28 
L 36.262031 182.68 
z
" style="fill: none"/>
   </g>
   <g id="patch_3">
    <path d="M 76.391012 182.68 
L 98.200241 182.68 
L 98.200241 59.28 
L 76.391012 59.28 
z
" clip-path="url(#p85ce75eae5)" style="fill: #d9d9d9; stroke: #d9d9d9; stroke-linejoin: miter"/>
   </g>
   <g id="patch_4">
    <path d="M 98.200241 182.68 
L 172.351618 182.68 
L 172.351618 59.28 
L 98.200241 59.28 
z
" clip-path="url(#p85ce75eae5)" style="fill: #ebebeb; stroke: #ebebeb; stroke-linejoin: miter"/>
   </g>
   <g id="FillBetweenPolyCollection_1">
    <defs>
     <path id="mc020d79141" d="M 45.858092 -93.520147 
L 45.858092 -78.435065 
L 48.039015 -75.10749 
L 50.219938 -74.122696 
L 52.40086 -78.832064 
L 54.581783 -81.458355 
L 56.762706 -78.074249 
L 58.943629 -73.961478 
L 61.124552 -73.113625 
L 63.305475 -75.391165 
L 65.486398 -79.171836 
L 67.667321 -80.598093 
L 69.848243 -77.516773 
L 72.029166 -75.696906 
L 74.210089 -73.010428 
L 76.391012 -71.382278 
L 78.571935 -70.346133 
L 80.752858 -78.868439 
L 82.933781 -99.525338 
L 85.114703 -115.906632 
L 87.295626 -115.960581 
L 89.476549 -101.791742 
L 91.657472 -80.396513 
L 93.838395 -65.939819 
L 96.019318 -67.96461 
L 98.200241 -73.217046 
L 100.381163 -75.896696 
L 102.562086 -73.661874 
L 104.743009 -72.993233 
L 106.923932 -75.488285 
L 109.104855 -77.187268 
L 111.285778 -73.481713 
L 113.466701 -68.498074 
L 115.647624 -66.798551 
L 117.828546 -65.48794 
L 120.009469 -64.384142 
L 122.190392 -63.17068 
L 124.371315 -65.307778 
L 126.552238 -66.258034 
L 128.733161 -66.41044 
L 130.914084 -65.210435 
L 133.095006 -61.860092 
L 135.275929 -58.322105 
L 137.456852 -57.861586 
L 139.637775 -58.658023 
L 141.818698 -59.704485 
L 143.999621 -61.916529 
L 146.180544 -65.119592 
L 148.361467 -65.916384 
L 150.542389 -64.673826 
L 152.723312 -64.491998 
L 154.904235 -66.272187 
L 157.085158 -66.459404 
L 159.266081 -65.575519 
L 161.447004 -66.701197 
L 163.627927 -71.236327 
L 165.808849 -74.72169 
L 167.989772 -75.168057 
L 170.170695 -76.091573 
L 172.351618 -79.005412 
L 174.532541 -79.374568 
L 176.713464 -75.213477 
L 178.894387 -70.706875 
L 181.075309 -68.96176 
L 183.256232 -70.002825 
L 185.437155 -74.223688 
L 187.618078 -77.728351 
L 189.799001 -79.014948 
L 191.979924 -76.935677 
L 194.160847 -74.421186 
L 196.34177 -72.794555 
L 198.522692 -70.851545 
L 200.703615 -70.30664 
L 202.884538 -69.726649 
L 205.065461 -65.89511 
L 207.246384 -62.385452 
L 209.427307 -63.996411 
L 211.60823 -68.86254 
L 213.789152 -70.604691 
L 215.970075 -68.745518 
L 218.150998 -64.451591 
L 220.331921 -62.723163 
L 222.512844 -62.170206 
L 224.693767 -62.423187 
L 226.87469 -64.880257 
L 229.055613 -66.865131 
L 231.236535 -67.735877 
L 233.417458 -67.628377 
L 235.598381 -68.627364 
L 237.779304 -69.594852 
L 237.779304 -83.57115 
L 237.779304 -83.57115 
L 235.598381 -83.737709 
L 233.417458 -82.915452 
L 231.236535 -82.685761 
L 229.055613 -81.253922 
L 226.87469 -79.723786 
L 224.693767 -77.188872 
L 222.512844 -77.884977 
L 220.331921 -78.293442 
L 218.150998 -78.975095 
L 215.970075 -82.57628 
L 213.789152 -84.545957 
L 211.60823 -84.015759 
L 209.427307 -79.479524 
L 207.246384 -76.766142 
L 205.065461 -79.632509 
L 202.884538 -83.454715 
L 200.703615 -83.985021 
L 198.522692 -85.492303 
L 196.34177 -87.13955 
L 194.160847 -88.298944 
L 191.979924 -91.40505 
L 189.799001 -94.007857 
L 187.618078 -92.451221 
L 185.437155 -88.813017 
L 183.256232 -84.196818 
L 181.075309 -83.411422 
L 178.894387 -84.741593 
L 176.713464 -89.394706 
L 174.532541 -93.212835 
L 172.351618 -92.101696 
L 170.170695 -89.546249 
L 167.989772 -89.160016 
L 165.808849 -88.297367 
L 163.627927 -85.008462 
L 161.447004 -81.332661 
L 159.266081 -79.867857 
L 157.085158 -80.550281 
L 154.904235 -79.955856 
L 152.723312 -79.085949 
L 150.542389 -78.494739 
L 148.361467 -79.474249 
L 146.180544 -78.871156 
L 143.999621 -75.672837 
L 141.818698 -74.4947 
L 139.637775 -74.542078 
L 137.456852 -74.179429 
L 135.275929 -75.878019 
L 133.095006 -78.357716 
L 130.914084 -81.738815 
L 128.733161 -83.171313 
L 126.552238 -83.70009 
L 124.371315 -82.487476 
L 122.190392 -79.37652 
L 120.009469 -80.16324 
L 117.828546 -80.399024 
L 115.647624 -80.324323 
L 113.466701 -81.953975 
L 111.285778 -87.34497 
L 109.104855 -90.658275 
L 106.923932 -88.167004 
L 104.743009 -85.233947 
L 102.562086 -85.946872 
L 100.381163 -88.320995 
L 98.200241 -87.097661 
L 96.019318 -82.675575 
L 93.838395 -81.692437 
L 91.657472 -97.947471 
L 89.476549 -120.092992 
L 87.295626 -135.091635 
L 85.114703 -135.226078 
L 82.933781 -116.757994 
L 80.752858 -95.068022 
L 78.571935 -86.527946 
L 76.391012 -87.266947 
L 74.210089 -87.93372 
L 72.029166 -90.169253 
L 69.848243 -91.810989 
L 67.667321 -93.988789 
L 65.486398 -92.57417 
L 63.305475 -89.359155 
L 61.124552 -87.111786 
L 58.943629 -86.462523 
L 56.762706 -89.790826 
L 54.581783 -94.44735 
L 52.40086 -92.913141 
L 50.219938 -88.162842 
L 48.039015 -89.277386 
L 45.858092 -93.520147 
z
" style="stroke: #1f77b4; stroke-opacity: 0.15"/>
    </defs>
    <g clip-path="url(#p85ce75eae5)">
     <use xlink:href="#mc020d79141" x="0" y="215.397188" style="fill: #1f77b4; fill-opacity: 0.15; stroke: #1f77b4; stroke-opacity: 0.15"/>
    </g>
   </g>
   <g id="FillBetweenPolyCollection_2">
    <defs>
     <path id="mcb9b5c42b4" d="M 45.858092 -106.178256 
L 45.858092 -82.374618 
L 48.039015 -82.193868 
L 50.219938 -80.672597 
L 52.40086 -79.0629 
L 54.581783 -80.669642 
L 56.762706 -93.225367 
L 58.943629 -103.581751 
L 61.124552 -100.726526 
L 63.305475 -93.335126 
L 65.486398 -87.716695 
L 67.667321 -84.829959 
L 69.848243 -79.532913 
L 72.029166 -75.556393 
L 74.210089 -72.598122 
L 76.391012 -67.020921 
L 78.571935 -61.587665 
L 80.752858 -60.268947 
L 82.933781 -67.741019 
L 85.114703 -71.88627 
L 87.295626 -72.665321 
L 89.476549 -70.07202 
L 91.657472 -65.643425 
L 93.838395 -69.184087 
L 96.019318 -74.32323 
L 98.200241 -72.180083 
L 100.381163 -69.64007 
L 102.562086 -68.563354 
L 104.743009 -69.618772 
L 106.923932 -67.549037 
L 109.104855 -66.358229 
L 111.285778 -63.282071 
L 113.466701 -55.17648 
L 115.647624 -47.394803 
L 117.828546 -40.691118 
L 120.009469 -38.326278 
L 122.190392 -39.467138 
L 124.371315 -48.989947 
L 126.552238 -58.931017 
L 128.733161 -63.337457 
L 130.914084 -56.482923 
L 133.095006 -49.178839 
L 135.275929 -52.108605 
L 137.456852 -63.924621 
L 139.637775 -75.346883 
L 141.818698 -75.058236 
L 143.999621 -72.01996 
L 146.180544 -74.253566 
L 148.361467 -80.221473 
L 150.542389 -80.055427 
L 152.723312 -71.369406 
L 154.904235 -66.895226 
L 157.085158 -63.777029 
L 159.266081 -62.603026 
L 161.447004 -65.514197 
L 163.627927 -65.457893 
L 165.808849 -63.449216 
L 167.989772 -65.821658 
L 170.170695 -73.070709 
L 172.351618 -80.229823 
L 174.532541 -77.940639 
L 176.713464 -75.051592 
L 178.894387 -75.155286 
L 181.075309 -73.959391 
L 183.256232 -68.42203 
L 185.437155 -65.904008 
L 187.618078 -67.378367 
L 189.799001 -70.686342 
L 191.979924 -68.890084 
L 194.160847 -59.741819 
L 196.34177 -52.865295 
L 198.522692 -48.753052 
L 200.703615 -48.432659 
L 202.884538 -50.598723 
L 205.065461 -53.885642 
L 207.246384 -55.19696 
L 209.427307 -57.245987 
L 211.60823 -54.904873 
L 213.789152 -57.173329 
L 215.970075 -61.34329 
L 218.150998 -61.17591 
L 220.331921 -61.83848 
L 222.512844 -63.994947 
L 224.693767 -62.072924 
L 226.87469 -61.633775 
L 229.055613 -61.99422 
L 231.236535 -60.460622 
L 233.417458 -61.607494 
L 235.598381 -63.738211 
L 237.779304 -66.399109 
L 237.779304 -100.533532 
L 237.779304 -100.533532 
L 235.598381 -95.932124 
L 233.417458 -93.742474 
L 231.236535 -93.716553 
L 229.055613 -93.468825 
L 226.87469 -93.212785 
L 224.693767 -90.939232 
L 222.512844 -92.628676 
L 220.331921 -93.015062 
L 218.150998 -94.690733 
L 215.970075 -93.328211 
L 213.789152 -91.223392 
L 211.60823 -90.13864 
L 209.427307 -88.289815 
L 207.246384 -80.04911 
L 205.065461 -76.523487 
L 202.884538 -76.172045 
L 200.703615 -75.606928 
L 198.522692 -77.9176 
L 196.34177 -82.731705 
L 194.160847 -86.232312 
L 191.979924 -93.533108 
L 189.799001 -97.246184 
L 187.618078 -93.565022 
L 185.437155 -92.446938 
L 183.256232 -97.838927 
L 181.075309 -101.201143 
L 178.894387 -101.804001 
L 176.713464 -100.237649 
L 174.532541 -102.223073 
L 172.351618 -106.327256 
L 170.170695 -103.117597 
L 167.989772 -94.2671 
L 165.808849 -91.153873 
L 163.627927 -93.277788 
L 161.447004 -93.925256 
L 159.266081 -95.964705 
L 157.085158 -96.321502 
L 154.904235 -94.567094 
L 152.723312 -96.667507 
L 150.542389 -106.75471 
L 148.361467 -102.928285 
L 146.180544 -98.484776 
L 143.999621 -99.719543 
L 141.818698 -102.394213 
L 139.637775 -102.151007 
L 137.456852 -91.632406 
L 135.275929 -77.035042 
L 133.095006 -74.576888 
L 130.914084 -87.130059 
L 128.733161 -93.709535 
L 126.552238 -87.808734 
L 124.371315 -80.76643 
L 122.190392 -74.409619 
L 120.009469 -71.602967 
L 117.828546 -74.14422 
L 115.647624 -81.422093 
L 113.466701 -88.786891 
L 111.285778 -96.050117 
L 109.104855 -99.062249 
L 106.923932 -97.360003 
L 104.743009 -95.581282 
L 102.562086 -92.500941 
L 100.381163 -96.856546 
L 98.200241 -106.07545 
L 96.019318 -107.255625 
L 93.838395 -99.584693 
L 91.657472 -95.569322 
L 89.476549 -103.464341 
L 87.295626 -109.990733 
L 85.114703 -106.754641 
L 82.933781 -97.202535 
L 80.752858 -91.953931 
L 78.571935 -98.641246 
L 76.391012 -98.629337 
L 74.210089 -97.355756 
L 72.029166 -102.233079 
L 69.848243 -111.03928 
L 67.667321 -116.276941 
L 65.486398 -116.721328 
L 63.305475 -118.180051 
L 61.124552 -128.178487 
L 58.943629 -130.730156 
L 56.762706 -121.159476 
L 54.581783 -111.635885 
L 52.40086 -111.862402 
L 50.219938 -112.098004 
L 48.039015 -107.834414 
L 45.858092 -106.178256 
z
" style="stroke: #ff7f0e; stroke-opacity: 0.15"/>
    </defs>
    <g clip-path="url(#p85ce75eae5)">
     <use xlink:href="#mcb9b5c42b4" x="0" y="215.397188" style="fill: #ff7f0e; fill-opacity: 0.15; stroke: #ff7f0e; stroke-opacity: 0.15"/>
    </g>
   </g>
   <g id="line2d_1">
    <path d="M 36.262031 126.463043 
L 247.375365 126.463043 
" clip-path="url(#p85ce75eae5)" style="fill: none; stroke-dasharray: 2.96,1.28; stroke-dashoffset: 0; stroke: #000000; stroke-width: 0.8"/>
   </g>
   <g id="matplotlib.axis_1">
    <g id="xtick_1">
     <g id="line2d_2">
      <defs>
       <path id="m5f5375f0b7" d="M 0 0 
L 0 3.5 
" style="stroke: #000000; stroke-width: 0.8"/>
      </defs>
      <g>
       <use xlink:href="#m5f5375f0b7" x="41.496246" y="182.68" style="stroke: #000000; stroke-width: 0.8"/>
      </g>
     </g>
     <g id="text_1">
      <!-- 0 -->
      <g transform="translate(39.269371 194.998906) scale(0.07 -0.07)">
       <defs>
        <path id="DejaVuSans-30" d="M 2034 4250 
Q 1547 4250 1301 3770 
Q 1056 3291 1056 2328 
Q 1056 1369 1301 889 
Q 1547 409 2034 409 
Q 2525 409 2770 889 
Q 3016 1369 3016 2328 
Q 3016 3291 2770 3770 
Q 2525 4250 2034 4250 
z
M 2034 4750 
Q 2819 4750 3233 4129 
Q 3647 3509 3647 2328 
Q 3647 1150 3233 529 
Q 2819 -91 2034 -91 
Q 1250 -91 836 529 
Q 422 1150 422 2328 
Q 422 3509 836 4129 
Q 1250 4750 2034 4750 
z
" transform="scale(0.015625)"/>
       </defs>
       <use xlink:href="#DejaVuSans-30"/>
      </g>
     </g>
    </g>
    <g id="xtick_2">
     <g id="line2d_3">
      <g>
       <use xlink:href="#m5f5375f0b7" x="85.114703" y="182.68" style="stroke: #000000; stroke-width: 0.8"/>
      </g>
     </g>
     <g id="text_2">
      <!-- 10 -->
      <g transform="translate(80.660953 194.998906) scale(0.07 -0.07)">
       <defs>
        <path id="DejaVuSans-31" d="M 794 531 
L 1825 531 
L 1825 4091 
L 703 3866 
L 703 4441 
L 1819 4666 
L 2450 4666 
L 2450 531 
L 3481 531 
L 3481 0 
L 794 0 
L 794 531 
z
" transform="scale(0.015625)"/>
       </defs>
       <use xlink:href="#DejaVuSans-31"/>
       <use xlink:href="#DejaVuSans-30" transform="translate(63.623047 0)"/>
      </g>
     </g>
    </g>
    <g id="xtick_3">
     <g id="line2d_4">
      <g>
       <use xlink:href="#m5f5375f0b7" x="128.733161" y="182.68" style="stroke: #000000; stroke-width: 0.8"/>
      </g>
     </g>
     <g id="text_3">
      <!-- 20 -->
      <g transform="translate(124.279411 194.998906) scale(0.07 -0.07)">
       <defs>
        <path id="DejaVuSans-32" d="M 1228 531 
L 3431 531 
L 3431 0 
L 469 0 
L 469 531 
Q 828 903 1448 1529 
Q 2069 2156 2228 2338 
Q 2531 2678 2651 2914 
Q 2772 3150 2772 3378 
Q 2772 3750 2511 3984 
Q 2250 4219 1831 4219 
Q 1534 4219 1204 4116 
Q 875 4013 500 3803 
L 500 4441 
Q 881 4594 1212 4672 
Q 1544 4750 1819 4750 
Q 2544 4750 2975 4387 
Q 3406 4025 3406 3419 
Q 3406 3131 3298 2873 
Q 3191 2616 2906 2266 
Q 2828 2175 2409 1742 
Q 1991 1309 1228 531 
z
" transform="scale(0.015625)"/>
       </defs>
       <use xlink:href="#DejaVuSans-32"/>
       <use xlink:href="#DejaVuSans-30" transform="translate(63.623047 0)"/>
      </g>
     </g>
    </g>
    <g id="xtick_4">
     <g id="line2d_5">
      <g>
       <use xlink:href="#m5f5375f0b7" x="172.351618" y="182.68" style="stroke: #000000; stroke-width: 0.8"/>
      </g>
     </g>
     <g id="text_4">
      <!-- 30 -->
      <g transform="translate(167.897868 194.998906) scale(0.07 -0.07)">
       <defs>
        <path id="DejaVuSans-33" d="M 2597 2516 
Q 3050 2419 3304 2112 
Q 3559 1806 3559 1356 
Q 3559 666 3084 287 
Q 2609 -91 1734 -91 
Q 1441 -91 1130 -33 
Q 819 25 488 141 
L 488 750 
Q 750 597 1062 519 
Q 1375 441 1716 441 
Q 2309 441 2620 675 
Q 2931 909 2931 1356 
Q 2931 1769 2642 2001 
Q 2353 2234 1838 2234 
L 1294 2234 
L 1294 2753 
L 1863 2753 
Q 2328 2753 2575 2939 
Q 2822 3125 2822 3475 
Q 2822 3834 2567 4026 
Q 2313 4219 1838 4219 
Q 1578 4219 1281 4162 
Q 984 4106 628 3988 
L 628 4550 
Q 988 4650 1302 4700 
Q 1616 4750 1894 4750 
Q 2613 4750 3031 4423 
Q 3450 4097 3450 3541 
Q 3450 3153 3228 2886 
Q 3006 2619 2597 2516 
z
" transform="scale(0.015625)"/>
       </defs>
       <use xlink:href="#DejaVuSans-33"/>
       <use xlink:href="#DejaVuSans-30" transform="translate(63.623047 0)"/>
      </g>
     </g>
    </g>
    <g id="xtick_5">
     <g id="line2d_6">
      <g>
       <use xlink:href="#m5f5375f0b7" x="215.970075" y="182.68" style="stroke: #000000; stroke-width: 0.8"/>
      </g>
     </g>
     <g id="text_5">
      <!-- 40 -->
      <g transform="translate(211.516325 194.998906) scale(0.07 -0.07)">
       <defs>
        <path id="DejaVuSans-34" d="M 2419 4116 
L 825 1625 
L 2419 1625 
L 2419 4116 
z
M 2253 4666 
L 3047 4666 
L 3047 1625 
L 3713 1625 
L 3713 1100 
L 3047 1100 
L 3047 0 
L 2419 0 
L 2419 1100 
L 313 1100 
L 313 1709 
L 2253 4666 
z
" transform="scale(0.015625)"/>
       </defs>
       <use xlink:href="#DejaVuSans-34"/>
       <use xlink:href="#DejaVuSans-30" transform="translate(63.623047 0)"/>
      </g>
     </g>
    </g>
    <g id="text_6">
     <!-- Frequency (Hz) -->
     <g transform="translate(111.654948 206.533437) scale(0.08 -0.08)">
      <defs>
       <path id="DejaVuSans-46" d="M 628 4666 
L 3309 4666 
L 3309 4134 
L 1259 4134 
L 1259 2759 
L 3109 2759 
L 3109 2228 
L 1259 2228 
L 1259 0 
L 628 0 
L 628 4666 
z
" transform="scale(0.015625)"/>
       <path id="DejaVuSans-72" d="M 2631 2963 
Q 2534 3019 2420 3045 
Q 2306 3072 2169 3072 
Q 1681 3072 1420 2755 
Q 1159 2438 1159 1844 
L 1159 0 
L 581 0 
L 581 3500 
L 1159 3500 
L 1159 2956 
Q 1341 3275 1631 3429 
Q 1922 3584 2338 3584 
Q 2397 3584 2469 3576 
Q 2541 3569 2628 3553 
L 2631 2963 
z
" transform="scale(0.015625)"/>
       <path id="DejaVuSans-65" d="M 3597 1894 
L 3597 1613 
L 953 1613 
Q 991 1019 1311 708 
Q 1631 397 2203 397 
Q 2534 397 2845 478 
Q 3156 559 3463 722 
L 3463 178 
Q 3153 47 2828 -22 
Q 2503 -91 2169 -91 
Q 1331 -91 842 396 
Q 353 884 353 1716 
Q 353 2575 817 3079 
Q 1281 3584 2069 3584 
Q 2775 3584 3186 3129 
Q 3597 2675 3597 1894 
z
M 3022 2063 
Q 3016 2534 2758 2815 
Q 2500 3097 2075 3097 
Q 1594 3097 1305 2825 
Q 1016 2553 972 2059 
L 3022 2063 
z
" transform="scale(0.015625)"/>
       <path id="DejaVuSans-71" d="M 947 1747 
Q 947 1113 1208 752 
Q 1469 391 1925 391 
Q 2381 391 2643 752 
Q 2906 1113 2906 1747 
Q 2906 2381 2643 2742 
Q 2381 3103 1925 3103 
Q 1469 3103 1208 2742 
Q 947 2381 947 1747 
z
M 2906 525 
Q 2725 213 2448 61 
Q 2172 -91 1784 -91 
Q 1150 -91 751 415 
Q 353 922 353 1747 
Q 353 2572 751 3078 
Q 1150 3584 1784 3584 
Q 2172 3584 2448 3432 
Q 2725 3281 2906 2969 
L 2906 3500 
L 3481 3500 
L 3481 -1331 
L 2906 -1331 
L 2906 525 
z
" transform="scale(0.015625)"/>
       <path id="DejaVuSans-75" d="M 544 1381 
L 544 3500 
L 1119 3500 
L 1119 1403 
Q 1119 906 1312 657 
Q 1506 409 1894 409 
Q 2359 409 2629 706 
Q 2900 1003 2900 1516 
L 2900 3500 
L 3475 3500 
L 3475 0 
L 2900 0 
L 2900 538 
Q 2691 219 2414 64 
Q 2138 -91 1772 -91 
Q 1169 -91 856 284 
Q 544 659 544 1381 
z
M 1991 3584 
L 1991 3584 
z
" transform="scale(0.015625)"/>
       <path id="DejaVuSans-6e" d="M 3513 2113 
L 3513 0 
L 2938 0 
L 2938 2094 
Q 2938 2591 2744 2837 
Q 2550 3084 2163 3084 
Q 1697 3084 1428 2787 
Q 1159 2491 1159 1978 
L 1159 0 
L 581 0 
L 581 3500 
L 1159 3500 
L 1159 2956 
Q 1366 3272 1645 3428 
Q 1925 3584 2291 3584 
Q 2894 3584 3203 3211 
Q 3513 2838 3513 2113 
z
" transform="scale(0.015625)"/>
       <path id="DejaVuSans-63" d="M 3122 3366 
L 3122 2828 
Q 2878 2963 2633 3030 
Q 2388 3097 2138 3097 
Q 1578 3097 1268 2742 
Q 959 2388 959 1747 
Q 959 1106 1268 751 
Q 1578 397 2138 397 
Q 2388 397 2633 464 
Q 2878 531 3122 666 
L 3122 134 
Q 2881 22 2623 -34 
Q 2366 -91 2075 -91 
Q 1284 -91 818 406 
Q 353 903 353 1747 
Q 353 2603 823 3093 
Q 1294 3584 2113 3584 
Q 2378 3584 2631 3529 
Q 2884 3475 3122 3366 
z
" transform="scale(0.015625)"/>
       <path id="DejaVuSans-79" d="M 2059 -325 
Q 1816 -950 1584 -1140 
Q 1353 -1331 966 -1331 
L 506 -1331 
L 506 -850 
L 844 -850 
Q 1081 -850 1212 -737 
Q 1344 -625 1503 -206 
L 1606 56 
L 191 3500 
L 800 3500 
L 1894 763 
L 2988 3500 
L 3597 3500 
L 2059 -325 
z
" transform="scale(0.015625)"/>
       <path id="DejaVuSans-20" transform="scale(0.015625)"/>
       <path id="DejaVuSans-28" d="M 1984 4856 
Q 1566 4138 1362 3434 
Q 1159 2731 1159 2009 
Q 1159 1288 1364 580 
Q 1569 -128 1984 -844 
L 1484 -844 
Q 1016 -109 783 600 
Q 550 1309 550 2009 
Q 550 2706 781 3412 
Q 1013 4119 1484 4856 
L 1984 4856 
z
" transform="scale(0.015625)"/>
       <path id="DejaVuSans-48" d="M 628 4666 
L 1259 4666 
L 1259 2753 
L 3553 2753 
L 3553 4666 
L 4184 4666 
L 4184 0 
L 3553 0 
L 3553 2222 
L 1259 2222 
L 1259 0 
L 628 0 
L 628 4666 
z
" transform="scale(0.015625)"/>
       <path id="DejaVuSans-7a" d="M 353 3500 
L 3084 3500 
L 3084 2975 
L 922 459 
L 3084 459 
L 3084 0 
L 275 0 
L 275 525 
L 2438 3041 
L 353 3041 
L 353 3500 
z
" transform="scale(0.015625)"/>
       <path id="DejaVuSans-29" d="M 513 4856 
L 1013 4856 
Q 1481 4119 1714 3412 
Q 1947 2706 1947 2009 
Q 1947 1309 1714 600 
Q 1481 -109 1013 -844 
L 513 -844 
Q 928 -128 1133 580 
Q 1338 1288 1338 2009 
Q 1338 2731 1133 3434 
Q 928 4138 513 4856 
z
" transform="scale(0.015625)"/>
      </defs>
      <use xlink:href="#DejaVuSans-46"/>
      <use xlink:href="#DejaVuSans-72" transform="translate(50.269531 0)"/>
      <use xlink:href="#DejaVuSans-65" transform="translate(89.132812 0)"/>
      <use xlink:href="#DejaVuSans-71" transform="translate(150.65625 0)"/>
      <use xlink:href="#DejaVuSans-75" transform="translate(214.132812 0)"/>
      <use xlink:href="#DejaVuSans-65" transform="translate(277.511719 0)"/>
      <use xlink:href="#DejaVuSans-6e" transform="translate(339.035156 0)"/>
      <use xlink:href="#DejaVuSans-63" transform="translate(402.414062 0)"/>
      <use xlink:href="#DejaVuSans-79" transform="translate(457.394531 0)"/>
      <use xlink:href="#DejaVuSans-20" transform="translate(516.574219 0)"/>
      <use xlink:href="#DejaVuSans-28" transform="translate(548.361328 0)"/>
      <use xlink:href="#DejaVuSans-48" transform="translate(587.375 0)"/>
      <use xlink:href="#DejaVuSans-7a" transform="translate(662.570312 0)"/>
      <use xlink:href="#DejaVuSans-29" transform="translate(715.060547 0)"/>
     </g>
    </g>
   </g>
   <g id="matplotlib.axis_2">
    <g id="ytick_1">
     <g id="line2d_7">
      <defs>
       <path id="m32bc970138" d="M 0 0 
L -3.5 0 
" style="stroke: #000000; stroke-width: 0.8"/>
      </defs>
      <g>
       <use xlink:href="#m32bc970138" x="36.262031" y="156.241173" style="stroke: #000000; stroke-width: 0.8"/>
      </g>
     </g>
     <g id="text_7">
      <!-- −2 -->
      <g transform="translate(18.9425 158.900626) scale(0.07 -0.07)">
       <defs>
        <path id="DejaVuSans-2212" d="M 678 2272 
L 4684 2272 
L 4684 1741 
L 678 1741 
L 678 2272 
z
" transform="scale(0.015625)"/>
       </defs>
       <use xlink:href="#DejaVuSans-2212"/>
       <use xlink:href="#DejaVuSans-32" transform="translate(83.789062 0)"/>
      </g>
     </g>
    </g>
    <g id="ytick_2">
     <g id="line2d_8">
      <g>
       <use xlink:href="#m32bc970138" x="36.262031" y="126.463043" style="stroke: #000000; stroke-width: 0.8"/>
      </g>
     </g>
     <g id="text_8">
      <!-- 0 -->
      <g transform="translate(24.808281 129.122496) scale(0.07 -0.07)">
       <use xlink:href="#DejaVuSans-30"/>
      </g>
     </g>
    </g>
    <g id="ytick_3">
     <g id="line2d_9">
      <g>
       <use xlink:href="#m32bc970138" x="36.262031" y="96.684913" style="stroke: #000000; stroke-width: 0.8"/>
      </g>
     </g>
     <g id="text_9">
      <!-- 2 -->
      <g transform="translate(24.808281 99.344366) scale(0.07 -0.07)">
       <use xlink:href="#DejaVuSans-32"/>
      </g>
     </g>
    </g>
    <g id="ytick_4">
     <g id="line2d_10">
      <g>
       <use xlink:href="#m32bc970138" x="36.262031" y="66.906783" style="stroke: #000000; stroke-width: 0.8"/>
      </g>
     </g>
     <g id="text_10">
      <!-- 4 -->
      <g transform="translate(24.808281 69.566237) scale(0.07 -0.07)">
       <use xlink:href="#DejaVuSans-34"/>
      </g>
     </g>
    </g>
    <g id="text_11">
     <!-- ERD/ERS (dB) -->
     <g transform="translate(13.27875 148.236875) rotate(-90) scale(0.08 -0.08)">
      <defs>
       <path id="DejaVuSans-45" d="M 628 4666 
L 3578 4666 
L 3578 4134 
L 1259 4134 
L 1259 2753 
L 3481 2753 
L 3481 2222 
L 1259 2222 
L 1259 531 
L 3634 531 
L 3634 0 
L 628 0 
L 628 4666 
z
" transform="scale(0.015625)"/>
       <path id="DejaVuSans-52" d="M 2841 2188 
Q 3044 2119 3236 1894 
Q 3428 1669 3622 1275 
L 4263 0 
L 3584 0 
L 2988 1197 
Q 2756 1666 2539 1819 
Q 2322 1972 1947 1972 
L 1259 1972 
L 1259 0 
L 628 0 
L 628 4666 
L 2053 4666 
Q 2853 4666 3247 4331 
Q 3641 3997 3641 3322 
Q 3641 2881 3436 2590 
Q 3231 2300 2841 2188 
z
M 1259 4147 
L 1259 2491 
L 2053 2491 
Q 2509 2491 2742 2702 
Q 2975 2913 2975 3322 
Q 2975 3731 2742 3939 
Q 2509 4147 2053 4147 
L 1259 4147 
z
" transform="scale(0.015625)"/>
       <path id="DejaVuSans-44" d="M 1259 4147 
L 1259 519 
L 2022 519 
Q 2988 519 3436 956 
Q 3884 1394 3884 2338 
Q 3884 3275 3436 3711 
Q 2988 4147 2022 4147 
L 1259 4147 
z
M 628 4666 
L 1925 4666 
Q 3281 4666 3915 4102 
Q 4550 3538 4550 2338 
Q 4550 1131 3912 565 
Q 3275 0 1925 0 
L 628 0 
L 628 4666 
z
" transform="scale(0.015625)"/>
       <path id="DejaVuSans-2f" d="M 1625 4666 
L 2156 4666 
L 531 -594 
L 0 -594 
L 1625 4666 
z
" transform="scale(0.015625)"/>
       <path id="DejaVuSans-53" d="M 3425 4513 
L 3425 3897 
Q 3066 4069 2747 4153 
Q 2428 4238 2131 4238 
Q 1616 4238 1336 4038 
Q 1056 3838 1056 3469 
Q 1056 3159 1242 3001 
Q 1428 2844 1947 2747 
L 2328 2669 
Q 3034 2534 3370 2195 
Q 3706 1856 3706 1288 
Q 3706 609 3251 259 
Q 2797 -91 1919 -91 
Q 1588 -91 1214 -16 
Q 841 59 441 206 
L 441 856 
Q 825 641 1194 531 
Q 1563 422 1919 422 
Q 2459 422 2753 634 
Q 3047 847 3047 1241 
Q 3047 1584 2836 1778 
Q 2625 1972 2144 2069 
L 1759 2144 
Q 1053 2284 737 2584 
Q 422 2884 422 3419 
Q 422 4038 858 4394 
Q 1294 4750 2059 4750 
Q 2388 4750 2728 4690 
Q 3069 4631 3425 4513 
z
" transform="scale(0.015625)"/>
       <path id="DejaVuSans-64" d="M 2906 2969 
L 2906 4863 
L 3481 4863 
L 3481 0 
L 2906 0 
L 2906 525 
Q 2725 213 2448 61 
Q 2172 -91 1784 -91 
Q 1150 -91 751 415 
Q 353 922 353 1747 
Q 353 2572 751 3078 
Q 1150 3584 1784 3584 
Q 2172 3584 2448 3432 
Q 2725 3281 2906 2969 
z
M 947 1747 
Q 947 1113 1208 752 
Q 1469 391 1925 391 
Q 2381 391 2643 752 
Q 2906 1113 2906 1747 
Q 2906 2381 2643 2742 
Q 2381 3103 1925 3103 
Q 1469 3103 1208 2742 
Q 947 2381 947 1747 
z
" transform="scale(0.015625)"/>
       <path id="DejaVuSans-42" d="M 1259 2228 
L 1259 519 
L 2272 519 
Q 2781 519 3026 730 
Q 3272 941 3272 1375 
Q 3272 1813 3026 2020 
Q 2781 2228 2272 2228 
L 1259 2228 
z
M 1259 4147 
L 1259 2741 
L 2194 2741 
Q 2656 2741 2882 2914 
Q 3109 3088 3109 3444 
Q 3109 3797 2882 3972 
Q 2656 4147 2194 4147 
L 1259 4147 
z
M 628 4666 
L 2241 4666 
Q 2963 4666 3353 4366 
Q 3744 4066 3744 3513 
Q 3744 3084 3544 2831 
Q 3344 2578 2956 2516 
Q 3422 2416 3680 2098 
Q 3938 1781 3938 1306 
Q 3938 681 3513 340 
Q 3088 0 2303 0 
L 628 0 
L 628 4666 
z
" transform="scale(0.015625)"/>
      </defs>
      <use xlink:href="#DejaVuSans-45"/>
      <use xlink:href="#DejaVuSans-52" transform="translate(63.183594 0)"/>
      <use xlink:href="#DejaVuSans-44" transform="translate(132.666016 0)"/>
      <use xlink:href="#DejaVuSans-2f" transform="translate(209.667969 0)"/>
      <use xlink:href="#DejaVuSans-45" transform="translate(243.359375 0)"/>
      <use xlink:href="#DejaVuSans-52" transform="translate(306.542969 0)"/>
      <use xlink:href="#DejaVuSans-53" transform="translate(376.025391 0)"/>
      <use xlink:href="#DejaVuSans-20" transform="translate(439.501953 0)"/>
      <use xlink:href="#DejaVuSans-28" transform="translate(471.289062 0)"/>
      <use xlink:href="#DejaVuSans-64" transform="translate(510.302734 0)"/>
      <use xlink:href="#DejaVuSans-42" transform="translate(573.779297 0)"/>
      <use xlink:href="#DejaVuSans-29" transform="translate(642.382812 0)"/>
     </g>
    </g>
   </g>
   <g id="line2d_11">
    <path d="M 45.858092 129.419581 
L 48.039015 133.20475 
L 50.219938 134.254418 
L 52.40086 129.524585 
L 54.581783 127.444335 
L 56.762706 131.46465 
L 58.943629 135.185187 
L 61.124552 135.284482 
L 63.305475 133.022028 
L 65.486398 129.524184 
L 67.667321 128.103746 
L 69.848243 130.733307 
L 72.029166 132.464108 
L 74.210089 134.925113 
L 76.391012 136.072575 
L 78.571935 136.960148 
L 80.752858 128.428957 
L 82.933781 107.255521 
L 85.114703 89.830833 
L 87.295626 89.871079 
L 89.476549 104.45482 
L 91.657472 126.225195 
L 93.838395 141.581059 
L 96.019318 140.077095 
L 98.200241 135.239834 
L 100.381163 133.288342 
L 102.562086 135.592815 
L 104.743009 136.283598 
L 106.923932 133.569543 
L 109.104855 131.474416 
L 111.285778 134.983846 
L 113.466701 140.171163 
L 115.647624 141.835751 
L 117.828546 142.453705 
L 120.009469 143.123497 
L 122.190392 144.123588 
L 124.371315 141.499561 
L 126.552238 140.418126 
L 128.733161 140.606311 
L 130.914084 141.922562 
L 133.095006 145.288284 
L 135.275929 148.297126 
L 137.456852 149.37668 
L 139.637775 148.797137 
L 141.818698 148.297595 
L 143.999621 146.602505 
L 146.180544 143.401813 
L 148.361467 142.701871 
L 150.542389 143.812905 
L 152.723312 143.608214 
L 154.904235 142.283166 
L 157.085158 141.892345 
L 159.266081 142.675499 
L 161.447004 141.380259 
L 163.627927 137.274793 
L 165.808849 133.887659 
L 167.989772 133.233151 
L 170.170695 132.578276 
L 172.351618 129.843633 
L 174.532541 129.103486 
L 176.713464 133.093096 
L 178.894387 137.672953 
L 181.075309 139.210597 
L 183.256232 138.297366 
L 185.437155 133.878835 
L 187.618078 130.307401 
L 189.799001 128.885785 
L 191.979924 131.226824 
L 194.160847 134.037122 
L 196.34177 135.430135 
L 198.522692 137.225263 
L 200.703615 138.251357 
L 202.884538 138.806505 
L 205.065461 142.633378 
L 207.246384 145.821391 
L 209.427307 143.65922 
L 211.60823 138.958038 
L 213.789152 137.821864 
L 215.970075 139.736288 
L 218.150998 143.683845 
L 220.331921 144.888885 
L 222.512844 145.369596 
L 224.693767 145.591158 
L 226.87469 143.095166 
L 229.055613 141.337661 
L 231.236535 140.186368 
L 233.417458 140.125273 
L 235.598381 139.214651 
L 237.779304 138.814186 
" clip-path="url(#p85ce75eae5)" style="fill: none; stroke: #1f77b4; stroke-width: 1.3; stroke-linecap: square"/>
   </g>
   <g id="line2d_12">
    <path d="M 45.858092 121.120751 
L 48.039015 120.383046 
L 50.219938 119.011887 
L 52.40086 119.934536 
L 54.581783 119.244424 
L 56.762706 108.204766 
L 58.943629 98.241234 
L 61.124552 100.944681 
L 63.305475 109.639599 
L 65.486398 113.178176 
L 67.667321 114.843738 
L 69.848243 120.111091 
L 72.029166 126.502451 
L 74.210089 130.420249 
L 76.391012 132.572059 
L 78.571935 135.282732 
L 80.752858 139.285749 
L 82.933781 132.925411 
L 85.114703 126.076732 
L 87.295626 124.06916 
L 89.476549 128.629007 
L 91.657472 134.790814 
L 93.838395 131.012797 
L 96.019318 124.60776 
L 98.200241 126.269421 
L 100.381163 132.14888 
L 102.562086 134.86504 
L 104.743009 132.79716 
L 106.923932 132.942667 
L 109.104855 132.686948 
L 111.285778 135.731094 
L 113.466701 143.415502 
L 115.647624 150.988739 
L 117.828546 157.979518 
L 120.009469 160.432565 
L 122.190392 158.458809 
L 124.371315 150.518999 
L 126.552238 142.027312 
L 128.733161 136.873691 
L 130.914084 143.590697 
L 133.095006 153.519324 
L 135.275929 150.825364 
L 137.456852 137.618674 
L 139.637775 126.648243 
L 141.818698 126.670963 
L 143.999621 129.527436 
L 146.180544 129.028017 
L 148.361467 123.822308 
L 150.542389 121.992119 
L 152.723312 131.378731 
L 154.904235 134.666027 
L 157.085158 135.347922 
L 159.266081 136.113322 
L 161.447004 135.677461 
L 163.627927 136.029347 
L 165.808849 138.095643 
L 167.989772 135.352809 
L 170.170695 127.303035 
L 172.351618 122.118648 
L 174.532541 125.315331 
L 176.713464 127.752567 
L 178.894387 126.917544 
L 181.075309 127.81692 
L 183.256232 132.266709 
L 185.437155 136.221714 
L 187.618078 134.925493 
L 189.799001 131.430924 
L 191.979924 134.185592 
L 194.160847 142.410122 
L 196.34177 147.598687 
L 198.522692 152.061861 
L 200.703615 153.377394 
L 202.884538 152.011804 
L 205.065461 150.192623 
L 207.246384 147.774153 
L 209.427307 142.629287 
L 211.60823 142.875431 
L 213.789152 141.198827 
L 215.970075 138.061437 
L 218.150998 137.463866 
L 220.331921 137.970417 
L 222.512844 137.085376 
L 224.693767 138.891109 
L 226.87469 137.973908 
L 229.055613 137.665665 
L 231.236535 138.3086 
L 233.417458 137.722203 
L 235.598381 135.56202 
L 237.779304 131.930867 
" clip-path="url(#p85ce75eae5)" style="fill: none; stroke: #ff7f0e; stroke-width: 1.3; stroke-linecap: square"/>
   </g>
   <g id="patch_5">
    <path d="M 36.262031 182.68 
L 36.262031 59.28 
" style="fill: none; stroke: #000000; stroke-width: 0.8; stroke-linejoin: miter; stroke-linecap: square"/>
   </g>
   <g id="patch_6">
    <path d="M 247.375365 182.68 
L 247.375365 59.28 
" style="fill: none; stroke: #000000; stroke-width: 0.8; stroke-linejoin: miter; stroke-linecap: square"/>
   </g>
   <g id="patch_7">
    <path d="M 36.262031 182.68 
L 247.375365 182.68 
" style="fill: none; stroke: #000000; stroke-width: 0.8; stroke-linejoin: miter; stroke-linecap: square"/>
   </g>
   <g id="patch_8">
    <path d="M 36.262031 59.28 
L 247.375365 59.28 
" style="fill: none; stroke: #000000; stroke-width: 0.8; stroke-linejoin: miter; stroke-linecap: square"/>
   </g>
   <g id="text_12">
    <!-- C3 -->
    <g transform="translate(135.813307 53.28) scale(0.09 -0.09)">
     <defs>
      <path id="DejaVuSans-43" d="M 4122 4306 
L 4122 3641 
Q 3803 3938 3442 4084 
Q 3081 4231 2675 4231 
Q 1875 4231 1450 3742 
Q 1025 3253 1025 2328 
Q 1025 1406 1450 917 
Q 1875 428 2675 428 
Q 3081 428 3442 575 
Q 3803 722 4122 1019 
L 4122 359 
Q 3791 134 3420 21 
Q 3050 -91 2638 -91 
Q 1578 -91 968 557 
Q 359 1206 359 2328 
Q 359 3453 968 4101 
Q 1578 4750 2638 4750 
Q 3056 4750 3426 4639 
Q 3797 4528 4122 4306 
z
" transform="scale(0.015625)"/>
     </defs>
     <use xlink:href="#DejaVuSans-43"/>
     <use xlink:href="#DejaVuSans-33" transform="translate(69.824219 0)"/>
    </g>
   </g>
  </g>
  <g id="axes_2">
   <g id="patch_9">
    <path d="M 272.875365 182.68 
L 483.988698 182.68 
L 483.988698 59.28 
L 272.875365 59.28 
L 272.875365 182.68 
z
" style="fill: none"/>
   </g>
   <g id="patch_10">
    <path d="M 313.004345 182.68 
L 334.813574 182.68 
L 334.813574 59.28 
L 313.004345 59.28 
z
" clip-path="url(#pcece715860)" style="fill: #d9d9d9; stroke: #d9d9d9; stroke-linejoin: miter"/>
   </g>
   <g id="patch_11">
    <path d="M 334.813574 182.68 
L 408.964951 182.68 
L 408.964951 59.28 
L 334.813574 59.28 
z
" clip-path="url(#pcece715860)" style="fill: #ebebeb; stroke: #ebebeb; stroke-linejoin: miter"/>
   </g>
   <g id="FillBetweenPolyCollection_3">
    <defs>
     <path id="m8c3d5cf3cf" d="M 282.471425 -100.870423 
L 282.471425 -85.536994 
L 284.652348 -81.754228 
L 286.833271 -76.759119 
L 289.014194 -72.089237 
L 291.195117 -70.337332 
L 293.37604 -70.826824 
L 295.556962 -71.286204 
L 297.737885 -72.241744 
L 299.918808 -73.342747 
L 302.099731 -72.221046 
L 304.280654 -71.405485 
L 306.461577 -72.693139 
L 308.6425 -74.158473 
L 310.823422 -75.508426 
L 313.004345 -74.385766 
L 315.185268 -70.318171 
L 317.366191 -66.915002 
L 319.547114 -65.431656 
L 321.728037 -65.680648 
L 323.90896 -67.544723 
L 326.089882 -68.084836 
L 328.270805 -64.470528 
L 330.451728 -64.527779 
L 332.632651 -69.893939 
L 334.813574 -74.48103 
L 336.994497 -78.532508 
L 339.17542 -81.189765 
L 341.356343 -80.258797 
L 343.537265 -80.102897 
L 345.718188 -80.42238 
L 347.899111 -80.893406 
L 350.080034 -76.880727 
L 352.260957 -71.672395 
L 354.44188 -68.013995 
L 356.622803 -62.549674 
L 358.803725 -54.768092 
L 360.984648 -50.802472 
L 363.165571 -53.826387 
L 365.346494 -58.576597 
L 367.527417 -61.305868 
L 369.70834 -62.253352 
L 371.889263 -61.768128 
L 374.070186 -62.11367 
L 376.251108 -65.643954 
L 378.432031 -67.919084 
L 380.612954 -70.171778 
L 382.793877 -71.136747 
L 384.9748 -71.300477 
L 387.155723 -72.89912 
L 389.336646 -72.777062 
L 391.517568 -69.795876 
L 393.698491 -66.88577 
L 395.879414 -63.980827 
L 398.060337 -64.737683 
L 400.24126 -67.495661 
L 402.422183 -71.995511 
L 404.603106 -75.64103 
L 406.784028 -73.57594 
L 408.964951 -69.366693 
L 411.145874 -67.782339 
L 413.326797 -69.635274 
L 415.50772 -72.121983 
L 417.688643 -72.950411 
L 419.869566 -70.417588 
L 422.050489 -66.389868 
L 424.231411 -65.874953 
L 426.412334 -67.927679 
L 428.593257 -68.548154 
L 430.77418 -69.083576 
L 432.955103 -72.538655 
L 435.136026 -73.898893 
L 437.316949 -71.974697 
L 439.497871 -68.510835 
L 441.678794 -65.772441 
L 443.859717 -65.373493 
L 446.04064 -64.061717 
L 448.221563 -62.130225 
L 450.402486 -59.40796 
L 452.583409 -58.497737 
L 454.764332 -59.805985 
L 456.945254 -61.164957 
L 459.126177 -59.372223 
L 461.3071 -59.519296 
L 463.488023 -63.695462 
L 465.668946 -66.7613 
L 467.849869 -65.534225 
L 470.030792 -62.748822 
L 472.211714 -61.144564 
L 474.392637 -60.073021 
L 474.392637 -74.65759 
L 474.392637 -74.65759 
L 472.211714 -75.758398 
L 470.030792 -78.100324 
L 467.849869 -80.392704 
L 465.668946 -80.702007 
L 463.488023 -76.753601 
L 461.3071 -73.266788 
L 459.126177 -73.565333 
L 456.945254 -76.291439 
L 454.764332 -75.208361 
L 452.583409 -73.139242 
L 450.402486 -73.705454 
L 448.221563 -76.339579 
L 446.04064 -78.786161 
L 443.859717 -79.913892 
L 441.678794 -79.16998 
L 439.497871 -81.719306 
L 437.316949 -86.133564 
L 435.136026 -88.728133 
L 432.955103 -87.401546 
L 430.77418 -82.906995 
L 428.593257 -82.322284 
L 426.412334 -81.854319 
L 424.231411 -79.504007 
L 422.050489 -80.416798 
L 419.869566 -83.935905 
L 417.688643 -86.622546 
L 415.50772 -86.89551 
L 413.326797 -83.807738 
L 411.145874 -81.099836 
L 408.964951 -82.629279 
L 406.784028 -87.246139 
L 404.603106 -88.840163 
L 402.422183 -84.530603 
L 400.24126 -80.085191 
L 398.060337 -77.505182 
L 395.879414 -76.067217 
L 393.698491 -78.789469 
L 391.517568 -82.698766 
L 389.336646 -86.769704 
L 387.155723 -86.591254 
L 384.9748 -85.269287 
L 382.793877 -84.470306 
L 380.612954 -84.210438 
L 378.432031 -83.28641 
L 376.251108 -79.782011 
L 374.070186 -75.715297 
L 371.889263 -76.435261 
L 369.70834 -78.308668 
L 367.527417 -77.641621 
L 365.346494 -75.350113 
L 363.165571 -70.50124 
L 360.984648 -66.262028 
L 358.803725 -70.377578 
L 356.622803 -77.950396 
L 354.44188 -83.640333 
L 352.260957 -87.048239 
L 350.080034 -91.550099 
L 347.899111 -95.562683 
L 345.718188 -94.371133 
L 343.537265 -93.671836 
L 341.356343 -93.307887 
L 339.17542 -93.862887 
L 336.994497 -91.146242 
L 334.813574 -88.326848 
L 332.632651 -84.1361 
L 330.451728 -78.489028 
L 328.270805 -79.717705 
L 326.089882 -84.291389 
L 323.90896 -82.534787 
L 321.728037 -80.309184 
L 319.547114 -81.290196 
L 317.366191 -83.644423 
L 315.185268 -87.03747 
L 313.004345 -91.211083 
L 310.823422 -91.27932 
L 308.6425 -88.48675 
L 306.461577 -86.376658 
L 304.280654 -84.514448 
L 302.099731 -85.321807 
L 299.918808 -87.404896 
L 297.737885 -86.359841 
L 295.556962 -86.113238 
L 293.37604 -86.208876 
L 291.195117 -85.067292 
L 289.014194 -86.145983 
L 286.833271 -90.019536 
L 284.652348 -95.618636 
L 282.471425 -100.870423 
z
" style="stroke: #1f77b4; stroke-opacity: 0.15"/>
    </defs>
    <g clip-path="url(#pcece715860)">
     <use xlink:href="#m8c3d5cf3cf" x="0" y="215.397188" style="fill: #1f77b4; fill-opacity: 0.15; stroke: #1f77b4; stroke-opacity: 0.15"/>
    </g>
   </g>
   <g id="FillBetweenPolyCollection_4">
    <defs>
     <path id="mea73066567" d="M 282.471425 -128.018806 
L 282.471425 -100.888928 
L 284.652348 -101.40501 
L 286.833271 -100.146791 
L 289.014194 -97.576422 
L 291.195117 -95.61404 
L 293.37604 -89.556439 
L 295.556962 -84.8175 
L 297.737885 -81.711086 
L 299.918808 -85.531122 
L 302.099731 -87.576327 
L 304.280654 -83.734359 
L 306.461577 -77.623802 
L 308.6425 -70.417195 
L 310.823422 -64.614026 
L 313.004345 -64.691121 
L 315.185268 -66.005113 
L 317.366191 -68.082102 
L 319.547114 -71.22314 
L 321.728037 -71.48815 
L 323.90896 -64.680458 
L 326.089882 -62.924481 
L 328.270805 -70.232404 
L 330.451728 -71.7319 
L 332.632651 -71.101848 
L 334.813574 -70.713971 
L 336.994497 -67.352809 
L 339.17542 -68.117615 
L 341.356343 -67.756313 
L 343.537265 -67.354401 
L 345.718188 -70.236957 
L 347.899111 -58.729788 
L 350.080034 -53.094516 
L 352.260957 -53.868368 
L 354.44188 -57.214822 
L 356.622803 -60.819744 
L 358.803725 -57.483653 
L 360.984648 -51.084267 
L 363.165571 -51.955536 
L 365.346494 -64.740156 
L 367.527417 -78.954606 
L 369.70834 -83.844278 
L 371.889263 -76.78866 
L 374.070186 -70.461508 
L 376.251108 -68.181026 
L 378.432031 -69.808038 
L 380.612954 -71.465337 
L 382.793877 -72.083178 
L 384.9748 -74.891071 
L 387.155723 -76.439481 
L 389.336646 -74.485601 
L 391.517568 -75.520024 
L 393.698491 -77.915785 
L 395.879414 -75.935231 
L 398.060337 -66.725999 
L 400.24126 -60.384167 
L 402.422183 -61.639105 
L 404.603106 -62.542132 
L 406.784028 -66.107985 
L 408.964951 -74.721147 
L 411.145874 -79.828552 
L 413.326797 -79.831211 
L 415.50772 -74.381197 
L 417.688643 -68.81592 
L 419.869566 -63.78619 
L 422.050489 -60.290602 
L 424.231411 -60.112742 
L 426.412334 -59.935415 
L 428.593257 -56.980783 
L 430.77418 -52.29398 
L 432.955103 -48.444177 
L 435.136026 -54.499567 
L 437.316949 -61.181164 
L 439.497871 -59.370458 
L 441.678794 -60.407572 
L 443.859717 -62.192134 
L 446.04064 -65.772778 
L 448.221563 -65.601766 
L 450.402486 -60.644285 
L 452.583409 -56.737098 
L 454.764332 -55.958963 
L 456.945254 -57.492647 
L 459.126177 -57.989485 
L 461.3071 -55.266007 
L 463.488023 -54.007099 
L 465.668946 -57.072056 
L 467.849869 -55.737799 
L 470.030792 -50.902779 
L 472.211714 -49.300062 
L 474.392637 -51.071622 
L 474.392637 -85.229147 
L 474.392637 -85.229147 
L 472.211714 -87.994694 
L 470.030792 -89.0356 
L 467.849869 -89.131076 
L 465.668946 -91.273251 
L 463.488023 -83.322609 
L 461.3071 -79.882706 
L 459.126177 -82.720353 
L 456.945254 -84.821796 
L 454.764332 -85.670519 
L 452.583409 -88.0826 
L 450.402486 -94.730934 
L 448.221563 -99.517866 
L 446.04064 -96.13142 
L 443.859717 -88.200416 
L 441.678794 -89.439269 
L 439.497871 -88.926181 
L 437.316949 -89.388134 
L 435.136026 -84.905983 
L 432.955103 -83.667179 
L 430.77418 -85.671154 
L 428.593257 -85.703106 
L 426.412334 -90.742117 
L 424.231411 -93.274091 
L 422.050489 -93.225532 
L 419.869566 -96.734795 
L 417.688643 -100.223161 
L 415.50772 -101.79622 
L 413.326797 -110.054967 
L 411.145874 -107.343503 
L 408.964951 -101.745565 
L 406.784028 -93.547087 
L 404.603106 -90.557722 
L 402.422183 -92.275601 
L 400.24126 -92.258801 
L 398.060337 -95.465678 
L 395.879414 -99.555233 
L 393.698491 -102.526628 
L 391.517568 -98.850837 
L 389.336646 -98.877512 
L 387.155723 -100.750937 
L 384.9748 -101.892392 
L 382.793877 -101.213793 
L 380.612954 -100.839185 
L 378.432031 -99.322703 
L 376.251108 -93.818838 
L 374.070186 -92.874262 
L 371.889263 -100.229411 
L 369.70834 -109.525112 
L 367.527417 -109.585693 
L 365.346494 -97.122788 
L 363.165571 -82.820179 
L 360.984648 -82.346578 
L 358.803725 -88.384174 
L 356.622803 -91.860048 
L 354.44188 -90.322054 
L 352.260957 -85.632711 
L 350.080034 -84.782012 
L 347.899111 -93.346405 
L 345.718188 -101.68856 
L 343.537265 -95.708843 
L 341.356343 -92.02001 
L 339.17542 -92.864958 
L 336.994497 -94.382388 
L 334.813574 -94.097414 
L 332.632651 -94.90395 
L 330.451728 -97.217258 
L 328.270805 -94.69921 
L 326.089882 -90.991583 
L 323.90896 -92.400449 
L 321.728037 -93.260621 
L 319.547114 -96.946146 
L 317.366191 -100.985715 
L 315.185268 -104.066871 
L 313.004345 -100.689331 
L 310.823422 -97.809241 
L 308.6425 -100.830507 
L 306.461577 -110.237878 
L 304.280654 -114.635484 
L 302.099731 -114.288427 
L 299.918808 -109.241392 
L 297.737885 -108.096359 
L 295.556962 -108.622515 
L 293.37604 -112.714099 
L 291.195117 -120.693974 
L 289.014194 -126.738022 
L 286.833271 -125.554876 
L 284.652348 -126.400794 
L 282.471425 -128.018806 
z
" style="stroke: #ff7f0e; stroke-opacity: 0.15"/>
    </defs>
    <g clip-path="url(#pcece715860)">
     <use xlink:href="#mea73066567" x="0" y="215.397188" style="fill: #ff7f0e; fill-opacity: 0.15; stroke: #ff7f0e; stroke-opacity: 0.15"/>
    </g>
   </g>
   <g id="line2d_13">
    <path d="M 272.875365 126.463043 
L 483.988698 126.463043 
" clip-path="url(#pcece715860)" style="fill: none; stroke-dasharray: 2.96,1.28; stroke-dashoffset: 0; stroke: #000000; stroke-width: 0.8"/>
   </g>
   <g id="matplotlib.axis_3">
    <g id="xtick_6">
     <g id="line2d_14">
      <g>
       <use xlink:href="#m5f5375f0b7" x="278.109579" y="182.68" style="stroke: #000000; stroke-width: 0.8"/>
      </g>
     </g>
     <g id="text_13">
      <!-- 0 -->
      <g transform="translate(275.882704 194.998906) scale(0.07 -0.07)">
       <use xlink:href="#DejaVuSans-30"/>
      </g>
     </g>
    </g>
    <g id="xtick_7">
     <g id="line2d_15">
      <g>
       <use xlink:href="#m5f5375f0b7" x="321.728037" y="182.68" style="stroke: #000000; stroke-width: 0.8"/>
      </g>
     </g>
     <g id="text_14">
      <!-- 10 -->
      <g transform="translate(317.274287 194.998906) scale(0.07 -0.07)">
       <use xlink:href="#DejaVuSans-31"/>
       <use xlink:href="#DejaVuSans-30" transform="translate(63.623047 0)"/>
      </g>
     </g>
    </g>
    <g id="xtick_8">
     <g id="line2d_16">
      <g>
       <use xlink:href="#m5f5375f0b7" x="365.346494" y="182.68" style="stroke: #000000; stroke-width: 0.8"/>
      </g>
     </g>
     <g id="text_15">
      <!-- 20 -->
      <g transform="translate(360.892744 194.998906) scale(0.07 -0.07)">
       <use xlink:href="#DejaVuSans-32"/>
       <use xlink:href="#DejaVuSans-30" transform="translate(63.623047 0)"/>
      </g>
     </g>
    </g>
    <g id="xtick_9">
     <g id="line2d_17">
      <g>
       <use xlink:href="#m5f5375f0b7" x="408.964951" y="182.68" style="stroke: #000000; stroke-width: 0.8"/>
      </g>
     </g>
     <g id="text_16">
      <!-- 30 -->
      <g transform="translate(404.511201 194.998906) scale(0.07 -0.07)">
       <use xlink:href="#DejaVuSans-33"/>
       <use xlink:href="#DejaVuSans-30" transform="translate(63.623047 0)"/>
      </g>
     </g>
    </g>
    <g id="xtick_10">
     <g id="line2d_18">
      <g>
       <use xlink:href="#m5f5375f0b7" x="452.583409" y="182.68" style="stroke: #000000; stroke-width: 0.8"/>
      </g>
     </g>
     <g id="text_17">
      <!-- 40 -->
      <g transform="translate(448.129659 194.998906) scale(0.07 -0.07)">
       <use xlink:href="#DejaVuSans-34"/>
       <use xlink:href="#DejaVuSans-30" transform="translate(63.623047 0)"/>
      </g>
     </g>
    </g>
    <g id="text_18">
     <!-- Frequency (Hz) -->
     <g transform="translate(348.268281 206.533437) scale(0.08 -0.08)">
      <use xlink:href="#DejaVuSans-46"/>
      <use xlink:href="#DejaVuSans-72" transform="translate(50.269531 0)"/>
      <use xlink:href="#DejaVuSans-65" transform="translate(89.132812 0)"/>
      <use xlink:href="#DejaVuSans-71" transform="translate(150.65625 0)"/>
      <use xlink:href="#DejaVuSans-75" transform="translate(214.132812 0)"/>
      <use xlink:href="#DejaVuSans-65" transform="translate(277.511719 0)"/>
      <use xlink:href="#DejaVuSans-6e" transform="translate(339.035156 0)"/>
      <use xlink:href="#DejaVuSans-63" transform="translate(402.414062 0)"/>
      <use xlink:href="#DejaVuSans-79" transform="translate(457.394531 0)"/>
      <use xlink:href="#DejaVuSans-20" transform="translate(516.574219 0)"/>
      <use xlink:href="#DejaVuSans-28" transform="translate(548.361328 0)"/>
      <use xlink:href="#DejaVuSans-48" transform="translate(587.375 0)"/>
      <use xlink:href="#DejaVuSans-7a" transform="translate(662.570312 0)"/>
      <use xlink:href="#DejaVuSans-29" transform="translate(715.060547 0)"/>
     </g>
    </g>
   </g>
   <g id="matplotlib.axis_4">
    <g id="ytick_5">
     <g id="line2d_19">
      <g>
       <use xlink:href="#m32bc970138" x="272.875365" y="156.241173" style="stroke: #000000; stroke-width: 0.8"/>
      </g>
     </g>
    </g>
    <g id="ytick_6">
     <g id="line2d_20">
      <g>
       <use xlink:href="#m32bc970138" x="272.875365" y="126.463043" style="stroke: #000000; stroke-width: 0.8"/>
      </g>
     </g>
    </g>
    <g id="ytick_7">
     <g id="line2d_21">
      <g>
       <use xlink:href="#m32bc970138" x="272.875365" y="96.684913" style="stroke: #000000; stroke-width: 0.8"/>
      </g>
     </g>
    </g>
    <g id="ytick_8">
     <g id="line2d_22">
      <g>
       <use xlink:href="#m32bc970138" x="272.875365" y="66.906783" style="stroke: #000000; stroke-width: 0.8"/>
      </g>
     </g>
    </g>
    <g id="text_19">
     <!-- ERD/ERS (dB) -->
     <g transform="translate(263.711615 148.236875) rotate(-90) scale(0.08 -0.08)">
      <use xlink:href="#DejaVuSans-45"/>
      <use xlink:href="#DejaVuSans-52" transform="translate(63.183594 0)"/>
      <use xlink:href="#DejaVuSans-44" transform="translate(132.666016 0)"/>
      <use xlink:href="#DejaVuSans-2f" transform="translate(209.667969 0)"/>
      <use xlink:href="#DejaVuSans-45" transform="translate(243.359375 0)"/>
      <use xlink:href="#DejaVuSans-52" transform="translate(306.542969 0)"/>
      <use xlink:href="#DejaVuSans-53" transform="translate(376.025391 0)"/>
      <use xlink:href="#DejaVuSans-20" transform="translate(439.501953 0)"/>
      <use xlink:href="#DejaVuSans-28" transform="translate(471.289062 0)"/>
      <use xlink:href="#DejaVuSans-64" transform="translate(510.302734 0)"/>
      <use xlink:href="#DejaVuSans-42" transform="translate(573.779297 0)"/>
      <use xlink:href="#DejaVuSans-29" transform="translate(642.382812 0)"/>
     </g>
    </g>
   </g>
   <g id="line2d_23">
    <path d="M 282.471425 122.193479 
L 284.652348 126.710756 
L 286.833271 132.00786 
L 289.014194 136.279577 
L 291.195117 137.694875 
L 293.37604 136.879338 
L 295.556962 136.697466 
L 297.737885 136.096395 
L 299.918808 135.023366 
L 302.099731 136.625761 
L 304.280654 137.437221 
L 306.461577 135.862289 
L 308.6425 134.074576 
L 310.823422 132.003315 
L 313.004345 132.598763 
L 315.185268 136.719367 
L 317.366191 140.117475 
L 319.547114 142.036261 
L 321.728037 142.402272 
L 323.90896 140.357432 
L 326.089882 139.209075 
L 328.270805 143.303071 
L 330.451728 143.888784 
L 332.632651 138.382168 
L 334.813574 133.993249 
L 336.994497 130.557813 
L 339.17542 127.870862 
L 341.356343 128.613845 
L 343.537265 128.509821 
L 345.718188 128.000431 
L 347.899111 127.169143 
L 350.080034 131.181775 
L 352.260957 136.036871 
L 354.44188 139.570024 
L 356.622803 145.147152 
L 358.803725 152.824353 
L 360.984648 156.864937 
L 363.165571 153.233374 
L 365.346494 148.433832 
L 367.527417 145.923443 
L 369.70834 145.116177 
L 371.889263 146.295493 
L 374.070186 146.482704 
L 376.251108 142.684205 
L 378.432031 139.79444 
L 380.612954 138.206079 
L 382.793877 137.593661 
L 384.9748 137.112306 
L 387.155723 135.652001 
L 389.336646 135.623804 
L 391.517568 139.149866 
L 393.698491 142.559568 
L 395.879414 145.373165 
L 398.060337 144.275755 
L 400.24126 141.606761 
L 402.422183 137.13413 
L 404.603106 133.156591 
L 406.784028 134.986148 
L 408.964951 139.399201 
L 411.145874 140.9561 
L 413.326797 138.675682 
L 415.50772 135.888441 
L 417.688643 135.610709 
L 419.869566 138.220441 
L 422.050489 141.993854 
L 424.231411 142.707707 
L 426.412334 140.506189 
L 428.593257 139.961968 
L 430.77418 139.401902 
L 432.955103 135.427087 
L 435.136026 134.083675 
L 437.316949 136.343057 
L 439.497871 140.282117 
L 441.678794 142.925977 
L 443.859717 142.753495 
L 446.04064 143.973248 
L 448.221563 146.162286 
L 450.402486 148.84048 
L 452.583409 149.578698 
L 454.764332 147.890014 
L 456.945254 146.66899 
L 459.126177 148.92841 
L 461.3071 149.004145 
L 463.488023 145.172656 
L 465.668946 141.665534 
L 467.849869 142.433723 
L 470.030792 144.972614 
L 472.211714 146.945706 
L 474.392637 148.031882 
" clip-path="url(#pcece715860)" style="fill: none; stroke: #1f77b4; stroke-width: 1.3; stroke-linecap: square"/>
   </g>
   <g id="line2d_24">
    <path d="M 282.471425 100.94332 
L 284.652348 101.494286 
L 286.833271 102.546354 
L 289.014194 103.239965 
L 291.195117 107.24318 
L 293.37604 114.261919 
L 295.556962 118.67718 
L 297.737885 120.493465 
L 299.918808 118.010931 
L 302.099731 114.46481 
L 304.280654 116.212266 
L 306.461577 121.466348 
L 308.6425 129.773336 
L 310.823422 134.185554 
L 313.004345 132.706962 
L 315.185268 130.361195 
L 317.366191 130.863279 
L 319.547114 131.312545 
L 321.728037 133.022802 
L 323.90896 136.856734 
L 326.089882 138.439155 
L 328.270805 132.93138 
L 330.451728 130.922609 
L 332.632651 132.394289 
L 334.813574 132.991495 
L 336.994497 134.529589 
L 339.17542 134.905901 
L 341.356343 135.509026 
L 343.537265 133.865566 
L 345.718188 129.434429 
L 347.899111 139.359091 
L 350.080034 146.458924 
L 352.260957 145.646648 
L 354.44188 141.628749 
L 356.622803 139.057292 
L 358.803725 142.463274 
L 360.984648 148.681765 
L 363.165571 148.00933 
L 365.346494 134.465716 
L 367.527417 121.127038 
L 369.70834 118.712492 
L 371.889263 126.888152 
L 374.070186 133.729302 
L 376.251108 134.397256 
L 378.432031 130.831817 
L 380.612954 129.244926 
L 382.793877 128.748702 
L 384.9748 127.005456 
L 387.155723 126.801978 
L 389.336646 128.715631 
L 391.517568 128.211757 
L 393.698491 125.175981 
L 395.879414 127.651955 
L 398.060337 134.301349 
L 400.24126 139.075703 
L 402.422183 138.439835 
L 404.603106 138.847261 
L 406.784028 135.569651 
L 408.964951 127.163831 
L 411.145874 121.81116 
L 413.326797 120.454098 
L 415.50772 127.308479 
L 417.688643 130.877647 
L 419.869566 135.136695 
L 422.050489 138.63912 
L 424.231411 138.703771 
L 426.412334 140.058422 
L 428.593257 144.055243 
L 430.77418 146.41462 
L 432.955103 149.34151 
L 435.136026 145.694412 
L 437.316949 140.112538 
L 439.497871 141.248868 
L 441.678794 140.473767 
L 443.859717 140.200913 
L 446.04064 134.445088 
L 448.221563 132.837372 
L 450.402486 137.709578 
L 452.583409 142.987338 
L 454.764332 144.582447 
L 456.945254 144.239966 
L 459.126177 145.042269 
L 461.3071 147.822831 
L 463.488023 146.732333 
L 465.668946 141.224534 
L 467.849869 142.96275 
L 470.030792 145.427998 
L 472.211714 146.749809 
L 474.392637 147.246803 
" clip-path="url(#pcece715860)" style="fill: none; stroke: #ff7f0e; stroke-width: 1.3; stroke-linecap: square"/>
   </g>
   <g id="patch_12">
    <path d="M 272.875365 182.68 
L 272.875365 59.28 
" style="fill: none; stroke: #000000; stroke-width: 0.8; stroke-linejoin: miter; stroke-linecap: square"/>
   </g>
   <g id="patch_13">
    <path d="M 483.988698 182.68 
L 483.988698 59.28 
" style="fill: none; stroke: #000000; stroke-width: 0.8; stroke-linejoin: miter; stroke-linecap: square"/>
   </g>
   <g id="patch_14">
    <path d="M 272.875365 182.68 
L 483.988698 182.68 
" style="fill: none; stroke: #000000; stroke-width: 0.8; stroke-linejoin: miter; stroke-linecap: square"/>
   </g>
   <g id="patch_15">
    <path d="M 272.875365 59.28 
L 483.988698 59.28 
" style="fill: none; stroke: #000000; stroke-width: 0.8; stroke-linejoin: miter; stroke-linecap: square"/>
   </g>
   <g id="text_20">
    <!-- Cz -->
    <g transform="translate(372.927969 53.28) scale(0.09 -0.09)">
     <use xlink:href="#DejaVuSans-43"/>
     <use xlink:href="#DejaVuSans-7a" transform="translate(69.824219 0)"/>
    </g>
   </g>
  </g>
  <g id="axes_3">
   <g id="patch_16">
    <path d="M 509.488698 182.68 
L 720.602031 182.68 
L 720.602031 59.28 
L 509.488698 59.28 
L 509.488698 182.68 
z
" style="fill: none"/>
   </g>
   <g id="patch_17">
    <path d="M 549.617679 182.68 
L 571.426907 182.68 
L 571.426907 59.28 
L 549.617679 59.28 
z
" clip-path="url(#pb1939b04b4)" style="fill: #d9d9d9; stroke: #d9d9d9; stroke-linejoin: miter"/>
   </g>
   <g id="patch_18">
    <path d="M 571.426907 182.68 
L 645.578285 182.68 
L 645.578285 59.28 
L 571.426907 59.28 
z
" clip-path="url(#pb1939b04b4)" style="fill: #ebebeb; stroke: #ebebeb; stroke-linejoin: miter"/>
   </g>
   <g id="FillBetweenPolyCollection_5">
    <defs>
     <path id="mb7231e0842" d="M 519.084759 -96.335591 
L 519.084759 -81.173411 
L 521.265681 -76.473045 
L 523.446604 -71.759423 
L 525.627527 -71.026442 
L 527.80845 -72.539147 
L 529.989373 -73.181994 
L 532.170296 -73.890489 
L 534.351219 -74.475096 
L 536.532141 -76.302363 
L 538.713064 -76.885868 
L 540.893987 -75.601559 
L 543.07491 -73.74663 
L 545.255833 -73.929606 
L 547.436756 -74.704465 
L 549.617679 -75.011724 
L 551.798601 -74.744502 
L 553.979524 -82.639199 
L 556.160447 -105.727851 
L 558.34137 -127.885216 
L 560.522293 -134.68218 
L 562.703216 -121.857436 
L 564.884139 -93.973478 
L 567.065062 -71.050933 
L 569.245984 -69.508746 
L 571.426907 -73.000799 
L 573.60783 -75.772999 
L 575.788753 -80.191362 
L 577.969676 -84.557594 
L 580.150599 -88.524704 
L 582.331522 -89.630762 
L 584.512444 -85.182347 
L 586.693367 -79.049179 
L 588.87429 -74.812518 
L 591.055213 -70.579599 
L 593.236136 -65.167198 
L 595.417059 -63.304877 
L 597.597982 -65.305665 
L 599.778905 -73.281261 
L 601.959827 -79.261732 
L 604.14075 -79.294354 
L 606.321673 -76.248946 
L 608.502596 -72.473918 
L 610.683519 -66.889995 
L 612.864442 -65.963398 
L 615.045365 -68.496406 
L 617.226287 -69.347949 
L 619.40721 -68.157273 
L 621.588133 -67.621065 
L 623.769056 -69.818603 
L 625.949979 -70.637026 
L 628.130902 -68.380893 
L 630.311825 -66.291824 
L 632.492748 -68.340926 
L 634.67367 -69.936301 
L 636.854593 -69.237317 
L 639.035516 -68.61319 
L 641.216439 -69.221137 
L 643.397362 -73.385237 
L 645.578285 -79.552215 
L 647.759208 -80.56775 
L 649.94013 -78.888785 
L 652.121053 -75.973578 
L 654.301976 -72.92885 
L 656.482899 -70.479106 
L 658.663822 -70.79288 
L 660.844745 -73.954013 
L 663.025668 -78.100676 
L 665.20659 -79.179883 
L 667.387513 -77.9383 
L 669.568436 -77.657503 
L 671.749359 -76.552791 
L 673.930282 -73.092309 
L 676.111205 -69.710262 
L 678.292128 -70.216417 
L 680.473051 -73.317 
L 682.653973 -72.990899 
L 684.834896 -70.445224 
L 687.015819 -68.729897 
L 689.196742 -69.283446 
L 691.377665 -69.557993 
L 693.558588 -68.243213 
L 695.739511 -66.330236 
L 697.920433 -67.167264 
L 700.101356 -70.495052 
L 702.282279 -73.528334 
L 704.463202 -72.857204 
L 706.644125 -70.087089 
L 708.825048 -66.212674 
L 711.005971 -63.844441 
L 711.005971 -79.160038 
L 711.005971 -79.160038 
L 708.825048 -80.745324 
L 706.644125 -84.496873 
L 704.463202 -87.150462 
L 702.282279 -87.814209 
L 700.101356 -84.856008 
L 697.920433 -81.446557 
L 695.739511 -81.494586 
L 693.558588 -83.691862 
L 691.377665 -83.501008 
L 689.196742 -83.079652 
L 687.015819 -83.627146 
L 684.834896 -84.979033 
L 682.653973 -87.433937 
L 680.473051 -87.158632 
L 678.292128 -84.248585 
L 676.111205 -84.570336 
L 673.930282 -87.095637 
L 671.749359 -89.993516 
L 669.568436 -91.333181 
L 667.387513 -90.988797 
L 665.20659 -92.025323 
L 663.025668 -91.21152 
L 660.844745 -86.159054 
L 658.663822 -82.509287 
L 656.482899 -82.423643 
L 654.301976 -86.103537 
L 652.121053 -89.776862 
L 649.94013 -93.242933 
L 647.759208 -94.629988 
L 645.578285 -93.595585 
L 643.397362 -87.396903 
L 641.216439 -83.022183 
L 639.035516 -81.770137 
L 636.854593 -82.193791 
L 634.67367 -83.883876 
L 632.492748 -82.911374 
L 630.311825 -81.450804 
L 628.130902 -84.028497 
L 625.949979 -87.220414 
L 623.769056 -85.337243 
L 621.588133 -82.198767 
L 619.40721 -83.155216 
L 617.226287 -84.151961 
L 615.045365 -83.375395 
L 612.864442 -80.982286 
L 610.683519 -82.548934 
L 608.502596 -88.767871 
L 606.321673 -92.016947 
L 604.14075 -94.593243 
L 601.959827 -94.356345 
L 599.778905 -88.309713 
L 597.597982 -79.844661 
L 595.417059 -77.699261 
L 593.236136 -78.993213 
L 591.055213 -84.413231 
L 588.87429 -88.831744 
L 586.693367 -92.120416 
L 584.512444 -97.927514 
L 582.331522 -103.228386 
L 580.150599 -101.477743 
L 577.969676 -97.788498 
L 575.788753 -93.933066 
L 573.60783 -89.383332 
L 571.426907 -86.444039 
L 569.245984 -83.823463 
L 567.065062 -85.887499 
L 564.884139 -108.785593 
L 562.703216 -137.396092 
L 560.522293 -150.508097 
L 558.34137 -143.952345 
L 556.160447 -121.62211 
L 553.979524 -98.814141 
L 551.798601 -91.414854 
L 549.617679 -90.792269 
L 547.436756 -89.028732 
L 545.255833 -87.92603 
L 543.07491 -87.093496 
L 540.893987 -88.657564 
L 538.713064 -90.351598 
L 536.532141 -89.358948 
L 534.351219 -87.793236 
L 532.170296 -88.125328 
L 529.989373 -86.626779 
L 527.80845 -85.270406 
L 525.627527 -84.29821 
L 523.446604 -85.505613 
L 521.265681 -91.095628 
L 519.084759 -96.335591 
z
" style="stroke: #1f77b4; stroke-opacity: 0.15"/>
    </defs>
    <g clip-path="url(#pb1939b04b4)">
     <use xlink:href="#mb7231e0842" x="0" y="215.397188" style="fill: #1f77b4; fill-opacity: 0.15; stroke: #1f77b4; stroke-opacity: 0.15"/>
    </g>
   </g>
   <g id="FillBetweenPolyCollection_6">
    <defs>
     <path id="m3aac3f38b0" d="M 519.084759 -121.078158 
L 519.084759 -89.183987 
L 521.265681 -89.474982 
L 523.446604 -93.208231 
L 525.627527 -89.798025 
L 527.80845 -78.583343 
L 529.989373 -72.063092 
L 532.170296 -73.059764 
L 534.351219 -74.4611 
L 536.532141 -76.256537 
L 538.713064 -79.314649 
L 540.893987 -80.664258 
L 543.07491 -83.400833 
L 545.255833 -80.086509 
L 547.436756 -71.388969 
L 549.617679 -66.602566 
L 551.798601 -71.982346 
L 553.979524 -82.29689 
L 556.160447 -90.807984 
L 558.34137 -91.754904 
L 560.522293 -89.76598 
L 562.703216 -79.59568 
L 564.884139 -66.016728 
L 567.065062 -63.767581 
L 569.245984 -68.171013 
L 571.426907 -70.172405 
L 573.60783 -72.729216 
L 575.788753 -79.315437 
L 577.969676 -76.989628 
L 580.150599 -67.938034 
L 582.331522 -60.471441 
L 584.512444 -59.468085 
L 586.693367 -62.679169 
L 588.87429 -63.036786 
L 591.055213 -57.369216 
L 593.236136 -57.511479 
L 595.417059 -56.355899 
L 597.597982 -54.829271 
L 599.778905 -57.992924 
L 601.959827 -64.026938 
L 604.14075 -72.988116 
L 606.321673 -77.25787 
L 608.502596 -74.846284 
L 610.683519 -70.036264 
L 612.864442 -65.077371 
L 615.045365 -61.970921 
L 617.226287 -59.464562 
L 619.40721 -58.861086 
L 621.588133 -63.672765 
L 623.769056 -70.280258 
L 625.949979 -70.249753 
L 628.130902 -69.482356 
L 630.311825 -70.183288 
L 632.492748 -70.521828 
L 634.67367 -68.177334 
L 636.854593 -64.550048 
L 639.035516 -62.103996 
L 641.216439 -63.207279 
L 643.397362 -66.980847 
L 645.578285 -68.693895 
L 647.759208 -66.675114 
L 649.94013 -64.955291 
L 652.121053 -64.921875 
L 654.301976 -65.222689 
L 656.482899 -71.142425 
L 658.663822 -76.866662 
L 660.844745 -78.358734 
L 663.025668 -73.851891 
L 665.20659 -67.897288 
L 667.387513 -64.059001 
L 669.568436 -62.430949 
L 671.749359 -62.156046 
L 673.930282 -61.781225 
L 676.111205 -59.236476 
L 678.292128 -59.232516 
L 680.473051 -62.49616 
L 682.653973 -69.52796 
L 684.834896 -67.940845 
L 687.015819 -61.62553 
L 689.196742 -56.129376 
L 691.377665 -59.322443 
L 693.558588 -66.585544 
L 695.739511 -63.715885 
L 697.920433 -56.276137 
L 700.101356 -49.854851 
L 702.282279 -54.2948 
L 704.463202 -61.399774 
L 706.644125 -64.263445 
L 708.825048 -58.181704 
L 711.005971 -51.677151 
L 711.005971 -81.891824 
L 711.005971 -81.891824 
L 708.825048 -88.223181 
L 706.644125 -92.339507 
L 704.463202 -90.723913 
L 702.282279 -84.877419 
L 700.101356 -79.372291 
L 697.920433 -86.186031 
L 695.739511 -93.173541 
L 693.558588 -98.439739 
L 691.377665 -90.620522 
L 689.196742 -86.085635 
L 687.015819 -93.358288 
L 684.834896 -101.796649 
L 682.653973 -101.30227 
L 680.473051 -90.751476 
L 678.292128 -87.762828 
L 676.111205 -87.284756 
L 673.930282 -86.89004 
L 671.749359 -86.185804 
L 669.568436 -88.705183 
L 667.387513 -91.456641 
L 665.20659 -93.277714 
L 663.025668 -100.094568 
L 660.844745 -107.181778 
L 658.663822 -107.062198 
L 656.482899 -98.095678 
L 654.301976 -94.638102 
L 652.121053 -100.108194 
L 649.94013 -98.997711 
L 647.759208 -95.77611 
L 645.578285 -97.730544 
L 643.397362 -97.123956 
L 641.216439 -94.552786 
L 639.035516 -95.287311 
L 636.854593 -93.145101 
L 634.67367 -95.84244 
L 632.492748 -101.99405 
L 630.311825 -105.948179 
L 628.130902 -102.106681 
L 625.949979 -102.176979 
L 623.769056 -101.999216 
L 621.588133 -96.296638 
L 619.40721 -90.692539 
L 617.226287 -89.290656 
L 615.045365 -94.696398 
L 612.864442 -99.830747 
L 610.683519 -103.146569 
L 608.502596 -105.438154 
L 606.321673 -106.523565 
L 604.14075 -106.518138 
L 601.959827 -103.143381 
L 599.778905 -93.788076 
L 597.597982 -86.699856 
L 595.417059 -87.653137 
L 593.236136 -87.768675 
L 591.055213 -87.736382 
L 588.87429 -90.36723 
L 586.693367 -90.049104 
L 584.512444 -88.603523 
L 582.331522 -90.087936 
L 580.150599 -96.891559 
L 577.969676 -105.441059 
L 575.788753 -108.153311 
L 573.60783 -102.998834 
L 571.426907 -102.0601 
L 569.245984 -104.344821 
L 567.065062 -95.705422 
L 564.884139 -96.925673 
L 562.703216 -113.264125 
L 560.522293 -121.528039 
L 558.34137 -120.789413 
L 556.160447 -118.603479 
L 553.979524 -113.744058 
L 551.798601 -105.489194 
L 549.617679 -98.214338 
L 547.436756 -100.355097 
L 545.255833 -106.531647 
L 543.07491 -108.446441 
L 540.893987 -105.40792 
L 538.713064 -106.221578 
L 536.532141 -104.152081 
L 534.351219 -100.814602 
L 532.170296 -100.921798 
L 529.989373 -99.400048 
L 527.80845 -107.79739 
L 525.627527 -118.861475 
L 523.446604 -121.202372 
L 521.265681 -119.141567 
L 519.084759 -121.078158 
z
" style="stroke: #ff7f0e; stroke-opacity: 0.15"/>
    </defs>
    <g clip-path="url(#pb1939b04b4)">
     <use xlink:href="#m3aac3f38b0" x="0" y="215.397188" style="fill: #ff7f0e; fill-opacity: 0.15; stroke: #ff7f0e; stroke-opacity: 0.15"/>
    </g>
   </g>
   <g id="line2d_25">
    <path d="M 509.488698 126.463043 
L 720.602031 126.463043 
" clip-path="url(#pb1939b04b4)" style="fill: none; stroke-dasharray: 2.96,1.28; stroke-dashoffset: 0; stroke: #000000; stroke-width: 0.8"/>
   </g>
   <g id="matplotlib.axis_5">
    <g id="xtick_11">
     <g id="line2d_26">
      <g>
       <use xlink:href="#m5f5375f0b7" x="514.722913" y="182.68" style="stroke: #000000; stroke-width: 0.8"/>
      </g>
     </g>
     <g id="text_21">
      <!-- 0 -->
      <g transform="translate(512.496038 194.998906) scale(0.07 -0.07)">
       <use xlink:href="#DejaVuSans-30"/>
      </g>
     </g>
    </g>
    <g id="xtick_12">
     <g id="line2d_27">
      <g>
       <use xlink:href="#m5f5375f0b7" x="558.34137" y="182.68" style="stroke: #000000; stroke-width: 0.8"/>
      </g>
     </g>
     <g id="text_22">
      <!-- 10 -->
      <g transform="translate(553.88762 194.998906) scale(0.07 -0.07)">
       <use xlink:href="#DejaVuSans-31"/>
       <use xlink:href="#DejaVuSans-30" transform="translate(63.623047 0)"/>
      </g>
     </g>
    </g>
    <g id="xtick_13">
     <g id="line2d_28">
      <g>
       <use xlink:href="#m5f5375f0b7" x="601.959827" y="182.68" style="stroke: #000000; stroke-width: 0.8"/>
      </g>
     </g>
     <g id="text_23">
      <!-- 20 -->
      <g transform="translate(597.506077 194.998906) scale(0.07 -0.07)">
       <use xlink:href="#DejaVuSans-32"/>
       <use xlink:href="#DejaVuSans-30" transform="translate(63.623047 0)"/>
      </g>
     </g>
    </g>
    <g id="xtick_14">
     <g id="line2d_29">
      <g>
       <use xlink:href="#m5f5375f0b7" x="645.578285" y="182.68" style="stroke: #000000; stroke-width: 0.8"/>
      </g>
     </g>
     <g id="text_24">
      <!-- 30 -->
      <g transform="translate(641.124535 194.998906) scale(0.07 -0.07)">
       <use xlink:href="#DejaVuSans-33"/>
       <use xlink:href="#DejaVuSans-30" transform="translate(63.623047 0)"/>
      </g>
     </g>
    </g>
    <g id="xtick_15">
     <g id="line2d_30">
      <g>
       <use xlink:href="#m5f5375f0b7" x="689.196742" y="182.68" style="stroke: #000000; stroke-width: 0.8"/>
      </g>
     </g>
     <g id="text_25">
      <!-- 40 -->
      <g transform="translate(684.742992 194.998906) scale(0.07 -0.07)">
       <use xlink:href="#DejaVuSans-34"/>
       <use xlink:href="#DejaVuSans-30" transform="translate(63.623047 0)"/>
      </g>
     </g>
    </g>
    <g id="text_26">
     <!-- Frequency (Hz) -->
     <g transform="translate(584.881615 206.533437) scale(0.08 -0.08)">
      <use xlink:href="#DejaVuSans-46"/>
      <use xlink:href="#DejaVuSans-72" transform="translate(50.269531 0)"/>
      <use xlink:href="#DejaVuSans-65" transform="translate(89.132812 0)"/>
      <use xlink:href="#DejaVuSans-71" transform="translate(150.65625 0)"/>
      <use xlink:href="#DejaVuSans-75" transform="translate(214.132812 0)"/>
      <use xlink:href="#DejaVuSans-65" transform="translate(277.511719 0)"/>
      <use xlink:href="#DejaVuSans-6e" transform="translate(339.035156 0)"/>
      <use xlink:href="#DejaVuSans-63" transform="translate(402.414062 0)"/>
      <use xlink:href="#DejaVuSans-79" transform="translate(457.394531 0)"/>
      <use xlink:href="#DejaVuSans-20" transform="translate(516.574219 0)"/>
      <use xlink:href="#DejaVuSans-28" transform="translate(548.361328 0)"/>
      <use xlink:href="#DejaVuSans-48" transform="translate(587.375 0)"/>
      <use xlink:href="#DejaVuSans-7a" transform="translate(662.570312 0)"/>
      <use xlink:href="#DejaVuSans-29" transform="translate(715.060547 0)"/>
     </g>
    </g>
   </g>
   <g id="matplotlib.axis_6">
    <g id="ytick_9">
     <g id="line2d_31">
      <g>
       <use xlink:href="#m32bc970138" x="509.488698" y="156.241173" style="stroke: #000000; stroke-width: 0.8"/>
      </g>
     </g>
    </g>
    <g id="ytick_10">
     <g id="line2d_32">
      <g>
       <use xlink:href="#m32bc970138" x="509.488698" y="126.463043" style="stroke: #000000; stroke-width: 0.8"/>
      </g>
     </g>
    </g>
    <g id="ytick_11">
     <g id="line2d_33">
      <g>
       <use xlink:href="#m32bc970138" x="509.488698" y="96.684913" style="stroke: #000000; stroke-width: 0.8"/>
      </g>
     </g>
    </g>
    <g id="ytick_12">
     <g id="line2d_34">
      <g>
       <use xlink:href="#m32bc970138" x="509.488698" y="66.906783" style="stroke: #000000; stroke-width: 0.8"/>
      </g>
     </g>
    </g>
    <g id="text_27">
     <!-- ERD/ERS (dB) -->
     <g transform="translate(500.324948 148.236875) rotate(-90) scale(0.08 -0.08)">
      <use xlink:href="#DejaVuSans-45"/>
      <use xlink:href="#DejaVuSans-52" transform="translate(63.183594 0)"/>
      <use xlink:href="#DejaVuSans-44" transform="translate(132.666016 0)"/>
      <use xlink:href="#DejaVuSans-2f" transform="translate(209.667969 0)"/>
      <use xlink:href="#DejaVuSans-45" transform="translate(243.359375 0)"/>
      <use xlink:href="#DejaVuSans-52" transform="translate(306.542969 0)"/>
      <use xlink:href="#DejaVuSans-53" transform="translate(376.025391 0)"/>
      <use xlink:href="#DejaVuSans-20" transform="translate(439.501953 0)"/>
      <use xlink:href="#DejaVuSans-28" transform="translate(471.289062 0)"/>
      <use xlink:href="#DejaVuSans-64" transform="translate(510.302734 0)"/>
      <use xlink:href="#DejaVuSans-42" transform="translate(573.779297 0)"/>
      <use xlink:href="#DejaVuSans-29" transform="translate(642.382812 0)"/>
     </g>
    </g>
   </g>
   <g id="line2d_35">
    <path d="M 519.084759 126.642687 
L 521.265681 131.612851 
L 523.446604 136.76467 
L 525.627527 137.734862 
L 527.80845 136.492411 
L 529.989373 135.492801 
L 532.170296 134.389279 
L 534.351219 134.263022 
L 536.532141 132.566532 
L 538.713064 131.778455 
L 540.893987 133.267626 
L 543.07491 134.977124 
L 545.255833 134.469369 
L 547.436756 133.530589 
L 549.617679 132.495191 
L 551.798601 132.317509 
L 553.979524 124.670518 
L 556.160447 101.722207 
L 558.34137 79.478407 
L 560.522293 72.802049 
L 562.703216 85.770423 
L 564.884139 114.017652 
L 567.065062 136.927971 
L 569.245984 138.731083 
L 571.426907 135.674768 
L 573.60783 132.819022 
L 575.788753 128.334973 
L 577.969676 124.224142 
L 580.150599 120.395964 
L 582.331522 118.967614 
L 584.512444 123.842257 
L 586.693367 129.81239 
L 588.87429 133.575057 
L 591.055213 137.900773 
L 593.236136 143.316982 
L 595.417059 144.895119 
L 597.597982 142.822024 
L 599.778905 134.6017 
L 601.959827 128.588149 
L 604.14075 128.453389 
L 606.321673 131.264241 
L 608.502596 134.776293 
L 610.683519 140.677723 
L 612.864442 141.924346 
L 615.045365 139.461287 
L 617.226287 138.647232 
L 619.40721 139.740943 
L 621.588133 140.487272 
L 623.769056 137.819264 
L 625.949979 136.468467 
L 628.130902 139.192493 
L 630.311825 141.525873 
L 632.492748 139.771038 
L 634.67367 138.487099 
L 636.854593 139.681634 
L 639.035516 140.205524 
L 641.216439 139.275528 
L 643.397362 135.006118 
L 645.578285 128.823287 
L 647.759208 127.798318 
L 649.94013 129.331328 
L 652.121053 132.521968 
L 654.301976 135.880994 
L 656.482899 138.945813 
L 658.663822 138.746104 
L 660.844745 135.340654 
L 663.025668 130.74109 
L 665.20659 129.794584 
L 667.387513 130.933639 
L 669.568436 130.901846 
L 671.749359 132.124034 
L 673.930282 135.303214 
L 676.111205 138.256889 
L 678.292128 138.164686 
L 680.473051 135.159372 
L 682.653973 135.184769 
L 684.834896 137.685059 
L 687.015819 139.218666 
L 689.196742 139.215638 
L 691.377665 138.867687 
L 693.558588 139.42965 
L 695.739511 141.484777 
L 697.920433 141.090277 
L 700.101356 137.721658 
L 702.282279 134.725916 
L 704.463202 135.393354 
L 706.644125 138.105206 
L 708.825048 141.918189 
L 711.005971 143.894948 
" clip-path="url(#pb1939b04b4)" style="fill: none; stroke: #1f77b4; stroke-width: 1.3; stroke-linecap: square"/>
   </g>
   <g id="line2d_36">
    <path d="M 519.084759 110.266115 
L 521.265681 111.088913 
L 523.446604 108.191886 
L 525.627527 111.067437 
L 527.80845 122.206821 
L 529.989373 129.665618 
L 532.170296 128.406406 
L 534.351219 127.759337 
L 536.532141 125.192879 
L 538.713064 122.629074 
L 540.893987 122.361099 
L 543.07491 119.47355 
L 545.255833 122.088109 
L 547.436756 129.525154 
L 549.617679 132.988736 
L 551.798601 126.661417 
L 553.979524 117.376713 
L 556.160447 110.691456 
L 558.34137 109.125029 
L 560.522293 109.750178 
L 562.703216 118.967285 
L 564.884139 133.925987 
L 567.065062 135.660686 
L 569.245984 129.13927 
L 571.426907 129.280935 
L 573.60783 127.533163 
L 575.788753 121.662814 
L 577.969676 124.181844 
L 580.150599 132.982391 
L 582.331522 140.117499 
L 584.512444 141.361383 
L 586.693367 139.033051 
L 588.87429 138.695179 
L 591.055213 142.844389 
L 593.236136 142.757111 
L 595.417059 143.392669 
L 597.597982 144.632624 
L 599.778905 139.506688 
L 601.959827 131.812028 
L 604.14075 125.644061 
L 606.321673 123.50647 
L 608.502596 125.254969 
L 610.683519 128.805771 
L 612.864442 132.943129 
L 615.045365 137.063528 
L 617.226287 141.019578 
L 619.40721 140.620375 
L 621.588133 135.412486 
L 623.769056 129.257451 
L 625.949979 129.183821 
L 628.130902 129.602669 
L 630.311825 127.331454 
L 632.492748 129.139248 
L 634.67367 133.387301 
L 636.854593 136.549613 
L 639.035516 136.701534 
L 641.216439 136.517155 
L 643.397362 133.344786 
L 645.578285 132.184968 
L 647.759208 134.171576 
L 649.94013 133.420686 
L 652.121053 132.882153 
L 654.301976 135.466792 
L 656.482899 130.778136 
L 658.663822 123.432758 
L 660.844745 122.626932 
L 663.025668 128.423958 
L 665.20659 134.809687 
L 667.387513 137.639367 
L 669.568436 139.829121 
L 671.749359 141.226263 
L 673.930282 141.061555 
L 676.111205 142.136572 
L 678.292128 141.899515 
L 680.473051 138.77337 
L 682.653973 129.982073 
L 684.834896 130.52844 
L 687.015819 137.905279 
L 689.196742 144.289682 
L 691.377665 140.425705 
L 693.558588 132.884546 
L 695.739511 136.952475 
L 697.920433 144.166103 
L 700.101356 150.783617 
L 702.282279 145.811078 
L 704.463202 139.335344 
L 706.644125 137.095711 
L 708.825048 142.194745 
L 711.005971 148.6127 
" clip-path="url(#pb1939b04b4)" style="fill: none; stroke: #ff7f0e; stroke-width: 1.3; stroke-linecap: square"/>
   </g>
   <g id="patch_19">
    <path d="M 509.488698 182.68 
L 509.488698 59.28 
" style="fill: none; stroke: #000000; stroke-width: 0.8; stroke-linejoin: miter; stroke-linecap: square"/>
   </g>
   <g id="patch_20">
    <path d="M 720.602031 182.68 
L 720.602031 59.28 
" style="fill: none; stroke: #000000; stroke-width: 0.8; stroke-linejoin: miter; stroke-linecap: square"/>
   </g>
   <g id="patch_21">
    <path d="M 509.488698 182.68 
L 720.602031 182.68 
" style="fill: none; stroke: #000000; stroke-width: 0.8; stroke-linejoin: miter; stroke-linecap: square"/>
   </g>
   <g id="patch_22">
    <path d="M 509.488698 59.28 
L 720.602031 59.28 
" style="fill: none; stroke: #000000; stroke-width: 0.8; stroke-linejoin: miter; stroke-linecap: square"/>
   </g>
   <g id="text_28">
    <!-- C4 -->
    <g transform="translate(609.039974 53.28) scale(0.09 -0.09)">
     <use xlink:href="#DejaVuSans-43"/>
     <use xlink:href="#DejaVuSans-34" transform="translate(69.824219 0)"/>
    </g>
   </g>
  </g>
  <g id="text_29">
   <!-- ERD/ERS — ME — S08 (Movement vs Rest) -->
   <g transform="translate(246.556172 15.558281) scale(0.11 -0.11)">
    <defs>
     <path id="DejaVuSans-2014" d="M 313 1978 
L 6088 1978 
L 6088 1528 
L 313 1528 
L 313 1978 
z
" transform="scale(0.015625)"/>
     <path id="DejaVuSans-4d" d="M 628 4666 
L 1569 4666 
L 2759 1491 
L 3956 4666 
L 4897 4666 
L 4897 0 
L 4281 0 
L 4281 4097 
L 3078 897 
L 2444 897 
L 1241 4097 
L 1241 0 
L 628 0 
L 628 4666 
z
" transform="scale(0.015625)"/>
     <path id="DejaVuSans-38" d="M 2034 2216 
Q 1584 2216 1326 1975 
Q 1069 1734 1069 1313 
Q 1069 891 1326 650 
Q 1584 409 2034 409 
Q 2484 409 2743 651 
Q 3003 894 3003 1313 
Q 3003 1734 2745 1975 
Q 2488 2216 2034 2216 
z
M 1403 2484 
Q 997 2584 770 2862 
Q 544 3141 544 3541 
Q 544 4100 942 4425 
Q 1341 4750 2034 4750 
Q 2731 4750 3128 4425 
Q 3525 4100 3525 3541 
Q 3525 3141 3298 2862 
Q 3072 2584 2669 2484 
Q 3125 2378 3379 2068 
Q 3634 1759 3634 1313 
Q 3634 634 3220 271 
Q 2806 -91 2034 -91 
Q 1263 -91 848 271 
Q 434 634 434 1313 
Q 434 1759 690 2068 
Q 947 2378 1403 2484 
z
M 1172 3481 
Q 1172 3119 1398 2916 
Q 1625 2713 2034 2713 
Q 2441 2713 2670 2916 
Q 2900 3119 2900 3481 
Q 2900 3844 2670 4047 
Q 2441 4250 2034 4250 
Q 1625 4250 1398 4047 
Q 1172 3844 1172 3481 
z
" transform="scale(0.015625)"/>
     <path id="DejaVuSans-6f" d="M 1959 3097 
Q 1497 3097 1228 2736 
Q 959 2375 959 1747 
Q 959 1119 1226 758 
Q 1494 397 1959 397 
Q 2419 397 2687 759 
Q 2956 1122 2956 1747 
Q 2956 2369 2687 2733 
Q 2419 3097 1959 3097 
z
M 1959 3584 
Q 2709 3584 3137 3096 
Q 3566 2609 3566 1747 
Q 3566 888 3137 398 
Q 2709 -91 1959 -91 
Q 1206 -91 779 398 
Q 353 888 353 1747 
Q 353 2609 779 3096 
Q 1206 3584 1959 3584 
z
" transform="scale(0.015625)"/>
     <path id="DejaVuSans-76" d="M 191 3500 
L 800 3500 
L 1894 563 
L 2988 3500 
L 3597 3500 
L 2284 0 
L 1503 0 
L 191 3500 
z
" transform="scale(0.015625)"/>
     <path id="DejaVuSans-6d" d="M 3328 2828 
Q 3544 3216 3844 3400 
Q 4144 3584 4550 3584 
Q 5097 3584 5394 3201 
Q 5691 2819 5691 2113 
L 5691 0 
L 5113 0 
L 5113 2094 
Q 5113 2597 4934 2840 
Q 4756 3084 4391 3084 
Q 3944 3084 3684 2787 
Q 3425 2491 3425 1978 
L 3425 0 
L 2847 0 
L 2847 2094 
Q 2847 2600 2669 2842 
Q 2491 3084 2119 3084 
Q 1678 3084 1418 2786 
Q 1159 2488 1159 1978 
L 1159 0 
L 581 0 
L 581 3500 
L 1159 3500 
L 1159 2956 
Q 1356 3278 1631 3431 
Q 1906 3584 2284 3584 
Q 2666 3584 2933 3390 
Q 3200 3197 3328 2828 
z
" transform="scale(0.015625)"/>
     <path id="DejaVuSans-74" d="M 1172 4494 
L 1172 3500 
L 2356 3500 
L 2356 3053 
L 1172 3053 
L 1172 1153 
Q 1172 725 1289 603 
Q 1406 481 1766 481 
L 2356 481 
L 2356 0 
L 1766 0 
Q 1100 0 847 248 
Q 594 497 594 1153 
L 594 3053 
L 172 3053 
L 172 3500 
L 594 3500 
L 594 4494 
L 1172 4494 
z
" transform="scale(0.015625)"/>
     <path id="DejaVuSans-73" d="M 2834 3397 
L 2834 2853 
Q 2591 2978 2328 3040 
Q 2066 3103 1784 3103 
Q 1356 3103 1142 2972 
Q 928 2841 928 2578 
Q 928 2378 1081 2264 
Q 1234 2150 1697 2047 
L 1894 2003 
Q 2506 1872 2764 1633 
Q 3022 1394 3022 966 
Q 3022 478 2636 193 
Q 2250 -91 1575 -91 
Q 1294 -91 989 -36 
Q 684 19 347 128 
L 347 722 
Q 666 556 975 473 
Q 1284 391 1588 391 
Q 1994 391 2212 530 
Q 2431 669 2431 922 
Q 2431 1156 2273 1281 
Q 2116 1406 1581 1522 
L 1381 1569 
Q 847 1681 609 1914 
Q 372 2147 372 2553 
Q 372 3047 722 3315 
Q 1072 3584 1716 3584 
Q 2034 3584 2315 3537 
Q 2597 3491 2834 3397 
z
" transform="scale(0.015625)"/>
    </defs>
    <use xlink:href="#DejaVuSans-45"/>
    <use xlink:href="#DejaVuSans-52" transform="translate(63.183594 0)"/>
    <use xlink:href="#DejaVuSans-44" transform="translate(132.666016 0)"/>
    <use xlink:href="#DejaVuSans-2f" transform="translate(209.667969 0)"/>
    <use xlink:href="#DejaVuSans-45" transform="translate(243.359375 0)"/>
    <use xlink:href="#DejaVuSans-52" transform="translate(306.542969 0)"/>
    <use xlink:href="#DejaVuSans-53" transform="translate(376.025391 0)"/>
    <use xlink:href="#DejaVuSans-20" transform="translate(439.501953 0)"/>
    <use xlink:href="#DejaVuSans-2014" transform="translate(471.289062 0)"/>
    <use xlink:href="#DejaVuSans-20" transform="translate(571.289062 0)"/>
    <use xlink:href="#DejaVuSans-4d" transform="translate(603.076172 0)"/>
    <use xlink:href="#DejaVuSans-45" transform="translate(689.355469 0)"/>
    <use xlink:href="#DejaVuSans-20" transform="translate(752.539062 0)"/>
    <use xlink:href="#DejaVuSans-2014" transform="translate(784.326172 0)"/>
    <use xlink:href="#DejaVuSans-20" transform="translate(884.326172 0)"/>
    <use xlink:href="#DejaVuSans-53" transform="translate(916.113281 0)"/>
    <use xlink:href="#DejaVuSans-30" transform="translate(979.589844 0)"/>
    <use xlink:href="#DejaVuSans-38" transform="translate(1043.212891 0)"/>
    <use xlink:href="#DejaVuSans-20" transform="translate(1106.835938 0)"/>
    <use xlink:href="#DejaVuSans-28" transform="translate(1138.623047 0)"/>
    <use xlink:href="#DejaVuSans-4d" transform="translate(1177.636719 0)"/>
    <use xlink:href="#DejaVuSans-6f" transform="translate(1263.916016 0)"/>
    <use xlink:href="#DejaVuSans-76" transform="translate(1325.097656 0)"/>
    <use xlink:href="#DejaVuSans-65" transform="translate(1384.277344 0)"/>
    <use xlink:href="#DejaVuSans-6d" transform="translate(1445.800781 0)"/>
    <use xlink:href="#DejaVuSans-65" transform="translate(1543.212891 0)"/>
    <use xlink:href="#DejaVuSans-6e" transform="translate(1604.736328 0)"/>
    <use xlink:href="#DejaVuSans-74" transform="translate(1668.115234 0)"/>
    <use xlink:href="#DejaVuSans-20" transform="translate(1707.324219 0)"/>
    <use xlink:href="#DejaVuSans-76" transform="translate(1739.111328 0)"/>
    <use xlink:href="#DejaVuSans-73" transform="translate(1798.291016 0)"/>
    <use xlink:href="#DejaVuSans-20" transform="translate(1850.390625 0)"/>
    <use xlink:href="#DejaVuSans-52" transform="translate(1882.177734 0)"/>
    <use xlink:href="#DejaVuSans-65" transform="translate(1947.160156 0)"/>
    <use xlink:href="#DejaVuSans-73" transform="translate(2008.683594 0)"/>
    <use xlink:href="#DejaVuSans-74" transform="translate(2060.783203 0)"/>
    <use xlink:href="#DejaVuSans-29" transform="translate(2099.992188 0)"/>
   </g>
  </g>
  <g id="legend_1">
   <g id="patch_23">
    <path d="M 663.350812 30.109375 
L 722.830031 30.109375 
Q 724.230031 30.109375 724.230031 28.709375 
L 724.230031 8.86 
Q 724.230031 7.46 722.830031 7.46 
L 663.350812 7.46 
Q 661.950812 7.46 661.950812 8.86 
L 661.950812 28.709375 
Q 661.950812 30.109375 663.350812 30.109375 
z
" style="fill: #ffffff; opacity: 0.8; stroke: #cccccc; stroke-linejoin: miter"/>
   </g>
   <g id="line2d_37">
    <path d="M 664.750812 13.128906 
L 671.750812 13.128906 
L 678.750812 13.128906 
" style="fill: none; stroke: #1f77b4; stroke-width: 1.3; stroke-linecap: square"/>
   </g>
   <g id="text_30">
    <!-- Movement -->
    <g transform="translate(684.350812 15.578906) scale(0.07 -0.07)">
     <use xlink:href="#DejaVuSans-4d"/>
     <use xlink:href="#DejaVuSans-6f" transform="translate(86.279297 0)"/>
     <use xlink:href="#DejaVuSans-76" transform="translate(147.460938 0)"/>
     <use xlink:href="#DejaVuSans-65" transform="translate(206.640625 0)"/>
     <use xlink:href="#DejaVuSans-6d" transform="translate(268.164062 0)"/>
     <use xlink:href="#DejaVuSans-65" transform="translate(365.576172 0)"/>
     <use xlink:href="#DejaVuSans-6e" transform="translate(427.099609 0)"/>
     <use xlink:href="#DejaVuSans-74" transform="translate(490.478516 0)"/>
    </g>
   </g>
   <g id="line2d_38">
    <path d="M 664.750812 23.403594 
L 671.750812 23.403594 
L 678.750812 23.403594 
" style="fill: none; stroke: #ff7f0e; stroke-width: 1.3; stroke-linecap: square"/>
   </g>
   <g id="text_31">
    <!-- rest -->
    <g transform="translate(684.350812 25.853594) scale(0.07 -0.07)">
     <use xlink:href="#DejaVuSans-72"/>
     <use xlink:href="#DejaVuSans-65" transform="translate(38.863281 0)"/>
     <use xlink:href="#DejaVuSans-73" transform="translate(100.386719 0)"/>
     <use xlink:href="#DejaVuSans-74" transform="translate(152.486328 0)"/>
    </g>
   </g>
  </g>
 </g>
 <defs>
  <clipPath id="p85ce75eae5">
   <rect x="36.262031" y="59.28" width="211.113333" height="123.4"/>
  </clipPath>
  <clipPath id="pcece715860">
   <rect x="272.875365" y="59.28" width="211.113333" height="123.4"/>
  </clipPath>
  <clipPath id="pb1939b04b4">
   <rect x="509.488698" y="59.28" width="211.113333" height="123.4"/>
  </clipPath>
 </defs>
</svg>
