<?xml version="1.0" encoding="utf-8" standalone="no"?>
<!DOCTYPE svg PUBLIC "-//W3C//DTD SVG 1.1//EN"
  "http://www.w3.org/Graphics/SVG/1.1/DTD/svg11.dtd">
<svg xmlns:xlink="http://www.w3.org/1999/xlink" width="724.860031pt" height="215.397188pt" viewBox="0 0 724.860031 215.397188" xmlns="http://www.w3.org/2000/svg" version="1.1">
 <metadata>
  <rdf:RDF xmlns:dc="http://purl.org/dc/elements/1.1/" xmlns:cc="http://creativecommons.org/ns#" xmlns:rdf="http://www.w3.org/1999/02/22-rdf-syntax-ns#">
   <cc:Work>
    <dc:type rdf:resource="http://purl.org/dc/dcmitype/StillImage"/>
    <dc:date>2026-06-26T22:26:26.760881</dc:date>
    <dc:format>image/svg+xml</dc:format>
    <dc:creator>
     <cc:Agent>
      <dc:title>Matplotlib v3.10.9, https://matplotlib.org/</dc:title>
     </cc:Agent>
    </dc:creator>
   </cc:Work>
  </rdf:RDF>
 </metadata>
 <defs>
  <style type="text/css">*{stroke-linejoin: round; stroke-linecap: butt}</style>
 </defs>
 <g id="figure_1">
  <g id="patch_1">
   <path d="M 0 215.397188 
L 724.860031 215.397188 
L 724.860031 0 
L 0 0 
L 0 215.397188 
z
" style="fill: none"/>
  </g>
  <g id="axes_1">
   <g id="patch_2">
    <path d="M 36.262031 182.68 
L 245.185365 182.68 
L 245.185365 59.28 
L 36.262031 59.28 
L 36.262031 182.68 
z
" style="fill: none"/>
   </g>
   <g id="patch_3">
    <path d="M 75.974731 182.68 
L 97.55772 182.68 
L 97.55772 59.28 
L 75.974731 59.28 
z
" clip-path="url(#pb1f0030746)" style="fill: #d9d9d9; stroke: #d9d9d9; stroke-linejoin: miter"/>
   </g>
   <g id="patch_4">
    <path d="M 97.55772 182.68 
L 170.939882 182.68 
L 170.939882 59.28 
L 97.55772 59.28 
z
" clip-path="url(#pb1f0030746)" style="fill: #ebebeb; stroke: #ebebeb; stroke-linejoin: miter"/>
   </g>
   <g id="FillBetweenPolyCollection_1">
    <defs>
     <path id="m3ee851639e" d="M 45.758546 -103.576763 
L 45.758546 -73.886865 
L 47.916845 -76.960605 
L 50.075144 -80.380323 
L 52.233443 -76.037232 
L 54.391742 -70.877841 
L 56.550041 -74.424764 
L 58.70834 -79.053823 
L 60.866639 -75.873119 
L 63.024938 -71.351363 
L 65.183236 -68.93599 
L 67.341535 -68.291228 
L 69.499834 -69.17625 
L 71.658133 -71.537517 
L 73.816432 -73.857018 
L 75.974731 -72.872784 
L 78.13303 -70.957298 
L 80.291329 -64.569864 
L 82.449628 -57.15916 
L 84.607927 -45.723122 
L 86.766225 -38.704874 
L 88.924524 -43.710702 
L 91.082823 -54.927495 
L 93.241122 -49.384032 
L 95.399421 -42.11808 
L 97.55772 -38.326278 
L 99.716019 -40.623109 
L 101.874318 -47.601444 
L 104.032617 -56.674177 
L 106.190916 -63.432982 
L 108.349214 -66.657782 
L 110.507513 -68.752328 
L 112.665812 -68.999737 
L 114.824111 -67.756176 
L 116.98241 -65.665104 
L 119.140709 -63.590187 
L 121.299008 -59.902908 
L 123.457307 -55.908894 
L 125.615606 -54.657031 
L 127.773905 -52.094502 
L 129.932203 -47.741609 
L 132.090502 -45.879867 
L 134.248801 -46.753201 
L 136.4071 -44.885696 
L 138.565399 -41.902706 
L 140.723698 -43.785233 
L 142.881997 -46.863707 
L 145.040296 -46.473203 
L 147.198595 -44.457154 
L 149.356894 -43.995418 
L 151.515192 -44.519629 
L 153.673491 -49.824778 
L 155.83179 -56.428388 
L 157.990089 -62.873364 
L 160.148388 -68.872718 
L 162.306687 -71.463283 
L 164.464986 -71.306675 
L 166.623285 -71.085689 
L 168.781584 -71.885048 
L 170.939882 -68.827007 
L 173.098181 -66.225981 
L 175.25648 -65.048816 
L 177.414779 -63.23236 
L 179.573078 -61.654524 
L 181.731377 -61.469214 
L 183.889676 -63.138889 
L 186.047975 -63.709492 
L 188.206274 -59.983378 
L 190.364573 -61.194251 
L 192.522871 -64.131946 
L 194.68117 -62.476122 
L 196.839469 -61.770638 
L 198.997768 -63.854369 
L 201.156067 -63.41564 
L 203.314366 -63.968381 
L 205.472665 -64.988505 
L 207.630964 -64.526419 
L 209.789263 -63.353896 
L 211.947562 -60.588686 
L 214.10586 -56.311469 
L 216.264159 -54.703364 
L 218.422458 -54.741726 
L 220.580757 -54.793569 
L 222.739056 -53.960072 
L 224.897355 -54.812262 
L 227.055654 -58.985437 
L 229.213953 -59.833735 
L 231.372252 -58.584702 
L 233.530551 -57.944359 
L 235.688849 -56.414419 
L 235.688849 -103.816529 
L 235.688849 -103.816529 
L 233.530551 -104.973979 
L 231.372252 -107.49509 
L 229.213953 -108.147232 
L 227.055654 -106.995961 
L 224.897355 -106.055522 
L 222.739056 -105.802396 
L 220.580757 -105.865715 
L 218.422458 -106.857725 
L 216.264159 -106.947602 
L 214.10586 -106.03231 
L 211.947562 -105.838035 
L 209.789263 -105.886267 
L 207.630964 -102.767006 
L 205.472665 -97.862392 
L 203.314366 -98.017594 
L 201.156067 -101.859752 
L 198.997768 -104.250633 
L 196.839469 -105.047541 
L 194.68117 -104.751404 
L 192.522871 -102.468246 
L 190.364573 -100.804766 
L 188.206274 -96.689841 
L 186.047975 -96.494204 
L 183.889676 -98.94885 
L 181.731377 -100.03852 
L 179.573078 -98.713756 
L 177.414779 -101.533095 
L 175.25648 -102.563133 
L 173.098181 -101.339062 
L 170.939882 -100.777671 
L 168.781584 -99.968536 
L 166.623285 -102.255065 
L 164.464986 -104.809272 
L 162.306687 -101.925128 
L 160.148388 -96.466978 
L 157.990089 -94.337098 
L 155.83179 -94.797003 
L 153.673491 -94.27523 
L 151.515192 -96.915582 
L 149.356894 -99.785343 
L 147.198595 -100.121907 
L 145.040296 -99.708305 
L 142.881997 -102.233051 
L 140.723698 -101.456511 
L 138.565399 -99.1221 
L 136.4071 -94.245614 
L 134.248801 -90.704836 
L 132.090502 -92.76602 
L 129.932203 -95.527539 
L 127.773905 -94.946222 
L 125.615606 -95.068192 
L 123.457307 -95.511648 
L 121.299008 -95.783579 
L 119.140709 -95.661647 
L 116.98241 -97.706815 
L 114.824111 -100.304669 
L 112.665812 -99.122083 
L 110.507513 -95.934397 
L 108.349214 -95.559997 
L 106.190916 -95.79401 
L 104.032617 -95.522536 
L 101.874318 -98.472751 
L 99.716019 -99.717707 
L 97.55772 -100.12573 
L 95.399421 -96.818187 
L 93.241122 -95.836623 
L 91.082823 -102.540768 
L 88.924524 -125.478009 
L 86.766225 -137.432972 
L 84.607927 -132.143986 
L 82.449628 -114.163945 
L 80.291329 -97.206879 
L 78.13303 -87.366761 
L 75.974731 -88.397515 
L 73.816432 -92.23956 
L 71.658133 -92.417473 
L 69.499834 -89.322332 
L 67.341535 -88.590066 
L 65.183236 -89.133331 
L 63.024938 -93.317072 
L 60.866639 -97.916071 
L 58.70834 -99.157145 
L 56.550041 -102.296539 
L 54.391742 -107.365184 
L 52.233443 -104.926945 
L 50.075144 -100.228608 
L 47.916845 -101.263307 
L 45.758546 -103.576763 
z
" style="stroke: #1f77b4; stroke-opacity: 0.15"/>
    </defs>
    <g clip-path="url(#pb1f0030746)">
     <use xlink:href="#m3ee851639e" x="0" y="215.397188" style="fill: #1f77b4; fill-opacity: 0.15; stroke: #1f77b4; stroke-opacity: 0.15"/>
    </g>
   </g>
   <g id="FillBetweenPolyCollection_2">
    <defs>
     <path id="mb86b4f1b4e" d="M 45.758546 -109.017761 
L 45.758546 -57.128531 
L 47.916845 -64.155382 
L 50.075144 -68.71754 
L 52.233443 -68.132667 
L 54.391742 -74.611833 
L 56.550041 -76.354511 
L 58.70834 -66.551137 
L 60.866639 -60.775247 
L 63.024938 -62.652114 
L 65.183236 -71.800765 
L 67.341535 -76.833929 
L 69.499834 -79.438683 
L 71.658133 -81.785406 
L 73.816432 -76.257819 
L 75.974731 -65.328141 
L 78.13303 -58.875805 
L 80.291329 -60.993798 
L 82.449628 -67.874204 
L 84.607927 -77.366174 
L 86.766225 -73.249527 
L 88.924524 -66.189397 
L 91.082823 -67.920459 
L 93.241122 -74.138378 
L 95.399421 -84.675363 
L 97.55772 -83.497252 
L 99.716019 -75.410479 
L 101.874318 -70.27649 
L 104.032617 -70.531182 
L 106.190916 -76.399635 
L 108.349214 -81.064084 
L 110.507513 -92.105706 
L 112.665812 -95.330277 
L 114.824111 -81.371633 
L 116.98241 -73.849076 
L 119.140709 -73.672035 
L 121.299008 -68.906366 
L 123.457307 -64.327988 
L 125.615606 -68.099306 
L 127.773905 -66.652908 
L 129.932203 -67.790724 
L 132.090502 -66.749913 
L 134.248801 -65.424904 
L 136.4071 -62.583385 
L 138.565399 -67.693358 
L 140.723698 -81.723949 
L 142.881997 -85.335097 
L 145.040296 -81.120292 
L 147.198595 -79.178183 
L 149.356894 -71.988428 
L 151.515192 -66.052714 
L 153.673491 -70.374109 
L 155.83179 -81.249264 
L 157.990089 -91.076963 
L 160.148388 -94.042868 
L 162.306687 -88.776325 
L 164.464986 -80.807112 
L 166.623285 -80.804147 
L 168.781584 -82.890505 
L 170.939882 -85.213455 
L 173.098181 -84.477116 
L 175.25648 -78.211962 
L 177.414779 -73.497076 
L 179.573078 -73.163692 
L 181.731377 -79.166924 
L 183.889676 -84.095732 
L 186.047975 -77.049812 
L 188.206274 -68.642344 
L 190.364573 -67.7444 
L 192.522871 -75.404745 
L 194.68117 -78.370156 
L 196.839469 -80.693712 
L 198.997768 -83.110582 
L 201.156067 -79.856695 
L 203.314366 -69.996927 
L 205.472665 -64.896332 
L 207.630964 -64.530926 
L 209.789263 -65.14369 
L 211.947562 -66.664951 
L 214.10586 -71.932287 
L 216.264159 -70.434491 
L 218.422458 -66.640992 
L 220.580757 -54.427767 
L 222.739056 -44.290326 
L 224.897355 -41.275213 
L 227.055654 -45.574751 
L 229.213953 -52.66685 
L 231.372252 -55.08272 
L 233.530551 -55.500401 
L 235.688849 -55.328271 
L 235.688849 -126.03489 
L 235.688849 -126.03489 
L 233.530551 -124.723114 
L 231.372252 -114.399903 
L 229.213953 -105.164375 
L 227.055654 -102.051794 
L 224.897355 -101.179318 
L 222.739056 -102.640426 
L 220.580757 -104.157733 
L 218.422458 -102.962794 
L 216.264159 -102.644959 
L 214.10586 -103.061624 
L 211.947562 -106.126225 
L 209.789263 -104.425026 
L 207.630964 -105.194576 
L 205.472665 -111.728909 
L 203.314366 -117.469161 
L 201.156067 -116.382629 
L 198.997768 -112.780224 
L 196.839469 -111.826037 
L 194.68117 -113.913208 
L 192.522871 -111.585051 
L 190.364573 -107.522285 
L 188.206274 -106.159438 
L 186.047975 -108.343802 
L 183.889676 -108.741058 
L 181.731377 -113.431191 
L 179.573078 -112.00265 
L 177.414779 -108.497422 
L 175.25648 -112.17911 
L 173.098181 -123.526302 
L 170.939882 -123.873919 
L 168.781584 -116.345364 
L 166.623285 -113.141107 
L 164.464986 -118.370663 
L 162.306687 -124.421298 
L 160.148388 -123.44549 
L 157.990089 -121.834624 
L 155.83179 -114.36809 
L 153.673491 -110.386664 
L 151.515192 -116.969664 
L 149.356894 -121.587183 
L 147.198595 -122.077053 
L 145.040296 -120.354503 
L 142.881997 -110.436778 
L 140.723698 -103.398057 
L 138.565399 -100.296429 
L 136.4071 -103.049647 
L 134.248801 -109.787952 
L 132.090502 -107.987061 
L 129.932203 -105.175693 
L 127.773905 -109.125608 
L 125.615606 -108.395576 
L 123.457307 -110.951069 
L 121.299008 -111.559865 
L 119.140709 -110.494157 
L 116.98241 -111.722937 
L 114.824111 -116.234908 
L 112.665812 -117.235212 
L 110.507513 -122.254616 
L 108.349214 -117.918116 
L 106.190916 -114.618873 
L 104.032617 -112.659197 
L 101.874318 -113.602748 
L 99.716019 -112.771782 
L 97.55772 -108.908681 
L 95.399421 -100.584456 
L 93.241122 -101.146388 
L 91.082823 -111.888525 
L 88.924524 -122.891035 
L 86.766225 -116.185282 
L 84.607927 -108.857711 
L 82.449628 -121.30371 
L 80.291329 -135.206795 
L 78.13303 -137.453521 
L 75.974731 -129.215649 
L 73.816432 -120.768112 
L 71.658133 -116.725047 
L 69.499834 -114.842933 
L 67.341535 -111.53996 
L 65.183236 -100.130939 
L 63.024938 -97.223616 
L 60.866639 -97.698478 
L 58.70834 -95.994667 
L 56.550041 -97.536235 
L 54.391742 -101.82923 
L 52.233443 -99.943375 
L 50.075144 -97.936346 
L 47.916845 -104.188463 
L 45.758546 -109.017761 
z
" style="stroke: #ff7f0e; stroke-opacity: 0.15"/>
    </defs>
    <g clip-path="url(#pb1f0030746)">
     <use xlink:href="#mb86b4f1b4e" x="0" y="215.397188" style="fill: #ff7f0e; fill-opacity: 0.15; stroke: #ff7f0e; stroke-opacity: 0.15"/>
    </g>
   </g>
   <g id="line2d_1">
    <path d="M 36.262031 116.43016 
L 245.185365 116.43016 
" clip-path="url(#pb1f0030746)" style="fill: none; stroke-dasharray: 2.96,1.28; stroke-dashoffset: 0; stroke: #000000; stroke-width: 0.8"/>
   </g>
   <g id="matplotlib.axis_1">
    <g id="xtick_1">
     <g id="line2d_2">
      <defs>
       <path id="m277751bad1" d="M 0 0 
L 0 3.5 
" style="stroke: #000000; stroke-width: 0.8"/>
      </defs>
      <g>
       <use xlink:href="#m277751bad1" x="41.441949" y="182.68" style="stroke: #000000; stroke-width: 0.8"/>
      </g>
     </g>
     <g id="text_1">
      <!-- 0 -->
      <g transform="translate(39.215074 194.998906) scale(0.07 -0.07)">
       <defs>
        <path id="DejaVuSans-30" d="M 2034 4250 
Q 1547 4250 1301 3770 
Q 1056 3291 1056 2328 
Q 1056 1369 1301 889 
Q 1547 409 2034 409 
Q 2525 409 2770 889 
Q 3016 1369 3016 2328 
Q 3016 3291 2770 3770 
Q 2525 4250 2034 4250 
z
M 2034 4750 
Q 2819 4750 3233 4129 
Q 3647 3509 3647 2328 
Q 3647 1150 3233 529 
Q 2819 -91 2034 -91 
Q 1250 -91 836 529 
Q 422 1150 422 2328 
Q 422 3509 836 4129 
Q 1250 4750 2034 4750 
z
" transform="scale(0.015625)"/>
       </defs>
       <use xlink:href="#DejaVuSans-30"/>
      </g>
     </g>
    </g>
    <g id="xtick_2">
     <g id="line2d_3">
      <g>
       <use xlink:href="#m277751bad1" x="84.607927" y="182.68" style="stroke: #000000; stroke-width: 0.8"/>
      </g>
     </g>
     <g id="text_2">
      <!-- 10 -->
      <g transform="translate(80.154177 194.998906) scale(0.07 -0.07)">
       <defs>
        <path id="DejaVuSans-31" d="M 794 531 
L 1825 531 
L 1825 4091 
L 703 3866 
L 703 4441 
L 1819 4666 
L 2450 4666 
L 2450 531 
L 3481 531 
L 3481 0 
L 794 0 
L 794 531 
z
" transform="scale(0.015625)"/>
       </defs>
       <use xlink:href="#DejaVuSans-31"/>
       <use xlink:href="#DejaVuSans-30" transform="translate(63.623047 0)"/>
      </g>
     </g>
    </g>
    <g id="xtick_3">
     <g id="line2d_4">
      <g>
       <use xlink:href="#m277751bad1" x="127.773905" y="182.68" style="stroke: #000000; stroke-width: 0.8"/>
      </g>
     </g>
     <g id="text_3">
      <!-- 20 -->
      <g transform="translate(123.320155 194.998906) scale(0.07 -0.07)">
       <defs>
        <path id="DejaVuSans-32" d="M 1228 531 
L 3431 531 
L 3431 0 
L 469 0 
L 469 531 
Q 828 903 1448 1529 
Q 2069 2156 2228 2338 
Q 2531 2678 2651 2914 
Q 2772 3150 2772 3378 
Q 2772 3750 2511 3984 
Q 2250 4219 1831 4219 
Q 1534 4219 1204 4116 
Q 875 4013 500 3803 
L 500 4441 
Q 881 4594 1212 4672 
Q 1544 4750 1819 4750 
Q 2544 4750 2975 4387 
Q 3406 4025 3406 3419 
Q 3406 3131 3298 2873 
Q 3191 2616 2906 2266 
Q 2828 2175 2409 1742 
Q 1991 1309 1228 531 
z
" transform="scale(0.015625)"/>
       </defs>
       <use xlink:href="#DejaVuSans-32"/>
       <use xlink:href="#DejaVuSans-30" transform="translate(63.623047 0)"/>
      </g>
     </g>
    </g>
    <g id="xtick_4">
     <g id="line2d_5">
      <g>
       <use xlink:href="#m277751bad1" x="170.939882" y="182.68" style="stroke: #000000; stroke-width: 0.8"/>
      </g>
     </g>
     <g id="text_4">
      <!-- 30 -->
      <g transform="translate(166.486132 194.998906) scale(0.07 -0.07)">
       <defs>
        <path id="DejaVuSans-33" d="M 2597 2516 
Q 3050 2419 3304 2112 
Q 3559 1806 3559 1356 
Q 3559 666 3084 287 
Q 2609 -91 1734 -91 
Q 1441 -91 1130 -33 
Q 819 25 488 141 
L 488 750 
Q 750 597 1062 519 
Q 1375 441 1716 441 
Q 2309 441 2620 675 
Q 2931 909 2931 1356 
Q 2931 1769 2642 2001 
Q 2353 2234 1838 2234 
L 1294 2234 
L 1294 2753 
L 1863 2753 
Q 2328 2753 2575 2939 
Q 2822 3125 2822 3475 
Q 2822 3834 2567 4026 
Q 2313 4219 1838 4219 
Q 1578 4219 1281 4162 
Q 984 4106 628 3988 
L 628 4550 
Q 988 4650 1302 4700 
Q 1616 4750 1894 4750 
Q 2613 4750 3031 4423 
Q 3450 4097 3450 3541 
Q 3450 3153 3228 2886 
Q 3006 2619 2597 2516 
z
" transform="scale(0.015625)"/>
       </defs>
       <use xlink:href="#DejaVuSans-33"/>
       <use xlink:href="#DejaVuSans-30" transform="translate(63.623047 0)"/>
      </g>
     </g>
    </g>
    <g id="xtick_5">
     <g id="line2d_6">
      <g>
       <use xlink:href="#m277751bad1" x="214.10586" y="182.68" style="stroke: #000000; stroke-width: 0.8"/>
      </g>
     </g>
     <g id="text_5">
      <!-- 40 -->
      <g transform="translate(209.65211 194.998906) scale(0.07 -0.07)">
       <defs>
        <path id="DejaVuSans-34" d="M 2419 4116 
L 825 1625 
L 2419 1625 
L 2419 4116 
z
M 2253 4666 
L 3047 4666 
L 3047 1625 
L 3713 1625 
L 3713 1100 
L 3047 1100 
L 3047 0 
L 2419 0 
L 2419 1100 
L 313 1100 
L 313 1709 
L 2253 4666 
z
" transform="scale(0.015625)"/>
       </defs>
       <use xlink:href="#DejaVuSans-34"/>
       <use xlink:href="#DejaVuSans-30" transform="translate(63.623047 0)"/>
      </g>
     </g>
    </g>
    <g id="text_6">
     <!-- Frequency (Hz) -->
     <g transform="translate(110.559948 206.533437) scale(0.08 -0.08)">
      <defs>
       <path id="DejaVuSans-46" d="M 628 4666 
L 3309 4666 
L 3309 4134 
L 1259 4134 
L 1259 2759 
L 3109 2759 
L 3109 2228 
L 1259 2228 
L 1259 0 
L 628 0 
L 628 4666 
z
" transform="scale(0.015625)"/>
       <path id="DejaVuSans-72" d="M 2631 2963 
Q 2534 3019 2420 3045 
Q 2306 3072 2169 3072 
Q 1681 3072 1420 2755 
Q 1159 2438 1159 1844 
L 1159 0 
L 581 0 
L 581 3500 
L 1159 3500 
L 1159 2956 
Q 1341 3275 1631 3429 
Q 1922 3584 2338 3584 
Q 2397 3584 2469 3576 
Q 2541 3569 2628 3553 
L 2631 2963 
z
" transform="scale(0.015625)"/>
       <path id="DejaVuSans-65" d="M 3597 1894 
L 3597 1613 
L 953 1613 
Q 991 1019 1311 708 
Q 1631 397 2203 397 
Q 2534 397 2845 478 
Q 3156 559 3463 722 
L 3463 178 
Q 3153 47 2828 -22 
Q 2503 -91 2169 -91 
Q 1331 -91 842 396 
Q 353 884 353 1716 
Q 353 2575 817 3079 
Q 1281 3584 2069 3584 
Q 2775 3584 3186 3129 
Q 3597 2675 3597 1894 
z
M 3022 2063 
Q 3016 2534 2758 2815 
Q 2500 3097 2075 3097 
Q 1594 3097 1305 2825 
Q 1016 2553 972 2059 
L 3022 2063 
z
" transform="scale(0.015625)"/>
       <path id="DejaVuSans-71" d="M 947 1747 
Q 947 1113 1208 752 
Q 1469 391 1925 391 
Q 2381 391 2643 752 
Q 2906 1113 2906 1747 
Q 2906 2381 2643 2742 
Q 2381 3103 1925 3103 
Q 1469 3103 1208 2742 
Q 947 2381 947 1747 
z
M 2906 525 
Q 2725 213 2448 61 
Q 2172 -91 1784 -91 
Q 1150 -91 751 415 
Q 353 922 353 1747 
Q 353 2572 751 3078 
Q 1150 3584 1784 3584 
Q 2172 3584 2448 3432 
Q 2725 3281 2906 2969 
L 2906 3500 
L 3481 3500 
L 3481 -1331 
L 2906 -1331 
L 2906 525 
z
" transform="scale(0.015625)"/>
       <path id="DejaVuSans-75" d="M 544 1381 
L 544 3500 
L 1119 3500 
L 1119 1403 
Q 1119 906 1312 657 
Q 1506 409 1894 409 
Q 2359 409 2629 706 
Q 2900 1003 2900 1516 
L 2900 3500 
L 3475 3500 
L 3475 0 
L 2900 0 
L 2900 538 
Q 2691 219 2414 64 
Q 2138 -91 1772 -91 
Q 1169 -91 856 284 
Q 544 659 544 1381 
z
M 1991 3584 
L 1991 3584 
z
" transform="scale(0.015625)"/>
       <path id="DejaVuSans-6e" d="M 3513 2113 
L 3513 0 
L 2938 0 
L 2938 2094 
Q 2938 2591 2744 2837 
Q 2550 3084 2163 3084 
Q 1697 3084 1428 2787 
Q 1159 2491 1159 1978 
L 1159 0 
L 581 0 
L 581 3500 
L 1159 3500 
L 1159 2956 
Q 1366 3272 1645 3428 
Q 1925 3584 2291 3584 
Q 2894 3584 3203 3211 
Q 3513 2838 3513 2113 
z
" transform="scale(0.015625)"/>
       <path id="DejaVuSans-63" d="M 3122 3366 
L 3122 2828 
Q 2878 2963 2633 3030 
Q 2388 3097 2138 3097 
Q 1578 3097 1268 2742 
Q 959 2388 959 1747 
Q 959 1106 1268 751 
Q 1578 397 2138 397 
Q 2388 397 2633 464 
Q 2878 531 3122 666 
L 3122 134 
Q 2881 22 2623 -34 
Q 2366 -91 2075 -91 
Q 1284 -91 818 406 
Q 353 903 353 1747 
Q 353 2603 823 3093 
Q 1294 3584 2113 3584 
Q 2378 3584 2631 3529 
Q 2884 3475 3122 3366 
z
" transform="scale(0.015625)"/>
       <path id="DejaVuSans-79" d="M 2059 -325 
Q 1816 -950 1584 -1140 
Q 1353 -1331 966 -1331 
L 506 -1331 
L 506 -850 
L 844 -850 
Q 1081 -850 1212 -737 
Q 1344 -625 1503 -206 
L 1606 56 
L 191 3500 
L 800 3500 
L 1894 763 
L 2988 3500 
L 3597 3500 
L 2059 -325 
z
" transform="scale(0.015625)"/>
       <path id="DejaVuSans-20" transform="scale(0.015625)"/>
       <path id="DejaVuSans-28" d="M 1984 4856 
Q 1566 4138 1362 3434 
Q 1159 2731 1159 2009 
Q 1159 1288 1364 580 
Q 1569 -128 1984 -844 
L 1484 -844 
Q 1016 -109 783 600 
Q 550 1309 550 2009 
Q 550 2706 781 3412 
Q 1013 4119 1484 4856 
L 1984 4856 
z
" transform="scale(0.015625)"/>
       <path id="DejaVuSans-48" d="M 628 4666 
L 1259 4666 
L 1259 2753 
L 3553 2753 
L 3553 4666 
L 4184 4666 
L 4184 0 
L 3553 0 
L 3553 2222 
L 1259 2222 
L 1259 0 
L 628 0 
L 628 4666 
z
" transform="scale(0.015625)"/>
       <path id="DejaVuSans-7a" d="M 353 3500 
L 3084 3500 
L 3084 2975 
L 922 459 
L 3084 459 
L 3084 0 
L 275 0 
L 275 525 
L 2438 3041 
L 353 3041 
L 353 3500 
z
" transform="scale(0.015625)"/>
       <path id="DejaVuSans-29" d="M 513 4856 
L 1013 4856 
Q 1481 4119 1714 3412 
Q 1947 2706 1947 2009 
Q 1947 1309 1714 600 
Q 1481 -109 1013 -844 
L 513 -844 
Q 928 -128 1133 580 
Q 1338 1288 1338 2009 
Q 1338 2731 1133 3434 
Q 928 4138 513 4856 
z
" transform="scale(0.015625)"/>
      </defs>
      <use xlink:href="#DejaVuSans-46"/>
      <use xlink:href="#DejaVuSans-72" transform="translate(50.269531 0)"/>
      <use xlink:href="#DejaVuSans-65" transform="translate(89.132812 0)"/>
      <use xlink:href="#DejaVuSans-71" transform="translate(150.65625 0)"/>
      <use xlink:href="#DejaVuSans-75" transform="translate(214.132812 0)"/>
      <use xlink:href="#DejaVuSans-65" transform="translate(277.511719 0)"/>
      <use xlink:href="#DejaVuSans-6e" transform="translate(339.035156 0)"/>
      <use xlink:href="#DejaVuSans-63" transform="translate(402.414062 0)"/>
      <use xlink:href="#DejaVuSans-79" transform="translate(457.394531 0)"/>
      <use xlink:href="#DejaVuSans-20" transform="translate(516.574219 0)"/>
      <use xlink:href="#DejaVuSans-28" transform="translate(548.361328 0)"/>
      <use xlink:href="#DejaVuSans-48" transform="translate(587.375 0)"/>
      <use xlink:href="#DejaVuSans-7a" transform="translate(662.570312 0)"/>
      <use xlink:href="#DejaVuSans-29" transform="translate(715.060547 0)"/>
     </g>
    </g>
   </g>
   <g id="matplotlib.axis_2">
    <g id="ytick_1">
     <g id="line2d_7">
      <defs>
       <path id="m5bcbc3543d" d="M 0 0 
L -3.5 0 
" style="stroke: #000000; stroke-width: 0.8"/>
      </defs>
      <g>
       <use xlink:href="#m5bcbc3543d" x="36.262031" y="176.104131" style="stroke: #000000; stroke-width: 0.8"/>
      </g>
     </g>
     <g id="text_7">
      <!-- −2 -->
      <g transform="translate(18.9425 178.763584) scale(0.07 -0.07)">
       <defs>
        <path id="DejaVuSans-2212" d="M 678 2272 
L 4684 2272 
L 4684 1741 
L 678 1741 
L 678 2272 
z
" transform="scale(0.015625)"/>
       </defs>
       <use xlink:href="#DejaVuSans-2212"/>
       <use xlink:href="#DejaVuSans-32" transform="translate(83.789062 0)"/>
      </g>
     </g>
    </g>
    <g id="ytick_2">
     <g id="line2d_8">
      <g>
       <use xlink:href="#m5bcbc3543d" x="36.262031" y="146.267146" style="stroke: #000000; stroke-width: 0.8"/>
      </g>
     </g>
     <g id="text_8">
      <!-- −1 -->
      <g transform="translate(18.9425 148.926599) scale(0.07 -0.07)">
       <use xlink:href="#DejaVuSans-2212"/>
       <use xlink:href="#DejaVuSans-31" transform="translate(83.789062 0)"/>
      </g>
     </g>
    </g>
    <g id="ytick_3">
     <g id="line2d_9">
      <g>
       <use xlink:href="#m5bcbc3543d" x="36.262031" y="116.43016" style="stroke: #000000; stroke-width: 0.8"/>
      </g>
     </g>
     <g id="text_9">
      <!-- 0 -->
      <g transform="translate(24.808281 119.089613) scale(0.07 -0.07)">
       <use xlink:href="#DejaVuSans-30"/>
      </g>
     </g>
    </g>
    <g id="ytick_4">
     <g id="line2d_10">
      <g>
       <use xlink:href="#m5bcbc3543d" x="36.262031" y="86.593175" style="stroke: #000000; stroke-width: 0.8"/>
      </g>
     </g>
     <g id="text_10">
      <!-- 1 -->
      <g transform="translate(24.808281 89.252628) scale(0.07 -0.07)">
       <use xlink:href="#DejaVuSans-31"/>
      </g>
     </g>
    </g>
    <g id="text_11">
     <!-- ERD/ERS (dB) -->
     <g transform="translate(13.27875 148.236875) rotate(-90) scale(0.08 -0.08)">
      <defs>
       <path id="DejaVuSans-45" d="M 628 4666 
L 3578 4666 
L 3578 4134 
L 1259 4134 
L 1259 2753 
L 3481 2753 
L 3481 2222 
L 1259 2222 
L 1259 531 
L 3634 531 
L 3634 0 
L 628 0 
L 628 4666 
z
" transform="scale(0.015625)"/>
       <path id="DejaVuSans-52" d="M 2841 2188 
Q 3044 2119 3236 1894 
Q 3428 1669 3622 1275 
L 4263 0 
L 3584 0 
L 2988 1197 
Q 2756 1666 2539 1819 
Q 2322 1972 1947 1972 
L 1259 1972 
L 1259 0 
L 628 0 
L 628 4666 
L 2053 4666 
Q 2853 4666 3247 4331 
Q 3641 3997 3641 3322 
Q 3641 2881 3436 2590 
Q 3231 2300 2841 2188 
z
M 1259 4147 
L 1259 2491 
L 2053 2491 
Q 2509 2491 2742 2702 
Q 2975 2913 2975 3322 
Q 2975 3731 2742 3939 
Q 2509 4147 2053 4147 
L 1259 4147 
z
" transform="scale(0.015625)"/>
       <path id="DejaVuSans-44" d="M 1259 4147 
L 1259 519 
L 2022 519 
Q 2988 519 3436 956 
Q 3884 1394 3884 2338 
Q 3884 3275 3436 3711 
Q 2988 4147 2022 4147 
L 1259 4147 
z
M 628 4666 
L 1925 4666 
Q 3281 4666 3915 4102 
Q 4550 3538 4550 2338 
Q 4550 1131 3912 565 
Q 3275 0 1925 0 
L 628 0 
L 628 4666 
z
" transform="scale(0.015625)"/>
       <path id="DejaVuSans-2f" d="M 1625 4666 
L 2156 4666 
L 531 -594 
L 0 -594 
L 1625 4666 
z
" transform="scale(0.015625)"/>
       <path id="DejaVuSans-53" d="M 3425 4513 
L 3425 3897 
Q 3066 4069 2747 4153 
Q 2428 4238 2131 4238 
Q 1616 4238 1336 4038 
Q 1056 3838 1056 3469 
Q 1056 3159 1242 3001 
Q 1428 2844 1947 2747 
L 2328 2669 
Q 3034 2534 3370 2195 
Q 3706 1856 3706 1288 
Q 3706 609 3251 259 
Q 2797 -91 1919 -91 
Q 1588 -91 1214 -16 
Q 841 59 441 206 
L 441 856 
Q 825 641 1194 531 
Q 1563 422 1919 422 
Q 2459 422 2753 634 
Q 3047 847 3047 1241 
Q 3047 1584 2836 1778 
Q 2625 1972 2144 2069 
L 1759 2144 
Q 1053 2284 737 2584 
Q 422 2884 422 3419 
Q 422 4038 858 4394 
Q 1294 4750 2059 4750 
Q 2388 4750 2728 4690 
Q 3069 4631 3425 4513 
z
" transform="scale(0.015625)"/>
       <path id="DejaVuSans-64" d="M 2906 2969 
L 2906 4863 
L 3481 4863 
L 3481 0 
L 2906 0 
L 2906 525 
Q 2725 213 2448 61 
Q 2172 -91 1784 -91 
Q 1150 -91 751 415 
Q 353 922 353 1747 
Q 353 2572 751 3078 
Q 1150 3584 1784 3584 
Q 2172 3584 2448 3432 
Q 2725 3281 2906 2969 
z
M 947 1747 
Q 947 1113 1208 752 
Q 1469 391 1925 391 
Q 2381 391 2643 752 
Q 2906 1113 2906 1747 
Q 2906 2381 2643 2742 
Q 2381 3103 1925 3103 
Q 1469 3103 1208 2742 
Q 947 2381 947 1747 
z
" transform="scale(0.015625)"/>
       <path id="DejaVuSans-42" d="M 1259 2228 
L 1259 519 
L 2272 519 
Q 2781 519 3026 730 
Q 3272 941 3272 1375 
Q 3272 1813 3026 2020 
Q 2781 2228 2272 2228 
L 1259 2228 
z
M 1259 4147 
L 1259 2741 
L 2194 2741 
Q 2656 2741 2882 2914 
Q 3109 3088 3109 3444 
Q 3109 3797 2882 3972 
Q 2656 4147 2194 4147 
L 1259 4147 
z
M 628 4666 
L 2241 4666 
Q 2963 4666 3353 4366 
Q 3744 4066 3744 3513 
Q 3744 3084 3544 2831 
Q 3344 2578 2956 2516 
Q 3422 2416 3680 2098 
Q 3938 1781 3938 1306 
Q 3938 681 3513 340 
Q 3088 0 2303 0 
L 628 0 
L 628 4666 
z
" transform="scale(0.015625)"/>
      </defs>
      <use xlink:href="#DejaVuSans-45"/>
      <use xlink:href="#DejaVuSans-52" transform="translate(63.183594 0)"/>
      <use xlink:href="#DejaVuSans-44" transform="translate(132.666016 0)"/>
      <use xlink:href="#DejaVuSans-2f" transform="translate(209.667969 0)"/>
      <use xlink:href="#DejaVuSans-45" transform="translate(243.359375 0)"/>
      <use xlink:href="#DejaVuSans-52" transform="translate(306.542969 0)"/>
      <use xlink:href="#DejaVuSans-53" transform="translate(376.025391 0)"/>
      <use xlink:href="#DejaVuSans-20" transform="translate(439.501953 0)"/>
      <use xlink:href="#DejaVuSans-28" transform="translate(471.289062 0)"/>
      <use xlink:href="#DejaVuSans-64" transform="translate(510.302734 0)"/>
      <use xlink:href="#DejaVuSans-42" transform="translate(573.779297 0)"/>
      <use xlink:href="#DejaVuSans-29" transform="translate(642.382812 0)"/>
     </g>
    </g>
   </g>
   <g id="line2d_11">
    <path d="M 45.758546 126.665374 
L 47.916845 126.285231 
L 50.075144 125.092722 
L 52.233443 124.915099 
L 54.391742 126.275675 
L 56.550041 127.036536 
L 58.70834 126.291703 
L 60.866639 128.502593 
L 63.024938 133.06297 
L 65.183236 136.362527 
L 67.341535 136.95654 
L 69.499834 136.147896 
L 71.658133 133.419693 
L 73.816432 132.348898 
L 75.974731 134.762038 
L 78.13303 136.235158 
L 80.291329 134.508816 
L 82.449628 129.735635 
L 84.607927 126.463633 
L 86.766225 127.328265 
L 88.924524 130.802832 
L 91.082823 136.663056 
L 93.241122 142.78686 
L 95.399421 145.929054 
L 97.55772 146.171183 
L 99.716019 145.22678 
L 101.874318 142.36009 
L 104.032617 139.298831 
L 106.190916 135.783692 
L 108.349214 134.288298 
L 110.507513 133.053825 
L 112.665812 131.336277 
L 114.824111 131.366765 
L 116.98241 133.711228 
L 119.140709 135.771271 
L 121.299008 137.553944 
L 123.457307 139.686916 
L 125.615606 140.534576 
L 127.773905 141.876825 
L 129.932203 143.762614 
L 132.090502 146.074244 
L 134.248801 146.668169 
L 136.4071 145.831532 
L 138.565399 144.884785 
L 140.723698 142.776315 
L 142.881997 140.848808 
L 145.040296 142.306434 
L 147.198595 143.107657 
L 149.356894 143.506807 
L 151.515192 144.679582 
L 153.673491 143.347183 
L 155.83179 139.784492 
L 157.990089 136.791957 
L 160.148388 132.727339 
L 162.306687 128.702982 
L 164.464986 127.339214 
L 166.623285 128.72681 
L 168.781584 129.470396 
L 170.939882 130.594848 
L 173.098181 131.614666 
L 175.25648 131.591213 
L 177.414779 133.01446 
L 179.573078 135.213047 
L 181.731377 134.64332 
L 183.889676 134.353318 
L 186.047975 135.29534 
L 188.206274 137.060578 
L 190.364573 134.397679 
L 192.522871 132.097091 
L 194.68117 131.783425 
L 196.839469 131.988098 
L 198.997768 131.344687 
L 201.156067 132.759491 
L 203.314366 134.4042 
L 205.472665 133.971739 
L 207.630964 131.750475 
L 209.789263 130.777106 
L 211.947562 132.183827 
L 214.10586 134.225298 
L 216.264159 134.571705 
L 218.422458 134.597462 
L 220.580757 135.067545 
L 222.739056 135.515954 
L 224.897355 134.963296 
L 227.055654 132.406488 
L 229.213953 131.406704 
L 231.372252 132.357291 
L 233.530551 133.938018 
L 235.688849 135.281714 
" clip-path="url(#pb1f0030746)" style="fill: none; stroke: #1f77b4; stroke-width: 1.3; stroke-linecap: square"/>
   </g>
   <g id="line2d_12">
    <path d="M 45.758546 132.324042 
L 47.916845 131.225265 
L 50.075144 132.070245 
L 52.233443 131.359167 
L 54.391742 127.176656 
L 56.550041 128.451815 
L 58.70834 134.124286 
L 60.866639 136.160325 
L 63.024938 135.459323 
L 65.183236 129.431336 
L 67.341535 121.210243 
L 69.499834 118.256379 
L 71.658133 116.141961 
L 73.816432 116.884222 
L 75.974731 118.125292 
L 78.13303 117.232525 
L 80.291329 117.296891 
L 82.449628 120.808231 
L 84.607927 122.285245 
L 86.766225 120.679783 
L 88.924524 120.856971 
L 91.082823 125.492696 
L 93.241122 127.754805 
L 95.399421 122.767278 
L 97.55772 119.194221 
L 99.716019 121.306057 
L 101.874318 123.457568 
L 104.032617 123.801998 
L 106.190916 119.887934 
L 108.349214 115.906088 
L 110.507513 108.217026 
L 112.665812 109.114443 
L 114.824111 116.593917 
L 116.98241 122.611181 
L 119.140709 123.314092 
L 121.299008 125.164072 
L 123.457307 127.757659 
L 125.615606 127.149747 
L 127.773905 127.50793 
L 129.932203 128.913979 
L 132.090502 128.0287 
L 134.248801 127.790759 
L 136.4071 132.580671 
L 138.565399 131.402294 
L 140.723698 122.836184 
L 142.881997 117.51125 
L 145.040296 114.65979 
L 147.198595 114.76957 
L 149.356894 118.609382 
L 151.515192 123.885998 
L 153.673491 125.016801 
L 155.83179 117.588511 
L 157.990089 108.941394 
L 160.148388 106.653008 
L 162.306687 108.798376 
L 164.464986 115.8083 
L 166.623285 118.42456 
L 168.781584 115.779253 
L 170.939882 110.853501 
L 173.098181 111.395479 
L 175.25648 120.201652 
L 177.414779 124.399938 
L 179.573078 122.814016 
L 181.731377 119.09813 
L 183.889676 118.978793 
L 186.047975 122.70038 
L 188.206274 127.996296 
L 190.364573 127.763845 
L 192.522871 121.90229 
L 194.68117 119.255506 
L 196.839469 119.137313 
L 198.997768 117.451785 
L 201.156067 117.277525 
L 203.314366 121.664143 
L 205.472665 127.084567 
L 207.630964 130.534437 
L 209.789263 130.612829 
L 211.947562 129.001599 
L 214.10586 127.900232 
L 216.264159 128.857463 
L 218.422458 130.595294 
L 220.580757 136.104438 
L 222.739056 141.931812 
L 224.897355 144.169922 
L 227.055654 141.583915 
L 229.213953 136.481575 
L 231.372252 130.655876 
L 233.530551 125.28543 
L 235.688849 124.715607 
" clip-path="url(#pb1f0030746)" style="fill: none; stroke: #ff7f0e; stroke-width: 1.3; stroke-linecap: square"/>
   </g>
   <g id="patch_5">
    <path d="M 36.262031 182.68 
L 36.262031 59.28 
" style="fill: none; stroke: #000000; stroke-width: 0.8; stroke-linejoin: miter; stroke-linecap: square"/>
   </g>
   <g id="patch_6">
    <path d="M 245.185365 182.68 
L 245.185365 59.28 
" style="fill: none; stroke: #000000; stroke-width: 0.8; stroke-linejoin: miter; stroke-linecap: square"/>
   </g>
   <g id="patch_7">
    <path d="M 36.262031 182.68 
L 245.185365 182.68 
" style="fill: none; stroke: #000000; stroke-width: 0.8; stroke-linejoin: miter; stroke-linecap: square"/>
   </g>
   <g id="patch_8">
    <path d="M 36.262031 59.28 
L 245.185365 59.28 
" style="fill: none; stroke: #000000; stroke-width: 0.8; stroke-linejoin: miter; stroke-linecap: square"/>
   </g>
   <g id="text_12">
    <!-- C3 -->
    <g transform="translate(134.718307 53.28) scale(0.09 -0.09)">
     <defs>
      <path id="DejaVuSans-43" d="M 4122 4306 
L 4122 3641 
Q 3803 3938 3442 4084 
Q 3081 4231 2675 4231 
Q 1875 4231 1450 3742 
Q 1025 3253 1025 2328 
Q 1025 1406 1450 917 
Q 1875 428 2675 428 
Q 3081 428 3442 575 
Q 3803 722 4122 1019 
L 4122 359 
Q 3791 134 3420 21 
Q 3050 -91 2638 -91 
Q 1578 -91 968 557 
Q 359 1206 359 2328 
Q 359 3453 968 4101 
Q 1578 4750 2638 4750 
Q 3056 4750 3426 4639 
Q 3797 4528 4122 4306 
z
" transform="scale(0.015625)"/>
     </defs>
     <use xlink:href="#DejaVuSans-43"/>
     <use xlink:href="#DejaVuSans-33" transform="translate(69.824219 0)"/>
    </g>
   </g>
  </g>
  <g id="axes_2">
   <g id="patch_9">
    <path d="M 270.685365 182.68 
L 479.608698 182.68 
L 479.608698 59.28 
L 270.685365 59.28 
L 270.685365 182.68 
z
" style="fill: none"/>
   </g>
   <g id="patch_10">
    <path d="M 310.398064 182.68 
L 331.981053 182.68 
L 331.981053 59.28 
L 310.398064 59.28 
z
" clip-path="url(#p9eaf834300)" style="fill: #d9d9d9; stroke: #d9d9d9; stroke-linejoin: miter"/>
   </g>
   <g id="patch_11">
    <path d="M 331.981053 182.68 
L 405.363216 182.68 
L 405.363216 59.28 
L 331.981053 59.28 
z
" clip-path="url(#p9eaf834300)" style="fill: #ebebeb; stroke: #ebebeb; stroke-linejoin: miter"/>
   </g>
   <g id="FillBetweenPolyCollection_3">
    <defs>
     <path id="mca17631dfd" d="M 280.18188 -115.386629 
L 280.18188 -91.340097 
L 282.340179 -90.038788 
L 284.498478 -84.767217 
L 286.656776 -75.12504 
L 288.815075 -67.882723 
L 290.973374 -65.126921 
L 293.131673 -62.254794 
L 295.289972 -57.734589 
L 297.448271 -51.841522 
L 299.60657 -51.992315 
L 301.764869 -58.1372 
L 303.923168 -66.621924 
L 306.081467 -71.471268 
L 308.239765 -69.458318 
L 310.398064 -64.880063 
L 312.556363 -63.41702 
L 314.714662 -63.983882 
L 316.872961 -64.312307 
L 319.03126 -61.051811 
L 321.189559 -59.038395 
L 323.347858 -62.517973 
L 325.506157 -66.017163 
L 327.664455 -69.44342 
L 329.822754 -72.107999 
L 331.981053 -73.776178 
L 334.139352 -75.183814 
L 336.297651 -73.890805 
L 338.45595 -74.935275 
L 340.614249 -78.242375 
L 342.772548 -81.771342 
L 344.930847 -78.863862 
L 347.089146 -72.791979 
L 349.247444 -66.403555 
L 351.405743 -64.959139 
L 353.564042 -67.26648 
L 355.722341 -68.525672 
L 357.88064 -71.238531 
L 360.038939 -74.672471 
L 362.197238 -76.118672 
L 364.355537 -75.505634 
L 366.513836 -72.279743 
L 368.672135 -69.299264 
L 370.830433 -65.380903 
L 372.988732 -68.205482 
L 375.147031 -74.547762 
L 377.30533 -74.773217 
L 379.463629 -72.335289 
L 381.621928 -72.387188 
L 383.780227 -73.911441 
L 385.938526 -71.93337 
L 388.096825 -73.13073 
L 390.255124 -78.129074 
L 392.413422 -81.774443 
L 394.571721 -82.197012 
L 396.73002 -81.425945 
L 398.888319 -79.344493 
L 401.046618 -80.492767 
L 403.204917 -81.110623 
L 405.363216 -80.844224 
L 407.521515 -77.700954 
L 409.679814 -71.169378 
L 411.838113 -68.539915 
L 413.996411 -69.117095 
L 416.15471 -73.573389 
L 418.313009 -78.232273 
L 420.471308 -81.346151 
L 422.629607 -81.992827 
L 424.787906 -81.077191 
L 426.946205 -78.358214 
L 429.104504 -77.842432 
L 431.262803 -78.817545 
L 433.421101 -76.292288 
L 435.5794 -72.29353 
L 437.737699 -71.037697 
L 439.895998 -70.987931 
L 442.054297 -70.2558 
L 444.212596 -68.148278 
L 446.370895 -64.401038 
L 448.529194 -61.979024 
L 450.687493 -60.83084 
L 452.845792 -59.371935 
L 455.00409 -58.764967 
L 457.162389 -61.1047 
L 459.320688 -63.462563 
L 461.478987 -63.76271 
L 463.637286 -60.592965 
L 465.795585 -60.634343 
L 467.953884 -62.063749 
L 470.112183 -63.446686 
L 470.112183 -97.778853 
L 470.112183 -97.778853 
L 467.953884 -97.687774 
L 465.795585 -101.366322 
L 463.637286 -103.412778 
L 461.478987 -103.601832 
L 459.320688 -105.103867 
L 457.162389 -105.012416 
L 455.00409 -104.696128 
L 452.845792 -102.322553 
L 450.687493 -99.702522 
L 448.529194 -99.364203 
L 446.370895 -100.349956 
L 444.212596 -100.32142 
L 442.054297 -98.687672 
L 439.895998 -100.15272 
L 437.737699 -103.534512 
L 435.5794 -104.130194 
L 433.421101 -105.696708 
L 431.262803 -109.050789 
L 429.104504 -111.185301 
L 426.946205 -112.119351 
L 424.787906 -113.296184 
L 422.629607 -111.840913 
L 420.471308 -108.701721 
L 418.313009 -106.911478 
L 416.15471 -107.249638 
L 413.996411 -106.422245 
L 411.838113 -104.150226 
L 409.679814 -102.29178 
L 407.521515 -104.119671 
L 405.363216 -108.371719 
L 403.204917 -110.679236 
L 401.046618 -110.026294 
L 398.888319 -107.306988 
L 396.73002 -106.922695 
L 394.571721 -108.208055 
L 392.413422 -110.217255 
L 390.255124 -113.162202 
L 388.096825 -114.956417 
L 385.938526 -112.396351 
L 383.780227 -108.606768 
L 381.621928 -107.588357 
L 379.463629 -108.074438 
L 377.30533 -111.17539 
L 375.147031 -112.302243 
L 372.988732 -110.604718 
L 370.830433 -108.608547 
L 368.672135 -108.156868 
L 366.513836 -110.270068 
L 364.355537 -112.804064 
L 362.197238 -116.569981 
L 360.038939 -116.313294 
L 357.88064 -116.652443 
L 355.722341 -114.561022 
L 353.564042 -112.548465 
L 351.405743 -111.807529 
L 349.247444 -110.661747 
L 347.089146 -109.1385 
L 344.930847 -109.308967 
L 342.772548 -111.803557 
L 340.614249 -108.43967 
L 338.45595 -101.283179 
L 336.297651 -96.149231 
L 334.139352 -94.596476 
L 331.981053 -98.428071 
L 329.822754 -100.948324 
L 327.664455 -94.318747 
L 325.506157 -87.692826 
L 323.347858 -88.1252 
L 321.189559 -91.622254 
L 319.03126 -92.558466 
L 316.872961 -89.507156 
L 314.714662 -90.463674 
L 312.556363 -93.790696 
L 310.398064 -100.076513 
L 308.239765 -103.596598 
L 306.081467 -103.299032 
L 303.923168 -103.257991 
L 301.764869 -104.915412 
L 299.60657 -108.244496 
L 297.448271 -108.014893 
L 295.289972 -103.893798 
L 293.131673 -97.240039 
L 290.973374 -94.506907 
L 288.815075 -95.203252 
L 286.656776 -100.244611 
L 284.498478 -106.924561 
L 282.340179 -110.901632 
L 280.18188 -115.386629 
z
" style="stroke: #1f77b4; stroke-opacity: 0.15"/>
    </defs>
    <g clip-path="url(#p9eaf834300)">
     <use xlink:href="#mca17631dfd" x="0" y="215.397188" style="fill: #1f77b4; fill-opacity: 0.15; stroke: #1f77b4; stroke-opacity: 0.15"/>
    </g>
   </g>
   <g id="FillBetweenPolyCollection_4">
    <defs>
     <path id="mde8d8addae" d="M 280.18188 -103.304224 
L 280.18188 -42.665416 
L 282.340179 -46.866506 
L 284.498478 -51.514565 
L 286.656776 -55.097463 
L 288.815075 -54.354201 
L 290.973374 -51.628803 
L 293.131673 -49.804409 
L 295.289972 -47.081829 
L 297.448271 -49.367801 
L 299.60657 -62.071928 
L 301.764869 -72.624607 
L 303.923168 -71.910444 
L 306.081467 -71.515789 
L 308.239765 -71.405807 
L 310.398064 -72.294325 
L 312.556363 -64.374893 
L 314.714662 -52.801121 
L 316.872961 -50.179506 
L 319.03126 -53.776306 
L 321.189559 -56.369742 
L 323.347858 -53.785386 
L 325.506157 -55.004716 
L 327.664455 -64.113187 
L 329.822754 -68.490905 
L 331.981053 -68.673567 
L 334.139352 -71.340272 
L 336.297651 -76.164284 
L 338.45595 -83.245592 
L 340.614249 -82.459656 
L 342.772548 -82.693986 
L 344.930847 -81.98212 
L 347.089146 -77.145073 
L 349.247444 -71.318774 
L 351.405743 -71.817768 
L 353.564042 -71.325356 
L 355.722341 -66.071204 
L 357.88064 -61.675041 
L 360.038939 -64.178328 
L 362.197238 -74.377095 
L 364.355537 -78.009652 
L 366.513836 -74.039872 
L 368.672135 -66.105705 
L 370.830433 -63.1515 
L 372.988732 -64.146913 
L 375.147031 -69.571259 
L 377.30533 -75.550052 
L 379.463629 -77.825711 
L 381.621928 -74.563382 
L 383.780227 -75.997212 
L 385.938526 -84.94238 
L 388.096825 -83.826229 
L 390.255124 -77.119453 
L 392.413422 -79.125662 
L 394.571721 -87.472643 
L 396.73002 -94.074734 
L 398.888319 -87.788953 
L 401.046618 -89.220186 
L 403.204917 -93.723019 
L 405.363216 -87.163701 
L 407.521515 -81.972556 
L 409.679814 -82.547889 
L 411.838113 -83.458291 
L 413.996411 -82.548193 
L 416.15471 -85.312246 
L 418.313009 -87.330947 
L 420.471308 -85.10729 
L 422.629607 -78.843829 
L 424.787906 -76.58035 
L 426.946205 -72.329388 
L 429.104504 -76.551006 
L 431.262803 -79.656102 
L 433.421101 -81.240044 
L 435.5794 -81.149708 
L 437.737699 -79.463426 
L 439.895998 -70.050877 
L 442.054297 -68.663167 
L 444.212596 -72.72984 
L 446.370895 -69.422889 
L 448.529194 -66.32377 
L 450.687493 -59.115082 
L 452.845792 -53.997242 
L 455.00409 -56.2016 
L 457.162389 -57.077277 
L 459.320688 -54.463791 
L 461.478987 -54.893244 
L 463.637286 -59.887191 
L 465.795585 -68.469299 
L 467.953884 -72.527881 
L 470.112183 -76.876645 
L 470.112183 -101.090544 
L 470.112183 -101.090544 
L 467.953884 -104.468662 
L 465.795585 -106.707367 
L 463.637286 -105.875193 
L 461.478987 -99.791804 
L 459.320688 -95.652268 
L 457.162389 -97.315656 
L 455.00409 -106.360779 
L 452.845792 -116.682627 
L 450.687493 -116.415547 
L 448.529194 -109.373923 
L 446.370895 -105.919336 
L 444.212596 -103.55887 
L 442.054297 -106.264134 
L 439.895998 -109.44459 
L 437.737699 -109.736727 
L 435.5794 -111.537936 
L 433.421101 -104.832444 
L 431.262803 -106.17467 
L 429.104504 -109.203124 
L 426.946205 -105.48134 
L 424.787906 -94.785263 
L 422.629607 -98.373651 
L 420.471308 -106.368063 
L 418.313009 -106.109964 
L 416.15471 -104.71225 
L 413.996411 -104.608429 
L 411.838113 -100.946638 
L 409.679814 -97.785681 
L 407.521515 -99.681092 
L 405.363216 -107.679635 
L 403.204917 -114.091991 
L 401.046618 -121.099317 
L 398.888319 -128.712344 
L 396.73002 -133.466955 
L 394.571721 -135.632176 
L 392.413422 -130.536036 
L 390.255124 -119.235019 
L 388.096825 -112.806387 
L 385.938526 -121.049214 
L 383.780227 -132.970289 
L 381.621928 -134.588677 
L 379.463629 -128.005588 
L 377.30533 -121.552403 
L 375.147031 -116.745226 
L 372.988732 -115.794785 
L 370.830433 -118.032304 
L 368.672135 -118.951689 
L 366.513836 -122.573867 
L 364.355537 -128.530789 
L 362.197238 -129.900646 
L 360.038939 -132.868553 
L 357.88064 -132.104507 
L 355.722341 -128.776413 
L 353.564042 -129.501679 
L 351.405743 -126.003482 
L 349.247444 -120.024057 
L 347.089146 -115.940888 
L 344.930847 -114.575493 
L 342.772548 -119.743794 
L 340.614249 -120.3713 
L 338.45595 -115.748552 
L 336.297651 -112.949708 
L 334.139352 -109.788302 
L 331.981053 -108.387332 
L 329.822754 -100.435355 
L 327.664455 -100.207637 
L 325.506157 -98.270967 
L 323.347858 -91.329858 
L 321.189559 -95.036596 
L 319.03126 -101.118789 
L 316.872961 -101.317144 
L 314.714662 -103.08784 
L 312.556363 -105.956532 
L 310.398064 -106.052073 
L 308.239765 -113.193491 
L 306.081467 -115.662922 
L 303.923168 -110.148508 
L 301.764869 -99.330756 
L 299.60657 -93.326998 
L 297.448271 -95.357568 
L 295.289972 -96.257706 
L 293.131673 -106.958396 
L 290.973374 -117.834719 
L 288.815075 -121.282129 
L 286.656776 -119.37336 
L 284.498478 -112.894654 
L 282.340179 -105.973768 
L 280.18188 -103.304224 
z
" style="stroke: #ff7f0e; stroke-opacity: 0.15"/>
    </defs>
    <g clip-path="url(#p9eaf834300)">
     <use xlink:href="#mde8d8addae" x="0" y="215.397188" style="fill: #ff7f0e; fill-opacity: 0.15; stroke: #ff7f0e; stroke-opacity: 0.15"/>
    </g>
   </g>
   <g id="line2d_13">
    <path d="M 270.685365 116.43016 
L 479.608698 116.43016 
" clip-path="url(#p9eaf834300)" style="fill: none; stroke-dasharray: 2.96,1.28; stroke-dashoffset: 0; stroke: #000000; stroke-width: 0.8"/>
   </g>
   <g id="matplotlib.axis_3">
    <g id="xtick_6">
     <g id="line2d_14">
      <g>
       <use xlink:href="#m277751bad1" x="275.865282" y="182.68" style="stroke: #000000; stroke-width: 0.8"/>
      </g>
     </g>
     <g id="text_13">
      <!-- 0 -->
      <g transform="translate(273.638407 194.998906) scale(0.07 -0.07)">
       <use xlink:href="#DejaVuSans-30"/>
      </g>
     </g>
    </g>
    <g id="xtick_7">
     <g id="line2d_15">
      <g>
       <use xlink:href="#m277751bad1" x="319.03126" y="182.68" style="stroke: #000000; stroke-width: 0.8"/>
      </g>
     </g>
     <g id="text_14">
      <!-- 10 -->
      <g transform="translate(314.57751 194.998906) scale(0.07 -0.07)">
       <use xlink:href="#DejaVuSans-31"/>
       <use xlink:href="#DejaVuSans-30" transform="translate(63.623047 0)"/>
      </g>
     </g>
    </g>
    <g id="xtick_8">
     <g id="line2d_16">
      <g>
       <use xlink:href="#m277751bad1" x="362.197238" y="182.68" style="stroke: #000000; stroke-width: 0.8"/>
      </g>
     </g>
     <g id="text_15">
      <!-- 20 -->
      <g transform="translate(357.743488 194.998906) scale(0.07 -0.07)">
       <use xlink:href="#DejaVuSans-32"/>
       <use xlink:href="#DejaVuSans-30" transform="translate(63.623047 0)"/>
      </g>
     </g>
    </g>
    <g id="xtick_9">
     <g id="line2d_17">
      <g>
       <use xlink:href="#m277751bad1" x="405.363216" y="182.68" style="stroke: #000000; stroke-width: 0.8"/>
      </g>
     </g>
     <g id="text_16">
      <!-- 30 -->
      <g transform="translate(400.909466 194.998906) scale(0.07 -0.07)">
       <use xlink:href="#DejaVuSans-33"/>
       <use xlink:href="#DejaVuSans-30" transform="translate(63.623047 0)"/>
      </g>
     </g>
    </g>
    <g id="xtick_10">
     <g id="line2d_18">
      <g>
       <use xlink:href="#m277751bad1" x="448.529194" y="182.68" style="stroke: #000000; stroke-width: 0.8"/>
      </g>
     </g>
     <g id="text_17">
      <!-- 40 -->
      <g transform="translate(444.075444 194.998906) scale(0.07 -0.07)">
       <use xlink:href="#DejaVuSans-34"/>
       <use xlink:href="#DejaVuSans-30" transform="translate(63.623047 0)"/>
      </g>
     </g>
    </g>
    <g id="text_18">
     <!-- Frequency (Hz) -->
     <g transform="translate(344.983281 206.533437) scale(0.08 -0.08)">
      <use xlink:href="#DejaVuSans-46"/>
      <use xlink:href="#DejaVuSans-72" transform="translate(50.269531 0)"/>
      <use xlink:href="#DejaVuSans-65" transform="translate(89.132812 0)"/>
      <use xlink:href="#DejaVuSans-71" transform="translate(150.65625 0)"/>
      <use xlink:href="#DejaVuSans-75" transform="translate(214.132812 0)"/>
      <use xlink:href="#DejaVuSans-65" transform="translate(277.511719 0)"/>
      <use xlink:href="#DejaVuSans-6e" transform="translate(339.035156 0)"/>
      <use xlink:href="#DejaVuSans-63" transform="translate(402.414062 0)"/>
      <use xlink:href="#DejaVuSans-79" transform="translate(457.394531 0)"/>
      <use xlink:href="#DejaVuSans-20" transform="translate(516.574219 0)"/>
      <use xlink:href="#DejaVuSans-28" transform="translate(548.361328 0)"/>
      <use xlink:href="#DejaVuSans-48" transform="translate(587.375 0)"/>
      <use xlink:href="#DejaVuSans-7a" transform="translate(662.570312 0)"/>
      <use xlink:href="#DejaVuSans-29" transform="translate(715.060547 0)"/>
     </g>
    </g>
   </g>
   <g id="matplotlib.axis_4">
    <g id="ytick_5">
     <g id="line2d_19">
      <g>
       <use xlink:href="#m5bcbc3543d" x="270.685365" y="176.104131" style="stroke: #000000; stroke-width: 0.8"/>
      </g>
     </g>
    </g>
    <g id="ytick_6">
     <g id="line2d_20">
      <g>
       <use xlink:href="#m5bcbc3543d" x="270.685365" y="146.267146" style="stroke: #000000; stroke-width: 0.8"/>
      </g>
     </g>
    </g>
    <g id="ytick_7">
     <g id="line2d_21">
      <g>
       <use xlink:href="#m5bcbc3543d" x="270.685365" y="116.43016" style="stroke: #000000; stroke-width: 0.8"/>
      </g>
     </g>
    </g>
    <g id="ytick_8">
     <g id="line2d_22">
      <g>
       <use xlink:href="#m5bcbc3543d" x="270.685365" y="86.593175" style="stroke: #000000; stroke-width: 0.8"/>
      </g>
     </g>
    </g>
    <g id="text_19">
     <!-- ERD/ERS (dB) -->
     <g transform="translate(261.521615 148.236875) rotate(-90) scale(0.08 -0.08)">
      <use xlink:href="#DejaVuSans-45"/>
      <use xlink:href="#DejaVuSans-52" transform="translate(63.183594 0)"/>
      <use xlink:href="#DejaVuSans-44" transform="translate(132.666016 0)"/>
      <use xlink:href="#DejaVuSans-2f" transform="translate(209.667969 0)"/>
      <use xlink:href="#DejaVuSans-45" transform="translate(243.359375 0)"/>
      <use xlink:href="#DejaVuSans-52" transform="translate(306.542969 0)"/>
      <use xlink:href="#DejaVuSans-53" transform="translate(376.025391 0)"/>
      <use xlink:href="#DejaVuSans-20" transform="translate(439.501953 0)"/>
      <use xlink:href="#DejaVuSans-28" transform="translate(471.289062 0)"/>
      <use xlink:href="#DejaVuSans-64" transform="translate(510.302734 0)"/>
      <use xlink:href="#DejaVuSans-42" transform="translate(573.779297 0)"/>
      <use xlink:href="#DejaVuSans-29" transform="translate(642.382812 0)"/>
     </g>
    </g>
   </g>
   <g id="line2d_23">
    <path d="M 280.18188 112.033825 
L 282.340179 114.926978 
L 284.498478 119.551298 
L 286.656776 127.712362 
L 288.815075 133.8542 
L 290.973374 135.580273 
L 293.131673 135.649771 
L 295.289972 134.582994 
L 297.448271 135.46898 
L 299.60657 135.278782 
L 301.764869 133.870882 
L 303.923168 130.45723 
L 306.081467 128.012038 
L 308.239765 128.869729 
L 310.398064 132.918899 
L 312.556363 136.793329 
L 314.714662 138.173409 
L 316.872961 138.487456 
L 319.03126 138.592049 
L 321.189559 140.066863 
L 323.347858 140.075601 
L 325.506157 138.542193 
L 327.664455 133.516104 
L 329.822754 128.869026 
L 331.981053 129.295063 
L 334.139352 130.507043 
L 336.297651 130.377169 
L 338.45595 127.28796 
L 340.614249 122.056165 
L 342.772548 118.609738 
L 344.930847 121.310773 
L 347.089146 124.431948 
L 349.247444 126.864536 
L 351.405743 127.013854 
L 353.564042 125.489715 
L 355.722341 123.85384 
L 357.88064 121.4517 
L 360.038939 119.904305 
L 362.197238 119.052861 
L 364.355537 121.242339 
L 366.513836 124.122282 
L 368.672135 126.669121 
L 370.830433 128.402462 
L 372.988732 125.992088 
L 375.147031 121.972185 
L 377.30533 122.422884 
L 379.463629 125.192324 
L 381.621928 125.409415 
L 383.780227 124.138083 
L 385.938526 123.232327 
L 388.096825 121.353614 
L 390.255124 119.751549 
L 392.413422 119.401339 
L 394.571721 120.194654 
L 396.73002 121.222868 
L 398.888319 122.071447 
L 401.046618 120.137657 
L 403.204917 119.502258 
L 405.363216 120.789216 
L 407.521515 124.486875 
L 409.679814 128.666609 
L 411.838113 129.052117 
L 413.996411 127.627517 
L 416.15471 124.985674 
L 418.313009 122.825312 
L 420.471308 120.373252 
L 422.629607 118.480317 
L 424.787906 118.2105 
L 426.946205 120.158405 
L 429.104504 120.883321 
L 431.262803 121.463021 
L 433.421101 124.40269 
L 435.5794 127.185326 
L 437.737699 128.111083 
L 439.895998 129.826862 
L 442.054297 130.925451 
L 444.212596 131.162338 
L 446.370895 133.02169 
L 448.529194 134.725574 
L 450.687493 135.130507 
L 452.845792 134.549943 
L 455.00409 133.66664 
L 457.162389 132.338629 
L 459.320688 131.113972 
L 461.478987 131.714916 
L 463.637286 133.394316 
L 465.795585 134.396855 
L 467.953884 135.521426 
L 470.112183 134.784418 
" clip-path="url(#p9eaf834300)" style="fill: none; stroke: #1f77b4; stroke-width: 1.3; stroke-linecap: square"/>
   </g>
   <g id="line2d_24">
    <path d="M 280.18188 142.412367 
L 282.340179 138.977051 
L 284.498478 133.192578 
L 286.656776 128.161776 
L 288.815075 127.579022 
L 290.973374 130.665426 
L 293.131673 137.015785 
L 295.289972 143.72742 
L 297.448271 143.034503 
L 299.60657 137.697725 
L 301.764869 129.419506 
L 303.923168 124.367712 
L 306.081467 121.807832 
L 308.239765 123.097538 
L 310.398064 126.223989 
L 312.556363 130.231475 
L 314.714662 137.452707 
L 316.872961 139.648862 
L 319.03126 137.94964 
L 321.189559 139.694019 
L 323.347858 142.839566 
L 325.506157 138.759346 
L 327.664455 133.236775 
L 329.822754 130.934057 
L 331.981053 126.866738 
L 334.139352 124.8329 
L 336.297651 120.840191 
L 338.45595 115.900116 
L 340.614249 113.98171 
L 342.772548 114.178298 
L 344.930847 117.118381 
L 347.089146 118.854207 
L 349.247444 119.725772 
L 351.405743 116.486563 
L 353.564042 114.98367 
L 355.722341 117.973379 
L 357.88064 118.507413 
L 360.038939 116.873747 
L 362.197238 113.258317 
L 364.355537 112.126967 
L 366.513836 117.090318 
L 368.672135 122.86849 
L 370.830433 124.805286 
L 372.988732 125.426339 
L 375.147031 122.238945 
L 377.30533 116.84596 
L 379.463629 112.481538 
L 381.621928 110.821158 
L 383.780227 110.913437 
L 385.938526 112.40139 
L 388.096825 117.080879 
L 390.255124 117.219952 
L 392.413422 110.566339 
L 394.571721 103.844778 
L 396.73002 101.626343 
L 398.888319 107.146539 
L 401.046618 110.237436 
L 403.204917 111.489682 
L 405.363216 117.97552 
L 407.521515 124.570364 
L 409.679814 125.230402 
L 411.838113 123.194723 
L 413.996411 121.818877 
L 416.15471 120.384939 
L 418.313009 118.676732 
L 420.471308 119.659511 
L 422.629607 126.788447 
L 424.787906 129.714381 
L 426.946205 126.491824 
L 429.104504 122.520123 
L 431.262803 122.481802 
L 433.421101 122.360944 
L 435.5794 119.053366 
L 437.737699 120.797111 
L 439.895998 125.649454 
L 442.054297 127.933537 
L 444.212596 127.252833 
L 446.370895 127.726075 
L 448.529194 127.548341 
L 450.687493 127.631873 
L 452.845792 130.057253 
L 455.00409 134.115998 
L 457.162389 138.200721 
L 459.320688 140.339158 
L 461.478987 138.054663 
L 463.637286 132.515996 
L 465.795585 127.808855 
L 467.953884 126.898916 
L 470.112183 126.413593 
" clip-path="url(#p9eaf834300)" style="fill: none; stroke: #ff7f0e; stroke-width: 1.3; stroke-linecap: square"/>
   </g>
   <g id="patch_12">
    <path d="M 270.685365 182.68 
L 270.685365 59.28 
" style="fill: none; stroke: #000000; stroke-width: 0.8; stroke-linejoin: miter; stroke-linecap: square"/>
   </g>
   <g id="patch_13">
    <path d="M 479.608698 182.68 
L 479.608698 59.28 
" style="fill: none; stroke: #000000; stroke-width: 0.8; stroke-linejoin: miter; stroke-linecap: square"/>
   </g>
   <g id="patch_14">
    <path d="M 270.685365 182.68 
L 479.608698 182.68 
" style="fill: none; stroke: #000000; stroke-width: 0.8; stroke-linejoin: miter; stroke-linecap: square"/>
   </g>
   <g id="patch_15">
    <path d="M 270.685365 59.28 
L 479.608698 59.28 
" style="fill: none; stroke: #000000; stroke-width: 0.8; stroke-linejoin: miter; stroke-linecap: square"/>
   </g>
   <g id="text_20">
    <!-- Cz -->
    <g transform="translate(369.642969 53.28) scale(0.09 -0.09)">
     <use xlink:href="#DejaVuSans-43"/>
     <use xlink:href="#DejaVuSans-7a" transform="translate(69.824219 0)"/>
    </g>
   </g>
  </g>
  <g id="axes_3">
   <g id="patch_16">
    <path d="M 505.108698 182.68 
L 714.032031 182.68 
L 714.032031 59.28 
L 505.108698 59.28 
L 505.108698 182.68 
z
" style="fill: none"/>
   </g>
   <g id="patch_17">
    <path d="M 544.821398 182.68 
L 566.404387 182.68 
L 566.404387 59.28 
L 544.821398 59.28 
z
" clip-path="url(#p1cf1342cff)" style="fill: #d9d9d9; stroke: #d9d9d9; stroke-linejoin: miter"/>
   </g>
   <g id="patch_18">
    <path d="M 566.404387 182.68 
L 639.786549 182.68 
L 639.786549 59.28 
L 566.404387 59.28 
z
" clip-path="url(#p1cf1342cff)" style="fill: #ebebeb; stroke: #ebebeb; stroke-linejoin: miter"/>
   </g>
   <g id="FillBetweenPolyCollection_5">
    <defs>
     <path id="m96518e7f5f" d="M 514.605213 -113.910415 
L 514.605213 -79.769392 
L 516.763512 -81.491898 
L 518.921811 -81.859528 
L 521.08011 -79.25547 
L 523.238409 -77.956893 
L 525.396708 -82.071532 
L 527.555006 -83.867404 
L 529.713305 -80.597322 
L 531.871604 -79.15662 
L 534.029903 -78.784596 
L 536.188202 -78.99656 
L 538.346501 -80.309913 
L 540.5048 -80.302363 
L 542.663099 -76.508822 
L 544.821398 -69.118247 
L 546.979697 -64.328737 
L 549.137995 -61.596758 
L 551.296294 -58.158943 
L 553.454593 -51.226138 
L 555.612892 -47.070073 
L 557.771191 -50.042388 
L 559.92949 -58.641593 
L 562.087789 -59.890036 
L 564.246088 -55.236401 
L 566.404387 -56.009766 
L 568.562686 -56.643546 
L 570.720984 -57.173621 
L 572.879283 -62.593931 
L 575.037582 -67.454052 
L 577.195881 -69.966642 
L 579.35418 -69.306847 
L 581.512479 -69.952053 
L 583.670778 -70.625631 
L 585.829077 -69.982339 
L 587.987376 -67.42464 
L 590.145675 -64.525865 
L 592.303973 -65.429968 
L 594.462272 -67.931235 
L 596.620571 -69.418741 
L 598.77887 -70.518868 
L 600.937169 -73.583879 
L 603.095468 -74.852021 
L 605.253767 -72.138147 
L 607.412066 -69.735688 
L 609.570365 -71.776885 
L 611.728663 -76.138537 
L 613.886962 -74.403817 
L 616.045261 -71.660371 
L 618.20356 -71.499281 
L 620.361859 -70.647742 
L 622.520158 -69.571815 
L 624.678457 -67.005162 
L 626.836756 -62.72935 
L 628.995055 -61.716031 
L 631.153354 -62.172889 
L 633.311652 -62.108974 
L 635.469951 -60.892252 
L 637.62825 -63.636199 
L 639.786549 -67.195748 
L 641.944848 -65.512053 
L 644.103147 -64.299106 
L 646.261446 -65.997427 
L 648.419745 -72.030227 
L 650.578044 -73.980599 
L 652.736343 -75.861537 
L 654.894641 -78.852954 
L 657.05294 -75.235618 
L 659.211239 -73.994089 
L 661.369538 -74.094905 
L 663.527837 -72.083514 
L 665.686136 -66.69045 
L 667.844435 -62.713188 
L 670.002734 -61.903307 
L 672.161033 -60.292947 
L 674.319332 -59.379552 
L 676.47763 -60.347559 
L 678.635929 -61.58477 
L 680.794228 -64.071846 
L 682.952527 -65.377118 
L 685.110826 -67.558943 
L 687.269125 -65.065777 
L 689.427424 -60.87013 
L 691.585723 -60.232369 
L 693.744022 -60.124818 
L 695.902321 -60.763869 
L 698.060619 -63.719596 
L 700.218918 -65.397011 
L 702.377217 -64.384401 
L 704.535516 -60.515092 
L 704.535516 -104.738473 
L 704.535516 -104.738473 
L 702.377217 -102.329858 
L 700.218918 -104.414745 
L 698.060619 -109.38023 
L 695.902321 -110.525424 
L 693.744022 -108.401086 
L 691.585723 -105.048877 
L 689.427424 -102.590561 
L 687.269125 -103.815479 
L 685.110826 -106.005089 
L 682.952527 -109.11602 
L 680.794228 -108.935325 
L 678.635929 -108.080332 
L 676.47763 -108.785775 
L 674.319332 -109.961484 
L 672.161033 -108.146347 
L 670.002734 -104.830267 
L 667.844435 -100.134052 
L 665.686136 -98.061972 
L 663.527837 -100.117649 
L 661.369538 -105.165747 
L 659.211239 -108.474447 
L 657.05294 -107.456708 
L 654.894641 -105.003746 
L 652.736343 -107.593796 
L 650.578044 -109.014826 
L 648.419745 -109.327097 
L 646.261446 -109.901155 
L 644.103147 -112.580159 
L 641.944848 -114.449322 
L 639.786549 -116.150661 
L 637.62825 -117.387414 
L 635.469951 -118.530994 
L 633.311652 -117.749813 
L 631.153354 -117.094414 
L 628.995055 -114.66923 
L 626.836756 -115.417125 
L 624.678457 -117.833742 
L 622.520158 -113.838183 
L 620.361859 -109.377913 
L 618.20356 -109.127882 
L 616.045261 -111.147432 
L 613.886962 -114.927536 
L 611.728663 -117.794876 
L 609.570365 -119.464953 
L 607.412066 -116.182194 
L 605.253767 -113.42666 
L 603.095468 -117.185675 
L 600.937169 -119.797259 
L 598.77887 -117.81673 
L 596.620571 -112.09009 
L 594.462272 -108.62966 
L 592.303973 -109.922729 
L 590.145675 -112.344662 
L 587.987376 -112.466189 
L 585.829077 -110.864656 
L 583.670778 -109.866318 
L 581.512479 -112.956843 
L 579.35418 -116.04582 
L 577.195881 -118.072422 
L 575.037582 -118.286348 
L 572.879283 -115.121906 
L 570.720984 -111.112468 
L 568.562686 -105.763596 
L 566.404387 -104.759476 
L 564.246088 -103.260213 
L 562.087789 -107.521845 
L 559.92949 -123.437415 
L 557.771191 -142.789487 
L 555.612892 -150.508097 
L 553.454593 -140.09792 
L 551.296294 -119.718492 
L 549.137995 -108.484172 
L 546.979697 -108.162535 
L 544.821398 -107.643764 
L 542.663099 -107.088778 
L 540.5048 -105.429143 
L 538.346501 -101.435347 
L 536.188202 -101.619038 
L 534.029903 -103.523461 
L 531.871604 -105.686745 
L 529.713305 -105.153626 
L 527.555006 -103.48479 
L 525.396708 -106.260436 
L 523.238409 -108.410347 
L 521.08011 -110.25653 
L 518.921811 -111.828069 
L 516.763512 -112.532644 
L 514.605213 -113.910415 
z
" style="stroke: #1f77b4; stroke-opacity: 0.15"/>
    </defs>
    <g clip-path="url(#p1cf1342cff)">
     <use xlink:href="#m96518e7f5f" x="0" y="215.397188" style="fill: #1f77b4; fill-opacity: 0.15; stroke: #1f77b4; stroke-opacity: 0.15"/>
    </g>
   </g>
   <g id="FillBetweenPolyCollection_6">
    <defs>
     <path id="m19e9936886" d="M 514.605213 -114.269261 
L 514.605213 -68.112259 
L 516.763512 -70.320817 
L 518.921811 -68.831452 
L 521.08011 -70.658629 
L 523.238409 -79.250882 
L 525.396708 -81.216431 
L 527.555006 -76.068032 
L 529.713305 -74.261329 
L 531.871604 -77.960931 
L 534.029903 -80.170735 
L 536.188202 -81.886508 
L 538.346501 -85.169022 
L 540.5048 -91.483406 
L 542.663099 -92.194497 
L 544.821398 -81.455674 
L 546.979697 -68.57607 
L 549.137995 -62.984697 
L 551.296294 -68.334476 
L 553.454593 -76.727959 
L 555.612892 -86.367831 
L 557.771191 -89.463096 
L 559.92949 -88.695192 
L 562.087789 -92.924525 
L 564.246088 -91.521433 
L 566.404387 -89.246074 
L 568.562686 -82.993587 
L 570.720984 -83.058576 
L 572.879283 -86.612661 
L 575.037582 -88.732208 
L 577.195881 -85.435486 
L 579.35418 -88.836286 
L 581.512479 -90.030083 
L 583.670778 -89.574699 
L 585.829077 -92.944315 
L 587.987376 -89.892906 
L 590.145675 -83.939075 
L 592.303973 -85.428969 
L 594.462272 -93.646524 
L 596.620571 -92.100052 
L 598.77887 -85.61065 
L 600.937169 -80.749971 
L 603.095468 -76.665729 
L 605.253767 -72.043078 
L 607.412066 -70.693599 
L 609.570365 -78.836681 
L 611.728663 -87.098946 
L 613.886962 -89.416471 
L 616.045261 -87.524419 
L 618.20356 -85.925217 
L 620.361859 -77.254408 
L 622.520158 -67.762601 
L 624.678457 -67.196533 
L 626.836756 -67.920627 
L 628.995055 -70.675767 
L 631.153354 -79.00565 
L 633.311652 -80.981998 
L 635.469951 -80.928822 
L 637.62825 -80.33743 
L 639.786549 -79.260254 
L 641.944848 -83.493933 
L 644.103147 -81.785104 
L 646.261446 -75.90941 
L 648.419745 -75.907551 
L 650.578044 -79.795538 
L 652.736343 -75.876305 
L 654.894641 -69.834867 
L 657.05294 -66.248229 
L 659.211239 -64.503009 
L 661.369538 -68.204362 
L 663.527837 -71.831293 
L 665.686136 -73.95058 
L 667.844435 -74.984452 
L 670.002734 -72.460386 
L 672.161033 -75.274284 
L 674.319332 -70.803125 
L 676.47763 -64.833186 
L 678.635929 -67.995995 
L 680.794228 -70.71825 
L 682.952527 -65.304317 
L 685.110826 -56.445674 
L 687.269125 -56.023493 
L 689.427424 -61.857638 
L 691.585723 -66.367108 
L 693.744022 -63.183306 
L 695.902321 -64.72553 
L 698.060619 -64.664628 
L 700.218918 -64.383178 
L 702.377217 -61.282626 
L 704.535516 -58.845568 
L 704.535516 -127.035923 
L 704.535516 -127.035923 
L 702.377217 -116.42042 
L 700.218918 -106.378355 
L 698.060619 -98.282552 
L 695.902321 -96.966508 
L 693.744022 -97.332126 
L 691.585723 -96.510658 
L 689.427424 -99.281622 
L 687.269125 -102.111148 
L 685.110826 -104.189738 
L 682.952527 -103.649776 
L 680.794228 -101.535025 
L 678.635929 -103.738536 
L 676.47763 -113.073744 
L 674.319332 -121.531715 
L 672.161033 -123.985928 
L 670.002734 -123.709686 
L 667.844435 -118.628884 
L 665.686136 -110.790372 
L 663.527837 -107.992722 
L 661.369538 -109.173442 
L 659.211239 -110.598632 
L 657.05294 -114.840378 
L 654.894641 -114.403628 
L 652.736343 -119.517263 
L 650.578044 -122.802582 
L 648.419745 -120.483131 
L 646.261446 -114.796917 
L 644.103147 -104.024499 
L 641.944848 -103.667507 
L 639.786549 -111.052612 
L 637.62825 -119.103599 
L 635.469951 -119.942638 
L 633.311652 -115.738714 
L 631.153354 -112.435266 
L 628.995055 -111.857381 
L 626.836756 -110.788312 
L 624.678457 -113.636274 
L 622.520158 -112.738409 
L 620.361859 -111.530702 
L 618.20356 -116.557314 
L 616.045261 -119.703138 
L 613.886962 -121.045686 
L 611.728663 -123.680119 
L 609.570365 -131.577197 
L 607.412066 -134.669423 
L 605.253767 -127.512964 
L 603.095468 -124.960713 
L 600.937169 -131.307236 
L 598.77887 -132.616917 
L 596.620571 -131.301356 
L 594.462272 -130.52063 
L 592.303973 -130.422297 
L 590.145675 -126.36875 
L 587.987376 -123.594223 
L 585.829077 -120.694673 
L 583.670778 -119.239968 
L 581.512479 -122.082628 
L 579.35418 -126.959083 
L 577.195881 -125.283056 
L 575.037582 -116.847782 
L 572.879283 -113.518645 
L 570.720984 -106.642816 
L 568.562686 -103.041473 
L 566.404387 -103.076823 
L 564.246088 -116.451709 
L 562.087789 -111.439932 
L 559.92949 -112.215817 
L 557.771191 -116.084439 
L 555.612892 -120.163958 
L 553.454593 -124.54758 
L 551.296294 -125.657239 
L 549.137995 -127.083709 
L 546.979697 -128.746526 
L 544.821398 -127.926762 
L 542.663099 -121.42516 
L 540.5048 -112.744344 
L 538.346501 -106.255259 
L 536.188202 -98.697337 
L 534.029903 -99.298151 
L 531.871604 -103.192257 
L 529.713305 -104.837756 
L 527.555006 -106.567512 
L 525.396708 -106.916746 
L 523.238409 -107.78291 
L 521.08011 -107.650723 
L 518.921811 -107.126458 
L 516.763512 -110.124251 
L 514.605213 -114.269261 
z
" style="stroke: #ff7f0e; stroke-opacity: 0.15"/>
    </defs>
    <g clip-path="url(#p1cf1342cff)">
     <use xlink:href="#m19e9936886" x="0" y="215.397188" style="fill: #ff7f0e; fill-opacity: 0.15; stroke: #ff7f0e; stroke-opacity: 0.15"/>
    </g>
   </g>
   <g id="line2d_25">
    <path d="M 505.108698 116.43016 
L 714.032031 116.43016 
" clip-path="url(#p1cf1342cff)" style="fill: none; stroke-dasharray: 2.96,1.28; stroke-dashoffset: 0; stroke: #000000; stroke-width: 0.8"/>
   </g>
   <g id="matplotlib.axis_5">
    <g id="xtick_11">
     <g id="line2d_26">
      <g>
       <use xlink:href="#m277751bad1" x="510.288615" y="182.68" style="stroke: #000000; stroke-width: 0.8"/>
      </g>
     </g>
     <g id="text_21">
      <!-- 0 -->
      <g transform="translate(508.06174 194.998906) scale(0.07 -0.07)">
       <use xlink:href="#DejaVuSans-30"/>
      </g>
     </g>
    </g>
    <g id="xtick_12">
     <g id="line2d_27">
      <g>
       <use xlink:href="#m277751bad1" x="553.454593" y="182.68" style="stroke: #000000; stroke-width: 0.8"/>
      </g>
     </g>
     <g id="text_22">
      <!-- 10 -->
      <g transform="translate(549.000843 194.998906) scale(0.07 -0.07)">
       <use xlink:href="#DejaVuSans-31"/>
       <use xlink:href="#DejaVuSans-30" transform="translate(63.623047 0)"/>
      </g>
     </g>
    </g>
    <g id="xtick_13">
     <g id="line2d_28">
      <g>
       <use xlink:href="#m277751bad1" x="596.620571" y="182.68" style="stroke: #000000; stroke-width: 0.8"/>
      </g>
     </g>
     <g id="text_23">
      <!-- 20 -->
      <g transform="translate(592.166821 194.998906) scale(0.07 -0.07)">
       <use xlink:href="#DejaVuSans-32"/>
       <use xlink:href="#DejaVuSans-30" transform="translate(63.623047 0)"/>
      </g>
     </g>
    </g>
    <g id="xtick_14">
     <g id="line2d_29">
      <g>
       <use xlink:href="#m277751bad1" x="639.786549" y="182.68" style="stroke: #000000; stroke-width: 0.8"/>
      </g>
     </g>
     <g id="text_24">
      <!-- 30 -->
      <g transform="translate(635.332799 194.998906) scale(0.07 -0.07)">
       <use xlink:href="#DejaVuSans-33"/>
       <use xlink:href="#DejaVuSans-30" transform="translate(63.623047 0)"/>
      </g>
     </g>
    </g>
    <g id="xtick_15">
     <g id="line2d_30">
      <g>
       <use xlink:href="#m277751bad1" x="682.952527" y="182.68" style="stroke: #000000; stroke-width: 0.8"/>
      </g>
     </g>
     <g id="text_25">
      <!-- 40 -->
      <g transform="translate(678.498777 194.998906) scale(0.07 -0.07)">
       <use xlink:href="#DejaVuSans-34"/>
       <use xlink:href="#DejaVuSans-30" transform="translate(63.623047 0)"/>
      </g>
     </g>
    </g>
    <g id="text_26">
     <!-- Frequency (Hz) -->
     <g transform="translate(579.406615 206.533437) scale(0.08 -0.08)">
      <use xlink:href="#DejaVuSans-46"/>
      <use xlink:href="#DejaVuSans-72" transform="translate(50.269531 0)"/>
      <use xlink:href="#DejaVuSans-65" transform="translate(89.132812 0)"/>
      <use xlink:href="#DejaVuSans-71" transform="translate(150.65625 0)"/>
      <use xlink:href="#DejaVuSans-75" transform="translate(214.132812 0)"/>
      <use xlink:href="#DejaVuSans-65" transform="translate(277.511719 0)"/>
      <use xlink:href="#DejaVuSans-6e" transform="translate(339.035156 0)"/>
      <use xlink:href="#DejaVuSans-63" transform="translate(402.414062 0)"/>
      <use xlink:href="#DejaVuSans-79" transform="translate(457.394531 0)"/>
      <use xlink:href="#DejaVuSans-20" transform="translate(516.574219 0)"/>
      <use xlink:href="#DejaVuSans-28" transform="translate(548.361328 0)"/>
      <use xlink:href="#DejaVuSans-48" transform="translate(587.375 0)"/>
      <use xlink:href="#DejaVuSans-7a" transform="translate(662.570312 0)"/>
      <use xlink:href="#DejaVuSans-29" transform="translate(715.060547 0)"/>
     </g>
    </g>
   </g>
   <g id="matplotlib.axis_6">
    <g id="ytick_9">
     <g id="line2d_31">
      <g>
       <use xlink:href="#m5bcbc3543d" x="505.108698" y="176.104131" style="stroke: #000000; stroke-width: 0.8"/>
      </g>
     </g>
    </g>
    <g id="ytick_10">
     <g id="line2d_32">
      <g>
       <use xlink:href="#m5bcbc3543d" x="505.108698" y="146.267146" style="stroke: #000000; stroke-width: 0.8"/>
      </g>
     </g>
    </g>
    <g id="ytick_11">
     <g id="line2d_33">
      <g>
       <use xlink:href="#m5bcbc3543d" x="505.108698" y="116.43016" style="stroke: #000000; stroke-width: 0.8"/>
      </g>
     </g>
    </g>
    <g id="ytick_12">
     <g id="line2d_34">
      <g>
       <use xlink:href="#m5bcbc3543d" x="505.108698" y="86.593175" style="stroke: #000000; stroke-width: 0.8"/>
      </g>
     </g>
    </g>
    <g id="text_27">
     <!-- ERD/ERS (dB) -->
     <g transform="translate(495.944948 148.236875) rotate(-90) scale(0.08 -0.08)">
      <use xlink:href="#DejaVuSans-45"/>
      <use xlink:href="#DejaVuSans-52" transform="translate(63.183594 0)"/>
      <use xlink:href="#DejaVuSans-44" transform="translate(132.666016 0)"/>
      <use xlink:href="#DejaVuSans-2f" transform="translate(209.667969 0)"/>
      <use xlink:href="#DejaVuSans-45" transform="translate(243.359375 0)"/>
      <use xlink:href="#DejaVuSans-52" transform="translate(306.542969 0)"/>
      <use xlink:href="#DejaVuSans-53" transform="translate(376.025391 0)"/>
      <use xlink:href="#DejaVuSans-20" transform="translate(439.501953 0)"/>
      <use xlink:href="#DejaVuSans-28" transform="translate(471.289062 0)"/>
      <use xlink:href="#DejaVuSans-64" transform="translate(510.302734 0)"/>
      <use xlink:href="#DejaVuSans-42" transform="translate(573.779297 0)"/>
      <use xlink:href="#DejaVuSans-29" transform="translate(642.382812 0)"/>
     </g>
    </g>
   </g>
   <g id="line2d_35">
    <path d="M 514.605213 118.557284 
L 516.763512 118.384916 
L 518.921811 118.553389 
L 521.08011 120.641188 
L 523.238409 122.213568 
L 525.396708 121.231204 
L 527.555006 121.721091 
L 529.713305 122.521714 
L 531.871604 122.975505 
L 534.029903 124.243159 
L 536.188202 125.089389 
L 538.346501 124.524557 
L 540.5048 122.531435 
L 542.663099 123.598388 
L 544.821398 127.016182 
L 546.979697 129.151552 
L 549.137995 130.356723 
L 551.296294 126.45847 
L 553.454593 119.735159 
L 555.612892 116.608103 
L 557.771191 118.98125 
L 559.92949 124.357683 
L 562.087789 131.691247 
L 564.246088 136.148881 
L 566.404387 135.012566 
L 568.562686 134.193616 
L 570.720984 131.254143 
L 572.879283 126.539269 
L 575.037582 122.526988 
L 577.195881 121.377656 
L 579.35418 122.720854 
L 581.512479 123.942739 
L 583.670778 125.151213 
L 585.829077 124.97369 
L 587.987376 125.451773 
L 590.145675 126.961924 
L 592.303973 127.720839 
L 594.462272 127.11674 
L 596.620571 124.642772 
L 598.77887 121.229389 
L 600.937169 118.706618 
L 603.095468 119.378339 
L 605.253767 122.614784 
L 607.412066 122.438247 
L 609.570365 119.776268 
L 611.728663 118.430481 
L 613.886962 120.731511 
L 616.045261 123.993286 
L 618.20356 125.083606 
L 620.361859 125.38436 
L 622.520158 123.692189 
L 624.678457 122.977736 
L 626.836756 126.32395 
L 628.995055 127.204557 
L 631.153354 125.763536 
L 633.311652 125.467794 
L 635.469951 125.685565 
L 637.62825 124.885381 
L 639.786549 123.723983 
L 641.944848 125.4165 
L 644.103147 126.957555 
L 646.261446 127.447897 
L 648.419745 124.718525 
L 650.578044 123.899475 
L 652.736343 123.669521 
L 654.894641 123.468838 
L 657.05294 124.051025 
L 659.211239 124.162919 
L 661.369538 125.766861 
L 663.527837 129.296606 
L 665.686136 133.020976 
L 667.844435 133.973567 
L 670.002734 132.030401 
L 672.161033 131.177541 
L 674.319332 130.726669 
L 676.47763 130.830521 
L 678.635929 130.564637 
L 680.794228 128.893602 
L 682.952527 128.150618 
L 685.110826 128.615172 
L 687.269125 130.956559 
L 689.427424 133.666842 
L 691.585723 132.756565 
L 693.744022 131.134235 
L 695.902321 129.752541 
L 698.060619 128.847275 
L 700.218918 130.49131 
L 702.377217 132.040058 
L 704.535516 132.770405 
" clip-path="url(#p1cf1342cff)" style="fill: none; stroke: #1f77b4; stroke-width: 1.3; stroke-linecap: square"/>
   </g>
   <g id="line2d_36">
    <path d="M 514.605213 124.206427 
L 516.763512 125.174653 
L 518.921811 127.418232 
L 521.08011 126.242512 
L 523.238409 121.880292 
L 525.396708 121.330599 
L 527.555006 124.079415 
L 529.713305 125.847645 
L 531.871604 124.820594 
L 534.029903 125.662744 
L 536.188202 125.105265 
L 538.346501 119.685047 
L 540.5048 113.283312 
L 542.663099 108.587359 
L 544.821398 110.70597 
L 546.979697 116.735889 
L 549.137995 120.362984 
L 551.296294 118.40133 
L 553.454593 114.759418 
L 555.612892 112.131293 
L 557.771191 112.62342 
L 559.92949 114.941683 
L 562.087789 113.214959 
L 564.246088 111.410617 
L 566.404387 119.235739 
L 568.562686 122.379657 
L 570.720984 120.546491 
L 572.879283 115.331534 
L 575.037582 112.607193 
L 577.195881 110.037916 
L 579.35418 107.499503 
L 581.512479 109.340832 
L 583.670778 110.989854 
L 585.829077 108.577694 
L 587.987376 108.653623 
L 590.145675 110.243275 
L 592.303973 107.471555 
L 594.462272 103.31361 
L 596.620571 103.696483 
L 598.77887 106.283404 
L 600.937169 109.368584 
L 603.095468 114.583966 
L 605.253767 115.619167 
L 607.412066 112.715676 
L 609.570365 110.190249 
L 611.728663 110.007655 
L 613.886962 110.166109 
L 616.045261 111.783409 
L 618.20356 114.155922 
L 620.361859 121.004633 
L 622.520158 125.146682 
L 624.678457 124.980784 
L 626.836756 126.042718 
L 628.995055 124.130614 
L 631.153354 119.676729 
L 633.311652 117.036832 
L 635.469951 114.961457 
L 637.62825 115.676673 
L 639.786549 120.240754 
L 641.944848 121.816468 
L 644.103147 122.492386 
L 646.261446 120.044024 
L 648.419745 117.201846 
L 650.578044 114.098128 
L 652.736343 117.700404 
L 654.894641 123.27794 
L 657.05294 124.852884 
L 659.211239 127.846367 
L 661.369538 126.708286 
L 663.527837 125.48518 
L 665.686136 123.026712 
L 667.844435 118.59052 
L 670.002734 117.312151 
L 672.161033 115.767082 
L 674.319332 119.229768 
L 676.47763 126.443722 
L 678.635929 129.529922 
L 680.794228 129.27055 
L 682.952527 130.920141 
L 685.110826 135.079481 
L 687.269125 136.329867 
L 689.427424 134.827557 
L 691.585723 133.958305 
L 693.744022 135.139471 
L 695.902321 134.551168 
L 698.060619 133.923598 
L 700.218918 130.016421 
L 702.377217 126.545664 
L 704.535516 122.456442 
" clip-path="url(#p1cf1342cff)" style="fill: none; stroke: #ff7f0e; stroke-width: 1.3; stroke-linecap: square"/>
   </g>
   <g id="patch_19">
    <path d="M 505.108698 182.68 
L 505.108698 59.28 
" style="fill: none; stroke: #000000; stroke-width: 0.8; stroke-linejoin: miter; stroke-linecap: square"/>
   </g>
   <g id="patch_20">
    <path d="M 714.032031 182.68 
L 714.032031 59.28 
" style="fill: none; stroke: #000000; stroke-width: 0.8; stroke-linejoin: miter; stroke-linecap: square"/>
   </g>
   <g id="patch_21">
    <path d="M 505.108698 182.68 
L 714.032031 182.68 
" style="fill: none; stroke: #000000; stroke-width: 0.8; stroke-linejoin: miter; stroke-linecap: square"/>
   </g>
   <g id="patch_22">
    <path d="M 505.108698 59.28 
L 714.032031 59.28 
" style="fill: none; stroke: #000000; stroke-width: 0.8; stroke-linejoin: miter; stroke-linecap: square"/>
   </g>
   <g id="text_28">
    <!-- C4 -->
    <g transform="translate(603.564974 53.28) scale(0.09 -0.09)">
     <use xlink:href="#DejaVuSans-43"/>
     <use xlink:href="#DejaVuSans-34" transform="translate(69.824219 0)"/>
    </g>
   </g>
  </g>
  <g id="text_29">
   <!-- ERD/ERS — MI — group (Movement vs Rest) -->
   <g transform="translate(236.357891 15.558281) scale(0.11 -0.11)">
    <defs>
     <path id="DejaVuSans-2014" d="M 313 1978 
L 6088 1978 
L 6088 1528 
L 313 1528 
L 313 1978 
z
" transform="scale(0.015625)"/>
     <path id="DejaVuSans-4d" d="M 628 4666 
L 1569 4666 
L 2759 1491 
L 3956 4666 
L 4897 4666 
L 4897 0 
L 4281 0 
L 4281 4097 
L 3078 897 
L 2444 897 
L 1241 4097 
L 1241 0 
L 628 0 
L 628 4666 
z
" transform="scale(0.015625)"/>
     <path id="DejaVuSans-49" d="M 628 4666 
L 1259 4666 
L 1259 0 
L 628 0 
L 628 4666 
z
" transform="scale(0.015625)"/>
     <path id="DejaVuSans-67" d="M 2906 1791 
Q 2906 2416 2648 2759 
Q 2391 3103 1925 3103 
Q 1463 3103 1205 2759 
Q 947 2416 947 1791 
Q 947 1169 1205 825 
Q 1463 481 1925 481 
Q 2391 481 2648 825 
Q 2906 1169 2906 1791 
z
M 3481 434 
Q 3481 -459 3084 -895 
Q 2688 -1331 1869 -1331 
Q 1566 -1331 1297 -1286 
Q 1028 -1241 775 -1147 
L 775 -588 
Q 1028 -725 1275 -790 
Q 1522 -856 1778 -856 
Q 2344 -856 2625 -561 
Q 2906 -266 2906 331 
L 2906 616 
Q 2728 306 2450 153 
Q 2172 0 1784 0 
Q 1141 0 747 490 
Q 353 981 353 1791 
Q 353 2603 747 3093 
Q 1141 3584 1784 3584 
Q 2172 3584 2450 3431 
Q 2728 3278 2906 2969 
L 2906 3500 
L 3481 3500 
L 3481 434 
z
" transform="scale(0.015625)"/>
     <path id="DejaVuSans-6f" d="M 1959 3097 
Q 1497 3097 1228 2736 
Q 959 2375 959 1747 
Q 959 1119 1226 758 
Q 1494 397 1959 397 
Q 2419 397 2687 759 
Q 2956 1122 2956 1747 
Q 2956 2369 2687 2733 
Q 2419 3097 1959 3097 
z
M 1959 3584 
Q 2709 3584 3137 3096 
Q 3566 2609 3566 1747 
Q 3566 888 3137 398 
Q 2709 -91 1959 -91 
Q 1206 -91 779 398 
Q 353 888 353 1747 
Q 353 2609 779 3096 
Q 1206 3584 1959 3584 
z
" transform="scale(0.015625)"/>
     <path id="DejaVuSans-70" d="M 1159 525 
L 1159 -1331 
L 581 -1331 
L 581 3500 
L 1159 3500 
L 1159 2969 
Q 1341 3281 1617 3432 
Q 1894 3584 2278 3584 
Q 2916 3584 3314 3078 
Q 3713 2572 3713 1747 
Q 3713 922 3314 415 
Q 2916 -91 2278 -91 
Q 1894 -91 1617 61 
Q 1341 213 1159 525 
z
M 3116 1747 
Q 3116 2381 2855 2742 
Q 2594 3103 2138 3103 
Q 1681 3103 1420 2742 
Q 1159 2381 1159 1747 
Q 1159 1113 1420 752 
Q 1681 391 2138 391 
Q 2594 391 2855 752 
Q 3116 1113 3116 1747 
z
" transform="scale(0.015625)"/>
     <path id="DejaVuSans-76" d="M 191 3500 
L 800 3500 
L 1894 563 
L 2988 3500 
L 3597 3500 
L 2284 0 
L 1503 0 
L 191 3500 
z
" transform="scale(0.015625)"/>
     <path id="DejaVuSans-6d" d="M 3328 2828 
Q 3544 3216 3844 3400 
Q 4144 3584 4550 3584 
Q 5097 3584 5394 3201 
Q 5691 2819 5691 2113 
L 5691 0 
L 5113 0 
L 5113 2094 
Q 5113 2597 4934 2840 
Q 4756 3084 4391 3084 
Q 3944 3084 3684 2787 
Q 3425 2491 3425 1978 
L 3425 0 
L 2847 0 
L 2847 2094 
Q 2847 2600 2669 2842 
Q 2491 3084 2119 3084 
Q 1678 3084 1418 2786 
Q 1159 2488 1159 1978 
L 1159 0 
L 581 0 
L 581 3500 
L 1159 3500 
L 1159 2956 
Q 1356 3278 1631 3431 
Q 1906 3584 2284 3584 
Q 2666 3584 2933 3390 
Q 3200 3197 3328 2828 
z
" transform="scale(0.015625)"/>
     <path id="DejaVuSans-74" d="M 1172 4494 
L 1172 3500 
L 2356 3500 
L 2356 3053 
L 1172 3053 
L 1172 1153 
Q 1172 725 1289 603 
Q 1406 481 1766 481 
L 2356 481 
L 2356 0 
L 1766 0 
Q 1100 0 847 248 
Q 594 497 594 1153 
L 594 3053 
L 172 3053 
L 172 3500 
L 594 3500 
L 594 4494 
L 1172 4494 
z
" transform="scale(0.015625)"/>
     <path id="DejaVuSans-73" d="M 2834 3397 
L 2834 2853 
Q 2591 2978 2328 3040 
Q 2066 3103 1784 3103 
Q 1356 3103 1142 2972 
Q 928 2841 928 2578 
Q 928 2378 1081 2264 
Q 1234 2150 1697 2047 
L 1894 2003 
Q 2506 1872 2764 1633 
Q 3022 1394 3022 966 
Q 3022 478 2636 193 
Q 2250 -91 1575 -91 
Q 1294 -91 989 -36 
Q 684 19 347 128 
L 347 722 
Q 666 556 975 473 
Q 1284 391 1588 391 
Q 1994 391 2212 530 
Q 2431 669 2431 922 
Q 2431 1156 2273 1281 
Q 2116 1406 1581 1522 
L 1381 1569 
Q 847 1681 609 1914 
Q 372 2147 372 2553 
Q 372 3047 722 3315 
Q 1072 3584 1716 3584 
Q 2034 3584 2315 3537 
Q 2597 3491 2834 3397 
z
" transform="scale(0.015625)"/>
    </defs>
    <use xlink:href="#DejaVuSans-45"/>
    <use xlink:href="#DejaVuSans-52" transform="translate(63.183594 0)"/>
    <use xlink:href="#DejaVuSans-44" transform="translate(132.666016 0)"/>
    <use xlink:href="#DejaVuSans-2f" transform="translate(209.667969 0)"/>
    <use xlink:href="#DejaVuSans-45" transform="translate(243.359375 0)"/>
    <use xlink:href="#DejaVuSans-52" transform="translate(306.542969 0)"/>
    <use xlink:href="#DejaVuSans-53" transform="translate(376.025391 0)"/>
    <use xlink:href="#DejaVuSans-20" transform="translate(439.501953 0)"/>
    <use xlink:href="#DejaVuSans-2014" transform="translate(471.289062 0)"/>
    <use xlink:href="#DejaVuSans-20" transform="translate(571.289062 0)"/>
    <use xlink:href="#DejaVuSans-4d" transform="translate(603.076172 0)"/>
    <use xlink:href="#DejaVuSans-49" transform="translate(689.355469 0)"/>
    <use xlink:href="#DejaVuSans-20" transform="translate(718.847656 0)"/>
    <use xlink:href="#DejaVuSans-2014" transform="translate(750.634766 0)"/>
    <use xlink:href="#DejaVuSans-20" transform="translate(850.634766 0)"/>
    <use xlink:href="#DejaVuSans-67" transform="translate(882.421875 0)"/>
    <use xlink:href="#DejaVuSans-72" transform="translate(945.898438 0)"/>
    <use xlink:href="#DejaVuSans-6f" transform="translate(984.761719 0)"/>
    <use xlink:href="#DejaVuSans-75" transform="translate(1045.943359 0)"/>
    <use xlink:href="#DejaVuSans-70" transform="translate(1109.322266 0)"/>
    <use xlink:href="#DejaVuSans-20" transform="translate(1172.798828 0)"/>
    <use xlink:href="#DejaVuSans-28" transform="translate(1204.585938 0)"/>
    <use xlink:href="#DejaVuSans-4d" transform="translate(1243.599609 0)"/>
    <use xlink:href="#DejaVuSans-6f" transform="translate(1329.878906 0)"/>
    <use xlink:href="#DejaVuSans-76" transform="translate(1391.060547 0)"/>
    <use xlink:href="#DejaVuSans-65" transform="translate(1450.240234 0)"/>
    <use xlink:href="#DejaVuSans-6d" transform="translate(1511.763672 0)"/>
    <use xlink:href="#DejaVuSans-65" transform="translate(1609.175781 0)"/>
    <use xlink:href="#DejaVuSans-6e" transform="translate(1670.699219 0)"/>
    <use xlink:href="#DejaVuSans-74" transform="translate(1734.078125 0)"/>
    <use xlink:href="#DejaVuSans-20" transform="translate(1773.287109 0)"/>
    <use xlink:href="#DejaVuSans-76" transform="translate(1805.074219 0)"/>
    <use xlink:href="#DejaVuSans-73" transform="translate(1864.253906 0)"/>
    <use xlink:href="#DejaVuSans-20" transform="translate(1916.353516 0)"/>
    <use xlink:href="#DejaVuSans-52" transform="translate(1948.140625 0)"/>
    <use xlink:href="#DejaVuSans-65" transform="translate(2013.123047 0)"/>
    <use xlink:href="#DejaVuSans-73" transform="translate(2074.646484 0)"/>
    <use xlink:href="#DejaVuSans-74" transform="translate(2126.746094 0)"/>
    <use xlink:href="#DejaVuSans-29" transform="translate(2165.955078 0)"/>
   </g>
  </g>
  <g id="legend_1">
   <g id="patch_23">
    <path d="M 656.780812 30.109375 
L 716.260031 30.109375 
Q 717.660031 30.109375 717.660031 28.709375 
L 717.660031 8.86 
Q 717.660031 7.46 716.260031 7.46 
L 656.780812 7.46 
Q 655.380812 7.46 655.380812 8.86 
L 655.380812 28.709375 
Q 655.380812 30.109375 656.780812 30.109375 
z
" style="fill: #ffffff; opacity: 0.8; stroke: #cccccc; stroke-linejoin: miter"/>
   </g>
   <g id="line2d_37">
    <path d="M 658.180812 13.128906 
L 665.180812 13.128906 
L 672.180812 13.128906 
" style="fill: none; stroke: #1f77b4; stroke-width: 1.3; stroke-linecap: square"/>
   </g>
   <g id="text_30">
    <!-- Movement -->
    <g transform="translate(677.780812 15.578906) scale(0.07 -0.07)">
     <use xlink:href="#DejaVuSans-4d"/>
     <use xlink:href="#DejaVuSans-6f" transform="translate(86.279297 0)"/>
     <use xlink:href="#DejaVuSans-76" transform="translate(147.460938 0)"/>
     <use xlink:href="#DejaVuSans-65" transform="translate(206.640625 0)"/>
     <use xlink:href="#DejaVuSans-6d" transform="translate(268.164062 0)"/>
     <use xlink:href="#DejaVuSans-65" transform="translate(365.576172 0)"/>
     <use xlink:href="#DejaVuSans-6e" transform="translate(427.099609 0)"/>
     <use xlink:href="#DejaVuSans-74" transform="translate(490.478516 0)"/>
    </g>
   </g>
   <g id="line2d_38">
    <path d="M 658.180812 23.403594 
L 665.180812 23.403594 
L 672.180812 23.403594 
" style="fill: none; stroke: #ff7f0e; stroke-width: 1.3; stroke-linecap: square"/>
   </g>
   <g id="text_31">
    <!-- rest -->
    <g transform="translate(677.780812 25.853594) scale(0.07 -0.07)">
     <use xlink:href="#DejaVuSans-72"/>
     <use xlink:href="#DejaVuSans-65" transform="translate(38.863281 0)"/>
     <use xlink:href="#DejaVuSans-73" transform="translate(100.386719 0)"/>
     <use xlink:href="#DejaVuSans-74" transform="translate(152.486328 0)"/>
    </g>
   </g>
  </g>
 </g>
 <defs>
  <clipPath id="pb1f0030746">
   <rect x="36.262031" y="59.28" width="208.923333" height="123.4"/>
  </clipPath>
  <clipPath id="p9eaf834300">
   <rect x="270.685365" y="59.28" width="208.923333" height="123.4"/>
  </clipPath>
  <clipPath id="p1cf1342cff">
   <rect x="505.108698" y="59.28" width="208.923333" height="123.4"/>
  </clipPath>
 </defs>
</svg>
