<?xml version="1.0" encoding="utf-8" standalone="no"?>
<!DOCTYPE svg PUBLIC "-//W3C//DTD SVG 1.1//EN"
  "http://www.w3.org/Graphics/SVG/1.1/DTD/svg11.dtd">
<svg xmlns:xlink="http://www.w3.org/1999/xlink" width="731.430031pt" height="215.397188pt" viewBox="0 0 731.430031 215.397188" xmlns="http://www.w3.org/2000/svg" version="1.1">
 <metadata>
  <rdf:RDF xmlns:dc="http://purl.org/dc/elements/1.1/" xmlns:cc="http://creativecommons.org/ns#" xmlns:rdf="http://www.w3.org/1999/02/22-rdf-syntax-ns#">
   <cc:Work>
    <dc:type rdf:resource="http://purl.org/dc/dcmitype/StillImage"/>
    <dc:date>2026-06-26T22:25:39.548295</dc:date>
    <dc:format>image/svg+xml</dc:format>
    <dc:creator>
     <cc:Agent>
      <dc:title>Matplotlib v3.10.9, https://matplotlib.org/</dc:title>
     </cc:Agent>
    </dc:creator>
   </cc:Work>
  </rdf:RDF>
 </metadata>
 <defs>
  <style type="text/css">*{stroke-linejoin: round; stroke-linecap: butt}</style>
 </defs>
 <g id="figure_1">
  <g id="patch_1">
   <path d="M 0 215.397188 
L 731.430031 215.397188 
L 731.430031 0 
L 0 0 
L 0 215.397188 
z
" style="fill: none"/>
  </g>
  <g id="axes_1">
   <g id="patch_2">
    <path d="M 36.262031 182.68 
L 247.375365 182.68 
L 247.375365 59.28 
L 36.262031 59.28 
L 36.262031 182.68 
z
" style="fill: none"/>
   </g>
   <g id="patch_3">
    <path d="M 76.391012 182.68 
L 98.200241 182.68 
L 98.200241 59.28 
L 76.391012 59.28 
z
" clip-path="url(#p2343962df1)" style="fill: #d9d9d9; stroke: #d9d9d9; stroke-linejoin: miter"/>
   </g>
   <g id="patch_4">
    <path d="M 98.200241 182.68 
L 172.351618 182.68 
L 172.351618 59.28 
L 98.200241 59.28 
z
" clip-path="url(#p2343962df1)" style="fill: #ebebeb; stroke: #ebebeb; stroke-linejoin: miter"/>
   </g>
   <g id="FillBetweenPolyCollection_1">
    <defs>
     <path id="m8540c3900c" d="M 45.858092 -116.395812 
L 45.858092 -88.471563 
L 48.039015 -90.16603 
L 50.219938 -92.298359 
L 52.40086 -89.47816 
L 54.581783 -88.592852 
L 56.762706 -88.288335 
L 58.943629 -85.626929 
L 61.124552 -82.52475 
L 63.305475 -78.69871 
L 65.486398 -76.412293 
L 67.667321 -74.610897 
L 69.848243 -71.834741 
L 72.029166 -67.463305 
L 74.210089 -63.637946 
L 76.391012 -57.09309 
L 78.571935 -49.224427 
L 80.752858 -44.729621 
L 82.933781 -41.683452 
L 85.114703 -38.326278 
L 87.295626 -39.260783 
L 89.476549 -47.491768 
L 91.657472 -58.328316 
L 93.838395 -64.926478 
L 96.019318 -71.460276 
L 98.200241 -74.851235 
L 100.381163 -71.273539 
L 102.562086 -66.350683 
L 104.743009 -64.588113 
L 106.923932 -62.377986 
L 109.104855 -60.400523 
L 111.285778 -57.581285 
L 113.466701 -55.97703 
L 115.647624 -54.636616 
L 117.828546 -52.282657 
L 120.009469 -49.095977 
L 122.190392 -44.798248 
L 124.371315 -43.702233 
L 126.552238 -43.846792 
L 128.733161 -43.663934 
L 130.914084 -45.130624 
L 133.095006 -46.777561 
L 135.275929 -47.15267 
L 137.456852 -48.183964 
L 139.637775 -50.315536 
L 141.818698 -54.542641 
L 143.999621 -60.954716 
L 146.180544 -67.347998 
L 148.361467 -70.41028 
L 150.542389 -72.747793 
L 152.723312 -75.144093 
L 154.904235 -77.572574 
L 157.085158 -80.657921 
L 159.266081 -83.404598 
L 161.447004 -85.436813 
L 163.627927 -85.375581 
L 165.808849 -83.791247 
L 167.989772 -82.072313 
L 170.170695 -82.42008 
L 172.351618 -82.841902 
L 174.532541 -82.854587 
L 176.713464 -81.826709 
L 178.894387 -79.738728 
L 181.075309 -78.863309 
L 183.256232 -78.560611 
L 185.437155 -79.372708 
L 187.618078 -80.533835 
L 189.799001 -80.497081 
L 191.979924 -81.5746 
L 194.160847 -82.267547 
L 196.34177 -82.185548 
L 198.522692 -83.982518 
L 200.703615 -85.722963 
L 202.884538 -87.123782 
L 205.065461 -85.612901 
L 207.246384 -82.801103 
L 209.427307 -82.24907 
L 211.60823 -81.963424 
L 213.789152 -82.828217 
L 215.970075 -86.110857 
L 218.150998 -87.52421 
L 220.331921 -86.892095 
L 222.512844 -86.502176 
L 224.693767 -84.496792 
L 226.87469 -83.101321 
L 229.055613 -83.248917 
L 231.236535 -84.527732 
L 233.417458 -86.457005 
L 235.598381 -89.861374 
L 237.779304 -91.42646 
L 237.779304 -103.881731 
L 237.779304 -103.881731 
L 235.598381 -101.71719 
L 233.417458 -98.706096 
L 231.236535 -97.673507 
L 229.055613 -100.298059 
L 226.87469 -103.729116 
L 224.693767 -104.941375 
L 222.512844 -103.604697 
L 220.331921 -103.605233 
L 218.150998 -103.823369 
L 215.970075 -105.170323 
L 213.789152 -104.604284 
L 211.60823 -103.782355 
L 209.427307 -104.39655 
L 207.246384 -104.484412 
L 205.065461 -102.415174 
L 202.884538 -100.881147 
L 200.703615 -101.541719 
L 198.522692 -102.38457 
L 196.34177 -103.348781 
L 194.160847 -105.510207 
L 191.979924 -109.149731 
L 189.799001 -111.677399 
L 187.618078 -113.439767 
L 185.437155 -112.977875 
L 183.256232 -110.364538 
L 181.075309 -108.855231 
L 178.894387 -107.491177 
L 176.713464 -106.637536 
L 174.532541 -106.530368 
L 172.351618 -103.249685 
L 170.170695 -100.034375 
L 167.989772 -100.427782 
L 165.808849 -100.806762 
L 163.627927 -100.242739 
L 161.447004 -100.911621 
L 159.266081 -101.110599 
L 157.085158 -99.011604 
L 154.904235 -96.624106 
L 152.723312 -93.495016 
L 150.542389 -91.118513 
L 148.361467 -90.235654 
L 146.180544 -88.847814 
L 143.999621 -87.030408 
L 141.818698 -86.203093 
L 139.637775 -86.787314 
L 137.456852 -88.328841 
L 135.275929 -89.01984 
L 133.095006 -89.426817 
L 130.914084 -87.128843 
L 128.733161 -84.192446 
L 126.552238 -85.219886 
L 124.371315 -84.969667 
L 122.190392 -83.623818 
L 120.009469 -83.889182 
L 117.828546 -84.134968 
L 115.647624 -84.099453 
L 113.466701 -85.532836 
L 111.285778 -89.39933 
L 109.104855 -92.624801 
L 106.923932 -91.868319 
L 104.743009 -90.846557 
L 102.562086 -94.080004 
L 100.381163 -98.091485 
L 98.200241 -97.578004 
L 96.019318 -96.004742 
L 93.838395 -94.387994 
L 91.657472 -96.548008 
L 89.476549 -104.792166 
L 87.295626 -113.645435 
L 85.114703 -115.641956 
L 82.933781 -108.132253 
L 80.752858 -101.733171 
L 78.571935 -101.440997 
L 76.391012 -101.684626 
L 74.210089 -101.435123 
L 72.029166 -101.630906 
L 69.848243 -102.195708 
L 67.667321 -105.553106 
L 65.486398 -106.059958 
L 63.305475 -103.194354 
L 61.124552 -102.481174 
L 58.943629 -103.509591 
L 56.762706 -102.762055 
L 54.581783 -101.076177 
L 52.40086 -99.171586 
L 50.219938 -101.7995 
L 48.039015 -110.542078 
L 45.858092 -116.395812 
z
" style="stroke: #1f77b4; stroke-opacity: 0.15"/>
    </defs>
    <g clip-path="url(#p2343962df1)">
     <use xlink:href="#m8540c3900c" x="0" y="215.397188" style="fill: #1f77b4; fill-opacity: 0.15; stroke: #1f77b4; stroke-opacity: 0.15"/>
    </g>
   </g>
   <g id="FillBetweenPolyCollection_2">
    <defs>
     <path id="m1233e59147" d="M 45.858092 -109.841462 
L 45.858092 -79.047028 
L 48.039015 -79.820418 
L 50.219938 -82.528164 
L 52.40086 -86.546041 
L 54.581783 -88.041859 
L 56.762706 -89.137727 
L 58.943629 -87.678367 
L 61.124552 -90.114547 
L 63.305475 -92.693232 
L 65.486398 -92.656588 
L 67.667321 -88.87541 
L 69.848243 -86.988224 
L 72.029166 -84.043234 
L 74.210089 -78.564842 
L 76.391012 -74.615036 
L 78.571935 -71.037613 
L 80.752858 -70.611585 
L 82.933781 -77.261626 
L 85.114703 -84.3769 
L 87.295626 -88.345271 
L 89.476549 -88.881757 
L 91.657472 -94.705994 
L 93.838395 -101.530312 
L 96.019318 -101.099056 
L 98.200241 -92.679103 
L 100.381163 -87.789853 
L 102.562086 -91.519718 
L 104.743009 -96.637198 
L 106.923932 -95.964437 
L 109.104855 -92.946124 
L 111.285778 -92.053504 
L 113.466701 -83.899708 
L 115.647624 -78.465339 
L 117.828546 -74.966501 
L 120.009469 -72.199641 
L 122.190392 -72.111623 
L 124.371315 -75.006849 
L 126.552238 -81.425351 
L 128.733161 -86.717004 
L 130.914084 -86.900516 
L 133.095006 -81.245009 
L 135.275929 -81.177673 
L 137.456852 -85.458054 
L 139.637775 -85.464407 
L 141.818698 -86.468488 
L 143.999621 -90.182062 
L 146.180544 -90.955251 
L 148.361467 -90.094856 
L 150.542389 -88.553713 
L 152.723312 -88.687221 
L 154.904235 -91.677714 
L 157.085158 -91.588766 
L 159.266081 -92.001565 
L 161.447004 -93.543226 
L 163.627927 -93.376025 
L 165.808849 -91.040109 
L 167.989772 -87.479138 
L 170.170695 -86.664558 
L 172.351618 -89.522522 
L 174.532541 -91.786317 
L 176.713464 -94.098287 
L 178.894387 -98.909566 
L 181.075309 -101.013247 
L 183.256232 -98.90182 
L 185.437155 -96.971009 
L 187.618078 -93.029647 
L 189.799001 -93.252133 
L 191.979924 -93.699351 
L 194.160847 -87.745636 
L 196.34177 -82.019371 
L 198.522692 -78.325678 
L 200.703615 -79.344953 
L 202.884538 -78.935297 
L 205.065461 -79.245588 
L 207.246384 -81.783207 
L 209.427307 -85.073815 
L 211.60823 -82.72657 
L 213.789152 -86.404797 
L 215.970075 -88.811208 
L 218.150998 -87.934086 
L 220.331921 -88.958614 
L 222.512844 -86.968639 
L 224.693767 -84.020253 
L 226.87469 -87.283433 
L 229.055613 -90.591801 
L 231.236535 -87.932776 
L 233.417458 -85.257395 
L 235.598381 -86.905239 
L 237.779304 -90.464507 
L 237.779304 -109.113138 
L 237.779304 -109.113138 
L 235.598381 -105.817328 
L 233.417458 -104.965143 
L 231.236535 -105.318838 
L 229.055613 -104.989755 
L 226.87469 -106.122767 
L 224.693767 -106.715247 
L 222.512844 -107.151735 
L 220.331921 -109.948941 
L 218.150998 -106.646566 
L 215.970075 -102.932406 
L 213.789152 -100.880845 
L 211.60823 -104.456307 
L 209.427307 -105.477075 
L 207.246384 -105.697591 
L 205.065461 -107.507155 
L 202.884538 -112.238474 
L 200.703615 -115.342279 
L 198.522692 -115.370894 
L 196.34177 -111.580918 
L 194.160847 -105.554058 
L 191.979924 -105.017766 
L 189.799001 -108.246695 
L 187.618078 -111.575516 
L 185.437155 -113.725025 
L 183.256232 -118.739714 
L 181.075309 -119.101232 
L 178.894387 -115.641736 
L 176.713464 -116.339242 
L 174.532541 -117.646702 
L 172.351618 -116.464849 
L 170.170695 -112.629429 
L 167.989772 -111.745623 
L 165.808849 -113.734077 
L 163.627927 -115.970269 
L 161.447004 -119.306219 
L 159.266081 -124.219224 
L 157.085158 -124.135645 
L 154.904235 -121.681752 
L 152.723312 -123.346474 
L 150.542389 -126.219689 
L 148.361467 -124.964774 
L 146.180544 -119.682045 
L 143.999621 -114.10544 
L 141.818698 -114.979149 
L 139.637775 -118.521307 
L 137.456852 -123.144875 
L 135.275929 -125.227039 
L 133.095006 -121.55156 
L 130.914084 -115.155524 
L 128.733161 -116.251296 
L 126.552238 -119.454686 
L 124.371315 -121.530198 
L 122.190392 -119.213279 
L 120.009469 -114.902979 
L 117.828546 -114.038239 
L 115.647624 -112.3823 
L 113.466701 -112.764964 
L 111.285778 -113.922928 
L 109.104855 -112.85999 
L 106.923932 -111.263165 
L 104.743009 -114.446488 
L 102.562086 -125.020232 
L 100.381163 -130.892354 
L 98.200241 -130.719373 
L 96.019318 -128.054344 
L 93.838395 -120.696351 
L 91.657472 -117.993346 
L 89.476549 -121.653344 
L 87.295626 -126.700539 
L 85.114703 -133.256193 
L 82.933781 -138.670567 
L 80.752858 -141.001536 
L 78.571935 -143.384588 
L 76.391012 -141.916231 
L 74.210089 -134.570417 
L 72.029166 -125.667725 
L 69.848243 -120.450376 
L 67.667321 -118.63173 
L 65.486398 -117.652247 
L 63.305475 -119.963174 
L 61.124552 -123.941421 
L 58.943629 -126.087118 
L 56.762706 -122.478523 
L 54.581783 -115.506522 
L 52.40086 -112.393368 
L 50.219938 -109.903711 
L 48.039015 -108.853638 
L 45.858092 -109.841462 
z
" style="stroke: #ff7f0e; stroke-opacity: 0.15"/>
    </defs>
    <g clip-path="url(#p2343962df1)">
     <use xlink:href="#m1233e59147" x="0" y="215.397188" style="fill: #ff7f0e; fill-opacity: 0.15; stroke: #ff7f0e; stroke-opacity: 0.15"/>
    </g>
   </g>
   <g id="line2d_1">
    <path d="M 36.262031 109.590788 
L 247.375365 109.590788 
" clip-path="url(#p2343962df1)" style="fill: none; stroke-dasharray: 2.96,1.28; stroke-dashoffset: 0; stroke: #000000; stroke-width: 0.8"/>
   </g>
   <g id="matplotlib.axis_1">
    <g id="xtick_1">
     <g id="line2d_2">
      <defs>
       <path id="me85ab46960" d="M 0 0 
L 0 3.5 
" style="stroke: #000000; stroke-width: 0.8"/>
      </defs>
      <g>
       <use xlink:href="#me85ab46960" x="41.496246" y="182.68" style="stroke: #000000; stroke-width: 0.8"/>
      </g>
     </g>
     <g id="text_1">
      <!-- 0 -->
      <g transform="translate(39.269371 194.998906) scale(0.07 -0.07)">
       <defs>
        <path id="DejaVuSans-30" d="M 2034 4250 
Q 1547 4250 1301 3770 
Q 1056 3291 1056 2328 
Q 1056 1369 1301 889 
Q 1547 409 2034 409 
Q 2525 409 2770 889 
Q 3016 1369 3016 2328 
Q 3016 3291 2770 3770 
Q 2525 4250 2034 4250 
z
M 2034 4750 
Q 2819 4750 3233 4129 
Q 3647 3509 3647 2328 
Q 3647 1150 3233 529 
Q 2819 -91 2034 -91 
Q 1250 -91 836 529 
Q 422 1150 422 2328 
Q 422 3509 836 4129 
Q 1250 4750 2034 4750 
z
" transform="scale(0.015625)"/>
       </defs>
       <use xlink:href="#DejaVuSans-30"/>
      </g>
     </g>
    </g>
    <g id="xtick_2">
     <g id="line2d_3">
      <g>
       <use xlink:href="#me85ab46960" x="85.114703" y="182.68" style="stroke: #000000; stroke-width: 0.8"/>
      </g>
     </g>
     <g id="text_2">
      <!-- 10 -->
      <g transform="translate(80.660953 194.998906) scale(0.07 -0.07)">
       <defs>
        <path id="DejaVuSans-31" d="M 794 531 
L 1825 531 
L 1825 4091 
L 703 3866 
L 703 4441 
L 1819 4666 
L 2450 4666 
L 2450 531 
L 3481 531 
L 3481 0 
L 794 0 
L 794 531 
z
" transform="scale(0.015625)"/>
       </defs>
       <use xlink:href="#DejaVuSans-31"/>
       <use xlink:href="#DejaVuSans-30" transform="translate(63.623047 0)"/>
      </g>
     </g>
    </g>
    <g id="xtick_3">
     <g id="line2d_4">
      <g>
       <use xlink:href="#me85ab46960" x="128.733161" y="182.68" style="stroke: #000000; stroke-width: 0.8"/>
      </g>
     </g>
     <g id="text_3">
      <!-- 20 -->
      <g transform="translate(124.279411 194.998906) scale(0.07 -0.07)">
       <defs>
        <path id="DejaVuSans-32" d="M 1228 531 
L 3431 531 
L 3431 0 
L 469 0 
L 469 531 
Q 828 903 1448 1529 
Q 2069 2156 2228 2338 
Q 2531 2678 2651 2914 
Q 2772 3150 2772 3378 
Q 2772 3750 2511 3984 
Q 2250 4219 1831 4219 
Q 1534 4219 1204 4116 
Q 875 4013 500 3803 
L 500 4441 
Q 881 4594 1212 4672 
Q 1544 4750 1819 4750 
Q 2544 4750 2975 4387 
Q 3406 4025 3406 3419 
Q 3406 3131 3298 2873 
Q 3191 2616 2906 2266 
Q 2828 2175 2409 1742 
Q 1991 1309 1228 531 
z
" transform="scale(0.015625)"/>
       </defs>
       <use xlink:href="#DejaVuSans-32"/>
       <use xlink:href="#DejaVuSans-30" transform="translate(63.623047 0)"/>
      </g>
     </g>
    </g>
    <g id="xtick_4">
     <g id="line2d_5">
      <g>
       <use xlink:href="#me85ab46960" x="172.351618" y="182.68" style="stroke: #000000; stroke-width: 0.8"/>
      </g>
     </g>
     <g id="text_4">
      <!-- 30 -->
      <g transform="translate(167.897868 194.998906) scale(0.07 -0.07)">
       <defs>
        <path id="DejaVuSans-33" d="M 2597 2516 
Q 3050 2419 3304 2112 
Q 3559 1806 3559 1356 
Q 3559 666 3084 287 
Q 2609 -91 1734 -91 
Q 1441 -91 1130 -33 
Q 819 25 488 141 
L 488 750 
Q 750 597 1062 519 
Q 1375 441 1716 441 
Q 2309 441 2620 675 
Q 2931 909 2931 1356 
Q 2931 1769 2642 2001 
Q 2353 2234 1838 2234 
L 1294 2234 
L 1294 2753 
L 1863 2753 
Q 2328 2753 2575 2939 
Q 2822 3125 2822 3475 
Q 2822 3834 2567 4026 
Q 2313 4219 1838 4219 
Q 1578 4219 1281 4162 
Q 984 4106 628 3988 
L 628 4550 
Q 988 4650 1302 4700 
Q 1616 4750 1894 4750 
Q 2613 4750 3031 4423 
Q 3450 4097 3450 3541 
Q 3450 3153 3228 2886 
Q 3006 2619 2597 2516 
z
" transform="scale(0.015625)"/>
       </defs>
       <use xlink:href="#DejaVuSans-33"/>
       <use xlink:href="#DejaVuSans-30" transform="translate(63.623047 0)"/>
      </g>
     </g>
    </g>
    <g id="xtick_5">
     <g id="line2d_6">
      <g>
       <use xlink:href="#me85ab46960" x="215.970075" y="182.68" style="stroke: #000000; stroke-width: 0.8"/>
      </g>
     </g>
     <g id="text_5">
      <!-- 40 -->
      <g transform="translate(211.516325 194.998906) scale(0.07 -0.07)">
       <defs>
        <path id="DejaVuSans-34" d="M 2419 4116 
L 825 1625 
L 2419 1625 
L 2419 4116 
z
M 2253 4666 
L 3047 4666 
L 3047 1625 
L 3713 1625 
L 3713 1100 
L 3047 1100 
L 3047 0 
L 2419 0 
L 2419 1100 
L 313 1100 
L 313 1709 
L 2253 4666 
z
" transform="scale(0.015625)"/>
       </defs>
       <use xlink:href="#DejaVuSans-34"/>
       <use xlink:href="#DejaVuSans-30" transform="translate(63.623047 0)"/>
      </g>
     </g>
    </g>
    <g id="text_6">
     <!-- Frequency (Hz) -->
     <g transform="translate(111.654948 206.533437) scale(0.08 -0.08)">
      <defs>
       <path id="DejaVuSans-46" d="M 628 4666 
L 3309 4666 
L 3309 4134 
L 1259 4134 
L 1259 2759 
L 3109 2759 
L 3109 2228 
L 1259 2228 
L 1259 0 
L 628 0 
L 628 4666 
z
" transform="scale(0.015625)"/>
       <path id="DejaVuSans-72" d="M 2631 2963 
Q 2534 3019 2420 3045 
Q 2306 3072 2169 3072 
Q 1681 3072 1420 2755 
Q 1159 2438 1159 1844 
L 1159 0 
L 581 0 
L 581 3500 
L 1159 3500 
L 1159 2956 
Q 1341 3275 1631 3429 
Q 1922 3584 2338 3584 
Q 2397 3584 2469 3576 
Q 2541 3569 2628 3553 
L 2631 2963 
z
" transform="scale(0.015625)"/>
       <path id="DejaVuSans-65" d="M 3597 1894 
L 3597 1613 
L 953 1613 
Q 991 1019 1311 708 
Q 1631 397 2203 397 
Q 2534 397 2845 478 
Q 3156 559 3463 722 
L 3463 178 
Q 3153 47 2828 -22 
Q 2503 -91 2169 -91 
Q 1331 -91 842 396 
Q 353 884 353 1716 
Q 353 2575 817 3079 
Q 1281 3584 2069 3584 
Q 2775 3584 3186 3129 
Q 3597 2675 3597 1894 
z
M 3022 2063 
Q 3016 2534 2758 2815 
Q 2500 3097 2075 3097 
Q 1594 3097 1305 2825 
Q 1016 2553 972 2059 
L 3022 2063 
z
" transform="scale(0.015625)"/>
       <path id="DejaVuSans-71" d="M 947 1747 
Q 947 1113 1208 752 
Q 1469 391 1925 391 
Q 2381 391 2643 752 
Q 2906 1113 2906 1747 
Q 2906 2381 2643 2742 
Q 2381 3103 1925 3103 
Q 1469 3103 1208 2742 
Q 947 2381 947 1747 
z
M 2906 525 
Q 2725 213 2448 61 
Q 2172 -91 1784 -91 
Q 1150 -91 751 415 
Q 353 922 353 1747 
Q 353 2572 751 3078 
Q 1150 3584 1784 3584 
Q 2172 3584 2448 3432 
Q 2725 3281 2906 2969 
L 2906 3500 
L 3481 3500 
L 3481 -1331 
L 2906 -1331 
L 2906 525 
z
" transform="scale(0.015625)"/>
       <path id="DejaVuSans-75" d="M 544 1381 
L 544 3500 
L 1119 3500 
L 1119 1403 
Q 1119 906 1312 657 
Q 1506 409 1894 409 
Q 2359 409 2629 706 
Q 2900 1003 2900 1516 
L 2900 3500 
L 3475 3500 
L 3475 0 
L 2900 0 
L 2900 538 
Q 2691 219 2414 64 
Q 2138 -91 1772 -91 
Q 1169 -91 856 284 
Q 544 659 544 1381 
z
M 1991 3584 
L 1991 3584 
z
" transform="scale(0.015625)"/>
       <path id="DejaVuSans-6e" d="M 3513 2113 
L 3513 0 
L 2938 0 
L 2938 2094 
Q 2938 2591 2744 2837 
Q 2550 3084 2163 3084 
Q 1697 3084 1428 2787 
Q 1159 2491 1159 1978 
L 1159 0 
L 581 0 
L 581 3500 
L 1159 3500 
L 1159 2956 
Q 1366 3272 1645 3428 
Q 1925 3584 2291 3584 
Q 2894 3584 3203 3211 
Q 3513 2838 3513 2113 
z
" transform="scale(0.015625)"/>
       <path id="DejaVuSans-63" d="M 3122 3366 
L 3122 2828 
Q 2878 2963 2633 3030 
Q 2388 3097 2138 3097 
Q 1578 3097 1268 2742 
Q 959 2388 959 1747 
Q 959 1106 1268 751 
Q 1578 397 2138 397 
Q 2388 397 2633 464 
Q 2878 531 3122 666 
L 3122 134 
Q 2881 22 2623 -34 
Q 2366 -91 2075 -91 
Q 1284 -91 818 406 
Q 353 903 353 1747 
Q 353 2603 823 3093 
Q 1294 3584 2113 3584 
Q 2378 3584 2631 3529 
Q 2884 3475 3122 3366 
z
" transform="scale(0.015625)"/>
       <path id="DejaVuSans-79" d="M 2059 -325 
Q 1816 -950 1584 -1140 
Q 1353 -1331 966 -1331 
L 506 -1331 
L 506 -850 
L 844 -850 
Q 1081 -850 1212 -737 
Q 1344 -625 1503 -206 
L 1606 56 
L 191 3500 
L 800 3500 
L 1894 763 
L 2988 3500 
L 3597 3500 
L 2059 -325 
z
" transform="scale(0.015625)"/>
       <path id="DejaVuSans-20" transform="scale(0.015625)"/>
       <path id="DejaVuSans-28" d="M 1984 4856 
Q 1566 4138 1362 3434 
Q 1159 2731 1159 2009 
Q 1159 1288 1364 580 
Q 1569 -128 1984 -844 
L 1484 -844 
Q 1016 -109 783 600 
Q 550 1309 550 2009 
Q 550 2706 781 3412 
Q 1013 4119 1484 4856 
L 1984 4856 
z
" transform="scale(0.015625)"/>
       <path id="DejaVuSans-48" d="M 628 4666 
L 1259 4666 
L 1259 2753 
L 3553 2753 
L 3553 4666 
L 4184 4666 
L 4184 0 
L 3553 0 
L 3553 2222 
L 1259 2222 
L 1259 0 
L 628 0 
L 628 4666 
z
" transform="scale(0.015625)"/>
       <path id="DejaVuSans-7a" d="M 353 3500 
L 3084 3500 
L 3084 2975 
L 922 459 
L 3084 459 
L 3084 0 
L 275 0 
L 275 525 
L 2438 3041 
L 353 3041 
L 353 3500 
z
" transform="scale(0.015625)"/>
       <path id="DejaVuSans-29" d="M 513 4856 
L 1013 4856 
Q 1481 4119 1714 3412 
Q 1947 2706 1947 2009 
Q 1947 1309 1714 600 
Q 1481 -109 1013 -844 
L 513 -844 
Q 928 -128 1133 580 
Q 1338 1288 1338 2009 
Q 1338 2731 1133 3434 
Q 928 4138 513 4856 
z
" transform="scale(0.015625)"/>
      </defs>
      <use xlink:href="#DejaVuSans-46"/>
      <use xlink:href="#DejaVuSans-72" transform="translate(50.269531 0)"/>
      <use xlink:href="#DejaVuSans-65" transform="translate(89.132812 0)"/>
      <use xlink:href="#DejaVuSans-71" transform="translate(150.65625 0)"/>
      <use xlink:href="#DejaVuSans-75" transform="translate(214.132812 0)"/>
      <use xlink:href="#DejaVuSans-65" transform="translate(277.511719 0)"/>
      <use xlink:href="#DejaVuSans-6e" transform="translate(339.035156 0)"/>
      <use xlink:href="#DejaVuSans-63" transform="translate(402.414062 0)"/>
      <use xlink:href="#DejaVuSans-79" transform="translate(457.394531 0)"/>
      <use xlink:href="#DejaVuSans-20" transform="translate(516.574219 0)"/>
      <use xlink:href="#DejaVuSans-28" transform="translate(548.361328 0)"/>
      <use xlink:href="#DejaVuSans-48" transform="translate(587.375 0)"/>
      <use xlink:href="#DejaVuSans-7a" transform="translate(662.570312 0)"/>
      <use xlink:href="#DejaVuSans-29" transform="translate(715.060547 0)"/>
     </g>
    </g>
   </g>
   <g id="matplotlib.axis_2">
    <g id="ytick_1">
     <g id="line2d_7">
      <defs>
       <path id="md4c23a6416" d="M 0 0 
L -3.5 0 
" style="stroke: #000000; stroke-width: 0.8"/>
      </defs>
      <g>
       <use xlink:href="#md4c23a6416" x="36.262031" y="170.492231" style="stroke: #000000; stroke-width: 0.8"/>
      </g>
     </g>
     <g id="text_7">
      <!-- −3 -->
      <g transform="translate(18.9425 173.151684) scale(0.07 -0.07)">
       <defs>
        <path id="DejaVuSans-2212" d="M 678 2272 
L 4684 2272 
L 4684 1741 
L 678 1741 
L 678 2272 
z
" transform="scale(0.015625)"/>
       </defs>
       <use xlink:href="#DejaVuSans-2212"/>
       <use xlink:href="#DejaVuSans-33" transform="translate(83.789062 0)"/>
      </g>
     </g>
    </g>
    <g id="ytick_2">
     <g id="line2d_8">
      <g>
       <use xlink:href="#md4c23a6416" x="36.262031" y="150.19175" style="stroke: #000000; stroke-width: 0.8"/>
      </g>
     </g>
     <g id="text_8">
      <!-- −2 -->
      <g transform="translate(18.9425 152.851203) scale(0.07 -0.07)">
       <use xlink:href="#DejaVuSans-2212"/>
       <use xlink:href="#DejaVuSans-32" transform="translate(83.789062 0)"/>
      </g>
     </g>
    </g>
    <g id="ytick_3">
     <g id="line2d_9">
      <g>
       <use xlink:href="#md4c23a6416" x="36.262031" y="129.891269" style="stroke: #000000; stroke-width: 0.8"/>
      </g>
     </g>
     <g id="text_9">
      <!-- −1 -->
      <g transform="translate(18.9425 132.550722) scale(0.07 -0.07)">
       <use xlink:href="#DejaVuSans-2212"/>
       <use xlink:href="#DejaVuSans-31" transform="translate(83.789062 0)"/>
      </g>
     </g>
    </g>
    <g id="ytick_4">
     <g id="line2d_10">
      <g>
       <use xlink:href="#md4c23a6416" x="36.262031" y="109.590788" style="stroke: #000000; stroke-width: 0.8"/>
      </g>
     </g>
     <g id="text_10">
      <!-- 0 -->
      <g transform="translate(24.808281 112.250241) scale(0.07 -0.07)">
       <use xlink:href="#DejaVuSans-30"/>
      </g>
     </g>
    </g>
    <g id="ytick_5">
     <g id="line2d_11">
      <g>
       <use xlink:href="#md4c23a6416" x="36.262031" y="89.290307" style="stroke: #000000; stroke-width: 0.8"/>
      </g>
     </g>
     <g id="text_11">
      <!-- 1 -->
      <g transform="translate(24.808281 91.94976) scale(0.07 -0.07)">
       <use xlink:href="#DejaVuSans-31"/>
      </g>
     </g>
    </g>
    <g id="ytick_6">
     <g id="line2d_12">
      <g>
       <use xlink:href="#md4c23a6416" x="36.262031" y="68.989826" style="stroke: #000000; stroke-width: 0.8"/>
      </g>
     </g>
     <g id="text_12">
      <!-- 2 -->
      <g transform="translate(24.808281 71.649279) scale(0.07 -0.07)">
       <use xlink:href="#DejaVuSans-32"/>
      </g>
     </g>
    </g>
    <g id="text_13">
     <!-- ERD/ERS (dB) -->
     <g transform="translate(13.27875 148.236875) rotate(-90) scale(0.08 -0.08)">
      <defs>
       <path id="DejaVuSans-45" d="M 628 4666 
L 3578 4666 
L 3578 4134 
L 1259 4134 
L 1259 2753 
L 3481 2753 
L 3481 2222 
L 1259 2222 
L 1259 531 
L 3634 531 
L 3634 0 
L 628 0 
L 628 4666 
z
" transform="scale(0.015625)"/>
       <path id="DejaVuSans-52" d="M 2841 2188 
Q 3044 2119 3236 1894 
Q 3428 1669 3622 1275 
L 4263 0 
L 3584 0 
L 2988 1197 
Q 2756 1666 2539 1819 
Q 2322 1972 1947 1972 
L 1259 1972 
L 1259 0 
L 628 0 
L 628 4666 
L 2053 4666 
Q 2853 4666 3247 4331 
Q 3641 3997 3641 3322 
Q 3641 2881 3436 2590 
Q 3231 2300 2841 2188 
z
M 1259 4147 
L 1259 2491 
L 2053 2491 
Q 2509 2491 2742 2702 
Q 2975 2913 2975 3322 
Q 2975 3731 2742 3939 
Q 2509 4147 2053 4147 
L 1259 4147 
z
" transform="scale(0.015625)"/>
       <path id="DejaVuSans-44" d="M 1259 4147 
L 1259 519 
L 2022 519 
Q 2988 519 3436 956 
Q 3884 1394 3884 2338 
Q 3884 3275 3436 3711 
Q 2988 4147 2022 4147 
L 1259 4147 
z
M 628 4666 
L 1925 4666 
Q 3281 4666 3915 4102 
Q 4550 3538 4550 2338 
Q 4550 1131 3912 565 
Q 3275 0 1925 0 
L 628 0 
L 628 4666 
z
" transform="scale(0.015625)"/>
       <path id="DejaVuSans-2f" d="M 1625 4666 
L 2156 4666 
L 531 -594 
L 0 -594 
L 1625 4666 
z
" transform="scale(0.015625)"/>
       <path id="DejaVuSans-53" d="M 3425 4513 
L 3425 3897 
Q 3066 4069 2747 4153 
Q 2428 4238 2131 4238 
Q 1616 4238 1336 4038 
Q 1056 3838 1056 3469 
Q 1056 3159 1242 3001 
Q 1428 2844 1947 2747 
L 2328 2669 
Q 3034 2534 3370 2195 
Q 3706 1856 3706 1288 
Q 3706 609 3251 259 
Q 2797 -91 1919 -91 
Q 1588 -91 1214 -16 
Q 841 59 441 206 
L 441 856 
Q 825 641 1194 531 
Q 1563 422 1919 422 
Q 2459 422 2753 634 
Q 3047 847 3047 1241 
Q 3047 1584 2836 1778 
Q 2625 1972 2144 2069 
L 1759 2144 
Q 1053 2284 737 2584 
Q 422 2884 422 3419 
Q 422 4038 858 4394 
Q 1294 4750 2059 4750 
Q 2388 4750 2728 4690 
Q 3069 4631 3425 4513 
z
" transform="scale(0.015625)"/>
       <path id="DejaVuSans-64" d="M 2906 2969 
L 2906 4863 
L 3481 4863 
L 3481 0 
L 2906 0 
L 2906 525 
Q 2725 213 2448 61 
Q 2172 -91 1784 -91 
Q 1150 -91 751 415 
Q 353 922 353 1747 
Q 353 2572 751 3078 
Q 1150 3584 1784 3584 
Q 2172 3584 2448 3432 
Q 2725 3281 2906 2969 
z
M 947 1747 
Q 947 1113 1208 752 
Q 1469 391 1925 391 
Q 2381 391 2643 752 
Q 2906 1113 2906 1747 
Q 2906 2381 2643 2742 
Q 2381 3103 1925 3103 
Q 1469 3103 1208 2742 
Q 947 2381 947 1747 
z
" transform="scale(0.015625)"/>
       <path id="DejaVuSans-42" d="M 1259 2228 
L 1259 519 
L 2272 519 
Q 2781 519 3026 730 
Q 3272 941 3272 1375 
Q 3272 1813 3026 2020 
Q 2781 2228 2272 2228 
L 1259 2228 
z
M 1259 4147 
L 1259 2741 
L 2194 2741 
Q 2656 2741 2882 2914 
Q 3109 3088 3109 3444 
Q 3109 3797 2882 3972 
Q 2656 4147 2194 4147 
L 1259 4147 
z
M 628 4666 
L 2241 4666 
Q 2963 4666 3353 4366 
Q 3744 4066 3744 3513 
Q 3744 3084 3544 2831 
Q 3344 2578 2956 2516 
Q 3422 2416 3680 2098 
Q 3938 1781 3938 1306 
Q 3938 681 3513 340 
Q 3088 0 2303 0 
L 628 0 
L 628 4666 
z
" transform="scale(0.015625)"/>
      </defs>
      <use xlink:href="#DejaVuSans-45"/>
      <use xlink:href="#DejaVuSans-52" transform="translate(63.183594 0)"/>
      <use xlink:href="#DejaVuSans-44" transform="translate(132.666016 0)"/>
      <use xlink:href="#DejaVuSans-2f" transform="translate(209.667969 0)"/>
      <use xlink:href="#DejaVuSans-45" transform="translate(243.359375 0)"/>
      <use xlink:href="#DejaVuSans-52" transform="translate(306.542969 0)"/>
      <use xlink:href="#DejaVuSans-53" transform="translate(376.025391 0)"/>
      <use xlink:href="#DejaVuSans-20" transform="translate(439.501953 0)"/>
      <use xlink:href="#DejaVuSans-28" transform="translate(471.289062 0)"/>
      <use xlink:href="#DejaVuSans-64" transform="translate(510.302734 0)"/>
      <use xlink:href="#DejaVuSans-42" transform="translate(573.779297 0)"/>
      <use xlink:href="#DejaVuSans-29" transform="translate(642.382812 0)"/>
     </g>
    </g>
   </g>
   <g id="line2d_13">
    <path d="M 45.858092 112.9635 
L 48.039015 115.043133 
L 50.219938 118.348258 
L 52.40086 121.072315 
L 54.581783 120.562673 
L 56.762706 119.871992 
L 58.943629 120.828928 
L 61.124552 122.894226 
L 63.305475 124.450656 
L 65.486398 124.161062 
L 67.667321 125.315186 
L 69.848243 128.381963 
L 72.029166 130.850082 
L 74.210089 132.860653 
L 76.391012 136.008329 
L 78.571935 140.064475 
L 80.752858 142.165791 
L 82.933781 140.489335 
L 85.114703 138.41307 
L 87.295626 138.944079 
L 89.476549 139.255221 
L 91.657472 137.959025 
L 93.838395 135.739951 
L 96.019318 131.664679 
L 98.200241 129.182568 
L 100.381163 130.714676 
L 102.562086 135.181844 
L 104.743009 137.679852 
L 106.923932 138.274035 
L 109.104855 138.884526 
L 111.285778 141.90688 
L 113.466701 144.642254 
L 115.647624 146.029153 
L 117.828546 147.188375 
L 120.009469 148.904608 
L 122.190392 151.186154 
L 124.371315 151.061237 
L 126.552238 150.863848 
L 128.733161 151.468998 
L 130.914084 149.267454 
L 133.095006 147.294999 
L 135.275929 147.310933 
L 137.456852 147.140785 
L 139.637775 146.845763 
L 141.818698 145.02432 
L 143.999621 141.404626 
L 146.180544 137.299281 
L 148.361467 135.07422 
L 150.542389 133.464035 
L 152.723312 131.077633 
L 154.904235 128.298848 
L 157.085158 125.562425 
L 159.266081 123.139589 
L 161.447004 122.22297 
L 163.627927 122.588028 
L 165.808849 123.098183 
L 167.989772 124.14714 
L 170.170695 124.16996 
L 172.351618 122.351394 
L 174.532541 120.70471 
L 176.713464 121.165065 
L 178.894387 121.782235 
L 181.075309 121.537917 
L 183.256232 120.934613 
L 185.437155 119.221896 
L 187.618078 118.410386 
L 189.799001 119.309947 
L 191.979924 120.035022 
L 194.160847 121.508311 
L 196.34177 122.630023 
L 198.522692 122.213644 
L 200.703615 121.764847 
L 202.884538 121.394723 
L 205.065461 121.38315 
L 207.246384 121.75443 
L 209.427307 122.074378 
L 211.60823 122.524298 
L 213.789152 121.680937 
L 215.970075 119.756597 
L 218.150998 119.723398 
L 220.331921 120.148523 
L 222.512844 120.343751 
L 224.693767 120.678104 
L 226.87469 121.981969 
L 229.055613 123.623699 
L 231.236535 124.296568 
L 233.417458 122.815637 
L 235.598381 119.607906 
L 237.779304 117.743092 
" clip-path="url(#p2343962df1)" style="fill: none; stroke: #1f77b4; stroke-width: 1.3; stroke-linecap: square"/>
   </g>
   <g id="line2d_14">
    <path d="M 45.858092 120.952943 
L 48.039015 121.060159 
L 50.219938 119.18125 
L 52.40086 115.927483 
L 54.581783 113.622997 
L 56.762706 109.589063 
L 58.943629 108.514445 
L 61.124552 108.369204 
L 63.305475 109.068985 
L 65.486398 110.24277 
L 67.667321 111.643618 
L 69.848243 111.677888 
L 72.029166 110.541708 
L 74.210089 108.829558 
L 76.391012 107.131554 
L 78.571935 108.186087 
L 80.752858 109.590627 
L 82.933781 107.431091 
L 85.114703 106.580641 
L 87.295626 107.874283 
L 89.476549 110.129637 
L 91.657472 109.047517 
L 93.838395 104.283856 
L 96.019318 100.820487 
L 98.200241 103.697949 
L 100.381163 106.056084 
L 102.562086 107.127213 
L 104.743009 109.855345 
L 106.923932 111.783386 
L 109.104855 112.49413 
L 111.285778 112.408971 
L 113.466701 117.064851 
L 115.647624 119.973368 
L 117.828546 120.894817 
L 120.009469 121.845878 
L 122.190392 119.734737 
L 124.371315 117.128664 
L 126.552238 114.957169 
L 128.733161 113.913037 
L 130.914084 114.369167 
L 133.095006 113.998903 
L 135.275929 112.194832 
L 137.456852 111.095723 
L 139.637775 113.404331 
L 141.818698 114.673369 
L 143.999621 113.253436 
L 146.180544 110.07854 
L 148.361467 107.867373 
L 150.542389 108.010486 
L 152.723312 109.38034 
L 154.904235 108.717455 
L 157.085158 107.534982 
L 159.266081 107.286793 
L 161.447004 108.972465 
L 163.627927 110.72404 
L 165.808849 113.010095 
L 167.989772 115.784807 
L 170.170695 115.750194 
L 172.351618 112.403502 
L 174.532541 110.680678 
L 176.713464 110.178423 
L 178.894387 108.121537 
L 181.075309 105.339948 
L 183.256232 106.576421 
L 185.437155 110.049171 
L 187.618078 113.094606 
L 189.799001 114.647774 
L 191.979924 116.038629 
L 194.160847 118.74734 
L 196.34177 118.597043 
L 198.522692 118.548901 
L 200.703615 118.053571 
L 202.884538 119.810302 
L 205.065461 122.020816 
L 207.246384 121.656789 
L 209.427307 120.121742 
L 211.60823 121.805749 
L 213.789152 121.754367 
L 215.970075 119.52538 
L 218.150998 118.106862 
L 220.331921 115.94341 
L 222.512844 118.337001 
L 224.693767 120.029438 
L 226.87469 118.694087 
L 229.055613 117.60641 
L 231.236535 118.77138 
L 233.417458 120.285919 
L 235.598381 119.035904 
L 237.779304 115.608365 
" clip-path="url(#p2343962df1)" style="fill: none; stroke: #ff7f0e; stroke-width: 1.3; stroke-linecap: square"/>
   </g>
   <g id="patch_5">
    <path d="M 36.262031 182.68 
L 36.262031 59.28 
" style="fill: none; stroke: #000000; stroke-width: 0.8; stroke-linejoin: miter; stroke-linecap: square"/>
   </g>
   <g id="patch_6">
    <path d="M 247.375365 182.68 
L 247.375365 59.28 
" style="fill: none; stroke: #000000; stroke-width: 0.8; stroke-linejoin: miter; stroke-linecap: square"/>
   </g>
   <g id="patch_7">
    <path d="M 36.262031 182.68 
L 247.375365 182.68 
" style="fill: none; stroke: #000000; stroke-width: 0.8; stroke-linejoin: miter; stroke-linecap: square"/>
   </g>
   <g id="patch_8">
    <path d="M 36.262031 59.28 
L 247.375365 59.28 
" style="fill: none; stroke: #000000; stroke-width: 0.8; stroke-linejoin: miter; stroke-linecap: square"/>
   </g>
   <g id="text_14">
    <!-- C3 -->
    <g transform="translate(135.813307 53.28) scale(0.09 -0.09)">
     <defs>
      <path id="DejaVuSans-43" d="M 4122 4306 
L 4122 3641 
Q 3803 3938 3442 4084 
Q 3081 4231 2675 4231 
Q 1875 4231 1450 3742 
Q 1025 3253 1025 2328 
Q 1025 1406 1450 917 
Q 1875 428 2675 428 
Q 3081 428 3442 575 
Q 3803 722 4122 1019 
L 4122 359 
Q 3791 134 3420 21 
Q 3050 -91 2638 -91 
Q 1578 -91 968 557 
Q 359 1206 359 2328 
Q 359 3453 968 4101 
Q 1578 4750 2638 4750 
Q 3056 4750 3426 4639 
Q 3797 4528 4122 4306 
z
" transform="scale(0.015625)"/>
     </defs>
     <use xlink:href="#DejaVuSans-43"/>
     <use xlink:href="#DejaVuSans-33" transform="translate(69.824219 0)"/>
    </g>
   </g>
  </g>
  <g id="axes_2">
   <g id="patch_9">
    <path d="M 272.875365 182.68 
L 483.988698 182.68 
L 483.988698 59.28 
L 272.875365 59.28 
L 272.875365 182.68 
z
" style="fill: none"/>
   </g>
   <g id="patch_10">
    <path d="M 313.004345 182.68 
L 334.813574 182.68 
L 334.813574 59.28 
L 313.004345 59.28 
z
" clip-path="url(#p47106ca19d)" style="fill: #d9d9d9; stroke: #d9d9d9; stroke-linejoin: miter"/>
   </g>
   <g id="patch_11">
    <path d="M 334.813574 182.68 
L 408.964951 182.68 
L 408.964951 59.28 
L 334.813574 59.28 
z
" clip-path="url(#p47106ca19d)" style="fill: #ebebeb; stroke: #ebebeb; stroke-linejoin: miter"/>
   </g>
   <g id="FillBetweenPolyCollection_3">
    <defs>
     <path id="md67d852718" d="M 282.471425 -139.728269 
L 282.471425 -108.75003 
L 284.652348 -106.745417 
L 286.833271 -103.40318 
L 289.014194 -98.087216 
L 291.195117 -91.764665 
L 293.37604 -86.224324 
L 295.556962 -81.314797 
L 297.737885 -78.762523 
L 299.918808 -76.814962 
L 302.099731 -74.263728 
L 304.280654 -73.529516 
L 306.461577 -75.499836 
L 308.6425 -75.775413 
L 310.823422 -74.256368 
L 313.004345 -70.974846 
L 315.185268 -62.87364 
L 317.366191 -55.686683 
L 319.547114 -52.445478 
L 321.728037 -50.285687 
L 323.90896 -51.621177 
L 326.089882 -58.26774 
L 328.270805 -66.806745 
L 330.451728 -75.019377 
L 332.632651 -82.815009 
L 334.813574 -88.398459 
L 336.994497 -88.223477 
L 339.17542 -83.086023 
L 341.356343 -79.506909 
L 343.537265 -78.871817 
L 345.718188 -77.804696 
L 347.899111 -76.635079 
L 350.080034 -75.086121 
L 352.260957 -72.923888 
L 354.44188 -69.66256 
L 356.622803 -65.58068 
L 358.803725 -61.292245 
L 360.984648 -58.128896 
L 363.165571 -58.788653 
L 365.346494 -61.400477 
L 367.527417 -62.943586 
L 369.70834 -65.337041 
L 371.889263 -68.373926 
L 374.070186 -72.540149 
L 376.251108 -77.901313 
L 378.432031 -80.774474 
L 380.612954 -80.997209 
L 382.793877 -83.002374 
L 384.9748 -85.015966 
L 387.155723 -86.826594 
L 389.336646 -88.664863 
L 391.517568 -89.630272 
L 393.698491 -89.338968 
L 395.879414 -88.516024 
L 398.060337 -87.972743 
L 400.24126 -89.537918 
L 402.422183 -92.794397 
L 404.603106 -91.954895 
L 406.784028 -87.814292 
L 408.964951 -85.106191 
L 411.145874 -83.512876 
L 413.326797 -83.367436 
L 415.50772 -83.803565 
L 417.688643 -80.383069 
L 419.869566 -76.257869 
L 422.050489 -74.244915 
L 424.231411 -74.074067 
L 426.412334 -75.483913 
L 428.593257 -76.338699 
L 430.77418 -79.287957 
L 432.955103 -84.964432 
L 435.136026 -89.749533 
L 437.316949 -91.274806 
L 439.497871 -89.660145 
L 441.678794 -89.41985 
L 443.859717 -88.227087 
L 446.04064 -85.294957 
L 448.221563 -83.028648 
L 450.402486 -81.576285 
L 452.583409 -81.915651 
L 454.764332 -83.184985 
L 456.945254 -83.241074 
L 459.126177 -80.795883 
L 461.3071 -80.355876 
L 463.488023 -83.944441 
L 465.668946 -86.71188 
L 467.849869 -86.85606 
L 470.030792 -84.71853 
L 472.211714 -84.035397 
L 474.392637 -83.586501 
L 474.392637 -106.385442 
L 474.392637 -106.385442 
L 472.211714 -104.838977 
L 470.030792 -101.602793 
L 467.849869 -100.506643 
L 465.668946 -100.677041 
L 463.488023 -101.104246 
L 461.3071 -100.760574 
L 459.126177 -101.042405 
L 456.945254 -102.818396 
L 454.764332 -104.670758 
L 452.583409 -104.97917 
L 450.402486 -102.333999 
L 448.221563 -99.028924 
L 446.04064 -99.864607 
L 443.859717 -100.711308 
L 441.678794 -102.034911 
L 439.497871 -102.51937 
L 437.316949 -102.759189 
L 435.136026 -105.147447 
L 432.955103 -109.129302 
L 430.77418 -113.956982 
L 428.593257 -121.107295 
L 426.412334 -126.448013 
L 424.231411 -127.914715 
L 422.050489 -124.760904 
L 419.869566 -121.48539 
L 417.688643 -118.502398 
L 415.50772 -116.489959 
L 413.326797 -115.586393 
L 411.145874 -112.554252 
L 408.964951 -110.850957 
L 406.784028 -110.325266 
L 404.603106 -108.91218 
L 402.422183 -108.017344 
L 400.24126 -110.361676 
L 398.060337 -110.187259 
L 395.879414 -109.2176 
L 393.698491 -107.033558 
L 391.517568 -104.75462 
L 389.336646 -106.550641 
L 387.155723 -107.790861 
L 384.9748 -108.323165 
L 382.793877 -107.417978 
L 380.612954 -104.320316 
L 378.432031 -101.259835 
L 376.251108 -98.495216 
L 374.070186 -98.169048 
L 371.889263 -100.455018 
L 369.70834 -100.995108 
L 367.527417 -97.69218 
L 365.346494 -93.409723 
L 363.165571 -92.430788 
L 360.984648 -94.498953 
L 358.803725 -97.659647 
L 356.622803 -99.468119 
L 354.44188 -100.277368 
L 352.260957 -100.856764 
L 350.080034 -102.186465 
L 347.899111 -104.967776 
L 345.718188 -107.500313 
L 343.537265 -109.620834 
L 341.356343 -109.610883 
L 339.17542 -106.357976 
L 336.994497 -101.181151 
L 334.813574 -97.871997 
L 332.632651 -96.084126 
L 330.451728 -93.950335 
L 328.270805 -96.359336 
L 326.089882 -98.428489 
L 323.90896 -98.563621 
L 321.728037 -97.799291 
L 319.547114 -97.00081 
L 317.366191 -98.351647 
L 315.185268 -100.312507 
L 313.004345 -100.23306 
L 310.823422 -99.292895 
L 308.6425 -99.572032 
L 306.461577 -100.929264 
L 304.280654 -102.899153 
L 302.099731 -104.550929 
L 299.918808 -103.662547 
L 297.737885 -102.95813 
L 295.556962 -100.98642 
L 293.37604 -100.208954 
L 291.195117 -102.837305 
L 289.014194 -107.296626 
L 286.833271 -116.20551 
L 284.652348 -128.982508 
L 282.471425 -139.728269 
z
" style="stroke: #1f77b4; stroke-opacity: 0.15"/>
    </defs>
    <g clip-path="url(#p47106ca19d)">
     <use xlink:href="#md67d852718" x="0" y="215.397188" style="fill: #1f77b4; fill-opacity: 0.15; stroke: #1f77b4; stroke-opacity: 0.15"/>
    </g>
   </g>
   <g id="FillBetweenPolyCollection_4">
    <defs>
     <path id="m9de8d9c62c" d="M 282.471425 -131.665946 
L 282.471425 -102.931784 
L 284.652348 -103.110311 
L 286.833271 -99.733586 
L 289.014194 -97.882568 
L 291.195117 -98.52449 
L 293.37604 -96.636224 
L 295.556962 -92.94819 
L 297.737885 -89.583179 
L 299.918808 -88.368069 
L 302.099731 -86.415584 
L 304.280654 -85.899511 
L 306.461577 -87.413289 
L 308.6425 -88.804329 
L 310.823422 -90.231736 
L 313.004345 -88.072206 
L 315.185268 -81.102621 
L 317.366191 -73.326982 
L 319.547114 -71.473208 
L 321.728037 -74.469729 
L 323.90896 -77.737307 
L 326.089882 -79.516986 
L 328.270805 -82.9152 
L 330.451728 -84.83913 
L 332.632651 -85.298862 
L 334.813574 -88.666157 
L 336.994497 -91.563321 
L 339.17542 -94.291094 
L 341.356343 -97.890348 
L 343.537265 -103.194419 
L 345.718188 -104.553417 
L 347.899111 -95.235858 
L 350.080034 -91.447052 
L 352.260957 -92.997922 
L 354.44188 -93.310312 
L 356.622803 -95.075275 
L 358.803725 -93.995886 
L 360.984648 -86.877677 
L 363.165571 -80.071277 
L 365.346494 -82.138592 
L 367.527417 -88.239317 
L 369.70834 -92.553823 
L 371.889263 -95.761878 
L 374.070186 -95.063062 
L 376.251108 -94.374471 
L 378.432031 -95.268313 
L 380.612954 -95.363375 
L 382.793877 -98.976933 
L 384.9748 -104.527551 
L 387.155723 -105.274992 
L 389.336646 -102.053971 
L 391.517568 -100.513112 
L 393.698491 -101.550556 
L 395.879414 -102.831477 
L 398.060337 -98.614858 
L 400.24126 -95.970287 
L 402.422183 -98.545508 
L 404.603106 -95.119261 
L 406.784028 -92.05439 
L 408.964951 -87.999273 
L 411.145874 -87.774367 
L 413.326797 -90.847706 
L 415.50772 -92.538847 
L 417.688643 -92.402737 
L 419.869566 -89.58998 
L 422.050489 -88.589852 
L 424.231411 -90.700727 
L 426.412334 -90.596836 
L 428.593257 -86.751342 
L 430.77418 -83.833401 
L 432.955103 -85.267772 
L 435.136026 -88.77957 
L 437.316949 -90.741079 
L 439.497871 -88.589563 
L 441.678794 -85.794291 
L 443.859717 -85.386269 
L 446.04064 -88.877758 
L 448.221563 -89.286946 
L 450.402486 -84.835116 
L 452.583409 -82.341772 
L 454.764332 -82.165013 
L 456.945254 -82.222167 
L 459.126177 -79.768969 
L 461.3071 -79.642164 
L 463.488023 -81.423034 
L 465.668946 -82.792617 
L 467.849869 -83.423333 
L 470.030792 -83.45018 
L 472.211714 -82.878857 
L 474.392637 -82.176003 
L 474.392637 -104.77248 
L 474.392637 -104.77248 
L 472.211714 -101.982308 
L 470.030792 -100.787219 
L 467.849869 -100.58532 
L 465.668946 -104.18647 
L 463.488023 -111.897814 
L 461.3071 -116.618119 
L 459.126177 -115.775602 
L 456.945254 -110.681201 
L 454.764332 -107.050811 
L 452.583409 -108.542532 
L 450.402486 -111.675701 
L 448.221563 -113.603024 
L 446.04064 -112.662545 
L 443.859717 -112.311921 
L 441.678794 -115.186241 
L 439.497871 -118.180673 
L 437.316949 -115.174476 
L 435.136026 -112.107292 
L 432.955103 -113.074041 
L 430.77418 -113.791608 
L 428.593257 -112.864052 
L 426.412334 -112.990846 
L 424.231411 -115.847991 
L 422.050489 -119.007251 
L 419.869566 -117.066097 
L 417.688643 -117.774319 
L 415.50772 -118.412235 
L 413.326797 -117.81906 
L 411.145874 -117.419154 
L 408.964951 -115.286869 
L 406.784028 -113.217835 
L 404.603106 -119.465997 
L 402.422183 -125.569651 
L 400.24126 -129.831254 
L 398.060337 -129.449861 
L 395.879414 -126.765068 
L 393.698491 -118.424629 
L 391.517568 -112.319315 
L 389.336646 -116.505904 
L 387.155723 -122.059499 
L 384.9748 -128.450663 
L 382.793877 -134.554958 
L 380.612954 -137.758685 
L 378.432031 -137.928375 
L 376.251108 -138.82783 
L 374.070186 -136.477807 
L 371.889263 -134.934424 
L 369.70834 -133.671395 
L 367.527417 -131.463437 
L 365.346494 -134.069209 
L 363.165571 -137.86769 
L 360.984648 -133.312433 
L 358.803725 -127.845725 
L 356.622803 -125.410376 
L 354.44188 -126.00826 
L 352.260957 -128.119897 
L 350.080034 -131.187711 
L 347.899111 -129.650227 
L 345.718188 -123.838998 
L 343.537265 -118.077065 
L 341.356343 -112.206832 
L 339.17542 -114.108763 
L 336.994497 -117.527578 
L 334.813574 -122.290555 
L 332.632651 -122.89044 
L 330.451728 -119.496107 
L 328.270805 -114.589496 
L 326.089882 -113.797568 
L 323.90896 -115.430515 
L 321.728037 -116.904148 
L 319.547114 -121.752327 
L 317.366191 -127.570476 
L 315.185268 -135.658483 
L 313.004345 -138.612905 
L 310.823422 -135.177105 
L 308.6425 -130.09304 
L 306.461577 -123.584929 
L 304.280654 -116.545358 
L 302.099731 -112.503569 
L 299.918808 -111.789779 
L 297.737885 -116.54155 
L 295.556962 -120.566308 
L 293.37604 -122.878963 
L 291.195117 -129.094469 
L 289.014194 -133.43405 
L 286.833271 -133.449112 
L 284.652348 -132.759774 
L 282.471425 -131.665946 
z
" style="stroke: #ff7f0e; stroke-opacity: 0.15"/>
    </defs>
    <g clip-path="url(#p47106ca19d)">
     <use xlink:href="#m9de8d9c62c" x="0" y="215.397188" style="fill: #ff7f0e; fill-opacity: 0.15; stroke: #ff7f0e; stroke-opacity: 0.15"/>
    </g>
   </g>
   <g id="line2d_15">
    <path d="M 272.875365 109.590788 
L 483.988698 109.590788 
" clip-path="url(#p47106ca19d)" style="fill: none; stroke-dasharray: 2.96,1.28; stroke-dashoffset: 0; stroke: #000000; stroke-width: 0.8"/>
   </g>
   <g id="matplotlib.axis_3">
    <g id="xtick_6">
     <g id="line2d_16">
      <g>
       <use xlink:href="#me85ab46960" x="278.109579" y="182.68" style="stroke: #000000; stroke-width: 0.8"/>
      </g>
     </g>
     <g id="text_15">
      <!-- 0 -->
      <g transform="translate(275.882704 194.998906) scale(0.07 -0.07)">
       <use xlink:href="#DejaVuSans-30"/>
      </g>
     </g>
    </g>
    <g id="xtick_7">
     <g id="line2d_17">
      <g>
       <use xlink:href="#me85ab46960" x="321.728037" y="182.68" style="stroke: #000000; stroke-width: 0.8"/>
      </g>
     </g>
     <g id="text_16">
      <!-- 10 -->
      <g transform="translate(317.274287 194.998906) scale(0.07 -0.07)">
       <use xlink:href="#DejaVuSans-31"/>
       <use xlink:href="#DejaVuSans-30" transform="translate(63.623047 0)"/>
      </g>
     </g>
    </g>
    <g id="xtick_8">
     <g id="line2d_18">
      <g>
       <use xlink:href="#me85ab46960" x="365.346494" y="182.68" style="stroke: #000000; stroke-width: 0.8"/>
      </g>
     </g>
     <g id="text_17">
      <!-- 20 -->
      <g transform="translate(360.892744 194.998906) scale(0.07 -0.07)">
       <use xlink:href="#DejaVuSans-32"/>
       <use xlink:href="#DejaVuSans-30" transform="translate(63.623047 0)"/>
      </g>
     </g>
    </g>
    <g id="xtick_9">
     <g id="line2d_19">
      <g>
       <use xlink:href="#me85ab46960" x="408.964951" y="182.68" style="stroke: #000000; stroke-width: 0.8"/>
      </g>
     </g>
     <g id="text_18">
      <!-- 30 -->
      <g transform="translate(404.511201 194.998906) scale(0.07 -0.07)">
       <use xlink:href="#DejaVuSans-33"/>
       <use xlink:href="#DejaVuSans-30" transform="translate(63.623047 0)"/>
      </g>
     </g>
    </g>
    <g id="xtick_10">
     <g id="line2d_20">
      <g>
       <use xlink:href="#me85ab46960" x="452.583409" y="182.68" style="stroke: #000000; stroke-width: 0.8"/>
      </g>
     </g>
     <g id="text_19">
      <!-- 40 -->
      <g transform="translate(448.129659 194.998906) scale(0.07 -0.07)">
       <use xlink:href="#DejaVuSans-34"/>
       <use xlink:href="#DejaVuSans-30" transform="translate(63.623047 0)"/>
      </g>
     </g>
    </g>
    <g id="text_20">
     <!-- Frequency (Hz) -->
     <g transform="translate(348.268281 206.533437) scale(0.08 -0.08)">
      <use xlink:href="#DejaVuSans-46"/>
      <use xlink:href="#DejaVuSans-72" transform="translate(50.269531 0)"/>
      <use xlink:href="#DejaVuSans-65" transform="translate(89.132812 0)"/>
      <use xlink:href="#DejaVuSans-71" transform="translate(150.65625 0)"/>
      <use xlink:href="#DejaVuSans-75" transform="translate(214.132812 0)"/>
      <use xlink:href="#DejaVuSans-65" transform="translate(277.511719 0)"/>
      <use xlink:href="#DejaVuSans-6e" transform="translate(339.035156 0)"/>
      <use xlink:href="#DejaVuSans-63" transform="translate(402.414062 0)"/>
      <use xlink:href="#DejaVuSans-79" transform="translate(457.394531 0)"/>
      <use xlink:href="#DejaVuSans-20" transform="translate(516.574219 0)"/>
      <use xlink:href="#DejaVuSans-28" transform="translate(548.361328 0)"/>
      <use xlink:href="#DejaVuSans-48" transform="translate(587.375 0)"/>
      <use xlink:href="#DejaVuSans-7a" transform="translate(662.570312 0)"/>
      <use xlink:href="#DejaVuSans-29" transform="translate(715.060547 0)"/>
     </g>
    </g>
   </g>
   <g id="matplotlib.axis_4">
    <g id="ytick_7">
     <g id="line2d_21">
      <g>
       <use xlink:href="#md4c23a6416" x="272.875365" y="170.492231" style="stroke: #000000; stroke-width: 0.8"/>
      </g>
     </g>
    </g>
    <g id="ytick_8">
     <g id="line2d_22">
      <g>
       <use xlink:href="#md4c23a6416" x="272.875365" y="150.19175" style="stroke: #000000; stroke-width: 0.8"/>
      </g>
     </g>
    </g>
    <g id="ytick_9">
     <g id="line2d_23">
      <g>
       <use xlink:href="#md4c23a6416" x="272.875365" y="129.891269" style="stroke: #000000; stroke-width: 0.8"/>
      </g>
     </g>
    </g>
    <g id="ytick_10">
     <g id="line2d_24">
      <g>
       <use xlink:href="#md4c23a6416" x="272.875365" y="109.590788" style="stroke: #000000; stroke-width: 0.8"/>
      </g>
     </g>
    </g>
    <g id="ytick_11">
     <g id="line2d_25">
      <g>
       <use xlink:href="#md4c23a6416" x="272.875365" y="89.290307" style="stroke: #000000; stroke-width: 0.8"/>
      </g>
     </g>
    </g>
    <g id="ytick_12">
     <g id="line2d_26">
      <g>
       <use xlink:href="#md4c23a6416" x="272.875365" y="68.989826" style="stroke: #000000; stroke-width: 0.8"/>
      </g>
     </g>
    </g>
    <g id="text_21">
     <!-- ERD/ERS (dB) -->
     <g transform="translate(263.711615 148.236875) rotate(-90) scale(0.08 -0.08)">
      <use xlink:href="#DejaVuSans-45"/>
      <use xlink:href="#DejaVuSans-52" transform="translate(63.183594 0)"/>
      <use xlink:href="#DejaVuSans-44" transform="translate(132.666016 0)"/>
      <use xlink:href="#DejaVuSans-2f" transform="translate(209.667969 0)"/>
      <use xlink:href="#DejaVuSans-45" transform="translate(243.359375 0)"/>
      <use xlink:href="#DejaVuSans-52" transform="translate(306.542969 0)"/>
      <use xlink:href="#DejaVuSans-53" transform="translate(376.025391 0)"/>
      <use xlink:href="#DejaVuSans-20" transform="translate(439.501953 0)"/>
      <use xlink:href="#DejaVuSans-28" transform="translate(471.289062 0)"/>
      <use xlink:href="#DejaVuSans-64" transform="translate(510.302734 0)"/>
      <use xlink:href="#DejaVuSans-42" transform="translate(573.779297 0)"/>
      <use xlink:href="#DejaVuSans-29" transform="translate(642.382812 0)"/>
     </g>
    </g>
   </g>
   <g id="line2d_27">
    <path d="M 282.471425 91.158038 
L 284.652348 97.533225 
L 286.833271 105.592843 
L 289.014194 112.705266 
L 291.195117 118.096203 
L 293.37604 122.180549 
L 295.556962 124.246579 
L 297.737885 124.536861 
L 299.918808 125.158433 
L 302.099731 125.989859 
L 304.280654 127.182853 
L 306.461577 127.182638 
L 308.6425 127.723465 
L 310.823422 128.622556 
L 313.004345 129.793234 
L 315.185268 133.804114 
L 317.366191 138.378023 
L 319.547114 140.674044 
L 321.728037 141.354698 
L 323.90896 140.304789 
L 326.089882 137.049073 
L 328.270805 133.814147 
L 330.451728 130.912332 
L 332.632651 125.94762 
L 334.813574 122.261959 
L 336.994497 120.694874 
L 339.17542 120.675188 
L 341.356343 120.838292 
L 343.537265 121.150862 
L 345.718188 122.744683 
L 347.899111 124.59576 
L 350.080034 126.760894 
L 352.260957 128.506862 
L 354.44188 130.427223 
L 356.622803 132.872788 
L 358.803725 135.921242 
L 360.984648 139.083263 
L 363.165571 139.787467 
L 365.346494 137.992087 
L 367.527417 135.079305 
L 369.70834 132.231113 
L 371.889263 130.982716 
L 374.070186 130.042589 
L 376.251108 127.198923 
L 378.432031 124.380033 
L 380.612954 122.738425 
L 382.793877 120.187012 
L 384.9748 118.727622 
L 387.155723 118.08846 
L 389.336646 117.789436 
L 391.517568 118.204741 
L 393.698491 117.210925 
L 395.879414 116.530375 
L 398.060337 116.317186 
L 400.24126 115.447391 
L 402.422183 114.991317 
L 404.603106 114.96365 
L 406.784028 116.327408 
L 408.964951 117.418613 
L 411.145874 117.363623 
L 413.326797 115.920273 
L 415.50772 115.250426 
L 417.688643 115.954454 
L 419.869566 116.525558 
L 422.050489 115.894278 
L 424.231411 114.402796 
L 426.412334 114.431225 
L 428.593257 116.674191 
L 430.77418 118.774718 
L 432.955103 118.350321 
L 435.136026 117.948697 
L 437.316949 118.38019 
L 439.497871 119.30743 
L 441.678794 119.669807 
L 443.859717 120.92799 
L 446.04064 122.817405 
L 448.221563 124.368401 
L 450.402486 123.442046 
L 452.583409 121.949777 
L 454.764332 121.469316 
L 456.945254 122.367453 
L 459.126177 124.478043 
L 461.3071 124.838962 
L 463.488023 122.872844 
L 465.668946 121.702727 
L 467.849869 121.715836 
L 470.030792 122.236526 
L 472.211714 120.960001 
L 474.392637 120.411216 
" clip-path="url(#p47106ca19d)" style="fill: none; stroke: #1f77b4; stroke-width: 1.3; stroke-linecap: square"/>
   </g>
   <g id="line2d_28">
    <path d="M 282.471425 98.098322 
L 284.652348 97.462145 
L 286.833271 98.805838 
L 289.014194 99.738878 
L 291.195117 101.587708 
L 293.37604 105.639594 
L 295.556962 108.639938 
L 297.737885 112.334823 
L 299.918808 115.318264 
L 302.099731 115.937611 
L 304.280654 114.174753 
L 306.461577 109.898078 
L 308.6425 105.948503 
L 310.823422 102.692767 
L 313.004345 102.054632 
L 315.185268 107.016635 
L 317.366191 114.948459 
L 319.547114 118.78442 
L 321.728037 119.710249 
L 323.90896 118.813277 
L 326.089882 118.73991 
L 328.270805 116.644839 
L 330.451728 113.229569 
L 332.632651 111.302537 
L 334.813574 109.918832 
L 336.994497 110.851738 
L 339.17542 111.197259 
L 341.356343 110.348597 
L 343.537265 104.761445 
L 345.718188 101.20098 
L 347.899111 102.954145 
L 350.080034 104.079806 
L 352.260957 104.838278 
L 354.44188 105.737902 
L 356.622803 105.154362 
L 358.803725 104.476382 
L 360.984648 105.302133 
L 363.165571 106.427704 
L 365.346494 107.293287 
L 367.527417 105.545811 
L 369.70834 102.284578 
L 371.889263 100.049037 
L 374.070186 99.626753 
L 376.251108 98.796037 
L 378.432031 98.798843 
L 380.612954 98.836158 
L 382.793877 98.631242 
L 384.9748 98.90808 
L 387.155723 101.729942 
L 389.336646 106.11725 
L 391.517568 108.980974 
L 393.698491 105.409595 
L 395.879414 100.598915 
L 398.060337 101.364828 
L 400.24126 102.496417 
L 402.422183 103.339608 
L 404.603106 108.104559 
L 406.784028 112.761075 
L 408.964951 113.754116 
L 411.145874 112.800427 
L 413.326797 111.063804 
L 415.50772 109.921646 
L 417.688643 110.308659 
L 419.869566 112.069149 
L 422.050489 111.598636 
L 424.231411 112.122828 
L 426.412334 113.603347 
L 428.593257 115.589491 
L 430.77418 116.584683 
L 432.955103 116.226281 
L 435.136026 114.953756 
L 437.316949 112.43941 
L 439.497871 112.012069 
L 441.678794 114.906922 
L 443.859717 116.548092 
L 446.04064 114.627036 
L 448.221563 113.952203 
L 450.402486 117.141779 
L 452.583409 119.955036 
L 454.764332 120.789276 
L 456.945254 118.945503 
L 459.126177 117.624902 
L 461.3071 117.267046 
L 463.488023 118.736763 
L 465.668946 121.907644 
L 467.849869 123.392861 
L 470.030792 123.278488 
L 472.211714 122.966605 
L 474.392637 121.922946 
" clip-path="url(#p47106ca19d)" style="fill: none; stroke: #ff7f0e; stroke-width: 1.3; stroke-linecap: square"/>
   </g>
   <g id="patch_12">
    <path d="M 272.875365 182.68 
L 272.875365 59.28 
" style="fill: none; stroke: #000000; stroke-width: 0.8; stroke-linejoin: miter; stroke-linecap: square"/>
   </g>
   <g id="patch_13">
    <path d="M 483.988698 182.68 
L 483.988698 59.28 
" style="fill: none; stroke: #000000; stroke-width: 0.8; stroke-linejoin: miter; stroke-linecap: square"/>
   </g>
   <g id="patch_14">
    <path d="M 272.875365 182.68 
L 483.988698 182.68 
" style="fill: none; stroke: #000000; stroke-width: 0.8; stroke-linejoin: miter; stroke-linecap: square"/>
   </g>
   <g id="patch_15">
    <path d="M 272.875365 59.28 
L 483.988698 59.28 
" style="fill: none; stroke: #000000; stroke-width: 0.8; stroke-linejoin: miter; stroke-linecap: square"/>
   </g>
   <g id="text_22">
    <!-- Cz -->
    <g transform="translate(372.927969 53.28) scale(0.09 -0.09)">
     <use xlink:href="#DejaVuSans-43"/>
     <use xlink:href="#DejaVuSans-7a" transform="translate(69.824219 0)"/>
    </g>
   </g>
  </g>
  <g id="axes_3">
   <g id="patch_16">
    <path d="M 509.488698 182.68 
L 720.602031 182.68 
L 720.602031 59.28 
L 509.488698 59.28 
L 509.488698 182.68 
z
" style="fill: none"/>
   </g>
   <g id="patch_17">
    <path d="M 549.617679 182.68 
L 571.426907 182.68 
L 571.426907 59.28 
L 549.617679 59.28 
z
" clip-path="url(#p9a29a7053a)" style="fill: #d9d9d9; stroke: #d9d9d9; stroke-linejoin: miter"/>
   </g>
   <g id="patch_18">
    <path d="M 571.426907 182.68 
L 645.578285 182.68 
L 645.578285 59.28 
L 571.426907 59.28 
z
" clip-path="url(#p9a29a7053a)" style="fill: #ebebeb; stroke: #ebebeb; stroke-linejoin: miter"/>
   </g>
   <g id="FillBetweenPolyCollection_5">
    <defs>
     <path id="mbca1ae622c" d="M 519.084759 -120.655612 
L 519.084759 -101.881251 
L 521.265681 -98.705304 
L 523.446604 -94.540932 
L 525.627527 -92.813649 
L 527.80845 -92.481229 
L 529.989373 -90.009075 
L 532.170296 -84.460567 
L 534.351219 -82.29608 
L 536.532141 -81.449155 
L 538.713064 -80.478727 
L 540.893987 -80.76928 
L 543.07491 -81.357856 
L 545.255833 -82.2853 
L 547.436756 -81.4393 
L 549.617679 -78.708256 
L 551.798601 -71.890361 
L 553.979524 -62.438882 
L 556.160447 -53.161741 
L 558.34137 -42.941463 
L 560.522293 -40.971593 
L 562.703216 -50.135573 
L 564.884139 -64.335408 
L 567.065062 -72.576013 
L 569.245984 -78.190357 
L 571.426907 -82.250058 
L 573.60783 -85.323484 
L 575.788753 -83.845727 
L 577.969676 -80.750003 
L 580.150599 -78.399202 
L 582.331522 -78.699134 
L 584.512444 -80.070246 
L 586.693367 -79.608454 
L 588.87429 -77.856116 
L 591.055213 -75.931755 
L 593.236136 -71.514705 
L 595.417059 -66.487273 
L 597.597982 -63.571452 
L 599.778905 -62.438648 
L 601.959827 -62.286594 
L 604.14075 -64.628232 
L 606.321673 -67.09965 
L 608.502596 -69.516975 
L 610.683519 -72.273705 
L 612.864442 -76.661627 
L 615.045365 -81.195874 
L 617.226287 -82.355377 
L 619.40721 -81.794892 
L 621.588133 -82.397819 
L 623.769056 -85.714113 
L 625.949979 -87.091135 
L 628.130902 -86.253402 
L 630.311825 -85.791615 
L 632.492748 -88.798795 
L 634.67367 -91.00464 
L 636.854593 -89.204045 
L 639.035516 -87.417984 
L 641.216439 -87.346953 
L 643.397362 -87.816209 
L 645.578285 -87.373723 
L 647.759208 -84.764308 
L 649.94013 -82.515407 
L 652.121053 -81.237912 
L 654.301976 -81.575804 
L 656.482899 -80.822608 
L 658.663822 -81.355316 
L 660.844745 -83.146076 
L 663.025668 -86.494464 
L 665.20659 -89.924161 
L 667.387513 -91.074812 
L 669.568436 -91.995266 
L 671.749359 -92.826582 
L 673.930282 -91.421143 
L 676.111205 -89.433722 
L 678.292128 -90.538026 
L 680.473051 -93.407032 
L 682.653973 -93.299386 
L 684.834896 -89.950411 
L 687.015819 -88.911759 
L 689.196742 -90.917344 
L 691.377665 -93.189522 
L 693.558588 -93.222192 
L 695.739511 -90.637027 
L 697.920433 -89.171126 
L 700.101356 -89.105295 
L 702.282279 -88.277751 
L 704.463202 -88.479037 
L 706.644125 -89.76326 
L 708.825048 -89.275319 
L 711.005971 -89.512743 
L 711.005971 -102.698181 
L 711.005971 -102.698181 
L 708.825048 -101.926526 
L 706.644125 -102.679211 
L 704.463202 -105.630253 
L 702.282279 -106.410895 
L 700.101356 -105.761062 
L 697.920433 -104.453358 
L 695.739511 -104.597991 
L 693.558588 -105.938989 
L 691.377665 -106.1701 
L 689.196742 -106.279923 
L 687.015819 -105.874192 
L 684.834896 -104.552834 
L 682.653973 -104.596419 
L 680.473051 -105.261292 
L 678.292128 -106.133361 
L 676.111205 -107.140169 
L 673.930282 -107.765268 
L 671.749359 -111.478538 
L 669.568436 -113.590045 
L 667.387513 -116.224406 
L 665.20659 -116.749125 
L 663.025668 -116.833921 
L 660.844745 -115.454424 
L 658.663822 -114.727155 
L 656.482899 -115.542271 
L 654.301976 -114.295131 
L 652.121053 -113.435091 
L 649.94013 -113.420338 
L 647.759208 -113.616024 
L 645.578285 -112.503443 
L 643.397362 -110.45887 
L 641.216439 -109.330568 
L 639.035516 -106.563705 
L 636.854593 -102.842804 
L 634.67367 -101.139465 
L 632.492748 -102.162049 
L 630.311825 -100.550762 
L 628.130902 -97.950926 
L 625.949979 -98.17811 
L 623.769056 -98.761848 
L 621.588133 -100.875872 
L 619.40721 -100.790758 
L 617.226287 -101.769497 
L 615.045365 -101.639411 
L 612.864442 -101.548037 
L 610.683519 -100.521289 
L 608.502596 -99.914081 
L 606.321673 -101.487233 
L 604.14075 -103.714376 
L 601.959827 -103.124414 
L 599.778905 -99.519431 
L 597.597982 -96.832001 
L 595.417059 -96.136157 
L 593.236136 -96.396904 
L 591.055213 -99.09313 
L 588.87429 -102.333725 
L 586.693367 -104.447713 
L 584.512444 -107.016952 
L 582.331522 -110.140837 
L 580.150599 -110.384407 
L 577.969676 -107.882651 
L 575.788753 -107.245367 
L 573.60783 -108.075653 
L 571.426907 -109.210726 
L 569.245984 -107.255389 
L 567.065062 -104.985256 
L 564.884139 -111.092905 
L 562.703216 -122.985826 
L 560.522293 -128.60882 
L 558.34137 -123.199375 
L 556.160447 -110.293902 
L 553.979524 -99.477046 
L 551.798601 -96.974784 
L 549.617679 -97.480828 
L 547.436756 -97.673109 
L 545.255833 -100.003665 
L 543.07491 -100.110827 
L 540.893987 -100.989692 
L 538.713064 -103.79859 
L 536.532141 -106.017382 
L 534.351219 -105.84514 
L 532.170296 -103.873377 
L 529.989373 -103.867508 
L 527.80845 -105.107422 
L 525.627527 -109.205403 
L 523.446604 -114.804212 
L 521.265681 -118.733722 
L 519.084759 -120.655612 
z
" style="stroke: #1f77b4; stroke-opacity: 0.15"/>
    </defs>
    <g clip-path="url(#p9a29a7053a)">
     <use xlink:href="#mbca1ae622c" x="0" y="215.397188" style="fill: #1f77b4; fill-opacity: 0.15; stroke: #1f77b4; stroke-opacity: 0.15"/>
    </g>
   </g>
   <g id="FillBetweenPolyCollection_6">
    <defs>
     <path id="md8c1a63a9f" d="M 519.084759 -127.261504 
L 519.084759 -94.080537 
L 521.265681 -92.410777 
L 523.446604 -92.907388 
L 525.627527 -93.573206 
L 527.80845 -95.692286 
L 529.989373 -95.000635 
L 532.170296 -97.750148 
L 534.351219 -100.12626 
L 536.532141 -98.945415 
L 538.713064 -100.76175 
L 540.893987 -102.045642 
L 543.07491 -101.482736 
L 545.255833 -102.076223 
L 547.436756 -97.953068 
L 549.617679 -95.33115 
L 551.798601 -92.729797 
L 553.979524 -87.47292 
L 556.160447 -86.728714 
L 558.34137 -92.353246 
L 560.522293 -94.12482 
L 562.703216 -94.623204 
L 564.884139 -96.077786 
L 567.065062 -98.176281 
L 569.245984 -98.514418 
L 571.426907 -97.091896 
L 573.60783 -94.78319 
L 575.788753 -93.298241 
L 577.969676 -92.347172 
L 580.150599 -91.905347 
L 582.331522 -91.609341 
L 584.512444 -95.159081 
L 586.693367 -93.457972 
L 588.87429 -89.334259 
L 591.055213 -83.991073 
L 593.236136 -81.097441 
L 595.417059 -77.866671 
L 597.597982 -78.418632 
L 599.778905 -86.476552 
L 601.959827 -93.76855 
L 604.14075 -93.392363 
L 606.321673 -92.930814 
L 608.502596 -94.016287 
L 610.683519 -94.986336 
L 612.864442 -92.096226 
L 615.045365 -92.472243 
L 617.226287 -93.121045 
L 619.40721 -94.672418 
L 621.588133 -97.870565 
L 623.769056 -102.18728 
L 625.949979 -99.37547 
L 628.130902 -93.766115 
L 630.311825 -90.688382 
L 632.492748 -84.909584 
L 634.67367 -82.15407 
L 636.854593 -88.967183 
L 639.035516 -95.142032 
L 641.216439 -97.432614 
L 643.397362 -97.982816 
L 645.578285 -95.42078 
L 647.759208 -93.493876 
L 649.94013 -95.408573 
L 652.121053 -94.77207 
L 654.301976 -91.089882 
L 656.482899 -89.752279 
L 658.663822 -88.221813 
L 660.844745 -87.862577 
L 663.025668 -91.681322 
L 665.20659 -94.732901 
L 667.387513 -92.988598 
L 669.568436 -89.954887 
L 671.749359 -87.934214 
L 673.930282 -88.929462 
L 676.111205 -89.707293 
L 678.292128 -91.758929 
L 680.473051 -92.848796 
L 682.653973 -95.668097 
L 684.834896 -98.103542 
L 687.015819 -97.081096 
L 689.196742 -91.668738 
L 691.377665 -88.143963 
L 693.558588 -89.179512 
L 695.739511 -90.607205 
L 697.920433 -90.814367 
L 700.101356 -86.852092 
L 702.282279 -89.267429 
L 704.463202 -93.356931 
L 706.644125 -92.770823 
L 708.825048 -88.363997 
L 711.005971 -82.303839 
L 711.005971 -107.561571 
L 711.005971 -107.561571 
L 708.825048 -108.228989 
L 706.644125 -108.000146 
L 704.463202 -107.487384 
L 702.282279 -109.970338 
L 700.101356 -113.082456 
L 697.920433 -112.638168 
L 695.739511 -113.807844 
L 693.558588 -113.391219 
L 691.377665 -112.998446 
L 689.196742 -117.550589 
L 687.015819 -114.556141 
L 684.834896 -110.433174 
L 682.653973 -110.494422 
L 680.473051 -114.253638 
L 678.292128 -116.458512 
L 676.111205 -115.768411 
L 673.930282 -111.825809 
L 671.749359 -108.181751 
L 669.568436 -109.390883 
L 667.387513 -110.94588 
L 665.20659 -111.289751 
L 663.025668 -109.918479 
L 660.844745 -108.90671 
L 658.663822 -110.147344 
L 656.482899 -110.428555 
L 654.301976 -110.551955 
L 652.121053 -112.428243 
L 649.94013 -116.4567 
L 647.759208 -121.870283 
L 645.578285 -122.1713 
L 643.397362 -123.869442 
L 641.216439 -127.586969 
L 639.035516 -126.99813 
L 636.854593 -121.259088 
L 634.67367 -120.434863 
L 632.492748 -119.791852 
L 630.311825 -121.990635 
L 628.130902 -124.195401 
L 625.949979 -124.304219 
L 623.769056 -127.779978 
L 621.588133 -127.885318 
L 619.40721 -119.909942 
L 617.226287 -114.967278 
L 615.045365 -117.342232 
L 612.864442 -120.524553 
L 610.683519 -123.50948 
L 608.502596 -128.379248 
L 606.321673 -129.934479 
L 604.14075 -130.524832 
L 601.959827 -130.719673 
L 599.778905 -127.902027 
L 597.597982 -123.400105 
L 595.417059 -120.885783 
L 593.236136 -121.487051 
L 591.055213 -123.43101 
L 588.87429 -122.986093 
L 586.693367 -120.064115 
L 584.512444 -114.133695 
L 582.331522 -110.323265 
L 580.150599 -109.646956 
L 577.969676 -116.189101 
L 575.788753 -124.445047 
L 573.60783 -127.050888 
L 571.426907 -127.711068 
L 569.245984 -122.769921 
L 567.065062 -116.931231 
L 564.884139 -117.084548 
L 562.703216 -125.048043 
L 560.522293 -135.558097 
L 558.34137 -144.881841 
L 556.160447 -150.508097 
L 553.979524 -145.000774 
L 551.798601 -137.488828 
L 549.617679 -131.820785 
L 547.436756 -124.164325 
L 545.255833 -118.332822 
L 543.07491 -116.11177 
L 540.893987 -111.888881 
L 538.713064 -113.019375 
L 536.532141 -114.886647 
L 534.351219 -115.102063 
L 532.170296 -115.819745 
L 529.989373 -116.085797 
L 527.80845 -113.709019 
L 525.627527 -116.641083 
L 523.446604 -122.170126 
L 521.265681 -125.516925 
L 519.084759 -127.261504 
z
" style="stroke: #ff7f0e; stroke-opacity: 0.15"/>
    </defs>
    <g clip-path="url(#p9a29a7053a)">
     <use xlink:href="#md8c1a63a9f" x="0" y="215.397188" style="fill: #ff7f0e; fill-opacity: 0.15; stroke: #ff7f0e; stroke-opacity: 0.15"/>
    </g>
   </g>
   <g id="line2d_29">
    <path d="M 509.488698 109.590788 
L 720.602031 109.590788 
" clip-path="url(#p9a29a7053a)" style="fill: none; stroke-dasharray: 2.96,1.28; stroke-dashoffset: 0; stroke: #000000; stroke-width: 0.8"/>
   </g>
   <g id="matplotlib.axis_5">
    <g id="xtick_11">
     <g id="line2d_30">
      <g>
       <use xlink:href="#me85ab46960" x="514.722913" y="182.68" style="stroke: #000000; stroke-width: 0.8"/>
      </g>
     </g>
     <g id="text_23">
      <!-- 0 -->
      <g transform="translate(512.496038 194.998906) scale(0.07 -0.07)">
       <use xlink:href="#DejaVuSans-30"/>
      </g>
     </g>
    </g>
    <g id="xtick_12">
     <g id="line2d_31">
      <g>
       <use xlink:href="#me85ab46960" x="558.34137" y="182.68" style="stroke: #000000; stroke-width: 0.8"/>
      </g>
     </g>
     <g id="text_24">
      <!-- 10 -->
      <g transform="translate(553.88762 194.998906) scale(0.07 -0.07)">
       <use xlink:href="#DejaVuSans-31"/>
       <use xlink:href="#DejaVuSans-30" transform="translate(63.623047 0)"/>
      </g>
     </g>
    </g>
    <g id="xtick_13">
     <g id="line2d_32">
      <g>
       <use xlink:href="#me85ab46960" x="601.959827" y="182.68" style="stroke: #000000; stroke-width: 0.8"/>
      </g>
     </g>
     <g id="text_25">
      <!-- 20 -->
      <g transform="translate(597.506077 194.998906) scale(0.07 -0.07)">
       <use xlink:href="#DejaVuSans-32"/>
       <use xlink:href="#DejaVuSans-30" transform="translate(63.623047 0)"/>
      </g>
     </g>
    </g>
    <g id="xtick_14">
     <g id="line2d_33">
      <g>
       <use xlink:href="#me85ab46960" x="645.578285" y="182.68" style="stroke: #000000; stroke-width: 0.8"/>
      </g>
     </g>
     <g id="text_26">
      <!-- 30 -->
      <g transform="translate(641.124535 194.998906) scale(0.07 -0.07)">
       <use xlink:href="#DejaVuSans-33"/>
       <use xlink:href="#DejaVuSans-30" transform="translate(63.623047 0)"/>
      </g>
     </g>
    </g>
    <g id="xtick_15">
     <g id="line2d_34">
      <g>
       <use xlink:href="#me85ab46960" x="689.196742" y="182.68" style="stroke: #000000; stroke-width: 0.8"/>
      </g>
     </g>
     <g id="text_27">
      <!-- 40 -->
      <g transform="translate(684.742992 194.998906) scale(0.07 -0.07)">
       <use xlink:href="#DejaVuSans-34"/>
       <use xlink:href="#DejaVuSans-30" transform="translate(63.623047 0)"/>
      </g>
     </g>
    </g>
    <g id="text_28">
     <!-- Frequency (Hz) -->
     <g transform="translate(584.881615 206.533437) scale(0.08 -0.08)">
      <use xlink:href="#DejaVuSans-46"/>
      <use xlink:href="#DejaVuSans-72" transform="translate(50.269531 0)"/>
      <use xlink:href="#DejaVuSans-65" transform="translate(89.132812 0)"/>
      <use xlink:href="#DejaVuSans-71" transform="translate(150.65625 0)"/>
      <use xlink:href="#DejaVuSans-75" transform="translate(214.132812 0)"/>
      <use xlink:href="#DejaVuSans-65" transform="translate(277.511719 0)"/>
      <use xlink:href="#DejaVuSans-6e" transform="translate(339.035156 0)"/>
      <use xlink:href="#DejaVuSans-63" transform="translate(402.414062 0)"/>
      <use xlink:href="#DejaVuSans-79" transform="translate(457.394531 0)"/>
      <use xlink:href="#DejaVuSans-20" transform="translate(516.574219 0)"/>
      <use xlink:href="#DejaVuSans-28" transform="translate(548.361328 0)"/>
      <use xlink:href="#DejaVuSans-48" transform="translate(587.375 0)"/>
      <use xlink:href="#DejaVuSans-7a" transform="translate(662.570312 0)"/>
      <use xlink:href="#DejaVuSans-29" transform="translate(715.060547 0)"/>
     </g>
    </g>
   </g>
   <g id="matplotlib.axis_6">
    <g id="ytick_13">
     <g id="line2d_35">
      <g>
       <use xlink:href="#md4c23a6416" x="509.488698" y="170.492231" style="stroke: #000000; stroke-width: 0.8"/>
      </g>
     </g>
    </g>
    <g id="ytick_14">
     <g id="line2d_36">
      <g>
       <use xlink:href="#md4c23a6416" x="509.488698" y="150.19175" style="stroke: #000000; stroke-width: 0.8"/>
      </g>
     </g>
    </g>
    <g id="ytick_15">
     <g id="line2d_37">
      <g>
       <use xlink:href="#md4c23a6416" x="509.488698" y="129.891269" style="stroke: #000000; stroke-width: 0.8"/>
      </g>
     </g>
    </g>
    <g id="ytick_16">
     <g id="line2d_38">
      <g>
       <use xlink:href="#md4c23a6416" x="509.488698" y="109.590788" style="stroke: #000000; stroke-width: 0.8"/>
      </g>
     </g>
    </g>
    <g id="ytick_17">
     <g id="line2d_39">
      <g>
       <use xlink:href="#md4c23a6416" x="509.488698" y="89.290307" style="stroke: #000000; stroke-width: 0.8"/>
      </g>
     </g>
    </g>
    <g id="ytick_18">
     <g id="line2d_40">
      <g>
       <use xlink:href="#md4c23a6416" x="509.488698" y="68.989826" style="stroke: #000000; stroke-width: 0.8"/>
      </g>
     </g>
    </g>
    <g id="text_29">
     <!-- ERD/ERS (dB) -->
     <g transform="translate(500.324948 148.236875) rotate(-90) scale(0.08 -0.08)">
      <use xlink:href="#DejaVuSans-45"/>
      <use xlink:href="#DejaVuSans-52" transform="translate(63.183594 0)"/>
      <use xlink:href="#DejaVuSans-44" transform="translate(132.666016 0)"/>
      <use xlink:href="#DejaVuSans-2f" transform="translate(209.667969 0)"/>
      <use xlink:href="#DejaVuSans-45" transform="translate(243.359375 0)"/>
      <use xlink:href="#DejaVuSans-52" transform="translate(306.542969 0)"/>
      <use xlink:href="#DejaVuSans-53" transform="translate(376.025391 0)"/>
      <use xlink:href="#DejaVuSans-20" transform="translate(439.501953 0)"/>
      <use xlink:href="#DejaVuSans-28" transform="translate(471.289062 0)"/>
      <use xlink:href="#DejaVuSans-64" transform="translate(510.302734 0)"/>
      <use xlink:href="#DejaVuSans-42" transform="translate(573.779297 0)"/>
      <use xlink:href="#DejaVuSans-29" transform="translate(642.382812 0)"/>
     </g>
    </g>
   </g>
   <g id="line2d_41">
    <path d="M 519.084759 104.128756 
L 521.265681 106.677675 
L 523.446604 110.724615 
L 525.627527 114.387662 
L 527.80845 116.602862 
L 529.989373 118.458896 
L 532.170296 121.230216 
L 534.351219 121.326577 
L 536.532141 121.663919 
L 538.713064 123.258529 
L 540.893987 124.517702 
L 543.07491 124.662846 
L 545.255833 124.252705 
L 547.436756 125.840983 
L 549.617679 127.302645 
L 551.798601 130.964615 
L 553.979524 134.439224 
L 556.160447 133.669366 
L 558.34137 132.326769 
L 560.522293 130.606981 
L 562.703216 128.836488 
L 564.884139 127.683031 
L 567.065062 126.616553 
L 569.245984 122.674315 
L 571.426907 119.666796 
L 573.60783 118.697619 
L 575.788753 119.85164 
L 577.969676 121.080861 
L 580.150599 121.005383 
L 582.331522 120.977202 
L 584.512444 121.853588 
L 586.693367 123.369104 
L 588.87429 125.302267 
L 591.055213 127.884745 
L 593.236136 131.441383 
L 595.417059 134.085472 
L 597.597982 135.195461 
L 599.778905 134.418148 
L 601.959827 132.691683 
L 604.14075 131.225883 
L 606.321673 131.103746 
L 608.502596 130.681659 
L 610.683519 128.999691 
L 612.864442 126.292356 
L 615.045365 123.979545 
L 617.226287 123.33475 
L 619.40721 124.104363 
L 621.588133 123.760342 
L 623.769056 123.159207 
L 625.949979 122.762565 
L 628.130902 123.295023 
L 630.311825 122.225999 
L 632.492748 119.916765 
L 634.67367 119.325135 
L 636.854593 119.373763 
L 639.035516 118.406343 
L 641.216439 117.058427 
L 643.397362 116.259648 
L 645.578285 115.458605 
L 647.759208 116.207022 
L 649.94013 117.429315 
L 652.121053 118.060686 
L 654.301976 117.46172 
L 656.482899 117.214748 
L 658.663822 117.355952 
L 660.844745 116.096938 
L 663.025668 113.732995 
L 665.20659 112.060545 
L 667.387513 111.747579 
L 669.568436 112.604532 
L 671.749359 113.244627 
L 673.930282 115.803982 
L 676.111205 117.110242 
L 678.292128 117.061494 
L 680.473051 116.063026 
L 682.653973 116.449285 
L 684.834896 118.145565 
L 687.015819 118.004212 
L 689.196742 116.798554 
L 691.377665 115.717377 
L 693.558588 115.816597 
L 695.739511 117.779679 
L 697.920433 118.584946 
L 700.101356 117.964009 
L 702.282279 118.052865 
L 704.463202 118.342543 
L 706.644125 119.175952 
L 708.825048 119.796265 
L 711.005971 119.291726 
" clip-path="url(#p9a29a7053a)" style="fill: none; stroke: #1f77b4; stroke-width: 1.3; stroke-linecap: square"/>
   </g>
   <g id="line2d_42">
    <path d="M 519.084759 104.726167 
L 521.265681 106.433337 
L 523.446604 107.858431 
L 525.627527 110.290043 
L 527.80845 110.696535 
L 529.989373 109.853971 
L 532.170296 108.612241 
L 534.351219 107.783026 
L 536.532141 108.481156 
L 538.713064 108.506625 
L 540.893987 108.429926 
L 543.07491 106.599934 
L 545.255833 105.192665 
L 547.436756 104.338491 
L 549.617679 101.82122 
L 551.798601 100.287875 
L 553.979524 99.16034 
L 556.160447 96.778782 
L 558.34137 96.779644 
L 560.522293 100.555729 
L 562.703216 105.561564 
L 564.884139 108.81602 
L 567.065062 107.843431 
L 569.245984 104.755018 
L 571.426907 102.995705 
L 573.60783 104.480149 
L 575.788753 106.525543 
L 577.969676 111.129051 
L 580.150599 114.621036 
L 582.331522 114.430884 
L 584.512444 110.750799 
L 586.693367 108.636144 
L 588.87429 109.237011 
L 591.055213 111.686146 
L 593.236136 114.104942 
L 595.417059 116.02096 
L 597.597982 114.487819 
L 599.778905 108.207898 
L 601.959827 103.153076 
L 604.14075 103.43859 
L 606.321673 103.964541 
L 608.502596 104.19942 
L 610.683519 106.149279 
L 612.864442 109.086798 
L 615.045365 110.48995 
L 617.226287 111.353026 
L 619.40721 108.106007 
L 621.588133 102.519246 
L 623.769056 100.413559 
L 625.949979 103.557343 
L 628.130902 106.41643 
L 630.311825 109.057679 
L 632.492748 113.046469 
L 634.67367 114.102721 
L 636.854593 110.284052 
L 639.035516 104.327107 
L 641.216439 102.887396 
L 643.397362 104.471058 
L 645.578285 106.601148 
L 647.759208 107.715108 
L 649.94013 109.464551 
L 652.121053 111.797031 
L 654.301976 114.576269 
L 656.482899 115.30677 
L 658.663822 116.212609 
L 660.844745 117.012544 
L 663.025668 114.597287 
L 665.20659 112.385862 
L 667.387513 113.429949 
L 669.568436 115.724303 
L 671.749359 117.339205 
L 673.930282 115.019552 
L 676.111205 112.659336 
L 678.292128 111.288467 
L 680.473051 111.845971 
L 682.653973 112.315928 
L 684.834896 111.128829 
L 687.015819 109.578569 
L 689.196742 110.787524 
L 691.377665 114.825983 
L 693.558588 114.111822 
L 695.739511 113.189663 
L 697.920433 113.67092 
L 700.101356 115.429913 
L 702.282279 115.778304 
L 704.463202 114.97503 
L 706.644125 115.011703 
L 708.825048 117.100694 
L 711.005971 120.464483 
" clip-path="url(#p9a29a7053a)" style="fill: none; stroke: #ff7f0e; stroke-width: 1.3; stroke-linecap: square"/>
   </g>
   <g id="patch_19">
    <path d="M 509.488698 182.68 
L 509.488698 59.28 
" style="fill: none; stroke: #000000; stroke-width: 0.8; stroke-linejoin: miter; stroke-linecap: square"/>
   </g>
   <g id="patch_20">
    <path d="M 720.602031 182.68 
L 720.602031 59.28 
" style="fill: none; stroke: #000000; stroke-width: 0.8; stroke-linejoin: miter; stroke-linecap: square"/>
   </g>
   <g id="patch_21">
    <path d="M 509.488698 182.68 
L 720.602031 182.68 
" style="fill: none; stroke: #000000; stroke-width: 0.8; stroke-linejoin: miter; stroke-linecap: square"/>
   </g>
   <g id="patch_22">
    <path d="M 509.488698 59.28 
L 720.602031 59.28 
" style="fill: none; stroke: #000000; stroke-width: 0.8; stroke-linejoin: miter; stroke-linecap: square"/>
   </g>
   <g id="text_30">
    <!-- C4 -->
    <g transform="translate(609.039974 53.28) scale(0.09 -0.09)">
     <use xlink:href="#DejaVuSans-43"/>
     <use xlink:href="#DejaVuSans-34" transform="translate(69.824219 0)"/>
    </g>
   </g>
  </g>
  <g id="text_31">
   <!-- ERD/ERS — ME — group (Movement vs Rest) -->
   <g transform="translate(241.075078 15.558281) scale(0.11 -0.11)">
    <defs>
     <path id="DejaVuSans-2014" d="M 313 1978 
L 6088 1978 
L 6088 1528 
L 313 1528 
L 313 1978 
z
" transform="scale(0.015625)"/>
     <path id="DejaVuSans-4d" d="M 628 4666 
L 1569 4666 
L 2759 1491 
L 3956 4666 
L 4897 4666 
L 4897 0 
L 4281 0 
L 4281 4097 
L 3078 897 
L 2444 897 
L 1241 4097 
L 1241 0 
L 628 0 
L 628 4666 
z
" transform="scale(0.015625)"/>
     <path id="DejaVuSans-67" d="M 2906 1791 
Q 2906 2416 2648 2759 
Q 2391 3103 1925 3103 
Q 1463 3103 1205 2759 
Q 947 2416 947 1791 
Q 947 1169 1205 825 
Q 1463 481 1925 481 
Q 2391 481 2648 825 
Q 2906 1169 2906 1791 
z
M 3481 434 
Q 3481 -459 3084 -895 
Q 2688 -1331 1869 -1331 
Q 1566 -1331 1297 -1286 
Q 1028 -1241 775 -1147 
L 775 -588 
Q 1028 -725 1275 -790 
Q 1522 -856 1778 -856 
Q 2344 -856 2625 -561 
Q 2906 -266 2906 331 
L 2906 616 
Q 2728 306 2450 153 
Q 2172 0 1784 0 
Q 1141 0 747 490 
Q 353 981 353 1791 
Q 353 2603 747 3093 
Q 1141 3584 1784 3584 
Q 2172 3584 2450 3431 
Q 2728 3278 2906 2969 
L 2906 3500 
L 3481 3500 
L 3481 434 
z
" transform="scale(0.015625)"/>
     <path id="DejaVuSans-6f" d="M 1959 3097 
Q 1497 3097 1228 2736 
Q 959 2375 959 1747 
Q 959 1119 1226 758 
Q 1494 397 1959 397 
Q 2419 397 2687 759 
Q 2956 1122 2956 1747 
Q 2956 2369 2687 2733 
Q 2419 3097 1959 3097 
z
M 1959 3584 
Q 2709 3584 3137 3096 
Q 3566 2609 3566 1747 
Q 3566 888 3137 398 
Q 2709 -91 1959 -91 
Q 1206 -91 779 398 
Q 353 888 353 1747 
Q 353 2609 779 3096 
Q 1206 3584 1959 3584 
z
" transform="scale(0.015625)"/>
     <path id="DejaVuSans-70" d="M 1159 525 
L 1159 -1331 
L 581 -1331 
L 581 3500 
L 1159 3500 
L 1159 2969 
Q 1341 3281 1617 3432 
Q 1894 3584 2278 3584 
Q 2916 3584 3314 3078 
Q 3713 2572 3713 1747 
Q 3713 922 3314 415 
Q 2916 -91 2278 -91 
Q 1894 -91 1617 61 
Q 1341 213 1159 525 
z
M 3116 1747 
Q 3116 2381 2855 2742 
Q 2594 3103 2138 3103 
Q 1681 3103 1420 2742 
Q 1159 2381 1159 1747 
Q 1159 1113 1420 752 
Q 1681 391 2138 391 
Q 2594 391 2855 752 
Q 3116 1113 3116 1747 
z
" transform="scale(0.015625)"/>
     <path id="DejaVuSans-76" d="M 191 3500 
L 800 3500 
L 1894 563 
L 2988 3500 
L 3597 3500 
L 2284 0 
L 1503 0 
L 191 3500 
z
" transform="scale(0.015625)"/>
     <path id="DejaVuSans-6d" d="M 3328 2828 
Q 3544 3216 3844 3400 
Q 4144 3584 4550 3584 
Q 5097 3584 5394 3201 
Q 5691 2819 5691 2113 
L 5691 0 
L 5113 0 
L 5113 2094 
Q 5113 2597 4934 2840 
Q 4756 3084 4391 3084 
Q 3944 3084 3684 2787 
Q 3425 2491 3425 1978 
L 3425 0 
L 2847 0 
L 2847 2094 
Q 2847 2600 2669 2842 
Q 2491 3084 2119 3084 
Q 1678 3084 1418 2786 
Q 1159 2488 1159 1978 
L 1159 0 
L 581 0 
L 581 3500 
L 1159 3500 
L 1159 2956 
Q 1356 3278 1631 3431 
Q 1906 3584 2284 3584 
Q 2666 3584 2933 3390 
Q 3200 3197 3328 2828 
z
" transform="scale(0.015625)"/>
     <path id="DejaVuSans-74" d="M 1172 4494 
L 1172 3500 
L 2356 3500 
L 2356 3053 
L 1172 3053 
L 1172 1153 
Q 1172 725 1289 603 
Q 1406 481 1766 481 
L 2356 481 
L 2356 0 
L 1766 0 
Q 1100 0 847 248 
Q 594 497 594 1153 
L 594 3053 
L 172 3053 
L 172 3500 
L 594 3500 
L 594 4494 
L 1172 4494 
z
" transform="scale(0.015625)"/>
     <path id="DejaVuSans-73" d="M 2834 3397 
L 2834 2853 
Q 2591 2978 2328 3040 
Q 2066 3103 1784 3103 
Q 1356 3103 1142 2972 
Q 928 2841 928 2578 
Q 928 2378 1081 2264 
Q 1234 2150 1697 2047 
L 1894 2003 
Q 2506 1872 2764 1633 
Q 3022 1394 3022 966 
Q 3022 478 2636 193 
Q 2250 -91 1575 -91 
Q 1294 -91 989 -36 
Q 684 19 347 128 
L 347 722 
Q 666 556 975 473 
Q 1284 391 1588 391 
Q 1994 391 2212 530 
Q 2431 669 2431 922 
Q 2431 1156 2273 1281 
Q 2116 1406 1581 1522 
L 1381 1569 
Q 847 1681 609 1914 
Q 372 2147 372 2553 
Q 372 3047 722 3315 
Q 1072 3584 1716 3584 
Q 2034 3584 2315 3537 
Q 2597 3491 2834 3397 
z
" transform="scale(0.015625)"/>
    </defs>
    <use xlink:href="#DejaVuSans-45"/>
    <use xlink:href="#DejaVuSans-52" transform="translate(63.183594 0)"/>
    <use xlink:href="#DejaVuSans-44" transform="translate(132.666016 0)"/>
    <use xlink:href="#DejaVuSans-2f" transform="translate(209.667969 0)"/>
    <use xlink:href="#DejaVuSans-45" transform="translate(243.359375 0)"/>
    <use xlink:href="#DejaVuSans-52" transform="translate(306.542969 0)"/>
    <use xlink:href="#DejaVuSans-53" transform="translate(376.025391 0)"/>
    <use xlink:href="#DejaVuSans-20" transform="translate(439.501953 0)"/>
    <use xlink:href="#DejaVuSans-2014" transform="translate(471.289062 0)"/>
    <use xlink:href="#DejaVuSans-20" transform="translate(571.289062 0)"/>
    <use xlink:href="#DejaVuSans-4d" transform="translate(603.076172 0)"/>
    <use xlink:href="#DejaVuSans-45" transform="translate(689.355469 0)"/>
    <use xlink:href="#DejaVuSans-20" transform="translate(752.539062 0)"/>
    <use xlink:href="#DejaVuSans-2014" transform="translate(784.326172 0)"/>
    <use xlink:href="#DejaVuSans-20" transform="translate(884.326172 0)"/>
    <use xlink:href="#DejaVuSans-67" transform="translate(916.113281 0)"/>
    <use xlink:href="#DejaVuSans-72" transform="translate(979.589844 0)"/>
    <use xlink:href="#DejaVuSans-6f" transform="translate(1018.453125 0)"/>
    <use xlink:href="#DejaVuSans-75" transform="translate(1079.634766 0)"/>
    <use xlink:href="#DejaVuSans-70" transform="translate(1143.013672 0)"/>
    <use xlink:href="#DejaVuSans-20" transform="translate(1206.490234 0)"/>
    <use xlink:href="#DejaVuSans-28" transform="translate(1238.277344 0)"/>
    <use xlink:href="#DejaVuSans-4d" transform="translate(1277.291016 0)"/>
    <use xlink:href="#DejaVuSans-6f" transform="translate(1363.570312 0)"/>
    <use xlink:href="#DejaVuSans-76" transform="translate(1424.751953 0)"/>
    <use xlink:href="#DejaVuSans-65" transform="translate(1483.931641 0)"/>
    <use xlink:href="#DejaVuSans-6d" transform="translate(1545.455078 0)"/>
    <use xlink:href="#DejaVuSans-65" transform="translate(1642.867188 0)"/>
    <use xlink:href="#DejaVuSans-6e" transform="translate(1704.390625 0)"/>
    <use xlink:href="#DejaVuSans-74" transform="translate(1767.769531 0)"/>
    <use xlink:href="#DejaVuSans-20" transform="translate(1806.978516 0)"/>
    <use xlink:href="#DejaVuSans-76" transform="translate(1838.765625 0)"/>
    <use xlink:href="#DejaVuSans-73" transform="translate(1897.945312 0)"/>
    <use xlink:href="#DejaVuSans-20" transform="translate(1950.044922 0)"/>
    <use xlink:href="#DejaVuSans-52" transform="translate(1981.832031 0)"/>
    <use xlink:href="#DejaVuSans-65" transform="translate(2046.814453 0)"/>
    <use xlink:href="#DejaVuSans-73" transform="translate(2108.337891 0)"/>
    <use xlink:href="#DejaVuSans-74" transform="translate(2160.4375 0)"/>
    <use xlink:href="#DejaVuSans-29" transform="translate(2199.646484 0)"/>
   </g>
  </g>
  <g id="legend_1">
   <g id="patch_23">
    <path d="M 663.350812 30.109375 
L 722.830031 30.109375 
Q 724.230031 30.109375 724.230031 28.709375 
L 724.230031 8.86 
Q 724.230031 7.46 722.830031 7.46 
L 663.350812 7.46 
Q 661.950812 7.46 661.950812 8.86 
L 661.950812 28.709375 
Q 661.950812 30.109375 663.350812 30.109375 
z
" style="fill: #ffffff; opacity: 0.8; stroke: #cccccc; stroke-linejoin: miter"/>
   </g>
   <g id="line2d_43">
    <path d="M 664.750812 13.128906 
L 671.750812 13.128906 
L 678.750812 13.128906 
" style="fill: none; stroke: #1f77b4; stroke-width: 1.3; stroke-linecap: square"/>
   </g>
   <g id="text_32">
    <!-- Movement -->
    <g transform="translate(684.350812 15.578906) scale(0.07 -0.07)">
     <use xlink:href="#DejaVuSans-4d"/>
     <use xlink:href="#DejaVuSans-6f" transform="translate(86.279297 0)"/>
     <use xlink:href="#DejaVuSans-76" transform="translate(147.460938 0)"/>
     <use xlink:href="#DejaVuSans-65" transform="translate(206.640625 0)"/>
     <use xlink:href="#DejaVuSans-6d" transform="translate(268.164062 0)"/>
     <use xlink:href="#DejaVuSans-65" transform="translate(365.576172 0)"/>
     <use xlink:href="#DejaVuSans-6e" transform="translate(427.099609 0)"/>
     <use xlink:href="#DejaVuSans-74" transform="translate(490.478516 0)"/>
    </g>
   </g>
   <g id="line2d_44">
    <path d="M 664.750812 23.403594 
L 671.750812 23.403594 
L 678.750812 23.403594 
" style="fill: none; stroke: #ff7f0e; stroke-width: 1.3; stroke-linecap: square"/>
   </g>
   <g id="text_33">
    <!-- rest -->
    <g transform="translate(684.350812 25.853594) scale(0.07 -0.07)">
     <use xlink:href="#DejaVuSans-72"/>
     <use xlink:href="#DejaVuSans-65" transform="translate(38.863281 0)"/>
     <use xlink:href="#DejaVuSans-73" transform="translate(100.386719 0)"/>
     <use xlink:href="#DejaVuSans-74" transform="translate(152.486328 0)"/>
    </g>
   </g>
  </g>
 </g>
 <defs>
  <clipPath id="p2343962df1">
   <rect x="36.262031" y="59.28" width="211.113333" height="123.4"/>
  </clipPath>
  <clipPath id="p47106ca19d">
   <rect x="272.875365" y="59.28" width="211.113333" height="123.4"/>
  </clipPath>
  <clipPath id="p9a29a7053a">
   <rect x="509.488698" y="59.28" width="211.113333" height="123.4"/>
  </clipPath>
 </defs>
</svg>
